<?xml version="1.0" encoding="UTF-8"?>
<svg version="1.1" xmlns="http://www.w3.org/2000/svg" width="512" height="512">
<path d="M0 0 C40.73258691 37.09857902 66.02515215 90.53183589 68.75683594 145.60009766 C71.35658136 205.24748248 50.85149524 260.57794808 10.75683594 304.60009766 C-27.93161451 345.99314124 -82.40228689 369.90666696 -138.90722656 371.81884766 C-198.08328558 373.11538802 -253.02557579 351.0823785 -295.70410156 310.33056641 C-335.85961751 271.24795203 -358.30392739 216.78829495 -359.52661133 160.9831543 C-360.09627253 102.0016777 -337.31308052 47.55856006 -296.32836914 5.44873047 C-227.86859712 -63.56894457 -117.13368472 -75.618845 0 0 Z M-167.36547852 64.20483398 C-168.2396492 65.07199539 -169.11381989 65.9391568 -170.01448059 66.83259583 C-172.39367088 69.19726484 -174.76359458 71.5704965 -177.12913918 73.94877076 C-179.61476506 76.44457939 -182.11019944 78.93055106 -184.60404968 81.4181366 C-188.78792834 85.59475549 -192.963342 89.77969763 -197.1340332 93.96948242 C-201.9469989 98.80422787 -206.77422404 103.62437586 -211.60907966 108.43722326 C-215.77121766 112.58117654 -219.92546912 116.73291497 -224.0732953 120.89119357 C-226.54571357 123.36982807 -229.02070777 125.84572801 -231.50286293 128.31461525 C-234.26939621 131.0673884 -237.01931081 133.83640504 -239.76782227 136.60717773 C-240.58603455 137.41729309 -241.40424683 138.22740845 -242.24725342 139.06207275 C-247.64602386 144.54205333 -251.66725188 149.47687823 -251.68066406 157.53759766 C-251.46216531 163.53720929 -249.69174482 167.93215252 -245.62988281 172.35791016 C-241.09604221 176.51979488 -237.05026591 178.34018082 -230.86816406 178.91259766 C-220.05965452 177.98082959 -214.52567282 171.5320388 -207.37597656 164.18603516 C-206.24994476 163.04812132 -205.12271708 161.91138976 -203.99435425 160.77578735 C-201.04141291 157.79820785 -198.10338529 154.80635147 -195.16876221 151.81072998 C-191.01777127 147.57897334 -186.8465221 143.36716583 -182.67770386 139.15298462 C-180.4600568 136.91109171 -178.24803481 134.6638673 -176.04031372 132.41220093 C-175.03519149 131.39067138 -174.03005515 130.36915572 -173.02490234 129.34765625 C-172.14746368 128.45291595 -171.27002502 127.55817566 -170.36599731 126.63632202 C-168.24316406 124.60009766 -168.24316406 124.60009766 -166.24316406 123.60009766 C-166.24869482 124.53851706 -166.24869482 124.53851706 -166.25433731 125.49589443 C-166.3428239 140.745697 -166.40893936 155.99542035 -166.45041275 171.24541378 C-166.47100409 178.62032756 -166.4990586 185.99506955 -166.54492188 193.36987305 C-166.58489523 199.80066583 -166.61062179 206.23133414 -166.61951804 212.66224772 C-166.62471517 216.06479817 -166.63685747 219.46699269 -166.66608429 222.86942863 C-166.6951914 226.67561681 -166.69911681 230.48107165 -166.69726562 234.28735352 C-166.71164673 235.40513687 -166.72602783 236.52292023 -166.74084473 237.67457581 C-166.70160621 245.14821962 -165.75458397 251.8111136 -160.50348282 257.47729397 C-155.04005617 262.49820961 -150.19032609 264.09532686 -142.80175781 263.90869141 C-136.08709286 263.09883105 -131.73970835 259.60999065 -127.46972656 254.57666016 C-123.56557697 248.28525985 -123.97056461 241.77687044 -124.01611328 234.62792969 C-124.01582123 233.42736435 -124.01552917 232.22679901 -124.01522827 230.98985291 C-124.01637986 227.71131826 -124.02638522 224.43295607 -124.04037619 221.15445566 C-124.05290959 217.72316651 -124.0540561 214.29187369 -124.056427 210.86056519 C-124.06263412 204.36898573 -124.07903449 197.87747393 -124.09912598 191.38592422 C-124.12150894 183.99294858 -124.13248443 176.59996965 -124.14251685 169.20696855 C-124.16340144 154.0046406 -124.19856242 138.80237591 -124.24316406 123.60009766 C-119.79835313 127.43186347 -115.43646301 131.27885285 -111.33105469 135.47802734 C-110.45654663 136.36874939 -109.58203857 137.25947144 -108.68103027 138.17718506 C-107.30413025 139.58535492 -107.30413025 139.58535492 -105.89941406 141.02197266 C-104.42039122 142.5230903 -102.93953495 144.02238501 -101.45868683 145.52170181 C-97.8419532 149.18381457 -94.22944244 152.84988038 -90.63330078 156.53222656 C-88.11277569 159.11239746 -85.57998591 161.67996361 -83.03886414 164.23984528 C-81.61867475 165.67732529 -80.21181214 167.12793311 -78.80529785 168.57879639 C-72.79730503 174.61155845 -68.40582853 177.94303127 -59.80566406 179.03759766 C-53.35640811 178.24558377 -48.18362303 176.05309816 -43.80566406 171.16259766 C-39.85326455 165.97302045 -39.01329645 161.83151385 -38.78222656 155.39306641 C-40.19773104 146.81606895 -45.92501298 141.34191312 -51.84790039 135.4777832 C-52.7150618 134.60361252 -53.58222321 133.72944183 -54.47566223 132.82878113 C-56.84033125 130.44959084 -59.21356291 128.07966713 -61.59183717 125.71412253 C-64.0876458 123.22849666 -66.57361747 120.73306228 -69.061203 118.23921204 C-73.2378219 114.05533338 -77.42276404 109.87991972 -81.61254883 105.70922852 C-86.44729428 100.89626281 -91.26744226 96.06903768 -96.08028966 91.23418206 C-100.22424295 87.07204406 -104.37598137 82.9177926 -108.53425997 78.76996642 C-111.01289447 76.29754815 -113.48879442 73.82255395 -115.95768166 71.34039879 C-118.7104548 68.57386551 -121.47947144 65.82395091 -124.25024414 63.07543945 C-125.0603595 62.25722717 -125.87047485 61.43901489 -126.70513916 60.5960083 C-132.18511974 55.19723786 -137.11994463 51.17600984 -145.18066406 51.16259766 C-145.9528125 51.14326172 -146.72496094 51.12392578 -147.52050781 51.10400391 C-156.06064927 52.66009855 -161.49379368 58.27431595 -167.36547852 64.20483398 Z " fill="#000000" transform="translate(401.2431640625,98.39990234375)"/>
</svg>
