<?xml version="1.0" encoding="UTF-8"?>
<svg version="1.1" xmlns="http://www.w3.org/2000/svg" width="512" height="512">
<path d="M0 0 C0.90186035 0.17692383 1.8037207 0.35384766 2.73291016 0.53613281 C9.20599895 1.83501287 15.60888488 3.34657126 22 5 C22.82000488 5.20963379 23.64000977 5.41926758 24.48486328 5.63525391 C58.17024255 14.44485883 88.96649009 31.29229379 116 53 C117.50046875 54.19109375 117.50046875 54.19109375 119.03125 55.40625 C132.89778302 66.7515952 146.2899831 79.6029281 157 94 C157.45971191 94.59973633 157.91942383 95.19947266 158.39306641 95.81738281 C183.7457788 128.9479423 200.63105558 166.93602242 208 208 C208.16226074 208.83128418 208.32452148 209.66256836 208.49169922 210.51904297 C213.76694663 238.13651472 213.55756833 270.45402542 208 298 C207.82307617 298.90186035 207.64615234 299.8037207 207.46386719 300.73291016 C206.16498713 307.20599895 204.65342874 313.60888488 203 320 C202.79036621 320.82000488 202.58073242 321.64000977 202.36474609 322.48486328 C193.55514117 356.17024255 176.70770621 386.96649009 155 414 C154.2059375 415.0003125 153.411875 416.000625 152.59375 417.03125 C141.2484048 430.89778302 128.3970719 444.2899831 114 455 C113.10039551 455.68956787 113.10039551 455.68956787 112.18261719 456.39306641 C79.0520577 481.7457788 41.06397758 498.63105558 0 506 C-0.83128418 506.16226074 -1.66256836 506.32452148 -2.51904297 506.49169922 C-30.13651472 511.76694663 -62.45402542 511.55756833 -90 506 C-90.90186035 505.82307617 -91.8037207 505.64615234 -92.73291016 505.46386719 C-99.20599895 504.16498713 -105.60888488 502.65342874 -112 501 C-112.82000488 500.79036621 -113.64000977 500.58073242 -114.48486328 500.36474609 C-148.17024255 491.55514117 -178.96649009 474.70770621 -206 453 C-207.0003125 452.2059375 -208.000625 451.411875 -209.03125 450.59375 C-222.89778302 439.2484048 -236.2899831 426.3970719 -247 412 C-247.68956787 411.10039551 -247.68956787 411.10039551 -248.39306641 410.18261719 C-273.7457788 377.0520577 -290.63105558 339.06397758 -298 298 C-298.16226074 297.16871582 -298.32452148 296.33743164 -298.49169922 295.48095703 C-303.76694663 267.86348528 -303.55756833 235.54597458 -298 208 C-297.82307617 207.09813965 -297.64615234 206.1962793 -297.46386719 205.26708984 C-296.16498713 198.79400105 -294.65342874 192.39111512 -293 186 C-292.79036621 185.17999512 -292.58073242 184.35999023 -292.36474609 183.51513672 C-283.55514117 149.82975745 -266.70770621 119.03350991 -245 92 C-244.2059375 90.9996875 -243.411875 89.999375 -242.59375 88.96875 C-231.2484048 75.10221698 -218.3970719 61.7100169 -204 51 C-203.40026367 50.54028809 -202.80052734 50.08057617 -202.18261719 49.60693359 C-169.0520577 24.2542212 -131.06397758 7.36894442 -90 0 C-89.16871582 -0.16226074 -88.33743164 -0.32452148 -87.48095703 -0.49169922 C-59.86348528 -5.76694663 -27.54597458 -5.55756833 0 0 Z " fill="#000000" transform="translate(301,3)"/>
<path d="M0 0 C2.70742405 2.1803485 5.3188509 4.43384915 7.9140625 6.74609375 C8.74164063 7.4421875 9.56921875 8.13828125 10.421875 8.85546875 C26.57591555 22.73072615 38.59308123 40.78797249 45.9140625 60.74609375 C46.36394531 61.95007813 46.81382812 63.1540625 47.27734375 64.39453125 C58.74221254 96.86373979 55.25497553 132.79566781 40.671875 163.65625 C34.47253001 176.06434515 26.43406124 186.68391752 16.9140625 196.74609375 C16.15480469 197.56980469 15.39554688 198.39351562 14.61328125 199.2421875 C-8.82861631 223.83507839 -43.00406518 236.16758863 -76.5234375 237.12109375 C-92.06780876 236.72907562 -107.56397536 234.38349041 -122.0859375 228.74609375 C-123.1680249 228.32650391 -123.1680249 228.32650391 -124.27197266 227.8984375 C-157.0732374 214.86538284 -182.58360947 189.90067237 -197.0859375 157.74609375 C-199.5101223 151.87010884 -201.37582066 145.86269516 -203.0859375 139.74609375 C-203.29621582 139.02824707 -203.50649414 138.31040039 -203.72314453 137.57080078 C-209.76601537 116.36094611 -208.97021259 92.89467162 -203.0859375 71.74609375 C-202.90401855 71.07481445 -202.72209961 70.40353516 -202.53466797 69.71191406 C-193.07427735 35.81006744 -169.30499101 8.36662567 -139.2109375 -9.00390625 C-95.83484358 -33.11334542 -40.00737971 -29.22057986 0 0 Z " fill="#FEFEFE" transform="translate(337.0859375,154.25390625)"/>
<path d="M0 0 C7.22265458 4.9919434 13.23832221 12.09177836 19.4296875 18.296875 C20.51190884 19.37842127 21.59427846 20.45981918 22.67678833 21.54107666 C24.92905516 23.79187921 27.17952843 26.04445531 29.42871094 28.29833984 C32.31029255 31.18565248 35.19638755 34.06840553 38.08381462 36.94987106 C40.31264999 39.17509567 42.53910172 41.40269292 44.76483536 43.63101959 C45.82863123 44.69548153 46.89316764 45.75920393 47.95846176 46.82216644 C49.44202601 48.303192 50.92234889 49.78738334 52.40185547 51.27246094 C53.66471878 52.53651764 53.66471878 52.53651764 54.95309448 53.82611084 C58.93003885 58.04977244 59.54744834 60.80388953 59.45703125 66.41796875 C58.70698271 70.65542247 56.31415991 73.36318664 53 76 C49.32806676 77.22397775 45.80297686 77.72596231 42 77 C37.09441406 74.07936886 33.2767768 70.54287795 29.2890625 66.484375 C28.67606293 65.86854553 28.06306335 65.25271606 27.43148804 64.6182251 C25.49121023 62.66682919 23.55803669 60.70856646 21.625 58.75 C20.3038501 57.41880949 18.98224006 56.08807549 17.66015625 54.7578125 C14.43475759 51.51046462 11.21570804 48.2569432 8 45 C7.99635437 45.93881012 7.99270874 46.87762024 7.98895264 47.84487915 C7.9519741 56.7023349 7.89417032 65.55944389 7.81609726 74.41663551 C7.77662707 78.9699915 7.7444364 83.52315422 7.72900391 88.07666016 C7.71383421 92.47299746 7.6793834 96.86880346 7.63169098 101.26490402 C7.61688036 102.94013215 7.60895917 104.61543614 7.60811615 106.29072952 C7.60574368 108.64182087 7.57864422 110.99144721 7.54589844 113.34228516 C7.55344398 114.37591187 7.55344398 114.37591187 7.56114197 115.43041992 C7.45512183 120.36628477 6.0604882 123.17982599 3 127 C-1.19835042 129.90849577 -6.09255313 129.75856434 -11 129 C-14.32839095 127.35618243 -16.42834115 125.11469254 -18.13632202 121.78425598 C-19.21405743 118.30993879 -19.28165157 115.2784217 -19.31884766 111.6394043 C-19.32889328 110.91690994 -19.3389389 110.19441559 -19.34928894 109.45002747 C-19.38004662 107.07476558 -19.39713516 104.69961604 -19.4140625 102.32421875 C-19.43278014 100.67225686 -19.452354 99.02030447 -19.4727478 97.36836243 C-19.52401211 93.02999479 -19.56366826 88.69159618 -19.60089111 84.35308838 C-19.64096657 79.92216362 -19.69204274 75.49136709 -19.7421875 71.06054688 C-19.83887926 62.37378561 -19.92330554 53.68696073 -20 45 C-21.38505737 46.40076782 -21.38505737 46.40076782 -22.7980957 47.82983398 C-26.22027355 51.28817044 -29.64903218 54.73991769 -33.07983398 58.18969727 C-34.56471652 59.6846468 -36.04780032 61.18138517 -37.52905273 62.67993164 C-39.65660499 64.83170109 -41.79051061 66.97698674 -43.92578125 69.12109375 C-44.58838455 69.79401962 -45.25098785 70.4669455 -45.93367004 71.16026306 C-46.55408676 71.78083084 -47.17450348 72.40139862 -47.8137207 73.04077148 C-48.62979546 73.86350807 -48.62979546 73.86350807 -49.46235657 74.7028656 C-52.54184267 77.30067682 -56.03827256 77.34185303 -59.9375 77.27734375 C-63.42504073 76.8083752 -65.4041149 75.29403799 -68 73 C-70.42253277 69.63971261 -71.2860459 66.83760512 -71.25 62.75 C-70.53499105 58.58524063 -68.9568028 56.45004142 -66.0925293 53.38647461 C-65.27787201 52.51207733 -64.46321472 51.63768005 -63.62387085 50.73678589 C-59.21438373 46.13754194 -54.76597519 41.58060558 -50.26953125 37.06640625 C-49.53189828 36.32453221 -49.53189828 36.32453221 -48.77936363 35.56767082 C-46.18799918 32.96148608 -43.59390943 30.35805327 -40.99731445 27.75708008 C-38.3310722 25.08530896 -35.67427462 22.40434252 -33.01944447 19.72123814 C-30.95778722 17.64092974 -28.88942556 15.56738641 -26.81918907 13.49561882 C-25.83636162 12.50978125 -24.85601569 11.5214628 -23.87830544 10.53055 C-22.51301732 9.14811406 -21.13718967 7.77611133 -19.76098633 6.40454102 C-18.59591301 5.23399925 -18.59591301 5.23399925 -17.40730286 4.03981018 C-11.74646958 -0.75685482 -7.00951051 -2.12599193 0 0 Z " fill="#020202" transform="translate(266,196)"/>
</svg>
