<?xml version="1.0" encoding="UTF-8"?>
<svg version="1.1" xmlns="http://www.w3.org/2000/svg" width="512" height="512">
<path d="M0 0 C1.72669922 -0.04350586 1.72669922 -0.04350586 3.48828125 -0.08789062 C15.88197584 -0.17974811 24.02390434 4.34990036 33.375 12.3125 C41.72496158 20.88219741 46.50383564 31.48862687 46.49525452 43.39923096 C46.49653615 44.47016467 46.49653615 44.47016467 46.49784368 45.56273341 C46.49949073 47.95493374 46.49398979 50.34706394 46.48852539 52.73925781 C46.48824333 54.45411172 46.48840163 56.16896574 46.4889679 57.88381958 C46.48925512 62.54046955 46.4833705 67.19709383 46.47639394 71.85373783 C46.47014791 76.71977165 46.46955561 81.58580605 46.46836853 86.45184326 C46.46525891 95.66695043 46.45705047 104.88204575 46.44701904 114.0971477 C46.43584647 124.58797033 46.43034457 135.07879352 46.42532361 145.56962061 C46.41486757 167.15058702 46.39727524 188.73154276 46.375 210.3125 C47.2606879 210.30881283 48.14637581 210.30512566 49.05890274 210.30132675 C70.64376532 210.21285744 92.2285965 210.14673289 113.81360245 210.10525131 C124.25210343 210.08465617 134.69048313 210.05659398 145.12890625 210.01074219 C154.23067298 209.97078097 163.33235184 209.94504505 172.43420386 209.93614602 C177.2502962 209.93094697 182.06613722 209.9187912 186.88214874 209.88957977 C191.42281089 209.86226375 195.96312015 209.85408746 200.50385666 209.86006927 C202.16299487 209.85897623 203.8221459 209.85111926 205.48121262 209.8356781 C221.15029586 209.6970982 232.55352483 212.70743749 244.375 223.3125 C252.43911551 231.62769603 256.98951341 241.3231422 257.05859375 252.93554688 C257.03925781 254.02931641 257.01992188 255.12308594 257 256.25 C257.01933594 257.33990234 257.03867187 258.42980469 257.05859375 259.55273438 C257.00305076 268.90061928 254.69197492 278.12585791 248.375 285.3125 C247.715 285.3125 247.055 285.3125 246.375 285.3125 C245.98441406 286.19615234 245.98441406 286.19615234 245.5859375 287.09765625 C240.95445527 295.56878664 231.36652539 299.0808228 222.64702225 301.86406612 C219.50397616 302.48441583 216.4920774 302.43506274 213.28826904 302.43275452 C212.57431323 302.43360894 211.86035742 302.43446337 211.12476659 302.43534368 C208.73256626 302.43699073 206.34043606 302.43148979 203.94824219 302.42602539 C202.23338828 302.42574333 200.51853426 302.42590163 198.80368042 302.4264679 C194.14703045 302.42675512 189.49040617 302.4208705 184.83376217 302.41389394 C179.96772835 302.40764791 175.10169395 302.40705561 170.23565674 302.40586853 C161.02054957 302.40275891 151.80545425 302.39455047 142.5903523 302.38451904 C132.09952967 302.37334647 121.60870648 302.36784457 111.11787939 302.36282361 C89.53691298 302.35236757 67.95595724 302.33477524 46.375 302.3125 C46.37868717 303.1981879 46.38237434 304.08387581 46.38617325 304.99640274 C46.47464256 326.58126532 46.54076711 348.1660965 46.58224869 369.75110245 C46.60284383 380.18960343 46.63090602 390.62798313 46.67675781 401.06640625 C46.71671903 410.16817298 46.74245495 419.26985184 46.75135398 428.37170386 C46.75655303 433.1877962 46.7687088 438.00363722 46.79792023 442.81964874 C46.82523625 447.36031089 46.83341254 451.90062015 46.82743073 456.44135666 C46.82852377 458.10049487 46.83638074 459.7596459 46.8518219 461.41871262 C46.9611477 473.78006615 45.86038558 486.49946905 37.375 496.3125 C36.715 496.3125 36.055 496.3125 35.375 496.3125 C34.98441406 497.19615234 34.98441406 497.19615234 34.5859375 498.09765625 C30.28252581 505.96873505 21.55308636 509.74336351 13.375 512.3125 C9.05590329 513.00629755 4.86895879 513.12452402 0.5 513.0625 C-0.63679199 513.0529126 -1.77358398 513.0433252 -2.94482422 513.03344727 C-12.41623964 512.73479903 -18.95621218 510.93701441 -26.625 505.3125 C-27.41648438 504.74917969 -28.20796875 504.18585938 -29.0234375 503.60546875 C-37.25987424 497.06837119 -43.56969341 486.65916284 -45.625 476.3125 C-45.71550852 473.95165056 -45.74695667 471.58835216 -45.74525452 469.22576904 C-45.74653615 468.15483533 -45.74653615 468.15483533 -45.74784368 467.06226659 C-45.74949073 464.67006626 -45.74398979 462.27793606 -45.73852539 459.88574219 C-45.73824333 458.17088828 -45.73840163 456.45603426 -45.7389679 454.74118042 C-45.73925512 450.08453045 -45.7333705 445.42790617 -45.72639394 440.77126217 C-45.72014791 435.90522835 -45.71955561 431.03919395 -45.71836853 426.17315674 C-45.71525891 416.95804957 -45.70705047 407.74295425 -45.69701904 398.5278523 C-45.68584647 388.03702967 -45.68034457 377.54620648 -45.67532361 367.05537939 C-45.66486757 345.47441298 -45.64727524 323.89345724 -45.625 302.3125 C-46.95491455 302.31803076 -46.95491455 302.31803076 -48.31169605 302.32367325 C-69.91289831 302.41211891 -91.51406923 302.47825565 -113.11541462 302.51974869 C-123.56179125 302.54034921 -134.0080468 302.56842176 -144.4543457 302.61425781 C-153.56232877 302.65420248 -162.67022412 302.67995105 -171.77829236 302.68885398 C-176.59826501 302.69405581 -181.41798678 302.70622953 -186.2378788 302.73542023 C-190.78100012 302.76271 -195.32376884 302.77091775 -199.86696434 302.76493073 C-201.52813513 302.76602492 -203.18931855 302.77389771 -204.85041809 302.7893219 C-220.06863286 302.92361731 -232.21593889 299.6308914 -243.8828125 289.31640625 C-246.02711075 287.09465236 -247.83495841 284.82791791 -249.625 282.3125 C-250.22699219 281.47074219 -250.82898438 280.62898438 -251.44921875 279.76171875 C-255.87118673 272.14438929 -256.21452859 264.91495924 -256.3125 256.25 C-256.33183594 255.16211182 -256.35117187 254.07422363 -256.37109375 252.95336914 C-256.23672054 243.66972002 -253.9000462 234.44814795 -247.625 227.3125 C-246.965 227.3125 -246.305 227.3125 -245.625 227.3125 C-245.356875 226.714375 -245.08875 226.11625 -244.8125 225.5 C-243.62582594 223.31402146 -242.52900887 221.89917406 -240.625 220.3125 C-239.965 220.3125 -239.305 220.3125 -238.625 220.3125 C-238.625 219.6525 -238.625 218.9925 -238.625 218.3125 C-236.77485947 217.34641677 -234.91966527 216.3900093 -233.0625 215.4375 C-232.02996094 214.90382812 -230.99742187 214.37015625 -229.93359375 213.8203125 C-223.97769758 211.10605521 -218.71063951 210.06255684 -212.17750549 210.07199097 C-211.46098641 210.07028212 -210.74446732 210.06857327 -210.00623554 210.06681263 C-207.62327484 210.06353803 -205.24060045 210.0744876 -202.85766602 210.08544922 C-201.14236966 210.08601377 -199.42707281 210.08569591 -197.71177673 210.08456421 C-193.06766867 210.08399142 -188.42366435 210.0957338 -183.77958035 210.10971212 C-178.921576 210.12223177 -174.06356915 210.12339096 -169.20555115 210.12576294 C-160.01177627 210.13197408 -150.81804908 210.14837995 -141.62429518 210.16846192 C-131.15517306 210.1908323 -120.68604865 210.20181722 -110.21690857 210.21185279 C-88.68624579 210.23274649 -67.1556259 210.26791537 -45.625 210.3125 C-45.62868717 209.4268121 -45.63237434 208.54112419 -45.63617325 207.62859726 C-45.72464256 186.04373468 -45.79076711 164.4589035 -45.83224869 142.87389755 C-45.85284383 132.43539657 -45.88090602 121.99701687 -45.92675781 111.55859375 C-45.96671903 102.45682702 -45.99245495 93.35514816 -46.00135398 84.25329614 C-46.00655303 79.4372038 -46.0187088 74.62136278 -46.04792023 69.80535126 C-46.07523625 65.26468911 -46.08341254 60.72437985 -46.07743073 56.18364334 C-46.07852377 54.52450513 -46.08638074 52.8653541 -46.1018219 51.20628738 C-46.2111477 38.84493385 -45.11038558 26.12553095 -36.625 16.3125 C-35.965 16.3125 -35.305 16.3125 -34.625 16.3125 C-34.356875 15.714375 -34.08875 15.11625 -33.8125 14.5 C-32.62582594 12.31402146 -31.52900887 10.89917406 -29.625 9.3125 C-28.965 9.3125 -28.305 9.3125 -27.625 9.3125 C-27.625 8.6525 -27.625 7.9925 -27.625 7.3125 C-25.68874902 6.33086578 -23.75095461 5.35227546 -21.8125 4.375 C-20.73355469 3.82972656 -19.65460938 3.28445312 -18.54296875 2.72265625 C-12.37764352 -0.25683827 -6.73882754 0.05547882 0 0 Z " fill="#FAFAFA" transform="translate(255.625,-0.3125)"/>
</svg>
