<?xml version="1.0" encoding="UTF-8"?>
<svg version="1.1" xmlns="http://www.w3.org/2000/svg" width="512" height="512">
<path d="M0 0 C2.00500222 -0.01639755 4.00995007 -0.04346668 6.01464844 -0.08203125 C23.62705315 -0.41792288 40.02616824 1.83204787 56.23242188 9.10009766 C57.00537598 9.43734863 57.77833008 9.77459961 58.57470703 10.12207031 C92.86490323 25.49937789 119.66757098 54.14426203 133.07226562 89.20556641 C142.03957652 115.4683744 144.04682336 145.52444417 136.41992188 172.35009766 C136.10643799 173.49043457 136.10643799 173.49043457 135.78662109 174.65380859 C132.48465845 186.37268424 127.45400656 196.81096425 121.41992188 207.35009766 C121.03610352 208.02379395 120.65228516 208.69749023 120.25683594 209.39160156 C119.31341486 211.0457 118.36699022 212.69808478 117.41992188 214.35009766 C116.75992187 214.35009766 116.09992188 214.35009766 115.41992188 214.35009766 C115.08992188 215.67009766 114.75992187 216.99009766 114.41992188 218.35009766 C113.75992187 218.35009766 113.09992188 218.35009766 112.41992188 218.35009766 C111.75992187 220.00009766 111.09992188 221.65009766 110.41992188 223.35009766 C109.75992187 223.35009766 109.09992188 223.35009766 108.41992188 223.35009766 C108.23429687 224.05134766 108.04867188 224.75259766 107.85742188 225.47509766 C106.14427967 228.90138207 104.09989353 230.50044139 101.15820312 232.86962891 C98.91137122 234.78322282 97.23599562 237.03303806 95.41992188 239.35009766 C91.9026805 242.35009766 91.9026805 242.35009766 89.41992188 242.35009766 C89.41992188 243.01009766 89.41992188 243.67009766 89.41992188 244.35009766 C90.53065063 244.78708984 90.53065063 244.78708984 91.66381836 245.23291016 C95.06979059 246.58583284 98.46332923 247.96765691 101.85742188 249.35009766 C103.60442383 250.03652344 103.60442383 250.03652344 105.38671875 250.73681641 C114.04684603 254.29844622 120.81408739 258.54231834 126.48242188 266.10009766 C128.39791877 272.74048689 128.57765421 279.69729401 125.60742188 286.03759766 C123.41992188 289.35009766 123.41992188 289.35009766 120.41992188 290.35009766 C120.08992188 291.34009766 119.75992187 292.33009766 119.41992188 293.35009766 C113.38190852 296.97290567 107.31931339 297.5198649 100.41992188 296.35009766 C95.58784457 294.74499015 90.97971411 292.58957952 86.33789062 290.51025391 C35.3413737 267.72627781 -24.67570638 269.86010648 -76.28759766 289.05273438 C-88.21833727 293.75390228 -99.70470861 299.40736594 -110.56420898 306.22436523 C-112.58007813 307.35009766 -112.58007813 307.35009766 -114.58007812 307.35009766 C-114.58007812 308.01009766 -114.58007812 308.67009766 -114.58007812 309.35009766 C-115.57007813 309.35009766 -116.56007812 309.35009766 -117.58007812 309.35009766 C-117.58007812 310.01009766 -117.58007812 310.67009766 -117.58007812 311.35009766 C-119.25976563 312.63916016 -119.25976563 312.63916016 -121.45507812 313.97509766 C-122.174375 314.42111328 -122.89367187 314.86712891 -123.63476562 315.32666016 C-125.58007813 316.35009766 -125.58007813 316.35009766 -127.58007812 316.35009766 C-127.58007812 317.01009766 -127.58007812 317.67009766 -127.58007812 318.35009766 C-128.47726563 318.75228516 -128.47726563 318.75228516 -129.39257812 319.16259766 C-131.60048562 320.36117601 -132.8346415 321.57001217 -134.58007812 323.35009766 C-136.2586293 324.8059027 -137.9610409 326.23008025 -139.66601562 327.65478516 C-142.07546579 329.78886959 -144.31797271 332.06065562 -146.58007812 334.35009766 C-156.58007812 344.35009766 -156.58007812 344.35009766 -159.26757812 346.97509766 C-161.69283488 349.32095521 -161.69283488 349.32095521 -163.58007812 352.35009766 C-164.24007812 352.35009766 -164.90007812 352.35009766 -165.58007812 352.35009766 C-165.82757813 353.07197266 -166.07507813 353.79384766 -166.33007812 354.53759766 C-167.70277404 357.62616347 -169.30361109 359.86021183 -171.58007812 362.35009766 C-172.24007812 362.35009766 -172.90007812 362.35009766 -173.58007812 362.35009766 C-173.58007812 363.34009766 -173.58007812 364.33009766 -173.58007812 365.35009766 C-174.24007812 365.35009766 -174.90007812 365.35009766 -175.58007812 365.35009766 C-175.80695313 366.03072266 -176.03382813 366.71134766 -176.26757812 367.41259766 C-177.58697638 370.3655366 -179.27701441 372.71844237 -181.17773438 375.31884766 C-184.03260716 379.45403943 -186.29167432 383.88321337 -188.58007812 388.35009766 C-189.12390137 389.39762207 -189.12390137 389.39762207 -189.67871094 390.46630859 C-206.87440284 422.99254441 -206.87440284 422.99254441 -209.37304688 458.22900391 C-207.65528224 462.82381277 -205.83066649 465.57845803 -201.64257812 468.16259766 C-195.54049523 470.52871143 -189.84860131 470.4930791 -183.38308716 470.48139954 C-181.82825396 470.48457311 -181.82825396 470.48457311 -180.24201 470.48781079 C-176.76370572 470.49380914 -173.28543774 470.49281076 -169.80712891 470.49194336 C-167.31531716 470.49497492 -164.82350597 470.49849637 -162.33169556 470.50247192 C-156.96300272 470.51036083 -151.59431714 470.51552614 -146.22562027 470.51876259 C-137.73802954 470.52426499 -129.25047886 470.541168 -120.76290894 470.56010437 C-117.85785872 470.56646077 -114.95280841 470.57276924 -112.0477581 470.57908154 C-110.9588089 470.58145718 -110.9588089 470.58145718 -109.84786073 470.58388082 C-101.58754154 470.6018107 -93.32721952 470.61804079 -85.06689453 470.63305664 C-84.31194206 470.63443251 -83.55698959 470.63580838 -82.77915977 470.63722595 C-70.54307397 470.6591595 -58.30699851 470.66991351 -46.07089652 470.67742739 C-33.50379011 470.68550018 -20.93677233 470.70879445 -8.36971653 470.74538106 C-0.62058813 470.76739596 7.12835796 470.77707385 14.87751605 470.77088072 C20.81630785 470.76732911 26.75492428 470.78457732 32.69366837 470.80955887 C35.12890911 470.8164862 37.56418027 470.81658073 39.99942017 470.8093586 C43.3229541 470.80049709 46.64550926 470.81612158 49.96896362 470.83784485 C50.933464 470.82940231 51.89796438 470.82095977 52.89169204 470.8122614 C59.81836635 470.89602537 64.15171407 472.32717116 69.34570312 477.13134766 C69.80332031 477.69853516 70.2609375 478.26572266 70.73242188 478.85009766 C71.43818359 479.70087891 71.43818359 479.70087891 72.15820312 480.56884766 C76.16697814 486.22829473 76.13366938 491.56079215 75.41992188 498.35009766 C73.68270951 503.90201346 70.63052753 508.57132759 65.46181583 511.43494606 C60.88704261 512.81126327 56.43952589 512.63189857 51.68711853 512.61752319 C50.59283761 512.62205431 49.49855669 512.62658542 48.37111574 512.63125384 C44.69715622 512.64393371 41.02334425 512.64227511 37.34936523 512.640625 C34.71788339 512.64660814 32.0864033 512.65341319 29.45492554 512.66098022 C23.04334314 512.67758877 16.63179752 512.68308978 10.22019541 512.68420498 C5.00540432 512.68515589 -0.20937466 512.68926833 -5.42416191 512.69560623 C-20.2196345 512.71322122 -35.01507809 512.72244515 -49.81056125 512.72094528 C-51.00684442 512.72082542 -51.00684442 512.72082542 -52.22729492 512.72070312 C-53.02579506 512.72062136 -53.8242952 512.7205396 -54.64699232 512.72045536 C-67.57490399 512.71964324 -80.50269894 512.73876155 -93.43057687 512.76697986 C-106.71522719 512.79574714 -119.99982068 512.80951792 -133.28450292 512.80779231 C-140.73853224 512.80712954 -148.19243932 512.81257122 -155.64644051 512.83414841 C-161.99611502 512.85241128 -168.34561194 512.85666618 -174.69530142 512.84312956 C-177.93131633 512.83662433 -181.16692241 512.83859067 -184.40291786 512.85383606 C-187.92170881 512.86933538 -191.43961653 512.85994816 -194.95838928 512.84457397 C-195.96668968 512.8548611 -196.97499007 512.86514823 -198.01384503 512.87574708 C-213.51844689 512.72686562 -225.48679824 505.46843172 -236.45507812 494.97509766 C-250.93972782 479.88605251 -253.32030415 464.46951915 -252.98632812 444.34228516 C-252.6994807 433.47536288 -250.06581965 423.58318364 -246.58007812 413.35009766 C-246.30744141 412.52509766 -246.03480469 411.70009766 -245.75390625 410.85009766 C-238.88166457 390.28281319 -229.96303583 368.76280639 -216.92773438 351.30322266 C-215.40582048 349.29149212 -215.40582048 349.29149212 -214.58007812 346.35009766 C-213.92007813 346.35009766 -213.26007813 346.35009766 -212.58007812 346.35009766 C-212.27070313 345.56634766 -211.96132812 344.78259766 -211.64257812 343.97509766 C-210.58007813 341.35009766 -210.58007813 341.35009766 -209.58007812 339.35009766 C-208.92007813 339.35009766 -208.26007813 339.35009766 -207.58007812 339.35009766 C-207.25007813 338.03009766 -206.92007813 336.71009766 -206.58007812 335.35009766 C-205.92007813 335.35009766 -205.26007813 335.35009766 -204.58007812 335.35009766 C-204.25007813 334.03009766 -203.92007813 332.71009766 -203.58007812 331.35009766 C-202.92007813 331.35009766 -202.26007813 331.35009766 -201.58007812 331.35009766 C-201.31195313 330.54572266 -201.04382813 329.74134766 -200.76757812 328.91259766 C-200.37570313 328.06697266 -199.98382813 327.22134766 -199.58007812 326.35009766 C-198.59007812 326.02009766 -197.60007813 325.69009766 -196.58007812 325.35009766 C-196.27070313 324.54572266 -195.96132812 323.74134766 -195.64257812 322.91259766 C-194.36064899 319.82088622 -193.49136124 319.71476161 -190.58007812 318.35009766 C-190.30550781 317.78162109 -190.0309375 317.21314453 -189.74804688 316.62744141 C-185.88681702 309.09868888 -178.23244865 302.4779666 -171.58007812 297.35009766 C-170.92007813 297.35009766 -170.26007813 297.35009766 -169.58007812 297.35009766 C-169.35320312 296.75197266 -169.12632812 296.15384766 -168.89257812 295.53759766 C-167.22888319 292.76477276 -165.37342353 291.9170963 -162.58007812 290.35009766 C-162.02320313 289.79322266 -161.46632813 289.23634766 -160.89257812 288.66259766 C-160.45945312 288.22947266 -160.02632813 287.79634766 -159.58007812 287.35009766 C-158.92007813 287.35009766 -158.26007813 287.35009766 -157.58007812 287.35009766 C-157.58007812 286.69009766 -157.58007812 286.03009766 -157.58007812 285.35009766 C-155.93007812 284.69009766 -154.28007812 284.03009766 -152.58007812 283.35009766 C-152.58007812 282.69009766 -152.58007812 282.03009766 -152.58007812 281.35009766 C-151.59007812 281.35009766 -150.60007812 281.35009766 -149.58007812 281.35009766 C-149.58007812 280.69009766 -149.58007812 280.03009766 -149.58007812 279.35009766 C-145.19546274 276.35009766 -145.19546274 276.35009766 -142.58007812 276.35009766 C-142.58007812 275.69009766 -142.58007812 275.03009766 -142.58007812 274.35009766 C-142.03480469 274.05876953 -141.48953125 273.76744141 -140.92773438 273.46728516 C-140.17363281 273.05736328 -139.41953125 272.64744141 -138.64257812 272.22509766 C-137.91167969 271.83064453 -137.18078125 271.43619141 -136.42773438 271.02978516 C-134.01211711 269.60493547 -131.74588295 268.09661756 -129.43945312 266.50634766 C-124.43947889 263.14961322 -119.21142467 260.53156932 -113.76757812 257.97509766 C-112.77943115 257.50612061 -111.79128418 257.03714355 -110.77319336 256.55395508 C-101.2047326 252.06933546 -91.44774836 248.12207675 -81.58007812 244.35009766 C-82.34191406 243.66044922 -83.10375 242.97080078 -83.88867188 242.26025391 C-86.61291418 239.78645041 -89.32085204 237.2955622 -92.02001953 234.79443359 C-93.35224025 233.56103488 -94.69018697 232.33382577 -96.02929688 231.10791016 C-117.90239021 210.29509245 -132.15583186 178.08860239 -133.75708008 148.02709961 C-134.04729414 131.74158165 -134.07273766 116.15186568 -129.58007812 100.35009766 C-129.37108887 99.58987305 -129.16209961 98.82964844 -128.94677734 98.04638672 C-125.63757896 86.30183094 -120.53843668 75.95597589 -114.58007812 65.35009766 C-113.9017124 64.0226783 -113.22739335 62.69293243 -112.58007812 61.35009766 C-111.92007813 61.35009766 -111.26007813 61.35009766 -110.58007812 61.35009766 C-110.58007812 60.36009766 -110.58007812 59.37009766 -110.58007812 58.35009766 C-109.92007813 58.35009766 -109.26007813 58.35009766 -108.58007812 58.35009766 C-108.29132813 57.58697266 -108.00257813 56.82384766 -107.70507812 56.03759766 C-106.58007812 53.35009766 -106.58007812 53.35009766 -104.58007812 50.35009766 C-103.92007813 50.35009766 -103.26007813 50.35009766 -102.58007812 50.35009766 C-102.23976562 49.54572266 -102.23976562 49.54572266 -101.89257812 48.72509766 C-97.83801923 41.3882768 -91.13082219 35.44512082 -84.58007812 30.35009766 C-83.92007813 30.35009766 -83.26007813 30.35009766 -82.58007812 30.35009766 C-82.58007812 29.69009766 -82.58007812 29.03009766 -82.58007812 28.35009766 C-77.16831342 24.35009766 -77.16831342 24.35009766 -74.58007812 24.35009766 C-74.58007812 23.69009766 -74.58007812 23.03009766 -74.58007812 22.35009766 C-73.59007812 22.35009766 -72.60007813 22.35009766 -71.58007812 22.35009766 C-71.58007812 21.69009766 -71.58007812 21.03009766 -71.58007812 20.35009766 C-48.72957811 7.06258223 -26.44676672 0.1575226 0 0 Z M-60.58007812 66.35009766 C-61.42570312 67.17509766 -62.27132812 68.00009766 -63.14257812 68.85009766 C-65.47327448 71.24055546 -67.51324389 73.73210762 -69.58007812 76.35009766 C-70.15757812 76.90697266 -70.73507813 77.46384766 -71.33007812 78.03759766 C-72.80996318 79.28939363 -72.80996318 79.28939363 -72.58007812 81.35009766 C-73.24007812 81.35009766 -73.90007812 81.35009766 -74.58007812 81.35009766 C-74.58007812 82.34009766 -74.58007812 83.33009766 -74.58007812 84.35009766 C-75.24007812 84.35009766 -75.90007812 84.35009766 -76.58007812 84.35009766 C-90.53797483 110.39560218 -95.77349006 136.86633672 -87.15820312 165.73291016 C-83.34995176 177.42688512 -77.27144064 187.78701297 -69.58007812 197.35009766 C-69.06316406 198.03072266 -68.54625 198.71134766 -68.01367188 199.41259766 C-52.84698736 218.26642102 -28.52093329 228.49071374 -4.96289062 231.07275391 C16.05910557 232.7962663 35.15800354 227.42399248 53.41992188 217.35009766 C54.37511719 216.82673828 55.3303125 216.30337891 56.31445312 215.76416016 C57.00925781 215.29751953 57.7040625 214.83087891 58.41992188 214.35009766 C58.41992188 213.69009766 58.41992188 213.03009766 58.41992188 212.35009766 C58.97679687 212.28822266 59.53367187 212.22634766 60.10742188 212.16259766 C63.38481797 211.01108011 65.03949868 208.84663906 67.41992188 206.35009766 C68.26554688 205.71072266 69.11117187 205.07134766 69.98242188 204.41259766 C72.79996214 202.02852512 74.44166509 199.44936663 76.41992188 196.35009766 C77.41992188 195.35009766 78.41992188 194.35009766 79.41992188 193.35009766 C79.41992188 192.69009766 79.41992188 192.03009766 79.41992188 191.35009766 C80.07992187 191.35009766 80.73992187 191.35009766 81.41992188 191.35009766 C81.41992188 190.36009766 81.41992188 189.37009766 81.41992188 188.35009766 C82.07992187 188.35009766 82.73992187 188.35009766 83.41992188 188.35009766 C97.1045684 160.75739969 103.00781065 134.63351351 93.23828125 104.63427734 C89.38211422 93.87106173 83.60348451 84.21974304 76.41992188 75.35009766 C75.81792969 74.58439453 75.2159375 73.81869141 74.59570312 73.02978516 C59.12433221 54.41224448 35.48808026 44.22343443 11.80273438 41.62744141 C-12.87141215 39.6045033 -43.51077955 47.27264631 -60.58007812 66.35009766 Z " fill="#B8B8B8" transform="translate(252.580078125,-0.35009765625)"/>
<path d="M0 0 C4.72575874 3.68609181 8.80677003 7.83287327 11.125 13.4375 C11.36550903 16.1963501 11.36550903 16.1963501 11.35205078 19.39941406 C11.35189972 20.60035706 11.35174866 21.80130005 11.35159302 23.03863525 C11.34127045 24.33041687 11.33094788 25.62219849 11.3203125 26.953125 C11.31658034 28.29262073 11.31373432 29.63211921 11.31173706 30.97161865 C11.30411657 34.48978265 11.28448187 38.0077804 11.2623291 41.52587891 C11.24183643 45.11879223 11.23272804 48.71173253 11.22265625 52.3046875 C11.20123434 59.34902617 11.16711765 66.39325221 11.125 73.4375 C11.86114029 73.42861755 12.59728058 73.41973511 13.35572815 73.4105835 C20.31419372 73.33022914 27.27258938 73.26943001 34.23140049 73.23025131 C37.80852209 73.20943129 41.38525834 73.18121776 44.9621582 73.13574219 C48.41812329 73.09208221 51.87371917 73.06832094 55.32993889 73.05799103 C57.28140832 73.04707084 59.2327305 73.01587692 61.18397522 72.98431396 C69.26130832 72.98228155 74.08076674 73.6188415 80.0859375 79.2890625 C80.78589844 80.16691406 80.78589844 80.16691406 81.5 81.0625 C82.22316406 81.94808594 82.22316406 81.94808594 82.9609375 82.8515625 C85.70190672 86.58590312 85.34518848 90.28945153 85.375 94.75 C85.4059375 95.88985352 85.4059375 95.88985352 85.4375 97.05273438 C85.4781942 102.90761192 84.12373939 106.01045931 80.375 110.5625 C73.36022154 116.40814871 66.05991269 115.83654368 57.31640625 115.73046875 C55.98120096 115.72486502 54.64598945 115.72059859 53.31077576 115.71760559 C49.81721604 115.70621779 46.32403773 115.67680424 42.83062744 115.64349365 C39.25758013 115.61266082 35.68447047 115.5990722 32.11132812 115.58398438 C25.11572994 115.55192762 18.12038335 115.50080599 11.125 115.4375 C11.13388245 116.17141968 11.14276489 116.90533936 11.1519165 117.66149902 C11.23232946 124.60493654 11.29309949 131.54830374 11.33224869 138.49208832 C11.35305315 142.06133519 11.38123769 145.63019474 11.42675781 149.19921875 C11.470474 152.64870466 11.49419071 156.09781992 11.50450897 159.54756165 C11.51541005 161.49289182 11.54659466 163.43807452 11.57818604 165.38317871 C11.58030632 173.80917887 10.61838144 179.15529049 5.1875 185.8125 C-1.03518106 190.71521841 -9.29970603 190.48969546 -16.87402344 189.82226562 C-21.84661452 188.86609145 -25.04491271 185.41025164 -27.875 181.4375 C-30.31903037 177.17676984 -31.2466078 174.15153183 -31.21557617 169.24853516 C-31.21534958 168.04774323 -31.21512299 166.84695129 -31.21488953 165.60977173 C-31.19166374 163.68758316 -31.19166374 163.68758316 -31.16796875 161.7265625 C-31.16236685 160.38992796 -31.15809956 159.05328722 -31.15510559 157.71664429 C-31.14370334 154.21485096 -31.11427697 150.71343658 -31.08099365 147.21179199 C-31.05019235 143.63213221 -31.03657887 140.05241063 -31.02148438 136.47265625 C-30.98940204 129.46078278 -30.93826245 122.44915963 -30.875 115.4375 C-31.61114029 115.44638245 -32.34728058 115.45526489 -33.10572815 115.4644165 C-40.06419372 115.54477086 -47.02258938 115.60556999 -53.98140049 115.64474869 C-57.55852209 115.66556871 -61.13525834 115.69378224 -64.7121582 115.73925781 C-68.16812329 115.78291779 -71.62371917 115.80667906 -75.07993889 115.81700897 C-77.03140832 115.82792916 -78.9827305 115.85912308 -80.93397522 115.89068604 C-88.99404008 115.89271411 -93.76267329 115.24119367 -99.80078125 109.65625 C-100.48720703 108.80546875 -100.48720703 108.80546875 -101.1875 107.9375 C-101.89326172 107.08671875 -101.89326172 107.08671875 -102.61328125 106.21875 C-106.62205626 100.55930292 -106.5887475 95.22680551 -105.875 88.4375 C-103.96753115 82.34146552 -100.65613447 78.02892287 -95.10131836 74.8503418 C-89.37236374 72.47615629 -83.15633207 73.07064917 -77.06640625 73.14453125 C-75.73120096 73.15013498 -74.39598945 73.15440141 -73.06077576 73.15739441 C-69.56721604 73.16878221 -66.07403773 73.19819576 -62.58062744 73.23150635 C-59.00758013 73.26233918 -55.43447047 73.2759278 -51.86132812 73.29101562 C-44.86572994 73.32307238 -37.87038335 73.37419401 -30.875 73.4375 C-30.88388245 72.70358032 -30.89276489 71.96966064 -30.9019165 71.21350098 C-30.98232946 64.27006346 -31.04309949 57.32669626 -31.08224869 50.38291168 C-31.10305315 46.81366481 -31.13123769 43.24480526 -31.17675781 39.67578125 C-31.220474 36.22629534 -31.24419071 32.77718008 -31.25450897 29.32743835 C-31.26541005 27.38210818 -31.29659466 25.43692548 -31.32818604 23.49182129 C-31.33030019 15.09018593 -30.32906294 9.84440789 -25.0625 3.125 C-18.13715591 -2.2174083 -8.0763029 -4.16378283 0 0 Z " fill="#B5B5B5" transform="translate(426.875,322.5625)"/>
<path d="M0 0 C0.45375 0.474375 0.9075 0.94875 1.375 1.4375 C2.93258204 3.09027808 2.93258204 3.09027808 5 4 C5 4.66 5 5.32 5 6 C2.23723823 5.47731534 -0.3260876 4.89130413 -3 4 C-3 3.01 -3 2.02 -3 1 C-2.01 0.67 -1.02 0.34 0 0 Z " fill="#666666" transform="translate(341,242)"/>
<path d="M0 0 C0.66 0 1.32 0 2 0 C1.39009109 3.55780196 0.4216319 6.6828589 -1 10 C-1.66 9.67 -2.32 9.34 -3 9 C-2.01 6.03 -1.02 3.06 0 0 Z " fill="#5D5D5D" transform="translate(383,182)"/>
<path d="M0 0 C0.66 0.33 1.32 0.66 2 1 C0.79618552 3.49361571 -0.45428722 5.68143083 -2 8 C-2.99 7.67 -3.98 7.34 -5 7 C-4.67 6.34 -4.34 5.68 -4 5 C-3.34 5 -2.68 5 -2 5 C-1.34 3.35 -0.68 1.7 0 0 Z " fill="#727272" transform="translate(53,326)"/>
<path d="M0 0 C0.66 0.33 1.32 0.66 2 1 C1.47731534 3.76276177 0.89130413 6.3260876 0 9 C-0.66 9 -1.32 9 -2 9 C-1.34 6.03 -0.68 3.06 0 0 Z " fill="#555555" transform="translate(127,87)"/>
</svg>
