<?xml version="1.0" encoding="UTF-8"?>
<svg version="1.1" xmlns="http://www.w3.org/2000/svg" width="512" height="512">
<path d="M0 0 C0.87172852 0.16097168 1.74345703 0.32194336 2.64160156 0.48779297 C54.85305061 10.39521522 103.91675705 39.00598106 143.47607422 73.91552734 C145.67307853 75.84948726 147.88770587 77.75543674 150.13769531 79.62744141 C158.99742451 87.02251176 167.22263691 94.94342491 175.34350586 103.13769531 C177.45430246 105.26694939 179.57319401 107.38789081 181.69335938 109.5078125 C183.06557941 110.88494328 184.4373409 112.26253116 185.80859375 113.640625 C186.42850693 114.261651 187.0484201 114.882677 187.68711853 115.52252197 C191.97941834 119.86084976 196.01413202 124.38036639 200 129 C201.03076041 130.1656493 202.0630334 131.32996512 203.09765625 132.4921875 C205.67039332 135.40665596 208.17940518 138.36835757 210.65087891 141.36914062 C211.7823493 142.73689709 212.94084585 144.08223456 214.10546875 145.421875 C218.26109258 150.98902901 218.53937936 156.38665559 218.625 163.125 C218.6362793 163.97271973 218.64755859 164.82043945 218.65917969 165.69384766 C218.45755572 174.44740337 214.95370982 180.73293704 209 187 C208.34 187 207.68 187 207 187 C206.62875 188.175625 206.62875 188.175625 206.25 189.375 C204.77860006 192.46493987 203.92681545 192.53659227 201 194 C200.690625 194.78375 200.38125 195.5675 200.0625 196.375 C198.71057588 199.71504783 196.79766406 200.76598296 194 203 C192.76865554 204.48555751 191.58165939 206.00879811 190.4375 207.5625 C186.79188623 212.25070407 182.77805173 216.10094428 178.35986328 220.02685547 C174.82981094 223.18072716 171.74308318 226.48607825 168.703125 230.1015625 C165.445206 233.73309607 161.69113453 236.82169891 158 240 C157.25878906 240.66773438 156.51757812 241.33546875 155.75390625 242.0234375 C155.05136719 242.65507812 154.34882813 243.28671875 153.625 243.9375 C152.99851562 244.50339844 152.37203125 245.06929687 151.7265625 245.65234375 C150 247 150 247 147 248 C146.71125 248.639375 146.4225 249.27875 146.125 249.9375 C144.60901352 252.71680854 142.94132727 253.07115981 140 254 C140 254.66 140 255.32 140 256 C138.35 256.66 136.7 257.32 135 258 C135 258.66 135 259.32 135 260 C133.35 260.66 131.7 261.32 130 262 C130 262.66 130 263.32 130 264 C128.68 264.33 127.36 264.66 126 265 C126 265.66 126 266.32 126 267 C124.68 267.33 123.36 267.66 122 268 C122 268.66 122 269.32 122 270 C120.68 270.33 119.36 270.66 118 271 C118 271.66 118 272.32 118 273 C116.3203125 274.2890625 116.3203125 274.2890625 114.125 275.625 C113.40570313 276.07101562 112.68640625 276.51703125 111.9453125 276.9765625 C110 278 110 278 108 278 C108 278.66 108 279.32 108 280 C107.01 280 106.02 280 105 280 C105 280.66 105 281.32 105 282 C104.43152344 282.30292969 103.86304688 282.60585938 103.27734375 282.91796875 C102.50519531 283.33691406 101.73304688 283.75585938 100.9375 284.1875 C99.80634766 284.79658203 99.80634766 284.79658203 98.65234375 285.41796875 C96.53892473 286.67855005 94.62975944 287.98118614 92.65625 289.4375 C89.13184108 291.98969096 85.47782228 293.93236028 81.5625 295.8125 C80.14170437 296.50605435 78.72113762 297.20007775 77.30078125 297.89453125 C76.5835791 298.24338379 75.86637695 298.59223633 75.12744141 298.95166016 C73.10655083 299.94749492 71.1040706 300.97199838 69.10546875 302.01171875 C45.83576281 314.06960349 20.82887293 322.51894469 -5 327 C-6.26457031 327.22558594 -7.52914063 327.45117188 -8.83203125 327.68359375 C-30.70173611 330.89646832 -54.34535347 330.22601338 -76 326 C-76.83402344 325.83902832 -77.66804687 325.67805664 -78.52734375 325.51220703 C-132.61051941 314.66848864 -182.18466608 285.51550134 -223 249 C-223.92425781 248.175 -224.84851563 247.35 -225.80078125 246.5 C-227.37948605 245.08180085 -228.9545808 243.65955458 -230.5234375 242.23046875 C-231.85867013 241.02791697 -233.19990121 239.831249 -234.57299805 238.67211914 C-241.11249179 233.10942154 -247.12580096 227.0251556 -253.18188477 220.94848633 C-255.05829475 219.06671726 -256.93998969 217.19035262 -258.82226562 215.31445312 C-264.7603113 209.38004557 -270.6004414 203.43611008 -276 197 C-276.95845796 195.89611198 -277.91806116 194.7932171 -278.87890625 193.69140625 C-294.17787269 175.92226524 -294.17787269 175.92226524 -294.3125 163.375 C-294.35600586 162.05822266 -294.35600586 162.05822266 -294.40039062 160.71484375 C-294.48794063 151.65005107 -291.16555225 145.490055 -285 139 C-284.34 139 -283.68 139 -283 139 C-282.7525 138.21625 -282.505 137.4325 -282.25 136.625 C-280.77860006 133.53506013 -279.92681545 133.46340773 -277 132 C-276.690625 131.21625 -276.38125 130.4325 -276.0625 129.625 C-274.71008688 126.28374407 -272.79882142 125.23659483 -270 123 C-268.72651738 121.47340282 -267.49748841 119.90876421 -266.3125 118.3125 C-262.66075705 113.61044621 -258.62397029 109.76750407 -254.1015625 105.91015625 C-251.81786654 103.98964398 -251.81786654 103.98964398 -250 101 C-249.34 101 -248.68 101 -248 101 C-247.73574219 100.41089844 -247.47148437 99.82179688 -247.19921875 99.21484375 C-244.16141749 93.60431179 -238.79134569 89.70811413 -233.61328125 86.171875 C-231.1441723 84.37833339 -229.1286202 82.18053776 -227 80 C-224.37079437 77.62275991 -221.68852814 75.309714 -219 73 C-218.41347656 72.48566406 -217.82695312 71.97132813 -217.22265625 71.44140625 C-213.23530453 68 -213.23530453 68 -211 68 C-210.505 66.515 -210.505 66.515 -210 65 C-207.9375 64.3125 -207.9375 64.3125 -206 64 C-206 63.34 -206 62.68 -206 62 C-204.68 61.67 -203.36 61.34 -202 61 C-202 60.34 -202 59.68 -202 59 C-200.68 58.67 -199.36 58.34 -198 58 C-198 57.34 -198 56.68 -198 56 C-196.68 55.67 -195.36 55.34 -194 55 C-194 54.34 -194 53.68 -194 53 C-192.3203125 51.7109375 -192.3203125 51.7109375 -190.125 50.375 C-189.40570313 49.92898437 -188.68640625 49.48296875 -187.9453125 49.0234375 C-186 48 -186 48 -184 48 C-184 47.34 -184 46.68 -184 46 C-183.01 46 -182.02 46 -181 46 C-181 45.34 -181 44.68 -181 44 C-179.89591797 43.41992188 -179.89591797 43.41992188 -178.76953125 42.828125 C-177.79371094 42.30734375 -176.81789063 41.7865625 -175.8125 41.25 C-174.84957031 40.73953125 -173.88664062 40.2290625 -172.89453125 39.703125 C-169.98661383 38.09167036 -169.98661383 38.09167036 -167.59375 36.03125 C-164.50294396 33.61073925 -161.20601042 31.94136016 -157.6875 30.25 C-156.24847637 29.54732853 -154.80968035 28.84419078 -153.37109375 28.140625 C-152.27643799 27.60791992 -152.27643799 27.60791992 -151.15966797 27.06445312 C-149.1254664 26.06183965 -147.10949649 25.03100301 -145.09765625 23.984375 C-121.65339675 11.83848191 -96.91920583 3.84321916 -71 -1 C-70.28763184 -1.13422363 -69.57526367 -1.26844727 -68.84130859 -1.40673828 C-46.69231261 -5.34077179 -21.98862338 -4.20481271 0 0 Z M-98 61 C-99.43674373 61.81383656 -100.87409367 62.6266056 -102.3125 63.4375 C-103.199375 63.953125 -104.08625 64.46875 -105 65 C-105 65.66 -105 66.32 -105 67 C-105.66 67.185625 -106.32 67.37125 -107 67.5625 C-110.59117458 69.28327115 -113.08813198 71.53817013 -116.015625 74.20703125 C-117.69349303 75.72305767 -119.40265584 77.11536574 -121.1875 78.5 C-123.93988147 80.9465613 -125.81623834 83.30164037 -127.82421875 86.3515625 C-129 88 -129 88 -130.64453125 89.5859375 C-132.23066399 90.91416963 -132.23066399 90.91416963 -132 93 C-132.66 93 -133.32 93 -134 93 C-135.06705106 94.62455527 -136.05256736 96.30289978 -137 98 C-137.59296875 98.95132813 -138.1859375 99.90265625 -138.796875 100.8828125 C-155.33244498 128.33185866 -160.19905177 160.79758814 -153 192 C-148.4207556 210.04603898 -139.93733013 225.80065986 -128 240 C-127.29359375 240.87011719 -126.5871875 241.74023438 -125.859375 242.63671875 C-106.71313099 265.22219548 -77.18234625 278.40770346 -48 281 C-23.02971889 282.41576913 0.39282289 277.78476239 22 265 C23.43674373 264.18616344 24.87409367 263.3733944 26.3125 262.5625 C27.6428125 261.7890625 27.6428125 261.7890625 29 261 C29 260.34 29 259.68 29 259 C29.99 259 30.98 259 32 259 C32 258.34 32 257.68 32 257 C32.7425 256.7525 33.485 256.505 34.25 256.25 C37.29875486 254.86420234 38.70926423 253.42548493 41 251 C42.14069737 250.05625757 43.28703096 249.11930538 44.4375 248.1875 C47.4768389 245.62326118 49.69076773 242.93491562 51.859375 239.61328125 C53 238 53 238 54.640625 236.41796875 C56.23067831 235.08676459 56.23067831 235.08676459 56 233 C56.66 233 57.32 233 58 233 C58 232.01 58 231.02 58 230 C58.66 230 59.32 230 60 230 C77.85829009 200.64113307 84.80321782 167.82101201 77 134 C69.17682587 103.1701746 49.47859236 77.06232431 22.25 60.8125 C-15.16545624 39.8631964 -60.82348893 39.00300993 -98 61 Z " fill="#FBFBFB" transform="translate(294,93)"/>
<path d="M0 0 C17.58354211 14.62204996 28.80374692 35.21532063 30.94018555 58.09301758 C32.11146928 75.72502094 27.92588517 91.42960674 19.94018555 107.09301758 C19.54831055 107.87676758 19.15643555 108.66051758 18.75268555 109.46801758 C18.48456055 110.00426758 18.21643555 110.54051758 17.94018555 111.09301758 C17.28018555 111.09301758 16.62018555 111.09301758 15.94018555 111.09301758 C15.85768555 111.64989258 15.77518555 112.20676758 15.69018555 112.78051758 C14.70123013 115.82979677 13.09261089 117.74491721 10.94018555 120.09301758 C10.28018555 120.09301758 9.62018555 120.09301758 8.94018555 120.09301758 C8.71331055 120.67051758 8.48643555 121.24801758 8.25268555 121.84301758 C6.59616562 124.68276603 4.54549848 126.10801725 1.94018555 128.09301758 C1.21831055 128.83551758 0.49643555 129.57801758 -0.24731445 130.34301758 C-2.05981445 132.09301758 -2.05981445 132.09301758 -4.05981445 132.09301758 C-4.05981445 132.75301758 -4.05981445 133.41301758 -4.05981445 134.09301758 C-5.04981445 134.09301758 -6.03981445 134.09301758 -7.05981445 134.09301758 C-7.05981445 134.75301758 -7.05981445 135.41301758 -7.05981445 136.09301758 C-30.33596861 148.51627227 -53.99798402 152.5573053 -79.5793457 145.06176758 C-101.50034171 137.21580045 -118.67885006 121.55894096 -129.17553711 100.96362305 C-138.98861399 80.20498278 -139.5570521 57.09295031 -131.89819336 35.61791992 C-129.73578236 29.80023144 -127.2390411 24.42835041 -124.05981445 19.09301758 C-123.39981445 19.09301758 -122.73981445 19.09301758 -122.05981445 19.09301758 C-121.79168945 18.35051758 -121.52356445 17.60801758 -121.24731445 16.84301758 C-120.10704695 14.20239809 -118.96601139 12.23748914 -117.05981445 10.09301758 C-116.39981445 10.09301758 -115.73981445 10.09301758 -115.05981445 10.09301758 C-114.79168945 9.49489258 -114.52356445 8.89676758 -114.24731445 8.28051758 C-113.06064039 6.09453904 -111.96382333 4.67969164 -110.05981445 3.09301758 C-109.39981445 3.09301758 -108.73981445 3.09301758 -108.05981445 3.09301758 C-107.83293945 2.49489258 -107.60606445 1.89676758 -107.37231445 1.28051758 C-105.70372403 -1.50046646 -103.93143126 -2.47117402 -101.05981445 -3.90698242 C-100.39981445 -3.90698242 -99.73981445 -3.90698242 -99.05981445 -3.90698242 C-99.05981445 -4.56698242 -99.05981445 -5.22698242 -99.05981445 -5.90698242 C-66.40890072 -23.33385692 -29.80416715 -23.90752073 0 0 Z M-73.62231445 16.90551758 C-75.02610352 17.44885742 -75.02610352 17.44885742 -76.45825195 18.00317383 C-79.4126209 19.24081487 -82.24285106 20.57033466 -85.05981445 22.09301758 C-85.05981445 22.75301758 -85.05981445 23.41301758 -85.05981445 24.09301758 C-85.61668945 24.31989258 -86.17356445 24.54676758 -86.74731445 24.78051758 C-89.72141033 26.46851794 -91.7799031 28.55978274 -94.05981445 31.09301758 C-94.05981445 31.75301758 -94.05981445 32.41301758 -94.05981445 33.09301758 C-94.71981445 33.09301758 -95.37981445 33.09301758 -96.05981445 33.09301758 C-97.03777957 34.99974202 -97.99095972 36.91917971 -98.93481445 38.84301758 C-99.46848633 39.91036133 -100.0021582 40.97770508 -100.55200195 42.07739258 C-102.65502914 47.28603422 -102.65502914 47.28603422 -104.05981445 58.09301758 C-95.80981445 58.09301758 -87.55981445 58.09301758 -79.05981445 58.09301758 C-78.06981445 54.46301758 -77.07981445 50.83301758 -76.05981445 47.09301758 C-74.73981445 46.43301758 -73.41981445 45.77301758 -72.05981445 45.09301758 C-71.56481445 43.60801758 -71.56481445 43.60801758 -71.05981445 42.09301758 C-70.33793945 41.96926758 -69.61606445 41.84551758 -68.87231445 41.71801758 C-65.62949997 41.07665262 -65.62949997 41.07665262 -61.05981445 39.09301758 C-61.05981445 31.17301758 -61.05981445 23.25301758 -61.05981445 15.09301758 C-67.73734363 15.07417306 -67.73734363 15.07417306 -73.62231445 16.90551758 Z " fill="#F9F9F9" transform="translate(309.059814453125,190.906982421875)"/>
</svg>
