<?xml version="1.0" encoding="UTF-8"?>
<svg version="1.1" xmlns="http://www.w3.org/2000/svg" width="512" height="512">
<path d="M0 0 C1.80540056 -0.00389822 3.61080021 -0.00823516 5.41619873 -0.01298523 C9.18488549 -0.02040653 12.9534785 -0.02018658 16.72216797 -0.01489258 C21.50707971 -0.00911088 26.29160273 -0.02601765 31.07645035 -0.04923725 C34.80182061 -0.0641056 38.52710013 -0.06482854 42.25249481 -0.06172752 C44.01440956 -0.06223443 45.77633027 -0.0673508 47.53821564 -0.07753944 C77.97197976 -0.23194134 103.59190237 9.11353007 125.609375 30.30078125 C137.2809487 42.46101987 146.58965546 58.77679372 150.234375 75.30078125 C150.40077988 76.03517929 150.56718475 76.76957733 150.7386322 77.52622986 C152.74927971 87.69764217 152.48669228 97.84136179 152.4296875 108.16015625 C152.42595044 110.16082619 152.42310675 112.16149798 152.42111206 114.16217041 C152.41353016 119.38994533 152.39392931 124.61760648 152.3717041 129.84533691 C152.35112749 135.19505271 152.34208524 140.54478716 152.33203125 145.89453125 C152.31067756 156.36333082 152.27660849 166.83204652 152.234375 177.30078125 C149.1948353 178.59251822 146.15360259 179.88022199 143.11206055 181.16723633 C142.25648308 181.53089546 141.40090561 181.8945546 140.51940155 182.2692337 C134.44870525 184.83483699 128.37671072 187.13700041 122.046875 188.98828125 C121.09603027 189.27026367 120.14518555 189.55224609 119.16552734 189.84277344 C100.16006519 195.32625539 80.8978264 198.39637385 61.234375 200.30078125 C60.51443359 200.37280762 59.79449219 200.44483398 59.05273438 200.51904297 C54.45076574 200.95849134 49.85381054 201.17866912 45.234375 201.30078125 C44.27273438 201.3280127 43.31109375 201.35524414 42.3203125 201.38330078 C2.88047591 202.32771855 -35.78822884 197.26115216 -74.015625 187.73828125 C-75.12296997 187.46295563 -75.12296997 187.46295563 -76.25268555 187.18206787 C-86.1754601 184.691907 -96.27408014 182.1553717 -105.765625 178.30078125 C-107.30580355 175.22042414 -106.91291852 171.98120655 -106.91088867 168.60083008 C-106.91424728 167.80533249 -106.9176059 167.0098349 -106.92106628 166.19023132 C-106.93060291 163.54607599 -106.93252181 160.90198399 -106.93359375 158.2578125 C-106.93680823 156.41330438 -106.94017245 154.56879652 -106.94367981 152.72428894 C-106.94968047 148.84458833 -106.95151913 144.96491 -106.95092773 141.08520508 C-106.95082692 136.15202559 -106.96439055 131.21899266 -106.98169994 126.28584766 C-106.99291913 122.46700915 -106.9948438 118.64820472 -106.99431801 114.82935143 C-106.99548665 113.01358225 -106.99984457 111.19781187 -107.00765038 109.3820591 C-107.10543009 84.25208937 -103.09097214 60.01070982 -87.765625 39.30078125 C-87.105625 39.30078125 -86.445625 39.30078125 -85.765625 39.30078125 C-85.4253125 38.21796875 -85.4253125 38.21796875 -85.078125 37.11328125 C-82.64592126 31.90141608 -78.16581896 28.82093642 -73.765625 25.30078125 C-72.940625 24.43453125 -72.115625 23.56828125 -71.265625 22.67578125 C-68.79208829 20.32592138 -66.98470668 19.31249264 -63.765625 18.30078125 C-63.765625 17.64078125 -63.765625 16.98078125 -63.765625 16.30078125 C-62.775625 16.30078125 -61.785625 16.30078125 -60.765625 16.30078125 C-60.765625 15.64078125 -60.765625 14.98078125 -60.765625 14.30078125 C-40.52232389 4.3124698 -22.52861247 -0.02046072 0 0 Z " fill="#FBFBFB" transform="translate(236.765625,271.69921875)"/>
<path d="M0 0 C1.91384737 0.0037358 3.82769666 0.00658009 5.74154663 0.00857544 C10.74905796 0.01616723 15.75645102 0.0357769 20.76391602 0.0579834 C25.88556316 0.07853837 31.00722964 0.08759769 36.12890625 0.09765625 C46.15630161 0.11902745 56.18360967 0.15310889 66.2109375 0.1953125 C66.29488172 0.74311969 66.37882593 1.29092688 66.46531391 1.85533428 C66.85038601 4.35862696 67.239247 6.86131712 67.62817383 9.36401367 C67.82615948 10.65670795 67.82615948 10.65670795 68.02814484 11.97551727 C68.91212053 17.64109433 69.96356664 23.09544917 71.8984375 28.5078125 C72.15407471 29.24088623 72.40971191 29.97395996 72.6730957 30.72924805 C76.74783395 41.90896953 82.70487941 51.24559346 90.70581055 60.02270508 C94.2109375 63.90358065 94.2109375 63.90358065 94.2109375 67.1953125 C93.16035156 67.57042969 92.10976562 67.94554687 91.02734375 68.33203125 C80.85781701 72.0171517 71.89590267 76.33144648 62.83984375 82.27734375 C61.2109375 83.1953125 61.2109375 83.1953125 59.2109375 83.1953125 C59.2109375 83.8553125 59.2109375 84.5153125 59.2109375 85.1953125 C58.4065625 85.4634375 57.6021875 85.7315625 56.7734375 86.0078125 C55.9278125 86.3996875 55.0821875 86.7915625 54.2109375 87.1953125 C53.8809375 88.1853125 53.5509375 89.1753125 53.2109375 90.1953125 C47.74582122 95.1953125 47.74582122 95.1953125 45.2109375 95.1953125 C44.96472656 95.74960937 44.71851563 96.30390625 44.46484375 96.875 C42.97020587 99.6407785 41.1445636 101.89308113 39.1484375 104.3203125 C36.40645003 107.58082273 36.40645003 107.58082273 34.2109375 111.1953125 C33.5509375 111.1953125 32.8909375 111.1953125 32.2109375 111.1953125 C32.2109375 112.1853125 32.2109375 113.1753125 32.2109375 114.1953125 C31.5509375 114.1953125 30.8909375 114.1953125 30.2109375 114.1953125 C30.08041992 114.7828833 29.94990234 115.3704541 29.81542969 115.97583008 C29.06322083 118.73767608 27.80547895 121.17284237 26.53173828 123.72680664 C14.48088254 147.99062494 13.82675945 172.6198417 13.2109375 199.1953125 C3.26489876 199.40771143 -6.234925 198.91459851 -16.1015625 197.5078125 C-18.04687866 197.23662598 -18.04687866 197.23662598 -20.03149414 196.95996094 C-47.8542039 193.01160563 -74.96867797 186.53176829 -101.7890625 178.1953125 C-101.88214262 165.4160555 -101.95301942 152.63688046 -101.99631119 139.85735226 C-102.01709928 133.92195006 -102.04525519 127.98678147 -102.09082031 122.05151367 C-102.13459276 116.31321002 -102.15826545 110.57512968 -102.16857147 104.83667183 C-102.17590684 102.65803072 -102.19022946 100.47940049 -102.21198273 98.30085564 C-102.36333565 82.50079515 -101.409683 68.65903171 -93.6640625 54.5078125 C-93.31730469 53.84587891 -92.97054687 53.18394531 -92.61328125 52.50195312 C-91.68237504 50.72752461 -90.7364909 48.96097451 -89.7890625 47.1953125 C-89.1164803 45.86495337 -88.44622744 44.53335452 -87.7890625 43.1953125 C-87.1290625 43.1953125 -86.4690625 43.1953125 -85.7890625 43.1953125 C-85.6034375 42.5353125 -85.4178125 41.8753125 -85.2265625 41.1953125 C-81.96478421 34.38812302 -75.539019 28.05015703 -69.7890625 23.1953125 C-69.1290625 23.1953125 -68.4690625 23.1953125 -67.7890625 23.1953125 C-67.2940625 21.7103125 -67.2940625 21.7103125 -66.7890625 20.1953125 C-64.7265625 19.5078125 -64.7265625 19.5078125 -62.7890625 19.1953125 C-62.7890625 18.5353125 -62.7890625 17.8753125 -62.7890625 17.1953125 C-59.7890625 15.1953125 -59.7890625 15.1953125 -56.7890625 15.1953125 C-56.7890625 14.5353125 -56.7890625 13.8753125 -56.7890625 13.1953125 C-47.99706069 8.91942091 -39.27027359 4.73728904 -29.7890625 2.1953125 C-29.19770004 2.02664169 -28.60633759 1.85797089 -27.99705505 1.68418884 C-18.80918272 -0.55907126 -9.38919451 -0.0540527 0 0 Z " fill="#FBFBFB" transform="translate(101.7890625,194.8046875)"/>
<path d="M0 0 C10.00663758 -0.09336811 20.0131687 -0.16409965 30.02015591 -0.20724869 C34.66862496 -0.22797554 39.31679237 -0.25601458 43.96508789 -0.30175781 C48.46499079 -0.34575515 52.96460666 -0.36924858 57.46470833 -0.37950897 C59.16722179 -0.38680505 60.86972255 -0.40104688 62.57211113 -0.42292023 C89.95305154 -0.76019738 113.52688502 8.55832873 133.49926758 27.40795898 C140.98633749 34.75308289 146.69558272 43.03664402 151.75 52.1875 C152.27932129 53.11985474 152.27932129 53.11985474 152.81933594 54.07104492 C160.82668267 69.25304951 161.70364612 84.28713801 161.48828125 101.09765625 C161.47893119 103.27053505 161.47182548 105.44342454 161.46684265 107.61631775 C161.44794542 113.27664386 161.39899753 118.93630666 161.34332275 124.59637451 C161.2917533 130.39553866 161.26924886 136.19481223 161.24414062 141.99414062 C161.19085882 153.32971513 161.10576071 164.66480195 161 176 C158.77232914 177.12745534 156.5432338 178.25192686 154.31323242 179.37475586 C153.68749077 179.6918325 153.06174911 180.00890915 152.41704559 180.33559418 C147.48426537 182.81494856 142.56059782 184.86897065 137.3125 186.5625 C136.44294678 186.84641602 135.57339355 187.13033203 134.67749023 187.42285156 C109.77397551 195.26805865 80.31899968 201.91206408 54 200 C51.98977101 197.98977101 52.81504324 193.91309316 52.7890625 191.15234375 C52.76092421 189.49673609 52.73225961 187.8411373 52.703125 186.18554688 C52.66239263 183.5861911 52.62551171 180.98698878 52.59863281 178.38745117 C52.43184311 163.533103 51.23831215 149.37740018 45.8125 135.375 C45.51061768 134.5814209 45.20873535 133.7878418 44.89770508 132.97021484 C32.95688694 102.58709236 10.27622094 82.8996988 -19 70 C-20.69154339 69.24770412 -22.38295391 68.49510939 -24.07421875 67.7421875 C-25.38273309 67.16127943 -26.69129626 66.58048126 -28 66 C-26.37159701 62.59780091 -24.51714616 59.83178943 -22 57 C-21.34 57 -20.68 57 -20 57 C-19.71125 56.236875 -19.4225 55.47375 -19.125 54.6875 C-18 52 -18 52 -16 49 C-15.34 49 -14.68 49 -14 49 C-13.90332031 48.48179687 -13.80664062 47.96359375 -13.70703125 47.4296875 C-12.94435805 44.80878844 -11.83292781 42.47025413 -10.62573242 40.02758789 C-5.46667119 29.56582256 -2.2342261 19.16551864 -0.89453125 7.55859375 C-0.7628656 6.46170227 -0.7628656 6.46170227 -0.62854004 5.34265137 C-0.41535199 3.56220374 -0.20714899 1.78116035 0 0 Z " fill="#FCFCFC" transform="translate(351,195)"/>
<path d="M0 0 C16.36451506 12.89532916 28.28436528 30.83965527 30.86328125 51.83203125 C32.34527122 75.0750515 27.64147219 95.65447399 12.04296875 113.546875 C9.13277044 116.59788935 6.23073318 119.28926142 2.86328125 121.83203125 C2.20328125 121.83203125 1.54328125 121.83203125 0.86328125 121.83203125 C0.86328125 122.49203125 0.86328125 123.15203125 0.86328125 123.83203125 C-12.05604558 131.81314971 -25.63501116 138.36322961 -41.13671875 138.83203125 C-41.77609375 138.88230469 -42.41546875 138.93257812 -43.07421875 138.984375 C-63.41266192 139.94736947 -82.25549479 131.17788069 -97.47265625 118.296875 C-112.67280506 104.23339421 -120.82134047 85.61493377 -122.33984375 65.0859375 C-122.6076188 49.71118695 -119.0290348 32.66306338 -110.13671875 19.83203125 C-109.47671875 19.83203125 -108.81671875 19.83203125 -108.13671875 19.83203125 C-108.04390625 19.02765625 -108.04390625 19.02765625 -107.94921875 18.20703125 C-105.74800751 11.77272147 -98.70044636 5.4772321 -93.13671875 1.83203125 C-92.47671875 1.83203125 -91.81671875 1.83203125 -91.13671875 1.83203125 C-91.13671875 1.17203125 -91.13671875 0.51203125 -91.13671875 -0.16796875 C-63.59949352 -19.8657677 -27.45716638 -18.97724451 0 0 Z " fill="#FAFAFA" transform="translate(305.13671875,131.16796875)"/>
<path d="M0 0 C1.12728516 0.84884766 1.12728516 0.84884766 2.27734375 1.71484375 C18.09544014 14.52593568 26.71521252 34.70718097 28.875 54.5625 C29.1135622 58.77709881 29.05762794 62.19338832 27 66 C26.01 66.33 25.02 66.66 24 67 C23.71125 67.5775 23.4225 68.155 23.125 68.75 C21.28875962 72.42248077 18.56261111 75.28566349 14.8125 77 C12.22068954 78.42996439 11.86490367 80.26113837 11 83 C10.34 83 9.68 83 9 83 C9 83.99 9 84.98 9 86 C8.34 86 7.68 86 7 86 C6.90332031 86.52722656 6.80664062 87.05445313 6.70703125 87.59765625 C5.76833898 90.78713549 4.2443236 93.50053727 2.6875 96.4375 C-1.04134762 103.6704167 -4.21525512 111.29444313 -5.33203125 119.4140625 C-5.75522612 122.42721001 -6.36265986 124.4926437 -8.78125 126.41796875 C-26.45284584 135.99008316 -48.69000023 139.21094952 -68.13891602 133.97460938 C-88.25242301 127.90146519 -104.93250033 114.84537037 -115.24707031 96.47412109 C-124.57268606 79.00400777 -127.16028868 58.35251053 -122.5625 39 C-119.8790527 30.48127456 -115.42194161 22.71950063 -111 15 C-110.34 15 -109.68 15 -109 15 C-108.34 13.35 -107.68 11.7 -107 10 C-106.34 10 -105.68 10 -105 10 C-104.773125 9.4225 -104.54625 8.845 -104.3125 8.25 C-102.65598007 5.41025155 -100.60531294 3.98500033 -98 2 C-97.38125 1.360625 -96.7625 0.72125 -96.125 0.0625 C-91.08234498 -4.83184164 -85.51216905 -8.00912932 -79.0625 -10.625 C-78.32813721 -10.92349854 -77.59377441 -11.22199707 -76.8371582 -11.52954102 C-50.2109203 -21.8935243 -22.47464796 -17.20761994 0 0 Z " fill="#FAFAFA" transform="translate(176,56)"/>
<path d="M0 0 C13.68296309 12.70739534 22.59805304 31.26250353 23.56640625 49.8828125 C24.06771 66.80950058 21.41362227 80.15345746 13.1875 95.125 C12.51460184 96.45519934 11.8453805 97.78730965 11.1875 99.125 C10.5275 99.125 9.8675 99.125 9.1875 99.125 C8.98125 99.805625 8.775 100.48625 8.5625 101.1875 C5.60052299 107.51535998 1.06557628 111.46753031 -4.8125 115.125 C-5.44091797 115.79982422 -5.44091797 115.79982422 -6.08203125 116.48828125 C-19.49671795 129.17621292 -39.5920481 132.76476166 -57.296875 132.37890625 C-66.31741933 131.99826835 -77.21110864 130.39979727 -84.8125 125.125 C-86.95908134 121.90876626 -87.42942592 118.44701387 -88.125 114.6875 C-91.29338837 99.41586807 -97.83962328 86.0659167 -107.8125 74.125 C-108.32167969 73.47015625 -108.83085937 72.8153125 -109.35546875 72.140625 C-113.89638888 66.53455076 -119.36197835 62.40340625 -125.1171875 58.12890625 C-127.8125 56.125 -127.8125 56.125 -128.8125 55.125 C-130.52037969 39.39010847 -124.41553611 24.02955417 -115.8125 11.125 C-115.1525 11.125 -114.4925 11.125 -113.8125 11.125 C-113.585625 10.403125 -113.35875 9.68125 -113.125 8.9375 C-110.84324165 4.04801783 -107.51912792 1.47831396 -102.8125 -0.875 C-102.4825 -1.865 -102.1525 -2.855 -101.8125 -3.875 C-69.42359412 -27.5476254 -30.52341654 -25.49726218 0 0 Z " fill="#FAFAFA" transform="translate(436.8125,59.875)"/>
<path d="M0 0 C0.33 0 0.66 0 1 0 C1.96953382 7.72785134 2.12131488 15.34333901 2.0625 23.125 C2.05798828 24.27226562 2.05347656 25.41953125 2.04882812 26.6015625 C2.03716339 29.40109813 2.02079614 32.20051986 2 35 C4.31 35 6.62 35 9 35 C9.33 35.66 9.66 36.32 10 37 C8.52093108 37.02689216 7.04172517 37.04634621 5.5625 37.0625 C4.73878906 37.07410156 3.91507812 37.08570313 3.06640625 37.09765625 C1 37 1 37 0 36 C-0.08855161 33.3337397 -0.11524673 30.69352886 -0.09765625 28.02734375 C-0.0962413 27.22970108 -0.09482635 26.43205841 -0.09336853 25.61024475 C-0.08775316 23.05262565 -0.07519812 20.49509282 -0.0625 17.9375 C-0.05748698 16.20768355 -0.05292373 14.47786574 -0.04882812 12.74804688 C-0.03777875 8.49866447 -0.02050386 4.24934688 0 0 Z " fill="#8A8A8A" transform="translate(404,358)"/>
<path d="M0 0 C0 3.59422497 -1.14981068 4.99344236 -3 8 C-3 8.66 -3 9.32 -3 10 C-3.99 9.67 -4.98 9.34 -6 9 C-4.47291037 5.56404834 -2.40072955 2.88087546 0 0 Z " fill="#727272" transform="translate(329,252)"/>
</svg>
