<?xml version="1.0" encoding="UTF-8"?>
<!DOCTYPE svg PUBLIC "-//W3C//DTD SVG 1.1//EN" "http://www.w3.org/Graphics/SVG/1.1/DTD/svg11.dtd">
<svg xmlns="http://www.w3.org/2000/svg" version="1.1" width="512px" height="512px" style="shape-rendering:geometricPrecision; text-rendering:geometricPrecision; image-rendering:optimizeQuality; fill-rule:evenodd; clip-rule:evenodd" xmlns:xlink="http://www.w3.org/1999/xlink">
<g><path style="opacity:0.656" fill="#5e5e5e" d="M 303.5,20.5 C 271.167,21.1596 238.833,21.8262 206.5,22.5C 205.817,22.1373 205.15,21.8039 204.5,21.5C 205.609,20.71 206.942,20.21 208.5,20C 240.336,19.1693 272.003,19.336 303.5,20.5 Z"/></g>
<g><path style="opacity:1" fill="#a8a8a8" d="M 303.5,20.5 C 310.663,22.3288 315.663,26.6621 318.5,33.5C 318.168,180.903 318.502,328.237 319.5,475.5C 319.245,477.967 318.245,479.967 316.5,481.5C 315.094,481.973 314.427,482.973 314.5,484.5C 314.5,485.167 314.167,485.5 313.5,485.5C 311.973,485.427 310.973,486.094 310.5,487.5C 308.266,489.446 305.599,490.613 302.5,491C 271.167,491.667 239.833,491.667 208.5,491C 199.684,488.683 194.018,483.183 191.5,474.5C 192.832,328.264 192.832,181.931 191.5,35.5C 191.755,33.0326 192.755,31.0326 194.5,29.5C 195.906,29.0269 196.573,28.0269 196.5,26.5C 196.5,25.8333 196.833,25.5 197.5,25.5C 199.027,25.573 200.027,24.9063 200.5,23.5C 201.514,22.3263 202.847,21.6596 204.5,21.5C 205.15,21.8039 205.817,22.1373 206.5,22.5C 238.833,21.8262 271.167,21.1596 303.5,20.5 Z"/></g>
<g><path style="opacity:0.035" fill="#181818" d="M 200.5,23.5 C 200.027,24.9063 199.027,25.573 197.5,25.5C 197.973,24.0937 198.973,23.427 200.5,23.5 Z"/></g>
<g><path style="opacity:0.043" fill="#131313" d="M 196.5,26.5 C 196.573,28.0269 195.906,29.0269 194.5,29.5C 194.427,27.9731 195.094,26.9731 196.5,26.5 Z"/></g>
<g><path style="opacity:0.937" fill="#585858" d="M 191.5,35.5 C 192.832,181.931 192.832,328.264 191.5,474.5C 190.167,328.167 190.167,181.833 191.5,35.5 Z"/></g>
<g><path style="opacity:0.937" fill="#585858" d="M 318.5,33.5 C 319.268,34.2625 319.768,35.2625 320,36.5C 320.833,183.001 320.666,329.334 319.5,475.5C 318.502,328.237 318.168,180.903 318.5,33.5 Z"/></g>
<g><path style="opacity:0.937" fill="#595959" d="M 474.5,127.5 C 441.997,128.167 409.331,128.833 376.5,129.5C 375.009,130.244 373.509,130.91 372,131.5C 371.601,131.272 371.435,130.938 371.5,130.5C 372.975,128.59 374.975,127.424 377.5,127C 410.003,126.169 442.336,126.336 474.5,127.5 Z"/></g>
<g><path style="opacity:1" fill="#a8a8a8" d="M 474.5,127.5 C 479.316,128.072 482.983,130.405 485.5,134.5C 484.146,137.033 484.98,138.7 488,139.5C 488.21,141.058 488.71,142.391 489.5,143.5C 489.169,253.57 489.502,363.57 490.5,473.5C 490.768,475.099 490.434,476.432 489.5,477.5C 484.486,480.514 480.486,484.514 477.5,489.5C 476.234,490.09 474.901,490.59 473.5,491C 441.833,491.667 410.167,491.667 378.5,491C 370.202,488.72 364.869,483.553 362.5,475.5C 362.831,365.43 362.498,255.43 361.5,145.5C 361.486,141.525 362.819,138.192 365.5,135.5C 367.5,134.167 369.167,132.5 370.5,130.5C 370.833,130.5 371.167,130.5 371.5,130.5C 371.435,130.938 371.601,131.272 372,131.5C 373.509,130.91 375.009,130.244 376.5,129.5C 409.331,128.833 441.997,128.167 474.5,127.5 Z"/></g>
<g><path style="opacity:0.02" fill="#3a3a3a" d="M 370.5,130.5 C 369.167,132.5 367.5,134.167 365.5,135.5C 366.167,132.833 367.833,131.167 370.5,130.5 Z"/></g>
<g><path style="opacity:0.962" fill="#666666" d="M 485.5,134.5 C 488.405,136.756 490.072,139.756 490.5,143.5C 490.167,143.5 489.833,143.5 489.5,143.5C 488.71,142.391 488.21,141.058 488,139.5C 484.98,138.7 484.146,137.033 485.5,134.5 Z"/></g>
<g><path style="opacity:0.661" fill="#575757" d="M 489.5,143.5 C 489.833,143.5 490.167,143.5 490.5,143.5C 491.832,253.598 491.832,363.598 490.5,473.5C 489.502,363.57 489.169,253.57 489.5,143.5 Z"/></g>
<g><path style="opacity:0.341" fill="#595959" d="M 361.5,145.5 C 362.498,255.43 362.831,365.43 362.5,475.5C 361.71,474.391 361.21,473.058 361,471.5C 360.167,362.666 360.334,253.999 361.5,145.5 Z"/></g>
<g><path style="opacity:0.937" fill="#5c5c5c" d="M 133.5,255.5 C 100.905,256.326 68.2382,256.826 35.5,257C 33.5448,257.953 31.8782,259.287 30.5,261C 28.8659,261.494 27.1992,261.66 25.5,261.5C 25.5,260.833 25.8333,260.5 26.5,260.5C 28.0269,260.573 29.0269,259.906 29.5,258.5C 31.4927,256.837 33.8261,255.67 36.5,255C 69.0026,254.169 101.336,254.336 133.5,255.5 Z"/></g>
<g><path style="opacity:1" fill="#a8a8a8" d="M 133.5,255.5 C 134.791,255.263 135.791,255.596 136.5,256.5C 136.539,257.583 136.873,258.583 137.5,259.5C 141.554,262.645 145.221,265.979 148.5,269.5C 149.451,270.919 149.784,272.585 149.5,274.5C 148.17,340.47 148.17,406.47 149.5,472.5C 147.851,482.262 142.184,488.429 132.5,491C 100.833,491.667 69.1667,491.667 37.5,491C 35.2774,490.434 33.2774,489.6 31.5,488.5C 30.1667,483.833 27.1667,480.833 22.5,479.5C 21.8902,478.609 21.5569,477.609 21.5,476.5C 21.8297,408.096 21.4964,339.762 20.5,271.5C 20.7073,268.759 21.7073,266.426 23.5,264.5C 24.9063,264.027 25.573,263.027 25.5,261.5C 27.1992,261.66 28.8659,261.494 30.5,261C 31.8782,259.287 33.5448,257.953 35.5,257C 68.2382,256.826 100.905,256.326 133.5,255.5 Z"/></g>
<g><path style="opacity:0.882" fill="#7a7a7a" d="M 136.5,256.5 C 142.566,258.9 146.566,263.233 148.5,269.5C 145.221,265.979 141.554,262.645 137.5,259.5C 136.873,258.583 136.539,257.583 136.5,256.5 Z"/></g>
<g><path style="opacity:0.043" fill="#141414" d="M 29.5,258.5 C 29.0269,259.906 28.0269,260.573 26.5,260.5C 26.9731,259.094 27.9731,258.427 29.5,258.5 Z"/></g>
<g><path style="opacity:0.039" fill="#0e0e0e" d="M 25.5,261.5 C 25.573,263.027 24.9063,264.027 23.5,264.5C 23.427,262.973 24.0937,261.973 25.5,261.5 Z"/></g>
<g><path style="opacity:0.66" fill="#575757" d="M 20.5,271.5 C 21.4964,339.762 21.8297,408.096 21.5,476.5C 20.7321,475.737 20.2321,474.737 20,473.5C 19.1679,405.999 19.3346,338.665 20.5,271.5 Z"/></g>
<g><path style="opacity:0.337" fill="#5a5a5a" d="M 149.5,274.5 C 150.833,340.5 150.833,406.5 149.5,472.5C 148.17,406.47 148.17,340.47 149.5,274.5 Z"/></g>
<g><path style="opacity:0.837" fill="#747474" d="M 489.5,477.5 C 487.522,483.478 483.522,487.478 477.5,489.5C 480.486,484.514 484.486,480.514 489.5,477.5 Z"/></g>
<g><path style="opacity:0.805" fill="#797979" d="M 22.5,479.5 C 27.1667,480.833 30.1667,483.833 31.5,488.5C 27.5,486.5 24.5,483.5 22.5,479.5 Z"/></g>
<g><path style="opacity:0.004" fill="#101010" d="M 316.5,481.5 C 316.573,483.027 315.906,484.027 314.5,484.5C 314.427,482.973 315.094,481.973 316.5,481.5 Z"/></g>
<g><path style="opacity:0.004" fill="#161616" d="M 313.5,485.5 C 313.027,486.906 312.027,487.573 310.5,487.5C 310.973,486.094 311.973,485.427 313.5,485.5 Z"/></g>
</svg>
