<?xml version="1.0" encoding="UTF-8"?>
<svg version="1.1" xmlns="http://www.w3.org/2000/svg" width="512" height="512">
<path d="M0 0 C1.12143402 -0.00571014 2.24286804 -0.01142029 3.39828491 -0.01730347 C5.23735916 -0.01898026 5.23735916 -0.01898026 7.11358643 -0.02069092 C8.40829865 -0.02565582 9.70301086 -0.03062073 11.03695679 -0.03573608 C14.58673014 -0.04883826 18.1364846 -0.05530092 21.68627834 -0.05974674 C23.90620361 -0.06268135 26.12612376 -0.06678692 28.34604645 -0.07125092 C35.29789542 -0.08492089 42.24973264 -0.09458966 49.20159411 -0.09845281 C57.21478011 -0.1029307 65.22779529 -0.12046813 73.24092937 -0.1494534 C79.44236114 -0.17110323 85.64374498 -0.18115887 91.84521413 -0.18249393 C95.54548418 -0.18353971 99.24559355 -0.18939888 102.94582367 -0.20731354 C107.07737003 -0.2269276 111.20856107 -0.22249214 115.34014893 -0.21600342 C116.5581015 -0.2252182 117.77605408 -0.23443298 119.03091431 -0.243927 C127.48242105 -0.20237392 134.37585816 0.63574891 140.86065674 6.57794189 C141.50776611 7.15415283 142.15487549 7.73036377 142.82159424 8.32403564 C146.23594554 12.0509684 146.73856588 15.11395366 146.76654053 20.11035156 C146.77796082 21.33275543 146.7893811 22.5551593 146.80114746 23.81460571 C146.803638 25.16638143 146.80588823 26.5181576 146.80792236 27.86993408 C146.81718286 29.29595451 146.82723274 30.72196999 146.8380127 32.14797974 C146.8642269 36.02005551 146.87714412 39.89206198 146.88603401 43.76421261 C146.8919015 46.18515641 146.90011229 48.60608138 146.90904236 51.02701569 C146.93638457 58.6067727 146.95572111 66.18648656 146.96344614 73.76628947 C146.97240342 82.50639996 147.00748274 91.24588422 147.06544733 99.98580432 C147.10873164 106.74775043 147.12885739 113.50952069 147.13152838 120.27160382 C147.13362109 124.3074002 147.14536136 128.34260764 147.1811676 132.37825775 C147.21421831 136.1771982 147.21839938 139.9751099 147.20088959 143.77414322 C147.19935341 145.16406391 147.20797473 146.5540409 147.22780609 147.94382095 C147.32803842 155.40925996 147.18772871 160.82977463 142.13930511 166.60445023 C136.95223533 171.42246117 132.15303248 173.89248705 125.00909424 174.27716064 C118.65226767 173.93275054 112.95206694 171.73091905 108.48565674 167.14044189 C104.10253065 160.98912289 102.34192975 156.32162856 102.28033447 148.73150635 C102.27043488 147.98004333 102.26053528 147.22858032 102.25033569 146.4543457 C102.21875178 143.97083688 102.19397557 141.48730894 102.16925049 139.00372314 C102.14867828 137.28164676 102.12768173 135.5595754 102.10627747 133.83750916 C102.0510844 129.30510524 102.00166292 124.77265596 101.95343018 120.24017334 C101.90319498 115.61509158 101.84751944 110.9900757 101.79229736 106.36505127 C101.68474961 97.29023775 101.5832971 88.21536704 101.48565674 79.14044189 C100.64266525 79.98712055 99.79967377 80.83379921 98.93113708 81.7061348 C78.90995951 101.8139846 58.87841556 121.91146558 38.83410478 141.99625517 C36.36582837 144.46953427 33.89763937 146.94290057 31.42950439 149.4163208 C30.93815144 149.908723 30.44679849 150.40112519 29.94055605 150.90844867 C21.98976416 158.8766354 14.04607012 166.85186207 6.10498679 174.82972303 C-2.04631411 183.01845894 -10.20536429 191.19940488 -18.3711977 199.37365031 C-22.95637287 203.96404022 -27.5379613 208.55788562 -32.11117554 213.1601944 C-36.4165572 217.49274382 -40.73125313 221.81579375 -45.05324364 226.13177299 C-46.6369351 227.71656406 -48.21720684 229.3047811 -49.79375648 230.89667702 C-51.94943267 233.0723011 -54.11715954 235.23517833 -56.28826904 237.39538574 C-57.21632465 238.3409184 -57.21632465 238.3409184 -58.16312885 239.30555272 C-62.9395071 244.01753156 -67.92493258 247.53024208 -74.63934326 248.67169189 C-75.58809326 248.66137939 -76.53684326 248.65106689 -77.51434326 248.64044189 C-78.93746826 248.65591064 -78.93746826 248.65591064 -80.38934326 248.67169189 C-89.30876551 247.15539011 -94.77031501 241.44403028 -100.86785889 235.24102783 C-101.76635559 234.34311523 -102.66485229 233.44520264 -103.59057617 232.52008057 C-106.03707585 230.07472169 -108.47110326 227.6172883 -110.90297127 225.15738964 C-113.45285394 222.58238697 -116.01417991 220.01881702 -118.57427979 217.45397949 C-123.41282856 212.60303196 -128.241096 207.74198508 -133.06569433 202.87716699 C-138.5620508 197.33599603 -144.06986173 191.80627055 -149.57863331 186.27744627 C-160.90327182 174.91107372 -172.2135403 163.53051385 -183.51434326 152.14044189 C-188.05295681 155.9379765 -192.37386003 159.86063529 -196.53457642 164.06733704 C-197.09773752 164.63246598 -197.66089863 165.19759493 -198.24112523 165.77984899 C-200.10788084 167.65425907 -201.97099713 169.53224396 -203.83416748 171.41021729 C-205.17993771 172.76282536 -206.52596301 174.1151797 -207.8722229 175.46730042 C-210.76157022 178.36993448 -213.64948793 181.27398081 -216.53640366 184.17903328 C-221.10564841 188.77621199 -225.68039043 193.36789328 -230.25631714 197.9584198 C-231.82574175 199.53298764 -233.39515965 201.10756216 -234.964571 202.68214321 C-235.75024208 203.47039986 -236.53591317 204.2586565 -237.34539247 205.07079971 C-247.99018789 215.75158886 -258.63021985 226.43708905 -269.25994873 237.13287354 C-276.44106808 244.35852931 -283.62931884 251.57700811 -290.82569134 258.78747362 C-294.629147 262.59898871 -298.42881738 266.41411448 -302.21969223 270.23814583 C-305.78489345 273.83447779 -309.3593597 277.42133517 -312.94102859 281.00126457 C-314.25018627 282.31310992 -315.55593155 283.62837139 -316.8578949 284.94735718 C-331.75309152 300.02873611 -331.75309152 300.02873611 -340.95574951 301.80450439 C-349.37450243 301.69913828 -354.37952955 300.36593134 -360.29559326 294.32012939 C-364.80303281 289.23862915 -365.7827252 285.89514921 -365.95184326 279.07794189 C-366.02048584 277.98836182 -366.02048584 277.98836182 -366.09051514 276.87677002 C-366.25455709 268.81018509 -361.62393922 263.23069313 -356.28565693 257.53423214 C-355.11092054 256.34329976 -353.92822846 255.1601762 -352.73878479 253.9839325 C-351.75421745 252.99234519 -351.75421745 252.99234519 -350.74975985 251.98072582 C-348.57131166 249.79041044 -346.38241817 247.61085887 -344.19329834 245.43121338 C-342.62032486 243.85417077 -341.04798942 242.27649155 -339.47624207 240.69822693 C-335.22318879 236.43154174 -330.96075516 232.17434634 -326.69611955 227.91924167 C-322.23272778 223.46345979 -317.77667649 219.00034665 -313.31944275 214.53840637 C-305.36224767 206.57541234 -297.39752679 198.61998917 -289.42979791 190.66753954 C-282.20282785 183.45399891 -274.98379841 176.23258992 -267.77044678 169.00543213 C-259.38540556 160.60434962 -250.99536487 152.20831045 -242.59785956 143.8196817 C-238.15528382 139.38178992 -233.71477658 134.94187948 -229.27948952 130.49670219 C-225.1157788 126.32435474 -220.94485406 122.15935861 -216.76813698 118.00003242 C-215.23322937 116.46910577 -213.7008952 114.9355942 -212.17127609 113.39938354 C-210.09066572 111.31063217 -208.00112946 109.23125282 -205.90895081 107.15409851 C-205.29923032 106.53768586 -204.68950984 105.92127321 -204.06131297 105.28618139 C-199.85679578 101.14044189 -199.85679578 101.14044189 -196.51434326 101.14044189 C-196.51434326 100.48044189 -196.51434326 99.82044189 -196.51434326 99.14044189 C-189.62720722 96.54677577 -183.76166193 95.32861223 -176.51434326 97.14044189 C-163.22528079 103.78497313 -151.954575 118.57125174 -141.60028076 128.95684814 C-139.7763323 130.7826645 -137.95216084 132.60825811 -136.1277771 134.43363953 C-131.8409211 138.72390491 -127.55629614 143.01638635 -123.27278006 147.30998605 C-118.38951992 152.20448777 -113.50336372 157.0960941 -108.61698222 161.98747933 C-98.57958159 172.03528614 -88.54575775 182.08665887 -78.51434326 192.14044189 C-74.4049244 190.51327599 -71.65359051 187.55280569 -68.60449219 184.47109985 C-68.0171265 183.88544302 -67.42976081 183.29978618 -66.82459617 182.69638216 C-64.85604168 180.73112408 -62.89472447 178.75879897 -60.93328857 176.78643799 C-59.52427905 175.37686438 -58.11482911 173.9677309 -56.70497131 172.55900574 C-52.8764585 168.73106756 -49.05415041 164.89698714 -45.2329073 161.0617938 C-41.23928675 157.05568442 -37.24001489 153.05522499 -33.24133301 149.0541687 C-25.66906069 141.47567619 -18.10190175 133.89209911 -10.53655601 126.30669272 C-1.92388164 117.67167615 6.6944615 109.042327 15.31329107 100.41345477 C33.04373838 82.66209325 50.76703676 64.90360838 68.48565674 47.14044189 C67.12501854 47.13164253 67.12501854 47.13164253 65.7368927 47.12266541 C57.16001316 47.0645986 48.58339017 46.9924422 40.0067606 46.90472698 C35.59813349 46.86012868 31.18959655 46.82084976 26.78082275 46.79400635 C22.52069991 46.76786765 18.26092604 46.72739175 14.00102043 46.67725563 C12.38129985 46.66065801 10.76151901 46.64909971 9.14172554 46.64282799 C-8.93226237 46.56580971 -8.93226237 46.56580971 -17.26434326 41.45294189 C-23.1570343 35.396565 -25.85224162 29.27240409 -25.81512451 20.85919189 C-25.33546775 16.52359311 -23.57170899 12.94289463 -21.51434326 9.14044189 C-20.85434326 9.14044189 -20.19434326 9.14044189 -19.51434326 9.14044189 C-19.18434326 8.15044189 -18.85434326 7.16044189 -18.51434326 6.14044189 C-17.85434326 6.14044189 -17.19434326 6.14044189 -16.51434326 6.14044189 C-16.51434326 5.48044189 -16.51434326 4.82044189 -16.51434326 4.14044189 C-10.78656037 1.60699946 -6.3371701 0.01935248 0 0 Z " fill="#21C15C" transform="translate(365.51434326171875,104.85955810546875)"/>
<path d="M0 0 C0.99 0.33 1.98 0.66 3 1 C-2.445 5.455 -2.445 5.455 -8 10 C-8 9.01 -8 8.02 -8 7 C-7.34 7 -6.68 7 -6 7 C-5.67 6.01 -5.34 5.02 -5 4 C-4.34 4 -3.68 4 -3 4 C-3 3.34 -3 2.68 -3 2 C-2.01 1.34 -1.02 0.68 0 0 Z " fill="#188C3A" transform="translate(352,107)"/>
</svg>
