<?xml version="1.0" encoding="UTF-8"?>
<svg version="1.1" xmlns="http://www.w3.org/2000/svg" width="512" height="512">
<path d="M0 0 C1.97163692 -0.01253499 1.97163692 -0.01253499 3.98310488 -0.02532321 C7.60264287 -0.04768998 11.22179545 -0.04541661 14.84138072 -0.03875387 C18.75633367 -0.0358653 22.67118198 -0.05596539 26.58609009 -0.07290649 C34.24483248 -0.10218959 41.90344301 -0.10955815 49.56223563 -0.10833099 C55.79089379 -0.10749695 62.01951044 -0.11337753 68.24815941 -0.12395668 C87.85521207 -0.15661033 107.46213682 -0.16562728 127.0692127 -0.15686695 C142.51418592 -0.15088631 157.95884161 -0.18127949 173.40373567 -0.22848966 C189.28537184 -0.27665393 205.16685529 -0.29865858 221.04856604 -0.29317886 C229.95581758 -0.29060748 238.86276493 -0.298496 247.76995277 -0.3342495 C255.35322823 -0.36445054 262.93604114 -0.37005748 270.51934151 -0.34444048 C274.38364957 -0.33206523 278.24708955 -0.33066143 282.11132431 -0.36014938 C300.79619831 -0.49334432 313.93989093 -0.0617566 328.54704285 12.52812195 C338.34884356 23.44079341 341.71888064 35.9717199 341.6756773 50.39748001 C341.67743034 51.15106515 341.67918337 51.90465029 341.68098953 52.68107134 C341.68562721 55.19653348 341.68318981 57.71193725 341.68075562 60.22740173 C341.68262471 62.0530409 341.68492581 63.87867967 341.68762094 65.70431781 C341.69373313 70.71397742 341.69360602 75.72362032 341.69242656 80.7332828 C341.69222241 86.13901447 341.6977427 91.5447408 341.70248413 96.95046997 C341.71078804 107.53865331 341.71353885 118.12683108 341.71409651 128.71501741 C341.71457179 137.3221813 341.71662713 145.92934335 341.71979713 154.53650665 C341.72860297 178.94297952 341.73321662 203.349448 341.73246666 227.75592247 C341.73240673 229.72926717 341.73240673 229.72926717 341.73234558 231.74247742 C341.7323047 233.05964802 341.73226382 234.37681863 341.7322217 235.7339035 C341.73181524 257.081 341.74138496 278.42807642 341.75548395 299.77516821 C341.76984869 321.69772125 341.77675408 343.62026569 341.77589017 365.54282355 C341.77555824 377.84925313 341.77830375 390.15566421 341.78906822 402.46208954 C341.79817449 412.93987741 341.80034741 423.4176384 341.7935588 433.89542851 C341.79029427 439.23964275 341.79023456 444.58380542 341.79891205 449.92801476 C341.8067808 454.82457407 341.80534172 459.72104096 341.79662792 464.61759803 C341.79509377 466.38472129 341.79690587 468.15185145 341.80248799 469.91896656 C341.88573538 498.15238389 341.88573538 498.15238389 332.00798035 509.2585907 C325.88661562 514.24792222 316.99902964 513.43776656 309.54948425 512.79277039 C304.95859285 512.18602492 302.06362598 510.445357 298.54704285 507.52812195 C298.05349304 507.12512878 297.55994324 506.72213562 297.05143738 506.30693054 C293.42634116 503.32928741 289.8945485 500.2543485 286.38200378 497.14530945 C283.44250064 494.55466698 280.46298888 492.01127747 277.48454285 489.46562195 C276.90486755 488.96860779 276.32519226 488.47159363 275.72795105 487.95951843 C271.31571868 484.17734076 266.88171776 480.42145475 262.44132996 476.67240906 C257.86714521 472.8071641 253.32083102 468.91002835 248.7775116 465.0085907 C244.88120754 461.66519897 240.96999068 458.34019713 237.04704285 455.02812195 C231.93589422 450.71286995 226.85235143 446.36645537 221.7775116 442.0085907 C217.88120754 438.66519897 213.96999068 435.34019713 210.04704285 432.02812195 C204.93589422 427.71286995 199.85235143 423.36645537 194.7775116 419.0085907 C190.35311782 415.21204881 185.91668777 411.42999462 181.44596863 407.68803406 C178.58081686 405.28302723 175.77009786 402.83629378 173.00798035 400.3132782 C165.27683827 393.31633166 158.2015129 387.61269731 147.29704285 387.15312195 C143.46988407 387.53583783 140.185392 388.2924562 136.54704285 389.52812195 C135.12391785 389.99218445 135.12391785 389.99218445 133.67204285 390.46562195 C132.97079285 390.81624695 132.26954285 391.16687195 131.54704285 391.52812195 C131.21704285 392.51812195 130.88704285 393.50812195 130.54704285 394.52812195 C128.88037618 395.19478861 127.21370951 395.86145528 125.54704285 396.52812195 C125.21704285 397.51812195 124.88704285 398.50812195 124.54704285 399.52812195 C122.88856107 400.54163859 121.22038324 401.5393299 119.54704285 402.52812195 C118.66016785 403.41499695 117.77329285 404.30187195 116.85954285 405.21562195 C116.09641785 405.97874695 115.33329285 406.74187195 114.54704285 407.52812195 C113.88704285 407.52812195 113.22704285 407.52812195 112.54704285 407.52812195 C112.32016785 408.14687195 112.09329285 408.76562195 111.85954285 409.40312195 C110.16287842 412.15010245 108.49452574 412.39447468 105.54704285 413.52812195 C105.21704285 414.51812195 104.88704285 415.50812195 104.54704285 416.52812195 C102.88856107 417.54163859 101.22038324 418.5393299 99.54704285 419.52812195 C98.66016785 420.41499695 97.77329285 421.30187195 96.85954285 422.21562195 C96.09641785 422.97874695 95.33329285 423.74187195 94.54704285 424.52812195 C93.88704285 424.52812195 93.22704285 424.52812195 92.54704285 424.52812195 C92.32016785 425.14687195 92.09329285 425.76562195 91.85954285 426.40312195 C90.16287842 429.15010245 88.49452574 429.39447468 85.54704285 430.52812195 C85.21704285 431.51812195 84.88704285 432.50812195 84.54704285 433.52812195 C82.88856107 434.54163859 81.22038324 435.5393299 79.54704285 436.52812195 C78.66016785 437.41499695 77.77329285 438.30187195 76.85954285 439.21562195 C76.09641785 439.97874695 75.33329285 440.74187195 74.54704285 441.52812195 C73.88704285 441.52812195 73.22704285 441.52812195 72.54704285 441.52812195 C72.21704285 442.51812195 71.88704285 443.50812195 71.54704285 444.52812195 C69.88856107 445.54163859 68.22038324 446.5393299 66.54704285 447.52812195 C65.66016785 448.41499695 64.77329285 449.30187195 63.85954285 450.21562195 C63.09641785 450.97874695 62.33329285 451.74187195 61.54704285 452.52812195 C60.88704285 452.52812195 60.22704285 452.52812195 59.54704285 452.52812195 C59.32016785 453.14687195 59.09329285 453.76562195 58.85954285 454.40312195 C57.16287842 457.15010245 55.49452574 457.39447468 52.54704285 458.52812195 C52.21704285 459.51812195 51.88704285 460.50812195 51.54704285 461.52812195 C49.88856107 462.54163859 48.22038324 463.5393299 46.54704285 464.52812195 C45.66016785 465.41499695 44.77329285 466.30187195 43.85954285 467.21562195 C43.09641785 467.97874695 42.33329285 468.74187195 41.54704285 469.52812195 C40.88704285 469.52812195 40.22704285 469.52812195 39.54704285 469.52812195 C39.32016785 470.14687195 39.09329285 470.76562195 38.85954285 471.40312195 C37.16287842 474.15010245 35.49452574 474.39447468 32.54704285 475.52812195 C32.21704285 476.51812195 31.88704285 477.50812195 31.54704285 478.52812195 C29.88856107 479.54163859 28.22038324 480.5393299 26.54704285 481.52812195 C25.66016785 482.41499695 24.77329285 483.30187195 23.85954285 484.21562195 C23.09641785 484.97874695 22.33329285 485.74187195 21.54704285 486.52812195 C20.88704285 486.52812195 20.22704285 486.52812195 19.54704285 486.52812195 C19.21704285 487.51812195 18.88704285 488.50812195 18.54704285 489.52812195 C16.88856107 490.54163859 15.22038324 491.5393299 13.54704285 492.52812195 C12.66016785 493.41499695 11.77329285 494.30187195 10.85954285 495.21562195 C9.71485535 496.36030945 9.71485535 496.36030945 8.54704285 497.52812195 C7.88704285 497.52812195 7.22704285 497.52812195 6.54704285 497.52812195 C6.32016785 498.14687195 6.09329285 498.76562195 5.85954285 499.40312195 C4.1677445 502.14222404 2.55460124 502.57836667 -0.45295715 503.52812195 C-0.45295715 504.18812195 -0.45295715 504.84812195 -0.45295715 505.52812195 C-2.5349884 507.0007782 -2.5349884 507.0007782 -5.26545715 508.59062195 C-6.60543762 509.38146179 -6.60543762 509.38146179 -7.9724884 510.1882782 C-12.79330826 512.7922801 -16.92863055 512.77663122 -22.26545715 512.84062195 C-23.06016418 512.86962585 -23.85487122 512.89862976 -24.67366028 512.92851257 C-31.20718757 512.99876555 -34.6272042 511.13988584 -39.4646759 506.66874695 C-47.18960831 497.95343859 -48.61599238 489.31432194 -48.58159161 477.7790184 C-48.58334464 477.02628751 -48.58509768 476.27355662 -48.58690384 475.4980157 C-48.59155028 472.97944775 -48.58910184 470.46093788 -48.58666992 467.94236755 C-48.58853858 466.11687875 -48.5908395 464.29139034 -48.59353524 462.46590257 C-48.59965291 457.452053 -48.59951969 452.43822011 -48.59834087 447.42436767 C-48.59813685 442.01591087 -48.6036557 436.60745943 -48.60839844 431.19900513 C-48.6167054 420.60366756 -48.6194533 410.00833556 -48.62001082 399.41299501 C-48.62048596 390.80055452 -48.62254063 382.18811587 -48.62571144 373.57567596 C-48.63451818 349.15822928 -48.63913079 324.740787 -48.63838097 300.32333872 C-48.63834101 299.00694746 -48.63830105 297.6905562 -48.63825989 296.33427429 C-48.63821901 295.01627587 -48.63817813 293.69827745 -48.63813601 292.34033969 C-48.63772954 270.97957126 -48.64729912 249.61882191 -48.66139825 228.2580584 C-48.67576067 206.32537174 -48.68266851 184.39269367 -48.68180448 162.46000218 C-48.68147246 150.14632374 -48.6842217 137.83266377 -48.69498253 125.51898956 C-48.70408575 115.03492724 -48.70626424 104.55089177 -48.69947311 94.06682721 C-48.696207 88.7186933 -48.69615454 83.37061093 -48.70482635 78.02248192 C-48.71268819 73.1234678 -48.7112631 68.22454611 -48.70254222 63.32553425 C-48.70100655 61.55638007 -48.70282595 59.787219 -48.7084023 58.01807293 C-48.75109702 43.50795423 -48.15764666 29.7938208 -39.45295715 17.52812195 C-38.79295715 17.52812195 -38.13295715 17.52812195 -37.45295715 17.52812195 C-37.22479309 16.96093445 -36.99662903 16.39374695 -36.7615509 15.80937195 C-35.08978751 12.89501428 -33.08974803 11.18506007 -30.51545715 9.02812195 C-29.64018372 8.27530945 -28.76491028 7.52249695 -27.8631134 6.74687195 C-19.42108791 0.70854033 -10.06362685 -0.05713129 0 0 Z " fill="#FDFDFD" transform="translate(109.45295715332031,-0.5281219482421875)"/>
</svg>
