<?xml version="1.0" encoding="UTF-8"?>
<svg version="1.1" xmlns="http://www.w3.org/2000/svg" width="512" height="512">
<path d="M0 0 C2.50932361 2.21708872 4.95709317 4.48529176 7.390625 6.78515625 C8.17824219 7.50832031 8.96585938 8.23148438 9.77734375 8.9765625 C20.15533914 18.85320545 28.8794277 30.63823022 36.12109375 42.9765625 C36.74951172 43.87181641 36.74951172 43.87181641 37.390625 44.78515625 C38.050625 44.78515625 38.710625 44.78515625 39.390625 44.78515625 C40.58522533 43.26760651 40.58522533 43.26760651 41.703125 41.28515625 C42.13882812 40.56328125 42.57453125 39.84140625 43.0234375 39.09765625 C43.47460938 38.33453125 43.92578125 37.57140625 44.390625 36.78515625 C45.27979146 35.28119469 46.1753011 33.78095917 47.078125 32.28515625 C47.47386719 31.61484375 47.86960937 30.94453125 48.27734375 30.25390625 C48.82841797 29.526875 48.82841797 29.526875 49.390625 28.78515625 C50.050625 28.78515625 50.710625 28.78515625 51.390625 28.78515625 C51.720625 27.46515625 52.050625 26.14515625 52.390625 24.78515625 C53.050625 24.78515625 53.710625 24.78515625 54.390625 24.78515625 C54.65875 23.98078125 54.926875 23.17640625 55.203125 22.34765625 C55.595 21.50203125 55.986875 20.65640625 56.390625 19.78515625 C57.875625 19.29015625 57.875625 19.29015625 59.390625 18.78515625 C59.66261719 18.06585938 59.93460937 17.3465625 60.21484375 16.60546875 C61.80483497 12.79160278 64.26883603 10.5057424 67.203125 7.66015625 C67.72455078 7.13550781 68.24597656 6.61085937 68.78320312 6.0703125 C71.78289258 3.11181728 74.68741311 0.85191359 78.390625 -1.21484375 C78.9475 -1.77171875 79.504375 -2.32859375 80.078125 -2.90234375 C80.51125 -3.33546875 80.944375 -3.76859375 81.390625 -4.21484375 C82.050625 -4.21484375 82.710625 -4.21484375 83.390625 -4.21484375 C83.390625 -4.87484375 83.390625 -5.53484375 83.390625 -6.21484375 C85.370625 -6.70984375 85.370625 -6.70984375 87.390625 -7.21484375 C87.390625 -7.87484375 87.390625 -8.53484375 87.390625 -9.21484375 C88.380625 -9.21484375 89.370625 -9.21484375 90.390625 -9.21484375 C90.390625 -9.87484375 90.390625 -10.53484375 90.390625 -11.21484375 C120.30222322 -28.96015146 155.98824007 -35.90643694 190.09375 -27.40625 C191.52787643 -27.01579216 192.96027441 -26.61891447 194.390625 -26.21484375 C195.05900391 -26.0329248 195.72738281 -25.85100586 196.41601562 -25.66357422 C230.30836991 -16.21054719 258.97167315 8.5220289 276.23046875 38.7890625 C287.20314627 58.73534674 294.59199271 81.25741205 294.796875 104.13671875 C294.81072235 105.18642853 294.8245697 106.23613831 294.83883667 107.31765747 C294.87319026 110.68197757 294.88600691 114.0456691 294.890625 117.41015625 C294.89330383 118.55488403 294.89598267 119.69961182 294.89874268 120.87902832 C294.89023741 137.58864686 294.23953454 152.95628918 288.390625 168.78515625 C288.14505859 169.49736328 287.89949219 170.20957031 287.64648438 170.94335938 C286.12254725 175.33884743 284.33353464 179.55455205 282.390625 183.78515625 C281.7537479 185.21737751 281.11703726 186.64967281 280.48046875 188.08203125 C277.08423721 195.60402465 273.4660784 202.72686831 268.8359375 209.5859375 C267.51215001 211.60024117 266.41719584 213.60743073 265.390625 215.78515625 C264.730625 215.78515625 264.070625 215.78515625 263.390625 215.78515625 C263.390625 216.77515625 263.390625 217.76515625 263.390625 218.78515625 C262.730625 218.78515625 262.070625 218.78515625 261.390625 218.78515625 C261.08125 219.56890625 260.771875 220.35265625 260.453125 221.16015625 C259.390625 223.78515625 259.390625 223.78515625 258.390625 225.78515625 C257.730625 225.78515625 257.070625 225.78515625 256.390625 225.78515625 C256.060625 227.10515625 255.730625 228.42515625 255.390625 229.78515625 C254.730625 229.78515625 254.070625 229.78515625 253.390625 229.78515625 C253.143125 230.50703125 252.895625 231.22890625 252.640625 231.97265625 C251.26792908 235.06122207 249.66709204 237.29527043 247.390625 239.78515625 C246.730625 239.78515625 246.070625 239.78515625 245.390625 239.78515625 C245.1225 240.58953125 244.854375 241.39390625 244.578125 242.22265625 C244.18625 243.06828125 243.794375 243.91390625 243.390625 244.78515625 C242.400625 245.11515625 241.410625 245.44515625 240.390625 245.78515625 C240.101875 246.54828125 239.813125 247.31140625 239.515625 248.09765625 C238.10886744 251.45824376 236.21891618 252.53005426 233.390625 254.78515625 C232.22256283 256.20923205 231.09863866 257.6703769 230.015625 259.16015625 C225.78259373 264.61068794 220.90004606 269.11017574 215.81762695 273.74267578 C212.57744393 276.70746961 209.49789629 279.63462172 206.703125 283.03515625 C203.09051438 287.40782261 198.68290453 290.78737636 194.2578125 294.29296875 C192.11823629 296.15270938 190.49597164 297.76463236 188.7421875 299.9296875 C186.81776052 302.2664917 185.38913708 303.7507299 182.890625 305.34765625 C179.67685624 307.52494981 177.07221413 309.96243085 174.390625 312.78515625 C170.8853642 316.38029553 167.35148834 319.70448476 163.390625 322.78515625 C162.730625 322.78515625 162.070625 322.78515625 161.390625 322.78515625 C161.143125 323.38328125 160.895625 323.98140625 160.640625 324.59765625 C159.20989975 327.10142544 157.8214668 328.26588013 155.390625 329.78515625 C154.730625 329.78515625 154.070625 329.78515625 153.390625 329.78515625 C153.16375 330.38328125 152.936875 330.98140625 152.703125 331.59765625 C151.03162863 334.38348353 149.1849846 335.16052857 146.390625 336.78515625 C144.70188621 338.42945454 143.03756985 340.09899843 141.390625 341.78515625 C139.09360301 343.82818062 136.74051827 345.80337931 134.390625 347.78515625 C133.22304307 348.78408746 132.05636866 349.78408042 130.890625 350.78515625 C116.890625 362.78515625 116.890625 362.78515625 115.16015625 364.26171875 C113.91961202 365.32973696 112.68859103 366.40887 111.46484375 367.49609375 C110.84222656 368.04523438 110.21960938 368.594375 109.578125 369.16015625 C109.01480469 369.66289062 108.45148438 370.165625 107.87109375 370.68359375 C106.390625 371.78515625 106.390625 371.78515625 104.390625 371.78515625 C104.16375 372.40390625 103.936875 373.02265625 103.703125 373.66015625 C102.00199542 376.41436605 100.33686346 376.60666086 97.390625 377.78515625 C97.060625 378.44515625 96.730625 379.10515625 96.390625 379.78515625 C95.00133423 382.56373779 93.20748067 382.70175022 90.390625 383.78515625 C90.060625 384.77515625 89.730625 385.76515625 89.390625 386.78515625 C85.94618056 389.78515625 85.94618056 389.78515625 83.390625 389.78515625 C83.060625 390.77515625 82.730625 391.76515625 82.390625 392.78515625 C78.94618056 395.78515625 78.94618056 395.78515625 76.390625 395.78515625 C76.16375 396.38328125 75.936875 396.98140625 75.703125 397.59765625 C74.03162863 400.38348353 72.1849846 401.16052857 69.390625 402.78515625 C68.524375 403.65140625 67.658125 404.51765625 66.765625 405.41015625 C64.390625 407.78515625 64.390625 407.78515625 61.390625 408.78515625 C61.101875 409.40390625 60.813125 410.02265625 60.515625 410.66015625 C59.0168874 413.49110505 57.14078844 414.18622402 54.390625 415.78515625 C53.1840625 417.02265625 53.1840625 417.02265625 51.953125 418.28515625 C47.86013443 422.27831778 44.25604423 423.96092491 38.578125 424.34765625 C29.4524145 424.0202765 23.33990165 417.00730453 16.98828125 411.13671875 C14.37893673 408.77457529 11.69439369 406.55470899 8.953125 404.34765625 C4.18066297 400.48807022 -0.34046609 396.41315634 -4.85546875 392.2578125 C-8.44144784 389.03806106 -12.17638992 386.02610449 -15.92578125 383 C-18.55646057 380.82882798 -21.08879924 378.58274268 -23.609375 376.28515625 C-27.02676872 373.17056957 -30.5145985 370.19329005 -34.109375 367.28515625 C-37.7041515 364.37702245 -41.19198128 361.39974293 -44.609375 358.28515625 C-47.92926986 355.26233204 -51.30701612 352.36003464 -54.796875 349.53515625 C-63.71480762 342.3098624 -72.3684145 334.75666564 -80.859375 327.03515625 C-84.24972286 323.95507317 -87.7304868 321.03455868 -91.296875 318.16015625 C-95.03239745 315.13816056 -98.49675411 312.03338727 -101.82373047 308.57128906 C-103.61796291 306.77656599 -105.47706301 305.11436704 -107.3984375 303.45703125 C-118.91735181 293.43863997 -129.78450469 282.72832568 -140.60440063 271.96636963 C-141.88416782 270.69402156 -143.16552329 269.42326876 -144.44857788 268.15423584 C-151.99487821 260.68274654 -159.0193874 253.12297259 -165.609375 244.78515625 C-166.55527362 243.67108779 -167.50838398 242.56304761 -168.47265625 241.46484375 C-194.52125914 211.63566213 -217.85261229 172.05177932 -217.9453125 131.4765625 C-217.9519693 130.42975815 -217.9586261 129.3829538 -217.96548462 128.3044281 C-217.9755453 126.10018653 -217.9803037 123.8959149 -217.97998047 121.69165039 C-217.9843233 118.38699605 -218.02063179 115.08371321 -218.05859375 111.77929688 C-218.15010723 94.72118458 -216.30296204 78.48064069 -210.296875 62.41015625 C-209.99692627 61.58547852 -209.69697754 60.76080078 -209.38793945 59.91113281 C-203.71581927 44.68869694 -195.67364696 28.85527112 -184.609375 16.78515625 C-183.949375 16.78515625 -183.289375 16.78515625 -182.609375 16.78515625 C-182.23425781 15.67527344 -182.23425781 15.67527344 -181.8515625 14.54296875 C-180.50817652 11.56048289 -179.07952347 9.91680855 -176.734375 7.66015625 C-176.05632812 6.99757812 -175.37828125 6.335 -174.6796875 5.65234375 C-169.28301517 0.78515625 -169.28301517 0.78515625 -166.609375 0.78515625 C-166.114375 -0.69984375 -166.114375 -0.69984375 -165.609375 -2.21484375 C-163.546875 -2.90234375 -163.546875 -2.90234375 -161.609375 -3.21484375 C-161.609375 -3.87484375 -161.609375 -4.53484375 -161.609375 -5.21484375 C-157.22475962 -8.21484375 -157.22475962 -8.21484375 -154.609375 -8.21484375 C-154.609375 -8.87484375 -154.609375 -9.53484375 -154.609375 -10.21484375 C-105.01016637 -39.63999224 -44.36617126 -37.65811243 0 0 Z " fill="#FDFDFD" transform="translate(217.609375,59.21484375)"/>
</svg>
