<?xml version="1.0" encoding="UTF-8"?>
<svg version="1.1" xmlns="http://www.w3.org/2000/svg" width="512" height="512">
<path d="M0 0 C9.93219376 6.96764185 18.39465186 16.50566408 26.93212891 25.06860352 C28.27327329 26.41003054 29.61463903 27.75123627 30.95620728 29.09223938 C34.56931177 32.7050589 38.17934139 36.32093644 41.78879595 39.93740201 C45.57194127 43.72683113 49.35794997 47.51339733 53.14364624 51.30027771 C60.29934942 58.45907945 67.45250133 65.62042476 74.60472333 72.78270429 C82.75275158 80.94193963 90.90364553 89.09830963 99.05477262 97.25444901 C115.81052232 114.02062969 132.56269875 130.79037682 149.3125 147.5625 C149.77227171 147.09811933 150.23204342 146.63373865 150.7057476 146.15528584 C161.91905389 134.83132344 173.14633081 123.52142683 184.38915825 112.22678089 C189.8258842 106.7643267 195.25785972 101.29730395 200.67871094 95.8190918 C205.40622079 91.04158181 210.14259848 86.27307145 214.88961613 81.51494139 C217.40040656 78.99766025 219.90668302 76.47624203 222.40237045 73.94397926 C225.19572156 71.11002892 228.00884713 68.29621415 230.82373047 65.48364258 C231.63869492 64.65070175 232.45365936 63.81776093 233.2933197 62.95957947 C239.18059653 57.12421866 245.33960025 52.50442572 253.6328125 50.93359375 C254.55835938 50.95550781 255.48390625 50.97742188 256.4375 51 C257.36820312 50.99871094 258.29890625 50.99742187 259.2578125 50.99609375 C266.94822955 52.42206622 272.19475992 56.86310769 277.53857422 62.30755615 C278.21919576 62.98475999 278.8998173 63.66196383 279.60106373 64.359689 C281.8660389 66.61810615 284.11647326 68.89046305 286.3671875 71.16308594 C287.99310307 72.79013043 289.6199012 74.41629339 291.24751282 76.04164124 C295.65465976 80.44764186 300.04937597 84.86585489 304.44195175 89.286376 C309.03787259 93.90732371 313.64514453 98.51692547 318.2512207 103.12774658 C325.97781931 110.86535986 333.69739767 118.6099129 341.41162109 126.35986328 C349.35515788 134.34015057 357.30291061 142.31620018 365.25634766 150.28662109 C365.74710014 150.77842447 366.23785262 151.27022785 366.74347639 151.77693436 C369.20561408 154.24429243 371.66783465 156.71156778 374.13009644 159.17880201 C394.5370937 179.62722477 414.92940561 200.09025171 435.3125 220.5625 C435.31614563 219.61782364 435.31979126 218.67314728 435.32354736 217.69984436 C435.36058967 208.76974525 435.41846267 199.83998804 435.49640274 190.91014957 C435.53580617 186.31988722 435.56802948 181.72981466 435.58349609 177.1394043 C435.5987099 172.70415436 435.63323851 168.26942644 435.68080902 163.83440971 C435.69557431 162.14770499 435.70353821 160.46092571 435.70438385 158.77415657 C435.71327464 149.92729022 435.75559347 142.44182009 440.3125 134.5625 C440.9725 134.5625 441.6325 134.5625 442.3125 134.5625 C442.6425 133.5725 442.9725 132.5825 443.3125 131.5625 C443.9725 131.5625 444.6325 131.5625 445.3125 131.5625 C445.3125 130.9025 445.3125 130.2425 445.3125 129.5625 C452.00904676 126.21422662 459.14145421 124.21493365 466.5 126.625 C472.65669313 129.3543842 477.23793731 133.58601634 480.3125 139.5625 C480.69840336 142.45114613 480.69840336 142.45114613 480.71363831 145.69062805 C480.72643326 146.92282074 480.73922821 148.15501343 480.75241089 149.42454529 C480.75136245 150.7821353 480.7499779 152.13972508 480.74829102 153.49731445 C480.75727199 154.93333725 480.76748102 156.36935281 480.77882385 157.80535889 C480.80529578 161.70014269 480.81235616 165.59472868 480.81427121 169.48959374 C480.81640568 171.92512768 480.82281423 174.36061155 480.83076286 176.79613304 C480.85850845 185.29926107 480.87076955 193.80224813 480.8684082 202.30541992 C480.86660672 210.2212203 480.89824778 218.13640677 480.94563919 226.05205184 C480.98492033 232.85649691 481.0009576 239.66074178 480.99904197 246.46529931 C480.99827851 250.52564758 481.00674746 254.58545026 481.03857613 258.6456852 C481.06771326 262.46682958 481.06779582 266.28691044 481.04602623 270.10809326 C481.04289995 271.50606536 481.04991116 272.90410474 481.0681076 274.3019619 C481.1591526 281.78396519 481.00655194 287.25160616 476.00221157 293.07800579 C470.44101486 297.96378894 464.06344681 299.68074608 456.80488586 299.70294189 C455.12490257 299.71150711 455.12490257 299.71150711 453.41098022 299.72024536 C451.57426254 299.72192215 451.57426254 299.72192215 449.70043945 299.72363281 C448.40733353 299.72859772 447.1142276 299.73356262 445.78193665 299.73867798 C442.23622825 299.75178092 438.69053878 299.75824314 435.14480996 299.76268864 C432.92688701 299.76562354 430.70896918 299.76972919 428.49104881 299.77419281 C421.5440032 299.7878639 414.59696935 299.79753173 407.64991122 299.8013947 C399.64522518 299.8058708 391.64071029 299.8233994 383.63607627 299.8523953 C377.43972437 299.87405726 371.24342045 299.88410143 365.0470311 299.88543582 C361.35064144 299.88648088 357.65441274 299.89232419 353.95806313 299.91025543 C349.82911535 299.92989559 345.70052265 299.92542922 341.5715332 299.91894531 C340.3571759 299.9281601 339.1428186 299.93737488 337.8916626 299.9468689 C329.98298251 299.90803183 323.37819205 299.05735649 316.5625 294.875 C310.66980896 288.8186231 307.97460164 282.6944622 308.01171875 274.28125 C308.49137551 269.94565121 310.25513427 266.36495273 312.3125 262.5625 C312.9725 262.5625 313.6325 262.5625 314.3125 262.5625 C314.6425 261.5725 314.9725 260.5825 315.3125 259.5625 C315.9725 259.5625 316.6325 259.5625 317.3125 259.5625 C317.3125 258.9025 317.3125 258.2425 317.3125 257.5625 C344.78050746 245.41318901 363.96263753 253.08074138 402.3125 252.5625 C354.4625 204.7125 306.6125 156.8625 257.3125 107.5625 C253.82546487 109.30601756 252.17788566 110.45162286 249.53103638 113.11691284 C248.79376312 113.85432709 248.05648987 114.59174133 247.296875 115.35150146 C246.49781738 116.16089172 245.69875977 116.97028198 244.87548828 117.80419922 C243.60159744 119.08247086 243.60159744 119.08247086 242.30197144 120.38656616 C240.45763075 122.23852035 238.61520553 124.09217326 236.77573013 125.94894028 C233.86403347 128.88772333 230.94468682 131.81882609 228.0241394 134.74880981 C221.29610374 141.50092109 214.5780993 148.26298445 207.86021423 155.02519226 C201.70736083 161.21845008 195.55238768 167.40956108 189.38924968 173.59258664 C186.96367121 176.02647631 184.54029305 178.46247713 182.1218605 180.90346909 C179.42180583 183.62746619 176.71571154 186.34532868 174.00830078 189.06201172 C173.21329163 189.86735352 172.41828247 190.67269531 171.59918213 191.50244141 C165.24720384 197.85562518 159.4344221 203.24307824 149.9609375 203.66796875 C139.79577082 203.24310884 132.94978106 196.65686609 126.10025024 189.73120117 C125.43314164 189.06877254 124.76603303 188.4063439 124.07870901 187.72384167 C121.86775591 185.52475796 119.66756778 183.31522468 117.46728516 181.10546875 C115.87540592 179.51765866 114.28289006 177.9304866 112.68978882 176.34390259 C108.38157981 172.04932864 104.08286431 167.74536954 99.78623629 163.4392128 C95.28381278 158.92917699 90.774055 154.42648453 86.26547241 149.92260742 C78.21566096 141.87859603 70.17342681 133.82706223 62.13416009 125.77251709 C54.84936193 118.4743035 47.55671498 111.18401033 40.25830078 103.89941406 C31.77038128 95.42755717 23.28753246 86.95067307 14.8120712 78.46634769 C10.32992574 73.97952623 5.84578037 69.49475398 1.35634232 65.01522827 C-2.86117 60.80637909 -7.07128116 56.59026414 -11.27578354 52.36841965 C-12.81996982 50.82026584 -14.36671617 49.27466071 -15.9161911 47.73180008 C-18.03019221 45.62599311 -20.13474137 43.5111685 -22.2371521 41.39379883 C-23.16033613 40.48065304 -23.16033613 40.48065304 -24.10217035 39.54905987 C-29.22037361 34.35995417 -32.06065134 29.66679723 -32.14648438 22.28515625 C-32.13939453 21.55167969 -32.13230469 20.81820312 -32.125 20.0625 C-32.14498047 19.32902344 -32.16496094 18.59554687 -32.18554688 17.83984375 C-32.17991678 11.54540229 -29.86547963 8.1910961 -25.875 3.375 C-18.57592886 -2.6728018 -8.73380595 -3.40470401 0 0 Z " fill="#E94242" transform="translate(31.6875,107.4375)"/>
<path d="M0 0 C3.5747899 1.5180728 5.85811724 3.61574711 8.58496094 6.35791016 C9.48559265 7.25869293 10.38622437 8.15947571 11.31414795 9.08755493 C12.28766481 10.07128408 13.26107125 11.0551225 14.234375 12.0390625 C15.23713161 13.04555128 16.24033222 14.05159789 17.24395752 15.05722046 C19.87873813 17.69962147 22.50745611 20.34797428 25.13494873 22.99761963 C27.81939688 25.70256052 30.50954622 28.40181821 33.19921875 31.1015625 C38.47173618 36.39550174 43.73786057 41.69574283 49 47 C48.34 47.66 47.68 48.32 47 49 C40.86610536 42.9123708 34.73757132 36.81941096 28.61588287 30.71950722 C25.77341065 27.8874886 22.92910117 25.057367 20.08056641 22.23144531 C17.33353584 19.50608701 14.59136742 16.77592416 11.85255432 14.04230881 C10.80486572 12.99832609 9.75541357 11.9561102 8.70420837 10.91566849 C7.2362998 9.46220021 5.77469126 8.00267235 4.31445312 6.54150391 C3.47950317 5.71099518 2.64455322 4.88048645 1.78430176 4.02481079 C0 2 0 2 0 0 Z " fill="#A63131" transform="translate(387,311)"/>
<path d="M0 0 C4.3487151 0.50265061 6.27957307 1.78767924 9.33129883 4.87719727 C10.151772 5.69797256 10.97224518 6.51874786 11.81758118 7.36439514 C12.6885997 8.25605881 13.55961823 9.14772247 14.45703125 10.06640625 C15.81147591 11.42934059 15.81147591 11.42934059 17.19328308 12.81980896 C19.58760948 15.22936925 21.96967775 17.65069986 24.34936523 20.07470703 C26.78224089 22.54858392 29.22655467 25.01110191 31.66992188 27.47460938 C36.45721775 32.30601417 41.23291458 37.1486572 46 42 C45.34 42.66 44.68 43.32 44 44 C29.33333333 29.33333333 14.66666667 14.66666667 0 0 Z " fill="#A43030" transform="translate(287,213)"/>
<path d="M0 0 C3.35999018 1.45868754 5.55203106 3.30868948 8.12597656 5.89892578 C8.92650452 6.6996048 9.72703247 7.50028381 10.55181885 8.32522583 C11.40612488 9.18985443 12.26043091 10.05448303 13.140625 10.9453125 C14.02280701 11.8303244 14.90498901 12.7153363 15.81390381 13.62716675 C18.15194543 15.97450131 20.48555874 18.32606785 22.81713867 20.67980957 C25.19996526 23.08313927 27.58850348 25.48077767 29.9765625 27.87890625 C34.65631862 32.58071467 39.33031867 37.28818664 44 42 C43.34 42.66 42.68 43.32 42 44 C36.5180263 38.56429698 31.04140718 33.12324952 25.57164001 27.67526436 C23.03183728 25.14591408 20.49020135 22.61846392 17.94433594 20.09521484 C15.01988356 17.19658113 12.10349429 14.28995498 9.1875 11.3828125 C8.26880127 10.47443634 7.35010254 9.56606018 6.40356445 8.63015747 C5.56269287 7.78943695 4.72182129 6.94871643 3.85546875 6.08251953 C3.10934326 5.34083527 2.36321777 4.599151 1.59448242 3.83499146 C0 2 0 2 0 0 Z " fill="#A63131" transform="translate(335,259)"/>
<path d="M0 0 C0.99 0.33 1.98 0.66 3 1 C-2.445 5.455 -2.445 5.455 -8 10 C-8 9.01 -8 8.02 -8 7 C-7.34 7 -6.68 7 -6 7 C-5.67 6.01 -5.34 5.02 -5 4 C-4.34 4 -3.68 4 -3 4 C-3 3.34 -3 2.68 -3 2 C-2.01 1.34 -1.02 0.68 0 0 Z " fill="#9E2929" transform="translate(352,363)"/>
<path d="M0 0 C0.99 0.33 1.98 0.66 3 1 C-2.445 5.455 -2.445 5.455 -8 10 C-8 9.01 -8 8.02 -8 7 C-7.34 7 -6.68 7 -6 7 C-5.67 6.01 -5.34 5.02 -5 4 C-4.34 4 -3.68 4 -3 4 C-3 3.34 -3 2.68 -3 2 C-2.01 1.34 -1.02 0.68 0 0 Z " fill="#9E2929" transform="translate(480,235)"/>
<path d="M0 0 C0.99 0.33 1.98 0.66 3 1 C1.37660195 2.70884005 -0.29319053 4.37446717 -2 6 C-2.66 6 -3.32 6 -4 6 C-4 6.66 -4 7.32 -4 8 C-4.66 7.67 -5.32 7.34 -6 7 C-4.02 4.69 -2.04 2.38 0 0 Z " fill="#9C3636" transform="translate(8,109)"/>
</svg>
