<?xml version="1.0" encoding="UTF-8"?>
<svg version="1.1" xmlns="http://www.w3.org/2000/svg" width="512" height="512">
<path d="M0 0 C3.3866134 1.15612751 6.77452503 2.30843754 10.16235352 3.46099854 C16.10440476 5.48280405 22.04530026 7.50797422 27.98527527 9.53587341 C29.39454033 10.01411308 29.39454033 10.01411308 30.83227539 10.50201416 C32.38176376 11.06364006 32.38176376 11.06364006 33.96255493 11.63661194 C41.04076592 13.77114023 48.26185738 10.56657369 54.94555664 8.22076416 C55.90553055 7.89097061 56.86550446 7.56117706 57.85456848 7.22138977 C60.95373545 6.15517285 64.04916495 5.07850771 67.14477539 4.00201416 C69.27125051 3.26924646 71.39804224 2.53739695 73.52514648 1.80645752 C77.71489083 0.36638343 81.90362727 -1.07655697 86.09155273 -2.52191162 C93.36786661 -5.0301321 100.65757179 -7.4961808 107.95727539 -9.93548584 C109.01986572 -10.29384521 110.08245605 -10.65220459 111.17724609 -11.02142334 C112.61910278 -11.50288818 112.61910278 -11.50288818 114.09008789 -11.99407959 C114.89591309 -12.26405762 115.70173828 -12.53403564 116.53198242 -12.81219482 C127.99878145 -16.23081491 140.60955596 -15.32136656 151.45336914 -10.27923584 C169.30747288 -0.25197009 176.16251411 13.88727073 181.48335648 32.81852341 C183.10619028 38.69931234 184.65999967 44.59809922 186.21118164 50.49810791 C186.70987012 52.38514157 187.20881244 54.27210817 187.70799255 56.15901184 C188.74639358 60.08728735 189.78235555 64.01619483 190.81640625 67.94561768 C192.12898849 72.93302352 193.4467878 77.91903217 194.76632786 82.9046011 C195.79510982 86.79335398 196.8215474 90.6827227 197.84727287 94.57228279 C198.33180137 96.40888244 198.81691502 98.24532784 199.30267525 100.0816021 C202.32543635 111.51627086 205.18834447 122.97362944 207.83227539 134.50201416 C209.00254272 134.48545776 210.17281006 134.46890137 211.37854004 134.45184326 C215.23180585 134.39908594 219.08495369 134.3648523 222.93847656 134.33721924 C224.65044723 134.32216076 226.3623795 134.30170961 228.07421875 134.2756958 C230.53924044 134.23918226 233.00375074 134.22225854 235.46899414 134.20904541 C236.61146858 134.18581963 236.61146858 134.18581963 237.77702332 134.16212463 C243.6439776 134.16027918 246.53628342 135.78002018 251.08227539 139.18951416 C253.52403449 142.4161244 254.02266608 145.54950343 253.83227539 149.50201416 C252.62908531 153.04474051 251.64227972 154.88994576 248.65659231 157.14603853 C245.15512727 158.82711802 242.64924989 158.88025555 238.76820469 158.88512421 C238.06524634 158.89008372 237.36228799 158.89504324 236.63802788 158.90015304 C234.27661438 158.91313226 231.91576418 158.90471737 229.55433655 158.89642334 C227.84662599 158.90131115 226.13891874 158.90750044 224.43121713 158.91488123 C219.73379647 158.93131778 215.03654322 158.92895528 210.33910382 158.92350626 C205.27493221 158.92084066 200.2108057 158.93535897 195.14665222 158.94760132 C185.22380973 158.96867693 175.30102563 158.97319497 165.3781634 158.97141343 C157.31482487 158.97010695 149.25150458 158.97390411 141.18816948 158.9813385 C138.86751682 158.98343764 136.54686415 158.98553524 134.22621149 158.98763132 C133.07124308 158.98867485 131.91627466 158.98971838 130.72630721 158.99079353 C108.87294871 159.00970427 87.01962376 159.00864305 65.16626047 159.0018242 C45.16314624 158.99624729 25.16016002 159.01707901 5.15707571 159.05018467 C-15.37092787 159.08389603 -35.89887008 159.09909324 -56.42690188 159.09446764 C-67.95633474 159.09222047 -79.48564926 159.09750234 -91.01505852 159.12236023 C-100.82962291 159.14334029 -110.64400406 159.14699805 -120.4585759 159.12806064 C-125.46796086 159.11888272 -130.47700384 159.11782261 -135.48636246 159.13841629 C-140.07019048 159.15705255 -144.65339469 159.15270582 -149.23719842 159.12987047 C-150.89730711 159.12566608 -152.55746294 159.12994618 -154.2175219 159.14346641 C-156.47171 159.16057829 -158.72370803 159.14697075 -160.97781277 159.12563324 C-162.85678034 159.12604182 -162.85678034 159.12604182 -164.77370685 159.12645864 C-169.29556778 158.29450922 -170.91935429 156.71223165 -174.16772461 153.50201416 C-176.68451761 149.34383443 -176.13569654 146.1658789 -175.16772461 141.50201416 C-174.67272461 140.51201416 -174.67272461 140.51201416 -174.16772461 139.50201416 C-173.50772461 139.50201416 -172.84772461 139.50201416 -172.16772461 139.50201416 C-172.16772461 138.84201416 -172.16772461 138.18201416 -172.16772461 137.50201416 C-167.12708984 134.47972485 -163.39477766 134.09262322 -157.70678711 134.20904541 C-156.91621918 134.21329025 -156.12565125 134.2175351 -155.31112671 134.22190857 C-152.80463521 134.23860115 -150.29897 134.27623433 -147.79272461 134.31451416 C-146.08570503 134.32957324 -144.37867276 134.3432595 -142.67163086 134.35552979 C-138.50334736 134.3884736 -134.33567572 134.44018923 -130.16772461 134.50201416 C-130.05381787 133.89972929 -129.93991114 133.29744442 -129.82255268 132.67690849 C-128.61505923 126.44948791 -127.16098942 120.32584119 -125.54150391 114.19390869 C-125.28589691 113.21685974 -125.03028992 112.23981079 -124.76693726 111.2331543 C-123.92857279 108.03283484 -123.08565135 104.83374126 -122.24194336 101.63482666 C-121.65141924 99.39100509 -121.06090943 97.14717975 -120.47041321 94.90335083 C-119.23452825 90.21085663 -117.9959173 85.51909078 -116.75585938 80.82769775 C-115.17452725 74.84285135 -113.60391031 68.85524882 -112.03584576 62.86691475 C-110.82078085 58.23430313 -109.59799807 53.60375358 -108.37314796 48.97372055 C-107.79108269 46.76826884 -107.21182351 44.5620744 -106.63553429 42.35510635 C-99.42734115 14.7783421 -99.42734115 14.7783421 -93.16772461 5.50201416 C-92.50772461 5.50201416 -91.84772461 5.50201416 -91.16772461 5.50201416 C-90.79260742 4.37086182 -90.79260742 4.37086182 -90.40991211 3.21685791 C-86.71757467 -4.8528733 -75.91466997 -9.23006953 -68.16772461 -12.49798584 C-46.03898314 -20.44456138 -20.88140983 -7.13338116 0 0 Z " fill="#FAFAFA" transform="translate(217.167724609375,98.49798583984375)"/>
<path d="M0 0 C2.41772582 1.91492444 4.7567389 3.88929521 7.0859375 5.91015625 C7.92125 6.55339844 8.7565625 7.19664062 9.6171875 7.859375 C21.69949582 17.89610264 28.3773431 32.97839326 32.0859375 47.91015625 C32.0859375 48.90015625 32.0859375 49.89015625 32.0859375 50.91015625 C45.9459375 50.91015625 59.8059375 50.91015625 74.0859375 50.91015625 C74.7459375 47.28015625 75.4059375 43.65015625 76.0859375 39.91015625 C78.5619648 32.22191206 82.20426991 24.38087106 87.0859375 17.91015625 C87.7459375 17.91015625 88.4059375 17.91015625 89.0859375 17.91015625 C89.20001953 17.04390625 89.20001953 17.04390625 89.31640625 16.16015625 C90.34774246 13.14467575 91.96939753 11.94562019 94.3984375 9.91015625 C96.69707255 7.9648651 98.93341822 6.06789249 101.02734375 3.90234375 C113.86388856 -8.52011897 133.45303387 -13.38853383 150.77636719 -13.40454102 C168.67296055 -13.10172521 184.50621373 -6.72960698 198.0859375 4.91015625 C198.67503906 5.35617187 199.26414062 5.8021875 199.87109375 6.26171875 C214.31631874 17.51517421 222.74410739 36.05370164 225.0859375 53.91015625 C226.99368977 74.96292244 221.14944392 93.933064 208.8359375 111.03515625 C208.2584375 111.65390625 207.6809375 112.27265625 207.0859375 112.91015625 C206.4259375 112.91015625 205.7659375 112.91015625 205.0859375 112.91015625 C204.745625 113.74546875 204.745625 113.74546875 204.3984375 114.59765625 C201.69753166 119.35639511 198.29582478 122.2727631 193.0859375 123.91015625 C193.0859375 124.57015625 193.0859375 125.23015625 193.0859375 125.91015625 C173.21755604 137.70954198 151.81672965 142.47611077 129.21630859 136.81689453 C117.66344334 133.59290196 108.1115442 127.74095992 99.0859375 119.91015625 C98.26867187 119.28882813 97.45140625 118.6675 96.609375 118.02734375 C89.06423011 111.69689711 83.80363807 103.07655222 79.5859375 94.28515625 C79.09710083 93.28415894 79.09710083 93.28415894 78.59838867 92.26293945 C75.89588093 86.33006237 75.32531306 81.72672182 74.0859375 74.91015625 C60.2259375 74.91015625 46.3659375 74.91015625 32.0859375 74.91015625 C31.4259375 78.54015625 30.7659375 82.17015625 30.0859375 85.91015625 C29.03879413 88.7910901 27.99257604 91.46326637 26.7109375 94.22265625 C26.27394531 95.21749023 26.27394531 95.21749023 25.828125 96.23242188 C23.94170698 100.42308296 21.85571507 104.23421689 19.0859375 107.91015625 C18.4259375 107.91015625 17.7659375 107.91015625 17.0859375 107.91015625 C17.0240625 108.46703125 16.9621875 109.02390625 16.8984375 109.59765625 C15.72027628 112.95088434 13.70756031 114.51165027 11.0859375 116.91015625 C10.54066406 117.43609375 9.99539062 117.96203125 9.43359375 118.50390625 C-0.22020574 127.48418484 -11.33654145 133.18068722 -23.9140625 136.91015625 C-25.13802734 137.27947266 -25.13802734 137.27947266 -26.38671875 137.65625 C-44.38519533 142.13271502 -63.73591756 138.39418756 -79.82421875 129.76953125 C-84.1791859 127.14884305 -88.06111665 124.21268126 -91.9140625 120.91015625 C-92.50316406 120.46414063 -93.09226562 120.018125 -93.69921875 119.55859375 C-108.14444374 108.30513829 -116.57223239 89.76661086 -118.9140625 71.91015625 C-120.54627828 53.8980392 -116.31721364 37.83191631 -107.9140625 21.91015625 C-107.2540625 21.91015625 -106.5940625 21.91015625 -105.9140625 21.91015625 C-105.9140625 20.92015625 -105.9140625 19.93015625 -105.9140625 18.91015625 C-105.2540625 18.91015625 -104.5940625 18.91015625 -103.9140625 18.91015625 C-103.6459375 18.10578125 -103.3778125 17.30140625 -103.1015625 16.47265625 C-102.7096875 15.62703125 -102.3178125 14.78140625 -101.9140625 13.91015625 C-100.9240625 13.58015625 -99.9340625 13.25015625 -98.9140625 12.91015625 C-98.21255098 11.59482215 -97.54880325 10.25898033 -96.9140625 8.91015625 C-95.4140625 7.16015625 -95.4140625 7.16015625 -93.9140625 5.91015625 C-93.2540625 5.91015625 -92.5940625 5.91015625 -91.9140625 5.91015625 C-91.5840625 4.92015625 -91.2540625 3.93015625 -90.9140625 2.91015625 C-88.8515625 2.22265625 -88.8515625 2.22265625 -86.9140625 1.91015625 C-86.9140625 1.25015625 -86.9140625 0.59015625 -86.9140625 -0.08984375 C-85.9240625 -0.08984375 -84.9340625 -0.08984375 -83.9140625 -0.08984375 C-83.9140625 -0.74984375 -83.9140625 -1.40984375 -83.9140625 -2.08984375 C-56.86457161 -16.10675606 -25.83860735 -18.53036854 0 0 Z " fill="#FAFAFA" transform="translate(202.9140625,289.08984375)"/>
</svg>
