<?xml version="1.0" encoding="UTF-8"?>
<!DOCTYPE svg PUBLIC "-//W3C//DTD SVG 1.1//EN" "http://www.w3.org/Graphics/SVG/1.1/DTD/svg11.dtd">
<svg xmlns="http://www.w3.org/2000/svg" version="1.1" width="512px" height="512px" style="shape-rendering:geometricPrecision; text-rendering:geometricPrecision; image-rendering:optimizeQuality; fill-rule:evenodd; clip-rule:evenodd" xmlns:xlink="http://www.w3.org/1999/xlink">
<g><path style="opacity:0.984" fill="#f8f8f8" d="M 339.5,-0.5 C 343.833,-0.5 348.167,-0.5 352.5,-0.5C 355.614,26.3773 349.614,51.044 334.5,73.5C 333.5,73.8333 332.833,74.5 332.5,75.5C 332.5,75.8333 332.5,76.1667 332.5,76.5C 331.5,76.8333 330.833,77.5 330.5,78.5C 330.672,79.4916 330.338,80.1583 329.5,80.5C 328.5,80.8333 327.833,81.5 327.5,82.5C 327.573,84.0269 326.906,85.0269 325.5,85.5C 324.094,85.9731 323.427,86.9731 323.5,88.5C 320.833,91.8333 317.833,94.8333 314.5,97.5C 312.596,97.7376 311.262,98.7376 310.5,100.5C 309.05,102.61 307.05,103.943 304.5,104.5C 303.5,104.833 302.833,105.5 302.5,106.5C 302.027,107.906 301.027,108.573 299.5,108.5C 297.973,108.427 296.973,109.094 296.5,110.5C 281.475,119.956 265.141,124.289 247.5,123.5C 243.321,91.709 251.987,64.0424 273.5,40.5C 274.906,40.0269 275.573,39.0269 275.5,37.5C 278.281,34.2635 281.281,31.2635 284.5,28.5C 286.027,28.573 287.027,27.9063 287.5,26.5C 302.594,13.2854 319.928,4.28539 339.5,-0.5 Z"/></g>
<g><path style="opacity:0.039" fill="#343434" d="M 287.5,26.5 C 287.027,27.9063 286.027,28.573 284.5,28.5C 284.973,27.0937 285.973,26.427 287.5,26.5 Z"/></g>
<g><path style="opacity:0.027" fill="#212121" d="M 275.5,37.5 C 275.573,39.0269 274.906,40.0269 273.5,40.5C 273.427,38.9731 274.094,37.9731 275.5,37.5 Z"/></g>
<g><path style="opacity:0.004" fill="#262626" d="M 334.5,73.5 C 334.5,74.8333 333.833,75.5 332.5,75.5C 332.833,74.5 333.5,73.8333 334.5,73.5 Z"/></g>
<g><path style="opacity:0.004" fill="#262626" d="M 332.5,76.5 C 332.5,77.8333 331.833,78.5 330.5,78.5C 330.833,77.5 331.5,76.8333 332.5,76.5 Z"/></g>
<g><path style="opacity:0.004" fill="#292929" d="M 329.5,80.5 C 329.5,81.8333 328.833,82.5 327.5,82.5C 327.833,81.5 328.5,80.8333 329.5,80.5 Z"/></g>
<g><path style="opacity:0.004" fill="#1d1d1d" d="M 325.5,85.5 C 325.573,87.0269 324.906,88.0269 323.5,88.5C 323.427,86.9731 324.094,85.9731 325.5,85.5 Z"/></g>
<g><path style="opacity:0.004" fill="#1c1c1c" d="M 314.5,97.5 C 313.738,99.2624 312.404,100.262 310.5,100.5C 311.262,98.7376 312.596,97.7376 314.5,97.5 Z"/></g>
<g><path style="opacity:0.004" fill="#313131" d="M 304.5,104.5 C 304.5,105.833 303.833,106.5 302.5,106.5C 302.833,105.5 303.5,104.833 304.5,104.5 Z"/></g>
<g><path style="opacity:0.004" fill="#252525" d="M 299.5,108.5 C 299.027,109.906 298.027,110.573 296.5,110.5C 296.973,109.094 297.973,108.427 299.5,108.5 Z"/></g>
<g><path style="opacity:0.997" fill="#fdfdfd" d="M 312.5,127.5 C 314.898,127.741 316.898,127.074 318.5,125.5C 362.64,110.699 402.64,118.199 438.5,148C 446.858,154.892 454.192,162.725 460.5,171.5C 459.148,172.524 457.815,173.524 456.5,174.5C 455.673,173.561 455.006,173.895 454.5,175.5C 452.302,177.098 449.969,178.431 447.5,179.5C 446.5,179.833 445.833,180.5 445.5,181.5C 445.158,182.338 444.492,182.672 443.5,182.5C 442.5,182.833 441.833,183.5 441.5,184.5C 439.597,185.947 437.93,187.614 436.5,189.5C 433.833,190.167 432.167,191.833 431.5,194.5C 430.167,195.833 428.833,197.167 427.5,198.5C 426.094,198.973 425.427,199.973 425.5,201.5C 403.484,232.259 397.651,265.926 408,302.5C 419.261,337.259 441.761,361.593 475.5,375.5C 467.256,395.664 457.256,414.664 445.5,432.5C 444.094,432.973 443.427,433.973 443.5,435.5C 440.913,441.01 437.58,446.01 433.5,450.5C 432.5,450.833 431.833,451.5 431.5,452.5C 431.25,454.674 430.25,456.341 428.5,457.5C 427.094,457.973 426.427,458.973 426.5,460.5C 426.5,461.167 426.167,461.5 425.5,461.5C 424.094,461.973 423.427,462.973 423.5,464.5C 421.845,467.153 419.845,469.486 417.5,471.5C 416.094,471.973 415.427,472.973 415.5,474.5C 414.527,476.139 413.194,477.473 411.5,478.5C 408.097,480.9 405.43,483.9 403.5,487.5C 401.596,487.738 400.262,488.738 399.5,490.5C 398.473,492.194 397.139,493.527 395.5,494.5C 393.973,494.427 392.973,495.094 392.5,496.5C 392.158,497.338 391.492,497.672 390.5,497.5C 389.5,497.833 388.833,498.5 388.5,499.5C 387.564,500.974 386.23,501.974 384.5,502.5C 383.673,501.561 383.006,501.895 382.5,503.5C 376.966,506.561 371.299,509.228 365.5,511.5C 355.5,511.5 345.5,511.5 335.5,511.5C 321.932,506.06 308.265,500.56 294.5,495C 274.833,490.333 255.167,490.333 235.5,495C 221.29,500.283 207.29,505.783 193.5,511.5C 183.167,511.5 172.833,511.5 162.5,511.5C 139.531,502.389 120.697,487.723 106,467.5C 61.7536,411.109 38.2536,346.942 35.5,275C 34.8602,245.076 41.1935,216.91 54.5,190.5C 55.9063,190.027 56.573,189.027 56.5,187.5C 57.2485,185.668 58.2485,184.001 59.5,182.5C 60.5,182.167 61.1667,181.5 61.5,180.5C 62.1103,178.566 63.1103,176.899 64.5,175.5C 65.9063,175.027 66.573,174.027 66.5,172.5C 66.5,171.833 66.8333,171.5 67.5,171.5C 68.9063,171.027 69.573,170.027 69.5,168.5C 70.8333,167.167 72.1667,165.833 73.5,164.5C 75.5869,163.415 76.9202,161.749 77.5,159.5C 78.5,157.833 79.8333,156.5 81.5,155.5C 83.7488,154.92 85.4154,153.587 86.5,151.5C 87.5274,149.806 88.8608,148.473 90.5,147.5C 92.0269,147.573 93.0269,146.906 93.5,145.5C 93.8417,144.662 94.5084,144.328 95.5,144.5C 96.5,144.167 97.1667,143.5 97.5,142.5C 125.77,121.019 157.437,113.852 192.5,121C 207.031,125.066 221.364,129.732 235.5,135C 248.536,139.162 261.869,140.495 275.5,139C 288.203,136.265 300.536,132.432 312.5,127.5 Z"/></g>
<g><path style="opacity:0.2" fill="#6e6e6e" d="M 318.5,125.5 C 316.898,127.074 314.898,127.741 312.5,127.5C 314.214,126.262 316.214,125.595 318.5,125.5 Z"/></g>
<g><path style="opacity:0.02" fill="#272727" d="M 97.5,142.5 C 97.1667,143.5 96.5,144.167 95.5,144.5C 95.5,143.167 96.1667,142.5 97.5,142.5 Z"/></g>
<g><path style="opacity:0.027" fill="#2f2f2f" d="M 93.5,145.5 C 93.0269,146.906 92.0269,147.573 90.5,147.5C 90.9731,146.094 91.9731,145.427 93.5,145.5 Z"/></g>
<g><path style="opacity:0.027" fill="#323232" d="M 86.5,151.5 C 85.4154,153.587 83.7488,154.92 81.5,155.5C 82.5846,153.413 84.2512,152.08 86.5,151.5 Z"/></g>
<g><path style="opacity:0.031" fill="#292929" d="M 77.5,159.5 C 76.9202,161.749 75.5869,163.415 73.5,164.5C 74.0798,162.251 75.4131,160.585 77.5,159.5 Z"/></g>
<g><path style="opacity:0.035" fill="#252525" d="M 69.5,168.5 C 69.573,170.027 68.9063,171.027 67.5,171.5C 67.427,169.973 68.0937,168.973 69.5,168.5 Z"/></g>
<g><path style="opacity:0.024" fill="#242424" d="M 66.5,172.5 C 66.573,174.027 65.9063,175.027 64.5,175.5C 64.427,173.973 65.0937,172.973 66.5,172.5 Z"/></g>
<g><path style="opacity:0.004" fill="#2a2a2a" d="M 456.5,174.5 C 456.158,175.338 455.492,175.672 454.5,175.5C 455.006,173.895 455.673,173.561 456.5,174.5 Z"/></g>
<g><path style="opacity:0.043" fill="#2d2d2d" d="M 61.5,180.5 C 61.1667,181.5 60.5,182.167 59.5,182.5C 59.5,181.167 60.1667,180.5 61.5,180.5 Z"/></g>
<g><path style="opacity:0.004" fill="#262626" d="M 447.5,179.5 C 447.5,180.833 446.833,181.5 445.5,181.5C 445.833,180.5 446.5,179.833 447.5,179.5 Z"/></g>
<g><path style="opacity:0.004" fill="#2d2d2d" d="M 443.5,182.5 C 443.5,183.833 442.833,184.5 441.5,184.5C 441.833,183.5 442.5,182.833 443.5,182.5 Z"/></g>
<g><path style="opacity:0.051" fill="#2a2a2a" d="M 56.5,187.5 C 56.573,189.027 55.9063,190.027 54.5,190.5C 54.427,188.973 55.0937,187.973 56.5,187.5 Z"/></g>
<g><path style="opacity:0.004" fill="#191919" d="M 436.5,189.5 C 435.167,191.5 433.5,193.167 431.5,194.5C 432.167,191.833 433.833,190.167 436.5,189.5 Z"/></g>
<g><path style="opacity:0.004" fill="#242424" d="M 427.5,198.5 C 427.573,200.027 426.906,201.027 425.5,201.5C 425.427,199.973 426.094,198.973 427.5,198.5 Z"/></g>
<g><path style="opacity:0.004" fill="#1a1a1a" d="M 445.5,432.5 C 445.573,434.027 444.906,435.027 443.5,435.5C 443.427,433.973 444.094,432.973 445.5,432.5 Z"/></g>
<g><path style="opacity:0.004" fill="#212121" d="M 433.5,450.5 C 433.5,451.833 432.833,452.5 431.5,452.5C 431.833,451.5 432.5,450.833 433.5,450.5 Z"/></g>
<g><path style="opacity:0.004" fill="#222222" d="M 428.5,457.5 C 428.573,459.027 427.906,460.027 426.5,460.5C 426.427,458.973 427.094,457.973 428.5,457.5 Z"/></g>
<g><path style="opacity:0.004" fill="#262626" d="M 425.5,461.5 C 425.573,463.027 424.906,464.027 423.5,464.5C 423.427,462.973 424.094,461.973 425.5,461.5 Z"/></g>
<g><path style="opacity:0.004" fill="#1f1f1f" d="M 417.5,471.5 C 417.573,473.027 416.906,474.027 415.5,474.5C 415.427,472.973 416.094,471.973 417.5,471.5 Z"/></g>
<g><path style="opacity:0.004" fill="#191919" d="M 411.5,478.5 C 409.57,482.1 406.903,485.1 403.5,487.5C 405.43,483.9 408.097,480.9 411.5,478.5 Z"/></g>
<g><path style="opacity:0.004" fill="#1f1f1f" d="M 403.5,487.5 C 402.738,489.262 401.404,490.262 399.5,490.5C 400.262,488.738 401.596,487.738 403.5,487.5 Z"/></g>
<g><path style="opacity:0.004" fill="#1f1f1f" d="M 395.5,494.5 C 395.027,495.906 394.027,496.573 392.5,496.5C 392.973,495.094 393.973,494.427 395.5,494.5 Z"/></g>
<g><path style="opacity:0.004" fill="#272727" d="M 390.5,497.5 C 390.5,498.833 389.833,499.5 388.5,499.5C 388.833,498.5 389.5,497.833 390.5,497.5 Z"/></g>
<g><path style="opacity:0.004" fill="#242424" d="M 384.5,502.5 C 384.158,503.338 383.492,503.672 382.5,503.5C 383.006,501.895 383.673,501.561 384.5,502.5 Z"/></g>
</svg>
