<?xml version="1.0" encoding="UTF-8"?>
<!DOCTYPE svg PUBLIC "-//W3C//DTD SVG 1.1//EN" "http://www.w3.org/Graphics/SVG/1.1/DTD/svg11.dtd">
<svg xmlns="http://www.w3.org/2000/svg" version="1.1" width="512px" height="512px" style="shape-rendering:geometricPrecision; text-rendering:geometricPrecision; image-rendering:optimizeQuality; fill-rule:evenodd; clip-rule:evenodd" xmlns:xlink="http://www.w3.org/1999/xlink">
<g><path style="opacity:0.004" fill="#000000" d="M 87.5,143.5 C 88.8333,144.167 88.8333,144.167 87.5,143.5 Z"/></g>
<g><path style="opacity:0.004" fill="#000000" d="M 440.5,143.5 C 441.833,144.167 441.833,144.167 440.5,143.5 Z"/></g>
<g><path style="opacity:0.004" fill="#000000" d="M 85.5,144.5 C 86.8333,145.167 86.8333,145.167 85.5,144.5 Z"/></g>
<g><path style="opacity:0.3" fill="#b7b7b7" d="M 89.5,145.5 C 91.3035,144.838 93.3035,144.505 95.5,144.5C 98.8136,144.343 101.814,145.009 104.5,146.5C 99.5365,145.746 94.5365,145.413 89.5,145.5 Z"/></g>
<g><path style="opacity:0.004" fill="#000000" d="M 105.5,144.5 C 106.833,145.167 106.833,145.167 105.5,144.5 Z"/></g>
<g><path style="opacity:0.004" fill="#000000" d="M 423.5,144.5 C 424.833,145.167 424.833,145.167 423.5,144.5 Z"/></g>
<g><path style="opacity:0.206" fill="#a5a5a5" d="M 438.5,145.5 C 434.143,145.586 429.81,145.92 425.5,146.5C 427.848,145.048 430.514,144.382 433.5,144.5C 435.369,144.507 437.036,144.84 438.5,145.5 Z"/></g>
<g><path style="opacity:0.004" fill="#000000" d="M 442.5,144.5 C 443.833,145.167 443.833,145.167 442.5,144.5 Z"/></g>
<g><path style="opacity:0.004" fill="#000000" d="M 84.5,146.5 C 83.8333,146.5 83.5,146.833 83.5,147.5C 83.1667,147.5 82.8333,147.5 82.5,147.5C 82.7107,145.576 83.3774,145.243 84.5,146.5 Z"/></g>
<g><path style="opacity:0.988" fill="#fefefe" d="M 89.5,145.5 C 94.5365,145.413 99.5365,145.746 104.5,146.5C 105.833,146.833 107.167,147.167 108.5,147.5C 159.965,199.465 211.632,251.299 263.5,303C 264.437,303.692 265.103,303.525 265.5,302.5C 266.167,302.5 266.5,302.167 266.5,301.5C 267.5,301.167 268.167,300.5 268.5,299.5C 269.167,299.5 269.5,299.167 269.5,298.5C 270.167,298.5 270.5,298.167 270.5,297.5C 271.5,297.167 272.167,296.5 272.5,295.5C 273.167,295.5 273.5,295.167 273.5,294.5C 274.167,294.5 274.5,294.167 274.5,293.5C 275.5,293.167 276.167,292.5 276.5,291.5C 277.167,291.5 277.5,291.167 277.5,290.5C 278.167,290.5 278.5,290.167 278.5,289.5C 279.5,289.167 280.167,288.5 280.5,287.5C 281.167,287.5 281.5,287.167 281.5,286.5C 282.167,286.5 282.5,286.167 282.5,285.5C 283.5,285.167 284.167,284.5 284.5,283.5C 285.167,283.5 285.5,283.167 285.5,282.5C 286.167,282.5 286.5,282.167 286.5,281.5C 287.5,281.167 288.167,280.5 288.5,279.5C 289.167,279.5 289.5,279.167 289.5,278.5C 290.167,278.5 290.5,278.167 290.5,277.5C 291.5,277.167 292.167,276.5 292.5,275.5C 293.167,275.5 293.5,275.167 293.5,274.5C 294.167,274.5 294.5,274.167 294.5,273.5C 295.5,273.167 296.167,272.5 296.5,271.5C 297.167,271.5 297.5,271.167 297.5,270.5C 298.167,270.5 298.5,270.167 298.5,269.5C 299.5,269.167 300.167,268.5 300.5,267.5C 301.167,267.5 301.5,267.167 301.5,266.5C 302.167,266.5 302.5,266.167 302.5,265.5C 303.5,265.167 304.167,264.5 304.5,263.5C 305.167,263.5 305.5,263.167 305.5,262.5C 306.167,262.5 306.5,262.167 306.5,261.5C 307.5,261.167 308.167,260.5 308.5,259.5C 309.167,259.5 309.5,259.167 309.5,258.5C 310.167,258.5 310.5,258.167 310.5,257.5C 311.5,257.167 312.167,256.5 312.5,255.5C 313.167,255.5 313.5,255.167 313.5,254.5C 314.167,254.5 314.5,254.167 314.5,253.5C 315.5,253.167 316.167,252.5 316.5,251.5C 317.167,251.5 317.5,251.167 317.5,250.5C 318.167,250.5 318.5,250.167 318.5,249.5C 319.5,249.167 320.167,248.5 320.5,247.5C 321.167,247.5 321.5,247.167 321.5,246.5C 322.167,246.5 322.5,246.167 322.5,245.5C 323.5,245.167 324.167,244.5 324.5,243.5C 325.167,243.5 325.5,243.167 325.5,242.5C 326.167,242.5 326.5,242.167 326.5,241.5C 327.5,241.167 328.167,240.5 328.5,239.5C 329.167,239.5 329.5,239.167 329.5,238.5C 330.167,238.5 330.5,238.167 330.5,237.5C 331.5,237.167 332.167,236.5 332.5,235.5C 333.167,235.5 333.5,235.167 333.5,234.5C 334.167,234.5 334.5,234.167 334.5,233.5C 335.5,233.167 336.167,232.5 336.5,231.5C 337.167,231.5 337.5,231.167 337.5,230.5C 338.167,230.5 338.5,230.167 338.5,229.5C 339.5,229.167 340.167,228.5 340.5,227.5C 341.167,227.5 341.5,227.167 341.5,226.5C 342.167,226.5 342.5,226.167 342.5,225.5C 343.5,225.167 344.167,224.5 344.5,223.5C 345.167,223.5 345.5,223.167 345.5,222.5C 346.167,222.5 346.5,222.167 346.5,221.5C 347.5,221.167 348.167,220.5 348.5,219.5C 349.167,219.5 349.5,219.167 349.5,218.5C 350.167,218.5 350.5,218.167 350.5,217.5C 351.5,217.167 352.167,216.5 352.5,215.5C 353.167,215.5 353.5,215.167 353.5,214.5C 354.167,214.5 354.5,214.167 354.5,213.5C 355.5,213.167 356.167,212.5 356.5,211.5C 357.167,211.5 357.5,211.167 357.5,210.5C 358.167,210.5 358.5,210.167 358.5,209.5C 359.5,209.167 360.167,208.5 360.5,207.5C 361.167,207.5 361.5,207.167 361.5,206.5C 362.167,206.5 362.5,206.167 362.5,205.5C 363.5,205.167 364.167,204.5 364.5,203.5C 365.167,203.5 365.5,203.167 365.5,202.5C 366.167,202.5 366.5,202.167 366.5,201.5C 367.5,201.167 368.167,200.5 368.5,199.5C 369.167,199.5 369.5,199.167 369.5,198.5C 370.167,198.5 370.5,198.167 370.5,197.5C 371.5,197.167 372.167,196.5 372.5,195.5C 373.167,195.5 373.5,195.167 373.5,194.5C 374.167,194.5 374.5,194.167 374.5,193.5C 375.5,193.167 376.167,192.5 376.5,191.5C 377.167,191.5 377.5,191.167 377.5,190.5C 378.167,190.5 378.5,190.167 378.5,189.5C 379.5,189.167 380.167,188.5 380.5,187.5C 381.167,187.5 381.5,187.167 381.5,186.5C 382.167,186.5 382.5,186.167 382.5,185.5C 383.5,185.167 384.167,184.5 384.5,183.5C 385.167,183.5 385.5,183.167 385.5,182.5C 386.167,182.5 386.5,182.167 386.5,181.5C 387.5,181.167 388.167,180.5 388.5,179.5C 389.167,179.5 389.5,179.167 389.5,178.5C 390.167,178.5 390.5,178.167 390.5,177.5C 391.5,177.167 392.167,176.5 392.5,175.5C 393.167,175.5 393.5,175.167 393.5,174.5C 394.167,174.5 394.5,174.167 394.5,173.5C 395.5,173.167 396.167,172.5 396.5,171.5C 397.167,171.5 397.5,171.167 397.5,170.5C 398.167,170.5 398.5,170.167 398.5,169.5C 399.5,169.167 400.167,168.5 400.5,167.5C 401.167,167.5 401.5,167.167 401.5,166.5C 402.167,166.5 402.5,166.167 402.5,165.5C 403.5,165.167 404.167,164.5 404.5,163.5C 405.167,163.5 405.5,163.167 405.5,162.5C 406.167,162.5 406.5,162.167 406.5,161.5C 407.5,161.167 408.167,160.5 408.5,159.5C 409.167,159.5 409.5,159.167 409.5,158.5C 410.167,158.5 410.5,158.167 410.5,157.5C 411.5,157.167 412.167,156.5 412.5,155.5C 413.167,155.5 413.5,155.167 413.5,154.5C 414.167,154.5 414.5,154.167 414.5,153.5C 415.5,153.167 416.167,152.5 416.5,151.5C 417.167,151.5 417.5,151.167 417.5,150.5C 419.883,148.642 422.55,147.308 425.5,146.5C 429.81,145.92 434.143,145.586 438.5,145.5C 441.691,146.092 444.691,147.259 447.5,149C 453.667,155.167 459.833,161.333 466,167.5C 469.678,175.143 470.512,183.143 468.5,191.5C 466.453,193.55 464.786,195.883 463.5,198.5C 462.833,198.5 462.5,198.833 462.5,199.5C 461.833,199.5 461.5,199.833 461.5,200.5C 460.833,200.5 460.5,200.833 460.5,201.5C 459.833,201.5 459.5,201.833 459.5,202.5C 458.833,202.5 458.5,202.833 458.5,203.5C 457.833,203.5 457.5,203.833 457.5,204.5C 456.833,204.5 456.5,204.833 456.5,205.5C 455.833,205.5 455.5,205.833 455.5,206.5C 454.833,206.5 454.5,206.833 454.5,207.5C 453.833,207.5 453.5,207.833 453.5,208.5C 452.833,208.5 452.5,208.833 452.5,209.5C 451.833,209.5 451.5,209.833 451.5,210.5C 450.833,210.5 450.5,210.833 450.5,211.5C 449.833,211.5 449.5,211.833 449.5,212.5C 448.833,212.5 448.5,212.833 448.5,213.5C 447.833,213.5 447.5,213.833 447.5,214.5C 446.833,214.5 446.5,214.833 446.5,215.5C 445.833,215.5 445.5,215.833 445.5,216.5C 444.833,216.5 444.5,216.833 444.5,217.5C 443.833,217.5 443.5,217.833 443.5,218.5C 442.833,218.5 442.5,218.833 442.5,219.5C 441.833,219.5 441.5,219.833 441.5,220.5C 440.833,220.5 440.5,220.833 440.5,221.5C 439.833,221.5 439.5,221.833 439.5,222.5C 438.833,222.5 438.5,222.833 438.5,223.5C 437.833,223.5 437.5,223.833 437.5,224.5C 436.833,224.5 436.5,224.833 436.5,225.5C 435.833,225.5 435.5,225.833 435.5,226.5C 434.833,226.5 434.5,226.833 434.5,227.5C 433.833,227.5 433.5,227.833 433.5,228.5C 432.833,228.5 432.5,228.833 432.5,229.5C 431.833,229.5 431.5,229.833 431.5,230.5C 430.833,230.5 430.5,230.833 430.5,231.5C 429.833,231.5 429.5,231.833 429.5,232.5C 428.833,232.5 428.5,232.833 428.5,233.5C 427.833,233.5 427.5,233.833 427.5,234.5C 426.833,234.5 426.5,234.833 426.5,235.5C 425.833,235.5 425.5,235.833 425.5,236.5C 424.833,236.5 424.5,236.833 424.5,237.5C 423.833,237.5 423.5,237.833 423.5,238.5C 422.833,238.5 422.5,238.833 422.5,239.5C 421.833,239.5 421.5,239.833 421.5,240.5C 420.833,240.5 420.5,240.833 420.5,241.5C 419.833,241.5 419.5,241.833 419.5,242.5C 418.833,242.5 418.5,242.833 418.5,243.5C 417.833,243.5 417.5,243.833 417.5,244.5C 416.833,244.5 416.5,244.833 416.5,245.5C 415.833,245.5 415.5,245.833 415.5,246.5C 414.833,246.5 414.5,246.833 414.5,247.5C 413.833,247.5 413.5,247.833 413.5,248.5C 412.833,248.5 412.5,248.833 412.5,249.5C 411.833,249.5 411.5,249.833 411.5,250.5C 410.833,250.5 410.5,250.833 410.5,251.5C 409.833,251.5 409.5,251.833 409.5,252.5C 408.833,252.5 408.5,252.833 408.5,253.5C 407.833,253.5 407.5,253.833 407.5,254.5C 406.833,254.5 406.5,254.833 406.5,255.5C 405.833,255.5 405.5,255.833 405.5,256.5C 404.833,256.5 404.5,256.833 404.5,257.5C 403.833,257.5 403.5,257.833 403.5,258.5C 402.833,258.5 402.5,258.833 402.5,259.5C 401.833,259.5 401.5,259.833 401.5,260.5C 400.833,260.5 400.5,260.833 400.5,261.5C 399.833,261.5 399.5,261.833 399.5,262.5C 398.833,262.5 398.5,262.833 398.5,263.5C 397.833,263.5 397.5,263.833 397.5,264.5C 396.833,264.5 396.5,264.833 396.5,265.5C 395.833,265.5 395.5,265.833 395.5,266.5C 394.833,266.5 394.5,266.833 394.5,267.5C 393.833,267.5 393.5,267.833 393.5,268.5C 392.833,268.5 392.5,268.833 392.5,269.5C 391.833,269.5 391.5,269.833 391.5,270.5C 390.833,270.5 390.5,270.833 390.5,271.5C 389.833,271.5 389.5,271.833 389.5,272.5C 388.833,272.5 388.5,272.833 388.5,273.5C 387.833,273.5 387.5,273.833 387.5,274.5C 386.833,274.5 386.5,274.833 386.5,275.5C 385.833,275.5 385.5,275.833 385.5,276.5C 384.833,276.5 384.5,276.833 384.5,277.5C 383.833,277.5 383.5,277.833 383.5,278.5C 382.833,278.5 382.5,278.833 382.5,279.5C 381.833,279.5 381.5,279.833 381.5,280.5C 380.833,280.5 380.5,280.833 380.5,281.5C 379.833,281.5 379.5,281.833 379.5,282.5C 378.833,282.5 378.5,282.833 378.5,283.5C 377.833,283.5 377.5,283.833 377.5,284.5C 376.833,284.5 376.5,284.833 376.5,285.5C 375.833,285.5 375.5,285.833 375.5,286.5C 374.833,286.5 374.5,286.833 374.5,287.5C 373.833,287.5 373.5,287.833 373.5,288.5C 372.833,288.5 372.5,288.833 372.5,289.5C 371.833,289.5 371.5,289.833 371.5,290.5C 370.833,290.5 370.5,290.833 370.5,291.5C 369.833,291.5 369.5,291.833 369.5,292.5C 368.833,292.5 368.5,292.833 368.5,293.5C 367.833,293.5 367.5,293.833 367.5,294.5C 366.833,294.5 366.5,294.833 366.5,295.5C 365.833,295.5 365.5,295.833 365.5,296.5C 364.833,296.5 364.5,296.833 364.5,297.5C 363.833,297.5 363.5,297.833 363.5,298.5C 362.833,298.5 362.5,298.833 362.5,299.5C 361.833,299.5 361.5,299.833 361.5,300.5C 360.833,300.5 360.5,300.833 360.5,301.5C 359.833,301.5 359.5,301.833 359.5,302.5C 358.833,302.5 358.5,302.833 358.5,303.5C 357.833,303.5 357.5,303.833 357.5,304.5C 356.833,304.5 356.5,304.833 356.5,305.5C 355.833,305.5 355.5,305.833 355.5,306.5C 354.833,306.5 354.5,306.833 354.5,307.5C 353.833,307.5 353.5,307.833 353.5,308.5C 352.833,308.5 352.5,308.833 352.5,309.5C 351.833,309.5 351.5,309.833 351.5,310.5C 350.833,310.5 350.5,310.833 350.5,311.5C 349.833,311.5 349.5,311.833 349.5,312.5C 348.833,312.5 348.5,312.833 348.5,313.5C 347.833,313.5 347.5,313.833 347.5,314.5C 346.833,314.5 346.5,314.833 346.5,315.5C 345.833,315.5 345.5,315.833 345.5,316.5C 344.833,316.5 344.5,316.833 344.5,317.5C 343.833,317.5 343.5,317.833 343.5,318.5C 342.833,318.5 342.5,318.833 342.5,319.5C 341.833,319.5 341.5,319.833 341.5,320.5C 340.833,320.5 340.5,320.833 340.5,321.5C 339.833,321.5 339.5,321.833 339.5,322.5C 338.833,322.5 338.5,322.833 338.5,323.5C 337.833,323.5 337.5,323.833 337.5,324.5C 336.833,324.5 336.5,324.833 336.5,325.5C 335.833,325.5 335.5,325.833 335.5,326.5C 334.833,326.5 334.5,326.833 334.5,327.5C 333.833,327.5 333.5,327.833 333.5,328.5C 332.833,328.5 332.5,328.833 332.5,329.5C 331.833,329.5 331.5,329.833 331.5,330.5C 330.833,330.5 330.5,330.833 330.5,331.5C 329.833,331.5 329.5,331.833 329.5,332.5C 328.833,332.5 328.5,332.833 328.5,333.5C 327.833,333.5 327.5,333.833 327.5,334.5C 326.833,334.5 326.5,334.833 326.5,335.5C 325.833,335.5 325.5,335.833 325.5,336.5C 324.833,336.5 324.5,336.833 324.5,337.5C 323.833,337.5 323.5,337.833 323.5,338.5C 322.833,338.5 322.5,338.833 322.5,339.5C 321.833,339.5 321.5,339.833 321.5,340.5C 320.833,340.5 320.5,340.833 320.5,341.5C 319.833,341.5 319.5,341.833 319.5,342.5C 318.833,342.5 318.5,342.833 318.5,343.5C 317.833,343.5 317.5,343.833 317.5,344.5C 316.833,344.5 316.5,344.833 316.5,345.5C 315.833,345.5 315.5,345.833 315.5,346.5C 314.833,346.5 314.5,346.833 314.5,347.5C 313.833,347.5 313.5,347.833 313.5,348.5C 312.833,348.5 312.5,348.833 312.5,349.5C 311.833,349.5 311.5,349.833 311.5,350.5C 310.833,350.5 310.5,350.833 310.5,351.5C 309.833,351.5 309.5,351.833 309.5,352.5C 308.833,352.5 308.5,352.833 308.5,353.5C 307.833,353.5 307.5,353.833 307.5,354.5C 306.833,354.5 306.5,354.833 306.5,355.5C 305.833,355.5 305.5,355.833 305.5,356.5C 304.833,356.5 304.5,356.833 304.5,357.5C 303.833,357.5 303.5,357.833 303.5,358.5C 302.833,358.5 302.5,358.833 302.5,359.5C 301.833,359.5 301.5,359.833 301.5,360.5C 300.833,360.5 300.5,360.833 300.5,361.5C 299.833,361.5 299.5,361.833 299.5,362.5C 298.833,362.5 298.5,362.833 298.5,363.5C 297.833,363.5 297.5,363.833 297.5,364.5C 296.833,364.5 296.5,364.833 296.5,365.5C 295.833,365.5 295.5,365.833 295.5,366.5C 294.833,366.5 294.5,366.833 294.5,367.5C 293.833,367.5 293.5,367.833 293.5,368.5C 292.833,368.5 292.5,368.833 292.5,369.5C 291.833,369.5 291.5,369.833 291.5,370.5C 290.833,370.5 290.5,370.833 290.5,371.5C 289.833,371.5 289.5,371.833 289.5,372.5C 288.833,372.5 288.5,372.833 288.5,373.5C 287.833,373.5 287.5,373.833 287.5,374.5C 286.833,374.5 286.5,374.833 286.5,375.5C 285.833,375.5 285.5,375.833 285.5,376.5C 284.833,376.5 284.5,376.833 284.5,377.5C 283.833,377.5 283.5,377.833 283.5,378.5C 282.833,378.5 282.5,378.833 282.5,379.5C 281.833,379.5 281.5,379.833 281.5,380.5C 279.596,380.738 278.262,381.738 277.5,383.5C 276.508,383.328 275.842,383.662 275.5,384.5C 273.883,385.038 272.216,385.371 270.5,385.5C 265.473,385.497 260.473,385.164 255.5,384.5C 254.833,384.5 254.167,384.5 253.5,384.5C 251.861,383.527 250.527,382.194 249.5,380.5C 188.167,318.5 126.5,256.833 64.5,195.5C 63.8333,195.167 63.1667,194.833 62.5,194.5C 62.1667,193.167 61.8333,193.167 61.5,194.5C 59.933,190.514 58.933,186.014 58.5,181C 58.2185,177.024 59.2185,173.524 61.5,170.5C 63.1054,169.994 63.4387,169.327 62.5,168.5C 63.6005,167.395 64.2671,166.062 64.5,164.5C 65.8333,163.833 66.8333,162.833 67.5,161.5C 68.5,161.167 69.1667,160.5 69.5,159.5C 70.5,159.167 71.1667,158.5 71.5,157.5C 72.5,157.167 73.1667,156.5 73.5,155.5C 74.5,155.167 75.1667,154.5 75.5,153.5C 76.5,153.167 77.1667,152.5 77.5,151.5C 77.8333,151.5 78.1667,151.5 78.5,151.5C 79.1667,151.5 79.5,151.167 79.5,150.5C 80.5,150.167 81.1667,149.5 81.5,148.5C 82.1667,148.5 82.5,148.167 82.5,147.5C 82.8333,147.5 83.1667,147.5 83.5,147.5C 84.1667,147.5 84.5,147.167 84.5,146.5C 86.2161,146.371 87.8828,146.038 89.5,145.5 Z M 108.5,147.5 C 109.239,147.369 109.906,147.536 110.5,148C 161.368,199.035 212.368,249.868 263.5,300.5C 263.833,301.5 264.5,302.167 265.5,302.5C 265.103,303.525 264.437,303.692 263.5,303C 211.632,251.299 159.965,199.465 108.5,147.5 Z M 414.5,151.5 C 415.167,151.5 415.833,151.5 416.5,151.5C 416.167,152.5 415.5,153.167 414.5,153.5C 414.5,152.833 414.5,152.167 414.5,151.5 Z M 410.5,155.5 C 411.167,155.5 411.833,155.5 412.5,155.5C 412.167,156.5 411.5,157.167 410.5,157.5C 410.5,156.833 410.5,156.167 410.5,155.5 Z M 406.5,159.5 C 407.167,159.5 407.833,159.5 408.5,159.5C 408.167,160.5 407.5,161.167 406.5,161.5C 406.5,160.833 406.5,160.167 406.5,159.5 Z M 402.5,163.5 C 403.167,163.5 403.833,163.5 404.5,163.5C 404.167,164.5 403.5,165.167 402.5,165.5C 402.5,164.833 402.5,164.167 402.5,163.5 Z M 398.5,167.5 C 399.167,167.5 399.833,167.5 400.5,167.5C 400.167,168.5 399.5,169.167 398.5,169.5C 398.5,168.833 398.5,168.167 398.5,167.5 Z M 394.5,171.5 C 395.167,171.5 395.833,171.5 396.5,171.5C 396.167,172.5 395.5,173.167 394.5,173.5C 394.5,172.833 394.5,172.167 394.5,171.5 Z M 390.5,175.5 C 391.167,175.5 391.833,175.5 392.5,175.5C 392.167,176.5 391.5,177.167 390.5,177.5C 390.5,176.833 390.5,176.167 390.5,175.5 Z M 386.5,179.5 C 387.167,179.5 387.833,179.5 388.5,179.5C 388.167,180.5 387.5,181.167 386.5,181.5C 386.5,180.833 386.5,180.167 386.5,179.5 Z M 382.5,183.5 C 383.167,183.5 383.833,183.5 384.5,183.5C 384.167,184.5 383.5,185.167 382.5,185.5C 382.5,184.833 382.5,184.167 382.5,183.5 Z M 378.5,187.5 C 379.167,187.5 379.833,187.5 380.5,187.5C 380.167,188.5 379.5,189.167 378.5,189.5C 378.5,188.833 378.5,188.167 378.5,187.5 Z M 374.5,191.5 C 375.167,191.5 375.833,191.5 376.5,191.5C 376.167,192.5 375.5,193.167 374.5,193.5C 374.5,192.833 374.5,192.167 374.5,191.5 Z M 370.5,195.5 C 371.167,195.5 371.833,195.5 372.5,195.5C 372.167,196.5 371.5,197.167 370.5,197.5C 370.5,196.833 370.5,196.167 370.5,195.5 Z M 366.5,199.5 C 367.167,199.5 367.833,199.5 368.5,199.5C 368.167,200.5 367.5,201.167 366.5,201.5C 366.5,200.833 366.5,200.167 366.5,199.5 Z M 362.5,203.5 C 363.167,203.5 363.833,203.5 364.5,203.5C 364.167,204.5 363.5,205.167 362.5,205.5C 362.5,204.833 362.5,204.167 362.5,203.5 Z M 358.5,207.5 C 359.167,207.5 359.833,207.5 360.5,207.5C 360.167,208.5 359.5,209.167 358.5,209.5C 358.5,208.833 358.5,208.167 358.5,207.5 Z M 354.5,211.5 C 355.167,211.5 355.833,211.5 356.5,211.5C 356.167,212.5 355.5,213.167 354.5,213.5C 354.5,212.833 354.5,212.167 354.5,211.5 Z M 350.5,215.5 C 351.167,215.5 351.833,215.5 352.5,215.5C 352.167,216.5 351.5,217.167 350.5,217.5C 350.5,216.833 350.5,216.167 350.5,215.5 Z M 346.5,219.5 C 347.167,219.5 347.833,219.5 348.5,219.5C 348.167,220.5 347.5,221.167 346.5,221.5C 346.5,220.833 346.5,220.167 346.5,219.5 Z M 342.5,223.5 C 343.167,223.5 343.833,223.5 344.5,223.5C 344.167,224.5 343.5,225.167 342.5,225.5C 342.5,224.833 342.5,224.167 342.5,223.5 Z M 338.5,227.5 C 339.167,227.5 339.833,227.5 340.5,227.5C 340.167,228.5 339.5,229.167 338.5,229.5C 338.5,228.833 338.5,228.167 338.5,227.5 Z M 334.5,231.5 C 335.167,231.5 335.833,231.5 336.5,231.5C 336.167,232.5 335.5,233.167 334.5,233.5C 334.5,232.833 334.5,232.167 334.5,231.5 Z M 330.5,235.5 C 331.167,235.5 331.833,235.5 332.5,235.5C 332.167,236.5 331.5,237.167 330.5,237.5C 330.5,236.833 330.5,236.167 330.5,235.5 Z M 326.5,239.5 C 327.167,239.5 327.833,239.5 328.5,239.5C 328.167,240.5 327.5,241.167 326.5,241.5C 326.5,240.833 326.5,240.167 326.5,239.5 Z M 322.5,243.5 C 323.167,243.5 323.833,243.5 324.5,243.5C 324.167,244.5 323.5,245.167 322.5,245.5C 322.5,244.833 322.5,244.167 322.5,243.5 Z M 318.5,247.5 C 319.167,247.5 319.833,247.5 320.5,247.5C 320.167,248.5 319.5,249.167 318.5,249.5C 318.5,248.833 318.5,248.167 318.5,247.5 Z M 314.5,251.5 C 315.167,251.5 315.833,251.5 316.5,251.5C 316.167,252.5 315.5,253.167 314.5,253.5C 314.5,252.833 314.5,252.167 314.5,251.5 Z M 310.5,255.5 C 311.167,255.5 311.833,255.5 312.5,255.5C 312.167,256.5 311.5,257.167 310.5,257.5C 310.5,256.833 310.5,256.167 310.5,255.5 Z M 306.5,259.5 C 307.167,259.5 307.833,259.5 308.5,259.5C 308.167,260.5 307.5,261.167 306.5,261.5C 306.5,260.833 306.5,260.167 306.5,259.5 Z M 302.5,263.5 C 303.167,263.5 303.833,263.5 304.5,263.5C 304.167,264.5 303.5,265.167 302.5,265.5C 302.5,264.833 302.5,264.167 302.5,263.5 Z M 298.5,267.5 C 299.167,267.5 299.833,267.5 300.5,267.5C 300.167,268.5 299.5,269.167 298.5,269.5C 298.5,268.833 298.5,268.167 298.5,267.5 Z M 294.5,271.5 C 295.167,271.5 295.833,271.5 296.5,271.5C 296.167,272.5 295.5,273.167 294.5,273.5C 294.5,272.833 294.5,272.167 294.5,271.5 Z M 290.5,275.5 C 291.167,275.5 291.833,275.5 292.5,275.5C 292.167,276.5 291.5,277.167 290.5,277.5C 290.5,276.833 290.5,276.167 290.5,275.5 Z M 286.5,279.5 C 287.167,279.5 287.833,279.5 288.5,279.5C 288.167,280.5 287.5,281.167 286.5,281.5C 286.5,280.833 286.5,280.167 286.5,279.5 Z M 282.5,283.5 C 283.167,283.5 283.833,283.5 284.5,283.5C 284.167,284.5 283.5,285.167 282.5,285.5C 282.5,284.833 282.5,284.167 282.5,283.5 Z M 278.5,287.5 C 279.167,287.5 279.833,287.5 280.5,287.5C 280.167,288.5 279.5,289.167 278.5,289.5C 278.5,288.833 278.5,288.167 278.5,287.5 Z M 274.5,291.5 C 275.167,291.5 275.833,291.5 276.5,291.5C 276.167,292.5 275.5,293.167 274.5,293.5C 274.5,292.833 274.5,292.167 274.5,291.5 Z M 270.5,295.5 C 271.167,295.5 271.833,295.5 272.5,295.5C 272.167,296.5 271.5,297.167 270.5,297.5C 270.5,296.833 270.5,296.167 270.5,295.5 Z M 266.5,299.5 C 267.167,299.5 267.833,299.5 268.5,299.5C 268.167,300.5 267.5,301.167 266.5,301.5C 266.5,300.833 266.5,300.167 266.5,299.5 Z"/></g>
<g><path style="opacity:0.004" fill="#000000" d="M 421.5,145.5 C 422.833,146.167 422.833,146.167 421.5,145.5 Z"/></g>
<g><path style="opacity:0.004" fill="#000000" d="M 444.5,145.5 C 445.833,146.167 445.833,146.167 444.5,145.5 Z"/></g>
<g><path style="opacity:0.004" fill="#000000" d="M 81.5,148.5 C 80.8333,148.5 80.1667,148.5 79.5,148.5C 80.5477,146.067 81.2144,146.067 81.5,148.5 Z"/></g>
<g><path style="opacity:0.004" fill="#000000" d="M 446.5,146.5 C 447.833,147.167 447.833,147.167 446.5,146.5 Z"/></g>
<g><path style="opacity:0.004" fill="#000000" d="M 449.5,148.5 C 448.833,147.167 448.833,147.167 449.5,148.5 Z"/></g>
<g><path style="opacity:0.004" fill="#000000" d="M 79.5,148.5 C 79.5,149.167 79.5,149.833 79.5,150.5C 78.8333,150.5 78.5,150.833 78.5,151.5C 78.1667,151.5 77.8333,151.5 77.5,151.5C 76.9836,150.242 77.6503,149.242 79.5,148.5 Z"/></g>
<g><path style="opacity:0.004" fill="#000000" d="M 449.5,148.5 C 450.167,148.5 450.5,148.833 450.5,149.5C 450.167,149.167 449.833,148.833 449.5,148.5 Z"/></g>
<g><path style="opacity:0.004" fill="#000000" d="M 417.5,150.5 C 416.833,150.5 416.5,150.833 416.5,151.5C 415.833,151.5 415.167,151.5 414.5,151.5C 415.221,149.618 416.221,149.285 417.5,150.5 Z"/></g>
<g><path style="opacity:0.004" fill="#000000" d="M 450.5,149.5 C 451.167,149.5 451.5,149.833 451.5,150.5C 451.167,150.167 450.833,149.833 450.5,149.5 Z"/></g>
<g><path style="opacity:0.004" fill="#000000" d="M 451.5,150.5 C 452.167,150.5 452.5,150.833 452.5,151.5C 452.167,151.167 451.833,150.833 451.5,150.5 Z"/></g>
<g><path style="opacity:0.004" fill="#000000" d="M 414.5,151.5 C 414.5,152.167 414.5,152.833 414.5,153.5C 413.833,153.5 413.5,153.833 413.5,154.5C 412.833,154.5 412.5,154.833 412.5,155.5C 411.833,155.5 411.167,155.5 410.5,155.5C 411.5,153.833 412.833,152.5 414.5,151.5 Z"/></g>
<g><path style="opacity:0.008" fill="#000000" d="M 452.5,151.5 C 453.167,151.5 453.5,151.833 453.5,152.5C 453.167,152.167 452.833,151.833 452.5,151.5 Z"/></g>
<g><path style="opacity:0.004" fill="#000000" d="M 75.5,153.5 C 75.1667,154.5 74.5,155.167 73.5,155.5C 73.0618,155.565 72.7284,155.399 72.5,155C 73.3333,154.167 74.1667,153.333 75,152.5C 75.3988,152.728 75.5654,153.062 75.5,153.5 Z"/></g>
<g><path style="opacity:0.008" fill="#000000" d="M 453.5,152.5 C 454.167,152.5 454.5,152.833 454.5,153.5C 454.167,153.167 453.833,152.833 453.5,152.5 Z"/></g>
<g><path style="opacity:0.008" fill="#000000" d="M 454.5,153.5 C 455.167,153.5 455.5,153.833 455.5,154.5C 455.167,154.167 454.833,153.833 454.5,153.5 Z"/></g>
<g><path style="opacity:0.004" fill="#000000" d="M 455.5,154.5 C 456.167,154.5 456.5,154.833 456.5,155.5C 456.167,155.167 455.833,154.833 455.5,154.5 Z"/></g>
<g><path style="opacity:0.004" fill="#000000" d="M 410.5,155.5 C 410.5,156.167 410.5,156.833 410.5,157.5C 409.833,157.5 409.5,157.833 409.5,158.5C 408.833,158.5 408.5,158.833 408.5,159.5C 407.833,159.5 407.167,159.5 406.5,159.5C 407.5,157.833 408.833,156.5 410.5,155.5 Z"/></g>
<g><path style="opacity:0.008" fill="#000000" d="M 456.5,155.5 C 457.167,155.5 457.5,155.833 457.5,156.5C 457.167,156.167 456.833,155.833 456.5,155.5 Z"/></g>
<g><path style="opacity:0.004" fill="#000000" d="M 71.5,157.5 C 71.1667,158.5 70.5,159.167 69.5,159.5C 69.0618,159.565 68.7284,159.399 68.5,159C 69.3333,158.167 70.1667,157.333 71,156.5C 71.3988,156.728 71.5654,157.062 71.5,157.5 Z"/></g>
<g><path style="opacity:0.008" fill="#000000" d="M 457.5,156.5 C 458.167,156.5 458.5,156.833 458.5,157.5C 458.167,157.167 457.833,156.833 457.5,156.5 Z"/></g>
<g><path style="opacity:0.008" fill="#000000" d="M 458.5,157.5 C 459.167,157.5 459.5,157.833 459.5,158.5C 459.167,158.167 458.833,157.833 458.5,157.5 Z"/></g>
<g><path style="opacity:0.004" fill="#000000" d="M 459.5,158.5 C 460.167,158.5 460.5,158.833 460.5,159.5C 460.167,159.167 459.833,158.833 459.5,158.5 Z"/></g>
<g><path style="opacity:0.004" fill="#000000" d="M 406.5,159.5 C 406.5,160.167 406.5,160.833 406.5,161.5C 405.833,161.5 405.5,161.833 405.5,162.5C 404.833,162.5 404.5,162.833 404.5,163.5C 403.833,163.5 403.167,163.5 402.5,163.5C 403.5,161.833 404.833,160.5 406.5,159.5 Z"/></g>
<g><path style="opacity:0.008" fill="#000000" d="M 460.5,159.5 C 461.167,159.5 461.5,159.833 461.5,160.5C 461.167,160.167 460.833,159.833 460.5,159.5 Z"/></g>
<g><path style="opacity:0.004" fill="#000000" d="M 67.5,161.5 C 66.8333,162.833 65.8333,163.833 64.5,164.5C 64.0618,164.565 63.7284,164.399 63.5,164C 64.6667,162.833 65.8333,161.667 67,160.5C 67.3988,160.728 67.5654,161.062 67.5,161.5 Z"/></g>
<g><path style="opacity:0.008" fill="#000000" d="M 461.5,160.5 C 462.167,160.5 462.5,160.833 462.5,161.5C 462.167,161.167 461.833,160.833 461.5,160.5 Z"/></g>
<g><path style="opacity:0.008" fill="#000000" d="M 462.5,161.5 C 463.167,161.5 463.5,161.833 463.5,162.5C 463.167,162.167 462.833,161.833 462.5,161.5 Z"/></g>
<g><path style="opacity:0.004" fill="#000000" d="M 463.5,162.5 C 464.167,162.5 464.5,162.833 464.5,163.5C 464.167,163.167 463.833,162.833 463.5,162.5 Z"/></g>
<g><path style="opacity:0.004" fill="#000000" d="M 402.5,163.5 C 402.5,164.167 402.5,164.833 402.5,165.5C 401.833,165.5 401.5,165.833 401.5,166.5C 400.833,166.5 400.5,166.833 400.5,167.5C 399.833,167.5 399.167,167.5 398.5,167.5C 399.5,165.833 400.833,164.5 402.5,163.5 Z"/></g>
<g><path style="opacity:0.008" fill="#000000" d="M 464.5,163.5 C 465.167,163.5 465.5,163.833 465.5,164.5C 465.167,164.167 464.833,163.833 464.5,163.5 Z"/></g>
<g><path style="opacity:0.004" fill="#000000" d="M 465.5,164.5 C 466.167,164.5 466.5,164.833 466.5,165.5C 466.167,165.167 465.833,164.833 465.5,164.5 Z"/></g>
<g><path style="opacity:0.004" fill="#000000" d="M 466.5,165.5 C 467.833,166.167 467.833,166.167 466.5,165.5 Z"/></g>
<g><path style="opacity:0.004" fill="#000000" d="M 398.5,167.5 C 398.5,168.167 398.5,168.833 398.5,169.5C 397.833,169.5 397.5,169.833 397.5,170.5C 396.833,170.5 396.5,170.833 396.5,171.5C 395.833,171.5 395.167,171.5 394.5,171.5C 395.5,169.833 396.833,168.5 398.5,167.5 Z"/></g>
<g><path style="opacity:0.004" fill="#000000" d="M 467.5,167.5 C 468.833,168.167 468.833,168.167 467.5,167.5 Z"/></g>
<g><path style="opacity:0.224" fill="#737373" d="M 62.5,168.5 C 63.4387,169.327 63.1054,169.994 61.5,170.5C 59.9893,168.162 60.3227,167.496 62.5,168.5 Z"/></g>
<g><path style="opacity:0.004" fill="#000000" d="M 468.5,169.5 C 469.833,170.167 469.833,170.167 468.5,169.5 Z"/></g>
<g><path style="opacity:0.004" fill="#000000" d="M 394.5,171.5 C 394.5,172.167 394.5,172.833 394.5,173.5C 393.833,173.5 393.5,173.833 393.5,174.5C 392.833,174.5 392.5,174.833 392.5,175.5C 391.833,175.5 391.167,175.5 390.5,175.5C 391.5,173.833 392.833,172.5 394.5,171.5 Z"/></g>
<g><path style="opacity:0.004" fill="#000000" d="M 390.5,175.5 C 390.5,176.167 390.5,176.833 390.5,177.5C 389.833,177.5 389.5,177.833 389.5,178.5C 388.833,178.5 388.5,178.833 388.5,179.5C 387.833,179.5 387.167,179.5 386.5,179.5C 387.5,177.833 388.833,176.5 390.5,175.5 Z"/></g>
<g><path style="opacity:0.004" fill="#000000" d="M 386.5,179.5 C 386.5,180.167 386.5,180.833 386.5,181.5C 385.833,181.5 385.5,181.833 385.5,182.5C 384.833,182.5 384.5,182.833 384.5,183.5C 383.833,183.5 383.167,183.5 382.5,183.5C 383.5,181.833 384.833,180.5 386.5,179.5 Z"/></g>
<g><path style="opacity:0.004" fill="#000000" d="M 382.5,183.5 C 382.5,184.167 382.5,184.833 382.5,185.5C 381.833,185.5 381.5,185.833 381.5,186.5C 380.833,186.5 380.5,186.833 380.5,187.5C 379.833,187.5 379.167,187.5 378.5,187.5C 379.5,185.833 380.833,184.5 382.5,183.5 Z"/></g>
<g><path style="opacity:0.004" fill="#000000" d="M 378.5,187.5 C 378.5,188.167 378.5,188.833 378.5,189.5C 377.833,189.5 377.5,189.833 377.5,190.5C 376.833,190.5 376.5,190.833 376.5,191.5C 375.833,191.5 375.167,191.5 374.5,191.5C 375.5,189.833 376.833,188.5 378.5,187.5 Z"/></g>
<g><path style="opacity:0.004" fill="#000000" d="M 374.5,191.5 C 374.5,192.167 374.5,192.833 374.5,193.5C 373.833,193.5 373.5,193.833 373.5,194.5C 372.833,194.5 372.5,194.833 372.5,195.5C 371.833,195.5 371.167,195.5 370.5,195.5C 371.5,193.833 372.833,192.5 374.5,191.5 Z"/></g>
<g><path style="opacity:0.004" fill="#000000" d="M 468.5,191.5 C 469.833,192.167 469.833,192.167 468.5,191.5 Z"/></g>
<g><path style="opacity:0.008" fill="#000000" d="M 61.5,194.5 C 61.8333,194.5 62.1667,194.5 62.5,194.5C 62.3147,195.17 61.9813,195.17 61.5,194.5 Z"/></g>
<g><path style="opacity:0.004" fill="#000000" d="M 467.5,194.5 C 468.833,195.167 468.833,195.167 467.5,194.5 Z"/></g>
<g><path style="opacity:0.004" fill="#000000" d="M 370.5,195.5 C 370.5,196.167 370.5,196.833 370.5,197.5C 369.833,197.5 369.5,197.833 369.5,198.5C 368.833,198.5 368.5,198.833 368.5,199.5C 367.833,199.5 367.167,199.5 366.5,199.5C 367.5,197.833 368.833,196.5 370.5,195.5 Z"/></g>
<g><path style="opacity:0.004" fill="#000000" d="M 467.5,195.5 C 466.833,196.167 466.833,196.167 467.5,195.5 Z"/></g>
<g><path style="opacity:0.004" fill="#000000" d="M 62.5,196.5 C 63.8333,197.167 63.8333,197.167 62.5,196.5 Z"/></g>
<g><path style="opacity:0.008" fill="#000000" d="M 466.5,196.5 C 465.833,197.167 465.833,197.167 466.5,196.5 Z"/></g>
<g><path style="opacity:0.008" fill="#000000" d="M 465.5,197.5 C 464.833,198.167 464.833,198.167 465.5,197.5 Z"/></g>
<g><path style="opacity:0.004" fill="#000000" d="M 463.5,198.5 C 463.833,198.5 464.167,198.5 464.5,198.5C 464.5,200.5 463.5,201.5 461.5,201.5C 461.5,201.167 461.5,200.833 461.5,200.5C 462.167,200.5 462.5,200.167 462.5,199.5C 463.167,199.5 463.5,199.167 463.5,198.5 Z"/></g>
<g><path style="opacity:0.004" fill="#000000" d="M 366.5,199.5 C 366.5,200.167 366.5,200.833 366.5,201.5C 365.833,201.5 365.5,201.833 365.5,202.5C 364.833,202.5 364.5,202.833 364.5,203.5C 363.833,203.5 363.167,203.5 362.5,203.5C 363.5,201.833 364.833,200.5 366.5,199.5 Z"/></g>
<g><path style="opacity:0.008" fill="#000000" d="M 460.5,201.5 C 460.833,201.5 461.167,201.5 461.5,201.5C 461.315,202.17 460.981,202.17 460.5,201.5 Z"/></g>
<g><path style="opacity:0.004" fill="#000000" d="M 459.5,202.5 C 459.833,202.5 460.167,202.5 460.5,202.5C 460.5,204.5 459.5,205.5 457.5,205.5C 457.5,205.167 457.5,204.833 457.5,204.5C 458.167,204.5 458.5,204.167 458.5,203.5C 459.167,203.5 459.5,203.167 459.5,202.5 Z"/></g>
<g><path style="opacity:0.004" fill="#000000" d="M 362.5,203.5 C 362.5,204.167 362.5,204.833 362.5,205.5C 361.833,205.5 361.5,205.833 361.5,206.5C 360.833,206.5 360.5,206.833 360.5,207.5C 359.833,207.5 359.167,207.5 358.5,207.5C 359.5,205.833 360.833,204.5 362.5,203.5 Z"/></g>
<g><path style="opacity:0.008" fill="#000000" d="M 456.5,205.5 C 456.833,205.5 457.167,205.5 457.5,205.5C 457.315,206.17 456.981,206.17 456.5,205.5 Z"/></g>
<g><path style="opacity:0.004" fill="#000000" d="M 455.5,206.5 C 455.833,206.5 456.167,206.5 456.5,206.5C 456.5,208.5 455.5,209.5 453.5,209.5C 453.5,209.167 453.5,208.833 453.5,208.5C 454.167,208.5 454.5,208.167 454.5,207.5C 455.167,207.5 455.5,207.167 455.5,206.5 Z"/></g>
<g><path style="opacity:0.004" fill="#000000" d="M 358.5,207.5 C 358.5,208.167 358.5,208.833 358.5,209.5C 357.833,209.5 357.5,209.833 357.5,210.5C 356.833,210.5 356.5,210.833 356.5,211.5C 355.833,211.5 355.167,211.5 354.5,211.5C 355.5,209.833 356.833,208.5 358.5,207.5 Z"/></g>
<g><path style="opacity:0.008" fill="#000000" d="M 452.5,209.5 C 452.833,209.5 453.167,209.5 453.5,209.5C 453.315,210.17 452.981,210.17 452.5,209.5 Z"/></g>
<g><path style="opacity:0.004" fill="#000000" d="M 451.5,210.5 C 451.833,210.5 452.167,210.5 452.5,210.5C 452.5,212.5 451.5,213.5 449.5,213.5C 449.5,213.167 449.5,212.833 449.5,212.5C 450.167,212.5 450.5,212.167 450.5,211.5C 451.167,211.5 451.5,211.167 451.5,210.5 Z"/></g>
<g><path style="opacity:0.004" fill="#000000" d="M 354.5,211.5 C 354.5,212.167 354.5,212.833 354.5,213.5C 353.833,213.5 353.5,213.833 353.5,214.5C 352.833,214.5 352.5,214.833 352.5,215.5C 351.833,215.5 351.167,215.5 350.5,215.5C 351.5,213.833 352.833,212.5 354.5,211.5 Z"/></g>
<g><path style="opacity:0.008" fill="#000000" d="M 448.5,213.5 C 448.833,213.5 449.167,213.5 449.5,213.5C 449.315,214.17 448.981,214.17 448.5,213.5 Z"/></g>
<g><path style="opacity:0.004" fill="#000000" d="M 447.5,214.5 C 447.833,214.5 448.167,214.5 448.5,214.5C 448.5,216.5 447.5,217.5 445.5,217.5C 445.5,217.167 445.5,216.833 445.5,216.5C 446.167,216.5 446.5,216.167 446.5,215.5C 447.167,215.5 447.5,215.167 447.5,214.5 Z"/></g>
<g><path style="opacity:0.004" fill="#000000" d="M 350.5,215.5 C 350.5,216.167 350.5,216.833 350.5,217.5C 349.833,217.5 349.5,217.833 349.5,218.5C 348.833,218.5 348.5,218.833 348.5,219.5C 347.833,219.5 347.167,219.5 346.5,219.5C 347.5,217.833 348.833,216.5 350.5,215.5 Z"/></g>
<g><path style="opacity:0.008" fill="#000000" d="M 444.5,217.5 C 444.833,217.5 445.167,217.5 445.5,217.5C 445.315,218.17 444.981,218.17 444.5,217.5 Z"/></g>
<g><path style="opacity:0.004" fill="#000000" d="M 443.5,218.5 C 443.833,218.5 444.167,218.5 444.5,218.5C 444.5,220.5 443.5,221.5 441.5,221.5C 441.5,221.167 441.5,220.833 441.5,220.5C 442.167,220.5 442.5,220.167 442.5,219.5C 443.167,219.5 443.5,219.167 443.5,218.5 Z"/></g>
<g><path style="opacity:0.004" fill="#000000" d="M 346.5,219.5 C 346.5,220.167 346.5,220.833 346.5,221.5C 345.833,221.5 345.5,221.833 345.5,222.5C 344.833,222.5 344.5,222.833 344.5,223.5C 343.833,223.5 343.167,223.5 342.5,223.5C 343.5,221.833 344.833,220.5 346.5,219.5 Z"/></g>
<g><path style="opacity:0.008" fill="#000000" d="M 440.5,221.5 C 440.833,221.5 441.167,221.5 441.5,221.5C 441.315,222.17 440.981,222.17 440.5,221.5 Z"/></g>
<g><path style="opacity:0.004" fill="#000000" d="M 439.5,222.5 C 439.833,222.5 440.167,222.5 440.5,222.5C 440.5,224.5 439.5,225.5 437.5,225.5C 437.5,225.167 437.5,224.833 437.5,224.5C 438.167,224.5 438.5,224.167 438.5,223.5C 439.167,223.5 439.5,223.167 439.5,222.5 Z"/></g>
<g><path style="opacity:0.004" fill="#000000" d="M 342.5,223.5 C 342.5,224.167 342.5,224.833 342.5,225.5C 341.833,225.5 341.5,225.833 341.5,226.5C 340.833,226.5 340.5,226.833 340.5,227.5C 339.833,227.5 339.167,227.5 338.5,227.5C 339.5,225.833 340.833,224.5 342.5,223.5 Z"/></g>
<g><path style="opacity:0.008" fill="#000000" d="M 436.5,225.5 C 436.833,225.5 437.167,225.5 437.5,225.5C 437.315,226.17 436.981,226.17 436.5,225.5 Z"/></g>
<g><path style="opacity:0.004" fill="#000000" d="M 435.5,226.5 C 435.833,226.5 436.167,226.5 436.5,226.5C 436.5,228.5 435.5,229.5 433.5,229.5C 433.5,229.167 433.5,228.833 433.5,228.5C 434.167,228.5 434.5,228.167 434.5,227.5C 435.167,227.5 435.5,227.167 435.5,226.5 Z"/></g>
<g><path style="opacity:0.004" fill="#000000" d="M 338.5,227.5 C 338.5,228.167 338.5,228.833 338.5,229.5C 337.833,229.5 337.5,229.833 337.5,230.5C 336.833,230.5 336.5,230.833 336.5,231.5C 335.833,231.5 335.167,231.5 334.5,231.5C 335.5,229.833 336.833,228.5 338.5,227.5 Z"/></g>
<g><path style="opacity:0.008" fill="#000000" d="M 432.5,229.5 C 432.833,229.5 433.167,229.5 433.5,229.5C 433.315,230.17 432.981,230.17 432.5,229.5 Z"/></g>
<g><path style="opacity:0.004" fill="#000000" d="M 431.5,230.5 C 431.833,230.5 432.167,230.5 432.5,230.5C 432.5,232.5 431.5,233.5 429.5,233.5C 429.5,233.167 429.5,232.833 429.5,232.5C 430.167,232.5 430.5,232.167 430.5,231.5C 431.167,231.5 431.5,231.167 431.5,230.5 Z"/></g>
<g><path style="opacity:0.004" fill="#000000" d="M 334.5,231.5 C 334.5,232.167 334.5,232.833 334.5,233.5C 333.833,233.5 333.5,233.833 333.5,234.5C 332.833,234.5 332.5,234.833 332.5,235.5C 331.833,235.5 331.167,235.5 330.5,235.5C 331.5,233.833 332.833,232.5 334.5,231.5 Z"/></g>
<g><path style="opacity:0.008" fill="#000000" d="M 428.5,233.5 C 428.833,233.5 429.167,233.5 429.5,233.5C 429.315,234.17 428.981,234.17 428.5,233.5 Z"/></g>
<g><path style="opacity:0.004" fill="#000000" d="M 427.5,234.5 C 427.833,234.5 428.167,234.5 428.5,234.5C 428.5,236.5 427.5,237.5 425.5,237.5C 425.5,237.167 425.5,236.833 425.5,236.5C 426.167,236.5 426.5,236.167 426.5,235.5C 427.167,235.5 427.5,235.167 427.5,234.5 Z"/></g>
<g><path style="opacity:0.004" fill="#000000" d="M 330.5,235.5 C 330.5,236.167 330.5,236.833 330.5,237.5C 329.833,237.5 329.5,237.833 329.5,238.5C 328.833,238.5 328.5,238.833 328.5,239.5C 327.833,239.5 327.167,239.5 326.5,239.5C 327.5,237.833 328.833,236.5 330.5,235.5 Z"/></g>
<g><path style="opacity:0.008" fill="#000000" d="M 424.5,237.5 C 424.833,237.5 425.167,237.5 425.5,237.5C 425.315,238.17 424.981,238.17 424.5,237.5 Z"/></g>
<g><path style="opacity:0.004" fill="#000000" d="M 423.5,238.5 C 423.833,238.5 424.167,238.5 424.5,238.5C 424.5,240.5 423.5,241.5 421.5,241.5C 421.5,241.167 421.5,240.833 421.5,240.5C 422.167,240.5 422.5,240.167 422.5,239.5C 423.167,239.5 423.5,239.167 423.5,238.5 Z"/></g>
<g><path style="opacity:0.004" fill="#000000" d="M 326.5,239.5 C 326.5,240.167 326.5,240.833 326.5,241.5C 325.833,241.5 325.5,241.833 325.5,242.5C 324.833,242.5 324.5,242.833 324.5,243.5C 323.833,243.5 323.167,243.5 322.5,243.5C 323.5,241.833 324.833,240.5 326.5,239.5 Z"/></g>
<g><path style="opacity:0.008" fill="#000000" d="M 420.5,241.5 C 420.833,241.5 421.167,241.5 421.5,241.5C 421.315,242.17 420.981,242.17 420.5,241.5 Z"/></g>
<g><path style="opacity:0.004" fill="#000000" d="M 419.5,242.5 C 419.833,242.5 420.167,242.5 420.5,242.5C 420.5,244.5 419.5,245.5 417.5,245.5C 417.5,245.167 417.5,244.833 417.5,244.5C 418.167,244.5 418.5,244.167 418.5,243.5C 419.167,243.5 419.5,243.167 419.5,242.5 Z"/></g>
<g><path style="opacity:0.004" fill="#000000" d="M 322.5,243.5 C 322.5,244.167 322.5,244.833 322.5,245.5C 321.833,245.5 321.5,245.833 321.5,246.5C 320.833,246.5 320.5,246.833 320.5,247.5C 319.833,247.5 319.167,247.5 318.5,247.5C 319.5,245.833 320.833,244.5 322.5,243.5 Z"/></g>
<g><path style="opacity:0.008" fill="#000000" d="M 416.5,245.5 C 416.833,245.5 417.167,245.5 417.5,245.5C 417.315,246.17 416.981,246.17 416.5,245.5 Z"/></g>
<g><path style="opacity:0.004" fill="#000000" d="M 415.5,246.5 C 415.833,246.5 416.167,246.5 416.5,246.5C 416.5,248.5 415.5,249.5 413.5,249.5C 413.5,249.167 413.5,248.833 413.5,248.5C 414.167,248.5 414.5,248.167 414.5,247.5C 415.167,247.5 415.5,247.167 415.5,246.5 Z"/></g>
<g><path style="opacity:0.004" fill="#000000" d="M 318.5,247.5 C 318.5,248.167 318.5,248.833 318.5,249.5C 317.833,249.5 317.5,249.833 317.5,250.5C 316.833,250.5 316.5,250.833 316.5,251.5C 315.833,251.5 315.167,251.5 314.5,251.5C 315.5,249.833 316.833,248.5 318.5,247.5 Z"/></g>
<g><path style="opacity:0.008" fill="#000000" d="M 412.5,249.5 C 412.833,249.5 413.167,249.5 413.5,249.5C 413.315,250.17 412.981,250.17 412.5,249.5 Z"/></g>
<g><path style="opacity:0.004" fill="#000000" d="M 411.5,250.5 C 411.833,250.5 412.167,250.5 412.5,250.5C 412.5,252.5 411.5,253.5 409.5,253.5C 409.5,253.167 409.5,252.833 409.5,252.5C 410.167,252.5 410.5,252.167 410.5,251.5C 411.167,251.5 411.5,251.167 411.5,250.5 Z"/></g>
<g><path style="opacity:0.004" fill="#000000" d="M 314.5,251.5 C 314.5,252.167 314.5,252.833 314.5,253.5C 313.833,253.5 313.5,253.833 313.5,254.5C 312.833,254.5 312.5,254.833 312.5,255.5C 311.833,255.5 311.167,255.5 310.5,255.5C 311.5,253.833 312.833,252.5 314.5,251.5 Z"/></g>
<g><path style="opacity:0.008" fill="#000000" d="M 408.5,253.5 C 408.833,253.5 409.167,253.5 409.5,253.5C 409.315,254.17 408.981,254.17 408.5,253.5 Z"/></g>
<g><path style="opacity:0.004" fill="#000000" d="M 407.5,254.5 C 407.833,254.5 408.167,254.5 408.5,254.5C 408.5,256.5 407.5,257.5 405.5,257.5C 405.5,257.167 405.5,256.833 405.5,256.5C 406.167,256.5 406.5,256.167 406.5,255.5C 407.167,255.5 407.5,255.167 407.5,254.5 Z"/></g>
<g><path style="opacity:0.004" fill="#000000" d="M 310.5,255.5 C 310.5,256.167 310.5,256.833 310.5,257.5C 309.833,257.5 309.5,257.833 309.5,258.5C 308.833,258.5 308.5,258.833 308.5,259.5C 307.833,259.5 307.167,259.5 306.5,259.5C 307.5,257.833 308.833,256.5 310.5,255.5 Z"/></g>
<g><path style="opacity:0.008" fill="#000000" d="M 404.5,257.5 C 404.833,257.5 405.167,257.5 405.5,257.5C 405.315,258.17 404.981,258.17 404.5,257.5 Z"/></g>
<g><path style="opacity:0.004" fill="#000000" d="M 403.5,258.5 C 403.833,258.5 404.167,258.5 404.5,258.5C 404.5,260.5 403.5,261.5 401.5,261.5C 401.5,261.167 401.5,260.833 401.5,260.5C 402.167,260.5 402.5,260.167 402.5,259.5C 403.167,259.5 403.5,259.167 403.5,258.5 Z"/></g>
<g><path style="opacity:0.004" fill="#000000" d="M 306.5,259.5 C 306.5,260.167 306.5,260.833 306.5,261.5C 305.833,261.5 305.5,261.833 305.5,262.5C 304.833,262.5 304.5,262.833 304.5,263.5C 303.833,263.5 303.167,263.5 302.5,263.5C 303.5,261.833 304.833,260.5 306.5,259.5 Z"/></g>
<g><path style="opacity:0.008" fill="#000000" d="M 400.5,261.5 C 400.833,261.5 401.167,261.5 401.5,261.5C 401.315,262.17 400.981,262.17 400.5,261.5 Z"/></g>
<g><path style="opacity:0.004" fill="#000000" d="M 399.5,262.5 C 399.833,262.5 400.167,262.5 400.5,262.5C 400.5,264.5 399.5,265.5 397.5,265.5C 397.5,265.167 397.5,264.833 397.5,264.5C 398.167,264.5 398.5,264.167 398.5,263.5C 399.167,263.5 399.5,263.167 399.5,262.5 Z"/></g>
<g><path style="opacity:0.141" fill="#8a8a8a" d="M 64.5,195.5 C 126.5,256.833 188.167,318.5 249.5,380.5C 248.833,380.5 248.167,380.5 247.5,380.5C 186.868,319.368 126.035,258.368 65,197.5C 64.5357,196.906 64.369,196.239 64.5,195.5 Z"/></g>
<g><path style="opacity:0.004" fill="#000000" d="M 302.5,263.5 C 302.5,264.167 302.5,264.833 302.5,265.5C 301.833,265.5 301.5,265.833 301.5,266.5C 300.833,266.5 300.5,266.833 300.5,267.5C 299.833,267.5 299.167,267.5 298.5,267.5C 299.5,265.833 300.833,264.5 302.5,263.5 Z"/></g>
<g><path style="opacity:0.008" fill="#000000" d="M 396.5,265.5 C 396.833,265.5 397.167,265.5 397.5,265.5C 397.315,266.17 396.981,266.17 396.5,265.5 Z"/></g>
<g><path style="opacity:0.004" fill="#000000" d="M 395.5,266.5 C 395.833,266.5 396.167,266.5 396.5,266.5C 396.5,268.5 395.5,269.5 393.5,269.5C 393.5,269.167 393.5,268.833 393.5,268.5C 394.167,268.5 394.5,268.167 394.5,267.5C 395.167,267.5 395.5,267.167 395.5,266.5 Z"/></g>
<g><path style="opacity:0.004" fill="#000000" d="M 298.5,267.5 C 298.5,268.167 298.5,268.833 298.5,269.5C 297.833,269.5 297.5,269.833 297.5,270.5C 296.833,270.5 296.5,270.833 296.5,271.5C 295.833,271.5 295.167,271.5 294.5,271.5C 295.5,269.833 296.833,268.5 298.5,267.5 Z"/></g>
<g><path style="opacity:0.008" fill="#000000" d="M 392.5,269.5 C 392.833,269.5 393.167,269.5 393.5,269.5C 393.315,270.17 392.981,270.17 392.5,269.5 Z"/></g>
<g><path style="opacity:0.004" fill="#000000" d="M 391.5,270.5 C 391.833,270.5 392.167,270.5 392.5,270.5C 392.5,272.5 391.5,273.5 389.5,273.5C 389.5,273.167 389.5,272.833 389.5,272.5C 390.167,272.5 390.5,272.167 390.5,271.5C 391.167,271.5 391.5,271.167 391.5,270.5 Z"/></g>
<g><path style="opacity:0.004" fill="#000000" d="M 294.5,271.5 C 294.5,272.167 294.5,272.833 294.5,273.5C 293.833,273.5 293.5,273.833 293.5,274.5C 292.833,274.5 292.5,274.833 292.5,275.5C 291.833,275.5 291.167,275.5 290.5,275.5C 291.5,273.833 292.833,272.5 294.5,271.5 Z"/></g>
<g><path style="opacity:0.008" fill="#000000" d="M 388.5,273.5 C 388.833,273.5 389.167,273.5 389.5,273.5C 389.315,274.17 388.981,274.17 388.5,273.5 Z"/></g>
<g><path style="opacity:0.004" fill="#000000" d="M 387.5,274.5 C 387.833,274.5 388.167,274.5 388.5,274.5C 388.5,276.5 387.5,277.5 385.5,277.5C 385.5,277.167 385.5,276.833 385.5,276.5C 386.167,276.5 386.5,276.167 386.5,275.5C 387.167,275.5 387.5,275.167 387.5,274.5 Z"/></g>
<g><path style="opacity:0.004" fill="#000000" d="M 290.5,275.5 C 290.5,276.167 290.5,276.833 290.5,277.5C 289.833,277.5 289.5,277.833 289.5,278.5C 288.833,278.5 288.5,278.833 288.5,279.5C 287.833,279.5 287.167,279.5 286.5,279.5C 287.5,277.833 288.833,276.5 290.5,275.5 Z"/></g>
<g><path style="opacity:0.008" fill="#000000" d="M 384.5,277.5 C 384.833,277.5 385.167,277.5 385.5,277.5C 385.315,278.17 384.981,278.17 384.5,277.5 Z"/></g>
<g><path style="opacity:0.004" fill="#000000" d="M 383.5,278.5 C 383.833,278.5 384.167,278.5 384.5,278.5C 384.5,280.5 383.5,281.5 381.5,281.5C 381.5,281.167 381.5,280.833 381.5,280.5C 382.167,280.5 382.5,280.167 382.5,279.5C 383.167,279.5 383.5,279.167 383.5,278.5 Z"/></g>
<g><path style="opacity:0.004" fill="#000000" d="M 286.5,279.5 C 286.5,280.167 286.5,280.833 286.5,281.5C 285.833,281.5 285.5,281.833 285.5,282.5C 284.833,282.5 284.5,282.833 284.5,283.5C 283.833,283.5 283.167,283.5 282.5,283.5C 283.5,281.833 284.833,280.5 286.5,279.5 Z"/></g>
<g><path style="opacity:0.008" fill="#000000" d="M 380.5,281.5 C 380.833,281.5 381.167,281.5 381.5,281.5C 381.315,282.17 380.981,282.17 380.5,281.5 Z"/></g>
<g><path style="opacity:0.004" fill="#000000" d="M 379.5,282.5 C 379.833,282.5 380.167,282.5 380.5,282.5C 380.5,284.5 379.5,285.5 377.5,285.5C 377.5,285.167 377.5,284.833 377.5,284.5C 378.167,284.5 378.5,284.167 378.5,283.5C 379.167,283.5 379.5,283.167 379.5,282.5 Z"/></g>
<g><path style="opacity:0.004" fill="#000000" d="M 282.5,283.5 C 282.5,284.167 282.5,284.833 282.5,285.5C 281.833,285.5 281.5,285.833 281.5,286.5C 280.833,286.5 280.5,286.833 280.5,287.5C 279.833,287.5 279.167,287.5 278.5,287.5C 279.5,285.833 280.833,284.5 282.5,283.5 Z"/></g>
<g><path style="opacity:0.008" fill="#000000" d="M 376.5,285.5 C 376.833,285.5 377.167,285.5 377.5,285.5C 377.315,286.17 376.981,286.17 376.5,285.5 Z"/></g>
<g><path style="opacity:0.004" fill="#000000" d="M 375.5,286.5 C 375.833,286.5 376.167,286.5 376.5,286.5C 376.5,288.5 375.5,289.5 373.5,289.5C 373.5,289.167 373.5,288.833 373.5,288.5C 374.167,288.5 374.5,288.167 374.5,287.5C 375.167,287.5 375.5,287.167 375.5,286.5 Z"/></g>
<g><path style="opacity:0.004" fill="#000000" d="M 278.5,287.5 C 278.5,288.167 278.5,288.833 278.5,289.5C 277.833,289.5 277.5,289.833 277.5,290.5C 276.833,290.5 276.5,290.833 276.5,291.5C 275.833,291.5 275.167,291.5 274.5,291.5C 275.5,289.833 276.833,288.5 278.5,287.5 Z"/></g>
<g><path style="opacity:0.008" fill="#000000" d="M 372.5,289.5 C 372.833,289.5 373.167,289.5 373.5,289.5C 373.315,290.17 372.981,290.17 372.5,289.5 Z"/></g>
<g><path style="opacity:0.004" fill="#000000" d="M 371.5,290.5 C 371.833,290.5 372.167,290.5 372.5,290.5C 372.5,292.5 371.5,293.5 369.5,293.5C 369.5,293.167 369.5,292.833 369.5,292.5C 370.167,292.5 370.5,292.167 370.5,291.5C 371.167,291.5 371.5,291.167 371.5,290.5 Z"/></g>
<g><path style="opacity:0.004" fill="#000000" d="M 274.5,291.5 C 274.5,292.167 274.5,292.833 274.5,293.5C 273.833,293.5 273.5,293.833 273.5,294.5C 272.833,294.5 272.5,294.833 272.5,295.5C 271.833,295.5 271.167,295.5 270.5,295.5C 271.5,293.833 272.833,292.5 274.5,291.5 Z"/></g>
<g><path style="opacity:0.008" fill="#000000" d="M 368.5,293.5 C 368.833,293.5 369.167,293.5 369.5,293.5C 369.315,294.17 368.981,294.17 368.5,293.5 Z"/></g>
<g><path style="opacity:0.004" fill="#000000" d="M 367.5,294.5 C 367.833,294.5 368.167,294.5 368.5,294.5C 368.5,296.5 367.5,297.5 365.5,297.5C 365.5,297.167 365.5,296.833 365.5,296.5C 366.167,296.5 366.5,296.167 366.5,295.5C 367.167,295.5 367.5,295.167 367.5,294.5 Z"/></g>
<g><path style="opacity:0.004" fill="#000000" d="M 270.5,295.5 C 270.5,296.167 270.5,296.833 270.5,297.5C 269.833,297.5 269.5,297.833 269.5,298.5C 268.833,298.5 268.5,298.833 268.5,299.5C 267.833,299.5 267.167,299.5 266.5,299.5C 267.5,297.833 268.833,296.5 270.5,295.5 Z"/></g>
<g><path style="opacity:0.008" fill="#000000" d="M 364.5,297.5 C 364.833,297.5 365.167,297.5 365.5,297.5C 365.315,298.17 364.981,298.17 364.5,297.5 Z"/></g>
<g><path style="opacity:0.004" fill="#000000" d="M 363.5,298.5 C 363.833,298.5 364.167,298.5 364.5,298.5C 364.5,300.5 363.5,301.5 361.5,301.5C 361.5,301.167 361.5,300.833 361.5,300.5C 362.167,300.5 362.5,300.167 362.5,299.5C 363.167,299.5 363.5,299.167 363.5,298.5 Z"/></g>
<g><path style="opacity:0.004" fill="#000000" d="M 266.5,299.5 C 266.5,300.167 266.5,300.833 266.5,301.5C 265.833,301.5 265.5,301.833 265.5,302.5C 264.5,302.167 263.833,301.5 263.5,300.5C 264.609,300.443 265.609,300.11 266.5,299.5 Z"/></g>
<g><path style="opacity:0.008" fill="#000000" d="M 360.5,301.5 C 360.833,301.5 361.167,301.5 361.5,301.5C 361.315,302.17 360.981,302.17 360.5,301.5 Z"/></g>
<g><path style="opacity:0.004" fill="#000000" d="M 359.5,302.5 C 359.833,302.5 360.167,302.5 360.5,302.5C 360.5,304.5 359.5,305.5 357.5,305.5C 357.5,305.167 357.5,304.833 357.5,304.5C 358.167,304.5 358.5,304.167 358.5,303.5C 359.167,303.5 359.5,303.167 359.5,302.5 Z"/></g>
<g><path style="opacity:0.008" fill="#000000" d="M 356.5,305.5 C 356.833,305.5 357.167,305.5 357.5,305.5C 357.315,306.17 356.981,306.17 356.5,305.5 Z"/></g>
<g><path style="opacity:0.004" fill="#000000" d="M 355.5,306.5 C 355.833,306.5 356.167,306.5 356.5,306.5C 356.5,308.5 355.5,309.5 353.5,309.5C 353.5,309.167 353.5,308.833 353.5,308.5C 354.167,308.5 354.5,308.167 354.5,307.5C 355.167,307.5 355.5,307.167 355.5,306.5 Z"/></g>
<g><path style="opacity:0.008" fill="#000000" d="M 352.5,309.5 C 352.833,309.5 353.167,309.5 353.5,309.5C 353.315,310.17 352.981,310.17 352.5,309.5 Z"/></g>
<g><path style="opacity:0.004" fill="#000000" d="M 351.5,310.5 C 351.833,310.5 352.167,310.5 352.5,310.5C 352.5,312.5 351.5,313.5 349.5,313.5C 349.5,313.167 349.5,312.833 349.5,312.5C 350.167,312.5 350.5,312.167 350.5,311.5C 351.167,311.5 351.5,311.167 351.5,310.5 Z"/></g>
<g><path style="opacity:0.008" fill="#000000" d="M 348.5,313.5 C 348.833,313.5 349.167,313.5 349.5,313.5C 349.315,314.17 348.981,314.17 348.5,313.5 Z"/></g>
<g><path style="opacity:0.004" fill="#000000" d="M 347.5,314.5 C 347.833,314.5 348.167,314.5 348.5,314.5C 348.5,316.5 347.5,317.5 345.5,317.5C 345.5,317.167 345.5,316.833 345.5,316.5C 346.167,316.5 346.5,316.167 346.5,315.5C 347.167,315.5 347.5,315.167 347.5,314.5 Z"/></g>
<g><path style="opacity:0.008" fill="#000000" d="M 344.5,317.5 C 344.833,317.5 345.167,317.5 345.5,317.5C 345.315,318.17 344.981,318.17 344.5,317.5 Z"/></g>
<g><path style="opacity:0.004" fill="#000000" d="M 343.5,318.5 C 343.833,318.5 344.167,318.5 344.5,318.5C 344.5,320.5 343.5,321.5 341.5,321.5C 341.5,321.167 341.5,320.833 341.5,320.5C 342.167,320.5 342.5,320.167 342.5,319.5C 343.167,319.5 343.5,319.167 343.5,318.5 Z"/></g>
<g><path style="opacity:0.008" fill="#000000" d="M 340.5,321.5 C 340.833,321.5 341.167,321.5 341.5,321.5C 341.315,322.17 340.981,322.17 340.5,321.5 Z"/></g>
<g><path style="opacity:0.004" fill="#000000" d="M 339.5,322.5 C 339.833,322.5 340.167,322.5 340.5,322.5C 340.5,324.5 339.5,325.5 337.5,325.5C 337.5,325.167 337.5,324.833 337.5,324.5C 338.167,324.5 338.5,324.167 338.5,323.5C 339.167,323.5 339.5,323.167 339.5,322.5 Z"/></g>
<g><path style="opacity:0.008" fill="#000000" d="M 336.5,325.5 C 336.833,325.5 337.167,325.5 337.5,325.5C 337.315,326.17 336.981,326.17 336.5,325.5 Z"/></g>
<g><path style="opacity:0.004" fill="#000000" d="M 335.5,326.5 C 335.833,326.5 336.167,326.5 336.5,326.5C 336.5,328.5 335.5,329.5 333.5,329.5C 333.5,329.167 333.5,328.833 333.5,328.5C 334.167,328.5 334.5,328.167 334.5,327.5C 335.167,327.5 335.5,327.167 335.5,326.5 Z"/></g>
<g><path style="opacity:0.008" fill="#000000" d="M 332.5,329.5 C 332.833,329.5 333.167,329.5 333.5,329.5C 333.315,330.17 332.981,330.17 332.5,329.5 Z"/></g>
<g><path style="opacity:0.004" fill="#000000" d="M 331.5,330.5 C 331.833,330.5 332.167,330.5 332.5,330.5C 332.5,332.5 331.5,333.5 329.5,333.5C 329.5,333.167 329.5,332.833 329.5,332.5C 330.167,332.5 330.5,332.167 330.5,331.5C 331.167,331.5 331.5,331.167 331.5,330.5 Z"/></g>
<g><path style="opacity:0.008" fill="#000000" d="M 328.5,333.5 C 328.833,333.5 329.167,333.5 329.5,333.5C 329.315,334.17 328.981,334.17 328.5,333.5 Z"/></g>
<g><path style="opacity:0.004" fill="#000000" d="M 327.5,334.5 C 327.833,334.5 328.167,334.5 328.5,334.5C 328.5,336.5 327.5,337.5 325.5,337.5C 325.5,337.167 325.5,336.833 325.5,336.5C 326.167,336.5 326.5,336.167 326.5,335.5C 327.167,335.5 327.5,335.167 327.5,334.5 Z"/></g>
<g><path style="opacity:0.008" fill="#000000" d="M 324.5,337.5 C 324.833,337.5 325.167,337.5 325.5,337.5C 325.315,338.17 324.981,338.17 324.5,337.5 Z"/></g>
<g><path style="opacity:0.004" fill="#000000" d="M 323.5,338.5 C 323.833,338.5 324.167,338.5 324.5,338.5C 324.5,340.5 323.5,341.5 321.5,341.5C 321.5,341.167 321.5,340.833 321.5,340.5C 322.167,340.5 322.5,340.167 322.5,339.5C 323.167,339.5 323.5,339.167 323.5,338.5 Z"/></g>
<g><path style="opacity:0.008" fill="#000000" d="M 320.5,341.5 C 320.833,341.5 321.167,341.5 321.5,341.5C 321.315,342.17 320.981,342.17 320.5,341.5 Z"/></g>
<g><path style="opacity:0.004" fill="#000000" d="M 319.5,342.5 C 319.833,342.5 320.167,342.5 320.5,342.5C 320.5,344.5 319.5,345.5 317.5,345.5C 317.5,345.167 317.5,344.833 317.5,344.5C 318.167,344.5 318.5,344.167 318.5,343.5C 319.167,343.5 319.5,343.167 319.5,342.5 Z"/></g>
<g><path style="opacity:0.008" fill="#000000" d="M 316.5,345.5 C 316.833,345.5 317.167,345.5 317.5,345.5C 317.315,346.17 316.981,346.17 316.5,345.5 Z"/></g>
<g><path style="opacity:0.004" fill="#000000" d="M 315.5,346.5 C 315.833,346.5 316.167,346.5 316.5,346.5C 316.5,348.5 315.5,349.5 313.5,349.5C 313.5,349.167 313.5,348.833 313.5,348.5C 314.167,348.5 314.5,348.167 314.5,347.5C 315.167,347.5 315.5,347.167 315.5,346.5 Z"/></g>
<g><path style="opacity:0.008" fill="#000000" d="M 312.5,349.5 C 312.833,349.5 313.167,349.5 313.5,349.5C 313.315,350.17 312.981,350.17 312.5,349.5 Z"/></g>
<g><path style="opacity:0.004" fill="#000000" d="M 311.5,350.5 C 311.833,350.5 312.167,350.5 312.5,350.5C 312.5,352.5 311.5,353.5 309.5,353.5C 309.5,353.167 309.5,352.833 309.5,352.5C 310.167,352.5 310.5,352.167 310.5,351.5C 311.167,351.5 311.5,351.167 311.5,350.5 Z"/></g>
<g><path style="opacity:0.008" fill="#000000" d="M 308.5,353.5 C 308.833,353.5 309.167,353.5 309.5,353.5C 309.315,354.17 308.981,354.17 308.5,353.5 Z"/></g>
<g><path style="opacity:0.004" fill="#000000" d="M 307.5,354.5 C 307.833,354.5 308.167,354.5 308.5,354.5C 308.5,356.5 307.5,357.5 305.5,357.5C 305.5,357.167 305.5,356.833 305.5,356.5C 306.167,356.5 306.5,356.167 306.5,355.5C 307.167,355.5 307.5,355.167 307.5,354.5 Z"/></g>
<g><path style="opacity:0.008" fill="#000000" d="M 304.5,357.5 C 304.833,357.5 305.167,357.5 305.5,357.5C 305.315,358.17 304.981,358.17 304.5,357.5 Z"/></g>
<g><path style="opacity:0.004" fill="#000000" d="M 303.5,358.5 C 303.833,358.5 304.167,358.5 304.5,358.5C 304.5,360.5 303.5,361.5 301.5,361.5C 301.5,361.167 301.5,360.833 301.5,360.5C 302.167,360.5 302.5,360.167 302.5,359.5C 303.167,359.5 303.5,359.167 303.5,358.5 Z"/></g>
<g><path style="opacity:0.008" fill="#000000" d="M 300.5,361.5 C 300.833,361.5 301.167,361.5 301.5,361.5C 301.315,362.17 300.981,362.17 300.5,361.5 Z"/></g>
<g><path style="opacity:0.004" fill="#000000" d="M 299.5,362.5 C 299.833,362.5 300.167,362.5 300.5,362.5C 300.5,364.5 299.5,365.5 297.5,365.5C 297.5,365.167 297.5,364.833 297.5,364.5C 298.167,364.5 298.5,364.167 298.5,363.5C 299.167,363.5 299.5,363.167 299.5,362.5 Z"/></g>
<g><path style="opacity:0.008" fill="#000000" d="M 296.5,365.5 C 296.833,365.5 297.167,365.5 297.5,365.5C 297.315,366.17 296.981,366.17 296.5,365.5 Z"/></g>
<g><path style="opacity:0.004" fill="#000000" d="M 295.5,366.5 C 295.833,366.5 296.167,366.5 296.5,366.5C 296.5,368.5 295.5,369.5 293.5,369.5C 293.5,369.167 293.5,368.833 293.5,368.5C 294.167,368.5 294.5,368.167 294.5,367.5C 295.167,367.5 295.5,367.167 295.5,366.5 Z"/></g>
<g><path style="opacity:0.008" fill="#000000" d="M 292.5,369.5 C 292.833,369.5 293.167,369.5 293.5,369.5C 293.315,370.17 292.981,370.17 292.5,369.5 Z"/></g>
<g><path style="opacity:0.004" fill="#000000" d="M 291.5,370.5 C 291.833,370.5 292.167,370.5 292.5,370.5C 292.5,372.5 291.5,373.5 289.5,373.5C 289.5,373.167 289.5,372.833 289.5,372.5C 290.167,372.5 290.5,372.167 290.5,371.5C 291.167,371.5 291.5,371.167 291.5,370.5 Z"/></g>
<g><path style="opacity:0.008" fill="#000000" d="M 288.5,373.5 C 288.833,373.5 289.167,373.5 289.5,373.5C 289.315,374.17 288.981,374.17 288.5,373.5 Z"/></g>
<g><path style="opacity:0.004" fill="#000000" d="M 287.5,374.5 C 287.833,374.5 288.167,374.5 288.5,374.5C 288.5,376.5 287.5,377.5 285.5,377.5C 285.5,377.167 285.5,376.833 285.5,376.5C 286.167,376.5 286.5,376.167 286.5,375.5C 287.167,375.5 287.5,375.167 287.5,374.5 Z"/></g>
<g><path style="opacity:0.008" fill="#000000" d="M 284.5,377.5 C 284.833,377.5 285.167,377.5 285.5,377.5C 285.315,378.17 284.981,378.17 284.5,377.5 Z"/></g>
<g><path style="opacity:0.004" fill="#000000" d="M 283.5,378.5 C 283.833,378.5 284.167,378.5 284.5,378.5C 284.332,381.051 283.332,381.718 281.5,380.5C 282.167,380.5 282.5,380.167 282.5,379.5C 283.167,379.5 283.5,379.167 283.5,378.5 Z"/></g>
<g><path style="opacity:0.004" fill="#000000" d="M 247.5,380.5 C 247.5,380.833 247.5,381.167 247.5,381.5C 246.83,381.019 246.83,380.685 247.5,380.5 Z"/></g>
<g><path style="opacity:0.004" fill="#000000" d="M 247.5,381.5 C 248.167,381.5 248.5,381.833 248.5,382.5C 248.167,382.167 247.833,381.833 247.5,381.5 Z"/></g>
<g><path style="opacity:0.004" fill="#000000" d="M 248.5,382.5 C 249.833,383.167 249.833,383.167 248.5,382.5 Z"/></g>
<g><path style="opacity:0.004" fill="#000000" d="M 277.5,383.5 C 280.001,383.511 280.168,384.178 278,385.5C 277.536,384.906 277.369,384.239 277.5,383.5 Z"/></g>
<g><path style="opacity:0.004" fill="#000000" d="M 253.5,384.5 C 253.103,385.525 252.437,385.692 251.5,385C 252.094,384.536 252.761,384.369 253.5,384.5 Z"/></g>
<g><path style="opacity:0.004" fill="#000000" d="M 275.5,384.5 C 276.833,385.167 276.833,385.167 275.5,384.5 Z"/></g>
<g><path style="opacity:0.004" fill="#000000" d="M 255.5,385.5 C 254.833,386.167 254.833,386.167 255.5,385.5 Z"/></g>
<g><path style="opacity:0.345" fill="#b2b2b2" d="M 255.5,385.5 C 255.5,385.167 255.5,384.833 255.5,384.5C 260.473,385.164 265.473,385.497 270.5,385.5C 265.645,386.691 260.645,386.691 255.5,385.5 Z"/></g>
<g><path style="opacity:0.004" fill="#000000" d="M 275.5,385.5 C 274.833,386.167 274.833,386.167 275.5,385.5 Z"/></g>
<g><path style="opacity:0.004" fill="#000000" d="M 256.5,386.5 C 257.833,387.167 257.833,387.167 256.5,386.5 Z"/></g>
<g><path style="opacity:0.004" fill="#000000" d="M 272.5,386.5 C 273.833,387.167 273.833,387.167 272.5,386.5 Z"/></g>
</svg>
