<?xml version="1.0" encoding="UTF-8"?>
<!DOCTYPE svg PUBLIC "-//W3C//DTD SVG 1.1//EN" "http://www.w3.org/Graphics/SVG/1.1/DTD/svg11.dtd">
<svg xmlns="http://www.w3.org/2000/svg" version="1.1" width="512px" height="512px" style="shape-rendering:geometricPrecision; text-rendering:geometricPrecision; image-rendering:optimizeQuality; fill-rule:evenodd; clip-rule:evenodd" xmlns:xlink="http://www.w3.org/1999/xlink">
<g><path style="opacity:0.992" fill="#fefefe" d="M 139.5,-0.5 C 146.5,-0.5 153.5,-0.5 160.5,-0.5C 162.769,0.97576 165.102,2.47576 167.5,4C 245.667,82.1667 323.833,160.333 402,238.5C 409.669,250.712 409.169,262.379 400.5,273.5C 322.833,350.5 245.5,427.833 168.5,505.5C 165.982,508.256 162.982,510.256 159.5,511.5C 152.833,511.5 146.167,511.5 139.5,511.5C 128.63,503.138 118.463,493.805 109,483.5C 103.57,475.235 102.403,466.568 105.5,457.5C 106.931,456.22 107.598,454.553 107.5,452.5C 108.124,450.246 109.457,448.579 111.5,447.5C 175.465,384.035 239.299,320.368 303,256.5C 303.692,255.563 303.525,254.897 302.5,254.5C 238.535,191.035 174.701,127.368 111,63.5C 101.819,51.4644 101.319,39.131 109.5,26.5C 117.779,19.8898 125.445,12.5565 132.5,4.5C 133.795,3.51163 135.128,2.51163 136.5,1.5C 136.435,1.93822 136.601,2.27155 137,2.5C 137.995,1.93406 138.828,1.26739 139.5,0.5C 139.5,0.166667 139.5,-0.166667 139.5,-0.5 Z"/></g>
<g><path style="opacity:0.043" fill="#363636" d="M 139.5,0.5 C 138.828,1.26739 137.995,1.93406 137,2.5C 136.601,2.27155 136.435,1.93822 136.5,1.5C 137.209,0.596028 138.209,0.262695 139.5,0.5 Z"/></g>
<g><path style="opacity:0.039" fill="#353535" d="M 132.5,4.5 C 125.445,12.5565 117.779,19.8898 109.5,26.5C 116.555,18.4435 124.221,11.1102 132.5,4.5 Z"/></g>
<g><path style="opacity:0.016" fill="#323232" d="M 302.5,254.5 C 303.525,254.897 303.692,255.563 303,256.5C 239.299,320.368 175.465,384.035 111.5,447.5C 111.369,446.761 111.536,446.094 112,445.5C 175.701,381.965 239.201,318.299 302.5,254.5 Z"/></g>
<g><path style="opacity:0.004" fill="#191919" d="M 400.5,273.5 C 324.417,351.084 247.75,428.25 170.5,505C 169.906,505.464 169.239,505.631 168.5,505.5C 245.5,427.833 322.833,350.5 400.5,273.5 Z"/></g>
<g><path style="opacity:0.006" fill="#1f1f1f" d="M 107.5,452.5 C 107.598,454.553 106.931,456.22 105.5,457.5C 105.402,455.447 106.069,453.78 107.5,452.5 Z"/></g>
</svg>
