<?xml version="1.0" encoding="UTF-8"?>
<svg version="1.1" xmlns="http://www.w3.org/2000/svg" width="512" height="512">
<path d="M0 0 C1.03731766 -0.00570007 2.07463531 -0.01140015 3.14338684 -0.01727295 C5.33085126 -0.0266602 7.51832942 -0.03323172 9.70581055 -0.03710938 C12.96625247 -0.04671799 16.2260361 -0.07776244 19.48632812 -0.109375 C81.25928783 -0.42048328 141.40062782 20.94523872 186.83203125 63.203125 C188.18226038 64.37434648 189.53629616 65.54119733 190.89453125 66.703125 C199.06675474 73.85792307 206.11043792 81.68455748 212.83203125 90.203125 C213.62480469 91.17894531 214.41757812 92.15476562 215.234375 93.16015625 C238.33464346 122.17234175 252.01934351 156.5355406 256.83203125 193.203125 C256.98345581 194.32279663 256.98345581 194.32279663 257.13793945 195.46508789 C263.06284831 245.62223114 251.83171781 297.85129297 220.83203125 338.203125 C220.16042969 339.09902344 219.48882812 339.99492187 218.796875 340.91796875 C195.62237926 370.6116868 165.57915409 389.97073662 128.16015625 395.60546875 C108.13923042 397.99358572 86.84118594 395.74758604 69.83203125 384.203125 C63.95574044 379.50064097 58.25162598 374.31533047 53.83203125 368.203125 C53.83203125 367.543125 53.83203125 366.883125 53.83203125 366.203125 C52.7061088 367.18123082 51.58137892 368.16070935 50.45703125 369.140625 C49.7196875 369.78 48.98234375 370.419375 48.22265625 371.078125 C46.64150677 372.4835912 45.08830492 373.9212056 43.56640625 375.390625 C27.36749598 390.83859241 6.89405476 397.7484575 -15.27319336 397.55419922 C-38.12834936 396.96473447 -56.72500064 388.73387583 -74.16796875 374.203125 C-75.01681641 373.53990234 -75.01681641 373.53990234 -75.8828125 372.86328125 C-101.05210813 353.03495021 -112.30398592 319.36137889 -116.48486328 288.89379883 C-117.36960519 281.24845748 -117.41030276 273.57904588 -117.41796875 265.890625 C-117.41897583 265.18680695 -117.41998291 264.48298889 -117.42102051 263.75784302 C-117.40430096 246.40270643 -115.4493287 229.78623473 -110.16796875 213.203125 C-109.96864746 212.57664063 -109.76932617 211.95015625 -109.56396484 211.3046875 C-104.36134831 195.34839476 -96.44817407 180.6791118 -85.16796875 168.203125 C-84.43835938 167.35492188 -83.70875 166.50671875 -82.95703125 165.6328125 C-63.95130003 143.82623668 -38.286134 129.41042778 -9.16796875 127.203125 C15.27286928 125.73690838 35.34660348 133.06152983 55.83203125 146.203125 C57.15203125 141.583125 58.47203125 136.963125 59.83203125 132.203125 C82.27203125 132.203125 104.71203125 132.203125 127.83203125 132.203125 C126.70705224 147.95283119 126.70705224 147.95283119 126.03515625 153.39335632 C125.88377197 154.63358551 125.7323877 155.8738147 125.57641602 157.15162659 C125.41326904 158.45856979 125.25012207 159.765513 125.08203125 161.11206055 C124.9058589 162.54449726 124.73000599 163.97697329 124.55444336 165.40948486 C124.17947197 168.46355798 123.80230478 171.51734845 123.42333984 174.57092857 C122.82286797 179.40953742 122.2275292 184.2487699 121.6328125 189.08808899 C120.6911225 196.74595033 119.7461316 204.40339997 118.79966736 212.06067258 C117.10519958 225.76986179 115.41487114 239.47956062 113.7280426 253.18969184 C113.1372198 257.99051243 112.54446355 262.79108903 111.9500885 267.59147108 C111.57968542 270.58552843 111.21071089 273.57976068 110.84207153 276.57403564 C110.67218069 277.95146542 110.50169466 279.32882195 110.33053589 280.70609474 C108.90935076 292.14578465 107.64944343 303.4797151 107.58203125 315.015625 C107.56140625 315.91732422 107.54078125 316.81902344 107.51953125 317.74804688 C107.48880872 322.98239726 107.81753876 326.7166023 110.83203125 331.203125 C115.95360538 334.61750775 121.85659958 333.70738084 127.83203125 333.203125 C148.40124456 328.51377067 162.4071014 311.81862435 173.37573242 294.91162109 C184.60204645 276.9159715 190.90439904 254.27537145 191.03515625 233.09375 C191.0457457 231.95349617 191.0457457 231.95349617 191.05654907 230.79020691 C191.40758096 207.81190892 191.40758096 207.81190892 187.83203125 185.203125 C187.62803711 184.39713867 187.42404297 183.59115234 187.21386719 182.76074219 C180.58920455 157.42888083 169.0048388 133.86073231 150.01171875 115.47265625 C147.83203125 113.203125 147.83203125 113.203125 147.83203125 111.203125 C146.93291016 110.8009375 146.93291016 110.8009375 146.015625 110.390625 C143.80067913 109.18607483 142.5752475 108.05770845 140.89453125 106.203125 C107.493562 72.09749395 57.92107893 60.00020405 11.83203125 59.203125 C-39.97738759 59.01679546 -86.28603344 80.71077595 -123.16796875 116.203125 C-125.62155006 118.77812064 -127.89891385 121.46546094 -130.16796875 124.203125 C-131.30492187 125.50830078 -131.30492187 125.50830078 -132.46484375 126.83984375 C-163.55886515 163.00354255 -177.65837593 208.91111211 -177.54296875 256.140625 C-177.54242493 256.98663269 -177.5418811 257.83264038 -177.5413208 258.70428467 C-177.38131521 313.18938781 -155.52681308 363.33489837 -116.99414062 401.74731445 C-80.50620037 436.86174107 -29.49830832 449.73144277 19.89453125 449.515625 C20.78933197 449.51346985 21.68413269 449.5113147 22.60604858 449.50909424 C37.19033685 449.45297899 51.44930477 448.79469184 65.83203125 446.203125 C66.91597168 446.00976562 67.99991211 445.81640625 69.11669922 445.6171875 C94.55673044 440.92390914 119.1366491 433.40098437 142.81860352 423 C150.60976972 419.91641003 160.28731878 419.90314505 168.14453125 422.703125 C176.16187011 426.474439 182.35923361 432.30107199 185.95703125 440.43359375 C188.71831925 449.17356336 188.64920471 457.84435099 184.83203125 466.203125 C179.12606689 477.1188829 170.599363 481.77066716 159.39453125 486.078125 C158.30342041 486.50448242 157.21230957 486.93083984 156.08813477 487.37011719 C132.05060848 496.61624777 107.44157001 503.48975302 82.08203125 507.953125 C80.95958008 508.15188232 79.83712891 508.35063965 78.68066406 508.55541992 C59.51492986 511.77037951 40.55583947 512.61109325 21.14453125 512.578125 C19.93647827 512.57758118 18.72842529 512.57703735 17.48376465 512.57647705 C-2.03046914 512.53619168 -20.94497997 511.69019761 -40.16796875 508.203125 C-41.91835449 507.88964111 -41.91835449 507.88964111 -43.70410156 507.56982422 C-103.25100288 496.48882153 -159.40660851 465.11227036 -196.16796875 416.203125 C-196.93222168 415.2128833 -196.93222168 415.2128833 -197.71191406 414.20263672 C-206.55903309 402.73162854 -214.30995392 390.96300257 -221.16796875 378.203125 C-221.53615723 377.52185547 -221.9043457 376.84058594 -222.28369141 376.13867188 C-233.55437939 355.06129131 -241.29036401 332.62228904 -245.91796875 309.203125 C-246.11672607 308.20845215 -246.3154834 307.2137793 -246.52026367 306.18896484 C-249.6206571 289.59594626 -250.5532256 272.92701725 -250.48046875 256.078125 C-250.47864594 255.19159241 -250.47682312 254.30505981 -250.47494507 253.3916626 C-250.42367681 238.48979872 -249.69640731 223.91929024 -247.16796875 209.203125 C-246.92651123 207.7807251 -246.92651123 207.7807251 -246.68017578 206.32958984 C-239.42885564 165.4616789 -221.6395138 127.99749419 -195.16796875 96.203125 C-194.52287354 95.42267822 -194.52287354 95.42267822 -193.86474609 94.62646484 C-184.19781843 82.96899069 -173.87677152 71.84807248 -162.16796875 62.203125 C-161.68763184 61.79835937 -161.20729492 61.39359375 -160.71240234 60.9765625 C-116.05324544 23.43659272 -58.67810179 0.25932628 0 0 Z M-28.40234375 211.96875 C-41.74393257 227.1205951 -45.57244228 247.36409654 -45.48046875 266.953125 C-45.4755542 268.18869141 -45.47063965 269.42425781 -45.46557617 270.69726562 C-45.2376086 288.45769323 -41.32078999 304.93305559 -30.16796875 319.203125 C-27.68698605 321.60091893 -25.13232452 323.44956243 -22.16796875 325.203125 C-20.65203125 326.13125 -20.65203125 326.13125 -19.10546875 327.078125 C-10.33056706 330.42380669 0.53598682 328.79544729 9.0625 325.51953125 C28.00291496 316.51682344 39.96253287 298.3979613 46.83203125 279.203125 C52.51743138 260.36326967 53.69302074 239.39334887 44.64453125 221.390625 C37.2772727 209.4498084 27.11492906 201.49147777 13.83203125 197.203125 C-2.87572766 193.28402106 -17.0736376 199.76080649 -28.40234375 211.96875 Z " fill="#000000" transform="translate(252.16796875,-0.203125)"/>
</svg>
