<?xml version="1.0" encoding="UTF-8"?>
<!DOCTYPE svg PUBLIC "-//W3C//DTD SVG 1.1//EN" "http://www.w3.org/Graphics/SVG/1.1/DTD/svg11.dtd">
<svg xmlns="http://www.w3.org/2000/svg" version="1.1" width="512px" height="512px" style="shape-rendering:geometricPrecision; text-rendering:geometricPrecision; image-rendering:optimizeQuality; fill-rule:evenodd; clip-rule:evenodd" xmlns:xlink="http://www.w3.org/1999/xlink">
<g><path style="opacity:0.737" fill="#fcfcfc" d="M 208.5,120.5 C 171.167,157.167 134.167,194.167 97.5,231.5C 96.7109,231.783 96.0442,232.283 95.5,233C 220.833,233.5 346.166,233.667 471.5,233.5C 483.627,235.692 490.294,243.025 491.5,255.5C 490.213,268.421 483.213,276.087 470.5,278.5C 345.667,277.334 220.667,277.167 95.5,278C 96.0442,278.717 96.7109,279.217 97.5,279.5C 134.799,316.299 171.965,353.299 209,390.5C 213.929,398.4 214.762,406.734 211.5,415.5C 210.167,415.5 209.5,416.167 209.5,417.5C 209.5,417.833 209.5,418.167 209.5,418.5C 207.251,419.08 205.585,420.413 204.5,422.5C 194.551,429.443 184.884,428.943 175.5,421C 125.667,371.167 75.8333,321.333 26,271.5C 18.8421,262.922 17.6754,253.589 22.5,243.5C 23.8333,243.5 24.5,242.833 24.5,241.5C 75.794,189.373 127.627,137.706 180,86.5C 191.528,81.0135 201.528,83.0135 210,92.5C 214.573,99.3159 215.573,106.649 213,114.5C 212.208,117.106 210.708,119.106 208.5,120.5 Z"/></g>
<g><path style="opacity:0.004" fill="#151515" d="M 208.5,120.5 C 172.751,157.75 136.418,194.583 99.5,231C 98.9056,231.464 98.2389,231.631 97.5,231.5C 134.167,194.167 171.167,157.167 208.5,120.5 Z"/></g>
<g><path style="opacity:0.012" fill="#555555" d="M 97.5,231.5 C 222.167,232.167 346.833,232.833 471.5,233.5C 346.166,233.667 220.833,233.5 95.5,233C 96.0442,232.283 96.7109,231.783 97.5,231.5 Z"/></g>
<g><path style="opacity:0.027" fill="#151515" d="M 24.5,241.5 C 24.5,242.833 23.8333,243.5 22.5,243.5C 22.8333,242.5 23.5,241.833 24.5,241.5 Z"/></g>
<g><path style="opacity:0.012" fill="#545454" d="M 470.5,278.5 C 345.999,278.167 221.666,278.5 97.5,279.5C 96.7109,279.217 96.0442,278.717 95.5,278C 220.667,277.167 345.667,277.334 470.5,278.5 Z"/></g>
<g><path style="opacity:0.004" fill="#111111" d="M 211.5,415.5 C 211.167,416.5 210.5,417.167 209.5,417.5C 209.5,416.167 210.167,415.5 211.5,415.5 Z"/></g>
<g><path style="opacity:0.004" fill="#1d1d1d" d="M 209.5,418.5 C 208.415,420.587 206.749,421.92 204.5,422.5C 205.585,420.413 207.251,419.08 209.5,418.5 Z"/></g>
</svg>
