<?xml version="1.0" encoding="UTF-8"?>
<!DOCTYPE svg PUBLIC "-//W3C//DTD SVG 1.1//EN" "http://www.w3.org/Graphics/SVG/1.1/DTD/svg11.dtd">
<svg xmlns="http://www.w3.org/2000/svg" version="1.1" width="512px" height="512px" style="shape-rendering:geometricPrecision; text-rendering:geometricPrecision; image-rendering:optimizeQuality; fill-rule:evenodd; clip-rule:evenodd" xmlns:xlink="http://www.w3.org/1999/xlink">
<g><path style="opacity:0.996" fill="#fcfcfc" d="M 511.5,168.5 C 511.5,250.5 511.5,332.5 511.5,414.5C 509.242,421.683 505.909,428.349 501.5,434.5C 500.094,434.973 499.427,435.973 499.5,437.5C 499.167,438.5 498.5,439.167 497.5,439.5C 494.833,441.5 492.5,443.833 490.5,446.5C 490.027,447.906 489.027,448.573 487.5,448.5C 486.5,448.833 485.833,449.5 485.5,450.5C 483.973,450.427 482.973,451.094 482.5,452.5C 475.509,456.988 467.842,459.822 459.5,461C 323.5,461.667 187.5,461.667 51.5,461C 24.7207,455.383 7.38741,439.55 -0.5,413.5C -0.5,331.5 -0.5,249.5 -0.5,167.5C 2.52596,157.112 7.85929,148.112 15.5,140.5C 16.8333,139.833 17.8333,138.833 18.5,137.5C 19.2623,135.738 20.5956,134.738 22.5,134.5C 23.5,134.167 24.1667,133.5 24.5,132.5C 25.2905,131.599 26.2905,130.932 27.5,130.5C 29.0269,130.573 30.0269,129.906 30.5,128.5C 37.6457,124.507 45.3123,122.007 53.5,121C 73.8306,120.5 94.1639,120.333 114.5,120.5C 115.611,117.142 117.278,114.142 119.5,111.5C 121.048,111.179 121.715,110.179 121.5,108.5C 123.048,108.179 123.715,107.179 123.5,105.5C 125.048,105.179 125.715,104.179 125.5,102.5C 131.351,92.7835 137.685,83.4501 144.5,74.5C 145.906,74.0269 146.573,73.0269 146.5,71.5C 148.523,68.4797 151.19,66.1464 154.5,64.5C 155.5,64.1667 156.167,63.5 156.5,62.5C 164.846,55.67 174.512,51.5033 185.5,50C 232.167,49.3333 278.833,49.3333 325.5,50C 340.183,52.424 352.683,58.924 363,69.5C 374.5,86.3333 386,103.167 397.5,120C 417.5,120.333 437.5,120.667 457.5,121C 485.407,125.749 503.407,141.582 511.5,168.5 Z M 372.5,344.5 C 371.167,344.5 370.5,345.167 370.5,346.5C 369.4,347.605 368.733,348.938 368.5,350.5C 367.167,350.5 366.5,351.167 366.5,352.5C 364.937,353.945 363.604,355.611 362.5,357.5C 360.738,358.262 359.738,359.596 359.5,361.5C 357.833,363.833 355.833,365.833 353.5,367.5C 352.5,367.833 351.833,368.5 351.5,369.5C 349.5,372.167 347.167,374.5 344.5,376.5C 342.973,376.427 341.973,377.094 341.5,378.5C 340.833,379.167 340.167,379.833 339.5,380.5C 338.167,380.5 337.5,381.167 337.5,382.5C 332.255,385.075 327.255,388.075 322.5,391.5C 320.973,391.427 319.973,392.094 319.5,393.5C 266.595,417.753 216.595,412.919 169.5,379C 124.564,339.124 109.731,289.957 125,231.5C 129.486,218.906 134.986,206.906 141.5,195.5C 142.833,195.5 143.5,194.833 143.5,193.5C 145.074,192.016 146.407,190.349 147.5,188.5C 148.906,188.027 149.573,187.027 149.5,185.5C 150.833,184.167 152.167,182.833 153.5,181.5C 157.5,178.167 161.167,174.5 164.5,170.5C 167.167,168.167 169.833,165.833 172.5,163.5C 173.833,163.5 174.5,162.833 174.5,161.5C 178.483,159.194 182.483,156.861 186.5,154.5C 187.492,154.672 188.158,154.338 188.5,153.5C 225.84,134.071 264.507,131.238 304.5,145C 360.159,169.103 389.493,211.603 392.5,272.5C 392.092,289.373 388.925,305.707 383,321.5C 379.466,329.23 375.966,336.896 372.5,344.5 Z M 454.5,200.5 C 452.738,201.262 451.738,202.596 451.5,204.5C 444.468,206.065 437.301,206.731 430,206.5C 423.423,206.605 416.923,206.105 410.5,205C 403.286,200.037 400.786,193.203 403,184.5C 405.256,179.243 409.09,175.743 414.5,174C 425.906,173.067 437.239,173.4 448.5,175C 456.413,179.666 459.246,186.499 457,195.5C 456.626,197.491 455.793,199.158 454.5,200.5 Z"/></g>
<g><path style="opacity:0.051" fill="#3c3c3c" d="M 156.5,62.5 C 156.167,63.5 155.5,64.1667 154.5,64.5C 154.5,63.1667 155.167,62.5 156.5,62.5 Z"/></g>
<g><path style="opacity:0.043" fill="#2b2b2b" d="M 146.5,71.5 C 146.573,73.0269 145.906,74.0269 144.5,74.5C 144.427,72.9731 145.094,71.9731 146.5,71.5 Z"/></g>
<g><path style="opacity:0.18" fill="#727272" d="M 125.5,102.5 C 125.715,104.179 125.048,105.179 123.5,105.5C 123.932,104.29 124.599,103.29 125.5,102.5 Z"/></g>
<g><path style="opacity:0.176" fill="#747474" d="M 123.5,105.5 C 123.715,107.179 123.048,108.179 121.5,108.5C 121.932,107.29 122.599,106.29 123.5,105.5 Z"/></g>
<g><path style="opacity:0.173" fill="#747474" d="M 121.5,108.5 C 121.715,110.179 121.048,111.179 119.5,111.5C 119.932,110.29 120.599,109.29 121.5,108.5 Z"/></g>
<g><path style="opacity:0.039" fill="#272727" d="M 30.5,128.5 C 30.0269,129.906 29.0269,130.573 27.5,130.5C 27.9731,129.094 28.9731,128.427 30.5,128.5 Z"/></g>
<g><path style="opacity:0.043" fill="#3c3c3c" d="M 24.5,132.5 C 24.1667,133.5 23.5,134.167 22.5,134.5C 22.5,133.167 23.1667,132.5 24.5,132.5 Z"/></g>
<g><path style="opacity:0.02" fill="#252525" d="M 18.5,137.5 C 17.8333,138.833 16.8333,139.833 15.5,140.5C 15.5,138.5 16.5,137.5 18.5,137.5 Z"/></g>
<g><path style="opacity:0.004" fill="#1f1f1f" d="M 188.5,153.5 C 188.158,154.338 187.492,154.672 186.5,154.5C 187.006,152.895 187.673,152.561 188.5,153.5 Z"/></g>
<g><path style="opacity:0.004" fill="#272727" d="M 174.5,161.5 C 174.5,162.833 173.833,163.5 172.5,163.5C 172.833,162.5 173.5,161.833 174.5,161.5 Z"/></g>
<g><path style="opacity:0.004" fill="#1a1a1a" d="M 164.5,170.5 C 161.167,174.5 157.5,178.167 153.5,181.5C 156.167,176.833 159.833,173.167 164.5,170.5 Z"/></g>
<g><path style="opacity:0.004" fill="#1d1d1d" d="M 149.5,185.5 C 149.573,187.027 148.906,188.027 147.5,188.5C 147.427,186.973 148.094,185.973 149.5,185.5 Z"/></g>
<g><path style="opacity:0.004" fill="#292929" d="M 143.5,193.5 C 143.5,194.833 142.833,195.5 141.5,195.5C 141.833,194.5 142.5,193.833 143.5,193.5 Z"/></g>
<g><path style="opacity:0.993" fill="#fbfbfb" d="M 321.5,313.5 C 320.5,313.833 319.833,314.5 319.5,315.5C 319.5,315.833 319.5,316.167 319.5,316.5C 318.094,316.973 317.427,317.973 317.5,319.5C 316.833,320.167 316.167,320.833 315.5,321.5C 313.738,322.262 312.738,323.596 312.5,325.5C 310.833,326.5 309.5,327.833 308.5,329.5C 306.596,329.738 305.262,330.738 304.5,332.5C 280.145,351.289 253.479,355.122 224.5,344C 188.438,325.883 173.271,296.716 179,256.5C 181.335,246.177 185.502,236.844 191.5,228.5C 192.906,228.027 193.573,227.027 193.5,225.5C 193.833,224.5 194.5,223.833 195.5,223.5C 196.906,223.027 197.573,222.027 197.5,220.5C 199.833,218.833 201.833,216.833 203.5,214.5C 205.027,214.573 206.027,213.906 206.5,212.5C 208.147,210.674 210.147,209.34 212.5,208.5C 213.5,208.167 214.167,207.5 214.5,206.5C 219.104,203.365 224.104,201.032 229.5,199.5C 232.082,199.975 234.082,199.308 235.5,197.5C 274.516,189.595 304.349,202.595 325,236.5C 337.297,262.889 336.13,288.556 321.5,313.5 Z"/></g>
<g><path style="opacity:0.602" fill="#939393" d="M 235.5,197.5 C 234.082,199.308 232.082,199.975 229.5,199.5C 231.214,198.262 233.214,197.595 235.5,197.5 Z"/></g>
<g><path style="opacity:0.031" fill="#2b2b2b" d="M 454.5,200.5 C 454.262,202.404 453.262,203.738 451.5,204.5C 451.738,202.596 452.738,201.262 454.5,200.5 Z"/></g>
<g><path style="opacity:0.035" fill="#323232" d="M 214.5,206.5 C 214.167,207.5 213.5,208.167 212.5,208.5C 212.5,207.167 213.167,206.5 214.5,206.5 Z"/></g>
<g><path style="opacity:0.035" fill="#373737" d="M 206.5,212.5 C 206.027,213.906 205.027,214.573 203.5,214.5C 203.973,213.094 204.973,212.427 206.5,212.5 Z"/></g>
<g><path style="opacity:0.027" fill="#212121" d="M 197.5,220.5 C 197.573,222.027 196.906,223.027 195.5,223.5C 195.427,221.973 196.094,220.973 197.5,220.5 Z"/></g>
<g><path style="opacity:0.043" fill="#212121" d="M 193.5,225.5 C 193.573,227.027 192.906,228.027 191.5,228.5C 191.427,226.973 192.094,225.973 193.5,225.5 Z"/></g>
<g><path style="opacity:0.004" fill="#222222" d="M 321.5,313.5 C 321.5,314.833 320.833,315.5 319.5,315.5C 319.833,314.5 320.5,313.833 321.5,313.5 Z"/></g>
<g><path style="opacity:0.004" fill="#1f1f1f" d="M 319.5,316.5 C 319.573,318.027 318.906,319.027 317.5,319.5C 317.427,317.973 318.094,316.973 319.5,316.5 Z"/></g>
<g><path style="opacity:0.004" fill="#191919" d="M 315.5,321.5 C 315.262,323.404 314.262,324.738 312.5,325.5C 312.738,323.596 313.738,322.262 315.5,321.5 Z"/></g>
<g><path style="opacity:0.004" fill="#191919" d="M 308.5,329.5 C 307.738,331.262 306.404,332.262 304.5,332.5C 305.262,330.738 306.596,329.738 308.5,329.5 Z"/></g>
<g><path style="opacity:0.043" fill="#2d2d2d" d="M 372.5,344.5 C 372.167,345.5 371.5,346.167 370.5,346.5C 370.5,345.167 371.167,344.5 372.5,344.5 Z"/></g>
<g><path style="opacity:0.043" fill="#282828" d="M 368.5,350.5 C 368.167,351.5 367.5,352.167 366.5,352.5C 366.5,351.167 367.167,350.5 368.5,350.5 Z"/></g>
<g><path style="opacity:0.016" fill="#2d2d2d" d="M 362.5,357.5 C 362.262,359.404 361.262,360.738 359.5,361.5C 359.738,359.596 360.738,358.262 362.5,357.5 Z"/></g>
<g><path style="opacity:0.047" fill="#222222" d="M 353.5,367.5 C 353.5,368.833 352.833,369.5 351.5,369.5C 351.833,368.5 352.5,367.833 353.5,367.5 Z"/></g>
<g><path style="opacity:0.035" fill="#373737" d="M 344.5,376.5 C 344.027,377.906 343.027,378.573 341.5,378.5C 341.973,377.094 342.973,376.427 344.5,376.5 Z"/></g>
<g><path style="opacity:0.039" fill="#333333" d="M 339.5,380.5 C 339.167,381.5 338.5,382.167 337.5,382.5C 337.5,381.167 338.167,380.5 339.5,380.5 Z"/></g>
<g><path style="opacity:0.043" fill="#343434" d="M 322.5,391.5 C 322.027,392.906 321.027,393.573 319.5,393.5C 319.973,392.094 320.973,391.427 322.5,391.5 Z"/></g>
<g><path style="opacity:0.004" fill="#202020" d="M 501.5,434.5 C 501.573,436.027 500.906,437.027 499.5,437.5C 499.427,435.973 500.094,434.973 501.5,434.5 Z"/></g>
<g><path style="opacity:0.004" fill="#191919" d="M 497.5,439.5 C 496.167,442.833 493.833,445.167 490.5,446.5C 492.5,443.833 494.833,441.5 497.5,439.5 Z"/></g>
<g><path style="opacity:0.004" fill="#222222" d="M 487.5,448.5 C 487.5,449.833 486.833,450.5 485.5,450.5C 485.833,449.5 486.5,448.833 487.5,448.5 Z"/></g>
<g><path style="opacity:0.004" fill="#171717" d="M 485.5,450.5 C 485.027,451.906 484.027,452.573 482.5,452.5C 482.973,451.094 483.973,450.427 485.5,450.5 Z"/></g>
</svg>
