<?xml version="1.0" encoding="UTF-8"?>
<!DOCTYPE svg PUBLIC "-//W3C//DTD SVG 1.1//EN" "http://www.w3.org/Graphics/SVG/1.1/DTD/svg11.dtd">
<svg xmlns="http://www.w3.org/2000/svg" version="1.1" width="512px" height="512px" style="shape-rendering:geometricPrecision; text-rendering:geometricPrecision; image-rendering:optimizeQuality; fill-rule:evenodd; clip-rule:evenodd" xmlns:xlink="http://www.w3.org/1999/xlink">
<g><path style="opacity:0.988" fill="#0e0e0e" d="M 233.5,-0.5 C 248.167,-0.5 262.833,-0.5 277.5,-0.5C 377.769,12.0418 449.269,64.0418 492,155.5C 502.296,180.684 508.796,206.684 511.5,233.5C 511.5,248.167 511.5,262.833 511.5,277.5C 498.958,377.769 446.958,449.269 355.5,492C 330.316,502.296 304.316,508.796 277.5,511.5C 262.833,511.5 248.167,511.5 233.5,511.5C 133.231,498.958 61.7312,446.958 19,355.5C 8.70393,330.316 2.20393,304.316 -0.5,277.5C -0.5,262.833 -0.5,248.167 -0.5,233.5C 12.0418,133.231 64.0418,61.7312 155.5,19C 180.684,8.70393 206.684,2.20393 233.5,-0.5 Z"/></g>
<g><path style="opacity:1" fill="#fe9133" d="M 232.5,42.5 C 308.537,37.2874 371.371,63.2874 421,120.5C 472.544,188.315 482.544,261.981 451,341.5C 415.739,415.066 357.572,457.232 276.5,468C 201.253,473.112 139.086,447.279 90,390.5C 44.2291,331.495 31.2291,265.828 51,193.5C 75.1407,122.693 122.641,75.1927 193.5,51C 206.448,47.3936 219.448,44.5603 232.5,42.5 Z"/></g>
<g><path style="opacity:1" fill="#fefefd" d="M 250.5,127.5 C 264.431,126.374 273.597,132.374 278,145.5C 278.333,173.833 278.667,202.167 279,230.5C 279.5,231 280,231.5 280.5,232C 308.5,232.333 336.5,232.667 364.5,233C 378.503,236.826 384.669,245.993 383,260.5C 380.389,270.112 374.222,275.945 364.5,278C 336.5,278.333 308.5,278.667 280.5,279C 280,279.5 279.5,280 279,280.5C 278.667,308.5 278.333,336.5 278,364.5C 274.174,378.503 265.007,384.669 250.5,383C 240.888,380.389 235.055,374.222 233,364.5C 232.667,336.5 232.333,308.5 232,280.5C 231.5,280 231,279.5 230.5,279C 202.167,278.667 173.833,278.333 145.5,278C 132.22,273.613 126.387,264.447 128,250.5C 130.5,241.333 136.333,235.5 145.5,233C 173.833,232.667 202.167,232.333 230.5,232C 231,231.5 231.5,231 232,230.5C 232.333,202.167 232.667,173.833 233,145.5C 235.683,136.318 241.517,130.318 250.5,127.5 Z"/></g>
</svg>
