<?xml version="1.0" encoding="UTF-8"?>
<!DOCTYPE svg PUBLIC "-//W3C//DTD SVG 1.1//EN" "http://www.w3.org/Graphics/SVG/1.1/DTD/svg11.dtd">
<svg xmlns="http://www.w3.org/2000/svg" version="1.1" width="512px" height="512px" style="shape-rendering:geometricPrecision; text-rendering:geometricPrecision; image-rendering:optimizeQuality; fill-rule:evenodd; clip-rule:evenodd" xmlns:xlink="http://www.w3.org/1999/xlink">
<g><path style="opacity:0.004" fill="#000000" d="M 226.5,6.5 C 227.833,7.16667 227.833,7.16667 226.5,6.5 Z"/></g>
<g><path style="opacity:0.992" fill="#f9f9f9" d="M 311.5,16.5 C 311.842,17.3382 312.508,17.6716 313.5,17.5C 315.181,19.0075 317.181,20.0075 319.5,20.5C 319.842,21.3382 320.508,21.6716 321.5,21.5C 321.842,22.3382 322.508,22.6716 323.5,22.5C 324.306,23.7281 325.306,24.7281 326.5,25.5C 326.842,26.3382 327.508,26.6716 328.5,26.5C 328.973,27.9063 329.973,28.573 331.5,28.5C 331.973,29.9063 332.973,30.573 334.5,30.5C 337.808,33.4715 341.141,36.4715 344.5,39.5C 346.5,42.1667 348.833,44.5 351.5,46.5C 351.738,48.4044 352.738,49.7377 354.5,50.5C 356.177,52.5398 357.844,54.5398 359.5,56.5C 359.328,57.4916 359.662,58.1583 360.5,58.5C 360.427,60.0269 361.094,61.0269 362.5,61.5C 369.121,73.1882 374.288,85.5215 378,98.5C 378.923,102.79 379.423,107.123 379.5,111.5C 379.5,135.833 379.5,160.167 379.5,184.5C 382.833,184.5 386.167,184.5 389.5,184.5C 393.794,184.574 397.794,185.574 401.5,187.5C 401.842,188.338 402.508,188.672 403.5,188.5C 405.181,190.008 407.181,191.008 409.5,191.5C 409.973,192.906 410.973,193.573 412.5,193.5C 415.741,197.245 419.241,200.911 423,204.5C 423.333,204.167 423.667,203.833 424,203.5C 425.67,208.173 427.837,212.507 430.5,216.5C 431.197,220.956 432.364,225.29 434,229.5C 434.667,291.167 434.667,352.833 434,414.5C 431.881,426.654 428.381,438.321 423.5,449.5C 420.742,452.678 418.742,456.345 417.5,460.5C 416.167,461.167 415.167,462.167 414.5,463.5C 413.167,463.833 413.167,464.167 414.5,464.5C 412.117,465.885 410.45,467.885 409.5,470.5C 408.833,470.5 408.5,470.833 408.5,471.5C 406.403,474.053 404.07,476.386 401.5,478.5C 400.833,478.5 400.5,478.833 400.5,479.5C 399.833,479.5 399.5,479.833 399.5,480.5C 397.225,481.111 395.559,482.445 394.5,484.5C 393.508,484.328 392.842,484.662 392.5,485.5C 388.463,488.18 384.463,490.846 380.5,493.5C 379.508,493.328 378.842,493.662 378.5,494.5C 367.872,499.075 356.872,502.575 345.5,505C 285.5,505.667 225.5,505.667 165.5,505C 156.135,502.6 146.802,500.1 137.5,497.5C 136.035,496.263 134.368,495.263 132.5,494.5C 127.87,491.514 123.203,488.514 118.5,485.5C 116.45,483.453 114.117,481.786 111.5,480.5C 108.264,477.719 105.264,474.719 102.5,471.5C 101.189,468.865 99.5224,466.531 97.5,464.5C 94.2407,460.304 91.2407,455.97 88.5,451.5C 88.6716,450.508 88.3382,449.842 87.5,449.5C 87.6716,448.508 87.3382,447.842 86.5,447.5C 84.4809,442.429 82.4809,437.429 80.5,432.5C 79.7504,427.087 78.7504,421.754 77.5,416.5C 78.4991,353.669 78.8324,290.669 78.5,227.5C 79.0078,223.803 79.6745,220.136 80.5,216.5C 85.1327,208.482 91.1327,200.815 98.5,193.5C 100.027,193.573 101.027,192.906 101.5,191.5C 103.819,191.008 105.819,190.008 107.5,188.5C 108.492,188.672 109.158,188.338 109.5,187.5C 113.206,185.574 117.206,184.574 121.5,184.5C 124.833,184.5 128.167,184.5 131.5,184.5C 131.5,160.167 131.5,135.833 131.5,111.5C 131.425,107.103 131.925,102.77 133,98.5C 134.606,91.1897 136.773,84.523 139.5,78.5C 142.227,72.7143 145.227,67.0476 148.5,61.5C 149.906,61.0269 150.573,60.0269 150.5,58.5C 151.338,58.1583 151.672,57.4916 151.5,56.5C 158.437,48.2261 165.77,40.2261 173.5,32.5C 175.027,32.573 176.027,31.9063 176.5,30.5C 178.027,30.573 179.027,29.9063 179.5,28.5C 182.455,26.8777 185.122,24.8777 187.5,22.5C 188.492,22.6716 189.158,22.3382 189.5,21.5C 190.492,21.6716 191.158,21.3382 191.5,20.5C 193.819,20.0075 195.819,19.0075 197.5,17.5C 198.492,17.6716 199.158,17.3382 199.5,16.5C 224.967,5.72492 251.467,2.39158 279,6.5C 290.171,8.83291 301.005,12.1662 311.5,16.5 Z M 287.5,48.5 C 288.791,48.2627 289.791,48.596 290.5,49.5C 294.852,49.8457 298.519,51.5124 301.5,54.5C 303.509,55.0558 305.509,56.3892 307.5,58.5C 309.027,58.427 310.027,59.0937 310.5,60.5C 313.427,61.7573 315.761,63.7573 317.5,66.5C 317.062,66.4346 316.728,66.6012 316.5,67C 318,68.5 319.5,70 321,71.5C 321.399,71.2716 321.565,70.9382 321.5,70.5C 323.633,72.0905 325.299,74.0905 326.5,76.5C 328.822,77.8021 330.155,79.8021 330.5,82.5C 331.338,82.8417 331.672,83.5084 331.5,84.5C 339.472,96.4652 343.472,110.132 343.5,125.5C 343.5,144.833 343.5,164.167 343.5,183.5C 284.833,183.5 226.167,183.5 167.5,183.5C 167.5,164.167 167.5,144.833 167.5,125.5C 168.077,118.808 168.91,112.142 170,105.5C 170.838,101.14 172.338,97.1402 174.5,93.5C 175.929,90.3037 177.595,87.3037 179.5,84.5C 179.328,83.5084 179.662,82.8417 180.5,82.5C 180.709,81.0783 181.209,79.745 182,78.5C 184.739,75.9917 187.239,73.325 189.5,70.5C 189.435,70.9382 189.601,71.2716 190,71.5C 191.167,70.3333 192.333,69.1667 193.5,68C 193.272,67.6012 192.938,67.4346 192.5,67.5C 194.89,64.7714 197.557,62.4381 200.5,60.5C 200.973,59.0937 201.973,58.427 203.5,58.5C 205.118,56.684 207.118,55.3507 209.5,54.5C 209.435,54.9382 209.601,55.2716 210,55.5C 212.665,54.526 212.831,53.8593 210.5,53.5C 214.395,50.8655 218.728,49.1988 223.5,48.5C 225.562,47.2237 227.896,46.3903 230.5,46C 238.86,44.868 247.193,43.7014 255.5,42.5C 263.807,43.7014 272.14,44.868 280.5,46C 283.104,46.3903 285.438,47.2237 287.5,48.5 Z M 388.5,223.5 C 387.453,224.078 387.62,224.744 389,225.5C 389.399,225.272 389.565,224.938 389.5,224.5C 393.889,227.624 396.223,231.957 396.5,237.5C 396.5,292.833 396.5,348.167 396.5,403.5C 396.136,412.673 394.136,421.339 390.5,429.5C 390.206,432.754 388.873,435.421 386.5,437.5C 384.853,440.473 382.853,443.14 380.5,445.5C 380.5,444.833 380.5,444.167 380.5,443.5C 379.094,443.973 378.427,444.973 378.5,446.5C 377.833,446.5 377.5,446.833 377.5,447.5C 376.833,447.5 376.5,447.833 376.5,448.5C 375.167,448.833 375.167,449.167 376.5,449.5C 374.766,452.2 372.432,454.2 369.5,455.5C 369.141,453.169 368.474,453.335 367.5,456C 367.728,456.399 368.062,456.565 368.5,456.5C 368.158,457.338 367.492,457.672 366.5,457.5C 365.013,458.804 363.346,459.97 361.5,461C 352.92,463.983 344.253,466.316 335.5,468C 282.167,468.667 228.833,468.667 175.5,468C 167.532,466.776 159.865,464.609 152.5,461.5C 151.508,461.672 150.842,461.338 150.5,460.5C 147.558,459.696 144.891,458.362 142.5,456.5C 143.713,455.503 143.546,454.503 142,453.5C 141.536,454.094 141.369,454.761 141.5,455.5C 138.568,454.2 136.234,452.2 134.5,449.5C 135.833,449.167 135.833,448.833 134.5,448.5C 134.5,447.833 134.167,447.5 133.5,447.5C 133.5,446.833 133.167,446.5 132.5,446.5C 132.573,444.973 131.906,443.973 130.5,443.5C 130.5,444.167 130.5,444.833 130.5,445.5C 125.945,440.942 122.612,435.608 120.5,429.5C 116.64,421.385 114.64,412.718 114.5,403.5C 114.5,348.167 114.5,292.833 114.5,237.5C 114.777,231.957 117.111,227.624 121.5,224.5C 122.078,225.547 122.744,225.38 123.5,224C 123.272,223.601 122.938,223.435 122.5,223.5C 124.148,222.073 126.148,221.24 128.5,221C 213.167,220.333 297.833,220.333 382.5,221C 384.852,221.24 386.852,222.073 388.5,223.5 Z M 132.5,447.5 C 132.833,447.5 133.167,447.5 133.5,447.5C 134.167,447.5 134.5,447.833 134.5,448.5C 134.5,448.833 134.5,449.167 134.5,449.5C 133.167,449.5 132.5,448.833 132.5,447.5 Z M 377.5,447.5 C 377.833,447.5 378.167,447.5 378.5,447.5C 378.5,448.833 377.833,449.5 376.5,449.5C 376.5,449.167 376.5,448.833 376.5,448.5C 377.167,448.5 377.5,448.167 377.5,447.5 Z"/></g>
<g><path style="opacity:0.004" fill="#000000" d="M 209.5,10.5 C 210.833,11.1667 210.833,11.1667 209.5,10.5 Z"/></g>
<g><path style="opacity:0.004" fill="#000000" d="M 300.5,10.5 C 301.833,11.1667 301.833,11.1667 300.5,10.5 Z"/></g>
<g><path style="opacity:0.004" fill="#000000" d="M 199.5,16.5 C 198.833,15.1667 198.833,15.1667 199.5,16.5 Z"/></g>
<g><path style="opacity:0.004" fill="#000000" d="M 311.5,15.5 C 312.833,16.1667 312.833,16.1667 311.5,15.5 Z"/></g>
<g><path style="opacity:0.004" fill="#000000" d="M 197.5,17.5 C 196.833,16.1667 196.833,16.1667 197.5,17.5 Z"/></g>
<g><path style="opacity:0.004" fill="#000000" d="M 313.5,16.5 C 314.833,17.1667 314.833,17.1667 313.5,16.5 Z"/></g>
<g><path style="opacity:0.004" fill="#000000" d="M 319.5,19.5 C 318.833,18.1667 318.833,18.1667 319.5,19.5 Z"/></g>
<g><path style="opacity:0.004" fill="#000000" d="M 191.5,20.5 C 190.833,19.1667 190.833,19.1667 191.5,20.5 Z"/></g>
<g><path style="opacity:0.004" fill="#000000" d="M 319.5,19.5 C 320.833,20.1667 320.833,20.1667 319.5,19.5 Z"/></g>
<g><path style="opacity:0.008" fill="#000000" d="M 189.5,21.5 C 188.833,20.1667 188.833,20.1667 189.5,21.5 Z"/></g>
<g><path style="opacity:0.008" fill="#000000" d="M 321.5,20.5 C 322.833,21.1667 322.833,21.1667 321.5,20.5 Z"/></g>
<g><path style="opacity:0.004" fill="#000000" d="M 187.5,22.5 C 186.833,21.1667 186.833,21.1667 187.5,22.5 Z"/></g>
<g><path style="opacity:0.004" fill="#000000" d="M 323.5,21.5 C 324.833,22.1667 324.833,22.1667 323.5,21.5 Z"/></g>
<g><path style="opacity:0.004" fill="#101010" d="M 328.5,26.5 C 327.508,26.6716 326.842,26.3382 326.5,25.5C 327.648,24.105 328.648,24.2716 329.5,26C 329.272,26.3988 328.938,26.5654 328.5,26.5 Z"/></g>
<g><path style="opacity:0.004" fill="#000000" d="M 179.5,26.5 C 180.833,27.1667 180.833,27.1667 179.5,26.5 Z"/></g>
<g><path style="opacity:0.004" fill="#000000" d="M 331.5,27.5 C 330.833,26.1667 330.833,26.1667 331.5,27.5 Z"/></g>
<g><path style="opacity:0.008" fill="#000000" d="M 179.5,27.5 C 179.5,27.8333 179.5,28.1667 179.5,28.5C 178.83,28.0187 178.83,27.6853 179.5,27.5 Z"/></g>
<g><path style="opacity:0.008" fill="#000000" d="M 331.5,27.5 C 332.833,28.1667 332.833,28.1667 331.5,27.5 Z"/></g>
<g><path style="opacity:0.004" fill="#000000" d="M 176.5,28.5 C 177.833,29.1667 177.833,29.1667 176.5,28.5 Z"/></g>
<g><path style="opacity:0.004" fill="#000000" d="M 334.5,29.5 C 333.833,28.1667 333.833,28.1667 334.5,29.5 Z"/></g>
<g><path style="opacity:0.004" fill="#000000" d="M 176.5,29.5 C 176.5,29.8333 176.5,30.1667 176.5,30.5C 175.83,30.0187 175.83,29.6853 176.5,29.5 Z"/></g>
<g><path style="opacity:0.004" fill="#000000" d="M 334.5,29.5 C 335.833,30.1667 335.833,30.1667 334.5,29.5 Z"/></g>
<g><path style="opacity:0.004" fill="#000000" d="M 173.5,30.5 C 174.833,31.1667 174.833,31.1667 173.5,30.5 Z"/></g>
<g><path style="opacity:0.004" fill="#000000" d="M 173.5,31.5 C 173.5,31.8333 173.5,32.1667 173.5,32.5C 172.83,32.0187 172.83,31.6853 173.5,31.5 Z"/></g>
<g><path style="opacity:0.004" fill="#000000" d="M 344.5,38.5 C 345.833,39.1667 345.833,39.1667 344.5,38.5 Z"/></g>
<g><path style="opacity:0.004" fill="#000000" d="M 348.5,41.5 C 347.833,40.1667 347.833,40.1667 348.5,41.5 Z"/></g>
<g><path style="opacity:0.004" fill="#000000" d="M 348.5,41.5 C 349.167,41.5 349.5,41.8333 349.5,42.5C 349.167,42.1667 348.833,41.8333 348.5,41.5 Z"/></g>
<g><path style="opacity:0.004" fill="#000000" d="M 349.5,42.5 C 350.833,43.1667 350.833,43.1667 349.5,42.5 Z"/></g>
<g><path style="opacity:0.004" fill="#000000" d="M 352.5,46.5 C 351.833,45.1667 351.833,45.1667 352.5,46.5 Z"/></g>
<g><path style="opacity:0.004" fill="#000000" d="M 157.5,46.5 C 158.833,47.1667 158.833,47.1667 157.5,46.5 Z"/></g>
<g><path style="opacity:0.004" fill="#000000" d="M 352.5,46.5 C 353.833,47.1667 353.833,47.1667 352.5,46.5 Z"/></g>
<g><path style="opacity:0.004" fill="#000000" d="M 354.5,49.5 C 355.833,50.1667 355.833,50.1667 354.5,49.5 Z"/></g>
<g><path style="opacity:0.004" fill="#000000" d="M 151.5,53.5 C 152.833,54.1667 152.833,54.1667 151.5,53.5 Z"/></g>
<g><path style="opacity:0.004" fill="#000000" d="M 151.5,56.5 C 150.833,55.1667 150.833,55.1667 151.5,56.5 Z"/></g>
<g><path style="opacity:0.004" fill="#000000" d="M 359.5,55.5 C 360.833,56.1667 360.833,56.1667 359.5,55.5 Z"/></g>
<g><path style="opacity:0.004" fill="#000000" d="M 150.5,58.5 C 149.833,57.1667 149.833,57.1667 150.5,58.5 Z"/></g>
<g><path style="opacity:0.004" fill="#000000" d="M 361.5,58.5 C 360.833,57.1667 360.833,57.1667 361.5,58.5 Z"/></g>
<g><path style="opacity:0.008" fill="#000000" d="M 149.5,58.5 C 148.833,59.1667 148.833,59.1667 149.5,58.5 Z"/></g>
<g><path style="opacity:0.004" fill="#000000" d="M 361.5,58.5 C 362.833,59.1667 362.833,59.1667 361.5,58.5 Z"/></g>
<g><path style="opacity:0.004" fill="#000000" d="M 148.5,61.5 C 147.833,60.1667 147.833,60.1667 148.5,61.5 Z"/></g>
<g><path style="opacity:0.004" fill="#000000" d="M 363.5,61.5 C 362.833,60.1667 362.833,60.1667 363.5,61.5 Z"/></g>
<g><path style="opacity:0.004" fill="#000000" d="M 147.5,61.5 C 146.833,62.1667 146.833,62.1667 147.5,61.5 Z"/></g>
<g><path style="opacity:0.004" fill="#000000" d="M 363.5,61.5 C 364.833,62.1667 364.833,62.1667 363.5,61.5 Z"/></g>
<g><path style="opacity:0.004" fill="#000000" d="M 141.5,69.5 C 142.833,70.1667 142.833,70.1667 141.5,69.5 Z"/></g>
<g><path style="opacity:0.004" fill="#000000" d="M 140.5,71.5 C 141.833,72.1667 141.833,72.1667 140.5,71.5 Z"/></g>
<g><path style="opacity:0.004" fill="#000000" d="M 369.5,71.5 C 370.833,72.1667 370.833,72.1667 369.5,71.5 Z"/></g>
<g><path style="opacity:0.004" fill="#000000" d="M 139.5,78.5 C 138.833,77.1667 138.833,77.1667 139.5,78.5 Z"/></g>
<g><path style="opacity:0.004" fill="#000000" d="M 137.5,79.5 C 138.833,80.1667 138.833,80.1667 137.5,79.5 Z"/></g>
<g><path style="opacity:0.004" fill="#000000" d="M 372.5,79.5 C 373.833,80.1667 373.833,80.1667 372.5,79.5 Z"/></g>
<g><path style="opacity:0.451" fill="#747474" d="M 131.5,111.5 C 131.5,135.833 131.5,160.167 131.5,184.5C 128.167,184.5 124.833,184.5 121.5,184.5C 124.287,183.523 127.287,183.19 130.5,183.5C 130.169,159.328 130.502,135.328 131.5,111.5 Z"/></g>
<g><path style="opacity:0.451" fill="#747474" d="M 379.5,111.5 C 380.498,135.328 380.831,159.328 380.5,183.5C 383.713,183.19 386.713,183.523 389.5,184.5C 386.167,184.5 382.833,184.5 379.5,184.5C 379.5,160.167 379.5,135.833 379.5,111.5 Z"/></g>
<g><path style="opacity:0.153" fill="#404040" d="M 167.5,125.5 C 167.5,144.833 167.5,164.167 167.5,183.5C 226.167,183.5 284.833,183.5 343.5,183.5C 343.5,164.167 343.5,144.833 343.5,125.5C 344.497,144.993 344.83,164.66 344.5,184.5C 285.167,184.5 225.833,184.5 166.5,184.5C 166.17,164.66 166.503,144.993 167.5,125.5 Z"/></g>
<g><path style="opacity:0.004" fill="#000000" d="M 109.5,187.5 C 108.833,186.167 108.833,186.167 109.5,187.5 Z"/></g>
<g><path style="opacity:0.004" fill="#000000" d="M 401.5,186.5 C 402.833,187.167 402.833,187.167 401.5,186.5 Z"/></g>
<g><path style="opacity:0.004" fill="#000000" d="M 107.5,188.5 C 106.833,187.167 106.833,187.167 107.5,188.5 Z"/></g>
<g><path style="opacity:0.004" fill="#000000" d="M 403.5,187.5 C 404.833,188.167 404.833,188.167 403.5,187.5 Z"/></g>
<g><path style="opacity:0.004" fill="#000000" d="M 101.5,189.5 C 102.833,190.167 102.833,190.167 101.5,189.5 Z"/></g>
<g><path style="opacity:0.004" fill="#000000" d="M 409.5,190.5 C 408.833,189.167 408.833,189.167 409.5,190.5 Z"/></g>
<g><path style="opacity:0.004" fill="#000000" d="M 101.5,190.5 C 101.5,190.833 101.5,191.167 101.5,191.5C 100.83,191.019 100.83,190.685 101.5,190.5 Z"/></g>
<g><path style="opacity:0.004" fill="#000000" d="M 409.5,190.5 C 410.833,191.167 410.833,191.167 409.5,190.5 Z"/></g>
<g><path style="opacity:0.004" fill="#000000" d="M 98.5,191.5 C 99.8333,192.167 99.8333,192.167 98.5,191.5 Z"/></g>
<g><path style="opacity:0.004" fill="#000000" d="M 412.5,192.5 C 411.833,191.167 411.833,191.167 412.5,192.5 Z"/></g>
<g><path style="opacity:0.004" fill="#000000" d="M 98.5,192.5 C 98.5,192.833 98.5,193.167 98.5,193.5C 97.8299,193.019 97.8299,192.685 98.5,192.5 Z"/></g>
<g><path style="opacity:0.004" fill="#000000" d="M 412.5,192.5 C 413.833,193.167 413.833,193.167 412.5,192.5 Z"/></g>
<g><path style="opacity:0.004" fill="#000000" d="M 418.5,197.5 C 417.833,196.167 417.833,196.167 418.5,197.5 Z"/></g>
<g><path style="opacity:0.004" fill="#000000" d="M 91.5,197.5 C 92.8333,198.167 92.8333,198.167 91.5,197.5 Z"/></g>
<g><path style="opacity:0.004" fill="#000000" d="M 418.5,197.5 C 419.167,197.5 419.5,197.833 419.5,198.5C 419.167,198.167 418.833,197.833 418.5,197.5 Z"/></g>
<g><path style="opacity:0.004" fill="#000000" d="M 91.5,198.5 C 90.8333,199.167 90.8333,199.167 91.5,198.5 Z"/></g>
<g><path style="opacity:0.004" fill="#000000" d="M 419.5,198.5 C 420.167,198.5 420.5,198.833 420.5,199.5C 420.167,199.167 419.833,198.833 419.5,198.5 Z"/></g>
<g><path style="opacity:0.004" fill="#000000" d="M 90.5,199.5 C 89.8333,200.167 89.8333,200.167 90.5,199.5 Z"/></g>
<g><path style="opacity:0.004" fill="#000000" d="M 420.5,199.5 C 421.167,199.5 421.5,199.833 421.5,200.5C 421.167,200.167 420.833,199.833 420.5,199.5 Z"/></g>
<g><path style="opacity:0.004" fill="#000000" d="M 89.5,200.5 C 88.8333,201.167 88.8333,201.167 89.5,200.5 Z"/></g>
<g><path style="opacity:0.004" fill="#000000" d="M 421.5,200.5 C 422.167,200.5 422.5,200.833 422.5,201.5C 422.167,201.167 421.833,200.833 421.5,200.5 Z"/></g>
<g><path style="opacity:0.004" fill="#000000" d="M 88.5,201.5 C 87.8333,202.167 87.8333,202.167 88.5,201.5 Z"/></g>
<g><path style="opacity:0.004" fill="#000000" d="M 422.5,201.5 C 423.833,202.167 423.833,202.167 422.5,201.5 Z"/></g>
<g><path style="opacity:0.004" fill="#000000" d="M 81.5,210.5 C 82.8333,211.167 82.8333,211.167 81.5,210.5 Z"/></g>
<g><path style="opacity:0.004" fill="#000000" d="M 428.5,210.5 C 429.833,211.167 429.833,211.167 428.5,210.5 Z"/></g>
<g><path style="opacity:0.004" fill="#000000" d="M 80.5,212.5 C 81.8333,213.167 81.8333,213.167 80.5,212.5 Z"/></g>
<g><path style="opacity:0.004" fill="#000000" d="M 429.5,212.5 C 430.833,213.167 430.833,213.167 429.5,212.5 Z"/></g>
<g><path style="opacity:0.004" fill="#000000" d="M 80.5,216.5 C 79.8333,215.167 79.8333,215.167 80.5,216.5 Z"/></g>
<g><path style="opacity:0.004" fill="#000000" d="M 430.5,215.5 C 431.833,216.167 431.833,216.167 430.5,215.5 Z"/></g>
<g><path style="opacity:0.739" fill="#7e7e7e" d="M 78.5,227.5 C 78.8324,290.669 78.4991,353.669 77.5,416.5C 76.3375,354.237 76.1708,291.904 77,229.5C 77.2784,228.584 77.7784,227.918 78.5,227.5 Z"/></g>
<g><path style="opacity:0.749" fill="#7e7e7e" d="M 114.5,237.5 C 114.5,292.833 114.5,348.167 114.5,403.5C 113.167,376.175 112.5,348.508 112.5,320.5C 112.5,292.492 113.167,264.825 114.5,237.5 Z"/></g>
<g><path style="opacity:0.749" fill="#7e7e7e" d="M 396.5,237.5 C 397.833,264.825 398.5,292.492 398.5,320.5C 398.5,348.508 397.833,376.175 396.5,403.5C 396.5,348.167 396.5,292.833 396.5,237.5 Z"/></g>
<g><path style="opacity:0.988" fill="#f8f8f8" d="M 279.5,280.5 C 280.5,282.167 281.833,283.5 283.5,284.5C 284.604,286.389 285.937,288.055 287.5,289.5C 288.264,292.018 289.264,294.351 290.5,296.5C 292.036,305.58 291.703,314.58 289.5,323.5C 287.847,326.131 286.181,328.797 284.5,331.5C 283.167,332.167 282.167,333.167 281.5,334.5C 280.833,334.5 280.5,334.833 280.5,335.5C 278.197,337.325 275.864,339.158 273.5,341C 274.659,361.427 274.826,381.927 274,402.5C 269.671,413.915 261.505,418.415 249.5,416C 246.471,413.824 243.471,411.657 240.5,409.5C 239.37,407.685 238.704,405.685 238.5,403.5C 239.156,381.807 238.489,360.474 236.5,339.5C 234.228,338.559 232.228,337.226 230.5,335.5C 230.5,334.833 230.167,334.5 229.5,334.5C 228.833,333.167 227.833,332.167 226.5,331.5C 225.525,329.205 224.192,327.205 222.5,325.5C 222.672,324.508 222.338,323.842 221.5,323.5C 219.297,314.58 218.964,305.58 220.5,296.5C 221.736,294.351 222.736,292.018 223.5,289.5C 224.167,289.5 224.5,289.167 224.5,288.5C 225.833,288.5 226.5,287.833 226.5,286.5C 228.137,284.525 229.804,282.525 231.5,280.5C 233.777,279.551 235.777,278.218 237.5,276.5C 248.054,270.822 259.221,270.489 271,275.5C 271.333,275.167 271.667,274.833 272,274.5C 273.662,277.577 276.162,279.577 279.5,280.5 Z"/></g>
<g><path style="opacity:0.094" fill="#5c5c5c" d="M 226.5,286.5 C 226.5,287.833 225.833,288.5 224.5,288.5C 224.987,287.527 225.487,286.527 226,285.5C 226.399,285.728 226.565,286.062 226.5,286.5 Z"/></g>
<g><path style="opacity:0.005" fill="#000000" d="M 228.5,334.5 C 228.833,334.5 229.167,334.5 229.5,334.5C 230.167,334.5 230.5,334.833 230.5,335.5C 230.5,336.167 230.5,336.833 230.5,337.5C 229.094,337.027 228.427,336.027 228.5,334.5 Z"/></g>
<g><path style="opacity:0.005" fill="#000000" d="M 281.5,334.5 C 281.833,334.5 282.167,334.5 282.5,334.5C 282.573,336.027 281.906,337.027 280.5,337.5C 280.5,336.833 280.5,336.167 280.5,335.5C 281.167,335.5 281.5,335.167 281.5,334.5 Z"/></g>
<g><path style="opacity:0.742" fill="#7f7f7f" d="M 236.5,340.5 C 236.5,340.167 236.5,339.833 236.5,339.5C 238.489,360.474 239.156,381.807 238.5,403.5C 237.883,403.389 237.383,403.056 237,402.5C 236.5,382.169 236.333,361.836 236.5,341.5C 237.833,341.167 237.833,340.833 236.5,340.5 Z"/></g>
<g><path style="opacity:0.004" fill="#000000" d="M 78.5,429.5 C 79.8333,430.167 79.8333,430.167 78.5,429.5 Z"/></g>
<g><path style="opacity:0.004" fill="#000000" d="M 431.5,429.5 C 432.833,430.167 432.833,430.167 431.5,429.5 Z"/></g>
<g><path style="opacity:0.004" fill="#000000" d="M 80.5,432.5 C 79.8333,433.167 79.8333,433.167 80.5,432.5 Z"/></g>
<g><path style="opacity:0.004" fill="#000000" d="M 430.5,432.5 C 431.833,433.167 431.833,433.167 430.5,432.5 Z"/></g>
<g><path style="opacity:0.004" fill="#000000" d="M 81.5,439.5 C 82.8333,440.167 82.8333,440.167 81.5,439.5 Z"/></g>
<g><path style="opacity:0.004" fill="#000000" d="M 428.5,439.5 C 429.833,440.167 429.833,440.167 428.5,439.5 Z"/></g>
<g><path style="opacity:0.004" fill="#000000" d="M 130.5,443.5 C 131.906,443.973 132.573,444.973 132.5,446.5C 132.167,446.5 131.833,446.5 131.5,446.5C 131.5,445.833 131.167,445.5 130.5,445.5C 130.5,444.833 130.5,444.167 130.5,443.5 Z"/></g>
<g><path style="opacity:0.004" fill="#000000" d="M 380.5,443.5 C 380.5,444.167 380.5,444.833 380.5,445.5C 379.833,445.5 379.5,445.833 379.5,446.5C 379.167,446.5 378.833,446.5 378.5,446.5C 378.427,444.973 379.094,443.973 380.5,443.5 Z"/></g>
<g><path style="opacity:0.004" fill="#000000" d="M 86.5,447.5 C 85.8333,448.167 85.8333,448.167 86.5,447.5 Z"/></g>
<g><path style="opacity:0.004" fill="#000000" d="M 87.5,449.5 C 86.8333,450.167 86.8333,450.167 87.5,449.5 Z"/></g>
<g><path style="opacity:0.004" fill="#000000" d="M 423.5,449.5 C 424.833,450.167 424.833,450.167 423.5,449.5 Z"/></g>
<g><path style="opacity:0.004" fill="#000000" d="M 88.5,451.5 C 87.8333,452.167 87.8333,452.167 88.5,451.5 Z"/></g>
<g><path style="opacity:0.004" fill="#000000" d="M 422.5,451.5 C 423.833,452.167 423.833,452.167 422.5,451.5 Z"/></g>
<g><path style="opacity:0.004" fill="#000000" d="M 88.5,453.5 C 89.8333,454.167 89.8333,454.167 88.5,453.5 Z"/></g>
<g><path style="opacity:0.004" fill="#000000" d="M 142.5,456.5 C 142.5,455.833 142.167,455.5 141.5,455.5C 141.369,454.761 141.536,454.094 142,453.5C 143.546,454.503 143.713,455.503 142.5,456.5 Z"/></g>
<g><path style="opacity:0.004" fill="#000000" d="M 421.5,453.5 C 422.833,454.167 422.833,454.167 421.5,453.5 Z"/></g>
<g><path style="opacity:0.004" fill="#000000" d="M 90.5,457.5 C 91.8333,458.167 91.8333,458.167 90.5,457.5 Z"/></g>
<g><path style="opacity:0.004" fill="#000000" d="M 419.5,457.5 C 420.833,458.167 420.833,458.167 419.5,457.5 Z"/></g>
<g><path style="opacity:0.004" fill="#000000" d="M 418.5,459.5 C 419.833,460.167 419.833,460.167 418.5,459.5 Z"/></g>
<g><path style="opacity:0.004" fill="#000000" d="M 92.5,460.5 C 93.8333,461.167 93.8333,461.167 92.5,460.5 Z"/></g>
<g><path style="opacity:0.004" fill="#000000" d="M 417.5,460.5 C 417.833,460.5 418.167,460.5 418.5,460.5C 418.315,461.17 417.981,461.17 417.5,460.5 Z"/></g>
<g><path style="opacity:0.004" fill="#000000" d="M 414.5,463.5 C 415.833,464.167 415.833,464.167 414.5,463.5 Z"/></g>
<g><path style="opacity:0.004" fill="#000000" d="M 97.5,464.5 C 96.8333,465.167 96.8333,465.167 97.5,464.5 Z"/></g>
<g><path style="opacity:0.004" fill="#000000" d="M 98.5,468.5 C 97.8333,467.167 97.8333,467.167 98.5,468.5 Z"/></g>
<g><path style="opacity:0.004" fill="#000000" d="M 412.5,467.5 C 413.833,468.167 413.833,468.167 412.5,467.5 Z"/></g>
<g><path style="opacity:0.004" fill="#000000" d="M 98.5,468.5 C 99.1667,468.5 99.5,468.833 99.5,469.5C 99.1667,469.167 98.8333,468.833 98.5,468.5 Z"/></g>
<g><path style="opacity:0.004" fill="#000000" d="M 412.5,468.5 C 411.833,469.167 411.833,469.167 412.5,468.5 Z"/></g>
<g><path style="opacity:0.008" fill="#000000" d="M 99.5,469.5 C 100.833,470.167 100.833,470.167 99.5,469.5 Z"/></g>
<g><path style="opacity:0.008" fill="#000000" d="M 411.5,469.5 C 410.833,470.167 410.833,470.167 411.5,469.5 Z"/></g>
<g><path style="opacity:0.008" fill="#000000" d="M 409.5,470.5 C 409.833,470.5 410.167,470.5 410.5,470.5C 410.315,471.17 409.981,471.17 409.5,470.5 Z"/></g>
<g><path style="opacity:0.004" fill="#000000" d="M 102.5,471.5 C 101.833,472.167 101.833,472.167 102.5,471.5 Z"/></g>
<g><path style="opacity:0.004" fill="#000000" d="M 408.5,471.5 C 408.833,471.5 409.167,471.5 409.5,471.5C 409.315,472.17 408.981,472.17 408.5,471.5 Z"/></g>
<g><path style="opacity:0.004" fill="#000000" d="M 401.5,478.5 C 402.833,479.167 402.833,479.167 401.5,478.5 Z"/></g>
<g><path style="opacity:0.008" fill="#000000" d="M 400.5,479.5 C 400.833,479.5 401.167,479.5 401.5,479.5C 401.315,480.17 400.981,480.17 400.5,479.5 Z"/></g>
<g><path style="opacity:0.008" fill="#000000" d="M 111.5,480.5 C 111.5,480.833 111.5,481.167 111.5,481.5C 110.83,481.019 110.83,480.685 111.5,480.5 Z"/></g>
<g><path style="opacity:0.008" fill="#000000" d="M 399.5,480.5 C 399.833,480.5 400.167,480.5 400.5,480.5C 400.315,481.17 399.981,481.17 399.5,480.5 Z"/></g>
<g><path style="opacity:0.004" fill="#000000" d="M 111.5,481.5 C 112.167,481.5 112.5,481.833 112.5,482.5C 112.167,482.167 111.833,481.833 111.5,481.5 Z"/></g>
<g><path style="opacity:0.008" fill="#000000" d="M 399.5,481.5 C 398.833,482.167 398.833,482.167 399.5,481.5 Z"/></g>
<g><path style="opacity:0.004" fill="#000000" d="M 112.5,482.5 C 113.833,483.167 113.833,483.167 112.5,482.5 Z"/></g>
<g><path style="opacity:0.004" fill="#000000" d="M 394.5,484.5 C 394.068,485.71 393.401,486.71 392.5,487.5C 392.5,486.833 392.5,486.167 392.5,485.5C 392.842,484.662 393.508,484.328 394.5,484.5 Z"/></g>
<g><path style="opacity:0.004" fill="#000000" d="M 118.5,485.5 C 118.5,486.167 118.5,486.833 118.5,487.5C 117.167,486.833 117.167,486.167 118.5,485.5 Z"/></g>
<g><path style="opacity:0.004" fill="#000000" d="M 118.5,487.5 C 119.833,488.167 119.833,488.167 118.5,487.5 Z"/></g>
<g><path style="opacity:0.004" fill="#000000" d="M 392.5,487.5 C 391.833,488.167 391.833,488.167 392.5,487.5 Z"/></g>
<g><path style="opacity:0.004" fill="#000000" d="M 120.5,488.5 C 121.833,489.167 121.833,489.167 120.5,488.5 Z"/></g>
<g><path style="opacity:0.004" fill="#000000" d="M 389.5,488.5 C 390.833,489.167 390.833,489.167 389.5,488.5 Z"/></g>
<g><path style="opacity:0.004" fill="#000000" d="M 389.5,489.5 C 388.833,490.167 388.833,490.167 389.5,489.5 Z"/></g>
<g><path style="opacity:0.004" fill="#000000" d="M 127.5,492.5 C 128.833,493.167 128.833,493.167 127.5,492.5 Z"/></g>
<g><path style="opacity:0.004" fill="#000000" d="M 382.5,492.5 C 383.833,493.167 383.833,493.167 382.5,492.5 Z"/></g>
<g><path style="opacity:0.004" fill="#000000" d="M 129.5,493.5 C 130.833,494.167 130.833,494.167 129.5,493.5 Z"/></g>
<g><path style="opacity:0.004" fill="#000000" d="M 380.5,493.5 C 381.833,494.167 381.833,494.167 380.5,493.5 Z"/></g>
<g><path style="opacity:0.004" fill="#000000" d="M 132.5,494.5 C 131.833,495.167 131.833,495.167 132.5,494.5 Z"/></g>
<g><path style="opacity:0.004" fill="#000000" d="M 378.5,494.5 C 379.833,495.167 379.833,495.167 378.5,494.5 Z"/></g>
<g><path style="opacity:0.004" fill="#000000" d="M 137.5,497.5 C 136.833,498.167 136.833,498.167 137.5,497.5 Z"/></g>
<g><path style="opacity:0.004" fill="#000000" d="M 371.5,498.5 C 372.833,499.167 372.833,499.167 371.5,498.5 Z"/></g>
<g><path style="opacity:0.004" fill="#000000" d="M 141.5,499.5 C 142.833,500.167 142.833,500.167 141.5,499.5 Z"/></g>
<g><path style="opacity:0.004" fill="#000000" d="M 368.5,499.5 C 369.833,500.167 369.833,500.167 368.5,499.5 Z"/></g>
<g><path style="opacity:0.004" fill="#000000" d="M 148.5,501.5 C 149.833,502.167 149.833,502.167 148.5,501.5 Z"/></g>
<g><path style="opacity:0.004" fill="#000000" d="M 361.5,501.5 C 362.833,502.167 362.833,502.167 361.5,501.5 Z"/></g>
</svg>
