<?xml version="1.0" encoding="UTF-8"?>
<svg version="1.1" xmlns="http://www.w3.org/2000/svg" width="512" height="512">
<path d="M0 0 C0.9731845 -0.00297112 1.94636899 -0.00594224 2.94904393 -0.0090034 C6.20742699 -0.01766914 9.46577321 -0.01919689 12.72416687 -0.02069092 C15.06197182 -0.02532077 17.39977602 -0.03034566 19.73757935 -0.03573608 C26.08940231 -0.04885017 32.44121471 -0.05530369 38.7930491 -0.05974674 C42.76621088 -0.06268044 46.7393698 -0.06678592 50.71253014 -0.07125092 C61.73163989 -0.0834433 72.75074773 -0.09374068 83.76986408 -0.09712601 C84.4746035 -0.09734557 85.17934292 -0.09756514 85.90543808 -0.09779136 C86.61179419 -0.09800964 87.31815029 -0.09822791 88.04591113 -0.09845281 C89.4770745 -0.09889626 90.90823788 -0.09934282 92.33940125 -0.09979248 C93.40424413 -0.10012463 93.40424413 -0.10012463 94.490599 -0.10046348 C105.96977991 -0.10440371 117.44889704 -0.12183412 128.92805336 -0.145152 C140.73808751 -0.1689464 152.54808979 -0.18133162 164.35814828 -0.18249393 C170.97896323 -0.18340649 177.59970491 -0.18937618 184.22049904 -0.20731354 C190.45775453 -0.22388244 196.69485343 -0.22590711 202.93212318 -0.21717453 C205.20998557 -0.21640873 207.48785668 -0.22068588 209.76569748 -0.23063278 C254.09900792 -0.4127282 291.98748443 15.84254374 323.84403992 46.32794189 C357.2823821 80.54505187 366.79663263 122.97223729 366.68451643 169.30084729 C366.67681807 173.48753236 366.68399309 177.67419959 366.68867493 181.86088562 C366.6941027 188.88501584 366.68701917 195.90905081 366.6726532 202.9331665 C366.65632608 211.00849872 366.66162773 219.08360362 366.67813241 227.15893036 C366.69182526 234.14296023 366.69362934 241.1269224 366.68581641 248.11096138 C366.68118323 252.26008853 366.68039301 256.40910948 366.69042587 260.55822945 C366.75887333 293.34296062 366.75887333 293.34296062 363.28153992 307.14044189 C362.96667568 308.47590725 362.65317761 309.81169534 362.34095764 311.14778137 C352.98267901 349.9760724 327.63359369 382.85118696 294.28153992 404.14044189 C293.70178406 404.51298096 293.1220282 404.88552002 292.52470398 405.26934814 C279.48128268 413.5233287 265.0109354 419.18305527 250.09403992 423.01544189 C249.36040222 423.20646484 248.62676453 423.39748779 247.87089539 423.59429932 C234.37846722 426.8119939 220.6237654 427.388097 206.81797791 427.54580688 C139.62668722 428.41858251 82.34645359 450.73089698 34.85966492 498.58184814 C34.13521179 499.31177979 33.41075867 500.04171143 32.66435242 500.79376221 C31.2728385 502.20247891 29.88712235 503.61695323 28.50810242 505.03790283 C27.88161804 505.67631104 27.25513367 506.31471924 26.60966492 506.97247314 C26.06213562 507.53684082 25.51460632 508.1012085 24.95048523 508.68267822 C20.61273733 512.47154492 16.54614815 512.56823406 10.97685242 512.45684814 C7.16563855 512.00944478 5.07851069 510.72763986 2.28153992 508.14044189 C-0.8003153 504.04436929 -1.13643788 500.56708436 -1.05903625 495.59625244 C-1.05947433 494.85425095 -1.05991241 494.11224945 -1.06036377 493.34776306 C-1.05828199 490.90728996 -1.03498059 488.467513 -1.01142883 486.02716064 C-1.00583069 484.33037186 -1.00156162 482.63357821 -0.99856567 480.93678284 C-0.98713408 476.47985347 -0.95768151 472.02321932 -0.92445374 467.56640625 C-0.89371644 463.01495354 -0.88005253 458.46345294 -0.86494446 453.91192627 C-0.83281011 444.98796873 -0.78163422 436.0642299 -0.71846008 427.14044189 C-1.9928595 427.01491943 -3.26725891 426.88939697 -4.58027649 426.7600708 C-6.28521215 426.58758247 -7.99012639 426.41488236 -9.69502258 426.24200439 C-10.53106018 426.16022949 -11.36709778 426.07845459 -12.22846985 425.99420166 C-39.75774506 423.17582365 -66.37173582 411.67321809 -87.71846008 394.14044189 C-88.28016907 393.68411377 -88.84187805 393.22778564 -89.42060852 392.75762939 C-120.80320046 367.14477749 -141.05425998 330.52926027 -145.71846008 290.14044189 C-145.98966721 285.08285005 -146.01316704 280.03223085 -146.00898743 274.96881104 C-146.01498923 273.49521551 -146.02179849 272.0216231 -146.02934265 270.54803467 C-146.04684867 266.58256057 -146.05169164 262.61717304 -146.05297422 258.65166402 C-146.05440595 256.16104653 -146.05869478 253.67045033 -146.06396866 251.17983818 C-146.08242281 242.4530691 -146.09064567 233.7263607 -146.08906555 224.99957275 C-146.08786759 216.9272499 -146.10891387 208.85519589 -146.14055288 200.78294092 C-146.16691265 193.80318699 -146.17742459 186.82351974 -146.17615473 179.84371656 C-146.17565055 175.69709149 -146.18102536 171.55070541 -146.20251083 167.40413094 C-146.30645454 145.86383566 -145.8071936 124.81828362 -138.46846008 104.26544189 C-138.17253967 103.41014893 -137.87661926 102.55485596 -137.57173157 101.67364502 C-129.86175465 80.08329463 -117.24901768 61.86139873 -101.71846008 45.14044189 C-101.12935852 44.48559814 -100.54025696 43.83075439 -99.93330383 43.15606689 C-77.96185123 19.78423599 -46.71627863 6.71507822 -15.71846008 1.14044189 C-14.42862323 0.87831343 -14.42862323 0.87831343 -13.11272907 0.61088943 C-8.7227604 0.00243737 -4.42656575 -0.00423932 0 0 Z M-26.87471008 191.79669189 C-33.92112643 200.75400081 -34.52953047 210.12816222 -33.71846008 221.14044189 C-32.86395684 224.51939187 -31.57453662 227.20309959 -29.71846008 230.14044189 C-29.29435852 230.83653564 -28.87025696 231.53262939 -28.43330383 232.24981689 C-22.74927084 240.67295214 -14.58648486 245.21497365 -4.71846008 247.14044189 C4.3976782 248.3859105 12.91852527 245.06063054 20.24638367 239.80059814 C27.64304341 233.76685459 31.9349288 226.32216768 33.21903992 216.82794189 C33.74247163 207.21827247 31.12269495 198.96736734 25.30107117 191.33184814 C22.04627138 187.80004412 18.50878694 185.37970037 14.28153992 183.14044189 C13.66794617 182.80141846 13.05435242 182.46239502 12.42216492 182.11309814 C-1.48008021 175.66697166 -17.04303562 181.11008921 -26.87471008 191.79669189 Z M84.58622742 191.25372314 C78.74582815 200.2377253 75.12472454 208.25129226 76.90653992 219.07794189 C79.27971242 229.08249266 83.830193 236.19980356 92.28153992 242.14044189 C100.89957667 246.96710209 109.58339327 248.55901321 119.21903992 246.01544189 C128.3057761 243.02840419 136.05796774 237.36028307 140.50028992 228.78887939 C144.39997506 219.79174867 145.2830808 211.55907017 142.28153992 202.14044189 C139.84458299 196.56645677 136.8888151 192.17180768 132.28153992 188.14044189 C131.55966492 187.45981689 130.83778992 186.77919189 130.09403992 186.07794189 C116.09176636 176.43193122 95.71325161 177.38340036 84.58622742 191.25372314 Z M195.36747742 191.29669189 C189.16978828 199.78667702 186.14136054 208.77905442 187.59013367 219.34747314 C189.99650136 229.068111 195.03128597 236.49982346 203.28153992 242.14044189 C211.91337881 246.95462196 220.57199262 248.5620227 230.21903992 246.01544189 C240.40092128 242.64230328 246.92037423 236.40387798 252.37919617 227.31231689 C256.05474478 219.44835242 255.59556168 208.72496596 252.71903992 200.70294189 C248.38590242 191.46813467 240.72500855 184.45674669 231.21513367 180.90997314 C218.09164675 177.4674606 204.43862085 181.07777113 195.36747742 191.29669189 Z " fill="#000000" transform="translate(145.7184600830078,-0.14044189453125)"/>
</svg>
