<?xml version="1.0" encoding="UTF-8"?>
<!DOCTYPE svg PUBLIC "-//W3C//DTD SVG 1.1//EN" "http://www.w3.org/Graphics/SVG/1.1/DTD/svg11.dtd">
<svg xmlns="http://www.w3.org/2000/svg" version="1.1" width="512px" height="512px" style="shape-rendering:geometricPrecision; text-rendering:geometricPrecision; image-rendering:optimizeQuality; fill-rule:evenodd; clip-rule:evenodd" xmlns:xlink="http://www.w3.org/1999/xlink">
<g><path style="opacity:0.987" fill="#fcfcfc" d="M 511.5,99.5 C 511.5,107.833 511.5,116.167 511.5,124.5C 509.685,128.796 507.352,132.796 504.5,136.5C 502.738,137.262 501.738,138.596 501.5,140.5C 404.86,236.473 308.527,332.806 212.5,429.5C 210.596,429.738 209.262,430.738 208.5,432.5C 207.205,433.488 205.872,434.488 204.5,435.5C 203.673,434.561 203.006,434.895 202.5,436.5C 186.101,443.801 170.768,441.967 156.5,431C 107,381.5 57.5,332 8,282.5C 4.619,277.73 1.78567,272.73 -0.5,267.5C -0.5,259.167 -0.5,250.833 -0.5,242.5C 9.54321,219.974 26.8765,210.808 51.5,215C 55.2857,216.393 58.9523,218.059 62.5,220C 102.986,259.653 143.319,299.486 183.5,339.5C 270.32,253.18 356.986,166.68 443.5,80C 444.094,79.5357 444.761,79.369 445.5,79.5C 446.5,79.1667 447.167,78.5 447.5,77.5C 469.168,65.1123 488.334,68.4456 505,87.5C 507.464,91.4339 509.631,95.4339 511.5,99.5 Z"/></g>
<g><path style="opacity:0.039" fill="#333333" d="M 447.5,77.5 C 447.167,78.5 446.5,79.1667 445.5,79.5C 445.5,78.1667 446.167,77.5 447.5,77.5 Z"/></g>
<g><path style="opacity:0.004" fill="#181818" d="M 504.5,136.5 C 504.262,138.404 503.262,139.738 501.5,140.5C 501.738,138.596 502.738,137.262 504.5,136.5 Z"/></g>
<g><path style="opacity:0.004" fill="#191919" d="M 212.5,429.5 C 211.738,431.262 210.404,432.262 208.5,432.5C 209.262,430.738 210.596,429.738 212.5,429.5 Z"/></g>
<g><path style="opacity:0.004" fill="#1f1f1f" d="M 204.5,435.5 C 204.158,436.338 203.492,436.672 202.5,436.5C 203.006,434.895 203.673,434.561 204.5,435.5 Z"/></g>
</svg>
