<?xml version="1.0" encoding="UTF-8"?>
<!DOCTYPE svg PUBLIC "-//W3C//DTD SVG 1.1//EN" "http://www.w3.org/Graphics/SVG/1.1/DTD/svg11.dtd">
<svg xmlns="http://www.w3.org/2000/svg" version="1.1" width="512px" height="512px" style="shape-rendering:geometricPrecision; text-rendering:geometricPrecision; image-rendering:optimizeQuality; fill-rule:evenodd; clip-rule:evenodd" xmlns:xlink="http://www.w3.org/1999/xlink">
<g><path style="opacity:0.743" fill="#fcfcfc" d="M 424.5,15.5 C 426.027,15.573 427.027,14.9063 427.5,13.5C 430.835,10.1611 434.835,7.82776 439.5,6.5C 441.781,6.92271 443.448,6.25605 444.5,4.5C 471.035,-1.3167 490.868,7.6833 504,31.5C 511.435,50.2112 509.102,67.5445 497,83.5C 439.833,140.667 382.667,197.833 325.5,255C 384.973,313.472 444.139,372.306 503,431.5C 505.372,434.91 507.205,438.577 508.5,442.5C 508.077,444.781 508.744,446.448 510.5,447.5C 510.5,448.167 510.833,448.5 511.5,448.5C 511.5,457.167 511.5,465.833 511.5,474.5C 509.04,482.085 505.04,488.752 499.5,494.5C 498.167,495.167 497.167,496.167 496.5,497.5C 496.027,498.906 495.027,499.573 493.5,499.5C 492.5,499.833 491.833,500.5 491.5,501.5C 482.781,507.404 473.114,510.07 462.5,509.5C 451.163,510.22 440.83,507.386 431.5,501C 372.361,442.861 313.527,384.361 255,325.5C 197.5,383 140,440.5 82.5,498C 68.8888,508.393 53.5554,512.059 36.5,509C 17.6046,504.932 5.27129,493.765 -0.5,475.5C -0.5,466.5 -0.5,457.5 -0.5,448.5C 1.3443,444.99 3.01097,441.323 4.5,437.5C 5.83333,437.5 6.5,436.833 6.5,435.5C 7.12236,433.878 8.12236,432.545 9.5,431.5C 11.2624,430.738 12.2624,429.404 12.5,427.5C 69.632,369.868 126.965,312.368 184.5,255C 126.667,197.167 68.8333,139.333 11,81.5C -0.579671,65.4213 -2.413,48.4213 5.5,30.5C 6.67373,29.4863 7.3404,28.153 7.5,26.5C 7.32842,25.5084 7.66175,24.8417 8.5,24.5C 9.5,24.1667 10.1667,23.5 10.5,22.5C 10.3284,21.5084 10.6618,20.8417 11.5,20.5C 12.9063,20.0269 13.573,19.0269 13.5,17.5C 14.1667,16.1667 15.1667,15.1667 16.5,14.5C 18.0269,14.573 19.0269,13.9063 19.5,12.5C 22.8349,9.16109 26.8349,6.82776 31.5,5.5C 33.7812,5.92271 35.4479,5.25605 36.5,3.5C 52.8255,-1.20256 67.8255,1.63078 81.5,12C 139.027,69.8609 196.861,127.361 255,184.5C 311.368,127.965 367.868,71.632 424.5,15.5 Z"/></g>
<g><path style="opacity:0.263" fill="#9d9d9d" d="M 36.5,3.5 C 35.4479,5.25605 33.7812,5.92271 31.5,5.5C 32.7804,4.06873 34.4471,3.40206 36.5,3.5 Z"/></g>
<g><path style="opacity:0.369" fill="#9b9b9b" d="M 444.5,4.5 C 443.448,6.25605 441.781,6.92271 439.5,6.5C 440.78,5.06873 442.447,4.40206 444.5,4.5 Z"/></g>
<g><path style="opacity:0.031" fill="#2f2f2f" d="M 19.5,12.5 C 19.0269,13.9063 18.0269,14.573 16.5,14.5C 16.9731,13.0937 17.9731,12.427 19.5,12.5 Z"/></g>
<g><path style="opacity:0.024" fill="#343434" d="M 427.5,13.5 C 427.027,14.9063 426.027,15.573 424.5,15.5C 424.973,14.0937 425.973,13.427 427.5,13.5 Z"/></g>
<g><path style="opacity:0.027" fill="#1d1d1d" d="M 13.5,17.5 C 13.573,19.0269 12.9063,20.0269 11.5,20.5C 11.427,18.9731 12.0937,17.9731 13.5,17.5 Z"/></g>
<g><path style="opacity:0.035" fill="#2d2d2d" d="M 10.5,22.5 C 10.1667,23.5 9.5,24.1667 8.5,24.5C 8.5,23.1667 9.16667,22.5 10.5,22.5 Z"/></g>
<g><path style="opacity:0.039" fill="#1d1d1d" d="M 7.5,26.5 C 7.3404,28.153 6.67373,29.4863 5.5,30.5C 5.22911,28.6203 5.89578,27.287 7.5,26.5 Z"/></g>
<g><path style="opacity:0.024" fill="#232323" d="M 12.5,427.5 C 12.2624,429.404 11.2624,430.738 9.5,431.5C 9.73758,429.596 10.7376,428.262 12.5,427.5 Z"/></g>
<g><path style="opacity:0.039" fill="#1c1c1c" d="M 6.5,435.5 C 6.5,436.833 5.83333,437.5 4.5,437.5C 4.83333,436.5 5.5,435.833 6.5,435.5 Z"/></g>
<g><path style="opacity:0.382" fill="#8d8d8d" d="M 508.5,442.5 C 509.931,443.78 510.598,445.447 510.5,447.5C 508.744,446.448 508.077,444.781 508.5,442.5 Z"/></g>
<g><path style="opacity:0.004" fill="#1c1c1c" d="M 499.5,494.5 C 499.5,496.5 498.5,497.5 496.5,497.5C 497.167,496.167 498.167,495.167 499.5,494.5 Z"/></g>
<g><path style="opacity:0.004" fill="#272727" d="M 493.5,499.5 C 493.5,500.833 492.833,501.5 491.5,501.5C 491.833,500.5 492.5,499.833 493.5,499.5 Z"/></g>
</svg>
