<?xml version="1.0" encoding="UTF-8"?>
<!DOCTYPE svg PUBLIC "-//W3C//DTD SVG 1.1//EN" "http://www.w3.org/Graphics/SVG/1.1/DTD/svg11.dtd">
<svg xmlns="http://www.w3.org/2000/svg" version="1.1" width="512px" height="512px" style="shape-rendering:geometricPrecision; text-rendering:geometricPrecision; image-rendering:optimizeQuality; fill-rule:evenodd; clip-rule:evenodd" xmlns:xlink="http://www.w3.org/1999/xlink">
<g><path style="opacity:0.998" fill="#fdfdfd" d="M 444.5,396.5 C 443.094,396.973 442.427,397.973 442.5,399.5C 441.833,400.167 441.167,400.833 440.5,401.5C 439.094,401.973 438.427,402.973 438.5,404.5C 437.833,405.167 437.167,405.833 436.5,406.5C 434.738,407.262 433.738,408.596 433.5,410.5C 432.194,412.473 430.527,414.139 428.5,415.5C 423.833,419.5 419.5,423.833 415.5,428.5C 414.139,430.527 412.473,432.194 410.5,433.5C 408.596,433.738 407.262,434.738 406.5,436.5C 406.027,437.906 405.027,438.573 403.5,438.5C 402.5,438.833 401.833,439.5 401.5,440.5C 401.167,441.5 400.5,442.167 399.5,442.5C 397.973,442.427 396.973,443.094 396.5,444.5C 395.101,445.89 393.434,446.89 391.5,447.5C 390.5,447.833 389.833,448.5 389.5,449.5C 387.853,451.326 385.853,452.66 383.5,453.5C 381.973,453.427 380.973,454.094 380.5,455.5C 313.101,495.673 242.435,502.173 168.5,475C 157.308,470.154 146.475,464.654 136,458.5C 107.594,469.192 79.0936,479.692 50.5,490C 35.9635,493.939 25.9635,488.939 20.5,475C 19.438,471.211 19.2713,467.377 20,463.5C 30.6416,433.906 41.4749,404.406 52.5,375C 14.4103,307.669 9.24368,237.836 37,165.5C 40.6698,156.827 44.8365,148.494 49.5,140.5C 50.9063,140.027 51.573,139.027 51.5,137.5C 52.0891,134.724 53.4224,132.39 55.5,130.5C 56.5,130.167 57.1667,129.5 57.5,128.5C 57.2291,126.62 57.8958,125.287 59.5,124.5C 60.5,124.167 61.1667,123.5 61.5,122.5C 61.5,122.167 61.5,121.833 61.5,121.5C 62.5,121.167 63.1667,120.5 63.5,119.5C 65.3437,115.808 67.6771,112.475 70.5,109.5C 71.9063,109.027 72.573,108.027 72.5,106.5C 73.2719,105.306 74.2719,104.306 75.5,103.5C 76.9063,103.027 77.573,102.027 77.5,100.5C 79.1394,98.1939 81.1394,96.1939 83.5,94.5C 87.8333,90.8333 91.8333,86.8333 95.5,82.5C 96.973,80.6053 98.6397,78.9387 100.5,77.5C 102.027,77.573 103.027,76.9063 103.5,75.5C 104.306,74.2719 105.306,73.2719 106.5,72.5C 108.027,72.573 109.027,71.9063 109.5,70.5C 112.475,67.6771 115.808,65.3437 119.5,63.5C 120.5,63.1667 121.167,62.5 121.5,61.5C 122.222,60.4489 123.222,59.7822 124.5,59.5C 126.027,59.573 127.027,58.9063 127.5,57.5C 127.833,57.5 128.167,57.5 128.5,57.5C 129.5,57.1667 130.167,56.5 130.5,55.5C 132.938,53.4654 135.605,51.7987 138.5,50.5C 139.327,51.4387 139.994,51.1054 140.5,49.5C 203.81,15.6093 269.476,10.4426 337.5,34C 409.784,62.9504 457.951,114.45 482,188.5C 502.57,264.102 490.07,333.435 444.5,396.5 Z"/></g>
<g><path style="opacity:0.039" fill="#2a2a2a" d="M 140.5,49.5 C 139.994,51.1054 139.327,51.4387 138.5,50.5C 138.842,49.6618 139.508,49.3284 140.5,49.5 Z"/></g>
<g><path style="opacity:0.039" fill="#2a2a2a" d="M 130.5,55.5 C 130.167,56.5 129.5,57.1667 128.5,57.5C 128.5,56.1667 129.167,55.5 130.5,55.5 Z"/></g>
<g><path style="opacity:0.039" fill="#232323" d="M 127.5,57.5 C 127.027,58.9063 126.027,59.573 124.5,59.5C 124.973,58.0937 125.973,57.427 127.5,57.5 Z"/></g>
<g><path style="opacity:0.035" fill="#2d2d2d" d="M 121.5,61.5 C 121.167,62.5 120.5,63.1667 119.5,63.5C 119.5,62.1667 120.167,61.5 121.5,61.5 Z"/></g>
<g><path style="opacity:0.031" fill="#292929" d="M 109.5,70.5 C 109.027,71.9063 108.027,72.573 106.5,72.5C 106.973,71.0937 107.973,70.427 109.5,70.5 Z"/></g>
<g><path style="opacity:0.035" fill="#373737" d="M 103.5,75.5 C 103.027,76.9063 102.027,77.573 100.5,77.5C 100.973,76.0937 101.973,75.427 103.5,75.5 Z"/></g>
<g><path style="opacity:0.035" fill="#2b2b2b" d="M 95.5,82.5 C 91.8333,86.8333 87.8333,90.8333 83.5,94.5C 86.5,89.5 90.5,85.5 95.5,82.5 Z"/></g>
<g><path style="opacity:0.043" fill="#1d1d1d" d="M 77.5,100.5 C 77.573,102.027 76.9063,103.027 75.5,103.5C 75.427,101.973 76.0937,100.973 77.5,100.5 Z"/></g>
<g><path style="opacity:0.039" fill="#212121" d="M 72.5,106.5 C 72.573,108.027 71.9063,109.027 70.5,109.5C 70.427,107.973 71.0937,106.973 72.5,106.5 Z"/></g>
<g><path style="opacity:0.043" fill="#2d2d2d" d="M 63.5,119.5 C 63.1667,120.5 62.5,121.167 61.5,121.5C 61.5,120.167 62.1667,119.5 63.5,119.5 Z"/></g>
<g><path style="opacity:0.02" fill="#292929" d="M 61.5,122.5 C 61.1667,123.5 60.5,124.167 59.5,124.5C 59.5,123.167 60.1667,122.5 61.5,122.5 Z"/></g>
<g><path style="opacity:0.047" fill="#2b2b2b" d="M 57.5,128.5 C 57.1667,129.5 56.5,130.167 55.5,130.5C 55.5,129.167 56.1667,128.5 57.5,128.5 Z"/></g>
<g><path style="opacity:0.055" fill="#282828" d="M 51.5,137.5 C 51.573,139.027 50.9063,140.027 49.5,140.5C 49.427,138.973 50.0937,137.973 51.5,137.5 Z"/></g>
<g><path style="opacity:0.004" fill="#1b1b1b" d="M 444.5,396.5 C 444.573,398.027 443.906,399.027 442.5,399.5C 442.427,397.973 443.094,396.973 444.5,396.5 Z"/></g>
<g><path style="opacity:0.004" fill="#1e1e1e" d="M 440.5,401.5 C 440.573,403.027 439.906,404.027 438.5,404.5C 438.427,402.973 439.094,401.973 440.5,401.5 Z"/></g>
<g><path style="opacity:0.004" fill="#191919" d="M 436.5,406.5 C 436.262,408.404 435.262,409.738 433.5,410.5C 433.738,408.596 434.738,407.262 436.5,406.5 Z"/></g>
<g><path style="opacity:0.004" fill="#181818" d="M 428.5,415.5 C 425.167,420.833 420.833,425.167 415.5,428.5C 419.5,423.833 423.833,419.5 428.5,415.5 Z"/></g>
<g><path style="opacity:0.004" fill="#191919" d="M 410.5,433.5 C 409.738,435.262 408.404,436.262 406.5,436.5C 407.262,434.738 408.596,433.738 410.5,433.5 Z"/></g>
<g><path style="opacity:0.004" fill="#2c2c2c" d="M 403.5,438.5 C 403.5,439.833 402.833,440.5 401.5,440.5C 401.833,439.5 402.5,438.833 403.5,438.5 Z"/></g>
<g><path style="opacity:0.004" fill="#191919" d="M 399.5,442.5 C 399.027,443.906 398.027,444.573 396.5,444.5C 396.973,443.094 397.973,442.427 399.5,442.5 Z"/></g>
<g><path style="opacity:0.004" fill="#2c2c2c" d="M 391.5,447.5 C 391.5,448.833 390.833,449.5 389.5,449.5C 389.833,448.5 390.5,447.833 391.5,447.5 Z"/></g>
<g><path style="opacity:0.004" fill="#1e1e1e" d="M 383.5,453.5 C 383.027,454.906 382.027,455.573 380.5,455.5C 380.973,454.094 381.973,453.427 383.5,453.5 Z"/></g>
</svg>
