<?xml version="1.0" encoding="UTF-8"?>
<!DOCTYPE svg PUBLIC "-//W3C//DTD SVG 1.1//EN" "http://www.w3.org/Graphics/SVG/1.1/DTD/svg11.dtd">
<svg xmlns="http://www.w3.org/2000/svg" version="1.1" width="512px" height="512px" style="shape-rendering:geometricPrecision; text-rendering:geometricPrecision; image-rendering:optimizeQuality; fill-rule:evenodd; clip-rule:evenodd" xmlns:xlink="http://www.w3.org/1999/xlink">
<g><path style="opacity:0.994" fill="#f7f4f4" d="M 322.5,27.5 C 324.849,29.341 327.515,30.6743 330.5,31.5C 330.973,32.9063 331.973,33.573 333.5,33.5C 336.779,37.4458 340.446,41.1125 344.5,44.5C 345.512,45.8717 346.512,47.205 347.5,48.5C 348.93,52.3544 350.597,56.0211 352.5,59.5C 352.263,60.791 352.596,61.791 353.5,62.5C 355.327,67.9922 357.327,73.3256 359.5,78.5C 359.954,81.1398 361.121,83.4732 363,85.5C 363.333,84.8333 363.667,84.1667 364,83.5C 366.036,89.1371 370.202,92.3038 376.5,93C 405.127,94.292 433.793,94.9586 462.5,95C 466.592,97.2553 470.258,100.089 473.5,103.5C 477.405,109.884 477.405,116.217 473.5,122.5C 472.662,122.842 472.328,123.508 472.5,124.5C 471.833,124.5 471.5,124.833 471.5,125.5C 469.157,128.33 466.157,130.163 462.5,131C 324.5,131.667 186.5,131.667 48.5,131C 44.8426,130.163 41.8426,128.33 39.5,125.5C 39.0679,124.29 38.4013,123.29 37.5,122.5C 33.5118,116.199 33.5118,109.865 37.5,103.5C 39.2624,102.738 40.2624,101.404 40.5,99.5C 43.0245,97.8229 45.6912,96.3229 48.5,95C 75.5,94.6667 102.5,94.3333 129.5,94C 135.643,93.6405 140.977,91.4738 145.5,87.5C 146.5,87.1667 147.167,86.5 147.5,85.5C 148.89,84.1007 149.89,82.4341 150.5,80.5C 151.338,80.1583 151.672,79.4916 151.5,78.5C 154.018,72.2845 156.351,65.9511 158.5,59.5C 160.787,54.9252 163.121,50.2585 165.5,45.5C 168.595,43.4108 170.929,40.7441 172.5,37.5C 174.389,36.396 176.055,35.0627 177.5,33.5C 179.027,33.573 180.027,32.9063 180.5,31.5C 184.324,30.6507 186.991,28.984 188.5,26.5C 189.086,26.7093 189.586,27.0426 190,27.5C 192.851,25.6555 196.018,24.4888 199.5,24C 236.5,23.3333 273.5,23.3333 310.5,24C 314.752,24.5601 318.752,25.7267 322.5,27.5 Z M 309.5,63.5 C 308.453,64.0778 308.62,64.7445 310,65.5C 310.399,65.2716 310.565,64.9382 310.5,64.5C 314.475,66.7837 316.475,69.9503 316.5,74C 319.538,80.4307 322.204,87.0974 324.5,94C 278.5,94.6667 232.5,94.6667 186.5,94C 189.442,85.383 192.609,76.883 196,68.5C 197.371,66.9586 198.871,65.6253 200.5,64.5C 201.078,65.547 201.744,65.3803 202.5,64C 202.272,63.6012 201.938,63.4346 201.5,63.5C 203.148,62.0735 205.148,61.2401 207.5,61C 239.5,60.3333 271.5,60.3333 303.5,61C 305.852,61.2401 307.852,62.0735 309.5,63.5 Z"/></g>
<g><path style="opacity:0.004" fill="#000000" d="M 322.5,26.5 C 323.833,27.1667 323.833,27.1667 322.5,26.5 Z"/></g>
<g><path style="opacity:0.004" fill="#000000" d="M 182.5,28.5 C 183.833,29.1667 183.833,29.1667 182.5,28.5 Z"/></g>
<g><path style="opacity:0.004" fill="#000000" d="M 327.5,28.5 C 328.833,29.1667 328.833,29.1667 327.5,28.5 Z"/></g>
<g><path style="opacity:0.004" fill="#000000" d="M 180.5,29.5 C 181.833,30.1667 181.833,30.1667 180.5,29.5 Z"/></g>
<g><path style="opacity:0.004" fill="#000000" d="M 330.5,30.5 C 329.833,29.1667 329.833,29.1667 330.5,30.5 Z"/></g>
<g><path style="opacity:0.004" fill="#000000" d="M 180.5,30.5 C 180.5,30.8333 180.5,31.1667 180.5,31.5C 179.83,31.0187 179.83,30.6853 180.5,30.5 Z"/></g>
<g><path style="opacity:0.004" fill="#000000" d="M 330.5,30.5 C 331.833,31.1667 331.833,31.1667 330.5,30.5 Z"/></g>
<g><path style="opacity:0.004" fill="#000000" d="M 177.5,31.5 C 178.833,32.1667 178.833,32.1667 177.5,31.5 Z"/></g>
<g><path style="opacity:0.004" fill="#000000" d="M 333.5,32.5 C 332.833,31.1667 332.833,31.1667 333.5,32.5 Z"/></g>
<g><path style="opacity:0.004" fill="#000000" d="M 177.5,32.5 C 177.5,32.8333 177.5,33.1667 177.5,33.5C 176.83,33.0187 176.83,32.6853 177.5,32.5 Z"/></g>
<g><path style="opacity:0.004" fill="#000000" d="M 333.5,32.5 C 334.833,33.1667 334.833,33.1667 333.5,32.5 Z"/></g>
<g><path style="opacity:0.004" fill="#000000" d="M 172.5,37.5 C 171.833,36.1667 171.833,36.1667 172.5,37.5 Z"/></g>
<g><path style="opacity:0.004" fill="#000000" d="M 339.5,37.5 C 338.833,36.1667 338.833,36.1667 339.5,37.5 Z"/></g>
<g><path style="opacity:0.004" fill="#000000" d="M 171.5,37.5 C 170.833,38.1667 170.833,38.1667 171.5,37.5 Z"/></g>
<g><path style="opacity:0.004" fill="#000000" d="M 339.5,37.5 C 340.167,37.5 340.5,37.8333 340.5,38.5C 340.167,38.1667 339.833,37.8333 339.5,37.5 Z"/></g>
<g><path style="opacity:0.008" fill="#000000" d="M 170.5,38.5 C 169.833,39.1667 169.833,39.1667 170.5,38.5 Z"/></g>
<g><path style="opacity:0.004" fill="#000000" d="M 340.5,38.5 C 341.167,38.5 341.5,38.8333 341.5,39.5C 341.167,39.1667 340.833,38.8333 340.5,38.5 Z"/></g>
<g><path style="opacity:0.004" fill="#000000" d="M 169.5,39.5 C 168.833,40.1667 168.833,40.1667 169.5,39.5 Z"/></g>
<g><path style="opacity:0.004" fill="#000000" d="M 341.5,39.5 C 342.167,39.5 342.5,39.8333 342.5,40.5C 342.167,40.1667 341.833,39.8333 341.5,39.5 Z"/></g>
<g><path style="opacity:0.004" fill="#000000" d="M 168.5,40.5 C 167.833,41.1667 167.833,41.1667 168.5,40.5 Z"/></g>
<g><path style="opacity:0.004" fill="#000000" d="M 342.5,40.5 C 343.833,41.1667 343.833,41.1667 342.5,40.5 Z"/></g>
<g><path style="opacity:0.004" fill="#000000" d="M 344.5,43.5 C 345.833,44.1667 345.833,44.1667 344.5,43.5 Z"/></g>
<g><path style="opacity:0.004" fill="#000000" d="M 348.5,48.5 C 347.833,47.1667 347.833,47.1667 348.5,48.5 Z"/></g>
<g><path style="opacity:0.004" fill="#000000" d="M 161.5,48.5 C 162.833,49.1667 162.833,49.1667 161.5,48.5 Z"/></g>
<g><path style="opacity:0.004" fill="#000000" d="M 348.5,48.5 C 349.833,49.1667 349.833,49.1667 348.5,48.5 Z"/></g>
<g><path style="opacity:0.004" fill="#000000" d="M 160.5,50.5 C 161.833,51.1667 161.833,51.1667 160.5,50.5 Z"/></g>
<g><path style="opacity:0.004" fill="#000000" d="M 349.5,50.5 C 350.833,51.1667 350.833,51.1667 349.5,50.5 Z"/></g>
<g><path style="opacity:0.004" fill="#000000" d="M 159.5,52.5 C 160.833,53.1667 160.833,53.1667 159.5,52.5 Z"/></g>
<g><path style="opacity:0.004" fill="#000000" d="M 350.5,52.5 C 351.833,53.1667 351.833,53.1667 350.5,52.5 Z"/></g>
<g><path style="opacity:0.004" fill="#000000" d="M 158.5,55.5 C 159.833,56.1667 159.833,56.1667 158.5,55.5 Z"/></g>
<g><path style="opacity:0.004" fill="#000000" d="M 351.5,55.5 C 352.833,56.1667 352.833,56.1667 351.5,55.5 Z"/></g>
<g><path style="opacity:0.004" fill="#000000" d="M 158.5,59.5 C 157.833,58.1667 157.833,58.1667 158.5,59.5 Z"/></g>
<g><path style="opacity:0.004" fill="#000000" d="M 352.5,58.5 C 353.833,59.1667 353.833,59.1667 352.5,58.5 Z"/></g>
<g><path style="opacity:0.004" fill="#000000" d="M 353.5,61.5 C 354.833,62.1667 354.833,62.1667 353.5,61.5 Z"/></g>
<g><path style="opacity:0.004" fill="#000000" d="M 151.5,78.5 C 150.833,77.1667 150.833,77.1667 151.5,78.5 Z"/></g>
<g><path style="opacity:0.004" fill="#000000" d="M 359.5,77.5 C 360.833,78.1667 360.833,78.1667 359.5,77.5 Z"/></g>
<g><path style="opacity:0.008" fill="#000000" d="M 150.5,80.5 C 149.833,79.1667 149.833,79.1667 150.5,80.5 Z"/></g>
<g><path style="opacity:0.008" fill="#000000" d="M 361.5,80.5 C 360.833,79.1667 360.833,79.1667 361.5,80.5 Z"/></g>
<g><path style="opacity:0.004" fill="#000000" d="M 149.5,80.5 C 148.833,81.1667 148.833,81.1667 149.5,80.5 Z"/></g>
<g><path style="opacity:0.004" fill="#000000" d="M 361.5,80.5 C 362.833,81.1667 362.833,81.1667 361.5,80.5 Z"/></g>
<g><path style="opacity:0.004" fill="#000000" d="M 147.5,85.5 C 147.167,86.5 146.5,87.1667 145.5,87.5C 145.709,86.0783 146.209,84.745 147,83.5C 147.464,84.0944 147.631,84.7611 147.5,85.5 Z"/></g>
<g><path style="opacity:0.004" fill="#000000" d="M 366.5,86.5 C 367.833,87.1667 367.833,87.1667 366.5,86.5 Z"/></g>
<g><path style="opacity:0.004" fill="#000000" d="M 140.5,88.5 C 141.833,89.1667 141.833,89.1667 140.5,88.5 Z"/></g>
<g><path style="opacity:0.004" fill="#000000" d="M 369.5,88.5 C 370.833,89.1667 370.833,89.1667 369.5,88.5 Z"/></g>
<g><path style="opacity:0.004" fill="#000000" d="M 138.5,89.5 C 139.833,90.1667 139.833,90.1667 138.5,89.5 Z"/></g>
<g><path style="opacity:0.004" fill="#000000" d="M 371.5,89.5 C 372.833,90.1667 372.833,90.1667 371.5,89.5 Z"/></g>
<g><path style="opacity:0.004" fill="#000000" d="M 136.5,90.5 C 137.833,91.1667 137.833,91.1667 136.5,90.5 Z"/></g>
<g><path style="opacity:0.004" fill="#000000" d="M 373.5,90.5 C 374.833,91.1667 374.833,91.1667 373.5,90.5 Z"/></g>
<g><path style="opacity:0.004" fill="#000000" d="M 469.5,97.5 C 468.833,96.1667 468.833,96.1667 469.5,97.5 Z"/></g>
<g><path style="opacity:0.004" fill="#000000" d="M 40.5,97.5 C 41.8333,98.1667 41.8333,98.1667 40.5,97.5 Z"/></g>
<g><path style="opacity:0.004" fill="#000000" d="M 469.5,97.5 C 470.167,97.5 470.5,97.8333 470.5,98.5C 470.167,98.1667 469.833,97.8333 469.5,97.5 Z"/></g>
<g><path style="opacity:0.008" fill="#000000" d="M 40.5,98.5 C 40.5,98.8333 40.5,99.1667 40.5,99.5C 39.8299,99.0187 39.8299,98.6853 40.5,98.5 Z"/></g>
<g><path style="opacity:0.008" fill="#000000" d="M 470.5,98.5 C 471.167,98.5 471.5,98.8333 471.5,99.5C 471.167,99.1667 470.833,98.8333 470.5,98.5 Z"/></g>
<g><path style="opacity:0.008" fill="#000000" d="M 39.5,99.5 C 38.8333,100.167 38.8333,100.167 39.5,99.5 Z"/></g>
<g><path style="opacity:0.008" fill="#000000" d="M 471.5,99.5 C 472.167,99.5 472.5,99.8333 472.5,100.5C 472.167,100.167 471.833,99.8333 471.5,99.5 Z"/></g>
<g><path style="opacity:0.004" fill="#000000" d="M 38.5,100.5 C 37.8333,101.167 37.8333,101.167 38.5,100.5 Z"/></g>
<g><path style="opacity:0.004" fill="#000000" d="M 472.5,100.5 C 473.833,101.167 473.833,101.167 472.5,100.5 Z"/></g>
<g><path style="opacity:0.004" fill="#000000" d="M 37.5,103.5 C 36.8333,102.167 36.8333,102.167 37.5,103.5 Z"/></g>
<g><path style="opacity:0.004" fill="#000000" d="M 473.5,102.5 C 474.833,103.167 474.833,103.167 473.5,102.5 Z"/></g>
<g><path style="opacity:0.004" fill="#000000" d="M 37.5,122.5 C 36.8333,123.167 36.8333,123.167 37.5,122.5 Z"/></g>
<g><path style="opacity:0.004" fill="#000000" d="M 473.5,122.5 C 474.833,123.167 474.833,123.167 473.5,122.5 Z"/></g>
<g><path style="opacity:0.004" fill="#000000" d="M 472.5,124.5 C 473.833,125.167 473.833,125.167 472.5,124.5 Z"/></g>
<g><path style="opacity:0.004" fill="#000000" d="M 39.5,125.5 C 39.5,126.167 39.5,126.833 39.5,127.5C 38.1667,126.833 38.1667,126.167 39.5,125.5 Z"/></g>
<g><path style="opacity:0.004" fill="#000000" d="M 471.5,125.5 C 471.833,125.5 472.167,125.5 472.5,125.5C 472.672,126.492 472.338,127.158 471.5,127.5C 471.5,126.833 471.5,126.167 471.5,125.5 Z"/></g>
<g><path style="opacity:0.004" fill="#000000" d="M 39.5,127.5 C 40.1667,127.5 40.5,127.833 40.5,128.5C 40.1667,128.167 39.8333,127.833 39.5,127.5 Z"/></g>
<g><path style="opacity:0.004" fill="#000000" d="M 471.5,127.5 C 470.833,128.167 470.833,128.167 471.5,127.5 Z"/></g>
<g><path style="opacity:0.004" fill="#000000" d="M 40.5,128.5 C 41.8333,129.167 41.8333,129.167 40.5,128.5 Z"/></g>
<g><path style="opacity:0.004" fill="#000000" d="M 470.5,128.5 C 469.833,129.167 469.833,129.167 470.5,128.5 Z"/></g>
<g><path style="opacity:0.004" fill="#000000" d="M 46.5,131.5 C 47.8333,132.167 47.8333,132.167 46.5,131.5 Z"/></g>
<g><path style="opacity:0.986" fill="#f6f4f4" d="M 99.5,154.5 C 100.209,155.404 101.209,155.737 102.5,155.5C 104.032,157.585 106.366,159.585 109.5,161.5C 110.428,164.454 111.261,167.454 112,170.5C 116.33,225.767 119.996,281.101 123,336.5C 124.95,354.457 126.616,372.457 128,390.5C 128.595,399.887 130.428,408.887 133.5,417.5C 133.833,418.167 134.167,418.833 134.5,419.5C 133.167,419.833 133.167,420.167 134.5,420.5C 136.26,423.689 137.76,427.022 139,430.5C 139.708,431.381 140.542,432.047 141.5,432.5C 141.328,433.492 141.662,434.158 142.5,434.5C 142.833,435.5 143.5,436.167 144.5,436.5C 146.779,439.442 149.779,441.109 153.5,441.5C 156.135,443.328 159.135,444.495 162.5,445C 170.088,446.787 177.755,448.12 185.5,449C 232.167,451 278.833,451 325.5,449C 333.245,448.12 340.912,446.787 348.5,445C 351.865,444.495 354.865,443.328 357.5,441.5C 359.38,441.771 360.713,441.104 361.5,439.5C 363.404,439.262 364.738,438.262 365.5,436.5C 366.492,436.672 367.158,436.338 367.5,435.5C 368.906,435.027 369.573,434.027 369.5,432.5C 370.906,432.027 371.573,431.027 371.5,429.5C 373.338,426.346 375.338,423.18 377.5,420C 376.402,419.23 376.402,418.397 377.5,417.5C 380.572,408.887 382.405,399.887 383,390.5C 388.827,323.935 393.494,257.269 397,190.5C 398.163,183.897 398.83,177.23 399,170.5C 399.739,167.454 400.572,164.454 401.5,161.5C 404.255,159.111 406.588,157.111 408.5,155.5C 410.099,155.768 411.432,155.434 412.5,154.5C 416.723,153.272 421.056,153.439 425.5,155C 429.027,157.362 432.027,160.196 434.5,163.5C 436.004,167.478 436.671,171.645 436.5,176C 431.787,238.116 427.621,300.283 424,362.5C 422.211,382.596 419.544,402.596 416,422.5C 412.886,432.356 408.719,441.69 403.5,450.5C 402.662,450.842 402.328,451.508 402.5,452.5C 401.833,452.5 401.5,452.833 401.5,453.5C 400.662,453.842 400.328,454.508 400.5,455.5C 398.167,457.167 396.167,459.167 394.5,461.5C 393.833,461.5 393.5,461.833 393.5,462.5C 392.833,462.5 392.5,462.833 392.5,463.5C 391.833,463.5 391.5,463.833 391.5,464.5C 390.833,464.5 390.5,464.833 390.5,465.5C 388.46,467.177 386.46,468.844 384.5,470.5C 383.508,470.328 382.842,470.662 382.5,471.5C 380.973,471.427 379.973,472.094 379.5,473.5C 376.996,474.584 374.663,475.917 372.5,477.5C 360.634,481.171 348.634,484.004 336.5,486C 309.517,487.097 282.517,487.597 255.5,487.5C 228.483,487.597 201.483,487.097 174.5,486C 162.415,483.813 150.415,480.98 138.5,477.5C 137.035,476.263 135.368,475.263 133.5,474.5C 133.158,473.662 132.492,473.328 131.5,473.5C 131.027,472.094 130.027,471.427 128.5,471.5C 128.158,470.662 127.492,470.328 126.5,470.5C 124.54,468.844 122.54,467.177 120.5,465.5C 120.5,464.833 120.167,464.5 119.5,464.5C 116.833,461.167 113.833,458.167 110.5,455.5C 110.672,454.508 110.338,453.842 109.5,453.5C 108.974,451.77 107.974,450.436 106.5,449.5C 102.522,442.074 99.0223,434.407 96,426.5C 91.2189,401.354 87.8855,376.021 86,350.5C 82.9078,292.263 79.0744,234.096 74.5,176C 74.1724,162.83 80.5058,155.33 93.5,153.5C 95.5896,153.573 97.5896,153.906 99.5,154.5 Z M 181.5,219.5 C 181.573,221.027 180.906,222.027 179.5,222.5C 179.427,220.973 180.094,219.973 181.5,219.5 Z M 329.5,219.5 C 330.906,219.973 331.573,220.973 331.5,222.5C 330.094,222.027 329.427,221.027 329.5,219.5 Z M 141.5,432.5 C 142.167,432.833 142.833,433.167 143.5,433.5C 143.5,434.167 143.167,434.5 142.5,434.5C 141.662,434.158 141.328,433.492 141.5,432.5 Z M 369.5,432.5 C 369.573,434.027 368.906,435.027 367.5,435.5C 367.5,434.833 367.5,434.167 367.5,433.5C 368.167,433.167 368.833,432.833 369.5,432.5 Z"/></g>
<g><path style="opacity:0.004" fill="#060606" d="M 102.5,155.5 C 101.209,155.737 100.209,155.404 99.5,154.5C 100.496,154.586 101.329,154.252 102,153.5C 102.464,154.094 102.631,154.761 102.5,155.5 Z"/></g>
<g><path style="opacity:0.039" fill="#3f3f3f" d="M 412.5,154.5 C 411.432,155.434 410.099,155.768 408.5,155.5C 408.369,154.761 408.536,154.094 409,153.5C 410.011,154.337 411.178,154.67 412.5,154.5 Z"/></g>
<g><path style="opacity:0.004" fill="#000000" d="M 110.5,161.5 C 109.833,160.167 109.833,160.167 110.5,161.5 Z"/></g>
<g><path style="opacity:0.004" fill="#000000" d="M 401.5,161.5 C 400.833,160.167 400.833,160.167 401.5,161.5 Z"/></g>
<g><path style="opacity:0.004" fill="#000000" d="M 110.5,161.5 C 111.833,162.167 111.833,162.167 110.5,161.5 Z"/></g>
<g><path style="opacity:0.004" fill="#000000" d="M 400.5,161.5 C 399.833,162.167 399.833,162.167 400.5,161.5 Z"/></g>
<g><path style="opacity:0.004" fill="#000000" d="M 434.5,162.5 C 435.833,163.167 435.833,163.167 434.5,162.5 Z"/></g>
<g><path style="opacity:0.004" fill="#000000" d="M 203.5,212.5 C 204.833,213.167 204.833,213.167 203.5,212.5 Z"/></g>
<g><path style="opacity:0.981" fill="#f6f3f3" d="M 203.5,213.5 C 204.795,214.488 206.128,215.488 207.5,216.5C 208.5,218.167 209.833,219.5 211.5,220.5C 211.427,222.027 212.094,223.027 213.5,223.5C 214.09,224.766 214.59,226.099 215,227.5C 218.36,268.298 222.527,308.965 227.5,349.5C 227.158,351.867 226.658,354.2 226,356.5C 224.25,358.734 222.75,361.068 221.5,363.5C 220.833,363.5 220.5,363.833 220.5,364.5C 219.5,364.833 218.833,365.5 218.5,366.5C 212.28,368.701 205.946,369.035 199.5,367.5C 199.158,366.662 198.492,366.328 197.5,366.5C 196.833,365.167 195.833,364.167 194.5,363.5C 192.486,360.806 190.986,357.806 190,354.5C 185.175,313.759 181.008,272.925 177.5,232C 177.934,228.767 178.601,225.6 179.5,222.5C 180.906,222.027 181.573,221.027 181.5,219.5C 187.682,213.454 195.016,211.454 203.5,213.5 Z"/></g>
<g><path style="opacity:0.983" fill="#f6f3f3" d="M 329.5,219.5 C 329.427,221.027 330.094,222.027 331.5,222.5C 332.265,225.633 332.932,228.8 333.5,232C 329.992,272.925 325.825,313.758 321,354.5C 320.079,357.336 318.912,360.002 317.5,362.5C 316.5,362.833 315.833,363.5 315.5,364.5C 314.508,364.328 313.842,364.662 313.5,365.5C 312.5,365.833 311.833,366.5 311.5,367.5C 303.476,369.53 296.476,368.53 290.5,364.5C 290.262,362.596 289.262,361.262 287.5,360.5C 285.186,357.438 283.852,353.938 283.5,350C 288.445,309.274 292.612,268.441 296,227.5C 297.487,226.747 297.654,225.914 296.5,225C 298.141,223.871 299.141,222.371 299.5,220.5C 309.147,210.227 319.147,209.894 329.5,219.5 Z"/></g>
<g><path style="opacity:0.004" fill="#000000" d="M 207.5,215.5 C 208.833,216.167 208.833,216.167 207.5,215.5 Z"/></g>
<g><path style="opacity:0.004" fill="#000000" d="M 210.5,217.5 C 209.833,216.167 209.833,216.167 210.5,217.5 Z"/></g>
<g><path style="opacity:0.004" fill="#000000" d="M 210.5,217.5 C 211.833,218.167 211.833,218.167 210.5,217.5 Z"/></g>
<g><path style="opacity:0.004" fill="#000000" d="M 299.5,217.5 C 300.833,218.167 300.833,218.167 299.5,217.5 Z"/></g>
<g><path style="opacity:0.004" fill="#000000" d="M 212.5,220.5 C 211.833,219.167 211.833,219.167 212.5,220.5 Z"/></g>
<g><path style="opacity:0.004" fill="#000000" d="M 299.5,220.5 C 298.833,219.167 298.833,219.167 299.5,220.5 Z"/></g>
<g><path style="opacity:0.008" fill="#000000" d="M 212.5,220.5 C 213.833,221.167 213.833,221.167 212.5,220.5 Z"/></g>
<g><path style="opacity:0.008" fill="#000000" d="M 298.5,220.5 C 297.833,221.167 297.833,221.167 298.5,220.5 Z"/></g>
<g><path style="opacity:0.004" fill="#000000" d="M 213.5,222.5 C 214.833,223.167 214.833,223.167 213.5,222.5 Z"/></g>
<g><path style="opacity:0.004" fill="#000000" d="M 189.5,358.5 C 190.833,359.167 190.833,359.167 189.5,358.5 Z"/></g>
<g><path style="opacity:0.004" fill="#000000" d="M 320.5,358.5 C 321.833,359.167 321.833,359.167 320.5,358.5 Z"/></g>
<g><path style="opacity:0.004" fill="#000000" d="M 190.5,360.5 C 191.833,361.167 191.833,361.167 190.5,360.5 Z"/></g>
<g><path style="opacity:0.004" fill="#000000" d="M 287.5,360.5 C 286.833,361.167 286.833,361.167 287.5,360.5 Z"/></g>
<g><path style="opacity:0.004" fill="#000000" d="M 319.5,360.5 C 320.833,361.167 320.833,361.167 319.5,360.5 Z"/></g>
<g><path style="opacity:0.004" fill="#000000" d="M 319.5,361.5 C 318.833,362.167 318.833,362.167 319.5,361.5 Z"/></g>
<g><path style="opacity:0.004" fill="#000000" d="M 222.5,362.5 C 223.833,363.167 223.833,363.167 222.5,362.5 Z"/></g>
<g><path style="opacity:0.004" fill="#000000" d="M 288.5,363.5 C 287.833,362.167 287.833,362.167 288.5,363.5 Z"/></g>
<g><path style="opacity:0.004" fill="#000000" d="M 317.5,362.5 C 317.833,362.5 318.167,362.5 318.5,362.5C 318.315,363.17 317.981,363.17 317.5,362.5 Z"/></g>
<g><path style="opacity:0.004" fill="#000000" d="M 194.5,363.5 C 193.833,364.167 193.833,364.167 194.5,363.5 Z"/></g>
<g><path style="opacity:0.004" fill="#000000" d="M 221.5,363.5 C 221.833,363.5 222.167,363.5 222.5,363.5C 222.315,364.17 221.981,364.17 221.5,363.5 Z"/></g>
<g><path style="opacity:0.004" fill="#000000" d="M 288.5,363.5 C 289.167,363.5 289.5,363.833 289.5,364.5C 289.167,364.167 288.833,363.833 288.5,363.5 Z"/></g>
<g><path style="opacity:0.004" fill="#000000" d="M 220.5,364.5 C 220.833,364.5 221.167,364.5 221.5,364.5C 221.315,365.17 220.981,365.17 220.5,364.5 Z"/></g>
<g><path style="opacity:0.004" fill="#000000" d="M 289.5,364.5 C 289.833,364.5 290.167,364.5 290.5,364.5C 290.315,365.17 289.981,365.17 289.5,364.5 Z"/></g>
<g><path style="opacity:0.005" fill="#000000" d="M 315.5,364.5 C 314.994,366.105 314.327,366.439 313.5,365.5C 313.842,364.662 314.508,364.328 315.5,364.5 Z"/></g>
<g><path style="opacity:0.004" fill="#000000" d="M 197.5,366.5 C 196.833,367.167 196.833,367.167 197.5,366.5 Z"/></g>
<g><path style="opacity:0.004" fill="#000000" d="M 218.5,366.5 C 219.833,367.167 219.833,367.167 218.5,366.5 Z"/></g>
<g><path style="opacity:0.004" fill="#000000" d="M 199.5,367.5 C 198.833,368.167 198.833,368.167 199.5,367.5 Z"/></g>
<g><path style="opacity:0.004" fill="#000000" d="M 311.5,367.5 C 312.833,368.167 312.833,368.167 311.5,367.5 Z"/></g>
<g><path style="opacity:0.004" fill="#000000" d="M 200.5,368.5 C 201.833,369.167 201.833,369.167 200.5,368.5 Z"/></g>
<g><path style="opacity:0.004" fill="#000000" d="M 309.5,368.5 C 310.833,369.167 310.833,369.167 309.5,368.5 Z"/></g>
<g><path style="opacity:0.004" fill="#000000" d="M 133.5,416.5 C 134.833,417.167 134.833,417.167 133.5,416.5 Z"/></g>
<g><path style="opacity:0.004" fill="#000000" d="M 377.5,417.5 C 376.833,416.167 376.833,416.167 377.5,417.5 Z"/></g>
<g><path style="opacity:0.004" fill="#000000" d="M 134.5,419.5 C 135.833,420.167 135.833,420.167 134.5,419.5 Z"/></g>
<g><path style="opacity:0.004" fill="#000000" d="M 138.5,426.5 C 139.833,427.167 139.833,427.167 138.5,426.5 Z"/></g>
<g><path style="opacity:0.004" fill="#000000" d="M 140.5,429.5 C 139.833,428.167 139.833,428.167 140.5,429.5 Z"/></g>
<g><path style="opacity:0.004" fill="#000000" d="M 371.5,429.5 C 370.833,428.167 370.833,428.167 371.5,429.5 Z"/></g>
<g><path style="opacity:0.004" fill="#000000" d="M 140.5,429.5 C 141.833,430.167 141.833,430.167 140.5,429.5 Z"/></g>
<g><path style="opacity:0.004" fill="#000000" d="M 370.5,429.5 C 369.833,430.167 369.833,430.167 370.5,429.5 Z"/></g>
<g><path style="opacity:0.004" fill="#000000" d="M 96.5,430.5 C 97.8333,431.167 97.8333,431.167 96.5,430.5 Z"/></g>
<g><path style="opacity:0.004" fill="#000000" d="M 413.5,430.5 C 414.833,431.167 414.833,431.167 413.5,430.5 Z"/></g>
<g><path style="opacity:0.004" fill="#000000" d="M 97.5,433.5 C 98.8333,434.167 98.8333,434.167 97.5,433.5 Z"/></g>
<g><path style="opacity:0.004" fill="#000000" d="M 143.5,433.5 C 144.404,434.209 144.737,435.209 144.5,436.5C 143.5,436.167 142.833,435.5 142.5,434.5C 143.167,434.5 143.5,434.167 143.5,433.5 Z"/></g>
<g><path style="opacity:0.004" fill="#000000" d="M 367.5,433.5 C 367.5,434.167 367.5,434.833 367.5,435.5C 367.158,436.338 366.492,436.672 365.5,436.5C 365.932,435.29 366.599,434.29 367.5,433.5 Z"/></g>
<g><path style="opacity:0.004" fill="#000000" d="M 412.5,433.5 C 413.833,434.167 413.833,434.167 412.5,433.5 Z"/></g>
<g><path style="opacity:0.004" fill="#000000" d="M 98.5,436.5 C 99.8333,437.167 99.8333,437.167 98.5,436.5 Z"/></g>
<g><path style="opacity:0.004" fill="#000000" d="M 149.5,438.5 C 148.833,437.167 148.833,437.167 149.5,438.5 Z"/></g>
<g><path style="opacity:0.008" fill="#000000" d="M 149.5,438.5 C 150.833,439.167 150.833,439.167 149.5,438.5 Z"/></g>
<g><path style="opacity:0.004" fill="#000000" d="M 361.5,439.5 C 360.833,438.167 360.833,438.167 361.5,439.5 Z"/></g>
<g><path style="opacity:0.008" fill="#000000" d="M 151.5,439.5 C 152.833,440.167 152.833,440.167 151.5,439.5 Z"/></g>
<g><path style="opacity:0.008" fill="#000000" d="M 358.5,439.5 C 359.833,440.167 359.833,440.167 358.5,439.5 Z"/></g>
<g><path style="opacity:0.004" fill="#000000" d="M 410.5,439.5 C 411.833,440.167 411.833,440.167 410.5,439.5 Z"/></g>
<g><path style="opacity:0.004" fill="#000000" d="M 153.5,440.5 C 154.833,441.167 154.833,441.167 153.5,440.5 Z"/></g>
<g><path style="opacity:0.004" fill="#000000" d="M 357.5,441.5 C 356.833,440.167 356.833,440.167 357.5,441.5 Z"/></g>
<g><path style="opacity:0.004" fill="#000000" d="M 100.5,441.5 C 101.833,442.167 101.833,442.167 100.5,441.5 Z"/></g>
<g><path style="opacity:0.004" fill="#000000" d="M 409.5,441.5 C 410.833,442.167 410.833,442.167 409.5,441.5 Z"/></g>
<g><path style="opacity:0.004" fill="#000000" d="M 159.5,442.5 C 160.833,443.167 160.833,443.167 159.5,442.5 Z"/></g>
<g><path style="opacity:0.004" fill="#000000" d="M 350.5,442.5 C 351.833,443.167 351.833,443.167 350.5,442.5 Z"/></g>
<g><path style="opacity:0.004" fill="#000000" d="M 101.5,443.5 C 102.833,444.167 102.833,444.167 101.5,443.5 Z"/></g>
<g><path style="opacity:0.004" fill="#000000" d="M 106.5,449.5 C 105.833,450.167 105.833,450.167 106.5,449.5 Z"/></g>
<g><path style="opacity:0.004" fill="#000000" d="M 403.5,450.5 C 404.833,451.167 404.833,451.167 403.5,450.5 Z"/></g>
<g><path style="opacity:0.008" fill="#000000" d="M 402.5,452.5 C 403.833,453.167 403.833,453.167 402.5,452.5 Z"/></g>
<g><path style="opacity:0.004" fill="#000000" d="M 109.5,453.5 C 108.833,454.167 108.833,454.167 109.5,453.5 Z"/></g>
<g><path style="opacity:0.004" fill="#000000" d="M 401.5,453.5 C 401.833,453.5 402.167,453.5 402.5,453.5C 402.315,454.17 401.981,454.17 401.5,453.5 Z"/></g>
<g><path style="opacity:0.004" fill="#000000" d="M 110.5,455.5 C 109.833,456.167 109.833,456.167 110.5,455.5 Z"/></g>
<g><path style="opacity:0.004" fill="#000000" d="M 400.5,455.5 C 401.833,456.167 401.833,456.167 400.5,455.5 Z"/></g>
<g><path style="opacity:0.004" fill="#000000" d="M 111.5,458.5 C 110.833,457.167 110.833,457.167 111.5,458.5 Z"/></g>
<g><path style="opacity:0.004" fill="#000000" d="M 399.5,457.5 C 400.833,458.167 400.833,458.167 399.5,457.5 Z"/></g>
<g><path style="opacity:0.004" fill="#000000" d="M 111.5,458.5 C 112.167,458.5 112.5,458.833 112.5,459.5C 112.167,459.167 111.833,458.833 111.5,458.5 Z"/></g>
<g><path style="opacity:0.004" fill="#000000" d="M 399.5,458.5 C 398.833,459.167 398.833,459.167 399.5,458.5 Z"/></g>
<g><path style="opacity:0.004" fill="#000000" d="M 112.5,459.5 C 113.833,460.167 113.833,460.167 112.5,459.5 Z"/></g>
<g><path style="opacity:0.004" fill="#000000" d="M 398.5,459.5 C 397.833,460.167 397.833,460.167 398.5,459.5 Z"/></g>
<g><path style="opacity:0.004" fill="#000000" d="M 397.5,460.5 C 396.833,461.167 396.833,461.167 397.5,460.5 Z"/></g>
<g><path style="opacity:0.004" fill="#000000" d="M 394.5,461.5 C 395.833,462.167 395.833,462.167 394.5,461.5 Z"/></g>
<g><path style="opacity:0.004" fill="#000000" d="M 393.5,462.5 C 393.833,462.5 394.167,462.5 394.5,462.5C 394.315,463.17 393.981,463.17 393.5,462.5 Z"/></g>
<g><path style="opacity:0.008" fill="#000000" d="M 392.5,463.5 C 392.833,463.5 393.167,463.5 393.5,463.5C 393.315,464.17 392.981,464.17 392.5,463.5 Z"/></g>
<g><path style="opacity:0.004" fill="#000000" d="M 119.5,464.5 C 120.167,464.5 120.5,464.833 120.5,465.5C 120.5,466.167 120.5,466.833 120.5,467.5C 118.618,466.779 118.285,465.779 119.5,464.5 Z"/></g>
<g><path style="opacity:0.005" fill="#000000" d="M 391.5,464.5 C 391.833,464.5 392.167,464.5 392.5,464.5C 392.573,466.027 391.906,467.027 390.5,467.5C 390.5,466.833 390.5,466.167 390.5,465.5C 391.167,465.5 391.5,465.167 391.5,464.5 Z"/></g>
<g><path style="opacity:0.004" fill="#000000" d="M 120.5,467.5 C 121.833,468.167 121.833,468.167 120.5,467.5 Z"/></g>
<g><path style="opacity:0.004" fill="#000000" d="M 390.5,467.5 C 389.833,468.167 389.833,468.167 390.5,467.5 Z"/></g>
<g><path style="opacity:0.004" fill="#000000" d="M 126.5,470.5 C 125.833,471.167 125.833,471.167 126.5,470.5 Z"/></g>
<g><path style="opacity:0.004" fill="#000000" d="M 384.5,470.5 C 385.833,471.167 385.833,471.167 384.5,470.5 Z"/></g>
<g><path style="opacity:0.004" fill="#000000" d="M 128.5,471.5 C 128.5,471.833 128.5,472.167 128.5,472.5C 127.83,472.019 127.83,471.685 128.5,471.5 Z"/></g>
<g><path style="opacity:0.004" fill="#000000" d="M 382.5,471.5 C 383.833,472.167 383.833,472.167 382.5,471.5 Z"/></g>
<g><path style="opacity:0.004" fill="#000000" d="M 128.5,472.5 C 129.833,473.167 129.833,473.167 128.5,472.5 Z"/></g>
<g><path style="opacity:0.004" fill="#000000" d="M 382.5,472.5 C 381.833,473.167 381.833,473.167 382.5,472.5 Z"/></g>
<g><path style="opacity:0.004" fill="#000000" d="M 131.5,473.5 C 130.833,474.167 130.833,474.167 131.5,473.5 Z"/></g>
<g><path style="opacity:0.004" fill="#000000" d="M 379.5,473.5 C 380.833,474.167 380.833,474.167 379.5,473.5 Z"/></g>
<g><path style="opacity:0.004" fill="#000000" d="M 133.5,474.5 C 132.833,475.167 132.833,475.167 133.5,474.5 Z"/></g>
<g><path style="opacity:0.004" fill="#000000" d="M 138.5,477.5 C 137.833,478.167 137.833,478.167 138.5,477.5 Z"/></g>
<g><path style="opacity:0.004" fill="#000000" d="M 372.5,477.5 C 373.833,478.167 373.833,478.167 372.5,477.5 Z"/></g>
<g><path style="opacity:0.004" fill="#000000" d="M 139.5,478.5 C 140.833,479.167 140.833,479.167 139.5,478.5 Z"/></g>
<g><path style="opacity:0.004" fill="#000000" d="M 370.5,478.5 C 371.833,479.167 371.833,479.167 370.5,478.5 Z"/></g>
</svg>
