<?xml version="1.0" encoding="UTF-8"?>
<svg version="1.1" xmlns="http://www.w3.org/2000/svg" width="512" height="512">
<path d="M0 0 C1.57263001 -0.03199511 3.14524141 -0.06491601 4.71783447 -0.09867859 C9.83847794 -0.2021279 14.95929795 -0.27384137 20.08056641 -0.33813477 C20.96107178 -0.34932382 21.84157716 -0.36051287 22.74876451 -0.37204099 C31.10421348 -0.47574126 39.45973288 -0.56503238 47.81561852 -0.62467861 C57.42436153 -0.69430039 67.02901889 -0.80193056 76.63574219 -1.015625 C87.78401049 -1.2589357 98.92948777 -1.40534145 110.08056641 -1.40063477 C110.97809852 -1.40033626 111.87563063 -1.40003776 112.80036068 -1.39973021 C139.4730108 -1.33027529 163.31853035 0.7747148 185.07509232 18.09885216 C186.83184751 19.5050172 186.83184751 19.5050172 189.80712891 20.65795898 C192.92026022 19.12084542 192.92026022 19.12084542 194.88968086 17.72022152 C198.47148826 15.7359071 202.3319573 16.11149088 206.33496094 16.15625 C207.26429443 16.15084702 208.19362793 16.14544403 209.15112305 16.13987732 C212.20605858 16.12742595 215.26004525 16.14385485 218.31494141 16.16186523 C220.44530283 16.16171019 222.57566454 16.1602203 224.70602417 16.15745544 C229.16286747 16.15607315 233.61938829 16.16860353 238.07617188 16.19140625 C243.78715276 16.21982466 249.49759944 16.21704181 255.20862007 16.20431614 C259.60440633 16.19736079 264.00006919 16.20514607 268.39583969 16.21757317 C270.50176393 16.22208662 272.60770143 16.2224254 274.71362686 16.21850777 C277.65538962 16.21559614 280.59641623 16.23209939 283.53808594 16.25390625 C284.40678314 16.2494046 285.27548035 16.24490295 286.17050171 16.24026489 C290.86453697 16.29805454 294.03146153 16.5690126 297.80712891 19.65795898 C300.39797703 22.58729427 301.18228919 24.39039969 301.18465233 28.29040432 C301.19247557 29.22186824 301.20029881 30.15333217 301.20835912 31.11302227 C301.20166696 32.13295255 301.19497479 33.15288283 301.18807983 34.20372009 C301.19275981 35.28983489 301.19743978 36.37594969 301.20226157 37.49497706 C301.21426066 41.14700218 301.20473487 44.79865546 301.1953125 48.45068359 C301.19937603 51.06381958 301.20471667 53.67695384 301.21124268 56.29008484 C301.2245938 62.65870934 301.22169604 69.02722787 301.21300475 75.39585655 C301.20623343 80.57164295 301.2053091 85.74739961 301.2085762 90.92318916 C301.2090359 91.65944968 301.2094956 92.39571019 301.20996923 93.15428163 C301.2109284 94.64992885 301.21190103 96.14557606 301.212887 97.64122326 C301.22144509 111.67160742 301.21160053 125.7019328 301.1954859 139.73230732 C301.18208512 151.77257678 301.18440801 163.81275946 301.19824219 175.85302734 C301.21429543 189.83117669 301.22061814 203.8092745 301.2114054 217.78743178 C301.21044974 219.27792552 301.20950663 220.76841928 301.2085762 222.25891304 C301.20811338 222.99228286 301.20765055 223.72565268 301.2071737 224.48124583 C301.20458283 229.65066122 301.20895694 234.82004394 301.21601486 239.98945427 C301.22530562 246.94730056 301.21869405 253.90498005 301.20133209 260.86281013 C301.19735787 263.41983899 301.19851719 265.97688161 301.20512009 268.53390503 C301.21328854 272.01786271 301.20307022 275.50129053 301.18807983 278.98521423 C301.194772 280.00291379 301.20146416 281.02061335 301.20835912 282.0691523 C301.13600005 290.70860889 301.13600005 290.70860889 297.80712891 294.65795898 C292.83351217 298.06994463 288.36765534 298.07727633 282.56054688 298.0144043 C281.64926025 298.01644867 280.73797363 298.01849304 279.79907227 298.02059937 C276.79894684 298.02359769 273.79937616 298.00515985 270.79931641 297.98608398 C268.70997249 297.98302483 266.62062654 297.9811499 264.53128052 297.98040771 C260.15846925 297.97581073 255.78584276 297.96140657 251.41308594 297.93920898 C245.80636903 297.91089223 240.1997973 297.89999312 234.59301567 297.89552689 C230.28136747 297.89137183 225.96974861 297.88155416 221.65811539 297.86965179 C219.59043741 297.8639533 217.52275663 297.85919321 215.45507431 297.85538483 C212.56830633 297.84851518 209.68165314 297.83488011 206.79492188 297.8190918 C205.5121788 297.81741501 205.5121788 297.81741501 204.20352173 297.81570435 C203.41576355 297.8099942 202.62800537 297.80428406 201.81637573 297.79840088 C200.79381337 297.79393888 200.79381337 297.79393888 199.75059319 297.78938675 C197.80712891 297.65795898 197.80712891 297.65795898 195.75039864 297.03614426 C193.50478883 296.37743855 193.50478883 296.37743855 190.70556641 298.46655273 C189.52094996 299.32910159 188.34696991 300.20638526 187.18212891 301.09545898 C186.55822266 301.55774902 185.93431641 302.02003906 185.29150391 302.49633789 C183.45131709 303.86843192 181.62683638 305.25885889 179.80712891 306.65795898 C178.93314453 307.32698242 178.05916016 307.99600586 177.15869141 308.68530273 C174.67395384 310.63759653 172.23677601 312.63751561 169.80712891 314.65795898 C169.30810059 315.06675293 168.80907227 315.47554688 168.29492188 315.89672852 C154.22433278 327.45152518 140.84792146 340.14321001 129.80712891 354.65795898 C128.86903674 355.84471841 127.93018087 357.0308744 126.99072266 358.21655273 C109.19391902 380.96935558 97.1008081 406.68066498 89.76806641 434.55249023 C86.89095921 445.09771357 81.76450537 453.8151377 72.12353516 459.44311523 C71.35912109 459.84401367 70.59470703 460.24491211 69.80712891 460.65795898 C69.09427734 461.06916992 68.38142578 461.48038086 67.64697266 461.90405273 C58.42241448 466.4767754 45.70670389 466.31066466 35.99462891 463.22045898 C21.07042619 456.70974689 7.47386563 444.62235835 0.80712891 429.65795898 C-2.60746661 420.81862358 -3.8472243 412.78650664 -3.69287109 403.34545898 C-3.68078613 402.13341797 -3.66870117 400.92137695 -3.65625 399.67260742 C-3.39893799 387.73644895 -1.71453835 376.30735136 0.80712891 364.65795898 C1.00016602 363.73756836 1.19320312 362.81717773 1.39208984 361.86889648 C5.01125839 344.99132888 10.55379641 328.6934584 16.10009766 312.37280273 C16.32807541 311.69767136 16.55605316 311.02253998 16.79093933 310.32695007 C18.2747781 306.00250106 19.99140154 301.84851302 21.80712891 297.65795898 C21.21612554 297.66072436 20.62512217 297.66348974 20.0162096 297.66633892 C5.58283162 297.73282209 -8.85053262 297.78234761 -23.28402996 297.8133955 C-30.26419794 297.82881218 -37.24426321 297.84980114 -44.22436523 297.88427734 C-50.96764402 297.91756772 -57.7108163 297.93484093 -64.45417213 297.94259071 C-67.01961757 297.94810965 -69.58505756 297.95888645 -72.15045738 297.97514915 C-75.75936588 297.99710537 -79.3678415 297.99991829 -82.97680664 297.99853516 C-84.54775337 298.0147139 -84.54775337 298.0147139 -86.1504364 298.03121948 C-102.05949757 297.96576292 -115.29397583 293.18731936 -126.89990234 282.20874023 C-137.73115599 270.1596625 -139.73948148 257.13036498 -139.56787109 241.53295898 C-139.56321838 240.78263397 -139.55856567 240.03230896 -139.55377197 239.25924683 C-139.20618561 191.26495518 -122.57276159 148.49400502 -105.10508728 104.53146362 C-102.16124947 97.11862661 -99.25151051 89.69323298 -96.36083984 82.25952148 C-95.22753011 79.35531635 -94.09327698 76.45148215 -92.95849609 73.54785156 C-92.25093647 71.73328798 -91.54593456 69.91772456 -90.84375 68.10107422 C-85.2945524 53.75689653 -79.56439576 40.28089247 -69.19287109 28.65795898 C-68.47744141 27.83682617 -67.76201172 27.01569336 -67.02490234 26.16967773 C-49.38189319 7.16724074 -25.27197769 0.35523689 0 0 Z M-49.19287109 44.65795898 C-49.83095703 45.2728418 -50.46904297 45.88772461 -51.12646484 46.52124023 C-61.64519269 57.46165428 -66.29387843 74.09286997 -71.63037109 87.97045898 C-72.4167961 90.00234937 -73.20383453 92.03400243 -73.99145508 94.06542969 C-75.20062727 97.18484818 -76.40911902 100.30451663 -77.61482239 103.42527771 C-80.24913196 110.24135166 -82.91578921 117.04382911 -85.60693359 123.83764648 C-100.76122738 162.13832202 -114.17737957 199.40714668 -114.63037109 241.09545898 C-114.65268799 242.32208252 -114.67500488 243.54870605 -114.69799805 244.8125 C-114.67701604 253.00965799 -113.61684869 258.51545932 -108.36865234 264.86499023 C-107.75376953 265.39479492 -107.13888672 265.92459961 -106.50537109 266.47045898 C-105.60238281 267.28450195 -105.60238281 267.28450195 -104.68115234 268.11499023 C-96.74655821 273.03518597 -88.60261635 273.082699 -79.49072266 273.02685547 C-78.12806395 273.02932788 -76.76540715 273.03317073 -75.40275574 273.03826904 C-72.48573684 273.04656127 -69.56891347 273.04583904 -66.65189362 273.03808403 C-62.03743047 273.02644084 -57.4232158 273.03871173 -52.80877686 273.05470276 C-41.35477152 273.0907864 -29.90077337 273.09712347 -18.44671631 273.09460449 C-9.5286773 273.09289312 -0.61084296 273.09999867 8.30713868 273.13458306 C12.89296578 273.15136569 17.47829288 273.14959401 22.06411791 273.13376033 C24.914982 273.12796351 27.76560879 273.13870191 30.61643028 273.15400696 C32.56558948 273.15950721 34.51477307 273.14512375 36.46388245 273.13014221 C38.20903389 273.14450821 38.20903389 273.14450821 39.98944092 273.15916443 C40.99817638 273.15895514 42.00691185 273.15874586 43.04621506 273.15853024 C46.56068713 273.79427205 48.24685247 275.22001952 50.80712891 277.65795898 C53.27010052 282.58390222 52.27156573 288.12639069 50.72949219 293.21166992 C49.49315405 296.62223147 48.1404777 299.98472907 46.76516724 303.34130859 C45.22727304 307.10499609 43.7540379 310.89393821 42.27587891 314.68139648 C41.97746597 315.44309143 41.67905304 316.20478638 41.37159729 316.98956299 C31.0150468 343.56831145 21.47356473 373.06828019 21.43212891 401.84545898 C21.40763672 402.75231445 21.38314453 403.65916992 21.35791016 404.59350586 C21.31696826 414.13979123 24.25021792 421.80452231 30.80712891 428.77124023 C37.75718551 435.32764129 43.54791133 440.1905632 53.33447266 439.97436523 C57.01494005 439.50340495 59.0802896 438.11876519 61.80712891 435.65795898 C65.37324333 430.89042633 66.46187048 425.24636754 67.99462891 419.59545898 C81.98812374 370.13833271 113.9217878 324.89742873 154.80712891 293.65795898 C156.09176247 292.64592671 157.37555061 291.63282076 158.65869141 290.61889648 C160.08236111 289.50588115 161.50684159 288.39390211 162.93212891 287.28295898 C163.55796875 286.78957031 164.18380859 286.29618164 164.82861328 285.7878418 C165.48410156 285.28349609 166.13958984 284.77915039 166.81494141 284.25952148 C167.50036042 283.7240611 168.18577944 283.18860071 168.89196873 282.63691425 C171.25350253 281.03378802 173.38690865 279.86525963 175.94554806 278.65711498 C184.25256019 274.57627743 184.25256019 274.57627743 189.78412557 267.48843217 C191.3237322 261.12711584 190.93769993 254.61462463 190.73706055 248.12207031 C190.73225985 245.94313943 190.73496765 243.76418107 190.74458313 241.58526611 C190.749446 235.69317606 190.64978167 229.8070125 190.53082585 223.91629624 C190.42428341 217.75201681 190.414547 211.58758921 190.39439392 205.42253113 C190.34163176 193.75911375 190.20224119 182.09841717 190.0314526 170.43619603 C189.84118878 157.15473377 189.74790749 143.87348894 189.6626302 130.59096491 C189.48511091 103.27845658 189.1862517 75.96836046 188.80712891 48.65795898 C161.50488515 32.93485184 138.68344821 21.99608441 106.90118217 23.19417214 C102.66867346 23.32797759 98.43558778 23.32509479 94.20129395 23.34111023 C87.14080241 23.38539441 80.08630552 23.51190261 73.02832031 23.703125 C63.1138387 23.97157717 53.20199785 24.07932152 43.28446293 24.15961134 C35.48955731 24.22854292 27.69517034 24.34054917 19.90087891 24.45874023 C19.0804265 24.47069184 18.2599741 24.48264344 17.4146595 24.49495721 C12.69368066 24.56618922 7.97403219 24.65951556 3.25416756 24.7847805 C1.83787561 24.81999109 0.42141878 24.84923973 -0.99513435 24.87159729 C-20.32862635 25.19186893 -35.49679278 31.00886551 -49.19287109 44.65795898 Z M212.80712891 41.65795898 C212.80712891 117.88795898 212.80712891 194.11795898 212.80712891 272.65795898 C233.92712891 272.65795898 255.04712891 272.65795898 276.80712891 272.65795898 C276.80712891 196.42795898 276.80712891 120.19795898 276.80712891 41.65795898 C255.68712891 41.65795898 234.56712891 41.65795898 212.80712891 41.65795898 Z " fill="#000000" transform="translate(159.19287109375,27.342041015625)"/>
</svg>
