<?xml version="1.0" encoding="UTF-8"?>
<!DOCTYPE svg PUBLIC "-//W3C//DTD SVG 1.1//EN" "http://www.w3.org/Graphics/SVG/1.1/DTD/svg11.dtd">
<svg xmlns="http://www.w3.org/2000/svg" version="1.1" width="512px" height="512px" style="shape-rendering:geometricPrecision; text-rendering:geometricPrecision; image-rendering:optimizeQuality; fill-rule:evenodd; clip-rule:evenodd" xmlns:xlink="http://www.w3.org/1999/xlink">
<g><path style="opacity:0.936" fill="#7f7f7f" d="M 176.5,63.5 C 141,64.1635 105.5,64.8302 70,65.5C 69.6012,65.2716 69.4346,64.9382 69.5,64.5C 70.9516,63.6981 72.6183,63.1981 74.5,63C 108.669,62.1691 142.669,62.3358 176.5,63.5 Z"/></g>
<g><path style="opacity:0.999" fill="#e2e2e2" d="M 176.5,63.5 C 197.478,76.3243 218.145,89.6576 238.5,103.5C 238.414,104.496 238.748,105.329 239.5,106C 282.238,106.827 324.904,106.661 367.5,105.5C 388.145,107.147 404.145,116.48 415.5,133.5C 415.5,134.833 415.5,136.167 415.5,137.5C 416.5,137.5 417.5,137.5 418.5,137.5C 422.218,143.319 424.551,149.652 425.5,156.5C 425.5,160.833 425.5,165.167 425.5,169.5C 411.5,169.5 397.5,169.5 383.5,169.5C 383.923,167.219 383.256,165.552 381.5,164.5C 379.32,157.487 374.653,152.987 367.5,151C 320.788,150.98 274.121,150.314 227.5,149C 207.035,136.035 186.702,122.868 166.5,109.5C 166.64,107.876 165.973,106.71 164.5,106C 150.667,105.833 136.833,105.667 123,105.5C 108.817,105.501 94.9835,106.167 81.5,107.5C 71.2047,109.631 65.7047,115.964 65,126.5C 64.3333,212.833 64.3333,299.167 65,385.5C 66.1828,395.514 71.6828,401.514 81.5,403.5C 83.6074,404.468 85.9407,404.802 88.5,404.5C 88.5,403.167 88.5,401.833 88.5,400.5C 98.8041,347.479 109.304,294.479 120,241.5C 121.298,235.43 123.465,229.763 126.5,224.5C 127.906,224.027 128.573,223.027 128.5,221.5C 129.433,218.63 131.1,216.296 133.5,214.5C 135.262,213.738 136.262,212.404 136.5,210.5C 136.833,209.5 137.5,208.833 138.5,208.5C 140.404,208.262 141.738,207.262 142.5,205.5C 149.776,198.597 158.443,194.264 168.5,192.5C 262.904,192.831 357.237,192.497 451.5,191.5C 473.56,197.064 485.227,211.23 486.5,234C 476.775,288.624 466.275,343.124 455,397.5C 453.691,403.607 451.525,409.274 448.5,414.5C 447.094,414.973 446.427,415.973 446.5,417.5C 445.567,420.37 443.9,422.704 441.5,424.5C 439.413,425.585 438.08,427.251 437.5,429.5C 437.5,430.167 437.167,430.5 436.5,430.5C 434.596,430.738 433.262,431.738 432.5,433.5C 432.027,434.906 431.027,435.573 429.5,435.5C 425.61,436.271 422.61,438.271 420.5,441.5C 414.573,444.735 408.24,446.902 401.5,448C 292.5,448.667 183.5,448.667 74.5,448C 71.2578,447.594 68.2578,446.761 65.5,445.5C 64.4479,443.744 62.7812,443.077 60.5,443.5C 37.695,433.619 24.195,416.286 20,391.5C 19.3333,300.5 19.3333,209.5 20,118.5C 21.4874,106.159 26.3208,95.4924 34.5,86.5C 36.2624,85.7377 37.2624,84.4044 37.5,82.5C 37.8333,81.5 38.5,80.8333 39.5,80.5C 41.7488,79.9202 43.4154,78.5869 44.5,76.5C 44.8417,75.6618 45.5084,75.3284 46.5,75.5C 47.5,75.1667 48.1667,74.5 48.5,73.5C 50.0269,73.573 51.0269,72.9063 51.5,71.5C 57.0182,67.9927 63.0182,65.6594 69.5,64.5C 69.4346,64.9382 69.6012,65.2716 70,65.5C 105.5,64.8302 141,64.1635 176.5,63.5 Z M 180.5,235.5 C 267.167,235.5 353.833,235.5 440.5,235.5C 440.5,237.167 440.5,238.833 440.5,240.5C 430.166,289.998 420,339.664 410,389.5C 407.208,396.792 402.042,401.458 394.5,403.5C 307.833,403.5 221.167,403.5 134.5,403.5C 134.5,401.833 134.5,400.167 134.5,398.5C 145.067,348.002 155.4,297.335 165.5,246.5C 166.906,246.027 167.573,245.027 167.5,243.5C 170.793,239.22 175.126,236.553 180.5,235.5 Z"/></g>
<g><path style="opacity:0.039" fill="#191919" d="M 51.5,71.5 C 51.0269,72.9063 50.0269,73.573 48.5,73.5C 48.9731,72.0937 49.9731,71.427 51.5,71.5 Z"/></g>
<g><path style="opacity:0.035" fill="#1f1f1f" d="M 48.5,73.5 C 48.1667,74.5 47.5,75.1667 46.5,75.5C 46.5,74.1667 47.1667,73.5 48.5,73.5 Z"/></g>
<g><path style="opacity:0.031" fill="#181818" d="M 44.5,76.5 C 43.4154,78.5869 41.7488,79.9202 39.5,80.5C 40.5846,78.4131 42.2512,77.0798 44.5,76.5 Z"/></g>
<g><path style="opacity:0.027" fill="#1b1b1b" d="M 37.5,82.5 C 37.2624,84.4044 36.2624,85.7377 34.5,86.5C 34.7376,84.5956 35.7376,83.2623 37.5,82.5 Z"/></g>
<g><path style="opacity:0.666" fill="#868686" d="M 166.5,109.5 C 165.711,109.217 165.044,108.717 164.5,108C 136.835,107.5 109.169,107.333 81.5,107.5C 94.9835,106.167 108.817,105.501 123,105.5C 136.833,105.667 150.667,105.833 164.5,106C 165.973,106.71 166.64,107.876 166.5,109.5 Z"/></g>
<g><path style="opacity:0.341" fill="#949494" d="M 238.5,103.5 C 281.598,104.161 324.598,104.828 367.5,105.5C 324.904,106.661 282.238,106.827 239.5,106C 238.748,105.329 238.414,104.496 238.5,103.5 Z"/></g>
<g><path style="opacity:0.965" fill="#858585" d="M 415.5,133.5 C 416.974,134.436 417.974,135.77 418.5,137.5C 417.5,137.5 416.5,137.5 415.5,137.5C 415.5,136.167 415.5,134.833 415.5,133.5 Z"/></g>
<g><path style="opacity:0.663" fill="#aeaeae" d="M 425.5,156.5 C 426.451,157.919 426.784,159.585 426.5,161.5C 426.5,164.5 426.5,167.5 426.5,170.5C 411.833,170.5 397.167,170.5 382.5,170.5C 381.85,168.565 381.517,166.565 381.5,164.5C 383.256,165.552 383.923,167.219 383.5,169.5C 397.5,169.5 411.5,169.5 425.5,169.5C 425.5,165.167 425.5,160.833 425.5,156.5 Z"/></g>
<g><path style="opacity:0.039" fill="#181818" d="M 426.5,161.5 C 427.479,164.625 427.813,167.958 427.5,171.5C 412.324,171.829 397.324,171.496 382.5,170.5C 397.167,170.5 411.833,170.5 426.5,170.5C 426.5,167.5 426.5,164.5 426.5,161.5 Z"/></g>
<g><path style="opacity:0.937" fill="#7e7e7e" d="M 451.5,191.5 C 357.237,192.497 262.904,192.831 168.5,192.5C 169.952,191.698 171.618,191.198 173.5,191C 266.334,190.168 359.001,190.334 451.5,191.5 Z"/></g>
<g><path style="opacity:0.039" fill="#141414" d="M 142.5,205.5 C 141.738,207.262 140.404,208.262 138.5,208.5C 139.262,206.738 140.596,205.738 142.5,205.5 Z"/></g>
<g><path style="opacity:0.031" fill="#191919" d="M 136.5,210.5 C 136.262,212.404 135.262,213.738 133.5,214.5C 133.738,212.596 134.738,211.262 136.5,210.5 Z"/></g>
<g><path style="opacity:0.055" fill="#1a1a1a" d="M 128.5,221.5 C 128.573,223.027 127.906,224.027 126.5,224.5C 126.427,222.973 127.094,221.973 128.5,221.5 Z"/></g>
<g><path style="opacity:0.039" fill="#191919" d="M 180.5,235.5 C 267.666,234.334 354.999,234.168 442.5,235C 441.891,236.948 441.224,238.782 440.5,240.5C 440.5,238.833 440.5,237.167 440.5,235.5C 353.833,235.5 267.167,235.5 180.5,235.5 Z"/></g>
<g><path style="opacity:0.004" fill="#181818" d="M 167.5,243.5 C 167.573,245.027 166.906,246.027 165.5,246.5C 165.427,244.973 166.094,243.973 167.5,243.5 Z"/></g>
<g><path style="opacity:0.039" fill="#131313" d="M 88.5,400.5 C 88.5,401.833 88.5,403.167 88.5,404.5C 85.9407,404.802 83.6074,404.468 81.5,403.5C 83.5,403.5 85.5,403.5 87.5,403.5C 87.2627,402.209 87.596,401.209 88.5,400.5 Z"/></g>
<g><path style="opacity:0.039" fill="#191919" d="M 134.5,398.5 C 134.5,400.167 134.5,401.833 134.5,403.5C 221.167,403.5 307.833,403.5 394.5,403.5C 307.334,404.666 220.001,404.832 132.5,404C 133.109,402.052 133.776,400.218 134.5,398.5 Z"/></g>
<g><path style="opacity:0.006" fill="#040404" d="M 448.5,414.5 C 448.573,416.027 447.906,417.027 446.5,417.5C 446.427,415.973 447.094,414.973 448.5,414.5 Z"/></g>
<g><path style="opacity:0.004" fill="#151515" d="M 441.5,424.5 C 440.92,426.749 439.587,428.415 437.5,429.5C 438.08,427.251 439.413,425.585 441.5,424.5 Z"/></g>
<g><path style="opacity:0.004" fill="#111111" d="M 436.5,430.5 C 435.738,432.262 434.404,433.262 432.5,433.5C 433.262,431.738 434.596,430.738 436.5,430.5 Z"/></g>
<g><path style="opacity:0.453" fill="#9d9d9d" d="M 429.5,435.5 C 427.115,438.183 424.115,440.183 420.5,441.5C 422.61,438.271 425.61,436.271 429.5,435.5 Z"/></g>
<g><path style="opacity:0.51" fill="#717171" d="M 60.5,443.5 C 62.7812,443.077 64.4479,443.744 65.5,445.5C 63.4471,445.598 61.7804,444.931 60.5,443.5 Z"/></g>
</svg>
