<?xml version="1.0" encoding="UTF-8"?>
<!DOCTYPE svg PUBLIC "-//W3C//DTD SVG 1.1//EN" "http://www.w3.org/Graphics/SVG/1.1/DTD/svg11.dtd">
<svg xmlns="http://www.w3.org/2000/svg" version="1.1" width="512px" height="512px" style="shape-rendering:geometricPrecision; text-rendering:geometricPrecision; image-rendering:optimizeQuality; fill-rule:evenodd; clip-rule:evenodd" xmlns:xlink="http://www.w3.org/1999/xlink">
<g><path style="opacity:0.982" fill="#f9f9f9" d="M 430.5,178.5 C 429.5,178.833 428.833,179.5 428.5,180.5C 382.806,226.86 336.806,272.86 290.5,318.5C 288.973,318.427 287.973,319.094 287.5,320.5C 283.939,323.532 279.939,326.032 275.5,328C 250.358,338.715 224.691,348.048 198.5,356C 172.59,362.052 157.257,352.052 152.5,326C 157.181,304.29 163.681,283.123 172,262.5C 176.518,250.406 181.685,238.74 187.5,227.5C 188.5,227.167 189.167,226.5 189.5,225.5C 193.361,218.963 198.361,213.297 204.5,208.5C 228.749,185.753 252.582,162.419 276,138.5C 276.464,137.906 276.631,137.239 276.5,136.5C 311.409,100.423 347.076,65.2562 383.5,31C 401.669,22.5772 419.002,23.9105 435.5,35C 449,48.5 462.5,62 476,75.5C 487.034,92.0272 488.367,109.361 480,127.5C 464.359,145.308 447.859,162.308 430.5,178.5 Z M 445.5,115.5 C 436.167,124.167 427.167,133.167 418.5,142.5C 417.761,142.631 417.094,142.464 416.5,142C 400.471,125.638 384.138,109.638 367.5,94C 377.702,83.9651 387.702,73.7984 397.5,63.5C 398.833,63.5 399.5,62.8333 399.5,61.5C 405.05,59.8217 410.383,60.3217 415.5,63C 427.731,74.5623 439.231,86.729 450,99.5C 451.555,105.765 450.055,111.099 445.5,115.5 Z M 392.5,166.5 C 377.865,182.47 362.865,198.136 347.5,213.5C 329.833,230.5 312.5,247.833 295.5,265.5C 292.422,267.406 289.756,269.906 287.5,273C 286.833,273.667 286.167,273.667 285.5,273C 269.667,257.167 253.833,241.333 238,225.5C 237.333,224.833 237.333,224.167 238,223.5C 273.014,188.32 308.18,153.32 343.5,118.5C 359.854,134.521 376.187,150.521 392.5,166.5 Z M 215.5,250.5 C 230.167,265.833 245.167,280.833 260.5,295.5C 260.167,296.167 259.833,296.833 259.5,297.5C 244.521,303.32 229.521,309.154 214.5,315C 206.014,318.219 197.348,320.719 188.5,322.5C 189.947,314.654 192.114,306.988 195,299.5C 201.271,283.515 207.438,267.515 213.5,251.5C 214.167,251.167 214.833,250.833 215.5,250.5 Z"/></g>
<g><path style="opacity:0.004" fill="#292929" d="M 399.5,61.5 C 399.5,62.8333 398.833,63.5 397.5,63.5C 397.833,62.5 398.5,61.8333 399.5,61.5 Z"/></g>
<g><path style="opacity:0.992" fill="#f3f3f3" d="M 195.5,93.5 C 194.094,93.9731 193.427,94.9731 193.5,96.5C 192.833,96.8333 192.167,97.1667 191.5,97.5C 190.5,97.8333 189.833,98.5 189.5,99.5C 187.723,100.6 185.723,101.434 183.5,102C 154.833,102.333 126.167,102.667 97.5,103C 93.4528,104.072 89.4528,105.239 85.5,106.5C 83.9731,106.427 82.9731,107.094 82.5,108.5C 77.4894,111.485 73.1561,115.152 69.5,119.5C 68.0937,119.973 67.427,120.973 67.5,122.5C 63.733,128.627 61.233,135.294 60,142.5C 59.3333,232.167 59.3333,321.833 60,411.5C 64.6491,433.817 78.1491,446.983 100.5,451C 196.833,451.667 293.167,451.667 389.5,451C 394.31,450.34 398.977,449.173 403.5,447.5C 405.027,447.573 406.027,446.906 406.5,445.5C 407.167,445.167 407.833,444.833 408.5,444.5C 410.027,444.573 411.027,443.906 411.5,442.5C 412.167,441.833 412.833,441.167 413.5,440.5C 416.5,439.5 418.5,437.5 419.5,434.5C 426.017,426.437 429.517,417.103 430,406.5C 430.168,378.997 430.668,351.664 431.5,324.5C 432.674,323.486 433.34,322.153 433.5,320.5C 435.167,319.5 436.5,318.167 437.5,316.5C 446.672,310.496 454.839,311.829 462,320.5C 462.862,322.087 463.529,323.754 464,325.5C 464.667,356.167 464.667,386.833 464,417.5C 462.258,426.56 459.424,435.227 455.5,443.5C 454.167,443.5 453.5,444.167 453.5,445.5C 453.167,446.167 452.833,446.833 452.5,447.5C 451.5,447.833 450.833,448.5 450.5,449.5C 450.155,452.198 448.822,454.198 446.5,455.5C 445.094,455.973 444.427,456.973 444.5,458.5C 442.167,461.5 439.5,464.167 436.5,466.5C 434.973,466.427 433.973,467.094 433.5,468.5C 433.158,469.338 432.492,469.672 431.5,469.5C 430.5,469.833 429.833,470.5 429.5,471.5C 428.71,472.401 427.71,473.068 426.5,473.5C 424.973,473.427 423.973,474.094 423.5,475.5C 412.658,481.629 400.991,485.129 388.5,486C 292.5,486.667 196.5,486.667 100.5,486C 56.6667,479.5 31.5,454.333 25,410.5C 24.3333,321.167 24.3333,231.833 25,142.5C 26.356,124.809 32.856,109.476 44.5,96.5C 46.2624,95.7377 47.2624,94.4044 47.5,92.5C 47.8333,91.5 48.5,90.8333 49.5,90.5C 51.7488,89.9202 53.4154,88.5869 54.5,86.5C 66.5775,76.3015 80.5775,70.1349 96.5,68C 126.167,67.3333 155.833,67.3333 185.5,68C 197.437,73.3447 200.77,81.8447 195.5,93.5 Z"/></g>
<g><path style="opacity:0.027" fill="#2f2f2f" d="M 54.5,86.5 C 53.4154,88.5869 51.7488,89.9202 49.5,90.5C 50.5846,88.4131 52.2512,87.0798 54.5,86.5 Z"/></g>
<g><path style="opacity:0.047" fill="#242424" d="M 47.5,92.5 C 47.2624,94.4044 46.2624,95.7377 44.5,96.5C 44.7376,94.5956 45.7376,93.2623 47.5,92.5 Z"/></g>
<g><path style="opacity:0.004" fill="#202020" d="M 195.5,93.5 C 195.573,95.0269 194.906,96.0269 193.5,96.5C 193.427,94.9731 194.094,93.9731 195.5,93.5 Z"/></g>
<g><path style="opacity:0.004" fill="#272727" d="M 191.5,97.5 C 191.5,98.8333 190.833,99.5 189.5,99.5C 189.833,98.5 190.5,97.8333 191.5,97.5 Z"/></g>
<g><path style="opacity:0.004" fill="#272727" d="M 85.5,106.5 C 85.0269,107.906 84.0269,108.573 82.5,108.5C 82.9731,107.094 83.9731,106.427 85.5,106.5 Z"/></g>
<g><path style="opacity:0.243" fill="#bcbcbc" d="M 445.5,115.5 C 437.759,124.746 429.426,133.579 420.5,142C 419.906,142.464 419.239,142.631 418.5,142.5C 427.167,133.167 436.167,124.167 445.5,115.5 Z"/></g>
<g><path style="opacity:0.004" fill="#202020" d="M 69.5,119.5 C 69.573,121.027 68.9063,122.027 67.5,122.5C 67.427,120.973 68.0937,119.973 69.5,119.5 Z"/></g>
<g><path style="opacity:0.18" fill="#cecece" d="M 276.5,136.5 C 276.631,137.239 276.464,137.906 276,138.5C 252.582,162.419 228.749,185.753 204.5,208.5C 228.167,184.167 252.167,160.167 276.5,136.5 Z"/></g>
<g><path style="opacity:0.004" fill="#1c1c1c" d="M 430.5,178.5 C 430.5,179.833 429.833,180.5 428.5,180.5C 428.833,179.5 429.5,178.833 430.5,178.5 Z"/></g>
<g><path style="opacity:0.259" fill="#b9b9b9" d="M 392.5,166.5 C 393.465,167.721 393.298,169.054 392,170.5C 377.581,185.422 362.748,199.755 347.5,213.5C 362.865,198.136 377.865,182.47 392.5,166.5 Z"/></g>
<g><path style="opacity:0.286" fill="#b3b3b3" d="M 347.5,213.5 C 331.421,231.082 314.754,248.248 297.5,265C 296.906,265.464 296.239,265.631 295.5,265.5C 312.5,247.833 329.833,230.5 347.5,213.5 Z"/></g>
<g><path style="opacity:0.02" fill="#2a2a2a" d="M 189.5,225.5 C 189.167,226.5 188.5,227.167 187.5,227.5C 187.5,226.167 188.167,225.5 189.5,225.5 Z"/></g>
<g><path style="opacity:0.035" fill="#3a3a3a" d="M 215.5,250.5 C 214.833,250.833 214.167,251.167 213.5,251.5C 213.711,249.576 214.377,249.243 215.5,250.5 Z"/></g>
<g><path style="opacity:0.039" fill="#414141" d="M 260.5,295.5 C 261.757,296.623 261.424,297.289 259.5,297.5C 259.833,296.833 260.167,296.167 260.5,295.5 Z"/></g>
<g><path style="opacity:0.031" fill="#303030" d="M 437.5,316.5 C 436.5,318.167 435.167,319.5 433.5,320.5C 433.833,318.167 435.167,316.833 437.5,316.5 Z"/></g>
<g><path style="opacity:0.004" fill="#161616" d="M 290.5,318.5 C 290.027,319.906 289.027,320.573 287.5,320.5C 287.973,319.094 288.973,318.427 290.5,318.5 Z"/></g>
<g><path style="opacity:0.051" fill="#1f1f1f" d="M 433.5,320.5 C 433.34,322.153 432.674,323.486 431.5,324.5C 431.229,322.62 431.896,321.287 433.5,320.5 Z"/></g>
<g><path style="opacity:0.027" fill="#303030" d="M 419.5,434.5 C 418.5,437.5 416.5,439.5 413.5,440.5C 415.167,438.167 417.167,436.167 419.5,434.5 Z"/></g>
<g><path style="opacity:0.039" fill="#2a2a2a" d="M 411.5,442.5 C 411.027,443.906 410.027,444.573 408.5,444.5C 408.973,443.094 409.973,442.427 411.5,442.5 Z"/></g>
<g><path style="opacity:0.004" fill="#0d0d0d" d="M 455.5,443.5 C 455.167,444.5 454.5,445.167 453.5,445.5C 453.5,444.167 454.167,443.5 455.5,443.5 Z"/></g>
<g><path style="opacity:0.043" fill="#303030" d="M 406.5,445.5 C 406.027,446.906 405.027,447.573 403.5,447.5C 403.973,446.094 404.973,445.427 406.5,445.5 Z"/></g>
<g><path style="opacity:0.004" fill="#222222" d="M 452.5,447.5 C 452.5,448.833 451.833,449.5 450.5,449.5C 450.833,448.5 451.5,447.833 452.5,447.5 Z"/></g>
<g><path style="opacity:0.004" fill="#191919" d="M 446.5,455.5 C 446.573,457.027 445.906,458.027 444.5,458.5C 444.427,456.973 445.094,455.973 446.5,455.5 Z"/></g>
<g><path style="opacity:0.004" fill="#191919" d="M 436.5,466.5 C 436.027,467.906 435.027,468.573 433.5,468.5C 433.973,467.094 434.973,466.427 436.5,466.5 Z"/></g>
<g><path style="opacity:0.004" fill="#2c2c2c" d="M 431.5,469.5 C 431.5,470.833 430.833,471.5 429.5,471.5C 429.833,470.5 430.5,469.833 431.5,469.5 Z"/></g>
<g><path style="opacity:0.004" fill="#1c1c1c" d="M 426.5,473.5 C 426.027,474.906 425.027,475.573 423.5,475.5C 423.973,474.094 424.973,473.427 426.5,473.5 Z"/></g>
</svg>
