<?xml version="1.0" encoding="UTF-8"?>
<!DOCTYPE svg PUBLIC "-//W3C//DTD SVG 1.1//EN" "http://www.w3.org/Graphics/SVG/1.1/DTD/svg11.dtd">
<svg xmlns="http://www.w3.org/2000/svg" version="1.1" width="512px" height="512px" style="shape-rendering:geometricPrecision; text-rendering:geometricPrecision; image-rendering:optimizeQuality; fill-rule:evenodd; clip-rule:evenodd" xmlns:xlink="http://www.w3.org/1999/xlink">
<g><path style="opacity:0.993" fill="#d6d6d6" d="M 260.5,89.5 C 261.5,89.1667 262.167,88.5 262.5,87.5C 262.973,86.0937 263.973,85.427 265.5,85.5C 266.5,85.1667 267.167,84.5 267.5,83.5C 267.842,82.6618 268.508,82.3284 269.5,82.5C 270.5,82.1667 271.167,81.5 271.5,80.5C 274.494,78.0002 277.827,76.0002 281.5,74.5C 282.5,74.1667 283.167,73.5 283.5,72.5C 292.551,66.8081 302.218,62.4748 312.5,59.5C 315.082,59.9746 317.082,59.3079 318.5,57.5C 383.956,43.4825 433.789,65.1491 468,122.5C 488.538,163.761 491.871,206.427 478,250.5C 472.335,268.063 464.501,284.396 454.5,299.5C 453.094,299.973 452.427,300.973 452.5,302.5C 451.5,302.833 450.833,303.5 450.5,304.5C 450.5,304.833 450.5,305.167 450.5,305.5C 449.5,305.833 448.833,306.5 448.5,307.5C 446.656,311.192 444.323,314.525 441.5,317.5C 440.094,317.973 439.427,318.973 439.5,320.5C 438.833,321.167 438.167,321.833 437.5,322.5C 435.738,323.262 434.738,324.596 434.5,326.5C 433.728,327.694 432.728,328.694 431.5,329.5C 429.413,330.585 428.08,332.251 427.5,334.5C 421.527,341.14 415.194,347.473 408.5,353.5C 405.911,354.419 403.911,356.086 402.5,358.5C 401.027,360.395 399.36,362.061 397.5,363.5C 395.596,363.738 394.262,364.738 393.5,366.5C 392.564,367.974 391.23,368.974 389.5,369.5C 388.5,369.833 387.833,370.5 387.5,371.5C 386.564,372.974 385.23,373.974 383.5,374.5C 382.5,374.833 381.833,375.5 381.5,376.5C 380.694,377.728 379.694,378.728 378.5,379.5C 376.973,379.427 375.973,380.094 375.5,381.5C 374.833,382.167 374.167,382.833 373.5,383.5C 371.973,383.427 370.973,384.094 370.5,385.5C 368.704,387.9 366.37,389.567 363.5,390.5C 362.5,390.833 361.833,391.5 361.5,392.5C 359.704,394.9 357.37,396.567 354.5,397.5C 353.5,397.833 352.833,398.5 352.5,399.5C 350.704,401.9 348.37,403.567 345.5,404.5C 344.5,404.833 343.833,405.5 343.5,406.5C 343.158,407.338 342.492,407.672 341.5,407.5C 340.5,407.833 339.833,408.5 339.5,409.5C 339.027,410.906 338.027,411.573 336.5,411.5C 335.5,411.833 334.833,412.5 334.5,413.5C 334.158,414.338 333.492,414.672 332.5,414.5C 331.5,414.833 330.833,415.5 330.5,416.5C 330.027,417.906 329.027,418.573 327.5,418.5C 326.5,418.833 325.833,419.5 325.5,420.5C 321.395,424.602 316.729,427.935 311.5,430.5C 310.5,430.833 309.833,431.5 309.5,432.5C 299.399,440.554 288.066,446.554 275.5,450.5C 272.612,449.99 270.279,450.656 268.5,452.5C 249.599,455.864 231.932,452.364 215.5,442C 179.358,416.531 144.358,389.531 110.5,361C 90.8345,343.34 73.3345,323.84 58,302.5C 46.5129,285.192 38.0129,266.526 32.5,246.5C 33.0102,243.612 32.3435,241.279 30.5,239.5C 19.1457,197.026 24.1457,156.693 45.5,118.5C 47.0481,118.179 47.7148,117.179 47.5,115.5C 48.3403,113.147 49.6736,111.147 51.5,109.5C 52.9063,109.027 53.573,108.027 53.5,106.5C 53.5,105.833 53.8333,105.5 54.5,105.5C 55.9063,105.027 56.573,104.027 56.5,102.5C 57.1667,101.833 57.8333,101.167 58.5,100.5C 60.2624,99.7377 61.2624,98.4044 61.5,96.5C 65.1667,92.1667 69.1667,88.1667 73.5,84.5C 75.4044,84.2624 76.7377,83.2624 77.5,81.5C 117.74,50.2043 161.74,44.0376 209.5,63C 226.309,70.6642 241.643,80.4975 255.5,92.5C 257.029,91.2371 258.695,90.2371 260.5,89.5 Z M 184.5,90.5 C 186.214,91.7384 188.214,92.405 190.5,92.5C 211.652,101.128 229.986,113.961 245.5,131C 252.381,135.644 259.047,135.478 265.5,130.5C 269.436,128.234 272.769,125.234 275.5,121.5C 277.36,120.061 279.027,118.395 280.5,116.5C 282.027,116.573 283.027,115.906 283.5,114.5C 284.167,113.833 284.833,113.167 285.5,112.5C 286.833,112.5 287.5,111.833 287.5,110.5C 288.492,110.672 289.158,110.338 289.5,109.5C 290.833,109.5 291.5,108.833 291.5,107.5C 301.617,101.108 312.283,95.775 323.5,91.5C 325.786,91.405 327.786,90.7384 329.5,89.5C 386.872,81.2672 425.705,104.267 446,158.5C 455.055,194.279 451.889,228.946 436.5,262.5C 435.094,262.973 434.427,263.973 434.5,265.5C 433.514,267.426 432.514,269.426 431.5,271.5C 430.599,272.29 429.932,273.29 429.5,274.5C 425.686,280.571 421.686,286.571 417.5,292.5C 416.094,292.973 415.427,293.973 415.5,295.5C 414.833,295.5 414.5,295.833 414.5,296.5C 413.094,296.973 412.427,297.973 412.5,299.5C 411.272,300.306 410.272,301.306 409.5,302.5C 408.094,302.973 407.427,303.973 407.5,305.5C 405.386,308.07 403.053,310.403 400.5,312.5C 394.833,317.5 389.5,322.833 384.5,328.5C 382.016,330.597 379.682,332.93 377.5,335.5C 375.596,335.738 374.262,336.738 373.5,338.5C 371.861,339.473 370.527,340.806 369.5,342.5C 367.973,342.427 366.973,343.094 366.5,344.5C 365.306,345.272 364.306,346.272 363.5,347.5C 362.167,347.5 361.5,348.167 361.5,349.5C 360.29,349.932 359.29,350.599 358.5,351.5C 356.973,351.427 355.973,352.094 355.5,353.5C 354.833,354.167 354.167,354.833 353.5,355.5C 351.973,355.427 350.973,356.094 350.5,357.5C 349.833,358.167 349.167,358.833 348.5,359.5C 347.167,359.5 346.5,360.167 346.5,361.5C 345.29,361.932 344.29,362.599 343.5,363.5C 342.167,363.5 341.5,364.167 341.5,365.5C 340.508,365.328 339.842,365.662 339.5,366.5C 338.167,366.5 337.5,367.167 337.5,368.5C 336.29,368.932 335.29,369.599 334.5,370.5C 333.167,370.5 332.5,371.167 332.5,372.5C 331.508,372.328 330.842,372.662 330.5,373.5C 329.167,373.5 328.5,374.167 328.5,375.5C 326.973,375.427 325.973,376.094 325.5,377.5C 324.167,377.5 323.5,378.167 323.5,379.5C 322.508,379.328 321.842,379.662 321.5,380.5C 320.167,380.5 319.5,381.167 319.5,382.5C 316.63,383.433 314.296,385.1 312.5,387.5C 311.167,387.5 310.5,388.167 310.5,389.5C 307.63,390.433 305.296,392.1 303.5,394.5C 302.167,394.5 301.5,395.167 301.5,396.5C 300.508,396.328 299.842,396.662 299.5,397.5C 298.167,397.5 297.5,398.167 297.5,399.5C 293.185,401.66 289.185,404.327 285.5,407.5C 284.167,407.5 283.5,408.167 283.5,409.5C 279.22,411.64 274.886,413.807 270.5,416C 259.678,420.851 249.011,420.518 238.5,415C 232.669,411.919 227.002,408.585 221.5,405C 190.105,381.629 159.438,357.296 129.5,332C 108.439,313.304 91.1056,291.804 77.5,267.5C 76.7368,265.632 75.7368,263.965 74.5,262.5C 61.0396,233.11 56.8729,202.443 62,170.5C 64.5535,159.337 68.3869,148.67 73.5,138.5C 74.9063,138.027 75.573,137.027 75.5,135.5C 77.7481,132.672 79.7481,129.672 81.5,126.5C 82.9063,126.027 83.573,125.027 83.5,123.5C 84.5,122.5 85.5,121.5 86.5,120.5C 88.2624,119.738 89.2624,118.404 89.5,116.5C 90.5,116.167 91.1667,115.5 91.5,114.5C 94.1667,113.833 95.8333,112.167 96.5,109.5C 97.7095,109.068 98.7095,108.401 99.5,107.5C 100.833,107.5 101.5,106.833 101.5,105.5C 102.492,105.672 103.158,105.338 103.5,104.5C 104.833,104.5 105.5,103.833 105.5,102.5C 117.26,95.4113 129.927,90.578 143.5,88C 157.302,86.2692 170.968,87.1026 184.5,90.5 Z"/></g>
<g><path style="opacity:0.631" fill="#646464" d="M 318.5,57.5 C 317.082,59.3079 315.082,59.9746 312.5,59.5C 314.214,58.2616 316.214,57.595 318.5,57.5 Z"/></g>
<g><path style="opacity:0.031" fill="#262626" d="M 283.5,72.5 C 283.167,73.5 282.5,74.1667 281.5,74.5C 281.5,73.1667 282.167,72.5 283.5,72.5 Z"/></g>
<g><path style="opacity:0.035" fill="#1f1f1f" d="M 271.5,80.5 C 271.167,81.5 270.5,82.1667 269.5,82.5C 269.5,81.1667 270.167,80.5 271.5,80.5 Z"/></g>
<g><path style="opacity:0.039" fill="#181818" d="M 77.5,81.5 C 76.7377,83.2624 75.4044,84.2624 73.5,84.5C 74.2623,82.7376 75.5956,81.7376 77.5,81.5 Z"/></g>
<g><path style="opacity:0.035" fill="#1c1c1c" d="M 267.5,83.5 C 267.167,84.5 266.5,85.1667 265.5,85.5C 265.5,84.1667 266.167,83.5 267.5,83.5 Z"/></g>
<g><path style="opacity:0.039" fill="#1b1b1b" d="M 262.5,87.5 C 262.167,88.5 261.5,89.1667 260.5,89.5C 260.5,88.1667 261.167,87.5 262.5,87.5 Z"/></g>
<g><path style="opacity:0.059" fill="#767676" d="M 329.5,89.5 C 327.786,90.7384 325.786,91.405 323.5,91.5C 324.918,89.6921 326.918,89.0254 329.5,89.5 Z"/></g>
<g><path style="opacity:0.498" fill="#656565" d="M 184.5,90.5 C 187.082,90.0254 189.082,90.6921 190.5,92.5C 188.214,92.405 186.214,91.7384 184.5,90.5 Z"/></g>
<g><path style="opacity:0.035" fill="#161616" d="M 61.5,96.5 C 61.2624,98.4044 60.2624,99.7377 58.5,100.5C 58.7376,98.5956 59.7376,97.2623 61.5,96.5 Z"/></g>
<g><path style="opacity:0.043" fill="#161616" d="M 56.5,102.5 C 56.573,104.027 55.9063,105.027 54.5,105.5C 54.427,103.973 55.0937,102.973 56.5,102.5 Z"/></g>
<g><path style="opacity:0.004" fill="#151515" d="M 105.5,102.5 C 105.5,103.833 104.833,104.5 103.5,104.5C 103.833,103.5 104.5,102.833 105.5,102.5 Z"/></g>
<g><path style="opacity:0.004" fill="#1b1b1b" d="M 101.5,105.5 C 101.5,106.833 100.833,107.5 99.5,107.5C 99.8333,106.5 100.5,105.833 101.5,105.5 Z"/></g>
<g><path style="opacity:0.043" fill="#181818" d="M 53.5,106.5 C 53.573,108.027 52.9063,109.027 51.5,109.5C 51.427,107.973 52.0937,106.973 53.5,106.5 Z"/></g>
<g><path style="opacity:0.004" fill="#161616" d="M 291.5,107.5 C 291.5,108.833 290.833,109.5 289.5,109.5C 289.833,108.5 290.5,107.833 291.5,107.5 Z"/></g>
<g><path style="opacity:0.004" fill="#111111" d="M 96.5,109.5 C 95.8333,112.167 94.1667,113.833 91.5,114.5C 92.8333,112.5 94.5,110.833 96.5,109.5 Z"/></g>
<g><path style="opacity:0.004" fill="#1b1b1b" d="M 287.5,110.5 C 287.5,111.833 286.833,112.5 285.5,112.5C 285.833,111.5 286.5,110.833 287.5,110.5 Z"/></g>
<g><path style="opacity:0.004" fill="#121212" d="M 283.5,114.5 C 283.027,115.906 282.027,116.573 280.5,116.5C 280.973,115.094 281.973,114.427 283.5,114.5 Z"/></g>
<g><path style="opacity:0.251" fill="#575757" d="M 47.5,115.5 C 47.7148,117.179 47.0481,118.179 45.5,118.5C 45.9321,117.29 46.5987,116.29 47.5,115.5 Z"/></g>
<g><path style="opacity:0.004" fill="#121212" d="M 89.5,116.5 C 89.2624,118.404 88.2624,119.738 86.5,120.5C 86.7376,118.596 87.7376,117.262 89.5,116.5 Z"/></g>
<g><path style="opacity:0.004" fill="#0e0e0e" d="M 83.5,123.5 C 83.573,125.027 82.9063,126.027 81.5,126.5C 81.427,124.973 82.0937,123.973 83.5,123.5 Z"/></g>
<g><path style="opacity:0.004" fill="#0e0e0e" d="M 275.5,121.5 C 272.769,125.234 269.436,128.234 265.5,130.5C 268.231,126.766 271.564,123.766 275.5,121.5 Z"/></g>
<g><path style="opacity:0.008" fill="#040404" d="M 75.5,135.5 C 75.573,137.027 74.9063,138.027 73.5,138.5C 73.427,136.973 74.0937,135.973 75.5,135.5 Z"/></g>
<g><path style="opacity:0.727" fill="#686868" d="M 30.5,239.5 C 32.3435,241.279 33.0102,243.612 32.5,246.5C 31.3882,244.401 30.7215,242.067 30.5,239.5 Z"/></g>
<g><path style="opacity:0.055" fill="#080808" d="M 436.5,262.5 C 436.573,264.027 435.906,265.027 434.5,265.5C 434.427,263.973 435.094,262.973 436.5,262.5 Z"/></g>
<g><path style="opacity:0.431" fill="#737373" d="M 74.5,262.5 C 75.7368,263.965 76.7368,265.632 77.5,267.5C 74.9162,266.952 73.9162,265.285 74.5,262.5 Z"/></g>
<g><path style="opacity:0.216" fill="#5a5a5a" d="M 431.5,271.5 C 431.715,273.179 431.048,274.179 429.5,274.5C 429.932,273.29 430.599,272.29 431.5,271.5 Z"/></g>
<g><path style="opacity:0.035" fill="#1a1a1a" d="M 417.5,292.5 C 417.573,294.027 416.906,295.027 415.5,295.5C 415.427,293.973 416.094,292.973 417.5,292.5 Z"/></g>
<g><path style="opacity:0.047" fill="#121212" d="M 414.5,296.5 C 414.573,298.027 413.906,299.027 412.5,299.5C 412.427,297.973 413.094,296.973 414.5,296.5 Z"/></g>
<g><path style="opacity:0.004" fill="#121212" d="M 454.5,299.5 C 454.573,301.027 453.906,302.027 452.5,302.5C 452.427,300.973 453.094,299.973 454.5,299.5 Z"/></g>
<g><path style="opacity:0.043" fill="#131313" d="M 409.5,302.5 C 409.573,304.027 408.906,305.027 407.5,305.5C 407.427,303.973 408.094,302.973 409.5,302.5 Z"/></g>
<g><path style="opacity:0.004" fill="#151515" d="M 452.5,302.5 C 452.5,303.833 451.833,304.5 450.5,304.5C 450.833,303.5 451.5,302.833 452.5,302.5 Z"/></g>
<g><path style="opacity:0.004" fill="#1e1e1e" d="M 450.5,305.5 C 450.5,306.833 449.833,307.5 448.5,307.5C 448.833,306.5 449.5,305.833 450.5,305.5 Z"/></g>
<g><path style="opacity:0.024" fill="#191919" d="M 400.5,312.5 C 396.167,318.833 390.833,324.167 384.5,328.5C 389.5,322.833 394.833,317.5 400.5,312.5 Z"/></g>
<g><path style="opacity:0.004" fill="#131313" d="M 441.5,317.5 C 441.573,319.027 440.906,320.027 439.5,320.5C 439.427,318.973 440.094,317.973 441.5,317.5 Z"/></g>
<g><path style="opacity:0.004" fill="#131313" d="M 437.5,322.5 C 437.262,324.404 436.262,325.738 434.5,326.5C 434.738,324.596 435.738,323.262 437.5,322.5 Z"/></g>
<g><path style="opacity:0.004" fill="#111111" d="M 431.5,329.5 C 430.92,331.749 429.587,333.415 427.5,334.5C 428.08,332.251 429.413,330.585 431.5,329.5 Z"/></g>
<g><path style="opacity:0.043" fill="#141414" d="M 377.5,335.5 C 376.738,337.262 375.404,338.262 373.5,338.5C 374.262,336.738 375.596,335.738 377.5,335.5 Z"/></g>
<g><path style="opacity:0.039" fill="#171717" d="M 369.5,342.5 C 369.027,343.906 368.027,344.573 366.5,344.5C 366.973,343.094 367.973,342.427 369.5,342.5 Z"/></g>
<g><path style="opacity:0.035" fill="#1c1c1c" d="M 363.5,347.5 C 363.167,348.5 362.5,349.167 361.5,349.5C 361.5,348.167 362.167,347.5 363.5,347.5 Z"/></g>
<g><path style="opacity:0.027" fill="#1d1d1d" d="M 358.5,351.5 C 358.027,352.906 357.027,353.573 355.5,353.5C 355.973,352.094 356.973,351.427 358.5,351.5 Z"/></g>
<g><path style="opacity:0.004" fill="#0f0f0f" d="M 408.5,353.5 C 407.089,355.914 405.089,357.581 402.5,358.5C 403.911,356.086 405.911,354.419 408.5,353.5 Z"/></g>
<g><path style="opacity:0.027" fill="#1d1d1d" d="M 353.5,355.5 C 353.027,356.906 352.027,357.573 350.5,357.5C 350.973,356.094 351.973,355.427 353.5,355.5 Z"/></g>
<g><path style="opacity:0.031" fill="#212121" d="M 348.5,359.5 C 348.167,360.5 347.5,361.167 346.5,361.5C 346.5,360.167 347.167,359.5 348.5,359.5 Z"/></g>
<g><path style="opacity:0.043" fill="#191919" d="M 343.5,363.5 C 343.167,364.5 342.5,365.167 341.5,365.5C 341.5,364.167 342.167,363.5 343.5,363.5 Z"/></g>
<g><path style="opacity:0.004" fill="#131313" d="M 397.5,363.5 C 396.738,365.262 395.404,366.262 393.5,366.5C 394.262,364.738 395.596,363.738 397.5,363.5 Z"/></g>
<g><path style="opacity:0.031" fill="#212121" d="M 339.5,366.5 C 339.167,367.5 338.5,368.167 337.5,368.5C 337.5,367.167 338.167,366.5 339.5,366.5 Z"/></g>
<g><path style="opacity:0.004" fill="#121212" d="M 389.5,369.5 C 389.5,370.833 388.833,371.5 387.5,371.5C 387.833,370.5 388.5,369.833 389.5,369.5 Z"/></g>
<g><path style="opacity:0.043" fill="#191919" d="M 334.5,370.5 C 334.167,371.5 333.5,372.167 332.5,372.5C 332.5,371.167 333.167,370.5 334.5,370.5 Z"/></g>
<g><path style="opacity:0.031" fill="#212121" d="M 330.5,373.5 C 330.167,374.5 329.5,375.167 328.5,375.5C 328.5,374.167 329.167,373.5 330.5,373.5 Z"/></g>
<g><path style="opacity:0.004" fill="#151515" d="M 383.5,374.5 C 383.5,375.833 382.833,376.5 381.5,376.5C 381.833,375.5 382.5,374.833 383.5,374.5 Z"/></g>
<g><path style="opacity:0.043" fill="#191919" d="M 325.5,377.5 C 325.167,378.5 324.5,379.167 323.5,379.5C 323.5,378.167 324.167,377.5 325.5,377.5 Z"/></g>
<g><path style="opacity:0.004" fill="#161616" d="M 378.5,379.5 C 378.027,380.906 377.027,381.573 375.5,381.5C 375.973,380.094 376.973,379.427 378.5,379.5 Z"/></g>
<g><path style="opacity:0.031" fill="#1e1e1e" d="M 321.5,380.5 C 321.167,381.5 320.5,382.167 319.5,382.5C 319.5,381.167 320.167,380.5 321.5,380.5 Z"/></g>
<g><path style="opacity:0.004" fill="#161616" d="M 373.5,383.5 C 373.027,384.906 372.027,385.573 370.5,385.5C 370.973,384.094 371.973,383.427 373.5,383.5 Z"/></g>
<g><path style="opacity:0.035" fill="#1c1c1c" d="M 312.5,387.5 C 312.167,388.5 311.5,389.167 310.5,389.5C 310.5,388.167 311.167,387.5 312.5,387.5 Z"/></g>
<g><path style="opacity:0.004" fill="#171717" d="M 363.5,390.5 C 363.5,391.833 362.833,392.5 361.5,392.5C 361.833,391.5 362.5,390.833 363.5,390.5 Z"/></g>
<g><path style="opacity:0.031" fill="#212121" d="M 303.5,394.5 C 303.167,395.5 302.5,396.167 301.5,396.5C 301.5,395.167 302.167,394.5 303.5,394.5 Z"/></g>
<g><path style="opacity:0.027" fill="#232323" d="M 299.5,397.5 C 299.167,398.5 298.5,399.167 297.5,399.5C 297.5,398.167 298.167,397.5 299.5,397.5 Z"/></g>
<g><path style="opacity:0.004" fill="#181818" d="M 354.5,397.5 C 354.5,398.833 353.833,399.5 352.5,399.5C 352.833,398.5 353.5,397.833 354.5,397.5 Z"/></g>
<g><path style="opacity:0.004" fill="#1a1a1a" d="M 345.5,404.5 C 345.5,405.833 344.833,406.5 343.5,406.5C 343.833,405.5 344.5,404.833 345.5,404.5 Z"/></g>
<g><path style="opacity:0.039" fill="#1e1e1e" d="M 285.5,407.5 C 285.167,408.5 284.5,409.167 283.5,409.5C 283.5,408.167 284.167,407.5 285.5,407.5 Z"/></g>
<g><path style="opacity:0.004" fill="#131313" d="M 341.5,407.5 C 341.5,408.833 340.833,409.5 339.5,409.5C 339.833,408.5 340.5,407.833 341.5,407.5 Z"/></g>
<g><path style="opacity:0.004" fill="#1b1b1b" d="M 336.5,411.5 C 336.5,412.833 335.833,413.5 334.5,413.5C 334.833,412.5 335.5,411.833 336.5,411.5 Z"/></g>
<g><path style="opacity:0.004" fill="#151515" d="M 332.5,414.5 C 332.5,415.833 331.833,416.5 330.5,416.5C 330.833,415.5 331.5,414.833 332.5,414.5 Z"/></g>
<g><path style="opacity:0.004" fill="#1b1b1b" d="M 327.5,418.5 C 327.5,419.833 326.833,420.5 325.5,420.5C 325.833,419.5 326.5,418.833 327.5,418.5 Z"/></g>
<g><path style="opacity:0.004" fill="#161616" d="M 311.5,430.5 C 311.5,431.833 310.833,432.5 309.5,432.5C 309.833,431.5 310.5,430.833 311.5,430.5 Z"/></g>
<g><path style="opacity:0.643" fill="#6e6e6e" d="M 275.5,450.5 C 273.401,451.612 271.067,452.279 268.5,452.5C 270.279,450.656 272.612,449.99 275.5,450.5 Z"/></g>
</svg>
