<?xml version="1.0" encoding="UTF-8"?>
<!DOCTYPE svg PUBLIC "-//W3C//DTD SVG 1.1//EN" "http://www.w3.org/Graphics/SVG/1.1/DTD/svg11.dtd">
<svg xmlns="http://www.w3.org/2000/svg" version="1.1" width="512px" height="512px" style="shape-rendering:geometricPrecision; text-rendering:geometricPrecision; image-rendering:optimizeQuality; fill-rule:evenodd; clip-rule:evenodd" xmlns:xlink="http://www.w3.org/1999/xlink">
<g><path style="opacity:0.994" fill="#fcfcfc" d="M 224.5,-0.5 C 245.167,-0.5 265.833,-0.5 286.5,-0.5C 332.199,5.67601 373.533,22.5093 410.5,50C 413.124,51.9688 413.124,53.8022 410.5,55.5C 409.094,55.9731 408.427,56.9731 408.5,58.5C 408.5,59.1667 408.167,59.5 407.5,59.5C 406.094,59.9731 405.427,60.9731 405.5,62.5C 404.21,64.792 402.543,66.792 400.5,68.5C 399.094,68.9731 398.427,69.9731 398.5,71.5C 398.5,72.1667 398.167,72.5 397.5,72.5C 396.094,72.9731 395.427,73.9731 395.5,75.5C 394.21,77.792 392.543,79.792 390.5,81.5C 389.094,81.9731 388.427,82.9731 388.5,84.5C 388.5,85.1667 388.167,85.5 387.5,85.5C 386.094,85.9731 385.427,86.9731 385.5,88.5C 384.21,90.792 382.543,92.792 380.5,94.5C 379.094,94.9731 378.427,95.9731 378.5,97.5C 377.18,99.8171 375.514,101.817 373.5,103.5C 372.5,103.833 371.833,104.5 371.5,105.5C 371.672,106.492 371.338,107.158 370.5,107.5C 369.094,107.973 368.427,108.973 368.5,110.5C 367.18,112.817 365.514,114.817 363.5,116.5C 362.5,116.833 361.833,117.5 361.5,118.5C 361.672,119.492 361.338,120.158 360.5,120.5C 359.094,120.973 358.427,121.973 358.5,123.5C 356.837,126.329 354.67,128.662 352,130.5C 302.732,95.9876 249.899,89.4876 193.5,111C 185.738,114.881 178.071,118.714 170.5,122.5C 169.5,122.833 168.833,123.5 168.5,124.5C 168.167,124.5 167.833,124.5 167.5,124.5C 166.5,124.833 165.833,125.5 165.5,126.5C 164.341,128.25 162.674,129.25 160.5,129.5C 159.5,129.833 158.833,130.5 158.5,131.5C 158.027,132.906 157.027,133.573 155.5,133.5C 154.5,133.833 153.833,134.5 153.5,135.5C 150.93,137.614 148.597,139.947 146.5,142.5C 144.167,142.833 142.833,144.167 142.5,146.5C 139.947,148.597 137.614,150.93 135.5,153.5C 134.094,153.973 133.427,154.973 133.5,156.5C 132.833,157.167 132.167,157.833 131.5,158.5C 130.094,158.973 129.427,159.973 129.5,161.5C 128.853,163.141 127.853,164.474 126.5,165.5C 125.5,165.833 124.833,166.5 124.5,167.5C 124.5,167.833 124.5,168.167 124.5,168.5C 123.5,168.833 122.833,169.5 122.5,170.5C 90.3335,227.211 90.5001,283.877 123,340.5C 154.886,386.951 199.219,410.951 256,412.5C 277.346,412.47 297.846,408.304 317.5,400C 325.262,396.119 332.929,392.286 340.5,388.5C 341.5,388.167 342.167,387.5 342.5,386.5C 342.833,386.5 343.167,386.5 343.5,386.5C 344.5,386.167 345.167,385.5 345.5,384.5C 346.659,382.75 348.326,381.75 350.5,381.5C 351.5,381.167 352.167,380.5 352.5,379.5C 353.29,378.599 354.29,377.932 355.5,377.5C 356.833,376.833 357.833,375.833 358.5,374.5C 360.833,372.833 362.833,370.833 364.5,368.5C 366.833,368.167 368.167,366.833 368.5,364.5C 371.053,362.403 373.386,360.07 375.5,357.5C 376.906,357.027 377.573,356.027 377.5,354.5C 378.167,353.833 378.833,353.167 379.5,352.5C 380.5,352.167 381.167,351.5 381.5,350.5C 381.75,348.326 382.75,346.659 384.5,345.5C 385.5,345.167 386.167,344.5 386.5,343.5C 386.5,343.167 386.5,342.833 386.5,342.5C 387.5,342.167 388.167,341.5 388.5,340.5C 389.425,337.59 390.759,334.924 392.5,332.5C 393.906,332.027 394.573,331.027 394.5,329.5C 397.852,321.756 401.185,314.09 404.5,306.5C 405.043,306.44 405.376,306.107 405.5,305.5C 355.504,304.5 305.504,304.167 255.5,304.5C 255.5,271.833 255.5,239.167 255.5,206.5C 340.833,206.5 426.167,206.5 511.5,206.5C 511.5,233.167 511.5,259.833 511.5,286.5C 506.871,323.053 494.871,357.053 475.5,388.5C 474.5,388.833 473.833,389.5 473.5,390.5C 471.661,395.34 468.995,399.673 465.5,403.5C 464.5,403.833 463.833,404.5 463.5,405.5C 462.943,408.05 461.61,410.05 459.5,411.5C 458.094,411.973 457.427,412.973 457.5,414.5C 456.833,415.167 456.167,415.833 455.5,416.5C 454.094,416.973 453.427,417.973 453.5,419.5C 452.728,420.694 451.728,421.694 450.5,422.5C 448.738,423.262 447.738,424.596 447.5,426.5C 445.194,429.473 442.527,432.14 439.5,434.5C 437.5,435.833 435.833,437.5 434.5,439.5C 432.12,442.881 429.12,445.547 425.5,447.5C 424.167,448.167 423.167,449.167 422.5,450.5C 421.738,452.262 420.404,453.262 418.5,453.5C 417.5,453.833 416.833,454.5 416.5,455.5C 416.027,456.906 415.027,457.573 413.5,457.5C 412.5,457.833 411.833,458.5 411.5,459.5C 410.05,461.61 408.05,462.943 405.5,463.5C 404.5,463.833 403.833,464.5 403.5,465.5C 399.795,468.526 395.795,471.192 391.5,473.5C 389.973,473.427 388.973,474.094 388.5,475.5C 356.913,494.473 322.913,506.473 286.5,511.5C 265.833,511.5 245.167,511.5 224.5,511.5C 138.655,498.182 73.8216,454.182 30,379.5C 14.2853,350.191 4.11864,319.191 -0.5,286.5C -0.5,265.5 -0.5,244.5 -0.5,223.5C 3.74757,192.836 13.0809,163.836 27.5,136.5C 29.2503,135.341 30.2503,133.674 30.5,131.5C 31.6047,128.184 33.2713,125.184 35.5,122.5C 36.9063,122.027 37.573,121.027 37.5,119.5C 39.7819,115.223 42.4485,111.223 45.5,107.5C 46.5,107.167 47.1667,106.5 47.5,105.5C 48.0568,102.95 49.3901,100.95 51.5,99.5C 52.9063,99.0269 53.573,98.0269 53.5,96.5C 55.117,93.2157 57.4503,90.5491 60.5,88.5C 61.9063,88.0269 62.573,87.0269 62.5,85.5C 65.1395,82.1938 68.1395,79.1938 71.5,76.5C 73.8333,74.8333 75.8333,72.8333 77.5,70.5C 79.8605,67.4728 82.5271,64.8062 85.5,62.5C 87.0269,62.573 88.0269,61.9063 88.5,60.5C 90.8979,57.4405 93.8979,55.1071 97.5,53.5C 98.5,53.1667 99.1667,52.5 99.5,51.5C 101.223,49.7819 103.223,48.4486 105.5,47.5C 106.5,47.1667 107.167,46.5 107.5,45.5C 112.895,41.4425 118.562,37.7758 124.5,34.5C 126.027,34.573 127.027,33.9063 127.5,32.5C 128.833,31.8333 130.167,31.1667 131.5,30.5C 133.153,30.3404 134.486,29.6737 135.5,28.5C 163.419,13.4157 193.086,3.74903 224.5,-0.5 Z"/></g>
<g><path style="opacity:0.039" fill="#373737" d="M 135.5,28.5 C 134.486,29.6737 133.153,30.3404 131.5,30.5C 132.287,28.8958 133.62,28.2291 135.5,28.5 Z"/></g>
<g><path style="opacity:0.043" fill="#3c3c3c" d="M 127.5,32.5 C 127.027,33.9063 126.027,34.573 124.5,34.5C 124.973,33.0937 125.973,32.427 127.5,32.5 Z"/></g>
<g><path style="opacity:0.035" fill="#2d2d2d" d="M 107.5,45.5 C 107.167,46.5 106.5,47.1667 105.5,47.5C 105.5,46.1667 106.167,45.5 107.5,45.5 Z"/></g>
<g><path style="opacity:0.035" fill="#444444" d="M 99.5,51.5 C 99.1667,52.5 98.5,53.1667 97.5,53.5C 97.5,52.1667 98.1667,51.5 99.5,51.5 Z"/></g>
<g><path style="opacity:0.004" fill="#202020" d="M 410.5,55.5 C 410.573,57.0269 409.906,58.0269 408.5,58.5C 408.427,56.9731 409.094,55.9731 410.5,55.5 Z"/></g>
<g><path style="opacity:0.004" fill="#1b1b1b" d="M 407.5,59.5 C 407.573,61.0269 406.906,62.0269 405.5,62.5C 405.427,60.9731 406.094,59.9731 407.5,59.5 Z"/></g>
<g><path style="opacity:0.027" fill="#2d2d2d" d="M 88.5,60.5 C 88.0269,61.9063 87.0269,62.573 85.5,62.5C 85.9731,61.0937 86.9731,60.427 88.5,60.5 Z"/></g>
<g><path style="opacity:0.004" fill="#242424" d="M 400.5,68.5 C 400.573,70.0269 399.906,71.0269 398.5,71.5C 398.427,69.9731 399.094,68.9731 400.5,68.5 Z"/></g>
<g><path style="opacity:0.024" fill="#343434" d="M 77.5,70.5 C 75.8333,72.8333 73.8333,74.8333 71.5,76.5C 72.5,73.5 74.5,71.5 77.5,70.5 Z"/></g>
<g><path style="opacity:0.004" fill="#1b1b1b" d="M 397.5,72.5 C 397.573,74.0269 396.906,75.0269 395.5,75.5C 395.427,73.9731 396.094,72.9731 397.5,72.5 Z"/></g>
<g><path style="opacity:0.004" fill="#242424" d="M 390.5,81.5 C 390.573,83.0269 389.906,84.0269 388.5,84.5C 388.427,82.9731 389.094,81.9731 390.5,81.5 Z"/></g>
<g><path style="opacity:0.031" fill="#252525" d="M 62.5,85.5 C 62.573,87.0269 61.9063,88.0269 60.5,88.5C 60.427,86.9731 61.0937,85.9731 62.5,85.5 Z"/></g>
<g><path style="opacity:0.004" fill="#1b1b1b" d="M 387.5,85.5 C 387.573,87.0269 386.906,88.0269 385.5,88.5C 385.427,86.9731 386.094,85.9731 387.5,85.5 Z"/></g>
<g><path style="opacity:0.004" fill="#242424" d="M 380.5,94.5 C 380.573,96.0269 379.906,97.0269 378.5,97.5C 378.427,95.9731 379.094,94.9731 380.5,94.5 Z"/></g>
<g><path style="opacity:0.043" fill="#1d1d1d" d="M 53.5,96.5 C 53.573,98.0269 52.9063,99.0269 51.5,99.5C 51.427,97.9731 52.0937,96.9731 53.5,96.5 Z"/></g>
<g><path style="opacity:0.004" fill="#232323" d="M 373.5,103.5 C 373.5,104.833 372.833,105.5 371.5,105.5C 371.833,104.5 372.5,103.833 373.5,103.5 Z"/></g>
<g><path style="opacity:0.043" fill="#282828" d="M 47.5,105.5 C 47.1667,106.5 46.5,107.167 45.5,107.5C 45.5,106.167 46.1667,105.5 47.5,105.5 Z"/></g>
<g><path style="opacity:0.004" fill="#202020" d="M 370.5,107.5 C 370.573,109.027 369.906,110.027 368.5,110.5C 368.427,108.973 369.094,107.973 370.5,107.5 Z"/></g>
<g><path style="opacity:0.004" fill="#232323" d="M 363.5,116.5 C 363.5,117.833 362.833,118.5 361.5,118.5C 361.833,117.5 362.5,116.833 363.5,116.5 Z"/></g>
<g><path style="opacity:0.051" fill="#1c1c1c" d="M 37.5,119.5 C 37.573,121.027 36.9063,122.027 35.5,122.5C 35.427,120.973 36.0937,119.973 37.5,119.5 Z"/></g>
<g><path style="opacity:0.004" fill="#202020" d="M 360.5,120.5 C 360.573,122.027 359.906,123.027 358.5,123.5C 358.427,121.973 359.094,120.973 360.5,120.5 Z"/></g>
<g><path style="opacity:0.004" fill="#1f1f1f" d="M 170.5,122.5 C 170.5,123.833 169.833,124.5 168.5,124.5C 168.833,123.5 169.5,122.833 170.5,122.5 Z"/></g>
<g><path style="opacity:0.004" fill="#222222" d="M 167.5,124.5 C 167.5,125.833 166.833,126.5 165.5,126.5C 165.833,125.5 166.5,124.833 167.5,124.5 Z"/></g>
<g><path style="opacity:0.004" fill="#2c2c2c" d="M 160.5,129.5 C 160.5,130.833 159.833,131.5 158.5,131.5C 158.833,130.5 159.5,129.833 160.5,129.5 Z"/></g>
<g><path style="opacity:0.051" fill="#232323" d="M 30.5,131.5 C 30.2503,133.674 29.2503,135.341 27.5,136.5C 27.7497,134.326 28.7497,132.659 30.5,131.5 Z"/></g>
<g><path style="opacity:0.004" fill="#252525" d="M 155.5,133.5 C 155.5,134.833 154.833,135.5 153.5,135.5C 153.833,134.5 154.5,133.833 155.5,133.5 Z"/></g>
<g><path style="opacity:0.004" fill="#171717" d="M 146.5,142.5 C 145.5,144.167 144.167,145.5 142.5,146.5C 142.833,144.167 144.167,142.833 146.5,142.5 Z"/></g>
<g><path style="opacity:0.004" fill="#191919" d="M 135.5,153.5 C 135.573,155.027 134.906,156.027 133.5,156.5C 133.427,154.973 134.094,153.973 135.5,153.5 Z"/></g>
<g><path style="opacity:0.004" fill="#202020" d="M 131.5,158.5 C 131.573,160.027 130.906,161.027 129.5,161.5C 129.427,159.973 130.094,158.973 131.5,158.5 Z"/></g>
<g><path style="opacity:0.004" fill="#1e1e1e" d="M 126.5,165.5 C 126.5,166.833 125.833,167.5 124.5,167.5C 124.833,166.5 125.5,165.833 126.5,165.5 Z"/></g>
<g><path style="opacity:0.004" fill="#222222" d="M 124.5,168.5 C 124.5,169.833 123.833,170.5 122.5,170.5C 122.833,169.5 123.5,168.833 124.5,168.5 Z"/></g>
<g><path style="opacity:0.043" fill="#2e2e2e" d="M 511.5,205.5 C 511.5,205.833 511.5,206.167 511.5,206.5C 426.167,206.5 340.833,206.5 255.5,206.5C 255.5,239.167 255.5,271.833 255.5,304.5C 305.504,304.167 355.504,304.5 405.5,305.5C 405.376,306.107 405.043,306.44 404.5,306.5C 354.669,305.501 304.669,305.168 254.5,305.5C 254.5,272.167 254.5,238.833 254.5,205.5C 340.167,205.5 425.833,205.5 511.5,205.5 Z"/></g>
<g><path style="opacity:0.047" fill="#333333" d="M 394.5,329.5 C 394.573,331.027 393.906,332.027 392.5,332.5C 392.427,330.973 393.094,329.973 394.5,329.5 Z"/></g>
<g><path style="opacity:0.043" fill="#2d2d2d" d="M 388.5,340.5 C 388.167,341.5 387.5,342.167 386.5,342.5C 386.5,341.167 387.167,340.5 388.5,340.5 Z"/></g>
<g><path style="opacity:0.039" fill="#2f2f2f" d="M 386.5,343.5 C 386.167,344.5 385.5,345.167 384.5,345.5C 384.5,344.167 385.167,343.5 386.5,343.5 Z"/></g>
<g><path style="opacity:0.024" fill="#262626" d="M 381.5,350.5 C 381.167,351.5 380.5,352.167 379.5,352.5C 379.5,351.167 380.167,350.5 381.5,350.5 Z"/></g>
<g><path style="opacity:0.024" fill="#242424" d="M 377.5,354.5 C 377.573,356.027 376.906,357.027 375.5,357.5C 375.427,355.973 376.094,354.973 377.5,354.5 Z"/></g>
<g><path style="opacity:0.043" fill="#2b2b2b" d="M 368.5,364.5 C 368.167,366.833 366.833,368.167 364.5,368.5C 365.5,366.833 366.833,365.5 368.5,364.5 Z"/></g>
<g><path style="opacity:0.043" fill="#353535" d="M 358.5,374.5 C 357.833,375.833 356.833,376.833 355.5,377.5C 355.5,375.5 356.5,374.5 358.5,374.5 Z"/></g>
<g><path style="opacity:0.039" fill="#333333" d="M 352.5,379.5 C 352.167,380.5 351.5,381.167 350.5,381.5C 350.5,380.167 351.167,379.5 352.5,379.5 Z"/></g>
<g><path style="opacity:0.031" fill="#353535" d="M 345.5,384.5 C 345.167,385.5 344.5,386.167 343.5,386.5C 343.5,385.167 344.167,384.5 345.5,384.5 Z"/></g>
<g><path style="opacity:0.016" fill="#303030" d="M 342.5,386.5 C 342.167,387.5 341.5,388.167 340.5,388.5C 340.5,387.167 341.167,386.5 342.5,386.5 Z"/></g>
<g><path style="opacity:0.004" fill="#212121" d="M 475.5,388.5 C 475.5,389.833 474.833,390.5 473.5,390.5C 473.833,389.5 474.5,388.833 475.5,388.5 Z"/></g>
<g><path style="opacity:0.004" fill="#1e1e1e" d="M 465.5,403.5 C 465.5,404.833 464.833,405.5 463.5,405.5C 463.833,404.5 464.5,403.833 465.5,403.5 Z"/></g>
<g><path style="opacity:0.004" fill="#202020" d="M 459.5,411.5 C 459.573,413.027 458.906,414.027 457.5,414.5C 457.427,412.973 458.094,411.973 459.5,411.5 Z"/></g>
<g><path style="opacity:0.004" fill="#1d1d1d" d="M 455.5,416.5 C 455.573,418.027 454.906,419.027 453.5,419.5C 453.427,417.973 454.094,416.973 455.5,416.5 Z"/></g>
<g><path style="opacity:0.004" fill="#1a1a1a" d="M 450.5,422.5 C 450.262,424.404 449.262,425.738 447.5,426.5C 447.738,424.596 448.738,423.262 450.5,422.5 Z"/></g>
<g><path style="opacity:0.004" fill="#1f1f1f" d="M 439.5,434.5 C 438.833,437.167 437.167,438.833 434.5,439.5C 435.833,437.5 437.5,435.833 439.5,434.5 Z"/></g>
<g><path style="opacity:0.004" fill="#232323" d="M 425.5,447.5 C 425.5,449.5 424.5,450.5 422.5,450.5C 423.167,449.167 424.167,448.167 425.5,447.5 Z"/></g>
<g><path style="opacity:0.004" fill="#262626" d="M 418.5,453.5 C 418.5,454.833 417.833,455.5 416.5,455.5C 416.833,454.5 417.5,453.833 418.5,453.5 Z"/></g>
<g><path style="opacity:0.004" fill="#2e2e2e" d="M 413.5,457.5 C 413.5,458.833 412.833,459.5 411.5,459.5C 411.833,458.5 412.5,457.833 413.5,457.5 Z"/></g>
<g><path style="opacity:0.004" fill="#212121" d="M 405.5,463.5 C 405.5,464.833 404.833,465.5 403.5,465.5C 403.833,464.5 404.5,463.833 405.5,463.5 Z"/></g>
<g><path style="opacity:0.004" fill="#181818" d="M 391.5,473.5 C 391.027,474.906 390.027,475.573 388.5,475.5C 388.973,474.094 389.973,473.427 391.5,473.5 Z"/></g>
</svg>
