<?xml version="1.0" encoding="UTF-8"?>
<!DOCTYPE svg PUBLIC "-//W3C//DTD SVG 1.1//EN" "http://www.w3.org/Graphics/SVG/1.1/DTD/svg11.dtd">
<svg xmlns="http://www.w3.org/2000/svg" version="1.1" width="512px" height="512px" style="shape-rendering:geometricPrecision; text-rendering:geometricPrecision; image-rendering:optimizeQuality; fill-rule:evenodd; clip-rule:evenodd" xmlns:xlink="http://www.w3.org/1999/xlink">
<g><path style="opacity:0.998" fill="#4f4f4f" d="M 122.5,-0.5 C 211.167,-0.5 299.833,-0.5 388.5,-0.5C 448.451,9.60972 487.951,43.6097 507,101.5C 508.589,108.621 510.089,115.621 511.5,122.5C 511.5,211.167 511.5,299.833 511.5,388.5C 501.39,448.451 467.39,487.951 409.5,507C 402.379,508.589 395.379,510.089 388.5,511.5C 299.833,511.5 211.167,511.5 122.5,511.5C 62.5493,501.39 23.0493,467.39 4,409.5C 2.41113,402.379 0.911125,395.379 -0.5,388.5C -0.5,299.833 -0.5,211.167 -0.5,122.5C 9.60972,62.5493 43.6097,23.0493 101.5,4C 108.621,2.41113 115.621,0.911125 122.5,-0.5 Z"/></g>
<g><path style="opacity:1" fill="#fefefe" d="M 313.5,186.5 C 312.566,187.568 312.232,188.901 312.5,190.5C 324.5,190.5 336.5,190.5 348.5,190.5C 357.997,193.827 362.164,200.493 361,210.5C 359.141,216.36 355.307,220.193 349.5,222C 335.821,222.167 322.154,222.667 308.5,223.5C 305.419,245.149 302.419,266.816 299.5,288.5C 310.838,288.333 322.172,288.5 333.5,289C 342.934,292.699 346.434,299.532 344,309.5C 342.5,315 339,318.5 333.5,320C 320.591,320.177 307.758,320.677 295,321.5C 292.66,342.218 289.994,362.885 287,383.5C 281.429,395.135 272.929,397.968 261.5,392C 258.894,390.062 257.061,387.562 256,384.5C 255.333,379.833 255.333,375.167 256,370.5C 258.413,354.194 260.58,337.861 262.5,321.5C 240.673,320.503 218.673,320.169 196.5,320.5C 196.5,321.833 196.5,323.167 196.5,324.5C 193.837,343.802 191.337,363.136 189,382.5C 186.612,390.372 181.279,394.705 173,395.5C 159.614,392.418 154.614,384.084 158,370.5C 159.84,353.777 162.007,337.111 164.5,320.5C 151.829,320.667 139.162,320.5 126.5,320C 115.077,313.404 112.911,304.571 120,293.5C 122.258,291.57 124.758,290.07 127.5,289C 141.496,288.5 155.496,288.333 169.5,288.5C 171.51,266.416 174.177,244.416 177.5,222.5C 166.162,222.667 154.828,222.5 143.5,222C 132.088,215.756 129.588,206.923 136,195.5C 138.08,193.877 140.246,192.377 142.5,191C 155.742,190.824 168.908,190.324 182,189.5C 184.994,168.879 187.661,148.213 190,127.5C 195.591,115.858 204.091,113.025 215.5,119C 217.709,120.873 219.542,123.04 221,125.5C 221.667,130.5 221.667,135.5 221,140.5C 219.15,157.224 216.984,173.891 214.5,190.5C 236.5,190.5 258.5,190.5 280.5,190.5C 282.833,169.835 285.333,149.168 288,128.5C 292.855,117.154 301.022,113.654 312.5,118C 316.194,120.687 318.694,124.187 320,128.5C 318.168,147.83 316.001,167.163 313.5,186.5 Z"/></g>
<g><path style="opacity:1" fill="#6a6a6a" d="M 313.5,186.5 C 313.5,187.5 313.5,188.5 313.5,189.5C 325.345,189.172 337.012,189.505 348.5,190.5C 336.5,190.5 324.5,190.5 312.5,190.5C 312.232,188.901 312.566,187.568 313.5,186.5 Z"/></g>
<g><path style="opacity:1" fill="#4f4f4f" d="M 209.5,222.5 C 231.5,222.5 253.5,222.5 275.5,222.5C 272.759,244.501 270.093,266.501 267.5,288.5C 245.5,288.5 223.5,288.5 201.5,288.5C 204.81,266.589 207.476,244.589 209.5,222.5 Z"/></g>
<g><path style="opacity:1" fill="#696969" d="M 262.5,321.5 C 240.833,321.5 219.167,321.5 197.5,321.5C 197.737,322.791 197.404,323.791 196.5,324.5C 196.5,323.167 196.5,321.833 196.5,320.5C 218.673,320.169 240.673,320.503 262.5,321.5 Z"/></g>
</svg>
