<?xml version="1.0" encoding="UTF-8"?>
<!DOCTYPE svg PUBLIC "-//W3C//DTD SVG 1.1//EN" "http://www.w3.org/Graphics/SVG/1.1/DTD/svg11.dtd">
<svg xmlns="http://www.w3.org/2000/svg" version="1.1" width="512px" height="512px" style="shape-rendering:geometricPrecision; text-rendering:geometricPrecision; image-rendering:optimizeQuality; fill-rule:evenodd; clip-rule:evenodd" xmlns:xlink="http://www.w3.org/1999/xlink">
<g><path style="opacity:0.996" fill="#fdfdfd" d="M 242.5,-0.5 C 251.167,-0.5 259.833,-0.5 268.5,-0.5C 276.073,2.54482 283.073,6.71148 289.5,12C 359.333,81.8333 429.167,151.667 499,221.5C 504.289,227.927 508.455,234.927 511.5,242.5C 511.5,251.167 511.5,259.833 511.5,268.5C 509.627,273.913 506.96,278.913 503.5,283.5C 502.094,283.973 501.427,284.973 501.5,286.5C 499.807,289.19 497.473,291.19 494.5,292.5C 493.5,292.833 492.833,293.5 492.5,294.5C 491.205,295.488 489.872,296.488 488.5,297.5C 487.673,296.561 487.006,296.895 486.5,298.5C 482.634,300.29 478.634,301.79 474.5,303C 468.659,303.047 462.992,303.714 457.5,305C 458.664,355.763 458.83,406.596 458,457.5C 457.75,469.087 454.25,479.42 447.5,488.5C 446.094,488.973 445.427,489.973 445.5,491.5C 442.152,495.847 438.152,499.514 433.5,502.5C 431.973,502.427 430.973,503.094 430.5,504.5C 425.717,507.421 420.717,509.755 415.5,511.5C 381.167,511.5 346.833,511.5 312.5,511.5C 308.386,508.879 305.553,505.212 304,500.5C 303.667,457.5 303.333,414.5 303,371.5C 300.918,361.752 295.084,355.585 285.5,353C 265.5,352.333 245.5,352.333 225.5,353C 222.324,353.889 219.324,355.055 216.5,356.5C 214.413,357.585 213.08,359.251 212.5,361.5C 210.352,364.403 208.852,367.736 208,371.5C 207.667,414.5 207.333,457.5 207,500.5C 206.576,503.025 205.41,505.025 203.5,506.5C 202.167,507.167 201.167,508.167 200.5,509.5C 200.5,510.167 200.167,510.5 199.5,510.5C 199.565,510.062 199.399,509.728 199,509.5C 198.005,510.066 197.172,510.733 196.5,511.5C 162.833,511.5 129.167,511.5 95.5,511.5C 73.2377,504.4 59.4044,489.4 54,466.5C 52.5391,412.19 52.0391,357.857 52.5,303.5C 26.2402,304.554 8.57357,292.887 -0.5,268.5C -0.5,259.5 -0.5,250.5 -0.5,241.5C 1.64696,236.54 4.31363,231.873 7.5,227.5C 8.90632,227.027 9.57298,226.027 9.5,224.5C 80.8341,152.166 152.834,80.4992 225.5,9.5C 226.5,9.16667 227.167,8.5 227.5,7.5C 228.29,6.59872 229.29,5.93205 230.5,5.5C 232.153,5.3404 233.486,4.67373 234.5,3.5C 237.079,1.97475 239.746,0.641417 242.5,-0.5 Z"/></g>
<g><path style="opacity:0.039" fill="#262626" d="M 234.5,3.5 C 233.486,4.67373 232.153,5.3404 230.5,5.5C 231.287,3.89578 232.62,3.22911 234.5,3.5 Z"/></g>
<g><path style="opacity:0.039" fill="#333333" d="M 227.5,7.5 C 227.167,8.5 226.5,9.16667 225.5,9.5C 225.5,8.16667 226.167,7.5 227.5,7.5 Z"/></g>
<g><path style="opacity:0.047" fill="#252525" d="M 9.5,224.5 C 9.57298,226.027 8.90632,227.027 7.5,227.5C 7.42702,225.973 8.09368,224.973 9.5,224.5 Z"/></g>
<g><path style="opacity:0.004" fill="#1a1a1a" d="M 503.5,283.5 C 503.573,285.027 502.906,286.027 501.5,286.5C 501.427,284.973 502.094,283.973 503.5,283.5 Z"/></g>
<g><path style="opacity:0.004" fill="#1e1e1e" d="M 494.5,292.5 C 494.5,293.833 493.833,294.5 492.5,294.5C 492.833,293.5 493.5,292.833 494.5,292.5 Z"/></g>
<g><path style="opacity:0.004" fill="#1e1e1e" d="M 488.5,297.5 C 488.158,298.338 487.492,298.672 486.5,298.5C 487.006,296.895 487.673,296.561 488.5,297.5 Z"/></g>
<g><path style="opacity:0.004" fill="#1c1c1c" d="M 216.5,356.5 C 215.92,358.749 214.587,360.415 212.5,361.5C 213.08,359.251 214.413,357.585 216.5,356.5 Z"/></g>
<g><path style="opacity:0.004" fill="#1e1e1e" d="M 447.5,488.5 C 447.573,490.027 446.906,491.027 445.5,491.5C 445.427,489.973 446.094,488.973 447.5,488.5 Z"/></g>
<g><path style="opacity:0.004" fill="#171717" d="M 433.5,502.5 C 433.027,503.906 432.027,504.573 430.5,504.5C 430.973,503.094 431.973,502.427 433.5,502.5 Z"/></g>
<g><path style="opacity:0.004" fill="#202020" d="M 203.5,506.5 C 203.5,508.5 202.5,509.5 200.5,509.5C 201.167,508.167 202.167,507.167 203.5,506.5 Z"/></g>
<g><path style="opacity:0.004" fill="#242424" d="M 199.5,510.5 C 199.5,510.833 199.5,511.167 199.5,511.5C 198.5,511.5 197.5,511.5 196.5,511.5C 197.172,510.733 198.005,510.066 199,509.5C 199.399,509.728 199.565,510.062 199.5,510.5 Z"/></g>
</svg>
