<?xml version="1.0" encoding="UTF-8"?>
<!DOCTYPE svg PUBLIC "-//W3C//DTD SVG 1.1//EN" "http://www.w3.org/Graphics/SVG/1.1/DTD/svg11.dtd">
<svg xmlns="http://www.w3.org/2000/svg" version="1.1" width="512px" height="512px" style="shape-rendering:geometricPrecision; text-rendering:geometricPrecision; image-rendering:optimizeQuality; fill-rule:evenodd; clip-rule:evenodd" xmlns:xlink="http://www.w3.org/1999/xlink">
<g><path style="opacity:0.724" fill="#5b5b5b" d="M 471.5,63.5 C 326.001,64.4996 180.334,64.8329 34.5,64.5C 35.9516,63.6981 37.6183,63.1981 39.5,63C 183.667,62.1672 327.667,62.3339 471.5,63.5 Z"/></g>
<g><path style="opacity:1" fill="#a3a3a3" d="M 471.5,63.5 C 491.259,67.2578 504.592,78.5912 511.5,97.5C 511.5,106.5 511.5,115.5 511.5,124.5C 509.769,128.295 507.769,131.962 505.5,135.5C 504.5,135.833 503.833,136.5 503.5,137.5C 503.672,138.492 503.338,139.158 502.5,139.5C 499.833,141.5 497.5,143.833 495.5,146.5C 424.548,194.65 353.215,242.316 281.5,289.5C 279.973,289.427 278.973,290.094 278.5,291.5C 263.167,299.5 247.833,299.5 232.5,291.5C 232.719,290.325 232.386,289.325 231.5,288.5C 229.184,286.506 226.518,285.506 223.5,285.5C 154.328,239.748 85.328,193.748 16.5,147.5C 15.8856,142.219 12.8856,139.219 7.5,138.5C 4.02378,133.878 1.35711,128.878 -0.5,123.5C -0.5,114.833 -0.5,106.167 -0.5,97.5C 0.641417,94.7458 1.97475,92.0791 3.5,89.5C 6.3357,89.1627 7.00237,87.8293 5.5,85.5C 7.04814,85.1788 7.71481,84.1788 7.5,82.5C 8.16667,81.8333 8.83333,81.1667 9.5,80.5C 11.2624,79.7377 12.2624,78.4044 12.5,76.5C 14.4044,76.2624 15.7377,75.2624 16.5,73.5C 21.6029,68.9484 27.6029,65.9484 34.5,64.5C 180.334,64.8329 326.001,64.4996 471.5,63.5 Z"/></g>
<g><path style="opacity:0.039" fill="#151515" d="M 16.5,73.5 C 15.7377,75.2624 14.4044,76.2624 12.5,76.5C 13.2623,74.7376 14.5956,73.7376 16.5,73.5 Z"/></g>
<g><path style="opacity:0.035" fill="#161616" d="M 12.5,76.5 C 12.2624,78.4044 11.2624,79.7377 9.5,80.5C 9.73758,78.5956 10.7376,77.2623 12.5,76.5 Z"/></g>
<g><path style="opacity:0.239" fill="#444444" d="M 7.5,82.5 C 7.71481,84.1788 7.04814,85.1788 5.5,85.5C 5.93205,84.2905 6.59872,83.2905 7.5,82.5 Z"/></g>
<g><path style="opacity:0.902" fill="#626262" d="M 5.5,85.5 C 7.00237,87.8293 6.3357,89.1627 3.5,89.5C 3.6596,87.847 4.32627,86.5137 5.5,85.5 Z"/></g>
<g><path style="opacity:0.01" fill="#070707" d="M 505.5,135.5 C 505.5,136.833 504.833,137.5 503.5,137.5C 503.833,136.5 504.5,135.833 505.5,135.5 Z"/></g>
<g><path style="opacity:0.973" fill="#727272" d="M 7.5,138.5 C 12.8856,139.219 15.8856,142.219 16.5,147.5C 13.1667,144.833 10.1667,141.833 7.5,138.5 Z"/></g>
<g><path style="opacity:0.004" fill="#0e0e0e" d="M 502.5,139.5 C 501.167,142.833 498.833,145.167 495.5,146.5C 497.5,143.833 499.833,141.5 502.5,139.5 Z"/></g>
<g><path style="opacity:1" fill="#a3a3a3" d="M -0.5,169.5 C 71.966,218.238 144.633,266.738 217.5,315C 234.512,323.968 252.512,326.802 271.5,323.5C 274.388,324.01 276.721,323.344 278.5,321.5C 285.943,318.918 292.943,315.584 299.5,311.5C 300.251,312.573 301.251,312.74 302.5,312C 335.328,289.752 368.328,267.752 401.5,246C 402.582,244.67 403.249,243.17 403.5,241.5C 403.833,241.5 404.167,241.5 404.5,241.5C 405.251,242.573 406.251,242.74 407.5,242C 442.405,218.724 477.072,195.224 511.5,171.5C 511.5,252.167 511.5,332.833 511.5,413.5C 509.541,419.417 506.541,424.75 502.5,429.5C 500.413,430.585 499.08,432.251 498.5,434.5C 496.596,434.738 495.262,435.738 494.5,437.5C 493.738,439.262 492.404,440.262 490.5,440.5C 488.973,440.427 487.973,441.094 487.5,442.5C 484.133,444.623 480.466,445.956 476.5,446.5C 329.056,446.492 181.723,446.492 34.5,446.5C 17.3313,441.331 5.6646,430.331 -0.5,413.5C -0.5,332.167 -0.5,250.833 -0.5,169.5 Z"/></g>
<g><path style="opacity:0.905" fill="#8b8b8b" d="M 511.5,169.5 C 511.5,170.167 511.5,170.833 511.5,171.5C 477.072,195.224 442.405,218.724 407.5,242C 406.251,242.74 405.251,242.573 404.5,241.5C 439.957,217.265 475.624,193.265 511.5,169.5 Z"/></g>
<g><path style="opacity:0.905" fill="#8b8b8b" d="M 403.5,241.5 C 403.249,243.17 402.582,244.67 401.5,246C 368.328,267.752 335.328,289.752 302.5,312C 301.251,312.74 300.251,312.573 299.5,311.5C 333.871,287.808 368.537,264.475 403.5,241.5 Z"/></g>
<g><path style="opacity:0.498" fill="#727272" d="M 223.5,285.5 C 226.518,285.506 229.184,286.506 231.5,288.5C 232.386,289.325 232.719,290.325 232.5,291.5C 229.291,289.735 226.291,287.735 223.5,285.5 Z"/></g>
<g><path style="opacity:0.004" fill="#151515" d="M 281.5,289.5 C 281.027,290.906 280.027,291.573 278.5,291.5C 278.973,290.094 279.973,289.427 281.5,289.5 Z"/></g>
<g><path style="opacity:0.42" fill="#4b4b4b" d="M 278.5,321.5 C 276.721,323.344 274.388,324.01 271.5,323.5C 273.599,322.388 275.933,321.721 278.5,321.5 Z"/></g>
<g><path style="opacity:0.004" fill="#0a0a0a" d="M 502.5,429.5 C 501.92,431.749 500.587,433.415 498.5,434.5C 499.08,432.251 500.413,430.585 502.5,429.5 Z"/></g>
<g><path style="opacity:0.004" fill="#0e0e0e" d="M 498.5,434.5 C 497.738,436.262 496.404,437.262 494.5,437.5C 495.262,435.738 496.596,434.738 498.5,434.5 Z"/></g>
<g><path style="opacity:0.004" fill="#151515" d="M 490.5,440.5 C 490.027,441.906 489.027,442.573 487.5,442.5C 487.973,441.094 488.973,440.427 490.5,440.5 Z"/></g>
<g><path style="opacity:0.724" fill="#5a5a5a" d="M 476.5,446.5 C 475.048,447.302 473.382,447.802 471.5,448C 327.5,448.667 183.5,448.667 39.5,448C 37.6183,447.802 35.9516,447.302 34.5,446.5C 181.723,446.492 329.056,446.492 476.5,446.5 Z"/></g>
</svg>
