<?xml version="1.0" encoding="UTF-8"?>
<!DOCTYPE svg PUBLIC "-//W3C//DTD SVG 1.1//EN" "http://www.w3.org/Graphics/SVG/1.1/DTD/svg11.dtd">
<svg xmlns="http://www.w3.org/2000/svg" version="1.1" width="512px" height="512px" style="shape-rendering:geometricPrecision; text-rendering:geometricPrecision; image-rendering:optimizeQuality; fill-rule:evenodd; clip-rule:evenodd" xmlns:xlink="http://www.w3.org/1999/xlink">
<g><path style="opacity:0.984" fill="#f6f6f6" d="M 450.5,375.5 C 449.094,375.973 448.427,376.973 448.5,378.5C 447.241,382.025 445.241,385.025 442.5,387.5C 441.094,387.973 440.427,388.973 440.5,390.5C 440.5,391.167 440.167,391.5 439.5,391.5C 438.5,391.833 437.833,392.5 437.5,393.5C 437.443,394.609 437.11,395.609 436.5,396.5C 435.167,396.5 434.5,397.167 434.5,398.5C 433.833,399.167 433.167,399.833 432.5,400.5C 430.738,401.262 429.738,402.596 429.5,404.5C 428.527,406.139 427.194,407.473 425.5,408.5C 423.413,409.585 422.08,411.251 421.5,413.5C 418.5,415.833 415.833,418.5 413.5,421.5C 411.251,422.08 409.585,423.413 408.5,425.5C 407.027,427.395 405.36,429.061 403.5,430.5C 401.973,430.427 400.973,431.094 400.5,432.5C 399.71,433.401 398.71,434.068 397.5,434.5C 396.5,434.833 395.833,435.5 395.5,436.5C 395.158,437.338 394.492,437.672 393.5,437.5C 392.5,437.833 391.833,438.5 391.5,439.5C 391.158,440.338 390.492,440.672 389.5,440.5C 388.5,440.833 387.833,441.5 387.5,442.5C 384.709,444.735 381.709,446.735 378.5,448.5C 376.973,448.427 375.973,449.094 375.5,450.5C 372.634,452.432 369.634,454.099 366.5,455.5C 364.973,455.427 363.973,456.094 363.5,457.5C 298.506,490.315 232.173,493.149 164.5,466C 76.6133,423.559 30.6133,353.392 26.5,255.5C 26.4296,217.115 35.4296,181.115 53.5,147.5C 54.9063,147.027 55.573,146.027 55.5,144.5C 56.6107,141.144 58.2774,138.144 60.5,135.5C 61.9063,135.027 62.573,134.027 62.5,132.5C 63.1103,130.566 64.1103,128.899 65.5,127.5C 67.0481,127.179 67.7148,126.179 67.5,124.5C 67.5,123.833 67.8333,123.5 68.5,123.5C 69.9063,123.027 70.573,122.027 70.5,120.5C 71.4839,118.52 72.8173,116.853 74.5,115.5C 75.9063,115.027 76.573,114.027 76.5,112.5C 77.1667,111.833 77.8333,111.167 78.5,110.5C 79.9063,110.027 80.573,109.027 80.5,107.5C 81.8333,106.167 83.1667,104.833 84.5,103.5C 86.914,102.089 88.5806,100.089 89.5,97.5C 92.5,95.1667 95.1667,92.5 97.5,89.5C 100.089,88.5806 102.089,86.914 103.5,84.5C 104.833,83.1667 106.167,81.8333 107.5,80.5C 109.027,80.573 110.027,79.9063 110.5,78.5C 111.29,77.5987 112.29,76.9321 113.5,76.5C 114.5,76.1667 115.167,75.5 115.5,74.5C 115.842,73.6618 116.508,73.3284 117.5,73.5C 118.5,73.1667 119.167,72.5 119.5,71.5C 123.535,68.1427 127.868,65.1427 132.5,62.5C 134.027,62.573 135.027,61.9063 135.5,60.5C 203.2,20.9392 273.534,15.7725 346.5,45C 434.617,87.5176 480.617,157.851 484.5,256C 484.551,299.314 473.218,339.148 450.5,375.5 Z M 191.5,142.5 C 190.791,141.596 189.791,141.263 188.5,141.5C 188.5,140.5 188.5,139.5 188.5,138.5C 193.428,123.322 199.428,108.656 206.5,94.5C 207.906,94.0269 208.573,93.0269 208.5,91.5C 211.014,88.4704 213.014,85.137 214.5,81.5C 215.833,81.5 216.5,80.8333 216.5,79.5C 217.167,78.8333 217.833,78.1667 218.5,77.5C 219.906,77.0269 220.573,76.0269 220.5,74.5C 243.736,47.8421 267.236,47.8421 291,74.5C 305.424,94.85 316.258,117.017 323.5,141C 315.577,142.235 307.577,142.902 299.5,143C 263.495,143.672 227.495,143.506 191.5,142.5 Z M 190.5,69.5 C 189.167,69.5 188.5,70.1667 188.5,71.5C 185.331,75.833 182.664,80.4997 180.5,85.5C 179.094,85.9731 178.427,86.9731 178.5,88.5C 169.697,104.465 163.364,121.465 159.5,139.5C 138.353,138.132 117.353,135.632 96.5,132C 98.3734,130.296 100.04,128.463 101.5,126.5C 102.906,126.027 103.573,125.027 103.5,123.5C 105.614,120.93 107.947,118.597 110.5,116.5C 112.833,114.833 114.833,112.833 116.5,110.5C 118.597,107.947 120.93,105.614 123.5,103.5C 125.027,103.573 126.027,102.906 126.5,101.5C 127.694,100.728 128.694,99.7281 129.5,98.5C 130.833,98.5 131.5,97.8333 131.5,96.5C 132.492,96.6716 133.158,96.3382 133.5,95.5C 134.833,95.5 135.5,94.8333 135.5,93.5C 136.492,93.6716 137.158,93.3382 137.5,92.5C 138.833,92.5 139.5,91.8333 139.5,90.5C 141.969,89.4314 144.302,88.0981 146.5,86.5C 148.027,86.573 149.027,85.9063 149.5,84.5C 163.082,76.6263 177.248,69.9596 192,64.5C 191.513,66.0438 191.013,67.7105 190.5,69.5 Z M 319.5,65.5 C 357.907,78.0796 389.574,100.246 414.5,132C 393.646,135.632 372.646,138.132 351.5,139.5C 344.894,112.996 334.228,88.3293 319.5,65.5 Z M 146.5,166.5 C 148.5,167.167 150.5,167.833 152.5,168.5C 148.378,186.811 146.044,205.477 145.5,224.5C 144.511,229.975 144.178,235.642 144.5,241.5C 114.833,241.5 85.1667,241.5 55.5,241.5C 55.5,238.833 55.5,236.167 55.5,233.5C 58.9492,207.204 66.9492,182.371 79.5,159C 101.675,162.229 124.008,164.729 146.5,166.5 Z M 455.5,233.5 C 455.5,236.167 455.5,238.833 455.5,241.5C 425.833,241.5 396.167,241.5 366.5,241.5C 366.822,235.642 366.489,229.975 365.5,224.5C 364.803,205.589 362.469,186.922 358.5,168.5C 359.919,167.549 361.585,167.216 363.5,167.5C 386.228,164.895 408.895,162.062 431.5,159C 444.421,182.263 452.421,207.096 455.5,233.5 Z M 338.5,235.5 C 338.5,237.5 338.5,239.5 338.5,241.5C 283.167,241.5 227.833,241.5 172.5,241.5C 172.5,239.167 172.5,236.833 172.5,234.5C 174.098,212.717 176.764,191.051 180.5,169.5C 230.5,173.484 280.5,173.484 330.5,169.5C 334.41,191.353 337.076,213.353 338.5,235.5 Z M 145.5,286.5 C 146.197,305.411 148.531,324.078 152.5,342.5C 150.5,343.167 148.5,343.833 146.5,344.5C 124.009,346.271 101.675,348.771 79.5,352C 66.5789,328.737 58.5789,303.904 55.5,277.5C 55.5,274.833 55.5,272.167 55.5,269.5C 85.1667,269.5 114.833,269.5 144.5,269.5C 144.178,275.358 144.511,281.025 145.5,286.5 Z M 338.5,276.5 C 336.902,298.283 334.235,319.95 330.5,341.5C 280.5,337.5 230.5,337.5 180.5,341.5C 176.663,319.962 173.996,298.296 172.5,276.5C 172.5,274.167 172.5,271.833 172.5,269.5C 227.833,269.5 283.167,269.5 338.5,269.5C 338.5,271.833 338.5,274.167 338.5,276.5 Z M 455.5,277.5 C 452.001,302.664 444.668,326.664 433.5,349.5C 432.094,349.973 431.427,350.973 431.5,352.5C 409.314,348.712 386.98,346.045 364.5,344.5C 362.5,343.833 360.5,343.167 358.5,342.5C 362.622,324.189 364.956,305.523 365.5,286.5C 366.489,281.025 366.822,275.358 366.5,269.5C 396.167,269.5 425.833,269.5 455.5,269.5C 455.5,272.167 455.5,274.833 455.5,277.5 Z M 319.5,368.5 C 320.209,369.404 321.209,369.737 322.5,369.5C 322.5,370.5 322.5,371.5 322.5,372.5C 317.47,387.598 311.47,402.265 304.5,416.5C 303.094,416.973 302.427,417.973 302.5,419.5C 301.833,420.5 301.167,421.5 300.5,422.5C 299.599,423.29 298.932,424.29 298.5,425.5C 297.326,426.514 296.66,427.847 296.5,429.5C 295.167,429.5 294.5,430.167 294.5,431.5C 293.833,432.167 293.167,432.833 292.5,433.5C 291.094,433.973 290.427,434.973 290.5,436.5C 267.233,463.097 243.733,463.097 220,436.5C 206.285,417.071 195.785,396.071 188.5,373.5C 188.67,372.178 188.337,371.011 187.5,370C 188.094,369.536 188.761,369.369 189.5,369.5C 232.753,367.183 276.086,366.85 319.5,368.5 Z M 191.5,445.5 C 153.093,432.92 121.426,410.754 96.5,379C 117.353,375.368 138.353,372.868 159.5,371.5C 166.106,398.004 176.772,422.671 191.5,445.5 Z M 409.5,384.5 C 408.094,384.973 407.427,385.973 407.5,387.5C 405.386,390.07 403.053,392.403 400.5,394.5C 398.167,396.167 396.167,398.167 394.5,400.5C 392.403,403.053 390.07,405.386 387.5,407.5C 385.973,407.427 384.973,408.094 384.5,409.5C 383.306,410.272 382.306,411.272 381.5,412.5C 380.167,412.5 379.5,413.167 379.5,414.5C 378.508,414.328 377.842,414.662 377.5,415.5C 376.167,415.5 375.5,416.167 375.5,417.5C 374.508,417.328 373.842,417.662 373.5,418.5C 372.167,418.5 371.5,419.167 371.5,420.5C 369.031,421.569 366.698,422.902 364.5,424.5C 362.973,424.427 361.973,425.094 361.5,426.5C 348.237,434.465 334.237,440.798 319.5,445.5C 320.234,444.292 320.567,442.959 320.5,441.5C 321.833,441.5 322.5,440.833 322.5,439.5C 336.419,418.774 346.085,396.107 351.5,371.5C 372.646,372.868 393.646,375.368 414.5,379C 412.627,380.704 410.96,382.537 409.5,384.5 Z"/></g>
<g><path style="opacity:0.039" fill="#232323" d="M 135.5,60.5 C 135.027,61.9063 134.027,62.573 132.5,62.5C 132.973,61.0937 133.973,60.427 135.5,60.5 Z"/></g>
<g><path style="opacity:0.035" fill="#424242" d="M 318.5,65.5 C 317.711,65.2172 317.044,64.7172 316.5,64C 317.816,63.4719 318.483,63.9719 318.5,65.5 Z"/></g>
<g><path style="opacity:0.02" fill="#292929" d="M 190.5,69.5 C 190.167,70.5 189.5,71.1667 188.5,71.5C 188.5,70.1667 189.167,69.5 190.5,69.5 Z"/></g>
<g><path style="opacity:0.043" fill="#3c3c3c" d="M 119.5,71.5 C 119.167,72.5 118.5,73.1667 117.5,73.5C 117.5,72.1667 118.167,71.5 119.5,71.5 Z"/></g>
<g><path style="opacity:0.035" fill="#363636" d="M 115.5,74.5 C 115.167,75.5 114.5,76.1667 113.5,76.5C 113.5,75.1667 114.167,74.5 115.5,74.5 Z"/></g>
<g><path style="opacity:0.004" fill="#1f1f1f" d="M 220.5,74.5 C 220.573,76.0269 219.906,77.0269 218.5,77.5C 218.427,75.9731 219.094,74.9731 220.5,74.5 Z"/></g>
<g><path style="opacity:0.031" fill="#2c2c2c" d="M 110.5,78.5 C 110.027,79.9063 109.027,80.573 107.5,80.5C 107.973,79.0937 108.973,78.427 110.5,78.5 Z"/></g>
<g><path style="opacity:0.004" fill="#282828" d="M 216.5,79.5 C 216.5,80.8333 215.833,81.5 214.5,81.5C 214.833,80.5 215.5,79.8333 216.5,79.5 Z"/></g>
<g><path style="opacity:0.004" fill="#181818" d="M 149.5,84.5 C 149.027,85.9063 148.027,86.573 146.5,86.5C 146.973,85.0937 147.973,84.427 149.5,84.5 Z"/></g>
<g><path style="opacity:0.027" fill="#2f2f2f" d="M 103.5,84.5 C 102.089,86.914 100.089,88.5806 97.5,89.5C 98.9108,87.086 100.911,85.4194 103.5,84.5 Z"/></g>
<g><path style="opacity:0.051" fill="#313131" d="M 180.5,85.5 C 180.573,87.0269 179.906,88.0269 178.5,88.5C 178.427,86.9731 179.094,85.9731 180.5,85.5 Z"/></g>
<g><path style="opacity:0.004" fill="#262626" d="M 139.5,90.5 C 139.5,91.8333 138.833,92.5 137.5,92.5C 137.833,91.5 138.5,90.8333 139.5,90.5 Z"/></g>
<g><path style="opacity:0.004" fill="#1c1c1c" d="M 208.5,91.5 C 208.573,93.0269 207.906,94.0269 206.5,94.5C 206.427,92.9731 207.094,91.9731 208.5,91.5 Z"/></g>
<g><path style="opacity:0.004" fill="#222222" d="M 135.5,93.5 C 135.5,94.8333 134.833,95.5 133.5,95.5C 133.833,94.5 134.5,93.8333 135.5,93.5 Z"/></g>
<g><path style="opacity:0.004" fill="#2c2c2c" d="M 131.5,96.5 C 131.5,97.8333 130.833,98.5 129.5,98.5C 129.833,97.5 130.5,96.8333 131.5,96.5 Z"/></g>
<g><path style="opacity:0.024" fill="#242424" d="M 89.5,97.5 C 88.5806,100.089 86.914,102.089 84.5,103.5C 85.4194,100.911 87.086,98.9108 89.5,97.5 Z"/></g>
<g><path style="opacity:0.004" fill="#202020" d="M 126.5,101.5 C 126.027,102.906 125.027,103.573 123.5,103.5C 123.973,102.094 124.973,101.427 126.5,101.5 Z"/></g>
<g><path style="opacity:0.031" fill="#282828" d="M 80.5,107.5 C 80.573,109.027 79.9063,110.027 78.5,110.5C 78.427,108.973 79.0937,107.973 80.5,107.5 Z"/></g>
<g><path style="opacity:0.004" fill="#131313" d="M 116.5,110.5 C 114.833,112.833 112.833,114.833 110.5,116.5C 111.5,113.5 113.5,111.5 116.5,110.5 Z"/></g>
<g><path style="opacity:0.039" fill="#212121" d="M 76.5,112.5 C 76.573,114.027 75.9063,115.027 74.5,115.5C 74.427,113.973 75.0937,112.973 76.5,112.5 Z"/></g>
<g><path style="opacity:0.043" fill="#212121" d="M 70.5,120.5 C 70.573,122.027 69.9063,123.027 68.5,123.5C 68.427,121.973 69.0937,120.973 70.5,120.5 Z"/></g>
<g><path style="opacity:0.004" fill="#1d1d1d" d="M 103.5,123.5 C 103.573,125.027 102.906,126.027 101.5,126.5C 101.427,124.973 102.094,123.973 103.5,123.5 Z"/></g>
<g><path style="opacity:0.18" fill="#707070" d="M 67.5,124.5 C 67.7148,126.179 67.0481,127.179 65.5,127.5C 65.9321,126.29 66.5987,125.29 67.5,124.5 Z"/></g>
<g><path style="opacity:0.051" fill="#262626" d="M 62.5,132.5 C 62.573,134.027 61.9063,135.027 60.5,135.5C 60.427,133.973 61.0937,132.973 62.5,132.5 Z"/></g>
<g><path style="opacity:0.008" fill="#4f4f4f" d="M 188.5,138.5 C 188.5,139.5 188.5,140.5 188.5,141.5C 189.791,141.263 190.791,141.596 191.5,142.5C 186.357,143.376 185.357,142.043 188.5,138.5 Z"/></g>
<g><path style="opacity:0.055" fill="#242424" d="M 55.5,144.5 C 55.573,146.027 54.9063,147.027 53.5,147.5C 53.427,145.973 54.0937,144.973 55.5,144.5 Z"/></g>
<g><path style="opacity:0.031" fill="#2c2c2c" d="M 146.5,166.5 C 148.924,166.192 151.257,166.526 153.5,167.5C 153.376,168.107 153.043,168.44 152.5,168.5C 150.5,167.833 148.5,167.167 146.5,166.5 Z"/></g>
<g><path style="opacity:0.059" fill="#393939" d="M 363.5,167.5 C 361.585,167.216 359.919,167.549 358.5,168.5C 357.957,168.44 357.624,168.107 357.5,167.5C 359.636,166.207 361.636,166.207 363.5,167.5 Z"/></g>
<g><path style="opacity:0.051" fill="#292929" d="M 145.5,224.5 C 145.5,230.5 145.5,236.5 145.5,242.5C 115.167,242.5 84.8333,242.5 54.5,242.5C 54.19,239.287 54.5233,236.287 55.5,233.5C 55.5,236.167 55.5,238.833 55.5,241.5C 85.1667,241.5 114.833,241.5 144.5,241.5C 144.178,235.642 144.511,229.975 145.5,224.5 Z"/></g>
<g><path style="opacity:0.051" fill="#272727" d="M 172.5,234.5 C 172.5,236.833 172.5,239.167 172.5,241.5C 227.833,241.5 283.167,241.5 338.5,241.5C 338.5,239.5 338.5,237.5 338.5,235.5C 339.468,237.607 339.802,239.941 339.5,242.5C 283.5,242.5 227.5,242.5 171.5,242.5C 171.194,239.615 171.527,236.948 172.5,234.5 Z"/></g>
<g><path style="opacity:0.051" fill="#282828" d="M 365.5,224.5 C 366.489,229.975 366.822,235.642 366.5,241.5C 396.167,241.5 425.833,241.5 455.5,241.5C 455.5,238.833 455.5,236.167 455.5,233.5C 456.477,236.287 456.81,239.287 456.5,242.5C 426.167,242.5 395.833,242.5 365.5,242.5C 365.5,236.5 365.5,230.5 365.5,224.5 Z"/></g>
<g><path style="opacity:0.051" fill="#383838" d="M 145.5,286.5 C 144.511,281.025 144.178,275.358 144.5,269.5C 114.833,269.5 85.1667,269.5 55.5,269.5C 55.5,272.167 55.5,274.833 55.5,277.5C 54.5233,274.713 54.19,271.713 54.5,268.5C 84.8333,268.5 115.167,268.5 145.5,268.5C 145.5,274.5 145.5,280.5 145.5,286.5 Z"/></g>
<g><path style="opacity:0.051" fill="#393939" d="M 338.5,276.5 C 338.5,274.167 338.5,271.833 338.5,269.5C 283.167,269.5 227.833,269.5 172.5,269.5C 172.5,271.833 172.5,274.167 172.5,276.5C 171.527,274.052 171.194,271.385 171.5,268.5C 227.5,268.5 283.5,268.5 339.5,268.5C 339.806,271.385 339.473,274.052 338.5,276.5 Z"/></g>
<g><path style="opacity:0.051" fill="#383838" d="M 455.5,277.5 C 455.5,274.833 455.5,272.167 455.5,269.5C 425.833,269.5 396.167,269.5 366.5,269.5C 366.822,275.358 366.489,281.025 365.5,286.5C 365.5,280.5 365.5,274.5 365.5,268.5C 395.833,268.5 426.167,268.5 456.5,268.5C 456.81,271.713 456.477,274.713 455.5,277.5 Z"/></g>
<g><path style="opacity:0.039" fill="#393939" d="M 152.5,342.5 C 153.043,342.56 153.376,342.893 153.5,343.5C 151.257,344.474 148.924,344.808 146.5,344.5C 148.5,343.833 150.5,343.167 152.5,342.5 Z"/></g>
<g><path style="opacity:0.02" fill="#323232" d="M 358.5,342.5 C 360.5,343.167 362.5,343.833 364.5,344.5C 362.076,344.808 359.743,344.474 357.5,343.5C 357.624,342.893 357.957,342.56 358.5,342.5 Z"/></g>
<g><path style="opacity:0.051" fill="#1d1d1d" d="M 433.5,349.5 C 433.573,351.027 432.906,352.027 431.5,352.5C 431.427,350.973 432.094,349.973 433.5,349.5 Z"/></g>
<g><path style="opacity:0.008" fill="#4a4a4a" d="M 319.5,368.5 C 324.643,367.624 325.643,368.957 322.5,372.5C 322.5,371.5 322.5,370.5 322.5,369.5C 321.209,369.737 320.209,369.404 319.5,368.5 Z"/></g>
<g><path style="opacity:0.294" fill="#8f8f8f" d="M 189.5,369.5 C 188.761,369.369 188.094,369.536 187.5,370C 188.337,371.011 188.67,372.178 188.5,373.5C 187.069,372.22 186.402,370.553 186.5,368.5C 187.791,368.263 188.791,368.596 189.5,369.5 Z"/></g>
<g><path style="opacity:0.004" fill="#1c1c1c" d="M 450.5,375.5 C 450.573,377.027 449.906,378.027 448.5,378.5C 448.427,376.973 449.094,375.973 450.5,375.5 Z"/></g>
<g><path style="opacity:0.043" fill="#1d1d1d" d="M 409.5,384.5 C 409.573,386.027 408.906,387.027 407.5,387.5C 407.427,385.973 408.094,384.973 409.5,384.5 Z"/></g>
<g><path style="opacity:0.004" fill="#191919" d="M 442.5,387.5 C 442.573,389.027 441.906,390.027 440.5,390.5C 440.427,388.973 441.094,387.973 442.5,387.5 Z"/></g>
<g><path style="opacity:0.004" fill="#272727" d="M 439.5,391.5 C 439.5,392.833 438.833,393.5 437.5,393.5C 437.833,392.5 438.5,391.833 439.5,391.5 Z"/></g>
<g><path style="opacity:0.004" fill="#131313" d="M 436.5,396.5 C 436.167,397.5 435.5,398.167 434.5,398.5C 434.5,397.167 435.167,396.5 436.5,396.5 Z"/></g>
<g><path style="opacity:0.043" fill="#2d2d2d" d="M 400.5,394.5 C 399.5,397.5 397.5,399.5 394.5,400.5C 396.167,398.167 398.167,396.167 400.5,394.5 Z"/></g>
<g><path style="opacity:0.004" fill="#161616" d="M 432.5,400.5 C 432.262,402.404 431.262,403.738 429.5,404.5C 429.738,402.596 430.738,401.262 432.5,400.5 Z"/></g>
<g><path style="opacity:0.035" fill="#373737" d="M 387.5,407.5 C 387.027,408.906 386.027,409.573 384.5,409.5C 384.973,408.094 385.973,407.427 387.5,407.5 Z"/></g>
<g><path style="opacity:0.004" fill="#1a1a1a" d="M 425.5,408.5 C 424.92,410.749 423.587,412.415 421.5,413.5C 422.08,411.251 423.413,409.585 425.5,408.5 Z"/></g>
<g><path style="opacity:0.039" fill="#404040" d="M 381.5,412.5 C 381.167,413.5 380.5,414.167 379.5,414.5C 379.5,413.167 380.167,412.5 381.5,412.5 Z"/></g>
<g><path style="opacity:0.035" fill="#2d2d2d" d="M 377.5,415.5 C 377.167,416.5 376.5,417.167 375.5,417.5C 375.5,416.167 376.167,415.5 377.5,415.5 Z"/></g>
<g><path style="opacity:0.055" fill="#282828" d="M 304.5,416.5 C 304.573,418.027 303.906,419.027 302.5,419.5C 302.427,417.973 303.094,416.973 304.5,416.5 Z"/></g>
<g><path style="opacity:0.043" fill="#303030" d="M 373.5,418.5 C 373.167,419.5 372.5,420.167 371.5,420.5C 371.5,419.167 372.167,418.5 373.5,418.5 Z"/></g>
<g><path style="opacity:0.004" fill="#191919" d="M 413.5,421.5 C 412.415,423.587 410.749,424.92 408.5,425.5C 409.585,423.413 411.251,422.08 413.5,421.5 Z"/></g>
<g><path style="opacity:0.176" fill="#707070" d="M 300.5,422.5 C 300.715,424.179 300.048,425.179 298.5,425.5C 298.932,424.29 299.599,423.29 300.5,422.5 Z"/></g>
<g><path style="opacity:0.039" fill="#232323" d="M 364.5,424.5 C 364.027,425.906 363.027,426.573 361.5,426.5C 361.973,425.094 362.973,424.427 364.5,424.5 Z"/></g>
<g><path style="opacity:0.024" fill="#252525" d="M 296.5,429.5 C 296.167,430.5 295.5,431.167 294.5,431.5C 294.5,430.167 295.167,429.5 296.5,429.5 Z"/></g>
<g><path style="opacity:0.004" fill="#191919" d="M 403.5,430.5 C 403.027,431.906 402.027,432.573 400.5,432.5C 400.973,431.094 401.973,430.427 403.5,430.5 Z"/></g>
<g><path style="opacity:0.039" fill="#1f1f1f" d="M 292.5,433.5 C 292.573,435.027 291.906,436.027 290.5,436.5C 290.427,434.973 291.094,433.973 292.5,433.5 Z"/></g>
<g><path style="opacity:0.004" fill="#222222" d="M 397.5,434.5 C 397.5,435.833 396.833,436.5 395.5,436.5C 395.833,435.5 396.5,434.833 397.5,434.5 Z"/></g>
<g><path style="opacity:0.004" fill="#2e2e2e" d="M 393.5,437.5 C 393.5,438.833 392.833,439.5 391.5,439.5C 391.833,438.5 392.5,437.833 393.5,437.5 Z"/></g>
<g><path style="opacity:0.004" fill="#1e1e1e" d="M 322.5,439.5 C 322.5,440.833 321.833,441.5 320.5,441.5C 320.833,440.5 321.5,439.833 322.5,439.5 Z"/></g>
<g><path style="opacity:0.004" fill="#222222" d="M 389.5,440.5 C 389.5,441.833 388.833,442.5 387.5,442.5C 387.833,441.5 388.5,440.833 389.5,440.5 Z"/></g>
<g><path style="opacity:0.043" fill="#353535" d="M 192.5,445.5 C 193.289,445.783 193.956,446.283 194.5,447C 193.184,447.528 192.517,447.028 192.5,445.5 Z"/></g>
<g><path style="opacity:0.004" fill="#181818" d="M 378.5,448.5 C 378.027,449.906 377.027,450.573 375.5,450.5C 375.973,449.094 376.973,448.427 378.5,448.5 Z"/></g>
<g><path style="opacity:0.004" fill="#282828" d="M 366.5,455.5 C 366.027,456.906 365.027,457.573 363.5,457.5C 363.973,456.094 364.973,455.427 366.5,455.5 Z"/></g>
</svg>
