<?xml version="1.0" encoding="UTF-8"?>
<!DOCTYPE svg PUBLIC "-//W3C//DTD SVG 1.1//EN" "http://www.w3.org/Graphics/SVG/1.1/DTD/svg11.dtd">
<svg xmlns="http://www.w3.org/2000/svg" version="1.1" width="512px" height="512px" style="shape-rendering:geometricPrecision; text-rendering:geometricPrecision; image-rendering:optimizeQuality; fill-rule:evenodd; clip-rule:evenodd" xmlns:xlink="http://www.w3.org/1999/xlink">
<g><path style="opacity:0.997" fill="#f9585a" d="M 175.5,33.5 C 175.881,34.9311 176.881,35.7645 178.5,36C 180.81,36.4966 183.143,36.6633 185.5,36.5C 199.582,40.8745 212.582,47.3745 224.5,56C 235.304,64.9695 245.637,74.4695 255.5,84.5C 262.166,79.5195 268.499,73.5195 274.5,66.5C 275.527,64.8058 276.861,63.4725 278.5,62.5C 280.027,62.573 281.027,61.9063 281.5,60.5C 282.95,58.3901 284.95,57.0568 287.5,56.5C 291.015,55.6547 293.681,53.6547 295.5,50.5C 306.346,43.5768 318.013,38.5768 330.5,35.5C 334.57,35.5682 338.237,34.5682 341.5,32.5C 398.161,22.6629 444.995,39.6629 482,83.5C 492.984,96.7999 500.818,111.8 505.5,128.5C 505.949,132.527 506.616,136.527 507.5,140.5C 507.747,141.713 508.414,142.38 509.5,142.5C 510.065,144.952 510.732,147.285 511.5,149.5C 511.5,164.833 511.5,180.167 511.5,195.5C 507.4,218.36 498.4,239.026 484.5,257.5C 483.094,257.973 482.427,258.973 482.5,260.5C 481.833,261.167 481.167,261.833 480.5,262.5C 478.738,263.262 477.738,264.596 477.5,266.5C 475.527,269.139 473.194,271.473 470.5,273.5C 469.5,273.833 468.833,274.5 468.5,275.5C 409.113,335.554 349.446,395.221 289.5,454.5C 280.554,461.778 272.221,469.778 264.5,478.5C 258.726,482.303 252.726,482.47 246.5,479C 175,407.5 103.5,336 32,264.5C 15.2247,244.284 4.39141,221.284 -0.5,195.5C -0.5,179.833 -0.5,164.167 -0.5,148.5C 0.387384,144.9 1.38738,141.233 2.5,137.5C 4.34351,135.721 5.01017,133.388 4.5,130.5C 9.39364,113.373 17.3936,98.0401 28.5,84.5C 29.9063,84.0269 30.573,83.0269 30.5,81.5C 31.4725,79.8608 32.8058,78.5274 34.5,77.5C 36.5869,76.4154 37.9202,74.7488 38.5,72.5C 39.1667,71.1667 40.1667,70.1667 41.5,69.5C 44.0892,68.5806 46.0892,66.914 47.5,64.5C 84.7712,32.8503 127.438,22.5169 175.5,33.5 Z M 296.5,88.5 C 298.027,88.573 299.027,87.9063 299.5,86.5C 304.796,82.8461 310.129,79.1794 315.5,75.5C 317.027,75.573 318.027,74.9063 318.5,73.5C 338.399,64.0156 359.399,60.0156 381.5,61.5C 384.974,62.5249 388.64,63.1916 392.5,63.5C 439.408,75.5752 468.242,105.242 479,152.5C 481.266,168.927 480.766,185.26 477.5,201.5C 475.993,205.353 474.66,209.353 473.5,213.5C 468.825,224.874 462.491,235.207 454.5,244.5C 452.738,245.262 451.738,246.596 451.5,248.5C 438.833,260.5 426.5,272.833 414.5,285.5C 411.5,287.833 408.833,290.5 406.5,293.5C 381.217,317.116 356.55,341.449 332.5,366.5C 326.833,371.5 321.5,376.833 316.5,382.5C 310.5,387.833 304.833,393.5 299.5,399.5C 285.369,414.132 271.035,428.632 256.5,443C 255.833,443.667 255.167,443.667 254.5,443C 189,377.5 123.5,312 58,246.5C 49.0187,235.53 41.852,223.53 36.5,210.5C 36.405,208.214 35.7384,206.214 34.5,204.5C 33.7867,200.313 32.7867,196.313 31.5,192.5C 27.3981,164.347 32.3981,138.014 46.5,113.5C 47.9063,113.027 48.573,112.027 48.5,110.5C 49.853,109.474 50.853,108.141 51.5,106.5C 52.9063,106.027 53.573,105.027 53.5,103.5C 54.1667,102.833 54.8333,102.167 55.5,101.5C 56.9063,101.027 57.573,100.027 57.5,98.5C 60.8333,95.8333 63.8333,92.8333 66.5,89.5C 68.4044,89.2624 69.7377,88.2624 70.5,86.5C 104.446,60.4553 141.78,54.622 182.5,69C 195.137,73.987 206.471,80.987 216.5,90C 226.5,100 236.5,110 246.5,120C 252.024,123.954 257.69,124.288 263.5,121C 275.004,110.6 286.004,99.7669 296.5,88.5 Z"/></g>
<g><path style="opacity:0.31" fill="#89403e" d="M 341.5,32.5 C 338.237,34.5682 334.57,35.5682 330.5,35.5C 333.888,33.8816 337.554,32.8816 341.5,32.5 Z"/></g>
<g><path style="opacity:0.447" fill="#964141" d="M 175.5,33.5 C 179.048,34.1301 182.381,35.1301 185.5,36.5C 183.143,36.6633 180.81,36.4966 178.5,36C 176.881,35.7645 175.881,34.9311 175.5,33.5 Z"/></g>
<g><path style="opacity:0.42" fill="#b44d4e" d="M 295.5,50.5 C 293.681,53.6547 291.015,55.6547 287.5,56.5C 289.732,54.037 292.398,52.037 295.5,50.5 Z"/></g>
<g><path style="opacity:0.035" fill="#241818" d="M 281.5,60.5 C 281.027,61.9063 280.027,62.573 278.5,62.5C 278.973,61.0937 279.973,60.427 281.5,60.5 Z"/></g>
<g><path style="opacity:0.659" fill="#8e3c3a" d="M 381.5,61.5 C 385.649,60.9197 389.316,61.5864 392.5,63.5C 388.64,63.1916 384.974,62.5249 381.5,61.5 Z"/></g>
<g><path style="opacity:0.039" fill="#341917" d="M 47.5,64.5 C 46.0892,66.914 44.0892,68.5806 41.5,69.5C 42.9108,67.086 44.9108,65.4194 47.5,64.5 Z"/></g>
<g><path style="opacity:0.004" fill="#2c1815" d="M 318.5,73.5 C 318.027,74.9063 317.027,75.573 315.5,75.5C 315.973,74.0937 316.973,73.427 318.5,73.5 Z"/></g>
<g><path style="opacity:0.031" fill="#2c1716" d="M 38.5,72.5 C 37.9202,74.7488 36.5869,76.4154 34.5,77.5C 35.0798,75.2512 36.4131,73.5846 38.5,72.5 Z"/></g>
<g><path style="opacity:0.043" fill="#311413" d="M 274.5,66.5 C 268.499,73.5195 262.166,79.5195 255.5,84.5C 261.223,77.7751 267.556,71.7751 274.5,66.5 Z"/></g>
<g><path style="opacity:0.035" fill="#261a1a" d="M 30.5,81.5 C 30.573,83.0269 29.9063,84.0269 28.5,84.5C 28.427,82.9731 29.0937,81.9731 30.5,81.5 Z"/></g>
<g><path style="opacity:0.004" fill="#1c1313" d="M 70.5,86.5 C 69.7377,88.2624 68.4044,89.2624 66.5,89.5C 67.2623,87.7376 68.5956,86.7376 70.5,86.5 Z"/></g>
<g><path style="opacity:0.004" fill="#201312" d="M 299.5,86.5 C 299.027,87.9063 298.027,88.573 296.5,88.5C 296.973,87.0937 297.973,86.427 299.5,86.5 Z"/></g>
<g><path style="opacity:0.004" fill="#1d1010" d="M 57.5,98.5 C 57.573,100.027 56.9063,101.027 55.5,101.5C 55.427,99.9731 56.0937,98.9731 57.5,98.5 Z"/></g>
<g><path style="opacity:0.004" fill="#271616" d="M 53.5,103.5 C 53.573,105.027 52.9063,106.027 51.5,106.5C 51.427,104.973 52.0937,103.973 53.5,103.5 Z"/></g>
<g><path style="opacity:0.004" fill="#191414" d="M 48.5,110.5 C 48.573,112.027 47.9063,113.027 46.5,113.5C 46.427,111.973 47.0937,110.973 48.5,110.5 Z"/></g>
<g><path style="opacity:0.553" fill="#832f33" d="M 4.5,130.5 C 5.01017,133.388 4.34351,135.721 2.5,137.5C 2.72148,134.933 3.38815,132.599 4.5,130.5 Z"/></g>
<g><path style="opacity:0.733" fill="#a94041" d="M 505.5,128.5 C 507.434,132.888 508.767,137.555 509.5,142.5C 508.414,142.38 507.747,141.713 507.5,140.5C 506.616,136.527 505.949,132.527 505.5,128.5 Z"/></g>
<g><path style="opacity:0.749" fill="#96373c" d="M 31.5,192.5 C 32.7867,196.313 33.7867,200.313 34.5,204.5C 33.4138,204.38 32.7472,203.713 32.5,202.5C 31.673,199.217 31.3396,195.884 31.5,192.5 Z"/></g>
<g><path style="opacity:0.627" fill="#803132" d="M 34.5,204.5 C 35.7384,206.214 36.405,208.214 36.5,210.5C 34.6921,209.082 34.0254,207.082 34.5,204.5 Z"/></g>
<g><path style="opacity:0.898" fill="#99393c" d="M 477.5,201.5 C 477.781,206.168 476.448,210.168 473.5,213.5C 474.66,209.353 475.993,205.353 477.5,201.5 Z"/></g>
<g><path style="opacity:0.047" fill="#281716" d="M 454.5,244.5 C 454.262,246.404 453.262,247.738 451.5,248.5C 451.738,246.596 452.738,245.262 454.5,244.5 Z"/></g>
<g><path style="opacity:0.004" fill="#1c1616" d="M 484.5,257.5 C 484.573,259.027 483.906,260.027 482.5,260.5C 482.427,258.973 483.094,257.973 484.5,257.5 Z"/></g>
<g><path style="opacity:0.004" fill="#191212" d="M 480.5,262.5 C 480.262,264.404 479.262,265.738 477.5,266.5C 477.738,264.596 478.738,263.262 480.5,262.5 Z"/></g>
<g><path style="opacity:0.004" fill="#1c1c1c" d="M 470.5,273.5 C 470.5,274.833 469.833,275.5 468.5,275.5C 468.833,274.5 469.5,273.833 470.5,273.5 Z"/></g>
<g><path style="opacity:0.298" fill="#b45653" d="M 414.5,285.5 C 412.833,289.167 410.167,291.833 406.5,293.5C 408.833,290.5 411.5,287.833 414.5,285.5 Z"/></g>
<g><path style="opacity:0.043" fill="#331615" d="M 406.5,293.5 C 382.5,318.167 358.167,342.5 333.5,366.5C 333.167,366.5 332.833,366.5 332.5,366.5C 356.55,341.449 381.217,317.116 406.5,293.5 Z"/></g>
<g><path style="opacity:0.055" fill="#a41e12" d="M 332.5,366.5 C 332.833,366.5 333.167,366.5 333.5,366.5C 328.443,372.559 322.776,377.893 316.5,382.5C 321.5,376.833 326.833,371.5 332.5,366.5 Z"/></g>
<g><path style="opacity:0.063" fill="#a24342" d="M 316.5,382.5 C 311.833,389.167 306.167,394.833 299.5,399.5C 304.833,393.5 310.5,387.833 316.5,382.5 Z"/></g>
<g><path style="opacity:0.004" fill="#1a1212" d="M 289.5,454.5 C 281.779,463.222 273.446,471.222 264.5,478.5C 272.221,469.778 280.554,461.778 289.5,454.5 Z"/></g>
</svg>
