<?xml version="1.0" encoding="UTF-8"?>
<!DOCTYPE svg PUBLIC "-//W3C//DTD SVG 1.1//EN" "http://www.w3.org/Graphics/SVG/1.1/DTD/svg11.dtd">
<svg xmlns="http://www.w3.org/2000/svg" version="1.1" width="512px" height="512px" style="shape-rendering:geometricPrecision; text-rendering:geometricPrecision; image-rendering:optimizeQuality; fill-rule:evenodd; clip-rule:evenodd" xmlns:xlink="http://www.w3.org/1999/xlink">
<g><path style="opacity:0.994" fill="#fcfcfc" d="M 229.5,-0.5 C 247.167,-0.5 264.833,-0.5 282.5,-0.5C 345.185,10.6916 392.685,43.6916 425,98.5C 449.814,145.35 455.147,194.35 441,245.5C 429.848,282.466 413.848,317.133 393,349.5C 379.039,371.779 363.873,393.113 347.5,413.5C 346.5,413.833 345.833,414.5 345.5,415.5C 341.591,422.078 336.924,428.078 331.5,433.5C 330.094,433.973 329.427,434.973 329.5,436.5C 328.728,437.694 327.728,438.694 326.5,439.5C 325.094,439.973 324.427,440.973 324.5,442.5C 323.527,444.139 322.194,445.473 320.5,446.5C 319.094,446.973 318.427,447.973 318.5,449.5C 317.527,451.139 316.194,452.473 314.5,453.5C 313.094,453.973 312.427,454.973 312.5,456.5C 311.194,458.473 309.527,460.139 307.5,461.5C 305.738,462.262 304.738,463.596 304.5,465.5C 302.861,467.806 300.861,469.806 298.5,471.5C 296.738,472.262 295.738,473.596 295.5,475.5C 292.527,479.14 289.194,482.473 285.5,485.5C 283.413,486.585 282.08,488.251 281.5,490.5C 274.833,497.833 267.833,504.833 260.5,511.5C 257.167,511.5 253.833,511.5 250.5,511.5C 197.337,459.535 151.17,402.201 112,339.5C 92.4131,307.656 77.7465,273.656 68,237.5C 56.8244,190.575 61.991,145.575 83.5,102.5C 85.4456,101.965 86.4456,100.632 86.5,98.5C 86.8925,96.7162 87.5592,95.0495 88.5,93.5C 89.8333,93.5 90.5,92.8333 90.5,91.5C 90.3284,90.5084 90.6618,89.8417 91.5,89.5C 93.0481,89.1788 93.7148,88.1788 93.5,86.5C 93.7822,85.2223 94.4489,84.2223 95.5,83.5C 96.9063,83.0269 97.573,82.0269 97.5,80.5C 98.5272,78.816 99.5272,77.1494 100.5,75.5C 101.833,75.5 102.5,74.8333 102.5,73.5C 102.833,72.5 103.5,71.8333 104.5,71.5C 105.906,71.0269 106.573,70.0269 106.5,68.5C 107.5,67.5 108.5,66.5 109.5,65.5C 111.262,64.7377 112.262,63.4044 112.5,61.5C 117.167,57.5 121.5,53.1667 125.5,48.5C 127.404,48.2624 128.738,47.2624 129.5,45.5C 130.306,44.2719 131.306,43.2719 132.5,42.5C 134.027,42.573 135.027,41.9063 135.5,40.5C 136.167,39.8333 136.833,39.1667 137.5,38.5C 139.027,38.573 140.027,37.9063 140.5,36.5C 145.501,32.3882 150.834,28.7215 156.5,25.5C 157.327,26.4387 157.994,26.1054 158.5,24.5C 160.332,23.7515 161.999,22.7515 163.5,21.5C 163.735,22.0967 164.235,22.4301 165,22.5C 166.699,21.2956 168.199,19.9622 169.5,18.5C 188.534,9.07564 208.534,2.74231 229.5,-0.5 Z M 330.5,236.5 C 329.167,236.5 328.5,237.167 328.5,238.5C 328.5,238.833 328.5,239.167 328.5,239.5C 327.167,239.5 326.5,240.167 326.5,241.5C 324.926,242.984 323.593,244.651 322.5,246.5C 320.413,247.585 319.08,249.251 318.5,251.5C 317.167,252.167 316.167,253.167 315.5,254.5C 313.251,255.08 311.585,256.413 310.5,258.5C 308.651,259.593 306.984,260.926 305.5,262.5C 304.167,262.5 303.5,263.167 303.5,264.5C 303.167,264.5 302.833,264.5 302.5,264.5C 301.508,264.328 300.842,264.662 300.5,265.5C 265.876,284.073 232.542,281.906 200.5,259C 170.635,231.374 162.135,198.207 175,159.5C 178.504,151.145 183.004,143.478 188.5,136.5C 189.906,136.027 190.573,135.027 190.5,133.5C 193.167,131.5 195.5,129.167 197.5,126.5C 198.833,126.5 199.5,125.833 199.5,124.5C 236.323,98.0245 273.323,97.8579 310.5,124C 336.401,147.312 346.234,176.145 340,210.5C 337.661,219.503 334.494,228.17 330.5,236.5 Z"/></g>
<g><path style="opacity:0.48" fill="#7d7d7d" d="M 169.5,18.5 C 168.199,19.9622 166.699,21.2956 165,22.5C 164.235,22.4301 163.735,22.0967 163.5,21.5C 165.181,19.9925 167.181,18.9925 169.5,18.5 Z"/></g>
<g><path style="opacity:0.039" fill="#3b3b3b" d="M 158.5,24.5 C 157.994,26.1054 157.327,26.4387 156.5,25.5C 156.842,24.6618 157.508,24.3284 158.5,24.5 Z"/></g>
<g><path style="opacity:0.02" fill="#4a4a4a" d="M 140.5,36.5 C 140.027,37.9063 139.027,38.573 137.5,38.5C 137.973,37.0937 138.973,36.427 140.5,36.5 Z"/></g>
<g><path style="opacity:0.031" fill="#393939" d="M 135.5,40.5 C 135.027,41.9063 134.027,42.573 132.5,42.5C 132.973,41.0937 133.973,40.427 135.5,40.5 Z"/></g>
<g><path style="opacity:0.02" fill="#323232" d="M 129.5,45.5 C 128.738,47.2624 127.404,48.2624 125.5,48.5C 126.262,46.7376 127.596,45.7376 129.5,45.5 Z"/></g>
<g><path style="opacity:0.02" fill="#313131" d="M 112.5,61.5 C 112.262,63.4044 111.262,64.7377 109.5,65.5C 109.738,63.5956 110.738,62.2623 112.5,61.5 Z"/></g>
<g><path style="opacity:0.031" fill="#252525" d="M 106.5,68.5 C 106.573,70.0269 105.906,71.0269 104.5,71.5C 104.427,69.9731 105.094,68.9731 106.5,68.5 Z"/></g>
<g><path style="opacity:0.024" fill="#1c1c1c" d="M 102.5,73.5 C 102.5,74.8333 101.833,75.5 100.5,75.5C 100.833,74.5 101.5,73.8333 102.5,73.5 Z"/></g>
<g><path style="opacity:0.031" fill="#232323" d="M 97.5,80.5 C 97.573,82.0269 96.9063,83.0269 95.5,83.5C 95.427,81.9731 96.0937,80.9731 97.5,80.5 Z"/></g>
<g><path style="opacity:0.22" fill="#707070" d="M 93.5,86.5 C 93.7148,88.1788 93.0481,89.1788 91.5,89.5C 91.9321,88.2905 92.5987,87.2905 93.5,86.5 Z"/></g>
<g><path style="opacity:0.043" fill="#1c1c1c" d="M 90.5,91.5 C 90.5,92.8333 89.8333,93.5 88.5,93.5C 88.8333,92.5 89.5,91.8333 90.5,91.5 Z"/></g>
<g><path style="opacity:0.047" fill="#1b1b1b" d="M 86.5,98.5 C 86.4456,100.632 85.4456,101.965 83.5,102.5C 84.0256,100.77 85.0256,99.4363 86.5,98.5 Z"/></g>
<g><path style="opacity:0.004" fill="#242424" d="M 199.5,124.5 C 199.5,125.833 198.833,126.5 197.5,126.5C 197.833,125.5 198.5,124.833 199.5,124.5 Z"/></g>
<g><path style="opacity:0.004" fill="#1e1e1e" d="M 190.5,133.5 C 190.573,135.027 189.906,136.027 188.5,136.5C 188.427,134.973 189.094,133.973 190.5,133.5 Z"/></g>
<g><path style="opacity:0.043" fill="#323232" d="M 330.5,236.5 C 330.167,237.5 329.5,238.167 328.5,238.5C 328.5,237.167 329.167,236.5 330.5,236.5 Z"/></g>
<g><path style="opacity:0.035" fill="#282828" d="M 328.5,239.5 C 328.167,240.5 327.5,241.167 326.5,241.5C 326.5,240.167 327.167,239.5 328.5,239.5 Z"/></g>
<g><path style="opacity:0.027" fill="#282828" d="M 322.5,246.5 C 321.92,248.749 320.587,250.415 318.5,251.5C 319.08,249.251 320.413,247.585 322.5,246.5 Z"/></g>
<g><path style="opacity:0.043" fill="#383838" d="M 315.5,254.5 C 314.415,256.587 312.749,257.92 310.5,258.5C 311.585,256.413 313.251,255.08 315.5,254.5 Z"/></g>
<g><path style="opacity:0.035" fill="#3e3e3e" d="M 305.5,262.5 C 305.167,263.5 304.5,264.167 303.5,264.5C 303.5,263.167 304.167,262.5 305.5,262.5 Z"/></g>
<g><path style="opacity:0.039" fill="#3b3b3b" d="M 302.5,264.5 C 301.994,266.105 301.327,266.439 300.5,265.5C 300.842,264.662 301.508,264.328 302.5,264.5 Z"/></g>
<g><path style="opacity:0.004" fill="#232323" d="M 347.5,413.5 C 347.5,414.833 346.833,415.5 345.5,415.5C 345.833,414.5 346.5,413.833 347.5,413.5 Z"/></g>
<g><path style="opacity:0.004" fill="#1e1e1e" d="M 331.5,433.5 C 331.573,435.027 330.906,436.027 329.5,436.5C 329.427,434.973 330.094,433.973 331.5,433.5 Z"/></g>
<g><path style="opacity:0.004" fill="#1e1e1e" d="M 326.5,439.5 C 326.573,441.027 325.906,442.027 324.5,442.5C 324.427,440.973 325.094,439.973 326.5,439.5 Z"/></g>
<g><path style="opacity:0.004" fill="#1a1a1a" d="M 320.5,446.5 C 320.573,448.027 319.906,449.027 318.5,449.5C 318.427,447.973 319.094,446.973 320.5,446.5 Z"/></g>
<g><path style="opacity:0.004" fill="#1b1b1b" d="M 314.5,453.5 C 314.573,455.027 313.906,456.027 312.5,456.5C 312.427,454.973 313.094,453.973 314.5,453.5 Z"/></g>
<g><path style="opacity:0.004" fill="#161616" d="M 307.5,461.5 C 307.262,463.404 306.262,464.738 304.5,465.5C 304.738,463.596 305.738,462.262 307.5,461.5 Z"/></g>
<g><path style="opacity:0.004" fill="#161616" d="M 298.5,471.5 C 298.262,473.404 297.262,474.738 295.5,475.5C 295.738,473.596 296.738,472.262 298.5,471.5 Z"/></g>
<g><path style="opacity:0.004" fill="#1a1a1a" d="M 285.5,485.5 C 284.92,487.749 283.587,489.415 281.5,490.5C 282.08,488.251 283.413,486.585 285.5,485.5 Z"/></g>
</svg>
