<?xml version="1.0" encoding="UTF-8"?>
<!DOCTYPE svg PUBLIC "-//W3C//DTD SVG 1.1//EN" "http://www.w3.org/Graphics/SVG/1.1/DTD/svg11.dtd">
<svg xmlns="http://www.w3.org/2000/svg" version="1.1" width="512px" height="512px" style="shape-rendering:geometricPrecision; text-rendering:geometricPrecision; image-rendering:optimizeQuality; fill-rule:evenodd; clip-rule:evenodd" xmlns:xlink="http://www.w3.org/1999/xlink">
<g><path style="opacity:0.993" fill="#f6f6f6" d="M 138.5,94.5 C 136.973,94.427 135.973,95.0937 135.5,96.5C 135.167,96.5 134.833,96.5 134.5,96.5C 133.5,96.8333 132.833,97.5 132.5,98.5C 131.833,98.8333 131.167,99.1667 130.5,99.5C 129.167,100.167 128.167,101.167 127.5,102.5C 126.5,104.167 125.167,105.5 123.5,106.5C 121.738,107.262 120.738,108.596 120.5,110.5C 120.5,111.167 120.167,111.5 119.5,111.5C 118.5,111.833 117.833,112.5 117.5,113.5C 115.975,117.556 114.141,121.556 112,125.5C 110.039,130.677 108.706,136.01 108,141.5C 107.333,217.5 107.333,293.5 108,369.5C 113.27,399.437 130.77,417.604 160.5,424C 193.167,424.333 225.833,424.667 258.5,425C 274.969,430.105 280.803,440.938 276,457.5C 272.266,464.463 266.433,468.63 258.5,470C 226.833,470.667 195.167,470.667 163.5,470C 122.576,465.714 92.4093,445.548 73,409.5C 68.0487,398.646 64.7154,387.312 63,375.5C 62.3333,295.5 62.3333,215.5 63,135.5C 65.386,115.464 72.886,97.7975 85.5,82.5C 86.9063,82.0269 87.573,81.0269 87.5,79.5C 88.4725,77.8608 89.8058,76.5274 91.5,75.5C 92.2389,75.631 92.9056,75.4643 93.5,75C 94.748,73.6003 95.748,72.1003 96.5,70.5C 97.5794,68.457 99.246,67.1237 101.5,66.5C 102.5,66.1667 103.167,65.5 103.5,64.5C 105.147,62.6736 107.147,61.3403 109.5,60.5C 110.5,60.1667 111.167,59.5 111.5,58.5C 111.833,58.5 112.167,58.5 112.5,58.5C 113.5,58.1667 114.167,57.5 114.5,56.5C 116.517,55.4706 118.517,54.4706 120.5,53.5C 122.153,53.3404 123.486,52.6737 124.5,51.5C 136.671,45.3717 149.671,41.8717 163.5,41C 195.167,40.3333 226.833,40.3333 258.5,41C 270.246,43.9159 276.912,51.4159 278.5,63.5C 277.642,74.0687 272.308,81.2354 262.5,85C 228.547,86.306 194.547,86.9726 160.5,87C 152.692,88.2136 145.359,90.7136 138.5,94.5 Z"/></g>
<g><path style="opacity:0.043" fill="#353535" d="M 124.5,51.5 C 123.486,52.6737 122.153,53.3404 120.5,53.5C 121.287,51.8958 122.62,51.2291 124.5,51.5 Z"/></g>
<g><path style="opacity:0.035" fill="#323232" d="M 114.5,56.5 C 114.167,57.5 113.5,58.1667 112.5,58.5C 112.5,57.1667 113.167,56.5 114.5,56.5 Z"/></g>
<g><path style="opacity:0.039" fill="#2a2a2a" d="M 111.5,58.5 C 111.167,59.5 110.5,60.1667 109.5,60.5C 109.5,59.1667 110.167,58.5 111.5,58.5 Z"/></g>
<g><path style="opacity:0.043" fill="#383838" d="M 103.5,64.5 C 103.167,65.5 102.5,66.1667 101.5,66.5C 101.5,65.1667 102.167,64.5 103.5,64.5 Z"/></g>
<g><path style="opacity:0.29" fill="#959595" d="M 96.5,70.5 C 95.748,72.1003 94.748,73.6003 93.5,75C 92.9056,75.4643 92.2389,75.631 91.5,75.5C 92.5,73.1667 94.1667,71.5 96.5,70.5 Z"/></g>
<g><path style="opacity:0.043" fill="#1f1f1f" d="M 87.5,79.5 C 87.573,81.0269 86.9063,82.0269 85.5,82.5C 85.427,80.9731 86.0937,79.9731 87.5,79.5 Z"/></g>
<g><path style="opacity:0.004" fill="#171717" d="M 138.5,94.5 C 138.027,95.9063 137.027,96.573 135.5,96.5C 135.973,95.0937 136.973,94.427 138.5,94.5 Z"/></g>
<g><path style="opacity:0.004" fill="#222222" d="M 134.5,96.5 C 134.5,97.8333 133.833,98.5 132.5,98.5C 132.833,97.5 133.5,96.8333 134.5,96.5 Z"/></g>
<g><path style="opacity:0.004" fill="#232323" d="M 130.5,99.5 C 130.5,101.5 129.5,102.5 127.5,102.5C 128.167,101.167 129.167,100.167 130.5,99.5 Z"/></g>
<g><path style="opacity:0.004" fill="#1b1b1b" d="M 123.5,106.5 C 123.262,108.404 122.262,109.738 120.5,110.5C 120.738,108.596 121.738,107.262 123.5,106.5 Z"/></g>
<g><path style="opacity:0.004" fill="#292929" d="M 119.5,111.5 C 119.5,112.833 118.833,113.5 117.5,113.5C 117.833,112.5 118.5,111.833 119.5,111.5 Z"/></g>
<g><path style="opacity:0.989" fill="#fafafa" d="M 443.5,269.5 C 413.833,298.5 384.5,327.833 355.5,357.5C 343.297,366.384 332.13,365.051 322,353.5C 317.598,345.445 317.432,337.445 321.5,329.5C 322.5,329.167 323.167,328.5 323.5,327.5C 338.579,310.919 354.246,294.752 370.5,279C 316.833,278.667 263.167,278.333 209.5,278C 195.163,273.83 188.996,264.33 191,249.5C 191.754,246.316 193.254,243.649 195.5,241.5C 196.833,240.833 197.833,239.833 198.5,238.5C 198.842,237.662 199.508,237.328 200.5,237.5C 201.5,237.167 202.167,236.5 202.5,235.5C 204.913,233.949 207.579,233.283 210.5,233.5C 264.501,233.667 318.501,233.5 372.5,233C 371.956,232.283 371.289,231.783 370.5,231.5C 353.84,215.673 337.673,199.339 322,182.5C 318.669,176.582 317.669,170.249 319,163.5C 319.716,161.121 320.883,159.121 322.5,157.5C 323.906,157.027 324.573,156.027 324.5,154.5C 324.5,153.833 324.833,153.5 325.5,153.5C 327.027,153.573 328.027,152.906 328.5,151.5C 337.17,146.066 345.836,146.233 354.5,152C 384.333,181.833 414.167,211.667 444,241.5C 450.141,251.067 449.974,260.4 443.5,269.5 Z"/></g>
<g><path style="opacity:0.031" fill="#2c2c2c" d="M 328.5,151.5 C 328.027,152.906 327.027,153.573 325.5,153.5C 325.973,152.094 326.973,151.427 328.5,151.5 Z"/></g>
<g><path style="opacity:0.024" fill="#242424" d="M 324.5,154.5 C 324.573,156.027 323.906,157.027 322.5,157.5C 322.427,155.973 323.094,154.973 324.5,154.5 Z"/></g>
<g><path style="opacity:0.02" fill="#333333" d="M 370.5,231.5 C 371.289,231.783 371.956,232.283 372.5,233C 318.501,233.5 264.501,233.667 210.5,233.5C 263.833,232.833 317.167,232.167 370.5,231.5 Z"/></g>
<g><path style="opacity:0.039" fill="#2a2a2a" d="M 202.5,235.5 C 202.167,236.5 201.5,237.167 200.5,237.5C 200.5,236.167 201.167,235.5 202.5,235.5 Z"/></g>
<g><path style="opacity:0.02" fill="#272727" d="M 198.5,238.5 C 197.833,239.833 196.833,240.833 195.5,241.5C 195.5,239.5 196.5,238.5 198.5,238.5 Z"/></g>
<g><path style="opacity:0.004" fill="#1c1c1c" d="M 443.5,269.5 C 415.419,299.083 386.752,328.249 357.5,357C 356.906,357.464 356.239,357.631 355.5,357.5C 384.5,327.833 413.833,298.5 443.5,269.5 Z"/></g>
<g><path style="opacity:0.047" fill="#232323" d="M 323.5,327.5 C 323.167,328.5 322.5,329.167 321.5,329.5C 321.5,328.167 322.167,327.5 323.5,327.5 Z"/></g>
</svg>
