<?xml version="1.0" encoding="UTF-8"?>
<!DOCTYPE svg PUBLIC "-//W3C//DTD SVG 1.1//EN" "http://www.w3.org/Graphics/SVG/1.1/DTD/svg11.dtd">
<svg xmlns="http://www.w3.org/2000/svg" version="1.1" width="512px" height="512px" style="shape-rendering:geometricPrecision; text-rendering:geometricPrecision; image-rendering:optimizeQuality; fill-rule:evenodd; clip-rule:evenodd" xmlns:xlink="http://www.w3.org/1999/xlink">
<g><path style="opacity:0.993" fill="#161616" d="M 36.5,74.5 C 182.5,74.3333 328.5,74.5 474.5,75C 479.335,75.2137 483.335,77.047 486.5,80.5C 413.401,154.099 340.068,227.599 266.5,301C 258.587,305.846 250.92,305.512 243.5,300C 171.055,226.554 98.2213,153.388 25,80.5C 24.3123,79.6683 24.479,79.0016 25.5,78.5C 29.2761,77.1334 32.9428,75.8001 36.5,74.5 Z"/></g>
<g><path style="opacity:0.992" fill="#161616" d="M -0.5,402.5 C -0.5,304.167 -0.5,205.833 -0.5,107.5C 1.01977,105.11 2.01977,102.443 2.5,99.5C 3.55198,99.3505 4.55198,99.5172 5.5,100C 56.8457,152.012 108.179,204.012 159.5,256C 107.872,307.295 56.5389,358.961 5.5,411C 4.55085,411.617 3.71752,411.451 3,410.5C 1.9066,407.691 0.739932,405.024 -0.5,402.5 Z"/></g>
<g><path style="opacity:0.991" fill="#161616" d="M 511.5,108.5 C 511.5,206.833 511.5,305.167 511.5,403.5C 509.98,405.89 508.98,408.557 508.5,411.5C 507.448,411.649 506.448,411.483 505.5,411C 454.721,359.221 403.555,307.721 352,256.5C 351.968,253.332 353.468,250.999 356.5,249.5C 369.448,238.22 381.781,226.22 393.5,213.5C 430.712,175.603 468.046,137.77 505.5,100C 506.449,99.3828 507.282,99.5494 508,100.5C 509.093,103.309 510.26,105.976 511.5,108.5 Z"/></g>
<g><path style="opacity:0.055" fill="#0c0c0c" d="M 393.5,213.5 C 381.781,226.22 369.448,238.22 356.5,249.5C 368.219,236.78 380.552,224.78 393.5,213.5 Z"/></g>
<g><path style="opacity:0.992" fill="#161616" d="M 46.5,408.5 C 59.7814,396.886 72.4481,384.553 84.5,371.5C 116.2,339.467 147.867,307.467 179.5,275.5C 195.319,290.819 210.986,306.319 226.5,322C 244.367,333.879 262.701,334.545 281.5,324C 297.681,307.486 314.181,291.319 331,275.5C 382.6,327.1 434.267,378.767 486,430.5C 486.688,431.332 486.521,431.998 485.5,432.5C 481.931,433.967 478.264,435.134 474.5,436C 328.5,436.667 182.5,436.667 36.5,436C 33.8333,435.333 31.1667,434.667 28.5,434C 26.6969,433.363 25.3636,432.197 24.5,430.5C 31.521,422.812 38.8543,415.479 46.5,408.5 Z"/></g>
<g><path style="opacity:0.055" fill="#0c0c0c" d="M 84.5,371.5 C 72.4481,384.553 59.7814,396.886 46.5,408.5C 58.5519,395.447 71.2186,383.114 84.5,371.5 Z"/></g>
</svg>
