<?xml version="1.0" encoding="UTF-8"?>
<!DOCTYPE svg PUBLIC "-//W3C//DTD SVG 1.1//EN" "http://www.w3.org/Graphics/SVG/1.1/DTD/svg11.dtd">
<svg xmlns="http://www.w3.org/2000/svg" version="1.1" width="512px" height="512px" style="shape-rendering:geometricPrecision; text-rendering:geometricPrecision; image-rendering:optimizeQuality; fill-rule:evenodd; clip-rule:evenodd" xmlns:xlink="http://www.w3.org/1999/xlink">
<g><path style="opacity:0.988" fill="#f7f7f7" d="M 111.5,289.5 C 110.5,289.833 109.833,290.5 109.5,291.5C 91.9656,302.503 74.6323,302.003 57.5,290C 39.6175,273.2 36.2841,254.034 47.5,232.5C 48.9063,232.027 49.573,231.027 49.5,229.5C 50.1667,229.5 50.5,229.167 50.5,228.5C 53.1667,226.5 55.5,224.167 57.5,221.5C 57.8417,220.662 58.5084,220.328 59.5,220.5C 60.5,220.167 61.1667,219.5 61.5,218.5C 84.5889,206.418 104.422,210.418 121,230.5C 131.124,247.601 130.957,264.601 120.5,281.5C 118.08,284.926 115.08,287.592 111.5,289.5 Z"/></g>
<g><path style="opacity:0.984" fill="#f8f8f8" d="M 290.5,281.5 C 289.094,281.973 288.427,282.973 288.5,284.5C 286.833,285.5 285.5,286.833 284.5,288.5C 282.973,288.427 281.973,289.094 281.5,290.5C 256.892,305.395 235.725,301.395 218,278.5C 208.696,261.462 209.53,245.128 220.5,229.5C 221.906,229.027 222.573,228.027 222.5,226.5C 224.139,225.527 225.473,224.194 226.5,222.5C 228.027,222.573 229.027,221.906 229.5,220.5C 246.585,208.744 263.918,208.578 281.5,220C 296.554,232.495 302.054,248.329 298,267.5C 296.249,272.674 293.749,277.341 290.5,281.5 Z"/></g>
<g><path style="opacity:0.989" fill="#f7f7f7" d="M 458.5,284.5 C 456.833,285.5 455.5,286.833 454.5,288.5C 442.931,298.452 429.597,301.619 414.5,298C 390.853,288.994 380.353,271.827 383,246.5C 383.505,243.135 384.672,240.135 386.5,237.5C 387.674,236.486 388.34,235.153 388.5,233.5C 389.11,232.609 389.443,231.609 389.5,230.5C 390.833,230.5 391.5,229.833 391.5,228.5C 393.543,225.457 396.21,223.124 399.5,221.5C 400.5,221.167 401.167,220.5 401.5,219.5C 403.837,217.604 406.504,216.27 409.5,215.5C 411.781,215.923 413.448,215.256 414.5,213.5C 434.547,208.686 450.713,214.686 463,231.5C 474.061,250.418 472.561,268.085 458.5,284.5 Z"/></g>
<g><path style="opacity:0.72" fill="#979797" d="M 414.5,213.5 C 413.448,215.256 411.781,215.923 409.5,215.5C 410.78,214.069 412.447,213.402 414.5,213.5 Z"/></g>
<g><path style="opacity:0.02" fill="#272727" d="M 61.5,218.5 C 61.1667,219.5 60.5,220.167 59.5,220.5C 59.5,219.167 60.1667,218.5 61.5,218.5 Z"/></g>
<g><path style="opacity:0.02" fill="#292929" d="M 401.5,219.5 C 401.167,220.5 400.5,221.167 399.5,221.5C 399.5,220.167 400.167,219.5 401.5,219.5 Z"/></g>
<g><path style="opacity:0.035" fill="#262626" d="M 229.5,220.5 C 229.027,221.906 228.027,222.573 226.5,222.5C 226.973,221.094 227.973,220.427 229.5,220.5 Z"/></g>
<g><path style="opacity:0.031" fill="#2a2a2a" d="M 57.5,221.5 C 55.5,224.167 53.1667,226.5 50.5,228.5C 51.8333,225.167 54.1667,222.833 57.5,221.5 Z"/></g>
<g><path style="opacity:0.043" fill="#1f1f1f" d="M 222.5,226.5 C 222.573,228.027 221.906,229.027 220.5,229.5C 220.427,227.973 221.094,226.973 222.5,226.5 Z"/></g>
<g><path style="opacity:0.027" fill="#151515" d="M 391.5,228.5 C 391.5,229.833 390.833,230.5 389.5,230.5C 389.833,229.5 390.5,228.833 391.5,228.5 Z"/></g>
<g><path style="opacity:0.035" fill="#0f0f0f" d="M 49.5,229.5 C 49.573,231.027 48.9063,232.027 47.5,232.5C 47.427,230.973 48.0937,229.973 49.5,229.5 Z"/></g>
<g><path style="opacity:0.047" fill="#191919" d="M 388.5,233.5 C 388.34,235.153 387.674,236.486 386.5,237.5C 386.229,235.62 386.896,234.287 388.5,233.5 Z"/></g>
<g><path style="opacity:0.004" fill="#212121" d="M 290.5,281.5 C 290.573,283.027 289.906,284.027 288.5,284.5C 288.427,282.973 289.094,281.973 290.5,281.5 Z"/></g>
<g><path style="opacity:0.004" fill="#1a1a1a" d="M 458.5,284.5 C 458.167,286.833 456.833,288.167 454.5,288.5C 455.5,286.833 456.833,285.5 458.5,284.5 Z"/></g>
<g><path style="opacity:0.004" fill="#1e1e1e" d="M 284.5,288.5 C 284.027,289.906 283.027,290.573 281.5,290.5C 281.973,289.094 282.973,288.427 284.5,288.5 Z"/></g>
<g><path style="opacity:0.004" fill="#272727" d="M 111.5,289.5 C 111.5,290.833 110.833,291.5 109.5,291.5C 109.833,290.5 110.5,289.833 111.5,289.5 Z"/></g>
</svg>
