<?xml version="1.0" encoding="UTF-8"?>
<!DOCTYPE svg PUBLIC "-//W3C//DTD SVG 1.1//EN" "http://www.w3.org/Graphics/SVG/1.1/DTD/svg11.dtd">
<svg xmlns="http://www.w3.org/2000/svg" version="1.1" width="512px" height="512px" style="shape-rendering:geometricPrecision; text-rendering:geometricPrecision; image-rendering:optimizeQuality; fill-rule:evenodd; clip-rule:evenodd" xmlns:xlink="http://www.w3.org/1999/xlink">
<g><path style="opacity:0.996" fill="#fdfdfd" d="M 503.5,182.5 C 503.025,185.082 503.692,187.082 505.5,188.5C 507.898,197.173 509.898,205.84 511.5,214.5C 511.5,233.5 511.5,252.5 511.5,271.5C 506.808,300.242 497.141,327.242 482.5,352.5C 481.167,352.5 480.5,353.167 480.5,354.5C 478.218,358.777 475.551,362.777 472.5,366.5C 471.5,366.833 470.833,367.5 470.5,368.5C 469.943,371.05 468.61,373.05 466.5,374.5C 465.094,374.973 464.427,375.973 464.5,377.5C 463.833,378.167 463.167,378.833 462.5,379.5C 461.094,379.973 460.427,380.973 460.5,382.5C 459.167,383.833 457.833,385.167 456.5,386.5C 454.738,387.262 453.738,388.596 453.5,390.5C 449.167,395.5 444.5,400.167 439.5,404.5C 437.251,405.08 435.585,406.413 434.5,408.5C 433.694,409.728 432.694,410.728 431.5,411.5C 429.973,411.427 428.973,412.094 428.5,413.5C 428.027,414.906 427.027,415.573 425.5,415.5C 424.5,415.833 423.833,416.5 423.5,417.5C 423.027,418.906 422.027,419.573 420.5,419.5C 419.5,419.833 418.833,420.5 418.5,421.5C 417.101,422.89 415.434,423.89 413.5,424.5C 412.5,424.833 411.833,425.5 411.5,426.5C 409.853,428.326 407.853,429.66 405.5,430.5C 403.973,430.427 402.973,431.094 402.5,432.5C 393.776,438.53 384.442,443.53 374.5,447.5C 372.847,447.66 371.514,448.326 370.5,449.5C 308.359,476.882 244.359,481.716 178.5,464C 169.398,461.133 160.398,457.966 151.5,454.5C 106.149,477.562 58.3153,492.895 8,500.5C 4.5459,499.877 1.71257,498.211 -0.5,495.5C -0.5,491.833 -0.5,488.167 -0.5,484.5C -0.166667,484.5 0.166667,484.5 0.5,484.5C 2.26242,483.738 3.26242,482.404 3.5,480.5C 4.5,479.5 5.5,478.5 6.5,477.5C 7.90632,477.027 8.57298,476.027 8.5,474.5C 10.1667,471.833 11.8333,469.167 13.5,466.5C 14.9063,466.027 15.573,465.027 15.5,463.5C 29.8088,431.945 36.9754,398.945 37,364.5C 17.1321,336.055 4.63215,304.721 -0.5,270.5C -0.5,251.833 -0.5,233.167 -0.5,214.5C 2.81232,193.229 9.14565,172.896 18.5,153.5C 20.6744,150.485 22.3411,147.151 23.5,143.5C 26.3835,136.736 30.0502,130.402 34.5,124.5C 35.5,124.167 36.1667,123.5 36.5,122.5C 36.7497,120.326 37.7497,118.659 39.5,117.5C 40.5,117.167 41.1667,116.5 41.5,115.5C 42.0568,112.95 43.3901,110.95 45.5,109.5C 46.9063,109.027 47.573,108.027 47.5,106.5C 48.2719,105.306 49.2719,104.306 50.5,103.5C 51.9063,103.027 52.573,102.027 52.5,100.5C 53.9387,98.6397 55.6053,96.973 57.5,95.5C 62.5,91.1667 67.1667,86.5 71.5,81.5C 72.8606,79.4727 74.5273,77.806 76.5,76.5C 78.4044,76.2624 79.7377,75.2624 80.5,73.5C 82.5956,70.7376 85.2623,68.7376 88.5,67.5C 89.5,67.1667 90.1667,66.5 90.5,65.5C 90.8417,64.6618 91.5084,64.3284 92.5,64.5C 93.5,64.1667 94.1667,63.5 94.5,62.5C 95.8993,61.1103 97.5659,60.1103 99.5,59.5C 100.5,59.1667 101.167,58.5 101.5,57.5C 102.287,55.8958 103.62,55.2291 105.5,55.5C 106.5,55.1667 107.167,54.5 107.5,53.5C 111.666,50.5825 115.999,47.9159 120.5,45.5C 121.327,46.4387 121.994,46.1054 122.5,44.5C 197.889,5.94637 275.555,0.779705 355.5,29C 420.796,54.2967 467.963,98.7967 497,162.5C 499.673,169.019 501.84,175.686 503.5,182.5 Z M 164.5,259.5 C 163.094,259.973 162.427,260.973 162.5,262.5C 161.833,263.167 161.167,263.833 160.5,264.5C 159.5,264.833 158.833,265.5 158.5,266.5C 155.378,269.568 151.711,271.902 147.5,273.5C 145.302,273.875 143.302,274.542 141.5,275.5C 115.154,275.656 102.654,262.656 104,236.5C 105.91,229.253 109.41,222.92 114.5,217.5C 115.833,217.5 116.5,216.833 116.5,215.5C 134.019,206.218 149.519,208.884 163,223.5C 169.722,235.261 170.222,247.261 164.5,259.5 Z M 282.5,262.5 C 281.167,262.5 280.5,263.167 280.5,264.5C 267.244,276.794 252.577,278.628 236.5,270C 220.611,255.425 218.611,239.258 230.5,221.5C 232.167,220.5 233.5,219.167 234.5,217.5C 248.234,207.094 262.234,206.927 276.5,217C 289.851,230.636 291.851,245.803 282.5,262.5 Z M 345.5,227.5 C 346.906,227.027 347.573,226.027 347.5,224.5C 348.906,224.027 349.573,223.027 349.5,221.5C 351.167,220.5 352.5,219.167 353.5,217.5C 354.833,217.5 355.5,216.833 355.5,215.5C 373.019,206.218 388.519,208.884 402,223.5C 411.601,241.436 408.768,256.936 393.5,270C 377.646,278.65 363.146,276.817 350,264.5C 341.822,253.045 340.322,240.711 345.5,227.5 Z"/></g>
<g><path style="opacity:0.039" fill="#2a2a2a" d="M 122.5,44.5 C 121.994,46.1054 121.327,46.4387 120.5,45.5C 120.842,44.6618 121.508,44.3284 122.5,44.5 Z"/></g>
<g><path style="opacity:0.035" fill="#323232" d="M 107.5,53.5 C 107.167,54.5 106.5,55.1667 105.5,55.5C 105.5,54.1667 106.167,53.5 107.5,53.5 Z"/></g>
<g><path style="opacity:0.035" fill="#2d2d2d" d="M 101.5,57.5 C 101.167,58.5 100.5,59.1667 99.5,59.5C 99.5,58.1667 100.167,57.5 101.5,57.5 Z"/></g>
<g><path style="opacity:0.039" fill="#333333" d="M 94.5,62.5 C 94.1667,63.5 93.5,64.1667 92.5,64.5C 92.5,63.1667 93.1667,62.5 94.5,62.5 Z"/></g>
<g><path style="opacity:0.035" fill="#363636" d="M 90.5,65.5 C 90.1667,66.5 89.5,67.1667 88.5,67.5C 88.5,66.1667 89.1667,65.5 90.5,65.5 Z"/></g>
<g><path style="opacity:0.027" fill="#303030" d="M 80.5,73.5 C 79.7377,75.2624 78.4044,76.2624 76.5,76.5C 77.2623,74.7376 78.5956,73.7376 80.5,73.5 Z"/></g>
<g><path style="opacity:0.039" fill="#2e2e2e" d="M 71.5,81.5 C 67.1667,86.5 62.5,91.1667 57.5,95.5C 61.1667,89.8333 65.8333,85.1667 71.5,81.5 Z"/></g>
<g><path style="opacity:0.039" fill="#1e1e1e" d="M 52.5,100.5 C 52.573,102.027 51.9063,103.027 50.5,103.5C 50.427,101.973 51.0937,100.973 52.5,100.5 Z"/></g>
<g><path style="opacity:0.035" fill="#252525" d="M 47.5,106.5 C 47.573,108.027 46.9063,109.027 45.5,109.5C 45.427,107.973 46.0937,106.973 47.5,106.5 Z"/></g>
<g><path style="opacity:0.02" fill="#2a2a2a" d="M 41.5,115.5 C 41.1667,116.5 40.5,117.167 39.5,117.5C 39.5,116.167 40.1667,115.5 41.5,115.5 Z"/></g>
<g><path style="opacity:0.047" fill="#262626" d="M 36.5,122.5 C 36.1667,123.5 35.5,124.167 34.5,124.5C 34.5,123.167 35.1667,122.5 36.5,122.5 Z"/></g>
<g><path style="opacity:0.006" fill="#151515" d="M 23.5,143.5 C 22.3411,147.151 20.6744,150.485 18.5,153.5C 19.1266,149.58 20.7933,146.247 23.5,143.5 Z"/></g>
<g><path style="opacity:0.417" fill="#8c8c8c" d="M 503.5,182.5 C 504.738,184.214 505.405,186.214 505.5,188.5C 503.692,187.082 503.025,185.082 503.5,182.5 Z"/></g>
<g><path style="opacity:0.004" fill="#292929" d="M 116.5,215.5 C 116.5,216.833 115.833,217.5 114.5,217.5C 114.833,216.5 115.5,215.833 116.5,215.5 Z"/></g>
<g><path style="opacity:0.004" fill="#222222" d="M 355.5,215.5 C 355.5,216.833 354.833,217.5 353.5,217.5C 353.833,216.5 354.5,215.833 355.5,215.5 Z"/></g>
<g><path style="opacity:0.004" fill="#141414" d="M 234.5,217.5 C 233.5,219.167 232.167,220.5 230.5,221.5C 230.833,219.167 232.167,217.833 234.5,217.5 Z"/></g>
<g><path style="opacity:0.004" fill="#202020" d="M 349.5,221.5 C 349.573,223.027 348.906,224.027 347.5,224.5C 347.427,222.973 348.094,221.973 349.5,221.5 Z"/></g>
<g><path style="opacity:0.004" fill="#1c1c1c" d="M 347.5,224.5 C 347.573,226.027 346.906,227.027 345.5,227.5C 345.427,225.973 346.094,224.973 347.5,224.5 Z"/></g>
<g><path style="opacity:0.051" fill="#262626" d="M 164.5,259.5 C 164.573,261.027 163.906,262.027 162.5,262.5C 162.427,260.973 163.094,259.973 164.5,259.5 Z"/></g>
<g><path style="opacity:0.024" fill="#262626" d="M 282.5,262.5 C 282.167,263.5 281.5,264.167 280.5,264.5C 280.5,263.167 281.167,262.5 282.5,262.5 Z"/></g>
<g><path style="opacity:0.051" fill="#202020" d="M 160.5,264.5 C 160.5,265.833 159.833,266.5 158.5,266.5C 158.833,265.5 159.5,264.833 160.5,264.5 Z"/></g>
<g><path style="opacity:0.351" fill="#919191" d="M 147.5,273.5 C 146.082,275.308 144.082,275.975 141.5,275.5C 143.302,274.542 145.302,273.875 147.5,273.5 Z"/></g>
<g><path style="opacity:0.004" fill="#0f0f0f" d="M 482.5,352.5 C 482.167,353.5 481.5,354.167 480.5,354.5C 480.5,353.167 481.167,352.5 482.5,352.5 Z"/></g>
<g><path style="opacity:0.004" fill="#2b2b2b" d="M 472.5,366.5 C 472.5,367.833 471.833,368.5 470.5,368.5C 470.833,367.5 471.5,366.833 472.5,366.5 Z"/></g>
<g><path style="opacity:0.004" fill="#202020" d="M 466.5,374.5 C 466.573,376.027 465.906,377.027 464.5,377.5C 464.427,375.973 465.094,374.973 466.5,374.5 Z"/></g>
<g><path style="opacity:0.004" fill="#1b1b1b" d="M 462.5,379.5 C 462.573,381.027 461.906,382.027 460.5,382.5C 460.427,380.973 461.094,379.973 462.5,379.5 Z"/></g>
<g><path style="opacity:0.004" fill="#171717" d="M 456.5,386.5 C 456.262,388.404 455.262,389.738 453.5,390.5C 453.738,388.596 454.738,387.262 456.5,386.5 Z"/></g>
<g><path style="opacity:0.004" fill="#1a1a1a" d="M 439.5,404.5 C 438.415,406.587 436.749,407.92 434.5,408.5C 435.585,406.413 437.251,405.08 439.5,404.5 Z"/></g>
<g><path style="opacity:0.004" fill="#1c1c1c" d="M 431.5,411.5 C 431.027,412.906 430.027,413.573 428.5,413.5C 428.973,412.094 429.973,411.427 431.5,411.5 Z"/></g>
<g><path style="opacity:0.004" fill="#282828" d="M 425.5,415.5 C 425.5,416.833 424.833,417.5 423.5,417.5C 423.833,416.5 424.5,415.833 425.5,415.5 Z"/></g>
<g><path style="opacity:0.004" fill="#222222" d="M 420.5,419.5 C 420.5,420.833 419.833,421.5 418.5,421.5C 418.833,420.5 419.5,419.833 420.5,419.5 Z"/></g>
<g><path style="opacity:0.004" fill="#1f1f1f" d="M 413.5,424.5 C 413.5,425.833 412.833,426.5 411.5,426.5C 411.833,425.5 412.5,424.833 413.5,424.5 Z"/></g>
<g><path style="opacity:0.004" fill="#171717" d="M 405.5,430.5 C 405.027,431.906 404.027,432.573 402.5,432.5C 402.973,431.094 403.973,430.427 405.5,430.5 Z"/></g>
<g><path style="opacity:0.016" fill="#343434" d="M 374.5,447.5 C 373.713,449.104 372.38,449.771 370.5,449.5C 371.514,448.326 372.847,447.66 374.5,447.5 Z"/></g>
<g><path style="opacity:0.051" fill="#313131" d="M 15.5,463.5 C 15.573,465.027 14.9063,466.027 13.5,466.5C 13.427,464.973 14.0937,463.973 15.5,463.5 Z"/></g>
<g><path style="opacity:0.024" fill="#242424" d="M 8.5,474.5 C 8.57298,476.027 7.90632,477.027 6.5,477.5C 6.42702,475.973 7.09368,474.973 8.5,474.5 Z"/></g>
<g><path style="opacity:0.043" fill="#262626" d="M 3.5,480.5 C 3.26242,482.404 2.26242,483.738 0.5,484.5C 0.737579,482.596 1.73758,481.262 3.5,480.5 Z"/></g>
</svg>
