<?xml version="1.0" encoding="UTF-8"?>
<svg version="1.1" xmlns="http://www.w3.org/2000/svg" width="512" height="512">
<path d="M0 0 C2.02960228 -0.00322114 4.05920434 -0.00658583 6.08880615 -0.01008606 C10.32825254 -0.01604612 14.56767863 -0.01792918 18.80712891 -0.01733398 C24.19728577 -0.01723252 29.58731045 -0.0308829 34.97743607 -0.04810619 C39.16602152 -0.05931034 43.35457585 -0.06125063 47.54317474 -0.06072426 C49.52837326 -0.0618918 51.51357292 -0.06624327 53.49875641 -0.07405663 C80.68890257 -0.17106573 104.01817885 3.46939437 124.32421875 23.31640625 C142.0721074 41.90458231 146.19010162 63.56450343 146.20800781 88.32885742 C146.21264562 89.83619811 146.21767155 91.34353764 146.22305298 92.85087585 C146.2360762 96.91673932 146.24260068 100.98258637 146.24706364 105.0484674 C146.25000746 107.59238066 146.25411439 110.13628954 146.25856781 112.68020058 C146.27220887 120.65131074 146.28189513 128.62241077 146.2857697 136.59353179 C146.29025868 145.77541837 146.3078596 154.9571567 146.3367703 164.13899821 C146.3583933 171.25432773 146.36847412 178.36961552 146.36981082 185.48497754 C146.37085731 189.7278229 146.37673343 193.97052825 146.39463043 198.21333885 C146.41112452 202.2000758 146.41326024 206.18656755 146.40449142 210.17332649 C146.40372208 211.63299085 146.40805022 213.09266851 146.41794968 214.5522995 C146.51822832 230.26269627 146.51822832 230.26269627 140.546875 236.98046875 C135.75593803 241.17253859 132.52175047 241.45972592 126.38116455 241.44212341 C125.48515872 241.44736009 124.58915288 241.45259677 123.66599536 241.45799214 C120.65130904 241.47304292 117.63679169 241.47369841 114.62207031 241.47436523 C112.46552238 241.48198338 110.30897717 241.49041028 108.1524353 241.49958801 C102.28455628 241.52157578 96.41672939 241.53033784 90.54881382 241.53541446 C86.8841267 241.53905344 83.21945332 241.54529114 79.55477142 241.55241585 C66.77348732 241.57692665 53.9922439 241.58996545 41.2109375 241.59350586 C29.29177686 241.59714084 17.37287377 241.62702959 5.45379186 241.66891044 C-4.77390324 241.70358991 -15.0015129 241.71905391 -25.22926641 241.71975189 C-31.34015431 241.7205456 -37.45078012 241.72932733 -43.56160736 241.75774956 C-49.31053216 241.78388924 -55.05897681 241.78615797 -60.80793381 241.77009392 C-62.91745677 241.76827609 -65.02700707 241.77500008 -67.13647079 241.79091263 C-70.01804367 241.81132322 -72.89792884 241.80085051 -75.77947998 241.78269958 C-76.61305236 241.79589955 -77.44662473 241.80909952 -78.30545688 241.82269949 C-84.11932663 241.73913521 -87.72131735 240.18858196 -91.953125 236.16796875 C-95.60186937 231.18135144 -96.07775421 226.97372792 -96.08683777 220.89675903 C-96.09110275 219.60729874 -96.09536774 218.31783844 -96.09976196 216.98930359 C-96.09941244 215.56204221 -96.09895091 214.13478085 -96.09838867 212.70751953 C-96.1013814 211.20256975 -96.10478419 209.69762073 -96.10856628 208.19267273 C-96.11740494 204.10325292 -96.11974451 200.01385404 -96.12038207 195.9244256 C-96.12109334 193.36474421 -96.12322927 190.80506811 -96.12587929 188.24538803 C-96.13513651 179.30095839 -96.13921423 170.35654365 -96.13842773 161.41210938 C-96.13782878 153.10075644 -96.14834365 144.7894688 -96.1641714 136.47813237 C-96.17730101 129.32629663 -96.18260928 122.17448207 -96.18197232 115.02263439 C-96.18171867 110.75883178 -96.18449553 106.49508705 -96.19515038 102.23129654 C-96.20492138 98.21100393 -96.20484971 94.19082336 -96.19763374 90.1705265 C-96.19659856 88.70574973 -96.19888628 87.24096565 -96.2049942 85.77620125 C-96.28570309 65.05556537 -92.5281381 47.53048839 -80.953125 30.16796875 C-80.293125 30.16796875 -79.633125 30.16796875 -78.953125 30.16796875 C-78.7159375 29.43191406 -78.47875 28.69585937 -78.234375 27.9375 C-76.7555123 24.74081203 -75.10937263 23.14518871 -72.453125 20.85546875 C-71.6590625 20.15808594 -70.865 19.46070313 -70.046875 18.7421875 C-67.953125 17.16796875 -67.953125 17.16796875 -65.953125 17.16796875 C-65.953125 16.50796875 -65.953125 15.84796875 -65.953125 15.16796875 C-58.00478279 10.25775465 -50.20667301 5.82044061 -41.203125 3.16796875 C-40.55609619 2.97307861 -39.90906738 2.77818848 -39.24243164 2.57739258 C-26.60470297 -0.86640029 -12.98070178 0.0048759 0 0 Z " fill="#FCFCFC" transform="translate(230.953125,232.83203125)"/>
<path d="M0 0 C20.46796724 15.1881231 33.44611349 34.89305872 38.22802734 59.87158203 C41.77533057 83.91732385 36.11814123 106.36376123 23.140625 126.6484375 C22.64046875 127.28007812 22.1403125 127.91171875 21.625 128.5625 C20.965 128.5625 20.305 128.5625 19.625 128.5625 C19.46 129.243125 19.295 129.92375 19.125 130.625 C17.24796101 134.30086802 14.80599149 136.23849707 11.66015625 138.84765625 C9.90668223 140.32515163 8.32596056 141.83936097 6.75 143.5 C4.625 145.5625 4.625 145.5625 2.625 145.5625 C2.625 146.2225 2.625 146.8825 2.625 147.5625 C-16.35049564 161.98907545 -41.18078816 167.02164731 -64.54296875 164.09375 C-87.63891142 160.61014447 -109.48739115 147.50668165 -123.65478516 128.87988281 C-138.39919249 108.10182474 -144.51016837 83.70878121 -140.87890625 58.3984375 C-138.05266459 44.25126173 -131.9517825 28.62720068 -122.375 17.5625 C-121.715 17.5625 -121.055 17.5625 -120.375 17.5625 C-120.1378125 16.82644531 -119.900625 16.09039062 -119.65625 15.33203125 C-118.1773873 12.13534328 -116.53124763 10.53971996 -113.875 8.25 C-113.0809375 7.55261719 -112.286875 6.85523437 -111.46875 6.13671875 C-109.375 4.5625 -109.375 4.5625 -107.375 4.5625 C-107.375 3.9025 -107.375 3.2425 -107.375 2.5625 C-106.055 2.2325 -104.735 1.9025 -103.375 1.5625 C-103.375 0.9025 -103.375 0.2425 -103.375 -0.4375 C-102.385 -0.4375 -101.395 -0.4375 -100.375 -0.4375 C-100.375 -1.0975 -100.375 -1.7575 -100.375 -2.4375 C-67.79235352 -20.10340364 -31.30360448 -21.03210926 0 0 Z " fill="#FBFBFB" transform="translate(307.375,53.4375)"/>
<path d="M0 0 C1.07345673 0.0028299 2.14691345 0.00565979 3.25289917 0.00857544 C6.64528055 0.01967428 10.03738737 0.04475936 13.4296875 0.0703125 C15.74478782 0.08035562 18.05989233 0.08947912 20.375 0.09765625 C26.01832114 0.11957977 31.6614847 0.15295318 37.3046875 0.1953125 C38.59974592 4.08048775 37.53996192 6.72479138 36.4296875 10.5078125 C34.40687152 17.55976751 33.17993131 23.99793935 33.17770386 31.36155701 C33.17614387 32.06003205 33.17458388 32.75850709 33.17297661 33.47814804 C33.16900475 35.80633599 33.17214144 38.13445812 33.17529297 40.46264648 C33.17393722 42.1368819 33.17215632 43.81111701 33.16998291 45.48535156 C33.16542885 50.02458515 33.16718991 54.56379598 33.170362 59.10302997 C33.17289647 63.85767347 33.17054498 68.61231504 33.16897583 73.36695862 C33.16715714 81.35214589 33.16955239 89.3373239 33.17431641 97.32250977 C33.17975658 106.54742787 33.17799693 115.77232387 33.17249 124.99724144 C33.1679481 132.92352278 33.16731366 140.84979749 33.16992867 148.77607971 C33.17148575 153.50742045 33.17170083 158.2387508 33.16839218 162.97009087 C33.16549791 167.41962847 33.16751777 171.86913764 33.17328644 176.31867218 C33.17460577 177.94925705 33.17423399 179.57984433 33.17202377 181.21042824 C33.16927965 183.44101229 33.17273313 185.67150601 33.17770386 187.90208435 C33.17808088 189.14885169 33.17845791 190.39561903 33.17884636 191.6801672 C33.30659845 195.24869149 33.73525449 198.67248943 34.3046875 202.1953125 C31.35661846 203.66934702 28.74966825 203.30092705 25.45922852 203.28051758 C24.40264793 203.27574402 24.40264793 203.27574402 23.32472229 203.27087402 C20.98592745 203.25824743 18.64731328 203.23736025 16.30859375 203.21484375 C15.50774794 203.20788671 14.70690212 203.20092968 13.88178825 203.19376183 C9.63505992 203.1563116 5.38845505 203.11229618 1.1418457 203.06323242 C-3.22218764 203.01414046 -7.58603992 202.98776495 -11.95028591 202.96680164 C-15.32306776 202.94629922 -18.69550073 202.90837042 -22.06807137 202.865942 C-23.674962 202.8487253 -25.28193607 202.83793543 -26.88891411 202.83399391 C-42.03891838 202.78598981 -53.646854 199.73578737 -64.921875 189.09375 C-71.17787015 182.46286375 -76.79239204 174.08083988 -76.84248352 164.7013092 C-76.84963882 163.78055603 -76.85679413 162.85980286 -76.86416626 161.91114807 C-76.86685516 160.90285446 -76.86954407 159.89456085 -76.87231445 158.85571289 C-76.87888565 157.79190399 -76.88545685 156.72809509 -76.89222717 155.63204956 C-76.91197656 152.10235525 -76.92362952 148.57270362 -76.93359375 145.04296875 C-76.93766928 143.83608335 -76.9417448 142.62919796 -76.94594383 141.38574028 C-76.96681647 134.99178106 -76.98111026 128.59784335 -76.99047852 122.20385742 C-77.00151561 115.61683857 -77.0358813 109.03016008 -77.07565022 102.44326115 C-77.10187646 97.36524351 -77.11017596 92.287306 -77.11375999 87.20922661 C-77.11861426 84.78250277 -77.13019489 82.35578222 -77.14879799 79.92912483 C-77.17330527 76.51896913 -77.17220232 73.10968081 -77.1652832 69.69946289 C-77.17809326 68.70938736 -77.19090332 67.71931183 -77.20410156 66.69923401 C-77.13189737 56.8610328 -73.97567719 48.09419054 -69.4453125 39.4453125 C-68.92453125 38.43984375 -68.40375 37.434375 -67.8671875 36.3984375 C-67.48046875 35.67140625 -67.09375 34.944375 -66.6953125 34.1953125 C-66.0353125 34.1953125 -65.3753125 34.1953125 -64.6953125 34.1953125 C-64.6953125 33.2053125 -64.6953125 32.2153125 -64.6953125 31.1953125 C-64.0353125 31.1953125 -63.3753125 31.1953125 -62.6953125 31.1953125 C-62.5096875 30.4940625 -62.3240625 29.7928125 -62.1328125 29.0703125 C-60.45852125 25.72172999 -58.54070791 24.11122078 -55.64453125 21.8203125 C-53.55520213 20.13717678 -53.55520213 20.13717678 -51.3359375 17.7578125 C-37.79768162 4.62009673 -18.33503606 -0.18551684 0 0 Z " fill="#FAFAFA" transform="translate(76.6953125,271.8046875)"/>
<path d="M0 0 C6.80935536 -0.10274931 13.61850569 -0.17202106 20.4284668 -0.21972656 C22.73746205 -0.23964693 25.04640817 -0.26679324 27.35522461 -0.30175781 C51.59272442 -0.65919654 72.31796397 2.04435674 91 19 C91.84304688 19.75023437 92.68609375 20.50046875 93.5546875 21.2734375 C104.08864277 31.16703075 114.20583479 46.27734286 115.13701439 61.19499302 C115.14258669 61.99557101 115.14815899 62.79614901 115.15390015 63.62098694 C115.16250061 64.54455994 115.17110107 65.46813293 115.17996216 66.41969299 C115.18422211 67.42596237 115.18848206 68.43223175 115.19287109 69.46899414 C115.20513733 71.06733597 115.20513733 71.06733597 115.21765137 72.69796753 C115.2424772 76.22702477 115.25901645 79.75604178 115.2734375 83.28515625 C115.27876118 84.49237272 115.28408485 85.6995892 115.28956985 86.94338799 C115.31629228 93.33619425 115.33566806 99.72898107 115.35009766 106.12182617 C115.36342392 111.40325285 115.39125462 116.684292 115.43212891 121.96557617 C115.48154123 128.35040729 115.50622975 134.7348875 115.51332474 141.11990166 C115.52002261 143.54746772 115.5352062 145.97502641 115.55921555 148.40248299 C115.59099356 151.81048044 115.59088391 155.21713615 115.58349609 158.62524414 C115.59990143 159.6173439 115.61630676 160.60944366 115.63320923 161.63160706 C115.56784999 169.04331256 113.45995726 174.49412663 110 181 C109.67 181.66 109.34 182.32 109 183 C108.34 183 107.68 183 107 183 C106.814375 183.70125 106.62875 184.4025 106.4375 185.125 C103.3730631 191.25387379 97.05904082 195.1136609 91 198 C90.28788864 198.3421051 89.57577728 198.68421021 88.84208679 199.03668213 C80.17953298 202.67205244 71.73332634 202.6045974 62.51953125 202.609375 C60.85371821 202.62438379 59.18791989 202.64111653 57.5221405 202.65948486 C53.17393243 202.70286821 48.82592497 202.72309243 44.47753906 202.73822021 C40.02592242 202.75789688 35.57451918 202.79985442 31.12304688 202.83984375 C22.4154209 202.91483088 13.70787941 202.96531203 5 203 C4.22170802 200.66512406 3.95302079 199.22380656 4.46387863 196.79010582 C5.09792051 193.49039786 5.13231017 190.40697351 5.14044189 187.04580688 C5.14341302 186.35791435 5.14638414 185.67002181 5.1494453 184.96128404 C5.15809771 182.66249072 5.15963765 180.3637497 5.16113281 178.06494141 C5.1657637 176.41368499 5.17078872 174.76242965 5.17617798 173.11117554 C5.18928406 168.62713679 5.19574427 164.143113 5.20018864 159.65905809 C5.20312424 156.85228685 5.20723012 154.04551966 5.21169281 151.23875046 C5.22536741 142.44214161 5.23503239 133.64554206 5.2388947 124.84892333 C5.24336561 114.72357382 5.26086861 104.59835996 5.2898953 94.47305167 C5.31159174 86.62989106 5.32160333 78.78676839 5.32293582 70.94357812 C5.32397881 66.26780944 5.32977724 61.59216828 5.34775543 56.91643143 C5.36437272 52.50868516 5.36632621 48.10116035 5.35761642 43.69339371 C5.3568531 42.08712669 5.36109409 40.48084709 5.37107468 38.8746109 C5.43166193 28.5045415 4.3945447 19.10710882 2 9 C1.60266773 7.187828 1.20659529 5.3753787 0.8125 3.5625 C0.544375 2.386875 0.27625 1.21125 0 0 Z " fill="#FAFAFA" transform="translate(397,272)"/>
<path d="M0 0 C13.5862992 12.80993924 21.09157562 30.58969341 21.6875 49.1875 C21.36722847 63.7692744 17.15433984 78.64303334 8.375 90.4375 C7.715 90.4375 7.055 90.4375 6.375 90.4375 C6.21 91.118125 6.045 91.79875 5.875 92.5 C3.68508067 96.78859203 0.25499001 99.63259056 -3.625 102.4375 C-4.285 102.4375 -4.945 102.4375 -5.625 102.4375 C-5.625 103.0975 -5.625 103.7575 -5.625 104.4375 C-20.06614598 115.11372897 -39.01578071 119.66067505 -56.73339844 117.13720703 C-69.94401474 114.69252674 -81.52766573 109.34151295 -91.625 100.4375 C-92.37523438 99.78136719 -93.12546875 99.12523437 -93.8984375 98.44921875 C-106.3330585 86.84215785 -113.71643953 70.87227946 -114.86328125 53.9140625 C-115.25634071 33.51634551 -108.99244818 15.4141686 -94.625 0.4375 C-90.02838983 -3.5625 -90.02838983 -3.5625 -87.625 -3.5625 C-87.625 -4.2225 -87.625 -4.8825 -87.625 -5.5625 C-57.62937489 -22.65544266 -27.34772963 -23.16960427 0 0 Z " fill="#FAFAFA" transform="translate(146.625,138.5625)"/>
<path d="M0 0 C15.09332249 13.07076671 24.35009166 29.31028756 25.80078125 49.4296875 C26.11162437 64.3828777 22.37084969 76.87141261 15.5625 90.125 C14.9025 90.125 14.2425 90.125 13.5625 90.125 C13.45808594 90.70765625 13.35367188 91.2903125 13.24609375 91.890625 C12.45956383 94.46145423 11.38684109 95.8590058 9.625 97.875 C8.83802734 98.79539063 8.83802734 98.79539063 8.03515625 99.734375 C6.5625 101.125 6.5625 101.125 4.5625 101.125 C4.335625 101.74375 4.10875 102.3625 3.875 103 C2.18320165 105.73910209 0.57005839 106.17524472 -2.4375 107.125 C-2.4375 107.785 -2.4375 108.445 -2.4375 109.125 C-21.27511353 119.44560741 -39.3842487 124.64691094 -60.70556641 118.96191406 C-71.47566678 115.80254255 -80.09294555 110.53915117 -88.4375 103.125 C-89.07429688 102.57070312 -89.71109375 102.01640625 -90.3671875 101.4453125 C-103.03937335 89.67425986 -109.16918299 72.90274501 -110.72265625 56.02734375 C-111.13463127 42.71875951 -107.50388305 30.83531604 -101.4375 19.125 C-100.76995223 17.79210758 -100.10289288 16.45896946 -99.4375 15.125 C-98.7775 15.125 -98.1175 15.125 -97.4375 15.125 C-97.1075 13.805 -96.7775 12.485 -96.4375 11.125 C-95.7775 11.125 -95.1175 11.125 -94.4375 11.125 C-94.23125 10.58875 -94.025 10.0525 -93.8125 9.5 C-91.90499574 6.20521991 -89.38930616 3.53136372 -86.4375 1.125 C-85.7775 1.125 -85.1175 1.125 -84.4375 1.125 C-84.4375 0.465 -84.4375 -0.195 -84.4375 -0.875 C-83.1175 -1.205 -81.7975 -1.535 -80.4375 -1.875 C-80.4375 -2.535 -80.4375 -3.195 -80.4375 -3.875 C-53.64897194 -18.59397146 -24.62342529 -18.76251726 0 0 Z " fill="#FAFAFA" transform="translate(454.4375,134.875)"/>
</svg>
