<?xml version="1.0" encoding="UTF-8"?>
<svg version="1.1" xmlns="http://www.w3.org/2000/svg" width="512" height="512">
<path d="M0 0 C1.04188477 0.21962402 2.08376953 0.43924805 3.15722656 0.66552734 C45.96186497 10.00219824 87.0036596 29.78123407 119 60 C120.26661866 61.08825807 121.53740846 62.17168185 122.8125 63.25 C132.44370134 71.67242708 141.15498886 80.8974317 149 91 C149.79921875 92.00546875 150.5984375 93.0109375 151.421875 94.046875 C178.69286739 128.57486908 196.41728657 169.47256236 203 213 C203.17660156 214.12245117 203.35320312 215.24490234 203.53515625 216.40136719 C205.1920586 228.01447743 205.39873513 239.53179945 205.375 251.25 C205.37418427 252.76802216 205.37418427 252.76802216 205.37335205 254.31671143 C205.3326051 270.85117395 204.40886907 286.77064864 201 303 C200.79101074 304.01529785 200.58202148 305.0305957 200.36669922 306.07666016 C191.27331578 348.87346026 171.14438589 390.08241494 141 422 C139.91174193 423.26661866 138.82831815 424.53740846 137.75 425.8125 C129.32757292 435.44370134 120.1025683 444.15498886 110 452 C108.99453125 452.79921875 107.9890625 453.5984375 106.953125 454.421875 C72.42513092 481.69286739 31.52743764 499.41728657 -12 506 C-13.12245117 506.17660156 -14.24490234 506.35320312 -15.40136719 506.53515625 C-27.01447743 508.1920586 -38.53179945 508.39873513 -50.25 508.375 C-51.76802216 508.37418427 -51.76802216 508.37418427 -53.31671143 508.37335205 C-69.85117395 508.3326051 -85.77064864 507.40886907 -102 504 C-103.52294678 503.68651611 -103.52294678 503.68651611 -105.07666016 503.36669922 C-147.87346026 494.27331578 -189.08241494 474.14438589 -221 444 C-222.26661866 442.91174193 -223.53740846 441.82831815 -224.8125 440.75 C-234.44370134 432.32757292 -243.15498886 423.1025683 -251 413 C-251.79921875 411.99453125 -252.5984375 410.9890625 -253.421875 409.953125 C-289.10871109 364.76977239 -307.53092762 309.73794666 -307.3125 252.375 C-307.31034485 251.35709381 -307.3081897 250.33918762 -307.30596924 249.29043579 C-307.25629854 234.68136477 -307.00540191 220.34924147 -304 206 C-303.80132324 205.02514648 -303.60264648 204.05029297 -303.39794922 203.04589844 C-294.02651426 158.24552546 -274.64791844 115.5095607 -243 82 C-241.91174193 80.73338134 -240.82831815 79.46259154 -239.75 78.1875 C-231.32757292 68.55629866 -222.1025683 59.84501114 -212 52 C-210.99453125 51.20078125 -209.9890625 50.4015625 -208.953125 49.578125 C-176.23388549 23.73865159 -137.94048479 6.75666978 -97 -1 C-96.19062988 -1.16371094 -95.38125977 -1.32742188 -94.54736328 -1.49609375 C-64.53035549 -7.36253097 -29.83671916 -6.30776278 0 0 Z M-212.8125 94.5625 C-218.27041106 100.07238343 -223.28365974 105.8375345 -228 112 C-228.43022461 112.55913086 -228.86044922 113.11826172 -229.30371094 113.69433594 C-236.23440109 122.74997864 -242.36867024 132.08928046 -248 142 C-248.33596191 142.57621094 -248.67192383 143.15242188 -249.01806641 143.74609375 C-265.46218204 172.03221757 -275.92551867 207.24849096 -276.23828125 240.0546875 C-276.2480751 240.9054184 -276.25786896 241.75614929 -276.26795959 242.63265991 C-276.6615751 285.72853627 -269.89284618 336.84996534 -242 372 C-238.64176217 372 -238.14240079 371.62604515 -235.59375 369.65625 C-234.93697266 369.15512695 -234.28019531 368.65400391 -233.60351562 368.13769531 C-232.90935547 367.59725586 -232.21519531 367.05681641 -231.5 366.5 C-230.06299984 365.40038816 -228.62549718 364.30143269 -227.1875 363.203125 C-226.47980469 362.65978516 -225.77210938 362.11644531 -225.04296875 361.55664062 C-220.75521992 358.28958917 -216.37371375 355.15055652 -212 352 C-212.19916016 351.11248047 -212.19916016 351.11248047 -212.40234375 350.20703125 C-212.57894531 349.41683594 -212.75554687 348.62664062 -212.9375 347.8125 C-213.11152344 347.03519531 -213.28554687 346.25789063 -213.46484375 345.45703125 C-213.64144531 344.64621094 -213.81804687 343.83539063 -214 343 C-214.1730022 342.24610741 -214.34600439 341.49221481 -214.52424908 340.71547699 C-215.03675547 337.79020821 -215.13479805 335.06493106 -215.14717102 332.09533691 C-215.15432632 330.9124408 -215.16148163 329.72954468 -215.16885376 328.51080322 C-215.17154266 327.22139832 -215.17423157 325.93199341 -215.17700195 324.60351562 C-215.18327217 323.22487214 -215.18991946 321.84623033 -215.19691467 320.46759033 C-215.21789943 315.94715539 -215.2283151 311.42672035 -215.23828125 306.90625 C-215.24233156 305.34482303 -215.24644856 303.78339623 -215.25063133 302.2219696 C-215.2696745 294.88087748 -215.28390468 287.53979532 -215.2922433 280.19868326 C-215.30199838 271.75196911 -215.32827613 263.30551822 -215.36874419 254.85889673 C-215.39901654 248.31342183 -215.41372284 241.76802188 -215.41702431 235.22247839 C-215.41936306 231.32136168 -215.428168 227.42052646 -215.45348549 223.51948547 C-215.47696554 219.84216731 -215.48092071 216.16531196 -215.47072411 212.48793793 C-215.47000176 210.51639302 -215.48895391 208.54487055 -215.50878906 206.57342529 C-215.41486563 190.26820828 -209.62618524 176.11600817 -198.4140625 164.28515625 C-190.07940256 156.39555096 -178.61036253 149.3261125 -167 148 C-164.56239196 148.12067539 -162.12713366 148.29326016 -159.6953125 148.5 C-142.3549767 149.93408856 -142.3549767 149.93408856 -127.02825928 142.9163208 C-121.0238429 137.58557927 -115.63957491 131.57355251 -110.66236877 125.27810669 C-107.6353558 121.47683799 -104.96252914 118.40766925 -99.94152164 117.71673584 C-97.35556433 117.58764566 -94.78525705 117.56039609 -92.19604492 117.56420898 C-90.72192894 117.54909523 -90.72192894 117.54909523 -89.21803284 117.53367615 C-85.97206212 117.50520022 -82.72655657 117.49931955 -79.48046875 117.49609375 C-77.21991282 117.48645181 -74.95935876 117.47635927 -72.69880676 117.46583557 C-67.96021181 117.44787466 -63.22178089 117.44231446 -58.4831543 117.4440918 C-52.42014639 117.4443965 -46.35819382 117.40345419 -40.29543591 117.35177517 C-35.62587177 117.31836688 -30.95656143 117.31233563 -26.28689003 117.31392097 C-24.05222247 117.31038733 -21.81754789 117.29715393 -19.58299828 117.27392387 C-16.45196719 117.24442348 -13.32320882 117.25319211 -10.19213867 117.27124023 C-9.27498077 117.25438171 -8.35782288 117.23752319 -7.41287231 117.22015381 C-0.68432254 117.31837536 3.15626786 119.37649315 8 124 C10.47998047 126.79248047 10.47998047 126.79248047 12.6171875 129.6171875 C20.03462818 138.80184456 27.2503845 147.44016457 39.57421875 148.85546875 C50.27394712 149.68265842 64.11703287 149.73228672 72.9375 142.875 C74.46955461 141.49879885 75.91379812 140.07323907 77.34423828 138.59179688 C80.69362822 135.37179947 84.60239972 132.82088218 88.375 130.125 C89.99345073 128.93577501 91.6093531 127.7430739 93.22265625 126.546875 C94.01687988 125.95841797 94.81110352 125.36996094 95.62939453 124.76367188 C100.01812038 121.49856832 104.39024813 118.21107547 108.74951172 114.90673828 C112.42102561 112.13524911 116.14692894 109.51364207 120 107 C109.65295224 84.47413047 79.94213246 66.86444922 59 55 C58.40783691 54.6587207 57.81567383 54.31744141 57.20556641 53.96582031 C-24.863318 6.90849016 -128.43840141 21.9933243 -212.8125 94.5625 Z M138 131 C137.52804199 131.3717334 137.05608398 131.7434668 136.56982422 132.12646484 C128.28893031 138.63761113 120.00236183 145.1085478 111.39086914 151.17822266 C103.99719314 156.39296417 96.7436602 161.79827397 89.46875 167.17675781 C87.02310998 168.98293262 84.57461363 170.78515642 82.125 172.5859375 C74.72617172 178.02596622 67.33910393 183.47958156 60 189 C51.8501105 195.13028521 43.6397739 201.17710259 35.42333984 207.21777344 C31.44677482 210.14230746 27.47353729 213.07135433 23.5 216 C21.91668304 217.16668888 20.33334969 218.33335553 18.75 219.5 C17.96625 220.0775 17.1825 220.655 16.375 221.25 C-9.75 240.5 -9.75 240.5 -12.12573242 242.25048828 C-13.70668983 243.41543849 -15.28758192 244.58047734 -16.8684082 245.74560547 C-20.86255828 248.6892698 -24.8578843 251.63131346 -28.85546875 254.5703125 C-36.26019463 260.01636895 -43.65424366 265.47457766 -51 271 C-59.1498895 277.13028521 -67.3602261 283.17710259 -75.57666016 289.21777344 C-79.55322518 292.14230746 -83.52646271 295.07135433 -87.5 298 C-89.08331696 299.16668888 -90.66665031 300.33335553 -92.25 301.5 C-93.03375 302.0775 -93.8175 302.655 -94.625 303.25 C-120.75 322.5 -120.75 322.5 -123.12573242 324.25048828 C-124.70668983 325.41543849 -126.28758192 326.58047734 -127.8684082 327.74560547 C-131.86255828 330.6892698 -135.8578843 333.63131346 -139.85546875 336.5703125 C-147.26019463 342.01636895 -154.65424366 347.47457766 -162 353 C-170.14241649 359.12466407 -178.34553537 365.16541266 -186.5546875 371.20019531 C-189.01791932 373.01318902 -191.47814545 374.83018843 -193.9375 376.6484375 C-203.23246839 383.51742469 -212.56707459 390.32155036 -222 397 C-211.65295224 419.52586953 -181.94213246 437.13555078 -161 449 C-160.40783691 449.3412793 -159.81567383 449.68255859 -159.20556641 450.03417969 C-109.38219691 478.60231199 -47.87909083 485.03451892 7.3125 470.25 C53.51909711 457.22776101 96.62242664 430.38533104 126 392 C126.43022461 391.44086914 126.86044922 390.88173828 127.30371094 390.30566406 C134.23279478 381.25212017 140.38198199 371.91645504 146 362 C146.3412793 361.40783691 146.68255859 360.81567383 147.03417969 360.20556641 C158.24075317 340.66108777 165.52972604 319.16374692 170.25 297.1875 C170.40114258 296.48423584 170.55228516 295.78097168 170.70800781 295.05639648 C173.57074493 280.90588043 174.40701133 267.07837204 174.375 252.6875 C174.37445618 251.7651355 174.37391235 250.842771 174.37335205 249.89245605 C174.26424526 209.51945288 163.90466769 165.36334915 140 132 C139.34 131.67 138.68 131.34 138 131 Z M-105 200 C-120.61805412 215.99831978 -125.42694561 236.44314515 -125.22265625 258.05859375 C-125.00776178 266.70708263 -123.39831236 274.46003595 -119 282 C-115.03747654 280.23559279 -111.62657695 277.71146045 -108.125 275.1875 C-107.52558594 274.76146484 -106.92617187 274.33542969 -106.30859375 273.89648438 C-105.10964552 273.03693472 -103.92089034 272.16298351 -102.74291992 271.27490234 C-101 270 -101 270 -99.2199707 268.94775391 C-97.24300988 267.76002812 -97.24300988 267.76002812 -95 265 C-94.38861714 261.30198287 -94.68120386 257.72571454 -94.9375 254 C-95.3671283 241.30562473 -93.42361146 231.94429584 -84.9296875 221.9921875 C-76.17393119 212.95284394 -66.27811022 207.95090982 -53.60864258 207.40991211 C-45.06958356 207.29563177 -38.31231721 208.22048132 -30.53125 211.90625 C-27.84759549 213.2644354 -27.84759549 213.2644354 -24 213 C-21.76633548 211.77261161 -21.76633548 211.77261161 -19.55859375 210.04296875 C-18.72779297 209.42486328 -17.89699219 208.80675781 -17.04101562 208.16992188 C-16.18185547 207.51572266 -15.32269531 206.86152344 -14.4375 206.1875 C-13.57447266 205.54490234 -12.71144531 204.90230469 -11.82226562 204.24023438 C-6.67642091 200.39108677 -6.67642091 200.39108677 -2 196 C-31.09661955 167.61305409 -77.13151353 173.49486395 -105 200 Z " fill="#000000" transform="translate(307,4)"/>
<path d="M0 0 C2.27052609 7.26461785 2.29589512 14.16474564 2.29052734 21.73706055 C2.29652092 23.11614848 2.30332835 24.49523308 2.31088257 25.87431335 C2.32846852 29.60188449 2.33323489 33.32936365 2.33451414 37.05697227 C2.33594086 39.3922118 2.34022033 41.72742833 2.34550858 44.06266212 C2.36398652 52.22790624 2.37218226 60.39308528 2.37060547 68.55834961 C2.36940566 76.13940195 2.39048206 83.72016888 2.4220928 91.30114907 C2.44835076 97.83395704 2.45896875 104.36667236 2.45769465 110.89953262 C2.45718767 114.79052747 2.4627226 118.68126858 2.48405075 122.57221031 C2.50359388 126.23727859 2.50344971 129.90185532 2.48901749 133.56694221 C2.48597117 135.53128605 2.50249385 137.4956308 2.51989746 139.4598999 C2.40569694 155.81093256 -3.40571542 169.88379724 -14.66015625 181.71875 C-26.27152597 193.03935086 -40.17609606 199.35263681 -56.42797852 199.24050903 C-57.80417988 199.24307231 -57.80417988 199.24307231 -59.20818329 199.24568737 C-62.26517183 199.24896686 -65.32193812 199.238004 -68.37890625 199.22705078 C-70.57710261 199.22648633 -72.77529934 199.22680388 -74.97349548 199.22793579 C-80.92947653 199.228509 -86.88537681 199.2167598 -92.84133911 199.20278788 C-99.07000315 199.19027522 -105.29866909 199.18910959 -111.52734375 199.18673706 C-121.97804127 199.18122955 -132.42871119 199.16874184 -142.87939453 199.15087891 C-153.64078626 199.13250409 -164.40216995 199.11835544 -175.16357422 199.10986328 C-176.15957156 199.10907511 -176.15957156 199.10907511 -177.17569005 199.10827102 C-180.50697282 199.10566083 -183.83825564 199.10313796 -187.1695385 199.10064721 C-214.77971291 199.07974887 -242.38985437 199.04457599 -270 199 C-267.08870414 196.05835687 -264.27132693 193.30067071 -260.91796875 190.87109375 C-260.15935547 190.31744141 -259.40074219 189.76378906 -258.61914062 189.19335938 C-257.41547852 188.32420898 -257.41547852 188.32420898 -256.1875 187.4375 C-254.47221698 186.18680014 -252.75737986 184.93548853 -251.04296875 183.68359375 C-250.19009277 183.06210449 -249.3372168 182.44061523 -248.45849609 181.80029297 C-244.94927743 179.2305831 -241.47294372 176.61841212 -238 174 C-229.86841932 167.88192443 -221.67493821 161.84923763 -213.47607422 155.82177734 C-210.9211934 153.94201786 -208.36850066 152.05932175 -205.81640625 150.17578125 C-204.54373901 149.23677979 -204.54373901 149.23677979 -203.24536133 148.27880859 C-201.63166293 147.08807253 -200.01820262 145.89701373 -198.4050293 144.70556641 C-196.95135215 143.63346561 -195.49470565 142.56537559 -194.03466797 141.50195312 C-192.69413051 140.51239392 -191.36946299 139.50091096 -190.06298828 138.46679688 C-185.60844023 135.02165968 -185.60844023 135.02165968 -182.5859375 134.9140625 C-181.85632813 135.14867187 -181.12671875 135.38328125 -180.375 135.625 C-160.78450335 140.75865424 -141.01005006 136.76251067 -123.6484375 126.70703125 C-106.11632831 115.40683698 -95.30567147 99.01757104 -90.4140625 78.88671875 C-89.8852991 76.0004137 -89.8852991 76.0004137 -90.2734375 73.08203125 C-90.55282765 69.43550813 -90.43007922 67.40333393 -89 64 C-84.22737183 59.06691155 -78.22776261 55.43975752 -72.52294922 51.6875 C-68.90395394 49.26689855 -65.45600423 46.64547843 -62 44 C-60.6952 43.01664872 -59.38919301 42.03489712 -58.08203125 41.0546875 C-57.42154785 40.55936523 -56.76106445 40.06404297 -56.08056641 39.55371094 C-49.89466819 34.93424881 -43.66572222 30.37260589 -37.4453125 25.79980469 C-34.98208068 23.98681098 -32.52185455 22.16981157 -30.0625 20.3515625 C-25.38175712 16.89180193 -20.69447938 13.44109896 -16 10 C-15.28779297 9.47760742 -14.57558594 8.95521484 -13.84179688 8.41699219 C-11.87784047 6.98051419 -9.90886781 5.55128319 -7.9375 4.125 C-7.35959717 3.70186523 -6.78169434 3.27873047 -6.1862793 2.84277344 C-2.23119515 0 -2.23119515 0 0 0 Z " fill="#000000" transform="translate(419,192)"/>
</svg>
