<?xml version="1.0" standalone="no"?>
<!DOCTYPE svg PUBLIC "-//W3C//DTD SVG 20010904//EN"
 "http://www.w3.org/TR/2001/REC-SVG-20010904/DTD/svg10.dtd">
<svg version="1.0" xmlns="http://www.w3.org/2000/svg"
 width="512.000000pt" height="512.000000pt" viewBox="0 0 512.000000 512.000000"
 preserveAspectRatio="xMidYMid meet">

<g transform="translate(0.000000,512.000000) scale(0.100000,-0.100000)"
fill="#000000" stroke="none">
<path d="M2443 5105 c-76 -21 -141 -57 -200 -109 -104 -94 -153 -207 -153
-356 l0 -87 -77 -28 c-90 -31 -250 -110 -332 -162 -368 -235 -632 -618 -722
-1048 -29 -143 -39 -341 -39 -848 0 -441 -1 -459 -20 -498 -12 -22 -103 -124
-203 -227 -192 -196 -233 -251 -268 -348 -30 -84 -37 -238 -14 -324 55 -213
227 -382 433 -425 52 -12 169 -15 533 -15 l467 0 16 -74 c54 -241 235 -437
481 -522 70 -24 96 -28 205 -28 142 -1 211 14 325 69 185 89 336 280 380 480
l17 75 467 0 c367 0 480 3 534 15 205 43 377 212 432 425 25 94 16 242 -18
333 -39 100 -73 144 -268 344 -98 100 -187 199 -198 222 -20 39 -21 55 -21
498 -1 656 -14 806 -90 1036 -163 485 -563 883 -1042 1037 l-38 12 0 88 c0
149 -49 262 -153 356 -119 107 -286 149 -434 109z m173 -351 c39 -19 64 -59
64 -104 l0 -30 -120 0 -120 0 0 30 c0 45 24 85 62 103 42 21 71 21 114 1z
m194 -508 c252 -54 487 -181 660 -356 166 -168 273 -357 337 -598 l27 -97 6
-610 c6 -598 7 -611 29 -680 40 -122 74 -169 273 -372 122 -125 196 -208 208
-235 51 -112 -1 -248 -114 -299 -39 -18 -103 -19 -1677 -19 l-1635 0 -51 25
c-107 54 -153 184 -103 293 13 28 84 108 203 230 100 103 198 211 216 240 18
28 45 87 59 130 l26 77 6 610 6 610 27 97 c54 201 135 361 259 512 210 253
513 417 848 460 70 9 317 -3 390 -18z m95 -3643 c-9 -40 -50 -106 -87 -143
-144 -145 -372 -145 -516 0 -37 37 -78 103 -87 143 l-7 27 352 0 352 0 -7 -27z"/>
</g>
</svg>
