<?xml version="1.0" encoding="UTF-8"?>
<!DOCTYPE svg PUBLIC "-//W3C//DTD SVG 1.1//EN" "http://www.w3.org/Graphics/SVG/1.1/DTD/svg11.dtd">
<svg xmlns="http://www.w3.org/2000/svg" version="1.1" width="512px" height="512px" style="shape-rendering:geometricPrecision; text-rendering:geometricPrecision; image-rendering:optimizeQuality; fill-rule:evenodd; clip-rule:evenodd" xmlns:xlink="http://www.w3.org/1999/xlink">
<g><path style="opacity:0.968" fill="#000000" d="M -0.5,265.5 C -0.5,258.833 -0.5,252.167 -0.5,245.5C 1.28826,239.328 3.78826,233.328 7,227.5C 29.0394,194.459 56.2061,166.293 88.5,143C 80.3333,134.833 72.1667,126.667 64,118.5C 58.9198,110.871 58.2531,102.871 62,94.5C 69.8362,84.7899 79.3362,82.9566 90.5,89C 201,199.5 311.5,310 422,420.5C 428.655,434.203 425.155,444.37 411.5,451C 404.532,452.462 398.199,451.129 392.5,447C 378.653,432.986 364.653,419.153 350.5,405.5C 244.574,439.414 149.241,420.581 64.5,349C 42.4121,329.589 23.2455,307.755 7,283.5C 3.78826,277.672 1.28826,271.672 -0.5,265.5 Z M 116.5,171.5 C 134.965,189.465 153.299,207.632 171.5,226C 159.014,269.546 171.014,304.546 207.5,331C 232.049,345.548 257.882,348.381 285,339.5C 296.5,351 308,362.5 319.5,374C 251.225,392.389 186.892,383.056 126.5,346C 91.0453,323.545 61.8786,294.712 39,259.5C 38.3333,256.833 38.3333,254.167 39,251.5C 59.6066,219.727 85.44,193.061 116.5,171.5 Z M 205.5,260.5 C 220.632,275.131 235.632,289.965 250.5,305C 228.48,301.993 213.98,289.826 207,268.5C 206.433,265.832 205.933,263.166 205.5,260.5 Z"/></g>
<g><path style="opacity:0.967" fill="#000000" d="M 511.5,245.5 C 511.5,252.167 511.5,258.833 511.5,265.5C 509.712,271.672 507.212,277.672 504,283.5C 483.002,315.167 457.169,342.334 426.5,365C 424.788,366.751 422.788,367.418 420.5,367C 411.5,358 402.5,349 393.5,340C 425.088,318.412 451.255,291.579 472,259.5C 472.965,255.218 472.298,251.218 470,247.5C 430.044,188.755 375.544,150.588 306.5,133C 267.709,124.773 229.209,125.94 191,136.5C 180.208,126.709 169.708,116.543 159.5,106C 265.706,71.4418 361.373,90.1085 446.5,162C 468.588,181.411 487.755,203.245 504,227.5C 507.212,233.328 509.712,239.328 511.5,245.5 Z"/></g>
<g><path style="opacity:0.96" fill="#000000" d="M 243.5,166.5 C 286.118,163.688 317.285,181.021 337,218.5C 343.78,234.181 346.113,250.514 344,267.5C 343.257,273.81 341.591,279.81 339,285.5C 328,274.5 317,263.5 306,252.5C 301.5,225.333 285.667,209.5 258.5,205C 247.5,194 236.5,183 225.5,172C 231.389,169.532 237.389,167.699 243.5,166.5 Z"/></g>
</svg>
