<?xml version="1.0" encoding="UTF-8"?>
<!DOCTYPE svg PUBLIC "-//W3C//DTD SVG 1.1//EN" "http://www.w3.org/Graphics/SVG/1.1/DTD/svg11.dtd">
<svg xmlns="http://www.w3.org/2000/svg" version="1.1" width="512px" height="512px" style="shape-rendering:geometricPrecision; text-rendering:geometricPrecision; image-rendering:optimizeQuality; fill-rule:evenodd; clip-rule:evenodd" xmlns:xlink="http://www.w3.org/1999/xlink">
<g><path style="opacity:0.96" fill="#000000" d="M 243.5,95.5 C 326.053,93.8771 395.553,122.877 452,182.5C 466.55,198.594 478.884,216.261 489,235.5C 495.716,253.493 493.716,270.493 483,286.5C 441.162,353.536 381.328,395.036 303.5,411C 207.537,425.569 126.037,398.069 59,328.5C 44.4497,312.406 32.1164,294.739 22,275.5C 15.7037,260.53 16.3703,245.863 24,231.5C 73.5099,148.472 146.677,103.139 243.5,95.5 Z M 249.5,126.5 C 331.575,127.286 397.075,160.286 446,225.5C 451.755,233.336 456.755,241.669 461,250.5C 461.667,253.833 461.667,257.167 461,260.5C 427.347,321.803 376.514,360.97 308.5,378C 231.553,393.596 162.886,376.596 102.5,327C 81.024,307.832 63.524,285.666 50,260.5C 49.3333,257.167 49.3333,253.833 50,250.5C 94.1105,173.511 160.61,132.177 249.5,126.5 Z M 253.5,193.5 C 291.573,196.907 312.907,217.574 317.5,255.5C 313.167,292.5 292.5,313.167 255.5,317.5C 218.5,313.167 197.833,292.5 193.5,255.5C 197.67,219.332 217.67,198.666 253.5,193.5 Z"/></g>
<g><path style="opacity:0.96" fill="#000000" d="M 248.5,162.5 C 289.179,161.912 319.346,179.246 339,214.5C 354.726,251.703 350.059,286.036 325,317.5C 295.652,346.907 261.152,355.073 221.5,342C 184.11,325.422 164.443,296.588 162.5,255.5C 167.019,201.986 195.686,170.986 248.5,162.5 Z M 253.5,193.5 C 217.67,198.666 197.67,219.332 193.5,255.5C 197.833,292.5 218.5,313.167 255.5,317.5C 292.5,313.167 313.167,292.5 317.5,255.5C 312.907,217.574 291.573,196.907 253.5,193.5 Z"/></g>
</svg>
