<?xml version="1.0" encoding="UTF-8"?>
<!DOCTYPE svg PUBLIC "-//W3C//DTD SVG 1.1//EN" "http://www.w3.org/Graphics/SVG/1.1/DTD/svg11.dtd">
<svg xmlns="http://www.w3.org/2000/svg" version="1.1" width="513px" height="512px" style="shape-rendering:geometricPrecision; text-rendering:geometricPrecision; image-rendering:optimizeQuality; fill-rule:evenodd; clip-rule:evenodd" xmlns:xlink="http://www.w3.org/1999/xlink">
<g><path style="opacity:0.132" fill="#464646" d="M 254.5,15.5 C 255.123,22.2547 254.456,28.588 252.5,34.5C 252.239,27.9277 252.906,21.5944 254.5,15.5 Z"/></g>
<g><path style="opacity:0.995" fill="#f7f7f7" d="M 254.5,15.5 C 255.5,15.5 256.5,15.5 257.5,15.5C 258.09,60.7625 261.757,105.762 268.5,150.5C 268.336,153.187 268.503,155.854 269,158.5C 269.122,160.437 269.955,161.77 271.5,162.5C 279.688,201.686 303.021,226.686 341.5,237.5C 341.881,238.931 342.881,239.764 344.5,240C 348.086,241.108 351.753,241.608 355.5,241.5C 395.582,247.979 435.915,251.979 476.5,253.5C 483.067,254.201 489.733,254.868 496.5,255.5C 496.389,256.117 496.056,256.617 495.5,257C 451.965,258.181 408.632,261.681 365.5,267.5C 361.988,266.945 358.988,267.612 356.5,269.5C 356.167,269.5 355.833,269.5 355.5,269.5C 352.449,269.364 349.449,269.698 346.5,270.5C 345.287,270.747 344.62,271.414 344.5,272.5C 344.167,272.5 343.833,272.5 343.5,272.5C 339.841,272.149 336.841,273.149 334.5,275.5C 302.464,286.541 282.13,308.541 273.5,341.5C 272.069,341.881 271.236,342.881 271,344.5C 269.892,348.086 269.392,351.753 269.5,355.5C 261.999,401.85 257.999,448.517 257.5,495.5C 256.5,495.5 255.5,495.5 254.5,495.5C 254.5,489.167 254.5,482.833 254.5,476.5C 254.823,469.978 254.49,463.645 253.5,457.5C 252.833,457.5 252.167,457.5 251.5,457.5C 251.5,454.833 251.5,452.167 251.5,449.5C 252.156,448.378 252.489,447.045 252.5,445.5C 252.415,443.667 251.748,442.334 250.5,441.5C 250.5,439.167 250.5,436.833 250.5,434.5C 251.152,433.551 251.486,432.385 251.5,431C 251.392,429.319 250.725,428.152 249.5,427.5C 249.5,425.167 249.5,422.833 249.5,420.5C 250.139,419.903 250.472,419.07 250.5,418C 250.316,416.624 249.649,415.791 248.5,415.5C 248.5,413.5 248.5,411.5 248.5,409.5C 249.139,408.903 249.472,408.07 249.5,407C 249.316,405.624 248.649,404.791 247.5,404.5C 247.5,402.833 247.5,401.167 247.5,399.5C 248.139,398.903 248.472,398.07 248.5,397C 248.316,395.624 247.649,394.791 246.5,394.5C 246.5,393.5 246.5,392.5 246.5,391.5C 247.451,390.081 247.784,388.415 247.5,386.5C 247.5,384.167 247.5,381.833 247.5,379.5C 246.5,379.5 245.5,379.5 244.5,379.5C 244.5,378.833 244.5,378.167 244.5,377.5C 246.176,376.817 246.843,375.483 246.5,373.5C 245.5,373.5 244.5,373.5 243.5,373.5C 243.5,372.167 243.5,370.833 243.5,369.5C 244.473,367.052 244.806,364.385 244.5,361.5C 243.5,361.5 242.5,361.5 241.5,361.5C 241.5,360.833 241.5,360.167 241.5,359.5C 239.89,334.854 230.223,313.354 212.5,295C 211.906,294.536 211.239,294.369 210.5,294.5C 207.816,292.807 205.149,291.14 202.5,289.5C 202.027,288.094 201.027,287.427 199.5,287.5C 192.954,282.391 185.62,278.558 177.5,276C 168.296,272.866 158.963,270.366 149.5,268.5C 147.012,266.612 144.012,265.945 140.5,266.5C 99.3353,261.257 58.002,258.257 16.5,257.5C 16.5,256.167 16.5,254.833 16.5,253.5C 60.1629,253.049 103.496,249.382 146.5,242.5C 147.622,243.156 148.955,243.489 150.5,243.5C 152.333,243.415 153.666,242.748 154.5,241.5C 154.833,241.5 155.167,241.5 155.5,241.5C 161.674,241.291 167.674,240.124 173.5,238C 176.872,236.981 179.872,235.481 182.5,233.5C 188.628,230.937 194.295,227.603 199.5,223.5C 201.027,223.573 202.027,222.906 202.5,221.5C 203.167,221.5 203.833,221.5 204.5,221.5C 214.025,215.491 221.525,207.491 227,197.5C 233.325,186.842 237.825,175.508 240.5,163.5C 240.48,162.274 240.147,161.274 239.5,160.5C 240.167,156.833 240.833,153.167 241.5,149.5C 243.552,148.947 243.885,147.947 242.5,146.5C 242.5,145.833 242.5,145.167 242.5,144.5C 243.167,144.5 243.833,144.5 244.5,144.5C 246.127,138.058 247.127,131.392 247.5,124.5C 247.768,122.901 247.434,121.568 246.5,120.5C 246.5,119.167 246.5,117.833 246.5,116.5C 247.725,115.848 248.392,114.681 248.5,113C 248.486,111.615 248.152,110.449 247.5,109.5C 247.5,108.5 247.5,107.5 247.5,106.5C 248.725,105.848 249.392,104.681 249.5,103C 249.486,101.615 249.152,100.449 248.5,99.5C 248.5,98.1667 248.5,96.8333 248.5,95.5C 249.725,94.8478 250.392,93.6811 250.5,92C 250.486,90.6153 250.152,89.4486 249.5,88.5C 249.5,86.8333 249.5,85.1667 249.5,83.5C 250.765,82.4855 251.431,80.9855 251.5,79C 251.492,77.2933 251.158,75.7933 250.5,74.5C 250.5,72.8333 250.5,71.1667 250.5,69.5C 251.787,68.1286 252.453,66.2953 252.5,64C 252.494,61.9674 252.161,60.134 251.5,58.5C 251.5,56.8333 251.5,55.1667 251.5,53.5C 252.8,51.777 253.467,49.6103 253.5,47C 253.496,44.6392 253.163,42.4726 252.5,40.5C 252.5,38.5 252.5,36.5 252.5,34.5C 254.456,28.588 255.123,22.2547 254.5,15.5 Z"/></g>
<g><path style="opacity:0.004" fill="#474747" d="M 252.5,40.5 C 253.163,42.4726 253.496,44.6392 253.5,47C 253.467,49.6103 252.8,51.777 251.5,53.5C 251.739,49.1578 252.073,44.8244 252.5,40.5 Z"/></g>
<g><path style="opacity:0.004" fill="#4a4a4a" d="M 251.5,58.5 C 252.161,60.134 252.494,61.9674 252.5,64C 252.453,66.2953 251.787,68.1286 250.5,69.5C 250.724,65.8212 251.058,62.1545 251.5,58.5 Z"/></g>
<g><path style="opacity:0.004" fill="#4a4a4a" d="M 250.5,74.5 C 251.158,75.7933 251.492,77.2933 251.5,79C 251.431,80.9855 250.765,82.4855 249.5,83.5C 249.704,80.4824 250.037,77.4824 250.5,74.5 Z"/></g>
<g><path style="opacity:0.004" fill="#4a4a4a" d="M 249.5,88.5 C 250.152,89.4486 250.486,90.6153 250.5,92C 250.392,93.6811 249.725,94.8478 248.5,95.5C 248.674,93.139 249.007,90.8056 249.5,88.5 Z"/></g>
<g><path style="opacity:0.137" fill="#585858" d="M 248.5,99.5 C 249.152,100.449 249.486,101.615 249.5,103C 249.392,104.681 248.725,105.848 247.5,106.5C 247.993,104.194 248.326,101.861 248.5,99.5 Z"/></g>
<g><path style="opacity:0.125" fill="#505050" d="M 247.5,109.5 C 248.152,110.449 248.486,111.615 248.5,113C 248.392,114.681 247.725,115.848 246.5,116.5C 246.674,114.139 247.007,111.806 247.5,109.5 Z"/></g>
<g><path style="opacity:0.004" fill="#454545" d="M 246.5,120.5 C 247.434,121.568 247.768,122.901 247.5,124.5C 246.833,124.5 246.167,124.5 245.5,124.5C 245.433,123.041 245.766,121.708 246.5,120.5 Z"/></g>
<g><path style="opacity:0.46" fill="#b5b5b5" d="M 245.5,124.5 C 246.167,124.5 246.833,124.5 247.5,124.5C 247.127,131.392 246.127,138.058 244.5,144.5C 244.768,142.901 244.434,141.568 243.5,140.5C 244.26,135.18 244.927,129.847 245.5,124.5 Z"/></g>
<g><path style="opacity:0.098" fill="#515151" d="M 243.5,140.5 C 244.434,141.568 244.768,142.901 244.5,144.5C 243.833,144.5 243.167,144.5 242.5,144.5C 242.833,143.167 243.167,141.833 243.5,140.5 Z"/></g>
<g><path style="opacity:0.086" fill="#494949" d="M 242.5,146.5 C 243.885,147.947 243.552,148.947 241.5,149.5C 241.557,148.391 241.89,147.391 242.5,146.5 Z"/></g>
<g><path style="opacity:0.396" fill="#9f9f9f" d="M 268.5,150.5 C 269.787,154.313 270.787,158.313 271.5,162.5C 269.955,161.77 269.122,160.437 269,158.5C 268.503,155.854 268.336,153.187 268.5,150.5 Z"/></g>
<g><path style="opacity:0.004" fill="#000000" d="M 235.5,172.5 C 234.833,171.167 234.833,171.167 235.5,172.5 Z"/></g>
<g><path style="opacity:0.004" fill="#000000" d="M 275.5,171.5 C 276.833,172.167 276.833,172.167 275.5,171.5 Z"/></g>
<g><path style="opacity:0.004" fill="#000000" d="M 234.5,175.5 C 233.833,174.167 233.833,174.167 234.5,175.5 Z"/></g>
<g><path style="opacity:0.004" fill="#000000" d="M 276.5,174.5 C 277.833,175.167 277.833,175.167 276.5,174.5 Z"/></g>
<g><path style="opacity:0.004" fill="#000000" d="M 233.5,178.5 C 232.833,177.167 232.833,177.167 233.5,178.5 Z"/></g>
<g><path style="opacity:0.004" fill="#000000" d="M 277.5,177.5 C 278.833,178.167 278.833,178.167 277.5,177.5 Z"/></g>
<g><path style="opacity:0.004" fill="#000000" d="M 232.5,181.5 C 231.833,180.167 231.833,180.167 232.5,181.5 Z"/></g>
<g><path style="opacity:0.004" fill="#000000" d="M 231.5,183.5 C 230.833,182.167 230.833,182.167 231.5,183.5 Z"/></g>
<g><path style="opacity:0.004" fill="#000000" d="M 279.5,182.5 C 280.833,183.167 280.833,183.167 279.5,182.5 Z"/></g>
<g><path style="opacity:0.004" fill="#000000" d="M 280.5,184.5 C 281.833,185.167 281.833,185.167 280.5,184.5 Z"/></g>
<g><path style="opacity:0.004" fill="#000000" d="M 229.5,188.5 C 228.833,187.167 228.833,187.167 229.5,188.5 Z"/></g>
<g><path style="opacity:0.004" fill="#000000" d="M 228.5,190.5 C 227.833,189.167 227.833,189.167 228.5,190.5 Z"/></g>
<g><path style="opacity:0.004" fill="#000000" d="M 282.5,189.5 C 283.833,190.167 283.833,190.167 282.5,189.5 Z"/></g>
<g><path style="opacity:0.004" fill="#000000" d="M 227.5,192.5 C 226.833,191.167 226.833,191.167 227.5,192.5 Z"/></g>
<g><path style="opacity:0.004" fill="#000000" d="M 283.5,191.5 C 284.833,192.167 284.833,192.167 283.5,191.5 Z"/></g>
<g><path style="opacity:0.224" fill="#b3b3b3" d="M 239.5,160.5 C 240.147,161.274 240.48,162.274 240.5,163.5C 237.825,175.508 233.325,186.842 227,197.5C 221.525,207.491 214.025,215.491 204.5,221.5C 214.032,213.302 221.699,203.636 227.5,192.5C 228.338,192.158 228.672,191.492 228.5,190.5C 229.338,190.158 229.672,189.492 229.5,188.5C 230.653,187.687 230.653,186.687 229.5,185.5C 229.846,184.304 230.346,184.304 231,185.5C 231.464,184.906 231.631,184.239 231.5,183.5C 232.338,183.158 232.672,182.492 232.5,181.5C 233.404,180.791 233.737,179.791 233.5,178.5C 234.404,177.791 234.737,176.791 234.5,175.5C 235.404,174.791 235.737,173.791 235.5,172.5C 237.008,168.643 238.341,164.643 239.5,160.5 Z"/></g>
<g><path style="opacity:0.004" fill="#000000" d="M 285.5,194.5 C 286.833,195.167 286.833,195.167 285.5,194.5 Z"/></g>
<g><path style="opacity:0.004" fill="#000000" d="M 286.5,196.5 C 287.833,197.167 287.833,197.167 286.5,196.5 Z"/></g>
<g><path style="opacity:0.004" fill="#000000" d="M 288.5,199.5 C 287.833,198.167 287.833,198.167 288.5,199.5 Z"/></g>
<g><path style="opacity:0.004" fill="#000000" d="M 288.5,199.5 C 289.833,200.167 289.833,200.167 288.5,199.5 Z"/></g>
<g><path style="opacity:0.004" fill="#000000" d="M 290.5,202.5 C 289.833,201.167 289.833,201.167 290.5,202.5 Z"/></g>
<g><path style="opacity:0.004" fill="#000000" d="M 290.5,202.5 C 291.167,202.5 291.5,202.833 291.5,203.5C 291.167,203.167 290.833,202.833 290.5,202.5 Z"/></g>
<g><path style="opacity:0.004" fill="#000000" d="M 291.5,203.5 C 292.833,204.167 292.833,204.167 291.5,203.5 Z"/></g>
<g><path style="opacity:0.004" fill="#000000" d="M 293.5,206.5 C 292.833,205.167 292.833,205.167 293.5,206.5 Z"/></g>
<g><path style="opacity:0.004" fill="#000000" d="M 293.5,206.5 C 294.167,206.5 294.5,206.833 294.5,207.5C 294.167,207.167 293.833,206.833 293.5,206.5 Z"/></g>
<g><path style="opacity:0.004" fill="#000000" d="M 294.5,207.5 C 295.167,207.5 295.5,207.833 295.5,208.5C 295.167,208.167 294.833,207.833 294.5,207.5 Z"/></g>
<g><path style="opacity:0.004" fill="#000000" d="M 295.5,208.5 C 296.167,208.5 296.5,208.833 296.5,209.5C 296.167,209.167 295.833,208.833 295.5,208.5 Z"/></g>
<g><path style="opacity:0.004" fill="#000000" d="M 296.5,209.5 C 297.167,209.5 297.5,209.833 297.5,210.5C 297.167,210.167 296.833,209.833 296.5,209.5 Z"/></g>
<g><path style="opacity:0.004" fill="#000000" d="M 297.5,210.5 C 298.167,210.5 298.5,210.833 298.5,211.5C 298.167,211.167 297.833,210.833 297.5,210.5 Z"/></g>
<g><path style="opacity:0.004" fill="#000000" d="M 298.5,211.5 C 299.167,211.5 299.5,211.833 299.5,212.5C 299.167,212.167 298.833,211.833 298.5,211.5 Z"/></g>
<g><path style="opacity:0.004" fill="#000000" d="M 299.5,212.5 C 300.167,212.5 300.5,212.833 300.5,213.5C 300.167,213.167 299.833,212.833 299.5,212.5 Z"/></g>
<g><path style="opacity:0.004" fill="#000000" d="M 300.5,213.5 C 301.167,213.5 301.5,213.833 301.5,214.5C 301.167,214.167 300.833,213.833 300.5,213.5 Z"/></g>
<g><path style="opacity:0.004" fill="#000000" d="M 301.5,214.5 C 302.167,214.5 302.5,214.833 302.5,215.5C 302.167,215.167 301.833,214.833 301.5,214.5 Z"/></g>
<g><path style="opacity:0.004" fill="#000000" d="M 302.5,215.5 C 303.167,215.5 303.5,215.833 303.5,216.5C 303.167,216.167 302.833,215.833 302.5,215.5 Z"/></g>
<g><path style="opacity:0.004" fill="#000000" d="M 303.5,216.5 C 304.167,216.5 304.5,216.833 304.5,217.5C 304.167,217.167 303.833,216.833 303.5,216.5 Z"/></g>
<g><path style="opacity:0.004" fill="#000000" d="M 304.5,217.5 C 305.833,218.167 305.833,218.167 304.5,217.5 Z"/></g>
<g><path style="opacity:0.004" fill="#000000" d="M 203.5,218.5 C 204.833,219.167 204.833,219.167 203.5,218.5 Z"/></g>
<g><path style="opacity:0.004" fill="#000000" d="M 307.5,219.5 C 306.833,218.167 306.833,218.167 307.5,219.5 Z"/></g>
<g><path style="opacity:0.004" fill="#000000" d="M 203.5,219.5 C 202.833,220.167 202.833,220.167 203.5,219.5 Z"/></g>
<g><path style="opacity:0.004" fill="#000000" d="M 307.5,219.5 C 308.167,219.5 308.5,219.833 308.5,220.5C 308.167,220.167 307.833,219.833 307.5,219.5 Z"/></g>
<g><path style="opacity:0.004" fill="#000000" d="M 202.5,220.5 C 202.5,220.833 202.5,221.167 202.5,221.5C 201.83,221.019 201.83,220.685 202.5,220.5 Z"/></g>
<g><path style="opacity:0.004" fill="#000000" d="M 308.5,220.5 C 309.833,221.167 309.833,221.167 308.5,220.5 Z"/></g>
<g><path style="opacity:0.004" fill="#000000" d="M 199.5,221.5 C 200.833,222.167 200.833,222.167 199.5,221.5 Z"/></g>
<g><path style="opacity:0.004" fill="#000000" d="M 311.5,222.5 C 310.833,221.167 310.833,221.167 311.5,222.5 Z"/></g>
<g><path style="opacity:0.004" fill="#000000" d="M 199.5,222.5 C 199.5,222.833 199.5,223.167 199.5,223.5C 198.83,223.019 198.83,222.685 199.5,222.5 Z"/></g>
<g><path style="opacity:0.004" fill="#000000" d="M 311.5,222.5 C 312.833,223.167 312.833,223.167 311.5,222.5 Z"/></g>
<g><path style="opacity:0.004" fill="#000000" d="M 196.5,223.5 C 197.833,224.167 197.833,224.167 196.5,223.5 Z"/></g>
<g><path style="opacity:0.004" fill="#000000" d="M 313.5,223.5 C 314.833,224.167 314.833,224.167 313.5,223.5 Z"/></g>
<g><path style="opacity:0.004" fill="#000000" d="M 315.5,224.5 C 316.833,225.167 316.833,225.167 315.5,224.5 Z"/></g>
<g><path style="opacity:0.004" fill="#000000" d="M 191.5,226.5 C 192.833,227.167 192.833,227.167 191.5,226.5 Z"/></g>
<g><path style="opacity:0.004" fill="#000000" d="M 318.5,226.5 C 319.833,227.167 319.833,227.167 318.5,226.5 Z"/></g>
<g><path style="opacity:0.004" fill="#000000" d="M 189.5,227.5 C 190.833,228.167 190.833,228.167 189.5,227.5 Z"/></g>
<g><path style="opacity:0.004" fill="#000000" d="M 320.5,227.5 C 321.833,228.167 321.833,228.167 320.5,227.5 Z"/></g>
<g><path style="opacity:0.004" fill="#000000" d="M 187.5,228.5 C 188.833,229.167 188.833,229.167 187.5,228.5 Z"/></g>
<g><path style="opacity:0.004" fill="#000000" d="M 325.5,229.5 C 326.833,230.167 326.833,230.167 325.5,229.5 Z"/></g>
<g><path style="opacity:0.004" fill="#000000" d="M 182.5,230.5 C 183.833,231.167 183.833,231.167 182.5,230.5 Z"/></g>
<g><path style="opacity:0.004" fill="#000000" d="M 327.5,230.5 C 328.833,231.167 328.833,231.167 327.5,230.5 Z"/></g>
<g><path style="opacity:0.004" fill="#000000" d="M 180.5,231.5 C 181.833,232.167 181.833,232.167 180.5,231.5 Z"/></g>
<g><path style="opacity:0.004" fill="#000000" d="M 177.5,232.5 C 178.833,233.167 178.833,233.167 177.5,232.5 Z"/></g>
<g><path style="opacity:0.004" fill="#000000" d="M 332.5,232.5 C 333.833,233.167 333.833,233.167 332.5,232.5 Z"/></g>
<g><path style="opacity:0.004" fill="#000000" d="M 335.5,233.5 C 336.833,234.167 336.833,234.167 335.5,233.5 Z"/></g>
<g><path style="opacity:0.496" fill="#b3b3b3" d="M 182.5,233.5 C 179.872,235.481 176.872,236.981 173.5,238C 167.674,240.124 161.674,241.291 155.5,241.5C 164.453,239.007 173.453,236.341 182.5,233.5 Z"/></g>
<g><path style="opacity:0.004" fill="#000000" d="M 338.5,234.5 C 339.833,235.167 339.833,235.167 338.5,234.5 Z"/></g>
<g><path style="opacity:0.576" fill="#a1a1a1" d="M 341.5,237.5 C 346.356,238.544 351.022,239.877 355.5,241.5C 351.753,241.608 348.086,241.108 344.5,240C 342.881,239.764 341.881,238.931 341.5,237.5 Z"/></g>
<g><path style="opacity:0.365" fill="#969696" d="M 154.5,241.5 C 153.666,242.748 152.333,243.415 150.5,243.5C 148.955,243.489 147.622,243.156 146.5,242.5C 149.167,242.167 151.833,241.833 154.5,241.5 Z"/></g>
<g><path style="opacity:0.108" fill="#3a3a3a" d="M 476.5,253.5 C 483.584,252.874 490.25,253.541 496.5,255.5C 489.733,254.868 483.067,254.201 476.5,253.5 Z"/></g>
<g><path style="opacity:0.52" fill="#898989" d="M 140.5,266.5 C 144.012,265.945 147.012,266.612 149.5,268.5C 146.311,268.142 143.311,267.475 140.5,266.5 Z"/></g>
<g><path style="opacity:0.659" fill="#8b8b8b" d="M 365.5,267.5 C 362.727,268.657 359.727,269.324 356.5,269.5C 358.988,267.612 361.988,266.945 365.5,267.5 Z"/></g>
<g><path style="opacity:0.573" fill="#979797" d="M 355.5,269.5 C 352.063,270.945 348.397,271.945 344.5,272.5C 344.62,271.414 345.287,270.747 346.5,270.5C 349.449,269.698 352.449,269.364 355.5,269.5 Z"/></g>
<g><path style="opacity:0.553" fill="#969696" d="M 343.5,272.5 C 340.67,273.735 337.67,274.735 334.5,275.5C 336.841,273.149 339.841,272.149 343.5,272.5 Z"/></g>
<g><path style="opacity:0.004" fill="#000000" d="M 338.5,275.5 C 339.833,276.167 339.833,276.167 338.5,275.5 Z"/></g>
<g><path style="opacity:0.004" fill="#000000" d="M 335.5,276.5 C 336.833,277.167 336.833,277.167 335.5,276.5 Z"/></g>
<g><path style="opacity:0.004" fill="#000000" d="M 177.5,277.5 C 178.833,278.167 178.833,278.167 177.5,277.5 Z"/></g>
<g><path style="opacity:0.004" fill="#000000" d="M 332.5,277.5 C 333.833,278.167 333.833,278.167 332.5,277.5 Z"/></g>
<g><path style="opacity:0.004" fill="#000000" d="M 180.5,278.5 C 181.833,279.167 181.833,279.167 180.5,278.5 Z"/></g>
<g><path style="opacity:0.004" fill="#000000" d="M 329.5,278.5 C 330.833,279.167 330.833,279.167 329.5,278.5 Z"/></g>
<g><path style="opacity:0.004" fill="#000000" d="M 182.5,279.5 C 183.833,280.167 183.833,280.167 182.5,279.5 Z"/></g>
<g><path style="opacity:0.004" fill="#000000" d="M 327.5,279.5 C 328.833,280.167 328.833,280.167 327.5,279.5 Z"/></g>
<g><path style="opacity:0.004" fill="#000000" d="M 187.5,281.5 C 188.833,282.167 188.833,282.167 187.5,281.5 Z"/></g>
<g><path style="opacity:0.004" fill="#000000" d="M 322.5,281.5 C 323.833,282.167 323.833,282.167 322.5,281.5 Z"/></g>
<g><path style="opacity:0.004" fill="#000000" d="M 189.5,282.5 C 190.833,283.167 190.833,283.167 189.5,282.5 Z"/></g>
<g><path style="opacity:0.004" fill="#000000" d="M 320.5,282.5 C 321.833,283.167 321.833,283.167 320.5,282.5 Z"/></g>
<g><path style="opacity:0.004" fill="#000000" d="M 191.5,283.5 C 192.833,284.167 192.833,284.167 191.5,283.5 Z"/></g>
<g><path style="opacity:0.004" fill="#000000" d="M 318.5,283.5 C 319.833,284.167 319.833,284.167 318.5,283.5 Z"/></g>
<g><path style="opacity:0.004" fill="#000000" d="M 194.5,285.5 C 193.833,284.167 193.833,284.167 194.5,285.5 Z"/></g>
<g><path style="opacity:0.004" fill="#000000" d="M 316.5,284.5 C 317.833,285.167 317.833,285.167 316.5,284.5 Z"/></g>
<g><path style="opacity:0.004" fill="#000000" d="M 194.5,285.5 C 195.833,286.167 195.833,286.167 194.5,285.5 Z"/></g>
<g><path style="opacity:0.004" fill="#000000" d="M 316.5,285.5 C 315.833,286.167 315.833,286.167 316.5,285.5 Z"/></g>
<g><path style="opacity:0.004" fill="#000000" d="M 196.5,286.5 C 197.833,287.167 197.833,287.167 196.5,286.5 Z"/></g>
<g><path style="opacity:0.004" fill="#000000" d="M 313.5,286.5 C 314.833,287.167 314.833,287.167 313.5,286.5 Z"/></g>
<g><path style="opacity:0.004" fill="#000000" d="M 199.5,287.5 C 199.5,287.833 199.5,288.167 199.5,288.5C 198.83,288.019 198.83,287.685 199.5,287.5 Z"/></g>
<g><path style="opacity:0.004" fill="#000000" d="M 311.5,287.5 C 312.833,288.167 312.833,288.167 311.5,287.5 Z"/></g>
<g><path style="opacity:0.004" fill="#000000" d="M 199.5,288.5 C 200.833,289.167 200.833,289.167 199.5,288.5 Z"/></g>
<g><path style="opacity:0.004" fill="#000000" d="M 311.5,288.5 C 310.833,289.167 310.833,289.167 311.5,288.5 Z"/></g>
<g><path style="opacity:0.004" fill="#000000" d="M 202.5,289.5 C 202.5,289.833 202.5,290.167 202.5,290.5C 201.83,290.019 201.83,289.685 202.5,289.5 Z"/></g>
<g><path style="opacity:0.004" fill="#000000" d="M 308.5,289.5 C 309.833,290.167 309.833,290.167 308.5,289.5 Z"/></g>
<g><path style="opacity:0.004" fill="#000000" d="M 202.5,290.5 C 203.167,290.5 203.5,290.833 203.5,291.5C 203.167,291.167 202.833,290.833 202.5,290.5 Z"/></g>
<g><path style="opacity:0.004" fill="#000000" d="M 308.5,290.5 C 307.833,291.167 307.833,291.167 308.5,290.5 Z"/></g>
<g><path style="opacity:0.004" fill="#000000" d="M 203.5,291.5 C 204.833,292.167 204.833,292.167 203.5,291.5 Z"/></g>
<g><path style="opacity:0.004" fill="#000000" d="M 307.5,291.5 C 306.833,292.167 306.833,292.167 307.5,291.5 Z"/></g>
<g><path style="opacity:0.004" fill="#000000" d="M 304.5,292.5 C 305.833,293.167 305.833,293.167 304.5,292.5 Z"/></g>
<g><path style="opacity:0.004" fill="#000000" d="M 304.5,293.5 C 303.833,294.167 303.833,294.167 304.5,293.5 Z"/></g>
<g><path style="opacity:0.004" fill="#000000" d="M 303.5,294.5 C 302.833,295.167 302.833,295.167 303.5,294.5 Z"/></g>
<g><path style="opacity:0.004" fill="#000000" d="M 302.5,295.5 C 301.833,296.167 301.833,296.167 302.5,295.5 Z"/></g>
<g><path style="opacity:0.004" fill="#000000" d="M 301.5,296.5 C 300.833,297.167 300.833,297.167 301.5,296.5 Z"/></g>
<g><path style="opacity:0.004" fill="#000000" d="M 300.5,297.5 C 299.833,298.167 299.833,298.167 300.5,297.5 Z"/></g>
<g><path style="opacity:0.004" fill="#000000" d="M 297.5,299.5 C 298.833,300.167 298.833,300.167 297.5,299.5 Z"/></g>
<g><path style="opacity:0.004" fill="#000000" d="M 297.5,300.5 C 296.833,301.167 296.833,301.167 297.5,300.5 Z"/></g>
<g><path style="opacity:0.004" fill="#000000" d="M 296.5,301.5 C 295.833,302.167 295.833,302.167 296.5,301.5 Z"/></g>
<g><path style="opacity:0.004" fill="#000000" d="M 295.5,302.5 C 294.833,303.167 294.833,303.167 295.5,302.5 Z"/></g>
<g><path style="opacity:0.004" fill="#000000" d="M 294.5,303.5 C 293.833,304.167 293.833,304.167 294.5,303.5 Z"/></g>
<g><path style="opacity:0.004" fill="#000000" d="M 218.5,304.5 C 217.833,305.167 217.833,305.167 218.5,304.5 Z"/></g>
<g><path style="opacity:0.004" fill="#000000" d="M 293.5,304.5 C 292.833,305.167 292.833,305.167 293.5,304.5 Z"/></g>
<g><path style="opacity:0.004" fill="#000000" d="M 218.5,306.5 C 219.833,307.167 219.833,307.167 218.5,306.5 Z"/></g>
<g><path style="opacity:0.004" fill="#000000" d="M 291.5,306.5 C 292.833,307.167 292.833,307.167 291.5,306.5 Z"/></g>
<g><path style="opacity:0.004" fill="#000000" d="M 291.5,307.5 C 290.833,308.167 290.833,308.167 291.5,307.5 Z"/></g>
<g><path style="opacity:0.004" fill="#000000" d="M 221.5,308.5 C 220.833,309.167 220.833,309.167 221.5,308.5 Z"/></g>
<g><path style="opacity:0.004" fill="#000000" d="M 290.5,308.5 C 289.833,309.167 289.833,309.167 290.5,308.5 Z"/></g>
<g><path style="opacity:0.004" fill="#000000" d="M 288.5,310.5 C 289.833,311.167 289.833,311.167 288.5,310.5 Z"/></g>
<g><path style="opacity:0.004" fill="#000000" d="M 223.5,311.5 C 222.833,312.167 222.833,312.167 223.5,311.5 Z"/></g>
<g><path style="opacity:0.004" fill="#000000" d="M 288.5,311.5 C 287.833,312.167 287.833,312.167 288.5,311.5 Z"/></g>
<g><path style="opacity:0.004" fill="#000000" d="M 286.5,313.5 C 287.833,314.167 287.833,314.167 286.5,313.5 Z"/></g>
<g><path style="opacity:0.004" fill="#000000" d="M 286.5,314.5 C 286.672,315.492 286.338,316.158 285.5,316.5C 285.328,315.508 285.662,314.842 286.5,314.5 Z"/></g>
<g><path style="opacity:0.004" fill="#000000" d="M 226.5,316.5 C 225.833,317.167 225.833,317.167 226.5,316.5 Z"/></g>
<g><path style="opacity:0.004" fill="#000000" d="M 285.5,316.5 C 284.833,317.167 284.833,317.167 285.5,316.5 Z"/></g>
<g><path style="opacity:0.004" fill="#000000" d="M 227.5,318.5 C 226.833,319.167 226.833,319.167 227.5,318.5 Z"/></g>
<g><path style="opacity:0.004" fill="#000000" d="M 283.5,318.5 C 284.833,319.167 284.833,319.167 283.5,318.5 Z"/></g>
<g><path style="opacity:0.004" fill="#000000" d="M 228.5,320.5 C 227.833,321.167 227.833,321.167 228.5,320.5 Z"/></g>
<g><path style="opacity:0.004" fill="#000000" d="M 282.5,320.5 C 283.833,321.167 283.833,321.167 282.5,320.5 Z"/></g>
<g><path style="opacity:0.004" fill="#000000" d="M 229.5,322.5 C 228.833,323.167 228.833,323.167 229.5,322.5 Z"/></g>
<g><path style="opacity:0.004" fill="#000000" d="M 281.5,322.5 C 282.833,323.167 282.833,323.167 281.5,322.5 Z"/></g>
<g><path style="opacity:0.004" fill="#000000" d="M 280.5,324.5 C 281.833,325.167 281.833,325.167 280.5,324.5 Z"/></g>
<g><path style="opacity:0.004" fill="#000000" d="M 231.5,327.5 C 230.833,328.167 230.833,328.167 231.5,327.5 Z"/></g>
<g><path style="opacity:0.004" fill="#000000" d="M 279.5,327.5 C 280.833,328.167 280.833,328.167 279.5,327.5 Z"/></g>
<g><path style="opacity:0.004" fill="#000000" d="M 278.5,329.5 C 279.833,330.167 279.833,330.167 278.5,329.5 Z"/></g>
<g><path style="opacity:0.161" fill="#a7a7a7" d="M 210.5,294.5 C 211.239,294.369 211.906,294.536 212.5,295C 230.223,313.354 239.89,334.854 241.5,359.5C 239.95,352.287 237.95,345.287 235.5,338.5C 235.737,337.209 235.404,336.209 234.5,335.5C 234.737,334.209 234.404,333.209 233.5,332.5C 231.625,331.049 230.958,329.383 231.5,327.5C 229.625,326.049 228.958,324.383 229.5,322.5C 229.672,321.508 229.338,320.842 228.5,320.5C 228.672,319.508 228.338,318.842 227.5,318.5C 227.672,317.508 227.338,316.842 226.5,316.5C 225.89,314.566 224.89,312.899 223.5,311.5C 223.068,310.29 222.401,309.29 221.5,308.5C 220.974,306.77 219.974,305.436 218.5,304.5C 216.213,300.878 213.547,297.545 210.5,294.5 Z"/></g>
<g><path style="opacity:0.004" fill="#000000" d="M 233.5,332.5 C 232.833,333.167 232.833,333.167 233.5,332.5 Z"/></g>
<g><path style="opacity:0.004" fill="#000000" d="M 277.5,332.5 C 278.833,333.167 278.833,333.167 277.5,332.5 Z"/></g>
<g><path style="opacity:0.004" fill="#000000" d="M 234.5,335.5 C 233.833,336.167 233.833,336.167 234.5,335.5 Z"/></g>
<g><path style="opacity:0.004" fill="#000000" d="M 235.5,338.5 C 234.833,339.167 234.833,339.167 235.5,338.5 Z"/></g>
<g><path style="opacity:0.553" fill="#aaaaaa" d="M 273.5,341.5 C 272.456,346.356 271.123,351.022 269.5,355.5C 269.392,351.753 269.892,348.086 271,344.5C 271.236,342.881 272.069,341.881 273.5,341.5 Z"/></g>
<g><path style="opacity:0.62" fill="#8f8f8f" d="M 241.5,361.5 C 242.5,361.5 243.5,361.5 244.5,361.5C 244.806,364.385 244.473,367.052 243.5,369.5C 242.709,366.885 242.043,364.218 241.5,361.5 Z"/></g>
<g><path style="opacity:0.414" fill="#9a9a9a" d="M 243.5,373.5 C 244.5,373.5 245.5,373.5 246.5,373.5C 246.843,375.483 246.176,376.817 244.5,377.5C 244.167,376.167 243.833,374.833 243.5,373.5 Z"/></g>
<g><path style="opacity:0.46" fill="#a9a9a9" d="M 244.5,379.5 C 245.5,379.5 246.5,379.5 247.5,379.5C 247.5,381.833 247.5,384.167 247.5,386.5C 246.833,386.5 246.167,386.5 245.5,386.5C 245.552,384.097 245.219,381.764 244.5,379.5 Z"/></g>
<g><path style="opacity:0.004" fill="#4a4a4a" d="M 245.5,386.5 C 246.167,386.5 246.833,386.5 247.5,386.5C 247.784,388.415 247.451,390.081 246.5,391.5C 245.962,389.883 245.629,388.216 245.5,386.5 Z"/></g>
<g><path style="opacity:0.098" fill="#4b4b4b" d="M 246.5,394.5 C 247.649,394.791 248.316,395.624 248.5,397C 248.472,398.07 248.139,398.903 247.5,399.5C 246.699,397.958 246.366,396.292 246.5,394.5 Z"/></g>
<g><path style="opacity:0.004" fill="#4b4b4b" d="M 247.5,404.5 C 248.649,404.791 249.316,405.624 249.5,407C 249.472,408.07 249.139,408.903 248.5,409.5C 247.962,407.883 247.629,406.216 247.5,404.5 Z"/></g>
<g><path style="opacity:0.004" fill="#454545" d="M 248.5,415.5 C 249.649,415.791 250.316,416.624 250.5,418C 250.472,419.07 250.139,419.903 249.5,420.5C 248.699,418.958 248.366,417.292 248.5,415.5 Z"/></g>
<g><path style="opacity:0.092" fill="#515151" d="M 249.5,427.5 C 250.725,428.152 251.392,429.319 251.5,431C 251.486,432.385 251.152,433.551 250.5,434.5C 249.781,432.236 249.448,429.903 249.5,427.5 Z"/></g>
<g><path style="opacity:0.08" fill="#4e4e4e" d="M 250.5,441.5 C 251.748,442.334 252.415,443.667 252.5,445.5C 252.489,447.045 252.156,448.378 251.5,449.5C 250.735,446.904 250.401,444.237 250.5,441.5 Z"/></g>
<g><path style="opacity:0.129" fill="#484848" d="M 251.5,457.5 C 252.167,457.5 252.833,457.5 253.5,457.5C 253.81,460.713 253.477,463.713 252.5,466.5C 251.701,463.57 251.368,460.57 251.5,457.5 Z"/></g>
<g><path style="opacity:0.429" fill="#c9c9c9" d="M 253.5,457.5 C 254.49,463.645 254.823,469.978 254.5,476.5C 253.833,476.5 253.167,476.5 252.5,476.5C 252.5,473.167 252.5,469.833 252.5,466.5C 253.477,463.713 253.81,460.713 253.5,457.5 Z"/></g>
<g><path style="opacity:0.075" fill="#484848" d="M 252.5,476.5 C 253.167,476.5 253.833,476.5 254.5,476.5C 254.5,482.833 254.5,489.167 254.5,495.5C 252.906,489.406 252.239,483.072 252.5,476.5 Z"/></g>
</svg>
