<svg id="svg" version="1.1" xmlns="http://www.w3.org/2000/svg" xmlns:xlink="http://www.w3.org/1999/xlink" width="400" height="400" viewBox="0, 0, 400,400"><g id="svgg"><path id="path0" d="M301.524 50.424 C 301.521 52.352,300.903 63.805,300.620 67.176 C 300.531 68.225,300.424 69.939,300.380 70.985 C 300.335 72.063,300.181 72.925,300.023 72.978 C 299.871 73.029,299.746 73.179,299.746 73.313 C 299.746 73.455,299.956 73.442,300.258 73.280 C 300.540 73.130,300.740 73.099,300.703 73.213 C 300.666 73.327,300.894 73.697,301.209 74.035 C 301.524 74.374,301.781 74.744,301.781 74.857 C 301.781 74.971,301.967 75.064,302.194 75.064 C 302.539 75.064,302.553 75.129,302.278 75.460 C 302.097 75.677,302.055 75.836,302.183 75.811 C 302.691 75.715,303.076 75.839,302.943 76.055 C 302.865 76.180,303.030 76.552,303.310 76.882 C 303.720 77.366,303.785 77.387,303.647 76.994 C 303.529 76.657,303.568 76.564,303.774 76.691 C 303.954 76.802,304.071 76.713,304.071 76.463 C 304.071 76.201,303.955 76.121,303.753 76.242 C 303.499 76.395,303.499 76.355,303.751 76.043 C 303.925 75.829,304.007 75.593,303.933 75.519 C 303.860 75.446,303.755 74.712,303.700 73.889 C 303.646 73.066,303.415 69.873,303.188 66.794 C 302.961 63.715,302.637 58.400,302.469 54.982 C 302.246 50.462,302.076 48.740,301.845 48.664 C 301.610 48.586,301.526 49.046,301.524 50.424 M202.799 83.969 C 202.799 88.660,202.740 89.567,202.434 89.567 C 202.130 89.567,202.066 90.459,202.046 94.957 C 202.033 97.921,201.916 100.474,201.786 100.630 C 201.656 100.787,201.495 102.971,201.428 105.483 C 201.209 113.753,200.973 117.937,200.716 118.095 C 200.408 118.286,200.536 119.639,200.890 119.930 C 201.056 120.067,201.034 120.186,200.827 120.270 C 200.473 120.413,200.384 121.374,200.725 121.374 C 200.843 121.374,201.121 121.833,201.342 122.395 C 201.601 123.055,201.637 123.353,201.444 123.237 C 201.274 123.135,201.295 123.243,201.492 123.485 C 201.683 123.720,201.940 123.850,202.064 123.774 C 202.189 123.697,202.304 123.755,202.322 123.904 C 202.339 124.052,202.368 124.289,202.385 124.431 C 202.403 124.573,202.869 125.103,203.422 125.609 C 204.281 126.396,204.336 126.505,203.803 126.358 L 203.181 126.187 203.817 126.571 C 204.167 126.782,204.338 126.962,204.198 126.971 C 204.059 126.980,204.144 127.104,204.389 127.247 C 204.634 127.389,204.835 127.672,204.835 127.875 C 204.835 128.078,205.000 128.244,205.202 128.244 C 205.424 128.244,205.532 128.433,205.476 128.724 C 205.406 129.090,205.500 129.174,205.873 129.076 C 206.141 129.006,206.361 129.057,206.361 129.190 C 206.361 129.323,206.514 129.432,206.700 129.432 C 206.943 129.432,207.045 128.979,207.062 127.820 C 207.081 126.583,207.002 126.209,206.724 126.209 C 206.409 126.209,206.142 121.373,206.303 118.579 C 206.315 118.371,206.225 118.139,206.104 118.064 C 205.982 117.989,205.860 116.072,205.834 113.804 C 205.807 111.536,205.686 109.742,205.564 109.817 C 205.443 109.892,205.344 107.887,205.344 105.351 C 205.344 101.494,205.282 100.724,204.962 100.601 C 204.639 100.477,204.580 99.617,204.580 95.032 C 204.580 91.815,204.481 89.575,204.337 89.525 C 204.194 89.475,204.078 87.157,204.056 83.906 L 204.017 78.372 203.408 78.372 L 202.799 78.372 202.799 83.969 M327.349 109.447 C 327.626 109.779,328.084 110.249,328.367 110.491 C 328.664 110.745,328.746 110.933,328.560 110.936 C 328.306 110.940,328.304 111.044,328.551 111.440 C 328.745 111.750,328.927 111.836,329.031 111.668 C 329.148 111.477,329.250 111.480,329.373 111.678 C 329.468 111.833,329.454 111.961,329.341 111.963 C 329.227 111.965,329.250 112.051,329.392 112.154 C 329.533 112.257,329.964 112.828,330.350 113.422 C 330.735 114.017,331.176 114.504,331.329 114.504 C 331.481 114.504,331.536 114.688,331.449 114.914 C 331.337 115.206,331.401 115.282,331.673 115.177 C 331.883 115.097,332.043 115.113,332.028 115.213 C 331.916 115.961,332.095 116.091,333.015 115.930 C 337.670 115.116,351.425 114.004,362.023 113.585 C 368.027 113.347,368.091 112.869,362.150 112.630 C 356.329 112.396,345.810 111.721,343.639 111.442 C 342.659 111.317,341.056 111.100,340.076 110.961 C 339.097 110.822,337.723 110.639,337.023 110.555 C 336.323 110.470,335.293 110.347,334.733 110.279 C 334.173 110.212,332.761 109.981,331.595 109.767 C 330.429 109.552,329.320 109.436,329.131 109.508 C 328.941 109.581,328.750 109.546,328.706 109.431 C 328.662 109.316,328.225 109.137,327.735 109.032 L 326.845 108.842 327.349 109.447 M262.331 111.225 C 261.900 111.454,253.035 112.079,243.957 112.519 C 235.440 112.932,235.549 113.289,244.322 113.704 C 252.244 114.079,259.679 114.613,264.301 115.139 C 266.148 115.349,267.723 115.522,267.800 115.522 C 267.876 115.522,267.939 115.350,267.939 115.140 C 267.939 114.930,267.714 114.758,267.438 114.758 C 267.114 114.758,266.985 114.633,267.073 114.403 C 267.148 114.208,266.988 113.893,266.718 113.703 C 266.447 113.514,266.182 113.244,266.128 113.104 C 266.075 112.964,265.964 112.872,265.882 112.899 C 265.800 112.927,265.729 112.812,265.724 112.645 C 265.698 111.875,265.459 111.574,264.639 111.280 C 263.952 111.033,263.714 111.031,263.562 111.270 C 263.440 111.462,263.365 111.473,263.363 111.302 C 263.358 110.979,262.860 110.942,262.331 111.225 M206.920 132.212 C 206.953 133.086,206.968 133.101,207.267 132.543 C 207.585 131.948,207.501 131.298,207.105 131.298 C 206.984 131.298,206.901 131.709,206.920 132.212 M301.078 161.026 C 300.825 161.187,300.809 161.982,301.002 164.775 C 301.136 166.725,301.326 170.347,301.422 172.824 C 301.557 176.260,301.680 177.358,301.944 177.459 C 302.221 177.566,302.294 177.074,302.310 174.992 C 302.320 173.562,302.362 172.220,302.403 172.010 C 302.650 170.735,302.755 163.786,302.536 163.209 C 302.333 162.676,302.352 162.565,302.625 162.669 C 302.814 162.742,302.969 162.647,302.969 162.458 C 302.969 162.269,302.902 162.122,302.820 162.131 C 302.244 162.193,302.000 162.037,302.133 161.692 C 302.220 161.465,302.177 161.363,302.033 161.452 C 301.894 161.538,301.781 161.429,301.781 161.211 C 301.781 160.773,301.566 160.716,301.078 161.026 M266.667 210.920 C 266.667 211.049,266.810 211.222,266.985 211.305 C 267.160 211.388,267.017 211.403,266.667 211.339 C 266.035 211.223,266.035 211.226,266.552 211.654 C 266.839 211.892,267.150 212.287,267.244 212.532 C 267.337 212.777,267.532 212.977,267.676 212.977 C 267.821 212.977,267.939 213.152,267.939 213.367 C 267.939 213.581,268.117 213.825,268.335 213.909 C 268.562 213.995,268.668 214.225,268.584 214.445 C 268.456 214.778,268.495 214.782,268.871 214.476 C 269.254 214.165,269.287 214.175,269.141 214.564 C 269.036 214.843,269.089 214.984,269.284 214.946 C 269.472 214.909,269.566 215.128,269.524 215.506 C 269.486 215.847,269.532 216.049,269.626 215.955 C 269.799 215.782,270.999 216.927,270.984 217.252 C 270.980 217.350,270.808 217.208,270.603 216.936 C 270.397 216.664,270.233 216.550,270.237 216.682 C 270.249 217.033,270.984 217.950,271.194 217.875 C 271.293 217.840,271.374 217.937,271.374 218.090 C 271.374 218.243,271.704 218.632,272.106 218.953 C 272.510 219.275,272.760 219.663,272.664 219.819 C 272.563 219.982,272.664 220.102,272.901 220.102 C 273.127 220.102,273.242 220.216,273.155 220.356 C 273.068 220.497,273.259 220.612,273.585 220.615 C 274.014 220.617,274.079 220.678,273.826 220.838 C 273.635 220.959,273.580 221.100,273.704 221.152 C 274.473 221.476,275.067 222.730,274.662 223.177 C 274.282 223.597,274.290 223.619,274.786 223.490 C 275.079 223.413,275.318 223.247,275.318 223.121 C 275.318 222.994,275.604 222.963,275.954 223.051 C 276.398 223.162,276.592 223.106,276.594 222.865 C 276.597 222.642,276.665 222.615,276.785 222.789 C 276.888 222.937,277.545 223.063,278.244 223.068 C 278.944 223.074,279.373 223.029,279.198 222.968 C 278.224 222.631,279.202 222.392,281.552 222.392 C 283.164 222.392,284.224 222.291,284.224 222.137 C 284.224 221.983,285.319 221.883,287.002 221.883 C 288.532 221.883,289.818 221.774,289.864 221.641 C 289.911 221.507,291.209 221.379,292.748 221.356 C 294.288 221.333,295.609 221.216,295.686 221.096 C 295.762 220.975,297.347 220.855,299.209 220.827 C 301.754 220.790,302.626 220.694,302.724 220.440 C 302.824 220.179,303.747 220.102,306.770 220.102 C 309.212 220.102,310.687 220.006,310.687 219.847 C 310.687 219.686,312.511 219.593,315.649 219.593 C 318.787 219.593,320.611 219.499,320.611 219.338 C 320.611 219.177,322.604 219.084,326.081 219.084 C 330.775 219.084,331.552 219.030,331.552 218.702 C 331.552 218.375,332.301 218.321,336.768 218.321 C 341.236 218.321,341.985 218.266,341.985 217.939 C 341.985 217.410,342.430 217.459,342.574 218.003 C 342.640 218.253,342.681 218.162,342.668 217.795 L 342.645 217.142 337.162 217.079 C 334.059 217.042,331.643 216.912,331.595 216.777 C 331.546 216.640,329.247 216.539,326.169 216.539 C 321.987 216.539,320.753 216.464,320.480 216.191 C 320.217 215.928,319.093 215.831,315.897 215.795 C 313.568 215.769,311.379 215.639,311.031 215.507 C 310.684 215.375,308.747 215.267,306.726 215.267 C 304.447 215.267,303.053 215.171,303.053 215.013 C 303.053 214.855,301.654 214.758,299.364 214.758 C 297.074 214.758,295.674 214.662,295.674 214.504 C 295.674 214.349,294.536 214.249,292.769 214.249 C 290.671 214.249,289.835 214.161,289.758 213.931 C 289.685 213.712,288.833 213.587,287.002 213.528 C 285.544 213.481,284.242 213.338,284.109 213.210 C 283.976 213.082,282.860 212.977,281.628 212.977 C 280.305 212.977,279.389 212.873,279.389 212.723 C 279.389 212.572,278.456 212.468,277.099 212.468 C 275.315 212.468,274.809 212.390,274.809 212.115 C 274.809 211.920,274.666 211.767,274.491 211.773 C 273.248 211.819,271.745 211.672,271.841 211.514 C 271.905 211.409,271.082 211.287,270.012 211.243 C 268.942 211.199,267.957 211.056,267.824 210.925 C 267.514 210.619,266.667 210.615,266.667 210.920 M131.743 211.880 C 131.498 211.944,131.298 212.103,131.298 212.232 C 131.298 212.592,131.798 212.514,132.225 212.087 C 132.611 211.700,132.544 211.671,131.743 211.880 M122.646 213.189 C 122.646 213.352,122.411 213.486,122.122 213.486 C 121.791 213.486,121.665 213.594,121.780 213.780 C 121.905 213.981,121.849 214.003,121.604 213.849 C 121.026 213.485,117.557 213.556,117.557 213.931 C 117.557 214.169,116.751 214.249,114.377 214.249 C 112.426 214.249,111.196 214.348,111.196 214.504 C 111.196 214.662,109.813 214.758,107.557 214.758 C 105.556 214.758,103.809 214.868,103.675 215.002 C 103.541 215.136,101.628 215.261,99.425 215.280 C 97.098 215.300,95.479 215.411,95.562 215.545 C 95.694 215.759,94.902 215.797,88.570 215.879 C 87.110 215.898,86.394 216.008,86.323 216.223 C 86.243 216.461,84.940 216.539,81.043 216.539 C 77.915 216.539,75.836 216.637,75.785 216.787 C 75.733 216.937,73.504 217.044,70.165 217.059 L 64.631 217.083 64.631 217.702 L 64.631 218.321 70.229 218.321 C 74.960 218.321,75.827 218.378,75.827 218.691 C 75.827 219.003,76.674 219.063,81.219 219.073 C 84.185 219.079,86.675 219.185,86.754 219.308 C 86.832 219.432,88.899 219.551,91.349 219.575 C 93.902 219.599,95.838 219.720,95.886 219.859 C 95.935 220.000,97.729 220.102,100.148 220.102 C 103.344 220.102,104.326 220.177,104.326 220.423 C 104.326 220.663,105.187 220.762,107.697 220.812 C 109.584 220.850,111.106 220.989,111.154 221.127 C 111.202 221.270,112.634 221.374,114.540 221.374 C 116.676 221.374,117.786 221.464,117.684 221.628 C 117.584 221.792,118.445 221.883,120.087 221.883 C 121.623 221.883,122.646 221.985,122.646 222.137 C 122.646 222.289,123.631 222.392,125.091 222.392 C 127.159 222.392,127.513 222.451,127.389 222.774 C 127.271 223.082,127.489 223.155,128.525 223.155 C 129.694 223.155,129.772 223.120,129.405 222.753 C 129.184 222.532,129.062 222.255,129.135 222.137 C 129.208 222.020,128.964 221.686,128.594 221.394 C 128.224 221.103,127.997 220.865,128.089 220.865 C 128.303 220.865,127.514 219.600,126.948 219.036 C 126.711 218.799,126.438 218.685,126.342 218.781 C 126.245 218.878,126.189 218.842,126.218 218.702 C 126.327 218.162,126.198 217.789,125.954 217.939 C 125.814 218.025,125.685 217.975,125.668 217.827 C 125.650 217.679,125.622 217.439,125.604 217.294 C 125.587 217.148,125.420 216.935,125.233 216.820 C 125.046 216.704,124.888 216.508,124.882 216.384 C 124.853 215.761,124.613 215.476,124.403 215.816 C 124.231 216.094,124.137 216.092,123.866 215.800 C 123.620 215.536,123.617 215.492,123.855 215.627 C 124.030 215.725,124.173 215.685,124.173 215.537 C 124.173 215.388,123.982 215.267,123.749 215.267 C 123.516 215.267,123.397 215.195,123.486 215.106 C 123.574 215.018,123.513 214.703,123.349 214.407 C 123.186 214.110,123.027 213.714,122.996 213.526 C 122.921 213.075,122.646 212.810,122.646 213.189 M128.839 221.963 C 129.002 221.865,128.967 222.008,128.762 222.279 C 128.556 222.551,128.356 222.821,128.316 222.880 C 128.277 222.938,128.253 222.652,128.264 222.243 C 128.275 221.835,128.342 221.645,128.413 221.821 C 128.484 221.997,128.676 222.061,128.839 221.963 M73.298 245.611 C 72.760 253.266,72.719 254.516,73.015 254.334 C 73.162 254.243,73.282 254.284,73.282 254.425 C 73.282 254.701,74.391 255.980,74.631 255.980 C 74.711 255.980,74.740 255.321,74.696 254.517 C 74.651 253.712,74.540 251.565,74.448 249.746 C 74.357 247.926,74.233 245.808,74.173 245.038 C 74.113 244.268,74.060 243.038,74.055 242.303 C 74.035 239.360,73.606 241.235,73.298 245.611 M183.715 247.710 C 183.715 247.920,183.830 248.092,183.969 248.092 C 184.109 248.092,184.224 247.920,184.224 247.710 C 184.224 247.500,184.109 247.328,183.969 247.328 C 183.830 247.328,183.715 247.500,183.715 247.710 M93.912 282.478 C 94.052 282.740,94.591 283.378,95.109 283.896 C 95.628 284.415,95.901 284.746,95.717 284.632 C 95.442 284.462,95.442 284.522,95.719 284.970 C 96.140 285.650,96.869 285.844,98.272 285.648 C 99.274 285.507,102.531 285.232,107.379 284.877 C 109.595 284.715,114.398 284.496,115.967 284.486 C 116.562 284.482,117.048 284.364,117.048 284.224 C 117.048 284.084,116.390 283.967,115.585 283.963 C 114.781 283.959,112.977 283.845,111.578 283.708 C 110.178 283.572,107.831 283.397,106.361 283.321 C 103.329 283.163,96.059 282.475,95.598 282.303 C 94.561 281.914,93.660 282.008,93.912 282.478 M46.183 282.955 C 45.344 283.061,43.225 283.224,41.476 283.318 C 39.726 283.411,37.207 283.593,35.878 283.722 C 34.548 283.851,32.779 283.959,31.947 283.963 C 28.652 283.977,31.115 284.453,35.242 284.599 C 37.621 284.684,39.911 284.801,40.331 284.859 C 40.751 284.917,42.182 285.031,43.511 285.111 C 44.841 285.191,47.046 285.387,48.411 285.545 C 50.710 285.812,51.616 285.723,51.009 285.292 C 50.872 285.194,50.360 284.574,49.871 283.914 C 48.904 282.607,48.913 282.610,46.183 282.955 M208.651 289.461 C 208.651 289.911,209.199 289.832,209.356 289.361 C 209.412 289.194,209.276 289.059,209.054 289.059 C 208.833 289.059,208.651 289.240,208.651 289.461 M72.855 316.476 C 72.928 317.281,73.126 320.000,73.296 322.519 C 73.466 325.038,73.704 327.208,73.825 327.341 C 74.053 327.591,74.098 326.649,74.146 320.572 C 74.161 318.662,74.259 317.151,74.364 317.216 C 74.469 317.280,74.555 317.212,74.555 317.063 C 74.555 316.915,74.376 316.794,74.158 316.794 C 73.940 316.794,73.832 316.679,73.919 316.539 C 74.005 316.399,73.948 316.285,73.791 316.285 C 73.635 316.285,73.578 316.170,73.664 316.031 C 73.751 315.891,73.700 315.776,73.552 315.776 C 73.404 315.776,73.282 315.604,73.282 315.394 C 73.282 315.184,73.156 315.013,73.002 315.013 C 72.815 315.013,72.766 315.499,72.855 316.476 M201.683 320.789 C 201.724 320.962,201.597 321.033,201.387 320.952 C 200.994 320.802,200.919 325.418,201.310 325.703 C 201.409 325.775,201.520 327.700,201.557 329.981 C 201.595 332.262,201.718 334.185,201.830 334.254 C 201.943 334.324,202.036 336.954,202.036 340.099 C 202.036 344.947,202.094 345.840,202.417 345.964 C 202.740 346.088,202.799 346.949,202.799 351.546 L 202.799 356.981 203.372 356.769 C 203.937 356.560,203.945 356.496,204.013 351.180 C 204.055 347.883,204.178 345.802,204.331 345.802 C 204.486 345.802,204.580 343.602,204.580 339.949 C 204.580 335.403,204.651 334.111,204.898 334.160 C 205.365 334.254,205.355 324.847,204.888 324.379 C 204.619 324.110,204.510 324.119,204.291 324.430 C 204.064 324.751,204.044 324.744,204.160 324.380 C 204.293 323.966,203.577 322.815,202.830 322.240 C 202.630 322.086,202.550 321.825,202.652 321.661 C 202.762 321.482,202.701 321.390,202.500 321.431 C 202.313 321.470,202.178 321.303,202.198 321.059 C 202.217 320.815,202.141 320.673,202.029 320.742 C 201.916 320.812,201.776 320.782,201.717 320.676 C 201.658 320.570,201.643 320.621,201.683 320.789 M205.230 323.387 C 205.047 323.684,205.328 324.427,205.625 324.427 C 205.750 324.427,205.852 324.249,205.852 324.031 C 205.852 323.793,205.733 323.708,205.555 323.818 C 205.355 323.942,205.310 323.863,205.420 323.579 C 205.593 323.127,205.469 323.001,205.230 323.387 " stroke="none" fill="#f78104" fill-rule="evenodd"></path><path id="path1" d="M300.152 73.360 C 299.802 73.616,299.732 73.906,299.848 74.632 C 299.930 75.149,299.907 75.573,299.796 75.573 C 299.685 75.573,299.606 75.887,299.621 76.272 C 299.635 76.657,299.570 77.201,299.476 77.481 C 299.381 77.761,299.235 78.620,299.151 79.389 C 298.657 83.919,296.858 91.479,295.668 94.020 C 294.688 96.116,292.550 99.607,291.850 100.254 C 291.775 100.324,291.454 100.718,291.138 101.129 C 290.329 102.182,287.110 104.600,285.336 105.487 C 284.514 105.898,283.781 106.316,283.706 106.416 C 283.116 107.200,271.806 110.227,269.466 110.226 C 269.153 110.226,266.497 110.600,265.522 110.781 C 265.382 110.807,265.134 110.912,264.971 111.014 C 264.808 111.116,264.628 111.061,264.572 110.892 C 264.492 110.653,264.428 110.653,264.279 110.893 C 264.152 111.099,264.333 111.251,264.826 111.349 C 265.232 111.431,265.583 111.658,265.606 111.855 C 265.630 112.052,265.668 112.379,265.691 112.581 C 265.715 112.783,265.800 112.927,265.882 112.899 C 265.964 112.872,266.031 112.934,266.031 113.036 C 266.031 113.138,266.296 113.408,266.620 113.635 C 266.947 113.863,267.149 114.206,267.073 114.403 C 266.985 114.633,267.114 114.758,267.438 114.758 C 267.714 114.758,267.939 114.909,267.939 115.093 C 267.939 115.306,268.568 115.545,269.656 115.748 C 270.601 115.923,272.290 116.236,273.410 116.443 C 274.529 116.650,275.674 116.921,275.954 117.046 C 276.234 117.171,277.494 117.572,278.753 117.936 C 286.402 120.149,291.256 123.772,294.265 129.517 C 294.668 130.286,295.074 130.973,295.168 131.043 C 295.314 131.153,296.253 133.566,296.950 135.623 C 297.760 138.013,299.510 147.921,299.782 151.654 C 299.817 152.144,299.925 152.659,300.021 152.799 C 300.178 153.028,300.656 158.197,300.592 158.969 C 300.577 159.144,300.651 159.288,300.756 159.288 C 300.861 159.288,300.915 159.693,300.875 160.189 C 300.813 160.976,300.866 161.071,301.293 160.935 C 301.638 160.825,301.781 160.901,301.781 161.194 C 301.781 161.421,301.894 161.538,302.033 161.452 C 302.172 161.366,302.222 161.458,302.145 161.659 C 302.067 161.864,302.202 162.096,302.459 162.195 C 302.747 162.305,302.811 162.433,302.636 162.545 C 302.470 162.652,302.440 162.925,302.561 163.232 L 302.763 163.740 302.811 163.232 C 302.838 162.952,302.897 162.150,302.943 161.450 C 303.505 152.914,305.230 139.596,305.826 139.190 C 305.932 139.118,306.225 138.201,306.476 137.152 C 308.400 129.136,312.689 123.319,318.957 120.227 C 321.209 119.115,325.606 117.557,326.491 117.557 C 326.739 117.557,327.010 117.448,327.092 117.314 C 327.175 117.180,327.411 117.135,327.616 117.214 C 327.822 117.293,327.990 117.241,327.990 117.098 C 327.990 116.955,328.476 116.762,329.071 116.669 C 331.323 116.314,332.030 116.042,331.993 115.544 C 331.972 115.265,331.819 115.121,331.624 115.196 C 331.403 115.281,331.345 115.187,331.449 114.914 C 331.536 114.688,331.481 114.504,331.329 114.504 C 331.176 114.504,330.735 114.017,330.350 113.422 C 329.964 112.828,329.552 112.271,329.434 112.185 C 329.315 112.100,329.228 111.957,329.240 111.867 C 329.299 111.432,329.236 111.351,329.059 111.631 C 328.917 111.853,328.776 111.800,328.551 111.440 C 328.349 111.117,328.334 110.941,328.509 110.941 C 328.657 110.941,328.371 110.523,327.875 110.012 C 327.378 109.501,326.972 108.980,326.972 108.856 C 326.972 108.731,326.829 108.652,326.654 108.680 C 326.479 108.709,326.164 108.670,325.954 108.594 C 325.744 108.519,325.057 108.314,324.427 108.140 C 319.662 106.820,314.294 103.419,311.820 100.153 C 311.407 99.607,310.875 98.975,310.639 98.749 C 309.647 97.799,307.474 92.768,306.609 89.419 C 306.286 88.171,305.942 87.036,305.843 86.896 C 305.614 86.570,305.149 84.528,304.857 82.570 C 304.732 81.730,304.561 80.757,304.479 80.407 C 304.396 80.057,304.271 79.147,304.200 78.384 C 304.128 77.621,303.939 76.877,303.779 76.730 C 303.565 76.534,303.531 76.599,303.653 76.972 C 303.797 77.416,303.753 77.405,303.310 76.882 C 303.030 76.552,302.865 76.180,302.943 76.055 C 303.076 75.839,302.691 75.715,302.183 75.811 C 302.055 75.836,302.097 75.677,302.278 75.460 C 302.553 75.129,302.539 75.064,302.194 75.064 C 301.967 75.064,301.781 74.971,301.781 74.857 C 301.781 74.744,301.524 74.374,301.209 74.035 C 300.894 73.697,300.665 73.331,300.700 73.224 C 300.789 72.950,300.675 72.978,300.152 73.360 M200.509 121.607 C 200.509 121.736,200.652 121.898,200.827 121.969 C 201.081 122.072,201.081 122.101,200.827 122.117 C 200.652 122.128,200.509 122.373,200.509 122.661 C 200.509 122.949,200.623 123.114,200.763 123.028 C 200.903 122.941,201.018 122.992,201.018 123.140 C 201.018 123.288,200.903 123.410,200.763 123.410 C 200.623 123.410,200.509 123.753,200.509 124.173 C 200.509 124.667,200.380 124.936,200.143 124.936 C 199.934 124.936,199.794 125.155,199.816 125.445 C 199.837 125.725,199.973 125.956,200.118 125.958 C 200.265 125.960,200.247 126.047,200.077 126.156 C 199.876 126.284,199.757 127.279,199.728 129.078 C 199.704 130.579,199.584 131.807,199.461 131.807 C 199.337 131.807,199.237 133.009,199.237 134.478 C 199.237 136.090,199.136 137.150,198.982 137.150 C 198.831 137.150,198.728 138.083,198.728 139.440 C 198.728 141.172,198.646 141.730,198.391 141.730 C 198.144 141.730,198.040 142.260,198.003 143.702 C 197.975 144.787,197.841 145.712,197.704 145.759 C 197.567 145.806,197.455 146.572,197.455 147.462 C 197.455 148.351,197.341 149.150,197.201 149.237 C 197.061 149.323,196.947 150.246,196.947 151.287 C 196.947 152.380,196.839 153.181,196.692 153.181 C 196.551 153.181,196.438 153.859,196.438 154.707 C 196.438 155.895,196.353 156.234,196.056 156.234 C 195.773 156.234,195.674 156.531,195.674 157.379 C 195.674 158.009,195.560 158.524,195.420 158.524 C 195.280 158.524,195.165 159.154,195.165 159.924 C 195.165 160.693,195.051 161.323,194.911 161.323 C 194.771 161.323,194.656 161.838,194.656 162.468 C 194.656 163.098,194.542 163.613,194.402 163.613 C 194.262 163.613,194.148 164.128,194.148 164.758 C 194.148 165.606,194.049 165.903,193.766 165.903 C 193.489 165.903,193.384 166.188,193.384 166.936 C 193.384 167.560,193.283 167.907,193.130 167.812 C 192.978 167.718,192.875 168.021,192.875 168.560 C 192.875 169.058,192.761 169.466,192.621 169.466 C 192.481 169.466,192.366 169.981,192.366 170.611 C 192.366 171.459,192.267 171.756,191.985 171.756 C 191.747 171.756,191.603 171.996,191.603 172.392 C 191.603 172.742,191.513 173.028,191.403 173.028 C 191.293 173.028,191.174 173.400,191.140 173.855 C 191.106 174.310,190.967 174.720,190.832 174.767 C 190.696 174.813,190.585 175.071,190.585 175.339 C 190.585 175.608,190.442 175.829,190.267 175.831 C 190.055 175.833,190.076 175.917,190.331 176.081 C 190.585 176.246,190.606 176.329,190.394 176.332 C 190.219 176.334,190.076 176.622,190.076 176.972 C 190.076 177.368,189.932 177.608,189.695 177.608 C 189.457 177.608,189.313 177.848,189.313 178.244 C 189.313 178.594,189.198 178.880,189.059 178.880 C 188.919 178.880,188.804 179.109,188.804 179.389 C 188.804 179.669,188.690 179.898,188.550 179.898 C 188.410 179.898,188.295 180.184,188.295 180.534 C 188.295 180.930,188.151 181.170,187.913 181.170 C 187.701 181.170,187.532 181.397,187.532 181.679 C 187.532 181.959,187.417 182.188,187.277 182.188 C 187.137 182.188,187.023 182.449,187.023 182.768 C 187.023 183.087,186.794 183.513,186.514 183.715 C 186.234 183.917,186.005 184.343,186.005 184.662 C 186.005 185.008,185.851 185.242,185.623 185.242 C 185.413 185.242,185.242 185.445,185.242 185.694 C 185.242 185.943,185.013 186.312,184.733 186.514 C 184.453 186.716,184.224 187.093,184.224 187.352 C 184.224 187.868,183.655 188.550,183.224 188.550 C 183.074 188.550,182.952 188.680,182.952 188.840 C 182.952 189.000,182.608 189.459,182.188 189.860 C 181.768 190.261,181.425 190.699,181.425 190.833 C 181.425 190.967,181.024 191.478,180.534 191.968 C 180.045 192.458,179.644 192.977,179.644 193.121 C 179.644 193.266,179.522 193.384,179.373 193.384 C 179.224 193.384,178.482 194.014,177.724 194.784 C 176.967 195.553,176.173 196.183,175.960 196.183 C 175.747 196.183,175.573 196.298,175.573 196.438 C 175.573 196.578,175.401 196.692,175.191 196.692 C 174.981 196.692,174.809 196.822,174.809 196.981 C 174.809 197.355,173.509 198.473,173.073 198.473 C 172.669 198.473,172.010 199.093,172.010 199.473 C 172.010 199.623,171.724 199.746,171.374 199.746 C 171.024 199.746,170.738 199.860,170.738 200.000 C 170.738 200.140,170.534 200.254,170.285 200.254 C 170.036 200.254,169.667 200.483,169.466 200.763 C 169.264 201.043,168.838 201.272,168.519 201.272 C 168.173 201.272,167.939 201.426,167.939 201.654 C 167.939 201.891,167.699 202.036,167.303 202.036 C 166.953 202.036,166.667 202.150,166.667 202.290 C 166.667 202.430,166.438 202.545,166.158 202.545 C 165.878 202.545,165.649 202.659,165.649 202.799 C 165.649 202.939,165.363 203.053,165.013 203.053 C 164.617 203.053,164.377 203.198,164.377 203.435 C 164.377 203.647,164.150 203.817,163.868 203.817 C 163.588 203.817,163.359 203.931,163.359 204.071 C 163.359 204.211,162.951 204.326,162.453 204.326 C 161.914 204.326,161.611 204.429,161.705 204.580 C 161.797 204.729,161.538 204.835,161.084 204.835 C 160.656 204.835,160.305 204.949,160.305 205.089 C 160.305 205.229,159.962 205.344,159.542 205.344 C 159.033 205.344,158.779 205.471,158.779 205.725 C 158.779 205.963,158.538 206.107,158.142 206.107 C 157.793 206.107,157.506 206.221,157.506 206.361 C 157.506 206.501,157.115 206.616,156.637 206.616 C 156.159 206.616,155.729 206.725,155.683 206.857 C 155.636 206.990,155.111 207.127,154.517 207.162 C 153.829 207.201,153.435 207.345,153.435 207.556 C 153.435 207.766,153.107 207.888,152.545 207.888 C 152.055 207.888,151.654 208.003,151.654 208.142 C 151.654 208.282,151.139 208.397,150.509 208.397 C 149.879 208.397,149.364 208.511,149.364 208.651 C 149.364 208.791,148.849 208.906,148.219 208.906 C 147.589 208.906,147.074 209.020,147.074 209.160 C 147.074 209.300,146.559 209.415,145.929 209.415 C 145.081 209.415,144.784 209.514,144.784 209.796 C 144.784 210.093,144.444 210.178,143.257 210.178 C 142.409 210.178,141.730 210.291,141.730 210.433 C 141.730 210.573,141.101 210.687,140.331 210.687 C 139.561 210.687,138.931 210.802,138.931 210.941 C 138.931 211.084,138.227 211.196,137.328 211.196 C 136.447 211.196,135.616 211.305,135.483 211.438 C 135.350 211.571,134.396 211.709,133.362 211.745 C 132.329 211.780,131.613 211.853,131.772 211.905 C 132.703 212.216,131.742 212.468,129.629 212.468 C 128.072 212.468,127.253 212.560,127.354 212.723 C 127.507 212.970,126.521 213.112,125.206 213.033 C 124.864 213.012,124.460 213.099,124.307 213.226 C 124.140 213.364,123.879 213.362,123.656 213.221 C 122.857 212.716,122.718 213.258,123.350 214.407 C 123.513 214.703,123.574 215.018,123.486 215.106 C 123.397 215.195,123.516 215.267,123.749 215.267 C 123.982 215.267,124.173 215.388,124.173 215.537 C 124.173 215.685,124.030 215.725,123.855 215.627 C 123.617 215.492,123.620 215.536,123.866 215.800 C 124.137 216.092,124.231 216.094,124.403 215.816 C 124.613 215.476,124.853 215.761,124.882 216.384 C 124.888 216.508,125.046 216.704,125.233 216.820 C 125.420 216.935,125.587 217.148,125.604 217.294 C 125.622 217.439,125.650 217.679,125.668 217.827 C 125.685 217.975,125.814 218.025,125.954 217.939 C 126.198 217.789,126.327 218.162,126.218 218.702 C 126.189 218.842,126.245 218.878,126.342 218.781 C 126.438 218.685,126.711 218.799,126.948 219.036 C 127.514 219.600,128.303 220.865,128.089 220.865 C 127.997 220.865,128.224 221.103,128.594 221.394 C 128.964 221.686,129.208 222.020,129.135 222.137 C 128.814 222.657,129.858 223.188,131.072 223.124 C 131.750 223.088,132.392 223.156,132.500 223.275 C 132.609 223.394,132.525 223.397,132.316 223.282 C 132.106 223.168,132.023 223.171,132.131 223.291 C 132.439 223.628,133.394 223.714,133.191 223.385 C 133.065 223.181,133.160 223.180,133.540 223.384 C 133.828 223.538,134.357 223.664,134.716 223.664 C 135.075 223.664,135.369 223.779,135.369 223.919 C 135.369 224.064,136.132 224.173,137.150 224.173 C 138.168 224.173,138.931 224.282,138.931 224.427 C 138.931 224.567,139.549 224.682,140.304 224.682 C 141.289 224.682,141.717 224.790,141.822 225.064 C 141.928 225.339,142.360 225.445,143.376 225.445 C 144.150 225.445,144.784 225.537,144.784 225.650 C 144.784 225.763,145.270 225.883,145.865 225.917 C 146.460 225.952,146.985 226.089,147.031 226.221 C 147.078 226.354,147.622 226.463,148.240 226.463 C 148.969 226.463,149.364 226.575,149.364 226.781 C 149.364 226.974,149.790 227.128,150.446 227.173 C 151.040 227.213,151.565 227.356,151.612 227.491 C 151.658 227.625,152.081 227.735,152.551 227.735 C 153.021 227.735,153.476 227.850,153.562 227.990 C 153.649 228.130,154.171 228.244,154.722 228.244 C 155.274 228.244,155.725 228.359,155.725 228.499 C 155.725 228.639,156.126 228.753,156.616 228.753 C 157.238 228.753,157.506 228.868,157.506 229.135 C 157.506 229.372,157.747 229.517,158.142 229.517 C 158.492 229.517,158.779 229.631,158.779 229.771 C 158.779 229.911,159.122 230.025,159.542 230.025 C 159.962 230.025,160.305 230.140,160.305 230.280 C 160.305 230.420,160.592 230.534,160.941 230.534 C 161.291 230.534,161.579 230.677,161.582 230.852 C 161.584 231.064,161.668 231.043,161.832 230.789 C 162.043 230.463,162.079 230.472,162.083 230.852 C 162.085 231.157,162.288 231.298,162.723 231.298 C 163.073 231.298,163.359 231.412,163.359 231.552 C 163.359 231.692,163.588 231.807,163.868 231.807 C 164.148 231.807,164.377 231.921,164.377 232.061 C 164.377 232.201,164.663 232.316,165.013 232.316 C 165.363 232.316,165.649 232.430,165.649 232.570 C 165.649 232.710,165.878 232.824,166.158 232.824 C 166.440 232.824,166.667 232.994,166.667 233.206 C 166.667 233.444,166.907 233.588,167.303 233.588 C 167.653 233.588,167.939 233.702,167.939 233.842 C 167.939 233.982,168.225 234.097,168.575 234.097 C 168.925 234.097,169.211 234.211,169.211 234.351 C 169.211 234.491,169.440 234.606,169.720 234.606 C 170.000 234.606,170.229 234.736,170.229 234.896 C 170.229 235.268,171.005 235.859,171.509 235.870 C 171.723 235.874,172.063 236.107,172.265 236.387 C 172.466 236.667,172.725 236.896,172.840 236.896 C 173.064 236.896,173.450 237.189,174.428 238.104 C 174.765 238.419,175.160 238.677,175.307 238.677 C 175.453 238.677,175.573 238.791,175.573 238.931 C 175.573 239.071,175.802 239.186,176.081 239.186 C 176.361 239.186,176.590 239.308,176.590 239.458 C 176.590 239.764,177.220 240.458,177.497 240.458 C 177.721 240.458,178.880 241.790,178.880 242.048 C 178.880 242.153,179.000 242.239,179.146 242.239 C 179.430 242.239,180.662 243.382,180.662 243.645 C 180.662 243.904,181.368 244.529,181.661 244.529 C 181.811 244.529,181.934 244.763,181.934 245.050 C 181.934 245.523,182.964 246.819,183.340 246.819 C 183.672 246.819,184.224 247.568,184.224 248.017 C 184.224 248.276,184.453 248.653,184.733 248.855 C 185.013 249.057,185.242 249.429,185.242 249.682 C 185.242 249.936,185.413 250.209,185.623 250.290 C 185.833 250.370,186.005 250.653,186.005 250.918 C 186.005 251.183,186.120 251.399,186.260 251.399 C 186.399 251.399,186.514 251.571,186.514 251.781 C 186.514 251.991,186.628 252.163,186.768 252.163 C 186.908 252.163,187.023 252.392,187.023 252.672 C 187.023 252.952,187.137 253.181,187.277 253.181 C 187.417 253.181,187.532 253.467,187.532 253.817 C 187.532 254.213,187.676 254.453,187.913 254.453 C 188.126 254.453,188.295 254.679,188.295 254.962 C 188.295 255.242,188.410 255.471,188.550 255.471 C 188.690 255.471,188.804 255.757,188.804 256.107 C 188.804 256.457,188.919 256.743,189.059 256.743 C 189.198 256.743,189.313 256.972,189.313 257.252 C 189.313 257.535,189.483 257.761,189.695 257.761 C 189.932 257.761,190.076 258.001,190.076 258.397 C 190.076 258.747,190.191 259.033,190.331 259.033 C 190.471 259.033,190.585 259.434,190.585 259.924 C 190.585 260.413,190.681 260.814,190.799 260.814 C 190.917 260.814,191.164 261.444,191.349 262.214 C 191.548 263.047,191.822 263.613,192.025 263.613 C 192.260 263.613,192.366 263.971,192.366 264.758 C 192.366 265.388,192.468 265.903,192.592 265.903 C 192.817 265.903,193.034 266.704,193.298 268.511 C 193.383 269.091,193.577 269.466,193.793 269.466 C 194.044 269.466,194.148 269.801,194.148 270.611 C 194.148 271.240,194.262 271.756,194.402 271.756 C 194.542 271.756,194.656 272.271,194.656 272.901 C 194.656 273.531,194.771 274.046,194.911 274.046 C 195.051 274.046,195.165 274.561,195.165 275.191 C 195.165 275.821,195.280 276.336,195.420 276.336 C 195.560 276.336,195.674 276.969,195.674 277.743 C 195.674 278.760,195.780 279.192,196.056 279.297 C 196.330 279.402,196.438 279.831,196.438 280.816 C 196.438 281.571,196.552 282.188,196.692 282.188 C 196.839 282.188,196.947 282.989,196.947 284.082 C 196.947 285.123,197.061 286.046,197.201 286.132 C 197.341 286.219,197.455 287.004,197.455 287.878 C 197.455 288.751,197.562 289.574,197.691 289.707 C 197.821 289.840,197.964 290.836,198.010 291.920 C 198.066 293.283,198.190 293.892,198.410 293.892 C 198.640 293.893,198.728 294.521,198.728 296.183 C 198.728 297.443,198.835 298.473,198.966 298.473 C 199.196 298.473,199.308 299.912,199.633 307.061 C 199.754 309.733,199.861 310.433,200.147 310.433 C 200.440 310.433,200.509 311.035,200.509 313.613 C 200.509 315.986,200.590 316.795,200.827 316.798 C 201.043 316.800,201.022 316.889,200.763 317.072 C 200.476 317.275,200.460 317.373,200.700 317.471 C 200.875 317.542,201.018 317.883,201.018 318.230 C 201.018 318.614,201.124 318.794,201.291 318.691 C 201.441 318.598,201.413 318.766,201.227 319.065 C 200.947 319.518,200.948 319.644,201.236 319.823 C 201.476 319.973,201.496 320.091,201.299 320.212 C 200.909 320.454,200.948 320.784,201.387 320.952 C 201.597 321.033,201.724 320.963,201.683 320.789 C 201.643 320.621,201.658 320.570,201.717 320.676 C 201.776 320.782,201.916 320.812,202.029 320.742 C 202.141 320.673,202.217 320.815,202.198 321.059 C 202.178 321.303,202.313 321.470,202.500 321.431 C 202.701 321.390,202.762 321.482,202.652 321.661 C 202.550 321.825,202.630 322.086,202.830 322.240 C 203.458 322.723,204.300 323.938,204.226 324.253 C 204.187 324.419,204.203 324.469,204.261 324.364 C 204.490 323.955,204.873 324.208,205.127 324.936 C 205.273 325.356,205.496 325.635,205.623 325.557 C 205.920 325.373,205.922 324.427,205.625 324.427 C 205.253 324.427,205.050 323.601,205.350 323.304 C 205.551 323.105,205.576 323.164,205.443 323.515 C 205.323 323.828,205.352 323.943,205.522 323.838 C 205.680 323.741,205.800 322.451,205.818 320.680 C 205.836 318.920,205.954 317.651,206.105 317.600 C 206.262 317.548,206.361 316.081,206.361 313.828 C 206.361 310.891,206.439 310.064,206.743 309.760 C 207.033 309.470,207.125 308.744,207.125 306.725 C 207.125 305.125,207.226 304.071,207.379 304.071 C 207.533 304.071,207.634 302.969,207.634 301.272 C 207.634 299.576,207.734 298.473,207.888 298.473 C 208.040 298.473,208.142 297.498,208.142 296.056 C 208.142 294.614,208.245 293.639,208.397 293.639 C 208.548 293.639,208.651 292.706,208.651 291.349 C 208.651 289.483,208.722 289.059,209.033 289.059 C 209.333 289.059,209.415 288.705,209.415 287.405 C 209.415 286.472,209.526 285.751,209.669 285.751 C 209.815 285.751,209.924 284.987,209.924 283.969 C 209.924 282.952,210.033 282.188,210.178 282.188 C 210.318 282.188,210.433 281.559,210.433 280.789 C 210.433 280.019,210.547 279.389,210.687 279.389 C 210.828 279.389,210.941 278.711,210.941 277.863 C 210.941 276.675,211.026 276.336,211.323 276.336 C 211.606 276.336,211.705 276.039,211.705 275.191 C 211.705 274.561,211.819 274.046,211.959 274.046 C 212.099 274.046,212.214 273.531,212.214 272.901 C 212.214 272.271,212.328 271.756,212.468 271.756 C 212.608 271.756,212.723 271.253,212.723 270.638 C 212.723 269.879,212.845 269.473,213.104 269.374 C 213.325 269.289,213.486 268.908,213.486 268.471 C 213.486 268.055,213.601 267.644,213.740 267.557 C 213.880 267.471,213.995 266.949,213.995 266.397 C 213.995 265.846,214.109 265.394,214.249 265.394 C 214.389 265.394,214.504 264.994,214.504 264.504 C 214.504 264.014,214.618 263.613,214.758 263.613 C 214.898 263.613,215.013 263.396,215.013 263.132 C 215.013 262.867,215.184 262.584,215.394 262.503 C 215.618 262.418,215.776 262.037,215.776 261.586 C 215.776 261.161,215.891 260.814,216.031 260.814 C 216.170 260.814,216.285 260.413,216.285 259.924 C 216.285 259.434,216.399 259.033,216.539 259.033 C 216.679 259.033,216.794 258.747,216.794 258.397 C 216.794 258.001,216.938 257.761,217.176 257.761 C 217.388 257.761,217.557 257.535,217.557 257.252 C 217.557 256.972,217.672 256.743,217.812 256.743 C 217.952 256.743,218.066 256.457,218.066 256.107 C 218.066 255.757,218.181 255.471,218.321 255.471 C 218.461 255.471,218.575 255.242,218.575 254.962 C 218.575 254.682,218.690 254.453,218.830 254.453 C 218.969 254.453,219.084 254.167,219.084 253.817 C 219.084 253.421,219.228 253.181,219.466 253.181 C 219.678 253.181,219.847 252.954,219.847 252.672 C 219.847 252.392,219.962 252.163,220.102 252.163 C 220.242 252.163,220.356 251.991,220.356 251.781 C 220.356 251.571,220.471 251.399,220.611 251.399 C 220.751 251.399,220.865 251.170,220.865 250.891 C 220.865 250.608,221.035 250.382,221.247 250.382 C 221.474 250.382,221.628 250.148,221.628 249.802 C 221.628 249.483,221.858 249.057,222.137 248.855 C 222.417 248.653,222.646 248.342,222.646 248.163 C 222.646 247.984,222.761 247.837,222.901 247.837 C 223.041 247.837,223.155 247.608,223.155 247.328 C 223.155 247.048,223.275 246.819,223.421 246.819 C 223.838 246.819,224.936 245.616,224.936 245.159 C 224.936 244.692,225.526 244.020,225.936 244.020 C 226.086 244.020,226.209 243.893,226.209 243.737 C 226.209 243.423,227.968 241.730,228.294 241.730 C 228.407 241.730,228.499 241.611,228.499 241.464 C 228.499 241.119,229.668 239.949,230.014 239.949 C 230.160 239.949,230.280 239.777,230.280 239.567 C 230.280 239.358,230.460 239.186,230.680 239.186 C 230.900 239.186,231.224 239.043,231.401 238.868 C 231.578 238.693,232.040 238.321,232.429 238.041 C 232.817 237.761,233.286 237.389,233.471 237.214 C 233.655 237.039,233.903 236.896,234.022 236.896 C 234.141 236.896,234.404 236.667,234.606 236.387 C 234.807 236.107,235.176 235.878,235.425 235.878 C 235.674 235.878,235.878 235.763,235.878 235.623 C 235.878 235.483,236.107 235.369,236.387 235.369 C 236.669 235.369,236.896 235.199,236.896 234.987 C 236.896 234.777,237.067 234.606,237.277 234.606 C 237.487 234.606,237.659 234.491,237.659 234.351 C 237.659 234.211,237.945 234.097,238.295 234.097 C 238.645 234.097,238.931 233.982,238.931 233.842 C 238.931 233.702,239.160 233.588,239.440 233.588 C 239.723 233.588,239.949 233.418,239.949 233.206 C 239.949 232.969,240.189 232.824,240.585 232.824 C 240.935 232.824,241.221 232.710,241.221 232.570 C 241.221 232.430,241.444 232.316,241.715 232.316 C 241.987 232.316,242.280 232.201,242.366 232.061 C 242.453 231.921,242.746 231.807,243.018 231.807 C 243.289 231.807,243.511 231.692,243.511 231.552 C 243.511 231.412,243.798 231.298,244.148 231.298 C 244.582 231.298,244.785 231.157,244.788 230.852 C 244.791 230.472,244.827 230.463,245.038 230.789 C 245.203 231.043,245.286 231.064,245.289 230.852 C 245.291 230.677,245.522 230.534,245.802 230.534 C 246.081 230.534,246.310 230.420,246.310 230.280 C 246.310 230.140,246.711 230.025,247.201 230.025 C 247.691 230.025,248.092 229.911,248.092 229.771 C 248.092 229.631,248.378 229.517,248.728 229.517 C 249.124 229.517,249.364 229.372,249.364 229.135 C 249.364 228.852,249.661 228.753,250.509 228.753 C 251.139 228.753,251.654 228.639,251.654 228.499 C 251.654 228.359,252.061 228.244,252.560 228.244 C 253.098 228.244,253.401 228.141,253.308 227.990 C 253.213 227.836,253.560 227.735,254.183 227.735 C 254.752 227.735,255.216 227.621,255.216 227.481 C 255.216 227.341,255.732 227.226,256.361 227.226 C 257.209 227.226,257.506 227.128,257.506 226.845 C 257.506 226.562,257.803 226.463,258.651 226.463 C 259.281 226.463,259.796 226.349,259.796 226.209 C 259.796 226.069,260.312 225.954,260.941 225.954 C 261.571 225.954,262.087 225.840,262.087 225.700 C 262.087 225.560,262.716 225.445,263.486 225.445 C 264.560 225.445,264.885 225.357,264.885 225.064 C 264.885 224.767,265.225 224.682,266.412 224.682 C 267.260 224.682,267.939 224.569,267.939 224.427 C 267.939 224.281,268.728 224.173,269.796 224.173 C 270.818 224.173,271.767 224.060,271.906 223.921 C 272.045 223.782,272.898 223.652,273.802 223.630 C 274.748 223.608,275.237 223.518,274.953 223.417 C 274.616 223.298,274.556 223.184,274.763 223.056 C 275.110 222.842,274.882 222.314,274.074 221.456 C 273.710 221.070,273.646 220.864,273.862 220.777 C 274.033 220.707,273.909 220.642,273.585 220.631 C 273.262 220.620,273.069 220.496,273.155 220.356 C 273.242 220.216,273.127 220.102,272.901 220.102 C 272.664 220.102,272.563 219.982,272.664 219.819 C 272.760 219.663,272.510 219.275,272.106 218.953 C 271.704 218.632,271.374 218.243,271.374 218.090 C 271.374 217.937,271.293 217.840,271.194 217.875 C 270.984 217.950,270.249 217.033,270.237 216.682 C 270.233 216.550,270.397 216.664,270.603 216.936 C 270.808 217.208,270.980 217.350,270.984 217.252 C 270.999 216.927,269.799 215.782,269.626 215.955 C 269.532 216.049,269.486 215.847,269.524 215.506 C 269.566 215.128,269.472 214.909,269.284 214.946 C 269.089 214.984,269.036 214.843,269.141 214.564 C 269.287 214.175,269.254 214.165,268.871 214.476 C 268.495 214.782,268.456 214.778,268.584 214.445 C 268.668 214.225,268.562 213.995,268.335 213.909 C 268.117 213.825,267.939 213.593,267.939 213.394 C 267.939 213.195,267.767 212.966,267.557 212.885 C 267.347 212.805,267.176 212.610,267.176 212.453 C 267.176 212.296,266.918 211.955,266.603 211.695 L 266.031 211.222 266.653 211.379 C 267.205 211.518,267.234 211.492,266.909 211.143 C 266.707 210.927,266.413 210.800,266.256 210.861 C 266.098 210.921,265.791 210.792,265.573 210.574 C 265.103 210.105,264.377 210.050,264.377 210.483 C 264.377 210.721,264.309 210.721,264.071 210.483 C 263.903 210.316,263.388 210.178,262.926 210.178 C 262.349 210.178,262.087 210.059,262.087 209.796 C 262.087 209.514,261.790 209.415,260.941 209.415 C 260.312 209.415,259.796 209.300,259.796 209.160 C 259.796 209.020,259.281 208.906,258.651 208.906 C 258.022 208.906,257.506 208.791,257.506 208.651 C 257.506 208.511,256.934 208.397,256.234 208.397 C 255.534 208.397,254.962 208.282,254.962 208.142 C 254.962 208.003,254.618 207.888,254.198 207.888 C 253.758 207.888,253.435 207.754,253.435 207.570 C 253.434 207.393,253.068 207.226,252.609 207.194 C 252.156 207.162,251.746 207.019,251.698 206.876 C 251.651 206.733,251.106 206.616,250.488 206.616 C 249.870 206.616,249.364 206.501,249.364 206.361 C 249.364 206.221,249.078 206.107,248.728 206.107 C 248.332 206.107,248.092 205.963,248.092 205.725 C 248.092 205.459,247.823 205.344,247.201 205.344 C 246.711 205.344,246.310 205.229,246.310 205.089 C 246.310 204.949,246.081 204.835,245.802 204.835 C 245.522 204.835,245.291 204.691,245.289 204.517 C 245.286 204.304,245.203 204.326,245.038 204.580 C 244.874 204.835,244.790 204.856,244.788 204.644 C 244.785 204.469,244.497 204.326,244.148 204.326 C 243.798 204.326,243.511 204.211,243.511 204.071 C 243.511 203.931,243.295 203.817,243.030 203.817 C 242.765 203.817,242.482 203.645,242.402 203.435 C 242.321 203.225,242.023 203.053,241.738 203.053 C 241.454 203.053,241.221 202.939,241.221 202.799 C 241.221 202.659,240.935 202.545,240.585 202.545 C 240.235 202.545,239.949 202.430,239.949 202.290 C 239.949 202.150,239.720 202.036,239.440 202.036 C 239.157 202.036,238.931 201.866,238.931 201.654 C 238.931 201.426,238.697 201.272,238.351 201.272 C 238.032 201.272,237.606 201.043,237.405 200.763 C 237.203 200.483,236.777 200.254,236.458 200.254 C 236.139 200.254,235.878 200.140,235.878 200.000 C 235.878 199.860,235.649 199.746,235.369 199.746 C 235.089 199.746,234.860 199.623,234.860 199.473 C 234.860 199.061,234.187 198.473,233.716 198.473 C 233.486 198.473,232.805 197.958,232.201 197.328 C 231.598 196.698,230.919 196.183,230.692 196.183 C 230.465 196.183,230.280 196.069,230.280 195.929 C 230.280 195.789,230.108 195.674,229.898 195.674 C 229.688 195.674,229.517 195.556,229.517 195.411 C 229.517 195.069,227.831 193.384,227.489 193.384 C 227.345 193.384,227.226 193.265,227.226 193.118 C 227.226 192.773,226.057 191.603,225.711 191.603 C 225.565 191.603,225.445 191.431,225.445 191.221 C 225.445 191.011,225.331 190.840,225.191 190.840 C 225.051 190.840,224.936 190.604,224.936 190.316 C 224.936 190.028,224.822 189.863,224.682 189.949 C 224.542 190.036,224.427 189.928,224.427 189.710 C 224.427 189.491,224.313 189.313,224.173 189.313 C 224.033 189.313,223.919 189.141,223.919 188.931 C 223.919 188.721,223.796 188.550,223.646 188.550 C 223.192 188.550,222.646 187.856,222.646 187.281 C 222.646 186.982,222.532 186.809,222.392 186.896 C 222.252 186.982,222.137 186.874,222.137 186.656 C 222.137 186.438,222.023 186.260,221.883 186.260 C 221.743 186.260,221.628 186.031,221.628 185.751 C 221.628 185.468,221.459 185.242,221.247 185.242 C 221.037 185.242,220.865 185.034,220.865 184.781 C 220.865 184.527,220.636 184.074,220.356 183.774 C 220.076 183.473,219.847 182.994,219.847 182.708 C 219.847 182.416,219.680 182.188,219.466 182.188 C 219.254 182.188,219.084 181.962,219.084 181.679 C 219.084 181.399,218.969 181.170,218.830 181.170 C 218.690 181.170,218.575 180.884,218.575 180.534 C 218.575 180.184,218.461 179.898,218.321 179.898 C 218.181 179.898,218.066 179.669,218.066 179.389 C 218.066 179.109,217.952 178.880,217.812 178.880 C 217.672 178.880,217.557 178.594,217.557 178.244 C 217.557 177.848,217.413 177.608,217.176 177.608 C 216.909 177.608,216.794 177.340,216.794 176.718 C 216.794 176.228,216.679 175.827,216.539 175.827 C 216.399 175.827,216.285 175.598,216.285 175.318 C 216.285 175.038,216.170 174.809,216.031 174.809 C 215.891 174.809,215.776 174.519,215.776 174.165 C 215.776 173.811,215.604 173.455,215.394 173.374 C 215.177 173.291,215.013 172.911,215.013 172.492 C 215.013 172.087,214.898 171.756,214.758 171.756 C 214.618 171.756,214.504 171.304,214.504 170.753 C 214.504 170.201,214.389 169.679,214.249 169.593 C 214.109 169.506,213.995 169.035,213.995 168.545 C 213.995 168.016,213.892 167.718,213.740 167.812 C 213.589 167.905,213.486 167.600,213.486 167.055 C 213.486 166.478,213.346 166.088,213.104 165.995 C 212.845 165.896,212.723 165.490,212.723 164.731 C 212.723 164.116,212.608 163.613,212.468 163.613 C 212.328 163.613,212.214 163.098,212.214 162.468 C 212.214 161.838,212.099 161.323,211.959 161.323 C 211.819 161.323,211.705 160.808,211.705 160.178 C 211.705 159.330,211.606 159.033,211.323 159.033 C 211.030 159.033,210.941 158.708,210.941 157.634 C 210.941 156.864,210.827 156.234,210.687 156.234 C 210.546 156.234,210.433 155.556,210.433 154.707 C 210.433 153.859,210.319 153.181,210.178 153.181 C 210.031 153.181,209.924 152.380,209.924 151.287 C 209.924 150.246,209.809 149.323,209.669 149.237 C 209.529 149.150,209.415 148.456,209.415 147.695 C 209.415 146.634,209.326 146.310,209.033 146.310 C 208.722 146.310,208.651 145.886,208.651 144.020 C 208.651 142.663,208.548 141.730,208.397 141.730 C 208.246 141.730,208.142 140.804,208.142 139.461 C 208.142 138.092,208.036 137.157,207.873 137.103 C 207.706 137.047,207.601 135.920,207.596 134.114 C 207.591 132.428,207.498 131.360,207.373 131.562 C 207.255 131.753,207.214 132.000,207.282 132.111 C 207.351 132.221,207.293 132.513,207.153 132.759 C 206.971 133.081,206.914 132.674,206.949 131.298 C 206.985 129.887,206.915 129.406,206.679 129.453 C 206.504 129.488,206.361 129.389,206.361 129.232 C 206.361 129.076,206.141 129.006,205.873 129.076 C 205.500 129.174,205.406 129.090,205.476 128.724 C 205.532 128.433,205.424 128.244,205.202 128.244 C 205.000 128.244,204.835 128.078,204.835 127.875 C 204.835 127.672,204.634 127.389,204.389 127.247 C 204.144 127.104,204.059 126.980,204.198 126.971 C 204.338 126.962,204.167 126.782,203.817 126.571 L 203.181 126.187 203.803 126.358 C 204.336 126.505,204.281 126.396,203.422 125.609 C 202.869 125.103,202.403 124.573,202.385 124.431 C 202.368 124.289,202.339 124.052,202.322 123.904 C 202.304 123.755,202.189 123.697,202.064 123.774 C 201.940 123.850,201.683 123.720,201.492 123.485 C 201.295 123.243,201.274 123.135,201.444 123.237 C 201.637 123.353,201.601 123.055,201.342 122.395 C 200.978 121.468,200.509 121.025,200.509 121.607 M206.361 125.827 C 206.361 126.037,206.514 126.209,206.701 126.209 C 206.887 126.209,207.040 126.037,207.040 125.827 C 207.040 125.617,206.887 125.445,206.701 125.445 C 206.514 125.445,206.361 125.617,206.361 125.827 M270.483 211.294 C 270.483 211.348,270.821 211.442,271.233 211.503 C 271.646 211.563,271.925 211.519,271.854 211.404 C 271.728 211.200,270.483 211.100,270.483 211.294 M274.809 212.087 C 274.809 212.296,274.924 212.468,275.064 212.468 C 275.204 212.468,275.318 212.296,275.318 212.087 C 275.318 211.877,275.204 211.705,275.064 211.705 C 274.924 211.705,274.809 211.877,274.809 212.087 M342.239 217.280 C 342.498 217.463,342.518 217.551,342.303 217.553 C 342.128 217.555,341.985 217.729,341.985 217.939 C 341.985 218.149,342.099 218.321,342.239 218.321 C 342.379 218.321,342.494 218.149,342.494 217.939 C 342.494 217.729,342.502 217.474,342.513 217.373 C 342.523 217.271,342.380 217.148,342.195 217.099 C 341.971 217.040,341.986 217.101,342.239 217.280 M128.264 222.243 C 128.253 222.652,128.277 222.938,128.316 222.880 C 128.356 222.821,128.556 222.551,128.762 222.279 C 128.967 222.008,129.002 221.865,128.839 221.963 C 128.676 222.061,128.484 221.997,128.413 221.821 C 128.342 221.645,128.275 221.835,128.264 222.243 M72.940 254.453 C 72.712 255.164,72.484 256.608,72.237 258.906 C 71.734 263.590,71.163 266.649,70.326 269.150 C 69.780 270.782,67.907 274.555,67.643 274.555 C 67.526 274.555,67.430 274.698,67.430 274.873 C 67.431 275.540,64.157 278.254,62.178 279.227 C 61.078 279.768,59.982 280.310,59.741 280.432 C 59.025 280.798,55.811 281.572,53.496 281.936 C 52.619 282.074,51.417 282.309,50.824 282.458 C 50.231 282.606,49.602 282.740,49.427 282.755 C 48.984 282.793,49.006 282.848,49.936 284.048 C 51.219 285.701,51.538 285.913,53.243 286.244 C 57.974 287.161,58.942 287.447,61.832 288.776 C 67.987 291.607,71.033 297.634,72.265 309.415 C 72.404 310.744,72.574 312.233,72.644 312.723 C 72.713 313.212,72.795 313.928,72.826 314.313 C 72.857 314.698,72.972 315.013,73.082 315.013 C 73.192 315.013,73.282 315.184,73.282 315.394 C 73.282 315.604,73.404 315.776,73.552 315.776 C 73.700 315.776,73.751 315.891,73.664 316.031 C 73.578 316.170,73.635 316.285,73.791 316.285 C 73.948 316.285,74.005 316.399,73.919 316.539 C 73.832 316.679,73.921 316.794,74.116 316.794 C 74.310 316.794,74.479 316.651,74.490 316.476 C 74.635 314.159,74.886 311.486,75.094 310.051 C 75.236 309.071,75.411 307.754,75.485 307.125 C 77.012 293.960,81.757 288.538,93.639 286.380 C 95.402 286.059,96.521 285.704,96.291 285.538 C 95.780 285.170,95.258 284.362,95.674 284.585 C 95.884 284.697,95.764 284.518,95.407 284.188 C 94.077 282.957,93.750 282.434,94.154 282.184 C 94.445 282.004,94.416 281.961,94.017 281.978 C 92.468 282.046,86.607 280.114,84.393 278.806 C 80.620 276.578,78.423 273.439,76.875 268.066 C 76.087 265.329,76.085 265.317,75.301 259.813 C 74.854 256.675,74.693 256.063,74.192 255.614 C 73.869 255.325,73.483 254.860,73.334 254.580 C 73.116 254.173,73.038 254.147,72.940 254.453 M204.580 334.521 C 204.580 334.707,204.752 334.860,204.962 334.860 C 205.172 334.860,205.344 334.707,205.344 334.521 C 205.344 334.334,205.172 334.182,204.962 334.182 C 204.752 334.182,204.580 334.334,204.580 334.521 " stroke="none" fill="#fb9805" fill-rule="evenodd"></path></g></svg>