<?xml version="1.0" encoding="UTF-8"?>
<!DOCTYPE svg PUBLIC "-//W3C//DTD SVG 1.1//EN" "http://www.w3.org/Graphics/SVG/1.1/DTD/svg11.dtd">
<svg xmlns="http://www.w3.org/2000/svg" version="1.1" width="512px" height="512px" style="shape-rendering:geometricPrecision; text-rendering:geometricPrecision; image-rendering:optimizeQuality; fill-rule:evenodd; clip-rule:evenodd" xmlns:xlink="http://www.w3.org/1999/xlink">
<g><path style="opacity:0.984" fill="#f5f5f5" d="M 439.5,342.5 C 438.167,342.5 437.5,343.167 437.5,344.5C 434.616,351.264 430.95,357.598 426.5,363.5C 425.5,363.833 424.833,364.5 424.5,365.5C 424.5,365.833 424.5,366.167 424.5,366.5C 423.094,366.973 422.427,367.973 422.5,369.5C 420.397,372.72 418.064,375.72 415.5,378.5C 414.094,378.973 413.427,379.973 413.5,381.5C 412.833,382.167 412.167,382.833 411.5,383.5C 409.738,384.262 408.738,385.596 408.5,387.5C 407.527,389.139 406.194,390.473 404.5,391.5C 401.097,393.9 398.43,396.9 396.5,400.5C 396.5,401.167 396.167,401.5 395.5,401.5C 392.573,402.757 390.239,404.757 388.5,407.5C 387.473,409.194 386.139,410.527 384.5,411.5C 382.973,411.427 381.973,412.094 381.5,413.5C 380.694,414.728 379.694,415.728 378.5,416.5C 376.973,416.427 375.973,417.094 375.5,418.5C 375.158,419.338 374.492,419.672 373.5,419.5C 372.5,419.833 371.833,420.5 371.5,421.5C 371.158,422.338 370.492,422.672 369.5,422.5C 368.5,422.833 367.833,423.5 367.5,424.5C 361.375,429.618 354.708,433.951 347.5,437.5C 346.673,436.561 346.006,436.895 345.5,438.5C 320.527,452.321 295.527,466.154 270.5,480C 258.038,484.925 246.038,483.925 234.5,477C 206.005,461.253 177.671,445.253 149.5,429C 89.6014,387.072 55.4347,329.572 47,256.5C 46.3333,210.167 46.3333,163.833 47,117.5C 47.9747,113.56 49.4747,109.893 51.5,106.5C 52.5,106.167 53.1667,105.5 53.5,104.5C 53.3284,103.508 53.6618,102.842 54.5,102.5C 55.9063,102.027 56.573,101.027 56.5,99.5C 56.8333,98.5 57.5,97.8333 58.5,97.5C 60.0269,97.573 61.0269,96.9063 61.5,95.5C 61.8417,94.6618 62.5084,94.3284 63.5,94.5C 64.5,94.1667 65.1667,93.5 65.5,92.5C 68.9365,90.519 72.6032,89.019 76.5,88C 121.722,83.4465 164.722,71.2798 205.5,51.5C 209.652,51.5975 212.652,49.9308 214.5,46.5C 217.167,45.1667 219.833,43.8333 222.5,42.5C 224.027,42.573 225.027,41.9063 225.5,40.5C 234.36,33.7398 244.36,29.7398 255.5,28.5C 258.849,28.8916 262.183,29.3916 265.5,30C 289.339,43.5856 314.006,55.5856 339.5,66C 370.253,77.2715 401.919,84.6048 434.5,88C 449.667,92.5 459.5,102.333 464,117.5C 464.667,163.833 464.667,210.167 464,256.5C 461.401,286.792 453.234,315.459 439.5,342.5 Z M 405.5,332.5 C 404.094,332.973 403.427,333.973 403.5,335.5C 402.263,336.965 401.263,338.632 400.5,340.5C 399.599,341.29 398.932,342.29 398.5,343.5C 397.599,344.29 396.932,345.29 396.5,346.5C 394.078,350.344 391.411,354.01 388.5,357.5C 387.094,357.973 386.427,358.973 386.5,360.5C 385.5,361.5 384.5,362.5 383.5,363.5C 382.094,363.973 381.427,364.973 381.5,366.5C 375.167,372.167 369.167,378.167 363.5,384.5C 361.973,384.427 360.973,385.094 360.5,386.5C 359.306,387.272 358.306,388.272 357.5,389.5C 356.167,389.5 355.5,390.167 355.5,391.5C 354.508,391.328 353.842,391.662 353.5,392.5C 352.167,392.5 351.5,393.167 351.5,394.5C 350.508,394.328 349.842,394.662 349.5,395.5C 348.167,395.5 347.5,396.167 347.5,397.5C 347.167,397.5 346.833,397.5 346.5,397.5C 345.167,397.5 344.5,398.167 344.5,399.5C 342.938,399.733 341.605,400.4 340.5,401.5C 338.973,401.427 337.973,402.094 337.5,403.5C 332.167,406.5 326.833,409.5 321.5,412.5C 319.973,412.427 318.973,413.094 318.5,414.5C 298.221,425.642 277.888,436.809 257.5,448C 254.581,448.552 251.914,447.885 249.5,446C 223.995,431.413 198.328,417.08 172.5,403C 115.535,364.937 85.035,311.437 81,242.5C 80.3333,203.5 80.3333,164.5 81,125.5C 81.2492,124.376 81.7492,123.376 82.5,122.5C 135.936,116.562 186.269,100.895 233.5,75.5C 234.492,75.6716 235.158,75.3382 235.5,74.5C 241.637,71.264 247.637,67.764 253.5,64C 254.833,63.3333 256.167,63.3333 257.5,64C 310.528,96.0658 367.862,115.899 429.5,123.5C 430.161,143.291 430.494,163.125 430.5,183C 430.581,207.517 430.081,232.017 429,256.5C 426.079,283.425 418.246,308.758 405.5,332.5 Z"/></g>
<g><path style="opacity:0.043" fill="#3c3c3c" d="M 225.5,40.5 C 225.027,41.9063 224.027,42.573 222.5,42.5C 222.973,41.0937 223.973,40.427 225.5,40.5 Z"/></g>
<g><path style="opacity:0.659" fill="#b4b4b4" d="M 214.5,46.5 C 212.652,49.9308 209.652,51.5975 205.5,51.5C 208.304,49.5954 211.304,47.9287 214.5,46.5 Z"/></g>
<g><path style="opacity:0.004" fill="#1e1e1e" d="M 235.5,74.5 C 235.158,75.3382 234.492,75.6716 233.5,75.5C 234.006,73.8946 234.673,73.5613 235.5,74.5 Z"/></g>
<g><path style="opacity:0.031" fill="#353535" d="M 65.5,92.5 C 65.1667,93.5 64.5,94.1667 63.5,94.5C 63.5,93.1667 64.1667,92.5 65.5,92.5 Z"/></g>
<g><path style="opacity:0.035" fill="#373737" d="M 61.5,95.5 C 61.0269,96.9063 60.0269,97.573 58.5,97.5C 58.9731,96.0937 59.9731,95.427 61.5,95.5 Z"/></g>
<g><path style="opacity:0.039" fill="#1f1f1f" d="M 56.5,99.5 C 56.573,101.027 55.9063,102.027 54.5,102.5C 54.427,100.973 55.0937,99.9731 56.5,99.5 Z"/></g>
<g><path style="opacity:0.043" fill="#2d2d2d" d="M 53.5,104.5 C 53.1667,105.5 52.5,106.167 51.5,106.5C 51.5,105.167 52.1667,104.5 53.5,104.5 Z"/></g>
<g><path style="opacity:0.969" fill="#f9f9f9" d="M 340.5,209.5 C 339.5,209.833 338.833,210.5 338.5,211.5C 338.262,213.404 337.262,214.738 335.5,215.5C 333.086,216.911 331.419,218.911 330.5,221.5C 327.554,225.112 324.221,228.446 320.5,231.5C 318.086,232.911 316.419,234.911 315.5,237.5C 312.554,241.112 309.221,244.446 305.5,247.5C 303.086,248.911 301.419,250.911 300.5,253.5C 297.554,257.112 294.221,260.446 290.5,263.5C 288.086,264.911 286.419,266.911 285.5,269.5C 282.554,273.112 279.221,276.446 275.5,279.5C 273.086,280.911 271.419,282.911 270.5,285.5C 267.554,289.112 264.221,292.446 260.5,295.5C 258.167,297.167 256.167,299.167 254.5,301.5C 248.39,305.306 242.056,305.473 235.5,302C 217.316,286.146 199.483,269.979 182,253.5C 178.562,247.053 179.062,241.053 183.5,235.5C 185.167,234.5 186.5,233.167 187.5,231.5C 193.106,227.033 199.106,226.533 205.5,230C 217.865,240.841 230.198,251.674 242.5,262.5C 243.548,264.933 244.214,264.933 244.5,262.5C 247.446,258.888 250.779,255.554 254.5,252.5C 256.914,251.089 258.581,249.089 259.5,246.5C 262.446,242.888 265.779,239.554 269.5,236.5C 271.914,235.089 273.581,233.089 274.5,230.5C 277.446,226.888 280.779,223.554 284.5,220.5C 286.914,219.089 288.581,217.089 289.5,214.5C 292.446,210.888 295.779,207.554 299.5,204.5C 301.914,203.089 303.581,201.089 304.5,198.5C 307.908,194.589 311.574,190.755 315.5,187C 330.207,181.852 339.207,186.852 342.5,202C 342.332,204.665 341.665,207.165 340.5,209.5 Z"/></g>
<g><path style="opacity:0.031" fill="#2b2b2b" d="M 304.5,198.5 C 303.581,201.089 301.914,203.089 299.5,204.5C 300.419,201.911 302.086,199.911 304.5,198.5 Z"/></g>
<g><path style="opacity:0.004" fill="#222222" d="M 340.5,209.5 C 340.5,210.833 339.833,211.5 338.5,211.5C 338.833,210.5 339.5,209.833 340.5,209.5 Z"/></g>
<g><path style="opacity:0.027" fill="#2d2d2d" d="M 289.5,214.5 C 288.581,217.089 286.914,219.089 284.5,220.5C 285.419,217.911 287.086,215.911 289.5,214.5 Z"/></g>
<g><path style="opacity:0.004" fill="#151515" d="M 335.5,215.5 C 334.581,218.089 332.914,220.089 330.5,221.5C 331.419,218.911 333.086,216.911 335.5,215.5 Z"/></g>
<g><path style="opacity:0.043" fill="#2d2d2d" d="M 187.5,231.5 C 186.5,233.167 185.167,234.5 183.5,235.5C 183.833,233.167 185.167,231.833 187.5,231.5 Z"/></g>
<g><path style="opacity:0.031" fill="#2a2a2a" d="M 274.5,230.5 C 273.581,233.089 271.914,235.089 269.5,236.5C 270.419,233.911 272.086,231.911 274.5,230.5 Z"/></g>
<g><path style="opacity:0.004" fill="#161616" d="M 320.5,231.5 C 319.581,234.089 317.914,236.089 315.5,237.5C 316.419,234.911 318.086,232.911 320.5,231.5 Z"/></g>
<g><path style="opacity:0.031" fill="#2a2a2a" d="M 259.5,246.5 C 258.581,249.089 256.914,251.089 254.5,252.5C 255.419,249.911 257.086,247.911 259.5,246.5 Z"/></g>
<g><path style="opacity:0.004" fill="#151515" d="M 305.5,247.5 C 304.581,250.089 302.914,252.089 300.5,253.5C 301.419,250.911 303.086,248.911 305.5,247.5 Z"/></g>
<g><path style="opacity:0.004" fill="#101010" d="M 242.5,262.5 C 243.167,262.5 243.833,262.5 244.5,262.5C 244.214,264.933 243.548,264.933 242.5,262.5 Z"/></g>
<g><path style="opacity:0.004" fill="#151515" d="M 290.5,263.5 C 289.581,266.089 287.914,268.089 285.5,269.5C 286.419,266.911 288.086,264.911 290.5,263.5 Z"/></g>
<g><path style="opacity:0.004" fill="#151515" d="M 275.5,279.5 C 274.581,282.089 272.914,284.089 270.5,285.5C 271.419,282.911 273.086,280.911 275.5,279.5 Z"/></g>
<g><path style="opacity:0.004" fill="#1b1b1b" d="M 260.5,295.5 C 259.5,298.5 257.5,300.5 254.5,301.5C 256.167,299.167 258.167,297.167 260.5,295.5 Z"/></g>
<g><path style="opacity:0.051" fill="#2a2a2a" d="M 405.5,332.5 C 405.573,334.027 404.906,335.027 403.5,335.5C 403.427,333.973 404.094,332.973 405.5,332.5 Z"/></g>
<g><path style="opacity:0.18" fill="#6d6d6d" d="M 400.5,340.5 C 400.715,342.179 400.048,343.179 398.5,343.5C 398.932,342.29 399.599,341.29 400.5,340.5 Z"/></g>
<g><path style="opacity:0.004" fill="#0c0c0c" d="M 439.5,342.5 C 439.167,343.5 438.5,344.167 437.5,344.5C 437.5,343.167 438.167,342.5 439.5,342.5 Z"/></g>
<g><path style="opacity:0.173" fill="#6e6e6e" d="M 398.5,343.5 C 398.715,345.179 398.048,346.179 396.5,346.5C 396.932,345.29 397.599,344.29 398.5,343.5 Z"/></g>
<g><path style="opacity:0.039" fill="#212121" d="M 388.5,357.5 C 388.573,359.027 387.906,360.027 386.5,360.5C 386.427,358.973 387.094,357.973 388.5,357.5 Z"/></g>
<g><path style="opacity:0.035" fill="#212121" d="M 383.5,363.5 C 383.573,365.027 382.906,366.027 381.5,366.5C 381.427,364.973 382.094,363.973 383.5,363.5 Z"/></g>
<g><path style="opacity:0.004" fill="#232323" d="M 426.5,363.5 C 426.5,364.833 425.833,365.5 424.5,365.5C 424.833,364.5 425.5,363.833 426.5,363.5 Z"/></g>
<g><path style="opacity:0.004" fill="#1f1f1f" d="M 424.5,366.5 C 424.573,368.027 423.906,369.027 422.5,369.5C 422.427,367.973 423.094,366.973 424.5,366.5 Z"/></g>
<g><path style="opacity:0.004" fill="#1d1d1d" d="M 415.5,378.5 C 415.573,380.027 414.906,381.027 413.5,381.5C 413.427,379.973 414.094,378.973 415.5,378.5 Z"/></g>
<g><path style="opacity:0.035" fill="#373737" d="M 363.5,384.5 C 363.027,385.906 362.027,386.573 360.5,386.5C 360.973,385.094 361.973,384.427 363.5,384.5 Z"/></g>
<g><path style="opacity:0.004" fill="#191919" d="M 411.5,383.5 C 411.262,385.404 410.262,386.738 408.5,387.5C 408.738,385.596 409.738,384.262 411.5,383.5 Z"/></g>
<g><path style="opacity:0.043" fill="#3c3c3c" d="M 357.5,389.5 C 357.167,390.5 356.5,391.167 355.5,391.5C 355.5,390.167 356.167,389.5 357.5,389.5 Z"/></g>
<g><path style="opacity:0.016" fill="#303030" d="M 353.5,392.5 C 353.167,393.5 352.5,394.167 351.5,394.5C 351.5,393.167 352.167,392.5 353.5,392.5 Z"/></g>
<g><path style="opacity:0.004" fill="#171717" d="M 404.5,391.5 C 402.57,395.1 399.903,398.1 396.5,400.5C 398.43,396.9 401.097,393.9 404.5,391.5 Z"/></g>
<g><path style="opacity:0.039" fill="#333333" d="M 349.5,395.5 C 349.167,396.5 348.5,397.167 347.5,397.5C 347.5,396.167 348.167,395.5 349.5,395.5 Z"/></g>
<g><path style="opacity:0.031" fill="#353535" d="M 346.5,397.5 C 346.167,398.5 345.5,399.167 344.5,399.5C 344.5,398.167 345.167,397.5 346.5,397.5 Z"/></g>
<g><path style="opacity:0.039" fill="#272727" d="M 340.5,401.5 C 340.027,402.906 339.027,403.573 337.5,403.5C 337.973,402.094 338.973,401.427 340.5,401.5 Z"/></g>
<g><path style="opacity:0.004" fill="#1a1a1a" d="M 395.5,401.5 C 393.761,404.243 391.427,406.243 388.5,407.5C 390.239,404.757 392.573,402.757 395.5,401.5 Z"/></g>
<g><path style="opacity:0.004" fill="#1c1c1c" d="M 384.5,411.5 C 384.027,412.906 383.027,413.573 381.5,413.5C 381.973,412.094 382.973,411.427 384.5,411.5 Z"/></g>
<g><path style="opacity:0.043" fill="#3c3c3c" d="M 321.5,412.5 C 321.027,413.906 320.027,414.573 318.5,414.5C 318.973,413.094 319.973,412.427 321.5,412.5 Z"/></g>
<g><path style="opacity:0.004" fill="#191919" d="M 378.5,416.5 C 378.027,417.906 377.027,418.573 375.5,418.5C 375.973,417.094 376.973,416.427 378.5,416.5 Z"/></g>
<g><path style="opacity:0.004" fill="#272727" d="M 373.5,419.5 C 373.5,420.833 372.833,421.5 371.5,421.5C 371.833,420.5 372.5,419.833 373.5,419.5 Z"/></g>
<g><path style="opacity:0.004" fill="#212121" d="M 369.5,422.5 C 369.5,423.833 368.833,424.5 367.5,424.5C 367.833,423.5 368.5,422.833 369.5,422.5 Z"/></g>
<g><path style="opacity:0.004" fill="#1e1e1e" d="M 347.5,437.5 C 347.158,438.338 346.492,438.672 345.5,438.5C 346.006,436.895 346.673,436.561 347.5,437.5 Z"/></g>
</svg>
