<?xml version="1.0" encoding="UTF-8"?>
<!DOCTYPE svg PUBLIC "-//W3C//DTD SVG 1.1//EN" "http://www.w3.org/Graphics/SVG/1.1/DTD/svg11.dtd">
<svg xmlns="http://www.w3.org/2000/svg" version="1.1" width="512px" height="512px" style="shape-rendering:geometricPrecision; text-rendering:geometricPrecision; image-rendering:optimizeQuality; fill-rule:evenodd; clip-rule:evenodd" xmlns:xlink="http://www.w3.org/1999/xlink">
<g><path style="opacity:1" fill="#a7a7a7" d="M 233.5,-0.5 C 248.167,-0.5 262.833,-0.5 277.5,-0.5C 293.796,2.37861 309.129,8.04527 323.5,16.5C 324.048,18.3936 325.048,20.0603 326.5,21.5C 336.199,28.0207 345.199,35.5207 353.5,44C 354.793,44.49 356.127,44.6567 357.5,44.5C 360.987,48.1422 363.987,52.1422 366.5,56.5C 365.427,57.2506 365.26,58.2506 366,59.5C 368.062,61.9007 369.729,64.5674 371,67.5C 372.011,68.3366 373.178,68.67 374.5,68.5C 382.282,82.1771 387.282,96.8437 389.5,112.5C 389.205,125.216 389.538,137.883 390.5,150.5C 388.953,168.47 383.62,185.137 374.5,200.5C 371.916,201.048 370.916,202.715 371.5,205.5C 368.935,210.729 365.602,215.395 361.5,219.5C 360.094,219.973 359.427,220.973 359.5,222.5C 358.5,222.833 357.833,223.5 357.5,224.5C 356.127,224.343 354.793,224.51 353.5,225C 349.318,229.349 344.985,233.515 340.5,237.5C 339.571,238.689 339.238,240.022 339.5,241.5C 326.373,252.565 311.373,260.231 294.5,264.5C 291.918,264.025 289.918,264.692 288.5,266.5C 288.167,266.5 287.833,266.5 287.5,266.5C 283.988,265.945 280.988,266.612 278.5,268.5C 240.743,274.809 206.41,266.809 175.5,244.5C 174.928,242.745 174.094,241.078 173,239.5C 163.629,231.797 155.296,223.13 148,213.5C 146.89,211.963 145.39,211.297 143.5,211.5C 131.507,195.159 124.173,176.826 121.5,156.5C 121.813,143.754 121.48,131.087 120.5,118.5C 122.969,94.7409 131.302,73.4076 145.5,54.5C 146.906,54.0269 147.573,53.0269 147.5,51.5C 148.167,50.8333 148.833,50.1667 149.5,49.5C 150.906,49.0269 151.573,48.0269 151.5,46.5C 152.5,46.1667 153.167,45.5 153.5,44.5C 157.045,42.7705 159.712,40.1038 161.5,36.5C 163.194,34.1394 165.194,32.1394 167.5,30.5C 169.027,30.573 170.027,29.9063 170.5,28.5C 171.167,27.8333 171.833,27.1667 172.5,26.5C 174.027,26.573 175.027,25.9063 175.5,24.5C 183.718,18.2213 192.718,13.2213 202.5,9.5C 206.639,9.75169 209.972,8.41836 212.5,5.5C 219.378,3.03092 226.378,1.03092 233.5,-0.5 Z"/></g>
<g><path style="opacity:0.89" fill="#737373" d="M 212.5,5.5 C 209.972,8.41836 206.639,9.75169 202.5,9.5C 205.518,7.60006 208.851,6.26672 212.5,5.5 Z"/></g>
<g><path style="opacity:0.031" fill="#1c1c1c" d="M 175.5,24.5 C 175.027,25.9063 174.027,26.573 172.5,26.5C 172.973,25.0937 173.973,24.427 175.5,24.5 Z"/></g>
<g><path style="opacity:0.875" fill="#878787" d="M 323.5,16.5 C 336.313,23.9748 347.647,33.3081 357.5,44.5C 356.127,44.6567 354.793,44.49 353.5,44C 345.199,35.5207 336.199,28.0207 326.5,21.5C 325.048,20.0603 324.048,18.3936 323.5,16.5 Z"/></g>
<g><path style="opacity:0.035" fill="#181818" d="M 170.5,28.5 C 170.027,29.9063 169.027,30.573 167.5,30.5C 167.973,29.0937 168.973,28.427 170.5,28.5 Z"/></g>
<g><path style="opacity:0.247" fill="#515151" d="M 161.5,36.5 C 159.712,40.1038 157.045,42.7705 153.5,44.5C 155.168,42.66 156.668,40.66 158,38.5C 158.816,37.1772 159.983,36.5106 161.5,36.5 Z"/></g>
<g><path style="opacity:0.043" fill="#141414" d="M 151.5,46.5 C 151.573,48.0269 150.906,49.0269 149.5,49.5C 149.427,47.9731 150.094,46.9731 151.5,46.5 Z"/></g>
<g><path style="opacity:0.035" fill="#0f0f0f" d="M 147.5,51.5 C 147.573,53.0269 146.906,54.0269 145.5,54.5C 145.427,52.9731 146.094,51.9731 147.5,51.5 Z"/></g>
<g><path style="opacity:0.743" fill="#868686" d="M 366.5,56.5 C 369.65,60.1189 372.316,64.1189 374.5,68.5C 373.178,68.67 372.011,68.3366 371,67.5C 369.729,64.5674 368.062,61.9007 366,59.5C 365.26,58.2506 365.427,57.2506 366.5,56.5 Z"/></g>
<g><path style="opacity:0.913" fill="#525252" d="M 120.5,118.5 C 121.48,131.087 121.813,143.754 121.5,156.5C 119.983,149.228 119.316,141.728 119.5,134C 119.501,128.656 119.834,123.489 120.5,118.5 Z"/></g>
<g><path style="opacity:0.769" fill="#4f4f4f" d="M 389.5,112.5 C 391.017,119.772 391.684,127.272 391.5,135C 391.499,140.344 391.166,145.511 390.5,150.5C 389.538,137.883 389.205,125.216 389.5,112.5 Z"/></g>
<g><path style="opacity:0.431" fill="#515151" d="M 374.5,200.5 C 373.89,202.434 372.89,204.101 371.5,205.5C 370.916,202.715 371.916,201.048 374.5,200.5 Z"/></g>
<g><path style="opacity:0.849" fill="#878787" d="M 143.5,211.5 C 145.39,211.297 146.89,211.963 148,213.5C 155.296,223.13 163.629,231.797 173,239.5C 174.094,241.078 174.928,242.745 175.5,244.5C 162.791,235.458 152.124,224.458 143.5,211.5 Z"/></g>
<g><path style="opacity:0.004" fill="#131313" d="M 361.5,219.5 C 361.573,221.027 360.906,222.027 359.5,222.5C 359.427,220.973 360.094,219.973 361.5,219.5 Z"/></g>
<g><path style="opacity:0.875" fill="#888888" d="M 357.5,224.5 C 356.5,226.167 355.167,227.5 353.5,228.5C 351.833,229.5 350.5,230.833 349.5,232.5C 347.806,234.861 345.806,236.861 343.5,238.5C 341.973,238.427 340.973,239.094 340.5,240.5C 340.5,241.167 340.167,241.5 339.5,241.5C 339.238,240.022 339.571,238.689 340.5,237.5C 344.985,233.515 349.318,229.349 353.5,225C 354.793,224.51 356.127,224.343 357.5,224.5 Z"/></g>
<g><path style="opacity:0.004" fill="#171717" d="M 353.5,228.5 C 353.167,230.833 351.833,232.167 349.5,232.5C 350.5,230.833 351.833,229.5 353.5,228.5 Z"/></g>
<g><path style="opacity:0.004" fill="#121212" d="M 343.5,238.5 C 343.027,239.906 342.027,240.573 340.5,240.5C 340.973,239.094 341.973,238.427 343.5,238.5 Z"/></g>
<g><path style="opacity:0.059" fill="#5c5c5c" d="M 294.5,264.5 C 292.786,265.738 290.786,266.405 288.5,266.5C 289.918,264.692 291.918,264.025 294.5,264.5 Z"/></g>
<g><path style="opacity:0.712" fill="#545454" d="M 287.5,266.5 C 284.781,267.913 281.781,268.58 278.5,268.5C 280.988,266.612 283.988,265.945 287.5,266.5 Z"/></g>
<g><path style="opacity:0.936" fill="#5a5a5a" d="M 207.5,299.5 C 239.5,298.167 271.5,298.167 303.5,299.5C 271.627,300.822 239.627,300.822 207.5,299.5 Z"/></g>
<g><path style="opacity:1" fill="#a8a8a8" d="M 207.5,299.5 C 239.627,300.822 271.627,300.822 303.5,299.5C 337.775,302.149 368.775,313.482 396.5,333.5C 396.703,335.044 397.37,336.378 398.5,337.5C 403.118,340.586 407.284,344.252 411,348.5C 415.48,351.951 419.98,356.118 424.5,361C 425.793,361.49 427.127,361.657 428.5,361.5C 430.063,362.945 431.396,364.611 432.5,366.5C 431.443,369.372 432.61,371.372 436,372.5C 439.045,377.69 442.378,382.69 446,387.5C 447.33,388.582 448.83,389.249 450.5,389.5C 451.529,391.517 452.529,393.517 453.5,395.5C 453.203,399.512 454.87,402.179 458.5,403.5C 460.438,407.043 462.105,410.71 463.5,414.5C 463.24,419.254 464.906,422.92 468.5,425.5C 479.046,451.078 482.713,477.411 479.5,504.5C 478.094,504.973 477.427,505.973 477.5,507.5C 477.5,508.167 477.167,508.5 476.5,508.5C 474.973,508.427 473.973,509.094 473.5,510.5C 472.833,510.5 472.5,510.833 472.5,511.5C 327.833,511.5 183.167,511.5 38.5,511.5C 34.8112,508.971 31.9779,505.638 30,501.5C 28.272,457.54 40.1053,417.873 65.5,382.5C 66.5,382.167 67.1667,381.5 67.5,380.5C 68.0568,377.95 69.3901,375.95 71.5,374.5C 72.9063,374.027 73.573,373.027 73.5,371.5C 74.1667,371.5 74.5,371.167 74.5,370.5C 76.0269,370.573 77.0269,369.906 77.5,368.5C 83.7141,363.959 89.3807,358.626 94.5,352.5C 98.8727,348.989 103.206,345.489 107.5,342C 109.482,340.195 110.816,338.028 111.5,335.5C 111.833,335.5 112.167,335.5 112.5,335.5C 116.033,336.345 118.033,334.678 118.5,330.5C 119.167,330.167 119.833,329.833 120.5,329.5C 122.027,329.573 123.027,328.906 123.5,327.5C 125.67,325.914 128.004,324.58 130.5,323.5C 132.027,323.573 133.027,322.906 133.5,321.5C 137.043,319.562 140.71,317.895 144.5,316.5C 149.254,316.76 152.92,315.094 155.5,311.5C 156.391,310.89 157.391,310.557 158.5,310.5C 160.746,311.214 163.079,311.048 165.5,310C 166.252,309.329 166.586,308.496 166.5,307.5C 166.833,307.5 167.167,307.5 167.5,307.5C 170.082,307.975 172.082,307.308 173.5,305.5C 184.538,301.993 195.871,299.993 207.5,299.5 Z"/></g>
<g><path style="opacity:0.533" fill="#4f4f4f" d="M 173.5,305.5 C 172.082,307.308 170.082,307.975 167.5,307.5C 169.214,306.262 171.214,305.595 173.5,305.5 Z"/></g>
<g><path style="opacity:0.902" fill="#777777" d="M 166.5,307.5 C 166.586,308.496 166.252,309.329 165.5,310C 163.079,311.048 160.746,311.214 158.5,310.5C 160.936,309.129 163.603,308.129 166.5,307.5 Z"/></g>
<g><path style="opacity:0.631" fill="#656565" d="M 155.5,311.5 C 152.92,315.094 149.254,316.76 144.5,316.5C 147.836,314.269 151.503,312.603 155.5,311.5 Z"/></g>
<g><path style="opacity:0.039" fill="#191919" d="M 133.5,321.5 C 133.027,322.906 132.027,323.573 130.5,323.5C 130.973,322.094 131.973,321.427 133.5,321.5 Z"/></g>
<g><path style="opacity:0.039" fill="#191919" d="M 123.5,327.5 C 123.027,328.906 122.027,329.573 120.5,329.5C 120.973,328.094 121.973,327.427 123.5,327.5 Z"/></g>
<g><path style="opacity:0.812" fill="#747474" d="M 118.5,330.5 C 118.033,334.678 116.033,336.345 112.5,335.5C 113.845,333.164 115.845,331.497 118.5,330.5 Z"/></g>
<g><path style="opacity:0.027" fill="#1d1d1d" d="M 106.5,339.5 C 106.027,340.906 105.027,341.573 103.5,341.5C 103.973,340.094 104.973,339.427 106.5,339.5 Z"/></g>
<g><path style="opacity:0.035" fill="#181818" d="M 100.5,344.5 C 100.027,345.906 99.0269,346.573 97.5,346.5C 97.9731,345.094 98.9731,344.427 100.5,344.5 Z"/></g>
<g><path style="opacity:0.839" fill="#878787" d="M 396.5,333.5 C 408.08,341.744 418.747,351.078 428.5,361.5C 427.127,361.657 425.793,361.49 424.5,361C 419.98,356.118 415.48,351.951 411,348.5C 407.284,344.252 403.118,340.586 398.5,337.5C 397.37,336.378 396.703,335.044 396.5,333.5 Z"/></g>
<g><path style="opacity:0.873" fill="#8e8e8e" d="M 111.5,335.5 C 110.816,338.028 109.482,340.195 107.5,342C 103.206,345.489 98.8727,348.989 94.5,352.5C 89.3807,358.626 83.7141,363.959 77.5,368.5C 78.1098,367.609 78.4431,366.609 78.5,365.5C 84.5,358.833 90.8333,352.5 97.5,346.5C 99.0269,346.573 100.027,345.906 100.5,344.5C 101.306,343.272 102.306,342.272 103.5,341.5C 105.027,341.573 106.027,340.906 106.5,339.5C 107.853,337.817 109.52,336.484 111.5,335.5 Z"/></g>
<g><path style="opacity:0.752" fill="#838383" d="M 432.5,366.5 C 439.233,373.569 445.233,381.236 450.5,389.5C 448.83,389.249 447.33,388.582 446,387.5C 442.378,382.69 439.045,377.69 436,372.5C 432.61,371.372 431.443,369.372 432.5,366.5 Z"/></g>
<g><path style="opacity:0.161" fill="#494949" d="M 78.5,365.5 C 78.4431,366.609 78.1098,367.609 77.5,368.5C 77.0269,369.906 76.0269,370.573 74.5,370.5C 75.604,368.611 76.9373,366.945 78.5,365.5 Z"/></g>
<g><path style="opacity:0.039" fill="#191919" d="M 73.5,371.5 C 73.573,373.027 72.9063,374.027 71.5,374.5C 71.427,372.973 72.0937,371.973 73.5,371.5 Z"/></g>
<g><path style="opacity:0.012" fill="#060606" d="M 67.5,380.5 C 67.1667,381.5 66.5,382.167 65.5,382.5C 65.5,381.167 66.1667,380.5 67.5,380.5 Z"/></g>
<g><path style="opacity:0.905" fill="#6f6f6f" d="M 453.5,395.5 C 455.653,397.794 457.32,400.46 458.5,403.5C 454.87,402.179 453.203,399.512 453.5,395.5 Z"/></g>
<g><path style="opacity:0.947" fill="#6b6b6b" d="M 463.5,414.5 C 465.731,417.836 467.397,421.503 468.5,425.5C 464.906,422.92 463.24,419.254 463.5,414.5 Z"/></g>
<g><path style="opacity:0.008" fill="#070707" d="M 479.5,504.5 C 479.573,506.027 478.906,507.027 477.5,507.5C 477.427,505.973 478.094,504.973 479.5,504.5 Z"/></g>
<g><path style="opacity:0.004" fill="#161616" d="M 476.5,508.5 C 476.027,509.906 475.027,510.573 473.5,510.5C 473.973,509.094 474.973,508.427 476.5,508.5 Z"/></g>
</svg>
