<?xml version="1.0" standalone="no"?>
<!DOCTYPE svg PUBLIC "-//W3C//DTD SVG 20010904//EN"
 "http://www.w3.org/TR/2001/REC-SVG-20010904/DTD/svg10.dtd">
<svg version="1.0" xmlns="http://www.w3.org/2000/svg"
 width="512.000000pt" height="512.000000pt" viewBox="0 0 512.000000 512.000000"
 preserveAspectRatio="xMidYMid meet">

<g transform="translate(0.000000,512.000000) scale(0.100000,-0.100000)"
fill="#000000" stroke="none">
<path d="M2420 4674 c-103 -22 -240 -95 -322 -172 -38 -36 -82 -84 -98 -107
-36 -53 -1674 -2891 -1716 -2975 -52 -101 -69 -178 -68 -305 1 -90 6 -125 27
-190 37 -113 90 -198 177 -285 86 -86 171 -139 285 -178 l80 -27 1772 -3
c1988 -3 1847 -8 2009 72 338 168 488 574 330 901 -56 117 -1702 2963 -1748
3023 -158 205 -454 305 -728 246z m292 -436 c26 -11 65 -39 85 -62 22 -23 412
-689 883 -1506 l845 -1465 0 -80 c0 -69 -4 -86 -27 -125 -35 -60 -72 -94 -133
-122 l-50 -23 -1730 0 -1730 0 -57 28 c-31 15 -69 42 -83 59 -65 77 -89 177
-63 254 17 48 1667 2912 1707 2964 80 101 226 133 353 78z"/>
<path d="M2460 3388 c-25 -14 -58 -44 -75 -67 l-30 -43 -3 -539 c-2 -516 -2
-540 17 -576 83 -163 299 -163 382 0 19 36 19 60 17 575 l-3 539 -27 39 c-44
62 -90 88 -167 92 -55 3 -74 -1 -111 -20z"/>
<path d="M2513 1891 c-51 -13 -96 -44 -128 -90 -30 -42 -30 -43 -33 -201 -3
-142 -1 -162 16 -197 72 -140 248 -165 349 -50 47 54 55 93 51 259 -3 145 -3
147 -33 190 -50 70 -144 108 -222 89z"/>
</g>
</svg>
