<?xml version="1.0" encoding="UTF-8"?>
<!DOCTYPE svg PUBLIC "-//W3C//DTD SVG 1.1//EN" "http://www.w3.org/Graphics/SVG/1.1/DTD/svg11.dtd">
<svg xmlns="http://www.w3.org/2000/svg" version="1.1" width="512px" height="512px" style="shape-rendering:geometricPrecision; text-rendering:geometricPrecision; image-rendering:optimizeQuality; fill-rule:evenodd; clip-rule:evenodd" xmlns:xlink="http://www.w3.org/1999/xlink">
<g><path style="opacity:0.997" fill="#4695fa" d="M 97.5,-0.5 C 202.833,-0.5 308.167,-0.5 413.5,-0.5C 427.985,4.64887 438.318,14.3155 444.5,28.5C 444.674,31.8738 445.174,35.2072 446,38.5C 446.5,187.5 446.667,336.5 446.5,485.5C 445.365,491.109 442.699,495.776 438.5,499.5C 436.833,500.5 435.5,501.833 434.5,503.5C 433.284,505.451 431.618,506.951 429.5,508C 426.626,508.942 423.96,510.109 421.5,511.5C 413.5,511.5 405.5,511.5 397.5,511.5C 392.227,508.858 387.227,505.691 382.5,502C 344.5,464 306.5,426 268.5,388C 258.682,382.85 249.348,383.517 240.5,390C 201.472,429.361 162.139,468.361 122.5,507C 118.958,508.275 115.625,509.775 112.5,511.5C 104.833,511.5 97.1667,511.5 89.5,511.5C 78.2603,507.261 70.2603,499.595 65.5,488.5C 64.8409,338.445 64.1742,188.445 63.5,38.5C 64.3463,29.9309 67.6796,22.5975 73.5,16.5C 75.2624,15.7377 76.2624,14.4044 76.5,12.5C 78.7488,11.9202 80.4154,10.5869 81.5,8.5C 86.5415,4.97929 91.8749,1.97929 97.5,-0.5 Z M 214.5,370.5 C 177.917,405.582 141.75,441.248 106,477.5C 105.536,478.094 105.369,478.761 105.5,479.5C 101.66,481.103 98.3264,480.437 95.5,477.5C 95.5,332.5 95.5,187.5 95.5,42.5C 97.3465,35.9026 101.68,32.0693 108.5,31C 206.5,30.3333 304.5,30.3333 402.5,31C 407.412,31.9228 411.245,34.4228 414,38.5C 415.162,111.944 415.662,185.444 415.5,259C 415.664,332.248 415.164,405.414 414,478.5C 411.336,480.955 408.502,481.122 405.5,479C 367.5,441 329.5,403 291.5,365C 270.103,348.69 247.77,347.357 224.5,361C 220.639,363.696 217.306,366.863 214.5,370.5 Z"/></g>
<g><path style="opacity:0.024" fill="#202035" d="M 81.5,8.5 C 80.4154,10.5869 78.7488,11.9202 76.5,12.5C 77.5846,10.4131 79.2512,9.07978 81.5,8.5 Z"/></g>
<g><path style="opacity:0.043" fill="#171526" d="M 76.5,12.5 C 76.2624,14.4044 75.2624,15.7377 73.5,16.5C 73.7376,14.5956 74.7376,13.2623 76.5,12.5 Z"/></g>
<g><path style="opacity:0.723" fill="#3968aa" d="M 63.5,38.5 C 64.1742,188.445 64.8409,338.445 65.5,488.5C 64.2237,486.438 63.3903,484.104 63,481.5C 62.1672,333.666 62.3339,185.999 63.5,38.5 Z"/></g>
<g><path style="opacity:0.72" fill="#3969a9" d="M 444.5,28.5 C 446.335,31.842 447.502,35.5086 448,39.5C 448.667,186.833 448.667,334.167 448,481.5C 447.79,483.058 447.29,484.391 446.5,485.5C 446.667,336.5 446.5,187.5 446,38.5C 445.174,35.2072 444.674,31.8738 444.5,28.5 Z"/></g>
<g><path style="opacity:0.275" fill="#37679e" d="M 95.5,42.5 C 95.5,187.5 95.5,332.5 95.5,477.5C 94.1667,405.336 93.5,332.836 93.5,260C 93.5,187.164 94.1667,114.664 95.5,42.5 Z"/></g>
<g><path style="opacity:0.024" fill="#211f35" d="M 214.5,370.5 C 178.5,407.167 142.167,443.5 105.5,479.5C 105.369,478.761 105.536,478.094 106,477.5C 141.75,441.248 177.917,405.582 214.5,370.5 Z"/></g>
<g><path style="opacity:0.004" fill="#161420" d="M 438.5,499.5 C 438.167,501.833 436.833,503.167 434.5,503.5C 435.5,501.833 436.833,500.5 438.5,499.5 Z"/></g>
</svg>
