<?xml version="1.0" encoding="UTF-8"?>
<!DOCTYPE svg PUBLIC "-//W3C//DTD SVG 1.1//EN" "http://www.w3.org/Graphics/SVG/1.1/DTD/svg11.dtd">
<svg xmlns="http://www.w3.org/2000/svg" version="1.1" width="512px" height="512px" style="shape-rendering:geometricPrecision; text-rendering:geometricPrecision; image-rendering:optimizeQuality; fill-rule:evenodd; clip-rule:evenodd" xmlns:xlink="http://www.w3.org/1999/xlink">
<g><path style="opacity:0.998" fill="#fdfdfd" d="M 95.5,-0.5 C 202.833,-0.5 310.167,-0.5 417.5,-0.5C 436.746,6.9208 447.579,20.9208 450,41.5C 450.667,189.167 450.667,336.833 450,484.5C 450.115,491.749 447.948,498.082 443.5,503.5C 441.5,504.833 439.833,506.5 438.5,508.5C 437.167,509.5 435.833,510.5 434.5,511.5C 428.5,511.5 422.5,511.5 416.5,511.5C 409.813,507.669 403.479,503.169 397.5,498C 355.5,462 313.5,426 271.5,390C 261,383.944 250.666,384.11 240.5,390.5C 239.167,391.167 238.167,392.167 237.5,393.5C 236.694,394.728 235.694,395.728 234.5,396.5C 232.973,396.427 231.973,397.094 231.5,398.5C 230.167,399.833 228.833,401.167 227.5,402.5C 225.973,402.427 224.973,403.094 224.5,404.5C 223.694,405.728 222.694,406.728 221.5,407.5C 219.596,407.738 218.262,408.738 217.5,410.5C 216.694,411.728 215.694,412.728 214.5,413.5C 212.973,413.427 211.973,414.094 211.5,415.5C 210.564,416.974 209.23,417.974 207.5,418.5C 206.167,419.167 205.167,420.167 204.5,421.5C 203.694,422.728 202.694,423.728 201.5,424.5C 199.596,424.738 198.262,425.738 197.5,427.5C 196.694,428.728 195.694,429.728 194.5,430.5C 192.973,430.427 191.973,431.094 191.5,432.5C 190.564,433.974 189.23,434.974 187.5,435.5C 186.167,436.167 185.167,437.167 184.5,438.5C 183.694,439.728 182.694,440.728 181.5,441.5C 179.973,441.427 178.973,442.094 178.5,443.5C 177.564,444.974 176.23,445.974 174.5,446.5C 173.167,447.167 172.167,448.167 171.5,449.5C 170.694,450.728 169.694,451.728 168.5,452.5C 166.596,452.738 165.262,453.738 164.5,455.5C 163.694,456.728 162.694,457.728 161.5,458.5C 159.973,458.427 158.973,459.094 158.5,460.5C 157.564,461.974 156.23,462.974 154.5,463.5C 153.167,464.167 152.167,465.167 151.5,466.5C 150.694,467.728 149.694,468.728 148.5,469.5C 146.596,469.738 145.262,470.738 144.5,472.5C 143.694,473.728 142.694,474.728 141.5,475.5C 139.973,475.427 138.973,476.094 138.5,477.5C 137.564,478.974 136.23,479.974 134.5,480.5C 133.167,481.167 132.167,482.167 131.5,483.5C 130.694,484.728 129.694,485.728 128.5,486.5C 126.973,486.427 125.973,487.094 125.5,488.5C 124.564,489.974 123.23,490.974 121.5,491.5C 120.167,492.167 119.167,493.167 118.5,494.5C 117.694,495.728 116.694,496.728 115.5,497.5C 113.596,497.738 112.262,498.738 111.5,500.5C 107.176,505.66 101.842,509.327 95.5,511.5C 89.5,511.5 83.5,511.5 77.5,511.5C 67.3218,505.463 61.8218,496.463 61,484.5C 60.3333,336.833 60.3333,189.167 61,41.5C 63.7766,20.2544 75.2766,6.25442 95.5,-0.5 Z"/></g>
<g><path style="opacity:0.004" fill="#1e1e1e" d="M 240.5,390.5 C 240.5,392.5 239.5,393.5 237.5,393.5C 238.167,392.167 239.167,391.167 240.5,390.5 Z"/></g>
<g><path style="opacity:0.004" fill="#1f1f1f" d="M 234.5,396.5 C 234.027,397.906 233.027,398.573 231.5,398.5C 231.973,397.094 232.973,396.427 234.5,396.5 Z"/></g>
<g><path style="opacity:0.004" fill="#202020" d="M 227.5,402.5 C 227.027,403.906 226.027,404.573 224.5,404.5C 224.973,403.094 225.973,402.427 227.5,402.5 Z"/></g>
<g><path style="opacity:0.004" fill="#1c1c1c" d="M 221.5,407.5 C 220.738,409.262 219.404,410.262 217.5,410.5C 218.262,408.738 219.596,407.738 221.5,407.5 Z"/></g>
<g><path style="opacity:0.004" fill="#202020" d="M 214.5,413.5 C 214.027,414.906 213.027,415.573 211.5,415.5C 211.973,414.094 212.973,413.427 214.5,413.5 Z"/></g>
<g><path style="opacity:0.004" fill="#1c1c1c" d="M 207.5,418.5 C 207.5,420.5 206.5,421.5 204.5,421.5C 205.167,420.167 206.167,419.167 207.5,418.5 Z"/></g>
<g><path style="opacity:0.004" fill="#1b1b1b" d="M 201.5,424.5 C 200.738,426.262 199.404,427.262 197.5,427.5C 198.262,425.738 199.596,424.738 201.5,424.5 Z"/></g>
<g><path style="opacity:0.004" fill="#202020" d="M 194.5,430.5 C 194.027,431.906 193.027,432.573 191.5,432.5C 191.973,431.094 192.973,430.427 194.5,430.5 Z"/></g>
<g><path style="opacity:0.004" fill="#1e1e1e" d="M 187.5,435.5 C 187.5,437.5 186.5,438.5 184.5,438.5C 185.167,437.167 186.167,436.167 187.5,435.5 Z"/></g>
<g><path style="opacity:0.004" fill="#1f1f1f" d="M 181.5,441.5 C 181.027,442.906 180.027,443.573 178.5,443.5C 178.973,442.094 179.973,441.427 181.5,441.5 Z"/></g>
<g><path style="opacity:0.004" fill="#232323" d="M 174.5,446.5 C 174.5,448.5 173.5,449.5 171.5,449.5C 172.167,448.167 173.167,447.167 174.5,446.5 Z"/></g>
<g><path style="opacity:0.004" fill="#1c1c1c" d="M 168.5,452.5 C 167.738,454.262 166.404,455.262 164.5,455.5C 165.262,453.738 166.596,452.738 168.5,452.5 Z"/></g>
<g><path style="opacity:0.004" fill="#202020" d="M 161.5,458.5 C 161.027,459.906 160.027,460.573 158.5,460.5C 158.973,459.094 159.973,458.427 161.5,458.5 Z"/></g>
<g><path style="opacity:0.004" fill="#1c1c1c" d="M 154.5,463.5 C 154.5,465.5 153.5,466.5 151.5,466.5C 152.167,465.167 153.167,464.167 154.5,463.5 Z"/></g>
<g><path style="opacity:0.004" fill="#1b1b1b" d="M 148.5,469.5 C 147.738,471.262 146.404,472.262 144.5,472.5C 145.262,470.738 146.596,469.738 148.5,469.5 Z"/></g>
<g><path style="opacity:0.004" fill="#202020" d="M 141.5,475.5 C 141.027,476.906 140.027,477.573 138.5,477.5C 138.973,476.094 139.973,475.427 141.5,475.5 Z"/></g>
<g><path style="opacity:0.004" fill="#1e1e1e" d="M 134.5,480.5 C 134.5,482.5 133.5,483.5 131.5,483.5C 132.167,482.167 133.167,481.167 134.5,480.5 Z"/></g>
<g><path style="opacity:0.004" fill="#1f1f1f" d="M 128.5,486.5 C 128.027,487.906 127.027,488.573 125.5,488.5C 125.973,487.094 126.973,486.427 128.5,486.5 Z"/></g>
<g><path style="opacity:0.004" fill="#1c1c1c" d="M 121.5,491.5 C 121.5,493.5 120.5,494.5 118.5,494.5C 119.167,493.167 120.167,492.167 121.5,491.5 Z"/></g>
<g><path style="opacity:0.004" fill="#1c1c1c" d="M 115.5,497.5 C 114.738,499.262 113.404,500.262 111.5,500.5C 112.262,498.738 113.596,497.738 115.5,497.5 Z"/></g>
<g><path style="opacity:0.004" fill="#191919" d="M 443.5,503.5 C 442.833,506.167 441.167,507.833 438.5,508.5C 439.833,506.5 441.5,504.833 443.5,503.5 Z"/></g>
</svg>
