<?xml version="1.0" encoding="UTF-8"?>
<!DOCTYPE svg PUBLIC "-//W3C//DTD SVG 1.1//EN" "http://www.w3.org/Graphics/SVG/1.1/DTD/svg11.dtd">
<svg xmlns="http://www.w3.org/2000/svg" version="1.1" width="512px" height="512px" style="shape-rendering:geometricPrecision; text-rendering:geometricPrecision; image-rendering:optimizeQuality; fill-rule:evenodd; clip-rule:evenodd" xmlns:xlink="http://www.w3.org/1999/xlink">
<g><path style="opacity:0.985" fill="#fafafa" d="M 178.5,-0.5 C 196.5,-0.5 214.5,-0.5 232.5,-0.5C 295.07,9.92089 344.236,41.2542 380,93.5C 415.917,152.761 422.251,215.095 399,280.5C 392.677,295.825 384.843,310.158 375.5,323.5C 374.5,323.833 373.833,324.5 373.5,325.5C 372.816,328.028 371.482,330.195 369.5,332C 415.667,378.167 461.833,424.333 508,470.5C 508.941,472.727 510.108,474.727 511.5,476.5C 511.5,482.833 511.5,489.167 511.5,495.5C 510.833,496.5 510.167,497.5 509.5,498.5C 508.094,498.973 507.427,499.973 507.5,501.5C 507.5,502.167 507.167,502.5 506.5,502.5C 504.833,503.5 503.5,504.833 502.5,506.5C 500.343,508.412 498.009,510.079 495.5,511.5C 489.167,511.5 482.833,511.5 476.5,511.5C 474.727,510.108 472.727,508.941 470.5,508C 424.333,461.833 378.167,415.667 332,369.5C 330.195,371.482 328.028,372.816 325.5,373.5C 324.5,373.833 323.833,374.5 323.5,375.5C 321.381,377.4 319.047,379.066 316.5,380.5C 315.673,379.561 315.006,379.895 314.5,381.5C 261.521,413.329 205.188,420.829 145.5,404C 63.4868,375.097 14.8202,317.93 -0.5,232.5C -0.5,214.167 -0.5,195.833 -0.5,177.5C 4.05094,149.516 13.3843,123.183 27.5,98.5C 28.8333,98.5 29.5,97.8333 29.5,96.5C 30.1103,94.5659 31.1103,92.8993 32.5,91.5C 34.0481,91.1788 34.7148,90.1788 34.5,88.5C 36.0481,88.1788 36.7148,87.1788 36.5,85.5C 37.593,83.6508 38.9263,81.9842 40.5,80.5C 41.9063,80.0269 42.573,79.0269 42.5,77.5C 43.1667,76.8333 43.8333,76.1667 44.5,75.5C 45.9063,75.0269 46.573,74.0269 46.5,72.5C 47.8333,71.1667 49.1667,69.8333 50.5,68.5C 52.5869,67.4154 53.9202,65.7488 54.5,63.5C 58.1667,60.5 61.5,57.1667 64.5,53.5C 66.7488,52.9202 68.4154,51.5869 69.5,49.5C 70.3065,48.2719 71.3065,47.2719 72.5,46.5C 74.0269,46.573 75.0269,45.9063 75.5,44.5C 76.2905,43.5987 77.2905,42.9321 78.5,42.5C 79.5,42.1667 80.1667,41.5 80.5,40.5C 80.8417,39.6618 81.5084,39.3284 82.5,39.5C 83.5,39.1667 84.1667,38.5 84.5,37.5C 88.6218,34.266 92.9551,31.266 97.5,28.5C 98.3274,29.4387 98.9941,29.1054 99.5,27.5C 100.167,27.1667 100.833,26.8333 101.5,26.5C 103.027,26.573 104.027,25.9063 104.5,24.5C 127.738,11.7543 152.405,3.42093 178.5,-0.5 Z M 337.5,284.5 C 336.094,284.973 335.427,285.973 335.5,287.5C 334.833,288.5 334.167,289.5 333.5,290.5C 332.5,290.833 331.833,291.5 331.5,292.5C 331.5,293.167 331.5,293.833 331.5,294.5C 330.167,294.5 329.5,295.167 329.5,296.5C 329.5,297.167 329.167,297.5 328.5,297.5C 327.094,297.973 326.427,298.973 326.5,300.5C 325.833,301.167 325.167,301.833 324.5,302.5C 322.738,303.262 321.738,304.596 321.5,306.5C 319.833,308.833 317.833,310.833 315.5,312.5C 314.167,313.167 313.167,314.167 312.5,315.5C 310.833,317.833 308.833,319.833 306.5,321.5C 304.596,321.738 303.262,322.738 302.5,324.5C 301.833,325.167 301.167,325.833 300.5,326.5C 299.167,326.5 298.5,327.167 298.5,328.5C 297.508,328.328 296.842,328.662 296.5,329.5C 295.167,329.5 294.5,330.167 294.5,331.5C 294.167,331.5 293.833,331.5 293.5,331.5C 292.167,331.5 291.5,332.167 291.5,333.5C 287.429,334.747 283.762,336.747 280.5,339.5C 279.508,339.328 278.842,339.662 278.5,340.5C 238.224,360.891 196.557,364.057 153.5,350C 89.2867,323.625 55.2867,275.625 51.5,206C 52.2246,174.669 60.8913,145.836 77.5,119.5C 78.8333,119.5 79.5,118.833 79.5,117.5C 79.5,117.167 79.5,116.833 79.5,116.5C 80.8333,116.5 81.5,115.833 81.5,114.5C 83.7368,112.353 85.7368,110.02 87.5,107.5C 88.9063,107.027 89.573,106.027 89.5,104.5C 94.1667,99.1667 99.1667,94.1667 104.5,89.5C 106.027,89.573 107.027,88.9063 107.5,87.5C 108.167,86.8333 108.833,86.1667 109.5,85.5C 110.833,85.5 111.5,84.8333 111.5,83.5C 160.042,49.433 212.042,43.2663 267.5,65C 317.229,88.4128 347.062,127.246 357,181.5C 362.337,218.158 355.837,252.491 337.5,284.5 Z"/></g>
<g><path style="opacity:0.031" fill="#2c2c2c" d="M 104.5,24.5 C 104.027,25.9063 103.027,26.573 101.5,26.5C 101.973,25.0937 102.973,24.427 104.5,24.5 Z"/></g>
<g><path style="opacity:0.039" fill="#2f2f2f" d="M 99.5,27.5 C 98.9941,29.1054 98.3274,29.4387 97.5,28.5C 97.8417,27.6618 98.5084,27.3284 99.5,27.5 Z"/></g>
<g><path style="opacity:0.016" fill="#303030" d="M 84.5,37.5 C 84.1667,38.5 83.5,39.1667 82.5,39.5C 82.5,38.1667 83.1667,37.5 84.5,37.5 Z"/></g>
<g><path style="opacity:0.02" fill="#292929" d="M 80.5,40.5 C 80.1667,41.5 79.5,42.1667 78.5,42.5C 78.5,41.1667 79.1667,40.5 80.5,40.5 Z"/></g>
<g><path style="opacity:0.027" fill="#2f2f2f" d="M 75.5,44.5 C 75.0269,45.9063 74.0269,46.573 72.5,46.5C 72.9731,45.0937 73.9731,44.427 75.5,44.5 Z"/></g>
<g><path style="opacity:0.035" fill="#313131" d="M 69.5,49.5 C 68.4154,51.5869 66.7488,52.9202 64.5,53.5C 65.5846,51.4131 67.2512,50.0798 69.5,49.5 Z"/></g>
<g><path style="opacity:0.035" fill="#2c2c2c" d="M 54.5,63.5 C 53.9202,65.7488 52.5869,67.4154 50.5,68.5C 51.0798,66.2512 52.4131,64.5846 54.5,63.5 Z"/></g>
<g><path style="opacity:0.031" fill="#1f1f1f" d="M 46.5,72.5 C 46.573,74.0269 45.9063,75.0269 44.5,75.5C 44.427,73.9731 45.0937,72.9731 46.5,72.5 Z"/></g>
<g><path style="opacity:0.035" fill="#252525" d="M 42.5,77.5 C 42.573,79.0269 41.9063,80.0269 40.5,80.5C 40.427,78.9731 41.0937,77.9731 42.5,77.5 Z"/></g>
<g><path style="opacity:0.004" fill="#222222" d="M 111.5,83.5 C 111.5,84.8333 110.833,85.5 109.5,85.5C 109.833,84.5 110.5,83.8333 111.5,83.5 Z"/></g>
<g><path style="opacity:0.216" fill="#6d6d6d" d="M 36.5,85.5 C 36.7148,87.1788 36.0481,88.1788 34.5,88.5C 34.9321,87.2905 35.5987,86.2905 36.5,85.5 Z"/></g>
<g><path style="opacity:0.004" fill="#1e1e1e" d="M 107.5,87.5 C 107.027,88.9063 106.027,89.573 104.5,89.5C 104.973,88.0937 105.973,87.427 107.5,87.5 Z"/></g>
<g><path style="opacity:0.204" fill="#6b6b6b" d="M 34.5,88.5 C 34.7148,90.1788 34.0481,91.1788 32.5,91.5C 32.9321,90.2905 33.5987,89.2905 34.5,88.5 Z"/></g>
<g><path style="opacity:0.043" fill="#1a1a1a" d="M 29.5,96.5 C 29.5,97.8333 28.8333,98.5 27.5,98.5C 27.8333,97.5 28.5,96.8333 29.5,96.5 Z"/></g>
<g><path style="opacity:0.004" fill="#1e1e1e" d="M 89.5,104.5 C 89.573,106.027 88.9063,107.027 87.5,107.5C 87.427,105.973 88.0937,104.973 89.5,104.5 Z"/></g>
<g><path style="opacity:0.004" fill="#252525" d="M 81.5,114.5 C 81.5,115.833 80.8333,116.5 79.5,116.5C 79.8333,115.5 80.5,114.833 81.5,114.5 Z"/></g>
<g><path style="opacity:0.004" fill="#1e1e1e" d="M 79.5,117.5 C 79.5,118.833 78.8333,119.5 77.5,119.5C 77.8333,118.5 78.5,117.833 79.5,117.5 Z"/></g>
<g><path style="opacity:0.051" fill="#1e1e1e" d="M 337.5,284.5 C 337.573,286.027 336.906,287.027 335.5,287.5C 335.427,285.973 336.094,284.973 337.5,284.5 Z"/></g>
<g><path style="opacity:0.035" fill="#111111" d="M 333.5,290.5 C 333.5,291.833 332.833,292.5 331.5,292.5C 331.833,291.5 332.5,290.833 333.5,290.5 Z"/></g>
<g><path style="opacity:0.047" fill="#262626" d="M 331.5,294.5 C 331.167,295.5 330.5,296.167 329.5,296.5C 329.5,295.167 330.167,294.5 331.5,294.5 Z"/></g>
<g><path style="opacity:0.043" fill="#1f1f1f" d="M 328.5,297.5 C 328.573,299.027 327.906,300.027 326.5,300.5C 326.427,298.973 327.094,297.973 328.5,297.5 Z"/></g>
<g><path style="opacity:0.024" fill="#262626" d="M 324.5,302.5 C 324.262,304.404 323.262,305.738 321.5,306.5C 321.738,304.596 322.738,303.262 324.5,302.5 Z"/></g>
<g><path style="opacity:0.043" fill="#2b2b2b" d="M 315.5,312.5 C 315.5,314.5 314.5,315.5 312.5,315.5C 313.167,314.167 314.167,313.167 315.5,312.5 Z"/></g>
<g><path style="opacity:0.024" fill="#373737" d="M 306.5,321.5 C 305.738,323.262 304.404,324.262 302.5,324.5C 303.262,322.738 304.596,321.738 306.5,321.5 Z"/></g>
<g><path style="opacity:0.004" fill="#292929" d="M 375.5,323.5 C 375.5,324.833 374.833,325.5 373.5,325.5C 373.833,324.5 374.5,323.833 375.5,323.5 Z"/></g>
<g><path style="opacity:0.035" fill="#363636" d="M 300.5,326.5 C 300.167,327.5 299.5,328.167 298.5,328.5C 298.5,327.167 299.167,326.5 300.5,326.5 Z"/></g>
<g><path style="opacity:0.039" fill="#333333" d="M 296.5,329.5 C 296.167,330.5 295.5,331.167 294.5,331.5C 294.5,330.167 295.167,329.5 296.5,329.5 Z"/></g>
<g><path style="opacity:0.031" fill="#353535" d="M 293.5,331.5 C 293.167,332.5 292.5,333.167 291.5,333.5C 291.5,332.167 292.167,331.5 293.5,331.5 Z"/></g>
<g><path style="opacity:0.039" fill="#2f2f2f" d="M 280.5,339.5 C 279.994,341.105 279.327,341.439 278.5,340.5C 278.842,339.662 279.508,339.328 280.5,339.5 Z"/></g>
<g><path style="opacity:0.004" fill="#2c2c2c" d="M 325.5,373.5 C 325.5,374.833 324.833,375.5 323.5,375.5C 323.833,374.5 324.5,373.833 325.5,373.5 Z"/></g>
<g><path style="opacity:0.004" fill="#2c2c2c" d="M 316.5,380.5 C 316.158,381.338 315.492,381.672 314.5,381.5C 315.006,379.895 315.673,379.561 316.5,380.5 Z"/></g>
<g><path style="opacity:0.004" fill="#1c1c1c" d="M 509.5,498.5 C 509.573,500.027 508.906,501.027 507.5,501.5C 507.427,499.973 508.094,498.973 509.5,498.5 Z"/></g>
<g><path style="opacity:0.004" fill="#1f1f1f" d="M 506.5,502.5 C 506.167,504.833 504.833,506.167 502.5,506.5C 503.5,504.833 504.833,503.5 506.5,502.5 Z"/></g>
</svg>
