<?xml version="1.0" encoding="UTF-8"?>
<!DOCTYPE svg PUBLIC "-//W3C//DTD SVG 1.1//EN" "http://www.w3.org/Graphics/SVG/1.1/DTD/svg11.dtd">
<svg xmlns="http://www.w3.org/2000/svg" version="1.1" width="512px" height="512px" style="shape-rendering:geometricPrecision; text-rendering:geometricPrecision; image-rendering:optimizeQuality; fill-rule:evenodd; clip-rule:evenodd" xmlns:xlink="http://www.w3.org/1999/xlink">
<g><path style="opacity:0.74" fill="#f8f8f8" d="M 201.5,-0.5 C 237.5,-0.5 273.5,-0.5 309.5,-0.5C 323.149,4.31645 332.316,13.6498 337,27.5C 339.453,40.8848 342.119,54.2181 345,67.5C 352.417,80.5371 363.583,85.7038 378.5,83C 389.423,78.8032 400.423,74.8032 411.5,71C 428.455,67.6518 442.622,72.4852 454,85.5C 470.253,113.003 486.253,140.67 502,168.5C 505.333,178.833 505.333,189.167 502,199.5C 500.556,203.411 498.389,206.744 495.5,209.5C 492.833,211.5 490.5,213.833 488.5,216.5C 487.71,217.401 486.71,218.068 485.5,218.5C 484.5,218.833 483.833,219.5 483.5,220.5C 482.694,221.728 481.694,222.728 480.5,223.5C 478.973,223.427 477.973,224.094 477.5,225.5C 476.694,226.728 475.694,227.728 474.5,228.5C 472.973,228.427 471.973,229.094 471.5,230.5C 470.71,231.401 469.71,232.068 468.5,232.5C 466.086,233.911 464.419,235.911 463.5,238.5C 455.251,253.521 457.251,267.021 469.5,279C 478.921,285.75 487.754,293.25 496,301.5C 507.159,318.705 507.325,336.038 496.5,353.5C 495.167,353.5 494.5,354.167 494.5,355.5C 490.167,363.5 485.833,371.5 481.5,379.5C 480.167,379.5 479.5,380.167 479.5,381.5C 476.499,386.839 473.499,392.172 470.5,397.5C 469.094,397.973 468.427,398.973 468.5,400.5C 465.238,407.988 461.238,414.988 456.5,421.5C 455.5,421.833 454.833,422.5 454.5,423.5C 454.672,424.492 454.338,425.158 453.5,425.5C 451.167,427.167 449.167,429.167 447.5,431.5C 436.999,440.237 424.999,443.07 411.5,440C 400.423,436.197 389.423,432.197 378.5,428C 370.378,426.623 362.711,427.789 355.5,431.5C 353.973,431.427 352.973,432.094 352.5,433.5C 348.679,437.161 345.846,441.494 344,446.5C 341.667,459.167 339.333,471.833 337,484.5C 335.914,488.346 334.081,491.68 331.5,494.5C 330.094,494.973 329.427,495.973 329.5,497.5C 327.063,501.269 323.729,503.936 319.5,505.5C 318.5,505.833 317.833,506.5 317.5,507.5C 314.768,508.866 312.101,510.199 309.5,511.5C 273.5,511.5 237.5,511.5 201.5,511.5C 187.851,506.684 178.684,497.35 174,483.5C 171.547,470.115 168.881,456.782 166,443.5C 158.583,430.463 147.417,425.296 132.5,428C 121.577,432.197 110.577,436.197 99.5,440C 82.5445,443.348 68.3778,438.515 57,425.5C 40.7474,397.997 24.7474,370.33 9,342.5C 7.38636,337.392 6.21969,332.225 5.5,327C 6.00658,317.3 9.33992,308.8 15.5,301.5C 17.2624,300.738 18.2624,299.404 18.5,297.5C 20.4044,297.262 21.7377,296.262 22.5,294.5C 24.8451,291.823 27.5117,289.49 30.5,287.5C 32.0269,287.573 33.0269,286.906 33.5,285.5C 34.3065,284.272 35.3065,283.272 36.5,282.5C 38.0269,282.573 39.0269,281.906 39.5,280.5C 40.2905,279.599 41.2905,278.932 42.5,278.5C 44.5869,277.415 45.9202,275.749 46.5,273.5C 54.3112,261.73 54.4778,249.73 47,237.5C 36.3333,228.167 25.6667,218.833 15,209.5C 5.00179,195.207 3.50179,180.207 10.5,164.5C 11.8333,164.5 12.5,163.833 12.5,162.5C 13.1667,160.833 13.8333,159.167 14.5,157.5C 15.8333,157.5 16.5,156.833 16.5,155.5C 19.5008,150.161 22.5008,144.828 25.5,139.5C 26.9063,139.027 27.573,138.027 27.5,136.5C 27.7329,134.938 28.3995,133.605 29.5,132.5C 30.9063,132.027 31.573,131.027 31.5,129.5C 34.6906,123.923 37.6906,118.256 40.5,112.5C 41.8333,112.5 42.5,111.833 42.5,110.5C 42.6596,108.847 43.3263,107.514 44.5,106.5C 45.9063,106.027 46.573,105.027 46.5,103.5C 48.7668,98.5759 51.4335,93.9092 54.5,89.5C 55.5,89.1667 56.1667,88.5 56.5,87.5C 56.3284,86.5084 56.6618,85.8417 57.5,85.5C 59.8333,83.8333 61.8333,81.8333 63.5,79.5C 74.0011,70.7632 86.0011,67.9298 99.5,71C 110.844,75.0035 122.178,79.0035 133.5,83C 141.293,84.3411 148.626,83.1744 155.5,79.5C 157.027,79.573 158.027,78.9063 158.5,77.5C 159.167,76.1667 160.167,75.1667 161.5,74.5C 162.906,74.0269 163.573,73.0269 163.5,71.5C 165.525,68.107 167.025,64.4403 168,60.5C 169.785,49.1253 171.785,37.7919 174,26.5C 175.086,22.6536 176.919,19.3203 179.5,16.5C 180.906,16.0269 181.573,15.0269 181.5,13.5C 183.963,9.69983 187.296,7.03316 191.5,5.5C 192.5,5.16667 193.167,4.5 193.5,3.5C 196.232,2.134 198.899,0.800671 201.5,-0.5 Z M 297.5,44.5 C 297.196,75.7345 309.863,99.9012 335.5,117C 353.979,127.101 373.313,129.101 393.5,123C 402.683,119.495 411.85,115.995 421,112.5C 434.328,135.98 447.828,159.313 461.5,182.5C 460.4,183.605 459.733,184.938 459.5,186.5C 457.973,186.427 456.973,187.094 456.5,188.5C 454.973,188.427 453.973,189.094 453.5,190.5C 452.306,191.272 451.306,192.272 450.5,193.5C 449.167,193.5 448.5,194.167 448.5,195.5C 441.918,199.413 436.251,204.413 431.5,210.5C 430.094,210.973 429.427,211.973 429.5,213.5C 428.833,213.5 428.5,213.833 428.5,214.5C 427.599,215.29 426.932,216.29 426.5,217.5C 411.17,244.587 412.003,271.254 429,297.5C 438.718,308.218 449.385,317.885 461,326.5C 461.195,327.819 461.028,329.153 460.5,330.5C 459.5,330.833 458.833,331.5 458.5,332.5C 458.443,333.609 458.11,334.609 457.5,335.5C 456.599,336.29 455.932,337.29 455.5,338.5C 453.264,341.967 451.264,345.634 449.5,349.5C 448.094,349.973 447.427,350.973 447.5,352.5C 446.4,353.605 445.733,354.938 445.5,356.5C 444.094,356.973 443.427,357.973 443.5,359.5C 440.501,364.828 437.501,370.161 434.5,375.5C 433.094,375.973 432.427,376.973 432.5,378.5C 431.662,378.842 431.328,379.508 431.5,380.5C 430.599,381.29 429.932,382.29 429.5,383.5C 426.215,388.126 423.382,393.126 421,398.5C 410.903,394.537 400.737,390.704 390.5,387C 368.848,381.552 348.848,385.052 330.5,397.5C 328.973,397.427 327.973,398.094 327.5,399.5C 326.306,400.272 325.306,401.272 324.5,402.5C 320.833,404.167 318.167,406.833 316.5,410.5C 308.441,419.621 303.274,430.288 301,442.5C 299.506,450.463 298.339,458.463 297.5,466.5C 296.566,467.568 296.232,468.901 296.5,470.5C 269.167,470.5 241.833,470.5 214.5,470.5C 214.768,468.901 214.434,467.568 213.5,466.5C 213.564,440.48 204.231,418.647 185.5,401C 166.102,385.567 144.436,381.067 120.5,387.5C 117.458,387.733 114.792,388.733 112.5,390.5C 104.829,392.668 97.3291,395.335 90,398.5C 76.6721,375.02 63.1721,351.687 49.5,328.5C 50.6005,327.395 51.2671,326.062 51.5,324.5C 53.0269,324.573 54.0269,323.906 54.5,322.5C 56.0269,322.573 57.0269,321.906 57.5,320.5C 58.6935,319.728 59.6935,318.728 60.5,317.5C 61.8333,317.5 62.5,316.833 62.5,315.5C 64.2303,314.974 65.5637,313.974 66.5,312.5C 67.8333,312.5 68.5,311.833 68.5,310.5C 72.8169,307.848 76.4836,304.515 79.5,300.5C 80.9063,300.027 81.573,299.027 81.5,297.5C 93.999,280.487 98.1656,261.487 94,240.5C 90.2307,225.458 82.7307,212.625 71.5,202C 64.3333,196.167 57.1667,190.333 50,184.5C 49.805,183.181 49.9717,181.847 50.5,180.5C 51.5,180.167 52.1667,179.5 52.5,178.5C 55.3094,172.744 58.3094,167.077 61.5,161.5C 62.5,161.167 63.1667,160.5 63.5,159.5C 67.8333,151.5 72.1667,143.5 76.5,135.5C 77.5,135.167 78.1667,134.5 78.5,133.5C 82.3087,126.554 86.1421,119.554 90,112.5C 103.094,118.198 116.594,122.698 130.5,126C 143.472,127.614 155.805,125.78 167.5,120.5C 170.754,120.206 173.421,118.873 175.5,116.5C 177.603,115.65 179.603,114.65 181.5,113.5C 182.5,113.167 183.167,112.5 183.5,111.5C 184.167,110.833 184.833,110.167 185.5,109.5C 189.167,107.833 191.833,105.167 193.5,101.5C 194.5,101.167 195.167,100.5 195.5,99.5C 196.906,99.0269 197.573,98.0269 197.5,96.5C 202.884,89.7317 206.718,82.065 209,73.5C 210.935,63.8904 212.435,54.2238 213.5,44.5C 214.434,43.4324 214.768,42.099 214.5,40.5C 241.833,40.5 269.167,40.5 296.5,40.5C 296.232,42.099 296.566,43.4324 297.5,44.5 Z M 306.5,282.5 C 305.5,282.833 304.833,283.5 304.5,284.5C 304.267,286.062 303.6,287.395 302.5,288.5C 301.094,288.973 300.427,289.973 300.5,291.5C 299.167,292.833 297.833,294.167 296.5,295.5C 295.5,295.833 294.833,296.5 294.5,297.5C 293.694,298.728 292.694,299.728 291.5,300.5C 290.167,300.5 289.5,301.167 289.5,302.5C 287.938,302.733 286.605,303.4 285.5,304.5C 283.973,304.427 282.973,305.094 282.5,306.5C 280.046,307.227 277.713,308.227 275.5,309.5C 273.302,309.875 271.302,310.542 269.5,311.5C 244.84,316.117 224.674,308.784 209,289.5C 195.169,267.232 195.002,244.899 208.5,222.5C 209.5,222.167 210.167,221.5 210.5,220.5C 211.147,218.859 212.147,217.526 213.5,216.5C 214.833,215.833 215.833,214.833 216.5,213.5C 217.5,212.5 218.5,211.5 219.5,210.5C 220.833,210.5 221.5,209.833 221.5,208.5C 246.26,194.215 270.26,195.382 293.5,212C 313.664,232.505 317.997,256.005 306.5,282.5 Z"/></g>
<g><path style="opacity:0.016" fill="#333333" d="M 193.5,3.5 C 193.167,4.5 192.5,5.16667 191.5,5.5C 191.5,4.16667 192.167,3.5 193.5,3.5 Z"/></g>
<g><path style="opacity:0.035" fill="#252525" d="M 181.5,13.5 C 181.573,15.0269 180.906,16.0269 179.5,16.5C 179.427,14.9731 180.094,13.9731 181.5,13.5 Z"/></g>
<g><path style="opacity:0.047" fill="#3c3c3c" d="M 297.5,44.5 C 296.566,43.4324 296.232,42.099 296.5,40.5C 269.167,40.5 241.833,40.5 214.5,40.5C 214.768,42.099 214.434,43.4324 213.5,44.5C 213.5,42.8333 213.5,41.1667 213.5,39.5C 241.5,39.5 269.5,39.5 297.5,39.5C 297.5,41.1667 297.5,42.8333 297.5,44.5 Z"/></g>
<g><path style="opacity:0.024" fill="#242424" d="M 163.5,71.5 C 163.573,73.0269 162.906,74.0269 161.5,74.5C 161.427,72.9731 162.094,71.9731 163.5,71.5 Z"/></g>
<g><path style="opacity:0.035" fill="#262626" d="M 158.5,77.5 C 158.027,78.9063 157.027,79.573 155.5,79.5C 155.973,78.0937 156.973,77.427 158.5,77.5 Z"/></g>
<g><path style="opacity:0.024" fill="#242424" d="M 63.5,79.5 C 61.8333,81.8333 59.8333,83.8333 57.5,85.5C 58.5,82.5 60.5,80.5 63.5,79.5 Z"/></g>
<g><path style="opacity:0.039" fill="#2f2f2f" d="M 56.5,87.5 C 56.1667,88.5 55.5,89.1667 54.5,89.5C 54.5,88.1667 55.1667,87.5 56.5,87.5 Z"/></g>
<g><path style="opacity:0.004" fill="#222222" d="M 197.5,96.5 C 197.573,98.0269 196.906,99.0269 195.5,99.5C 195.427,97.9731 196.094,96.9731 197.5,96.5 Z"/></g>
<g><path style="opacity:0.035" fill="#303030" d="M 46.5,103.5 C 46.573,105.027 45.9063,106.027 44.5,106.5C 44.427,104.973 45.0937,103.973 46.5,103.5 Z"/></g>
<g><path style="opacity:0.004" fill="#1e1e1e" d="M 193.5,101.5 C 191.833,105.167 189.167,107.833 185.5,109.5C 187.833,106.5 190.5,103.833 193.5,101.5 Z"/></g>
<g><path style="opacity:0.039" fill="#1c1c1c" d="M 42.5,110.5 C 42.5,111.833 41.8333,112.5 40.5,112.5C 40.8333,111.5 41.5,110.833 42.5,110.5 Z"/></g>
<g><path style="opacity:0.004" fill="#191919" d="M 183.5,111.5 C 183.167,112.5 182.5,113.167 181.5,113.5C 181.5,112.167 182.167,111.5 183.5,111.5 Z"/></g>
<g><path style="opacity:0.012" fill="#3e3e3e" d="M 175.5,116.5 C 173.421,118.873 170.754,120.206 167.5,120.5C 169.849,118.659 172.515,117.326 175.5,116.5 Z"/></g>
<g><path style="opacity:0.039" fill="#2e2e2e" d="M 31.5,129.5 C 31.573,131.027 30.9063,132.027 29.5,132.5C 29.427,130.973 30.0937,129.973 31.5,129.5 Z"/></g>
<g><path style="opacity:0.004" fill="#111111" d="M 78.5,133.5 C 78.1667,134.5 77.5,135.167 76.5,135.5C 76.5,134.167 77.1667,133.5 78.5,133.5 Z"/></g>
<g><path style="opacity:0.039" fill="#272727" d="M 27.5,136.5 C 27.573,138.027 26.9063,139.027 25.5,139.5C 25.427,137.973 26.0937,136.973 27.5,136.5 Z"/></g>
<g><path style="opacity:0.039" fill="#1c1c1c" d="M 16.5,155.5 C 16.5,156.833 15.8333,157.5 14.5,157.5C 14.8333,156.5 15.5,155.833 16.5,155.5 Z"/></g>
<g><path style="opacity:0.738" fill="#f7f7f7" d="M 342.5,305.5 C 341.167,305.5 340.5,306.167 340.5,307.5C 338.912,311.41 336.579,314.743 333.5,317.5C 331.738,318.262 330.738,319.596 330.5,321.5C 327.815,325.183 324.482,328.183 320.5,330.5C 319.167,331.167 318.167,332.167 317.5,333.5C 287.795,356.008 255.129,361.175 219.5,349C 174.846,328.634 153.679,293.801 156,244.5C 158.237,225.254 165.403,208.254 177.5,193.5C 178.906,193.027 179.573,192.027 179.5,190.5C 182.833,186.5 186.5,182.833 190.5,179.5C 192.027,179.573 193.027,178.906 193.5,177.5C 196.446,174.687 199.779,172.354 203.5,170.5C 205.027,170.573 206.027,169.906 206.5,168.5C 211.595,165.619 216.928,163.286 222.5,161.5C 225.082,161.975 227.082,161.308 228.5,159.5C 276.099,148.728 313.599,163.394 341,203.5C 359.731,237.301 360.231,271.301 342.5,305.5 Z M 306.5,282.5 C 305.5,282.833 304.833,283.5 304.5,284.5C 304.267,286.062 303.6,287.395 302.5,288.5C 301.094,288.973 300.427,289.973 300.5,291.5C 299.167,292.833 297.833,294.167 296.5,295.5C 295.5,295.833 294.833,296.5 294.5,297.5C 293.694,298.728 292.694,299.728 291.5,300.5C 290.167,300.5 289.5,301.167 289.5,302.5C 287.938,302.733 286.605,303.4 285.5,304.5C 283.973,304.427 282.973,305.094 282.5,306.5C 280.046,307.227 277.713,308.227 275.5,309.5C 273.302,309.875 271.302,310.542 269.5,311.5C 244.84,316.117 224.674,308.784 209,289.5C 195.169,267.232 195.002,244.899 208.5,222.5C 209.5,222.167 210.167,221.5 210.5,220.5C 211.147,218.859 212.147,217.526 213.5,216.5C 214.833,215.833 215.833,214.833 216.5,213.5C 217.5,212.5 218.5,211.5 219.5,210.5C 220.833,210.5 221.5,209.833 221.5,208.5C 246.26,194.215 270.26,195.382 293.5,212C 313.664,232.505 317.997,256.005 306.5,282.5 Z"/></g>
<g><path style="opacity:0.004" fill="#111111" d="M 63.5,159.5 C 63.1667,160.5 62.5,161.167 61.5,161.5C 61.5,160.167 62.1667,159.5 63.5,159.5 Z"/></g>
<g><path style="opacity:0.247" fill="#909090" d="M 228.5,159.5 C 227.082,161.308 225.082,161.975 222.5,161.5C 224.214,160.262 226.214,159.595 228.5,159.5 Z"/></g>
<g><path style="opacity:0.039" fill="#1c1c1c" d="M 12.5,162.5 C 12.5,163.833 11.8333,164.5 10.5,164.5C 10.8333,163.5 11.5,162.833 12.5,162.5 Z"/></g>
<g><path style="opacity:0.031" fill="#434343" d="M 206.5,168.5 C 206.027,169.906 205.027,170.573 203.5,170.5C 203.973,169.094 204.973,168.427 206.5,168.5 Z"/></g>
<g><path style="opacity:0.004" fill="#111111" d="M 52.5,178.5 C 52.1667,179.5 51.5,180.167 50.5,180.5C 50.5,179.167 51.1667,178.5 52.5,178.5 Z"/></g>
<g><path style="opacity:0.024" fill="#343434" d="M 193.5,177.5 C 193.027,178.906 192.027,179.573 190.5,179.5C 190.973,178.094 191.973,177.427 193.5,177.5 Z"/></g>
<g><path style="opacity:0.02" fill="#474747" d="M 461.5,182.5 C 462.473,184.292 461.806,185.625 459.5,186.5C 459.733,184.938 460.4,183.605 461.5,182.5 Z"/></g>
<g><path style="opacity:0.024" fill="#393939" d="M 456.5,188.5 C 456.027,189.906 455.027,190.573 453.5,190.5C 453.973,189.094 454.973,188.427 456.5,188.5 Z"/></g>
<g><path style="opacity:0.027" fill="#1d1d1d" d="M 179.5,190.5 C 179.573,192.027 178.906,193.027 177.5,193.5C 177.427,191.973 178.094,190.973 179.5,190.5 Z"/></g>
<g><path style="opacity:0.016" fill="#333333" d="M 450.5,193.5 C 450.167,194.5 449.5,195.167 448.5,195.5C 448.5,194.167 449.167,193.5 450.5,193.5 Z"/></g>
<g><path style="opacity:0.004" fill="#2c2c2c" d="M 221.5,208.5 C 221.5,209.833 220.833,210.5 219.5,210.5C 219.833,209.5 220.5,208.833 221.5,208.5 Z"/></g>
<g><path style="opacity:0.031" fill="#282828" d="M 431.5,210.5 C 431.573,212.027 430.906,213.027 429.5,213.5C 429.427,211.973 430.094,210.973 431.5,210.5 Z"/></g>
<g><path style="opacity:0.004" fill="#1c1c1c" d="M 495.5,209.5 C 494.167,212.833 491.833,215.167 488.5,216.5C 490.5,213.833 492.833,211.5 495.5,209.5 Z"/></g>
<g><path style="opacity:0.004" fill="#141414" d="M 216.5,213.5 C 215.833,214.833 214.833,215.833 213.5,216.5C 213.5,214.5 214.5,213.5 216.5,213.5 Z"/></g>
<g><path style="opacity:0.173" fill="#6e6e6e" d="M 428.5,214.5 C 428.715,216.179 428.048,217.179 426.5,217.5C 426.932,216.29 427.599,215.29 428.5,214.5 Z"/></g>
<g><path style="opacity:0.004" fill="#1f1f1f" d="M 485.5,218.5 C 485.5,219.833 484.833,220.5 483.5,220.5C 483.833,219.5 484.5,218.833 485.5,218.5 Z"/></g>
<g><path style="opacity:0.004" fill="#171717" d="M 210.5,220.5 C 210.167,221.5 209.5,222.167 208.5,222.5C 208.5,221.167 209.167,220.5 210.5,220.5 Z"/></g>
<g><path style="opacity:0.004" fill="#1a1a1a" d="M 480.5,223.5 C 480.027,224.906 479.027,225.573 477.5,225.5C 477.973,224.094 478.973,223.427 480.5,223.5 Z"/></g>
<g><path style="opacity:0.004" fill="#212121" d="M 474.5,228.5 C 474.027,229.906 473.027,230.573 471.5,230.5C 471.973,229.094 472.973,228.427 474.5,228.5 Z"/></g>
<g><path style="opacity:0.004" fill="#191919" d="M 468.5,232.5 C 467.581,235.089 465.914,237.089 463.5,238.5C 464.419,235.911 466.086,233.911 468.5,232.5 Z"/></g>
<g><path style="opacity:0.024" fill="#282828" d="M 46.5,273.5 C 45.9202,275.749 44.5869,277.415 42.5,278.5C 43.0798,276.251 44.4131,274.585 46.5,273.5 Z"/></g>
<g><path style="opacity:0.02" fill="#404040" d="M 39.5,280.5 C 39.0269,281.906 38.0269,282.573 36.5,282.5C 36.9731,281.094 37.9731,280.427 39.5,280.5 Z"/></g>
<g><path style="opacity:0.039" fill="#1c1c1c" d="M 306.5,282.5 C 306.5,283.833 305.833,284.5 304.5,284.5C 304.833,283.5 305.5,282.833 306.5,282.5 Z"/></g>
<g><path style="opacity:0.027" fill="#2f2f2f" d="M 33.5,285.5 C 33.0269,286.906 32.0269,287.573 30.5,287.5C 30.9731,286.094 31.9731,285.427 33.5,285.5 Z"/></g>
<g><path style="opacity:0.031" fill="#1f1f1f" d="M 302.5,288.5 C 302.573,290.027 301.906,291.027 300.5,291.5C 300.427,289.973 301.094,288.973 302.5,288.5 Z"/></g>
<g><path style="opacity:0.02" fill="#292929" d="M 22.5,294.5 C 21.7377,296.262 20.4044,297.262 18.5,297.5C 19.2623,295.738 20.5956,294.738 22.5,294.5 Z"/></g>
<g><path style="opacity:0.035" fill="#1f1f1f" d="M 296.5,295.5 C 296.5,296.833 295.833,297.5 294.5,297.5C 294.833,296.5 295.5,295.833 296.5,295.5 Z"/></g>
<g><path style="opacity:0.004" fill="#202020" d="M 81.5,297.5 C 81.573,299.027 80.9063,300.027 79.5,300.5C 79.427,298.973 80.0937,297.973 81.5,297.5 Z"/></g>
<g><path style="opacity:0.02" fill="#282828" d="M 18.5,297.5 C 18.2624,299.404 17.2624,300.738 15.5,301.5C 15.7376,299.596 16.7376,298.262 18.5,297.5 Z"/></g>
<g><path style="opacity:0.012" fill="#404040" d="M 291.5,300.5 C 291.167,301.5 290.5,302.167 289.5,302.5C 289.5,301.167 290.167,300.5 291.5,300.5 Z"/></g>
<g><path style="opacity:0.031" fill="#434343" d="M 285.5,304.5 C 285.027,305.906 284.027,306.573 282.5,306.5C 282.973,305.094 283.973,304.427 285.5,304.5 Z"/></g>
<g><path style="opacity:0.004" fill="#111111" d="M 342.5,305.5 C 342.167,306.5 341.5,307.167 340.5,307.5C 340.5,306.167 341.167,305.5 342.5,305.5 Z"/></g>
<g><path style="opacity:0.273" fill="#919191" d="M 275.5,309.5 C 274.082,311.308 272.082,311.975 269.5,311.5C 271.302,310.542 273.302,309.875 275.5,309.5 Z"/></g>
<g><path style="opacity:0.004" fill="#2b2b2b" d="M 68.5,310.5 C 68.5,311.833 67.8333,312.5 66.5,312.5C 66.8333,311.5 67.5,310.833 68.5,310.5 Z"/></g>
<g><path style="opacity:0.004" fill="#1f1f1f" d="M 62.5,315.5 C 62.5,316.833 61.8333,317.5 60.5,317.5C 60.8333,316.5 61.5,315.833 62.5,315.5 Z"/></g>
<g><path style="opacity:0.004" fill="#1b1b1b" d="M 333.5,317.5 C 333.262,319.404 332.262,320.738 330.5,321.5C 330.738,319.596 331.738,318.262 333.5,317.5 Z"/></g>
<g><path style="opacity:0.004" fill="#1b1b1b" d="M 57.5,320.5 C 57.0269,321.906 56.0269,322.573 54.5,322.5C 54.9731,321.094 55.9731,320.427 57.5,320.5 Z"/></g>
<g><path style="opacity:0.004" fill="#2e2e2e" d="M 51.5,324.5 C 51.2671,326.062 50.6005,327.395 49.5,328.5C 48.5272,326.708 49.1939,325.375 51.5,324.5 Z"/></g>
<g><path style="opacity:0.039" fill="#1c1c1c" d="M 460.5,330.5 C 460.5,331.833 459.833,332.5 458.5,332.5C 458.833,331.5 459.5,330.833 460.5,330.5 Z"/></g>
<g><path style="opacity:0.004" fill="#212121" d="M 320.5,330.5 C 320.5,332.5 319.5,333.5 317.5,333.5C 318.167,332.167 319.167,331.167 320.5,330.5 Z"/></g>
<g><path style="opacity:0.176" fill="#6d6d6d" d="M 457.5,335.5 C 457.715,337.179 457.048,338.179 455.5,338.5C 455.932,337.29 456.599,336.29 457.5,335.5 Z"/></g>
<g><path style="opacity:0.039" fill="#2e2e2e" d="M 449.5,349.5 C 449.573,351.027 448.906,352.027 447.5,352.5C 447.427,350.973 448.094,349.973 449.5,349.5 Z"/></g>
<g><path style="opacity:0.004" fill="#111111" d="M 496.5,353.5 C 496.167,354.5 495.5,355.167 494.5,355.5C 494.5,354.167 495.167,353.5 496.5,353.5 Z"/></g>
<g><path style="opacity:0.039" fill="#272727" d="M 445.5,356.5 C 445.573,358.027 444.906,359.027 443.5,359.5C 443.427,357.973 444.094,356.973 445.5,356.5 Z"/></g>
<g><path style="opacity:0.039" fill="#2e2e2e" d="M 434.5,375.5 C 434.573,377.027 433.906,378.027 432.5,378.5C 432.427,376.973 433.094,375.973 434.5,375.5 Z"/></g>
<g><path style="opacity:0.004" fill="#111111" d="M 481.5,379.5 C 481.167,380.5 480.5,381.167 479.5,381.5C 479.5,380.167 480.167,379.5 481.5,379.5 Z"/></g>
<g><path style="opacity:0.161" fill="#6d6d6d" d="M 431.5,380.5 C 431.715,382.179 431.048,383.179 429.5,383.5C 429.932,382.29 430.599,381.29 431.5,380.5 Z"/></g>
<g><path style="opacity:0.392" fill="#999999" d="M 120.5,387.5 C 118.584,389.977 115.917,390.977 112.5,390.5C 114.792,388.733 117.458,387.733 120.5,387.5 Z"/></g>
<g><path style="opacity:0.027" fill="#2f2f2f" d="M 330.5,397.5 C 330.027,398.906 329.027,399.573 327.5,399.5C 327.973,398.094 328.973,397.427 330.5,397.5 Z"/></g>
<g><path style="opacity:0.004" fill="#1e1e1e" d="M 470.5,397.5 C 470.573,399.027 469.906,400.027 468.5,400.5C 468.427,398.973 469.094,397.973 470.5,397.5 Z"/></g>
<g><path style="opacity:0.027" fill="#2f2f2f" d="M 324.5,402.5 C 322.167,405.5 319.5,408.167 316.5,410.5C 318.167,406.833 320.833,404.167 324.5,402.5 Z"/></g>
<g><path style="opacity:0.004" fill="#252525" d="M 456.5,421.5 C 456.5,422.833 455.833,423.5 454.5,423.5C 454.833,422.5 455.5,421.833 456.5,421.5 Z"/></g>
<g><path style="opacity:0.004" fill="#1f1f1f" d="M 453.5,425.5 C 452.5,428.5 450.5,430.5 447.5,431.5C 449.167,429.167 451.167,427.167 453.5,425.5 Z"/></g>
<g><path style="opacity:0.004" fill="#161616" d="M 355.5,431.5 C 355.027,432.906 354.027,433.573 352.5,433.5C 352.973,432.094 353.973,431.427 355.5,431.5 Z"/></g>
<g><path style="opacity:0.047" fill="#2b2b2b" d="M 213.5,466.5 C 214.434,467.568 214.768,468.901 214.5,470.5C 241.833,470.5 269.167,470.5 296.5,470.5C 296.232,468.901 296.566,467.568 297.5,466.5C 297.5,468.167 297.5,469.833 297.5,471.5C 269.5,471.5 241.5,471.5 213.5,471.5C 213.5,469.833 213.5,468.167 213.5,466.5 Z"/></g>
<g><path style="opacity:0.004" fill="#1d1d1d" d="M 331.5,494.5 C 331.573,496.027 330.906,497.027 329.5,497.5C 329.427,495.973 330.094,494.973 331.5,494.5 Z"/></g>
<g><path style="opacity:0.004" fill="#272727" d="M 319.5,505.5 C 319.5,506.833 318.833,507.5 317.5,507.5C 317.833,506.5 318.5,505.833 319.5,505.5 Z"/></g>
</svg>
