<?xml version="1.0" encoding="UTF-8"?>
<svg version="1.1" xmlns="http://www.w3.org/2000/svg" width="512" height="512">
<path d="M0 0 C1.55335556 -0.01533279 1.55335556 -0.01533279 3.13809204 -0.03097534 C6.53256903 -0.05858294 9.92622546 -0.05686817 13.32080078 -0.05224609 C15.69915056 -0.06003005 18.07749758 -0.06870145 20.45584106 -0.07821655 C25.43028798 -0.09310123 30.40445091 -0.09258747 35.37890625 -0.08203125 C41.7294923 -0.07044593 48.07891095 -0.10431137 54.42930412 -0.1507206 C59.33837594 -0.18029345 64.24716973 -0.1819255 69.15631485 -0.17570114 C71.49651527 -0.17672262 73.83673227 -0.18710461 76.17684555 -0.20732498 C99.62059292 -0.38505905 99.62059292 -0.38505905 109.14111328 6.54931641 C109.84460907 7.04684418 110.54810486 7.54437195 111.2729187 8.05697632 C124.88074024 18.24289088 126.99893413 35.85704868 129.49560547 51.45092773 C131.28687415 62.51630598 132.81289273 71.68368344 142.02392578 79.07275391 C149.2944731 84.14335702 157.439419 84.70733112 166.14111328 83.54931641 C172.01422047 82.15424045 177.60464831 79.83273291 183.20361328 77.61181641 C185.41001279 76.76089736 187.6187983 75.91653887 189.82872009 75.07481384 C191.18922273 74.55407877 192.54728945 74.02691663 193.90235901 73.49220276 C205.44880903 68.9838896 215.72764576 69.79604185 227.14111328 74.54931641 C238.57592065 80.84005305 244.9098005 90.26295529 251.14111328 101.42431641 C252.12661144 103.16099847 253.11212404 104.89767255 254.09851074 106.6338501 C255.11417754 108.42410841 256.12595351 110.2165231 257.13720703 112.00927734 C260.26500582 117.54572331 263.45741439 123.04490388 266.64111328 128.54931641 C267.87550614 130.69383737 269.10988105 132.83836868 270.34423828 134.98291016 C272.63281287 138.95204461 274.93661704 142.91144849 277.26123047 146.85952759 C278.30390955 148.63154349 279.34313248 150.40554142 280.38134766 152.18017578 C281.68312216 154.4029336 282.99131859 156.62194788 284.30712891 158.83642578 C289.31495737 167.41267409 292.72112855 174.89334414 292.57861328 184.92431641 C292.57394043 185.65674561 292.56926758 186.3891748 292.56445312 187.14379883 C292.34921483 195.10674075 289.70792019 201.52816948 286.14111328 208.54931641 C285.48111328 208.54931641 284.82111328 208.54931641 284.14111328 208.54931641 C283.83173828 209.63212891 283.83173828 209.63212891 283.51611328 210.73681641 C281.76560787 214.31739566 279.22646855 216.18436248 276.14111328 218.54931641 C275.05534684 219.48399742 273.97192194 220.42140691 272.89111328 221.36181641 C270.14111328 223.54931641 270.14111328 223.54931641 268.14111328 223.54931641 C267.81111328 224.53931641 267.48111328 225.52931641 267.14111328 226.54931641 C265.47444661 227.21598307 263.80777995 227.88264974 262.14111328 228.54931641 C261.81111328 229.53931641 261.48111328 230.52931641 261.14111328 231.54931641 C259.81977088 232.23944428 258.48449334 232.90313359 257.14111328 233.54931641 C251.0486103 239.13083527 247.60733928 244.62480435 246.82861328 252.85009766 C246.48718813 262.78343556 248.30983576 270.21970501 255.06689453 277.62353516 C258.3725156 280.69259577 261.96083211 283.39641231 265.53295898 286.14379883 C284.84638637 301.07738445 284.84638637 301.07738445 289.14111328 310.54931641 C289.45435547 311.16162109 289.76759766 311.77392578 290.09033203 312.40478516 C294.03470205 321.6321123 293.80901339 334.56760835 290.14111328 343.79931641 C289.19146133 345.74142152 288.18820264 347.65796372 287.14111328 349.54931641 C286.53654297 350.65533203 285.93197266 351.76134766 285.30908203 352.90087891 C283.64796178 355.88232344 281.92665466 358.82509956 280.18945312 361.76269531 C278.81094702 364.11199845 277.47320029 366.48335178 276.1340332 368.85522461 C273.1984382 374.04863648 270.16650888 379.16983033 267.01611328 384.23681641 C264.07932114 388.96768001 261.33662519 393.75541135 258.70751953 398.66259766 C256.88071036 402.02921107 254.98596142 405.35288451 253.07861328 408.67431641 C250.05506946 413.94185184 247.06920799 419.22806736 244.14111328 424.54931641 C243.48111328 424.54931641 242.82111328 424.54931641 242.14111328 424.54931641 C241.89103516 425.30212891 241.64095703 426.05494141 241.38330078 426.83056641 C237.94912526 434.34687508 229.18701167 437.70823001 221.93798828 440.60400391 C207.0136188 445.64827404 193.05320495 439.99733069 179.16455078 434.33374023 C168.46244475 430.00335817 159.21465325 427.10720706 147.70361328 430.67431641 C143.19329531 432.7059036 138.38596677 436.05960943 136.14111328 440.54931641 C135.48111328 440.54931641 134.82111328 440.54931641 134.14111328 440.54931641 C132.11223495 448.48347748 130.29286617 456.40370661 128.97314453 464.49072266 C128.77229248 465.70598633 128.57144043 466.92125 128.36450195 468.17333984 C127.97424495 470.57888973 127.59993166 472.98709672 127.24389648 475.39794922 C125.9307207 483.43965799 123.7469507 490.72676182 119.14111328 497.54931641 C118.15111328 497.87931641 117.16111328 498.20931641 116.14111328 498.54931641 C115.85236328 499.14744141 115.56361328 499.74556641 115.26611328 500.36181641 C113.76904735 503.27277795 111.79807441 504.68944361 109.14111328 506.54931641 C108.48111328 506.54931641 107.82111328 506.54931641 107.14111328 506.54931641 C107.14111328 507.20931641 107.14111328 507.86931641 107.14111328 508.54931641 C100.03465571 511.91685742 94.11049344 513.1392451 86.28222656 513.09863281 C84.728871 513.11396561 84.728871 513.11396561 83.14413452 513.12960815 C79.74965753 513.15721575 76.35600111 513.15550098 72.96142578 513.15087891 C70.583076 513.15866287 68.20472898 513.16733427 65.8263855 513.17684937 C60.85193858 513.19173404 55.87777566 513.19122028 50.90332031 513.18066406 C44.55273426 513.16907874 38.20331561 513.20294419 31.85292244 513.24935341 C26.94385063 513.27892627 22.03505684 513.28055831 17.12591171 513.27433395 C14.78571129 513.27535543 12.4454943 513.28573743 10.10538101 513.30595779 C-13.29395074 513.48335513 -13.29395074 513.48335513 -22.85888672 506.54931641 C-23.45821014 506.14758209 -24.05753357 505.74584778 -24.67501831 505.3319397 C-35.84641579 497.03600539 -39.26076035 484.32127332 -41.42138672 471.29931641 C-42.61645475 464.33400239 -43.83449591 457.38294205 -45.33154297 450.47509766 C-45.66617554 448.9307605 -45.66617554 448.9307605 -46.00756836 447.35522461 C-47.90985816 441.08536036 -52.39581972 436.06128805 -57.85888672 432.54931641 C-65.99832264 428.40560357 -75.28453376 428.06109556 -84.00952148 430.66308594 C-88.37341841 432.11626295 -92.64711675 433.79136077 -96.92138672 435.48681641 C-99.12778623 436.33773545 -101.33657174 437.18209394 -103.54649353 438.02381897 C-104.90699616 438.54455404 -106.26506289 439.07171618 -107.62013245 439.60643005 C-119.24311916 444.14462697 -129.34756427 443.19144518 -140.85888672 438.54931641 C-152.30587908 432.77315001 -158.8731527 422.51316397 -164.92138672 411.61181641 C-165.9001055 409.88182758 -166.87884163 408.15184828 -167.85861206 406.42245483 C-168.86605173 404.64121087 -169.86888313 402.85743253 -170.87109375 401.07324219 C-173.98610013 395.53792394 -177.17764966 390.0467283 -180.35888672 384.54931641 C-181.5933316 382.40482538 -182.82770624 380.26029392 -184.06201172 378.11572266 C-186.35058631 374.1465882 -188.65439047 370.18718432 -190.97900391 366.23910522 C-192.02168298 364.46708932 -193.06090592 362.69309139 -194.09912109 360.91845703 C-195.40089559 358.69569921 -196.70909203 356.47668494 -198.02490234 354.26220703 C-204.88539811 342.51313942 -208.18442994 332.212668 -205.67138672 318.63525391 C-204.35794585 313.64670447 -202.21706478 309.12166166 -199.85888672 304.54931641 C-199.19888672 304.54931641 -198.53888672 304.54931641 -197.85888672 304.54931641 C-197.54951172 303.46650391 -197.54951172 303.46650391 -197.23388672 302.36181641 C-195.48338131 298.78123716 -192.94424199 296.91427033 -189.85888672 294.54931641 C-188.77312028 293.61463539 -187.68969537 292.6772259 -186.60888672 291.73681641 C-183.85888672 289.54931641 -183.85888672 289.54931641 -181.85888672 289.54931641 C-181.52888672 288.55931641 -181.19888672 287.56931641 -180.85888672 286.54931641 C-179.19222005 285.88264974 -177.52555339 285.21598307 -175.85888672 284.54931641 C-175.52888672 283.55931641 -175.19888672 282.56931641 -174.85888672 281.54931641 C-174.26076172 281.26056641 -173.66263672 280.97181641 -173.04638672 280.67431641 C-170.18327202 279.20185742 -168.83339677 277.05036247 -166.85888672 274.54931641 C-166.19888672 274.54931641 -165.53888672 274.54931641 -164.85888672 274.54931641 C-164.57013672 273.66244141 -164.28138672 272.77556641 -163.98388672 271.86181641 C-162.85888672 268.54931641 -162.85888672 268.54931641 -161.81201172 266.26416016 C-159.46690219 259.58444244 -159.7830965 251.1499794 -162.48388672 244.61181641 C-166.58965833 236.94864679 -172.44262909 232.19106773 -179.25073242 226.95483398 C-192.60477318 216.62918297 -203.93375631 206.66954337 -206.67138672 189.23681641 C-207.88263403 174.7775516 -200.90739908 163.35604495 -193.92333984 151.38427734 C-192.88488836 149.59413941 -191.86122525 147.79648411 -190.84326172 145.99462891 C-187.57714458 140.21673126 -184.23921513 134.49966401 -180.73388672 128.86181641 C-177.79709458 124.1309528 -175.05439863 119.34322147 -172.42529297 114.43603516 C-170.59848379 111.06942174 -168.70373486 107.7457483 -166.79638672 104.42431641 C-163.7728429 99.15678098 -160.78698143 93.87056545 -157.85888672 88.54931641 C-157.19888672 88.54931641 -156.53888672 88.54931641 -155.85888672 88.54931641 C-155.48376953 87.42009766 -155.48376953 87.42009766 -155.10107422 86.26806641 C-151.6668987 78.75175773 -142.90478511 75.3904028 -135.65576172 72.49462891 C-118.24343123 66.60945575 -100.7253676 75.3011007 -84.69555664 81.87255859 C-77.52742947 84.51379859 -68.67035549 84.84357167 -61.42138672 82.36181641 C-54.53197816 78.85667872 -49.32161334 74.23395656 -46.42138672 66.92822266 C-45.01129246 62.57102701 -44.19491486 58.16636094 -43.46435547 53.65478516 C-43.34780106 52.93664642 -43.23124664 52.21850769 -43.11116028 51.47860718 C-42.63115711 48.48314201 -42.15845768 45.48696748 -41.71020508 42.48657227 C-39.76688368 29.61681038 -36.84113253 16.84985103 -25.85888672 8.54931641 C-22.92138672 7.11181641 -22.92138672 7.11181641 -20.85888672 6.54931641 C-20.85888672 5.88931641 -20.85888672 5.22931641 -20.85888672 4.54931641 C-13.75242915 1.18177539 -7.82826688 -0.04061229 0 0 Z M2.14111328 41.54931641 C0.16111328 52.43931641 -1.81888672 63.32931641 -3.85888672 74.54931641 C-15.61984853 105.12781711 -15.61984853 105.12781711 -28.85888672 111.54931641 C-29.18888672 112.20931641 -29.51888672 112.86931641 -29.85888672 113.54931641 C-30.84888672 113.87931641 -31.83888672 114.20931641 -32.85888672 114.54931641 C-32.85888672 115.20931641 -32.85888672 115.86931641 -32.85888672 116.54931641 C-33.44798828 116.67693359 -34.03708984 116.80455078 -34.64404297 116.93603516 C-37.1442616 117.54350364 -37.1442616 117.54350364 -40.29638672 119.36181641 C-57.24900633 128.07667152 -77.42362881 129.09441402 -95.44189453 123.36816406 C-104.34081389 120.35331805 -113.11051797 116.97240057 -121.85888672 113.54931641 C-124.50993827 116.72717948 -126.68970387 119.82343503 -128.60888672 123.48681641 C-130.91923442 127.81726712 -133.28989991 132.10558138 -135.73388672 136.36181641 C-136.07129883 136.94946777 -136.40871094 137.53711914 -136.75634766 138.14257812 C-137.44631863 139.34398926 -138.1364235 140.54532351 -138.82666016 141.74658203 C-139.84584492 143.52653953 -140.8574773 145.31056905 -141.86669922 147.09619141 C-145.13820598 152.87499889 -148.47673612 158.59603807 -151.98388672 164.23681641 C-158.60138501 174.36367807 -158.60138501 174.36367807 -162.85888672 185.54931641 C-160.75615269 187.36350007 -158.65177702 189.17571922 -156.54638672 190.98681641 C-155.91063721 191.53523193 -155.2748877 192.08364746 -154.61987305 192.64868164 C-150.83257479 195.90259771 -146.98190133 199.03719562 -143.04638672 202.11181641 C-128.48653824 214.04191251 -119.527206 231.06325537 -117.63574219 249.75439453 C-116.37298446 267.97927416 -121.06894015 285.97588676 -132.20263672 300.63525391 C-135.15429796 303.99030885 -138.08968668 306.95478662 -141.62841797 309.68994141 C-142.7325 310.61033203 -142.7325 310.61033203 -143.85888672 311.54931641 C-143.85888672 312.20931641 -143.85888672 312.86931641 -143.85888672 313.54931641 C-145.06544922 313.95150391 -145.06544922 313.95150391 -146.29638672 314.36181641 C-147.14201172 314.75369141 -147.98763672 315.14556641 -148.85888672 315.54931641 C-149.18888672 316.53931641 -149.51888672 317.52931641 -149.85888672 318.54931641 C-151.52243462 319.22372772 -153.18955614 319.8893485 -154.85888672 320.54931641 C-156.96302288 322.40342218 -156.96302288 322.40342218 -158.85888672 324.54931641 C-160.19222005 325.88264974 -161.52555339 327.21598307 -162.85888672 328.54931641 C-161.44283612 332.33450373 -159.70467607 335.74680962 -157.69091797 339.24853516 C-156.73270142 340.92012695 -156.73270142 340.92012695 -155.75512695 342.62548828 C-155.06063516 343.82931526 -154.36605288 345.03309004 -153.67138672 346.23681641 C-152.95506179 347.48341156 -152.2390011 348.73015858 -151.52319336 349.97705078 C-149.67176096 353.20006068 -147.81623219 356.42069109 -145.95935059 359.64056396 C-144.88892349 361.49721769 -143.81949599 363.35444279 -142.75048828 365.21191406 C-136.15229291 376.67668411 -129.53254766 388.12828163 -122.85888672 399.54931641 C-122.33681641 399.36344971 -121.81474609 399.17758301 -121.27685547 398.98608398 C-93.48102979 389.11333285 -68.67706523 380.49432827 -40.48388672 393.79931641 C-23.80705453 402.71508027 -11.39707284 416.59568726 -5.23388672 434.54931641 C-2.02507953 446.70900679 -0.06962097 459.16920461 2.14111328 471.54931641 C29.20111328 471.54931641 56.26111328 471.54931641 84.14111328 471.54931641 C86.12111328 460.65931641 88.10111328 449.76931641 90.14111328 438.54931641 C95.14111328 425.54931641 95.14111328 425.54931641 98.14111328 420.54931641 C98.14111328 419.55931641 98.14111328 418.56931641 98.14111328 417.54931641 C98.80111328 417.54931641 99.46111328 417.54931641 100.14111328 417.54931641 C100.47111328 416.22931641 100.80111328 414.90931641 101.14111328 413.54931641 C101.80111328 413.54931641 102.46111328 413.54931641 103.14111328 413.54931641 C103.67736328 412.68306641 104.21361328 411.81681641 104.76611328 410.92431641 C107.01424518 407.31704773 109.97131907 405.23607605 113.43408203 402.84619141 C115.27807591 401.64344436 115.27807591 401.64344436 116.14111328 399.54931641 C133.07407933 388.52996255 152.11408767 384.14203131 172.01611328 387.13134766 C184.43736303 389.96494526 196.3032039 394.91734886 208.14111328 399.54931641 C210.79216483 396.37145333 212.97193044 393.27519778 214.89111328 389.61181641 C217.20146098 385.28136569 219.57212647 380.99305144 222.01611328 376.73681641 C222.52223145 375.85533936 222.52223145 375.85533936 223.03857422 374.95605469 C223.72854519 373.75464355 224.41865007 372.5533093 225.10888672 371.35205078 C226.12807149 369.57209328 227.13970386 367.78806377 228.14892578 366.00244141 C231.42043254 360.22363393 234.75896268 354.50259474 238.26611328 348.86181641 C244.88361157 338.73495474 244.88361157 338.73495474 249.14111328 327.54931641 C247.03837925 325.73513274 244.93400358 323.9229136 242.82861328 322.11181641 C241.87498901 321.28919312 241.87498901 321.28919312 240.90209961 320.44995117 C237.11480136 317.19603511 233.26412789 314.06143719 229.32861328 310.98681641 C214.7687648 299.0567203 205.80943257 282.03537744 203.91796875 263.34423828 C202.65521102 245.11935866 207.35116671 227.12274606 218.48486328 212.46337891 C221.43652453 209.10832396 224.37191324 206.1438462 227.91064453 203.40869141 C228.64669922 202.79509766 229.38275391 202.18150391 230.14111328 201.54931641 C230.14111328 200.88931641 230.14111328 200.22931641 230.14111328 199.54931641 C230.94548828 199.28119141 231.74986328 199.01306641 232.57861328 198.73681641 C233.42423828 198.34494141 234.26986328 197.95306641 235.14111328 197.54931641 C235.47111328 196.55931641 235.80111328 195.56931641 236.14111328 194.54931641 C237.80466118 193.8749051 239.4717827 193.20928431 241.14111328 192.54931641 C243.24524945 190.69521063 243.24524945 190.69521063 245.14111328 188.54931641 C246.47444661 187.21598307 247.80777995 185.88264974 249.14111328 184.54931641 C247.72506268 180.76412909 245.98690263 177.35182319 243.97314453 173.85009766 C243.3343335 172.73570312 242.69552246 171.62130859 242.03735352 170.47314453 C241.34286173 169.26931755 240.64827944 168.06554277 239.95361328 166.86181641 C239.23728836 165.61522125 238.52122766 164.36847423 237.80541992 163.12158203 C235.95398753 159.89857213 234.09845876 156.67794172 232.24157715 153.45806885 C231.17115005 151.60141512 230.10172256 149.74419002 229.03271484 147.88671875 C222.43451947 136.42194871 215.81477423 124.97035118 209.14111328 113.54931641 C208.61904297 113.73518311 208.09697266 113.9210498 207.55908203 114.11254883 C179.76325635 123.98529996 154.9592918 132.60430454 126.76611328 119.29931641 C110.08928109 110.38355254 97.67929941 96.50294555 91.51611328 78.54931641 C88.3073061 66.38962602 86.35184753 53.9294282 84.14111328 41.54931641 C57.08111328 41.54931641 30.02111328 41.54931641 2.14111328 41.54931641 Z " fill="#F7F7F7" transform="translate(212.85888671875,-0.54931640625)"/>
<path d="M0 0 C18.33527478 14.95869794 30.31067572 34.0992987 36.1015625 57.01953125 C36.34648437 57.98632812 36.59140625 58.953125 36.84375 59.94921875 C41.81157635 83.97172151 37.01139413 110.25690395 24.1015625 131.01953125 C23.65554688 131.78394531 23.20953125 132.54835938 22.75 133.3359375 C20.2461576 137.54561406 20.2461576 137.54561406 19.1015625 139.01953125 C18.4415625 139.01953125 17.7815625 139.01953125 17.1015625 139.01953125 C16.76125 140.10234375 16.76125 140.10234375 16.4140625 141.20703125 C13.8195747 146.76664796 8.73561956 150.17424986 4.1015625 154.01953125 C2.9878125 155.16421875 2.9878125 155.16421875 1.8515625 156.33203125 C0.1015625 158.01953125 0.1015625 158.01953125 -1.8984375 158.01953125 C-1.8984375 158.67953125 -1.8984375 159.33953125 -1.8984375 160.01953125 C-20.58071593 175.49680597 -48.2351281 181.18441414 -71.8984375 179.01953125 C-83.08796201 177.6166841 -93.78466933 175.11177816 -103.8984375 170.01953125 C-105.51298828 169.230625 -105.51298828 169.230625 -107.16015625 168.42578125 C-114.46954295 164.69043845 -120.69247217 160.36653944 -126.8984375 155.01953125 C-127.56101563 154.50132812 -128.22359375 153.983125 -128.90625 153.44921875 C-145.04610322 140.44585522 -154.90932343 120.76636087 -159.8984375 101.01953125 C-160.14335937 100.05273438 -160.38828125 99.0859375 -160.640625 98.08984375 C-165.60845135 74.06734099 -160.80826913 47.78215855 -147.8984375 27.01953125 C-147.45242187 26.25511719 -147.00640625 25.49070313 -146.546875 24.703125 C-144.0430326 20.49344844 -144.0430326 20.49344844 -142.8984375 19.01953125 C-142.2384375 19.01953125 -141.5784375 19.01953125 -140.8984375 19.01953125 C-140.6303125 18.21515625 -140.3621875 17.41078125 -140.0859375 16.58203125 C-139.6940625 15.73640625 -139.3021875 14.89078125 -138.8984375 14.01953125 C-137.4134375 13.52453125 -137.4134375 13.52453125 -135.8984375 13.01953125 C-135.6303125 12.44203125 -135.3621875 11.86453125 -135.0859375 11.26953125 C-133.67377412 8.59385326 -131.77512313 7.11171286 -129.421875 5.2578125 C-127.70932655 3.91486607 -127.70932655 3.91486607 -125.6484375 1.70703125 C-123.8984375 0.01953125 -123.8984375 0.01953125 -121.8984375 0.01953125 C-121.8984375 -0.64046875 -121.8984375 -1.30046875 -121.8984375 -1.98046875 C-87.68939621 -30.32084125 -33.5825323 -26.27576701 0 0 Z M-95.8984375 32.01953125 C-95.8984375 32.67953125 -95.8984375 33.33953125 -95.8984375 34.01953125 C-96.4759375 34.08140625 -97.0534375 34.14328125 -97.6484375 34.20703125 C-100.80487736 35.34685675 -101.93211214 37.35547754 -103.8984375 40.01953125 C-104.3625 40.46554688 -104.8265625 40.9115625 -105.3046875 41.37109375 C-116.7147841 53.17271327 -119.41727425 68.4743191 -119.17578125 84.14453125 C-118.63332848 98.09177456 -111.83405146 110.72741059 -102.38671875 120.73046875 C-89.25036222 132.81509187 -73.98491707 136.69971776 -56.6328125 136.33203125 C-45.91669855 135.81888932 -36.96354489 131.46949561 -27.8984375 126.01953125 C-27.8984375 125.35953125 -27.8984375 124.69953125 -27.8984375 124.01953125 C-27.1971875 123.83390625 -26.4959375 123.64828125 -25.7734375 123.45703125 C-21.76335657 121.45199078 -19.64266078 118.48792456 -16.8984375 115.01953125 C-15.8775 113.90578125 -15.8775 113.90578125 -14.8359375 112.76953125 C-5.66075011 99.74668463 -3.44211708 84.55137353 -4.8984375 69.01953125 C-7.52394545 54.8684884 -15.04903861 41.68531223 -26.60546875 32.98046875 C-48.92246986 18.31055194 -73.0167126 18.26298321 -95.8984375 32.01953125 Z " fill="#F7F7F7" transform="translate(317.8984375,176.98046875)"/>
</svg>
