<?xml version="1.0" encoding="UTF-8"?>
<!DOCTYPE svg PUBLIC "-//W3C//DTD SVG 1.1//EN" "http://www.w3.org/Graphics/SVG/1.1/DTD/svg11.dtd">
<svg xmlns="http://www.w3.org/2000/svg" version="1.1" width="512px" height="512px" style="shape-rendering:geometricPrecision; text-rendering:geometricPrecision; image-rendering:optimizeQuality; fill-rule:evenodd; clip-rule:evenodd" xmlns:xlink="http://www.w3.org/1999/xlink">
<g><path style="opacity:0.994" fill="#fdfdfd" d="M 511.5,199.5 C 511.5,209.167 511.5,218.833 511.5,228.5C 509.263,237.64 504.93,245.64 498.5,252.5C 496.738,253.262 495.738,254.596 495.5,256.5C 456.257,295.743 417.257,334.743 378.5,373.5C 376.251,374.08 374.585,375.413 373.5,377.5C 363.834,386.583 352.501,389.417 339.5,386C 327.654,379.835 321.154,370.002 320,356.5C 319.5,341.17 319.333,325.837 319.5,310.5C 254.58,313.589 194.247,331.589 138.5,364.5C 137.673,363.561 137.006,363.895 136.5,365.5C 129.672,370.082 122.672,374.415 115.5,378.5C 114.5,378.833 113.833,379.5 113.5,380.5C 113.167,380.5 112.833,380.5 112.5,380.5C 111.5,380.833 110.833,381.5 110.5,382.5C 110.158,383.338 109.492,383.672 108.5,383.5C 107.5,383.833 106.833,384.5 106.5,385.5C 106.158,386.338 105.492,386.672 104.5,386.5C 103.5,386.833 102.833,387.5 102.5,388.5C 102.158,389.338 101.492,389.672 100.5,389.5C 99.5,389.833 98.8333,390.5 98.5,391.5C 98.0269,392.906 97.0269,393.573 95.5,393.5C 94.5,393.833 93.8333,394.5 93.5,395.5C 92.6935,396.728 91.6935,397.728 90.5,398.5C 88.9731,398.427 87.9731,399.094 87.5,400.5C 86.6935,401.728 85.6935,402.728 84.5,403.5C 82.5956,403.738 81.2623,404.738 80.5,406.5C 78.5,408.5 76.5,410.5 74.5,412.5C 70.8998,414.43 67.8998,417.097 65.5,420.5C 64.5,422.167 63.1667,423.5 61.5,424.5C 58.0969,426.9 55.4302,429.9 53.5,433.5C 51.5,435.5 49.5,437.5 47.5,439.5C 46.0937,439.973 45.427,440.973 45.5,442.5C 44.1667,443.833 42.8333,445.167 41.5,446.5C 40.0937,446.973 39.427,447.973 39.5,449.5C 38.7281,450.694 37.7281,451.694 36.5,452.5C 35.0937,452.973 34.427,453.973 34.5,455.5C 33.2101,457.792 31.5435,459.792 29.5,461.5C 28.0937,461.973 27.427,462.973 27.5,464.5C 17.6266,474.053 8.29328,473.387 -0.5,462.5C -0.5,447.833 -0.5,433.167 -0.5,418.5C 4.44019,375.4 17.1069,334.733 37.5,296.5C 38.9063,296.027 39.573,295.027 39.5,293.5C 39.9925,291.181 40.9925,289.181 42.5,287.5C 43.9063,287.027 44.573,286.027 44.5,284.5C 47.2536,279.322 50.2536,274.322 53.5,269.5C 55.0481,269.179 55.7148,268.179 55.5,266.5C 56.3412,265.074 57.3412,263.74 58.5,262.5C 59.5,262.167 60.1667,261.5 60.5,260.5C 60.7497,258.326 61.7497,256.659 63.5,255.5C 64.9063,255.027 65.573,254.027 65.5,252.5C 66.7899,250.208 68.4565,248.208 70.5,246.5C 71.9063,246.027 72.573,245.027 72.5,243.5C 73.1667,242.833 73.8333,242.167 74.5,241.5C 75.9063,241.027 76.573,240.027 76.5,238.5C 77.8333,237.167 79.1667,235.833 80.5,234.5C 82.2624,233.738 83.2624,232.404 83.5,230.5C 85.1394,228.194 87.1394,226.194 89.5,224.5C 95.1667,219.5 100.5,214.167 105.5,208.5C 107.682,205.93 110.016,203.597 112.5,201.5C 114.027,201.573 115.027,200.906 115.5,199.5C 116.833,198.167 118.167,196.833 119.5,195.5C 121.027,195.573 122.027,194.906 122.5,193.5C 123.29,192.599 124.29,191.932 125.5,191.5C 126.5,191.167 127.167,190.5 127.5,189.5C 128.167,188.833 128.833,188.167 129.5,187.5C 131.027,187.573 132.027,186.906 132.5,185.5C 134.951,182.723 137.951,180.723 141.5,179.5C 142.5,179.167 143.167,178.5 143.5,177.5C 147.368,174.067 151.701,171.4 156.5,169.5C 157.5,169.167 158.167,168.5 158.5,167.5C 159.5,166.833 160.5,166.167 161.5,165.5C 162.327,166.439 162.994,166.105 163.5,164.5C 164.167,164.167 164.833,163.833 165.5,163.5C 167.027,163.573 168.027,162.906 168.5,161.5C 212.784,136.073 260.451,121.74 311.5,118.5C 314.5,118.5 317.5,118.5 320.5,118.5C 320.5,102.5 320.5,86.5 320.5,70.5C 320.682,63.2795 323.015,56.9461 327.5,51.5C 328.906,51.0269 329.573,50.0269 329.5,48.5C 338.407,40.0178 348.74,37.8511 360.5,42C 366.705,44.8789 372.372,48.5455 377.5,53C 417,92.5 456.5,132 496,171.5C 503.18,179.814 508.346,189.148 511.5,199.5 Z"/></g>
<g><path style="opacity:0.024" fill="#242424" d="M 329.5,48.5 C 329.573,50.0269 328.906,51.0269 327.5,51.5C 327.427,49.9731 328.094,48.9731 329.5,48.5 Z"/></g>
<g><path style="opacity:0.039" fill="#333333" d="M 320.5,70.5 C 320.5,86.5 320.5,102.5 320.5,118.5C 317.5,118.5 314.5,118.5 311.5,118.5C 313.948,117.527 316.615,117.194 319.5,117.5C 319.17,101.658 319.504,85.9911 320.5,70.5 Z"/></g>
<g><path style="opacity:0.039" fill="#3e3e3e" d="M 168.5,161.5 C 168.027,162.906 167.027,163.573 165.5,163.5C 165.973,162.094 166.973,161.427 168.5,161.5 Z"/></g>
<g><path style="opacity:0.039" fill="#2a2a2a" d="M 163.5,164.5 C 162.994,166.105 162.327,166.439 161.5,165.5C 161.842,164.662 162.508,164.328 163.5,164.5 Z"/></g>
<g><path style="opacity:0.031" fill="#353535" d="M 158.5,167.5 C 158.167,168.5 157.5,169.167 156.5,169.5C 156.5,168.167 157.167,167.5 158.5,167.5 Z"/></g>
<g><path style="opacity:0.035" fill="#2d2d2d" d="M 143.5,177.5 C 143.167,178.5 142.5,179.167 141.5,179.5C 141.5,178.167 142.167,177.5 143.5,177.5 Z"/></g>
<g><path style="opacity:0.027" fill="#2f2f2f" d="M 132.5,185.5 C 132.027,186.906 131.027,187.573 129.5,187.5C 129.973,186.094 130.973,185.427 132.5,185.5 Z"/></g>
<g><path style="opacity:0.039" fill="#404040" d="M 127.5,189.5 C 127.167,190.5 126.5,191.167 125.5,191.5C 125.5,190.167 126.167,189.5 127.5,189.5 Z"/></g>
<g><path style="opacity:0.027" fill="#2f2f2f" d="M 122.5,193.5 C 122.027,194.906 121.027,195.573 119.5,195.5C 119.973,194.094 120.973,193.427 122.5,193.5 Z"/></g>
<g><path style="opacity:0.035" fill="#373737" d="M 115.5,199.5 C 115.027,200.906 114.027,201.573 112.5,201.5C 112.973,200.094 113.973,199.427 115.5,199.5 Z"/></g>
<g><path style="opacity:0.031" fill="#2e2e2e" d="M 105.5,208.5 C 100.5,214.167 95.1667,219.5 89.5,224.5C 93.8333,218.167 99.1667,212.833 105.5,208.5 Z"/></g>
<g><path style="opacity:0.02" fill="#272727" d="M 83.5,230.5 C 83.2624,232.404 82.2624,233.738 80.5,234.5C 80.7376,232.596 81.7376,231.262 83.5,230.5 Z"/></g>
<g><path style="opacity:0.031" fill="#282828" d="M 76.5,238.5 C 76.573,240.027 75.9063,241.027 74.5,241.5C 74.427,239.973 75.0937,238.973 76.5,238.5 Z"/></g>
<g><path style="opacity:0.039" fill="#1f1f1f" d="M 72.5,243.5 C 72.573,245.027 71.9063,246.027 70.5,246.5C 70.427,244.973 71.0937,243.973 72.5,243.5 Z"/></g>
<g><path style="opacity:0.035" fill="#252525" d="M 65.5,252.5 C 65.573,254.027 64.9063,255.027 63.5,255.5C 63.427,253.973 64.0937,252.973 65.5,252.5 Z"/></g>
<g><path style="opacity:0.004" fill="#181818" d="M 498.5,252.5 C 498.262,254.404 497.262,255.738 495.5,256.5C 495.738,254.596 496.738,253.262 498.5,252.5 Z"/></g>
<g><path style="opacity:0.047" fill="#262626" d="M 60.5,260.5 C 60.1667,261.5 59.5,262.167 58.5,262.5C 58.5,261.167 59.1667,260.5 60.5,260.5 Z"/></g>
<g><path style="opacity:0.176" fill="#6e6e6e" d="M 55.5,266.5 C 55.7148,268.179 55.0481,269.179 53.5,269.5C 53.9321,268.29 54.5987,267.29 55.5,266.5 Z"/></g>
<g><path style="opacity:0.047" fill="#242424" d="M 44.5,284.5 C 44.573,286.027 43.9063,287.027 42.5,287.5C 42.427,285.973 43.0937,284.973 44.5,284.5 Z"/></g>
<g><path style="opacity:0.055" fill="#242424" d="M 39.5,293.5 C 39.573,295.027 38.9063,296.027 37.5,296.5C 37.427,294.973 38.0937,293.973 39.5,293.5 Z"/></g>
<g><path style="opacity:0.004" fill="#1f1f1f" d="M 138.5,364.5 C 138.158,365.338 137.492,365.672 136.5,365.5C 137.006,363.895 137.673,363.561 138.5,364.5 Z"/></g>
<g><path style="opacity:0.004" fill="#191919" d="M 378.5,373.5 C 377.415,375.587 375.749,376.92 373.5,377.5C 374.585,375.413 376.251,374.08 378.5,373.5 Z"/></g>
<g><path style="opacity:0.004" fill="#222222" d="M 115.5,378.5 C 115.5,379.833 114.833,380.5 113.5,380.5C 113.833,379.5 114.5,378.833 115.5,378.5 Z"/></g>
<g><path style="opacity:0.004" fill="#262626" d="M 112.5,380.5 C 112.5,381.833 111.833,382.5 110.5,382.5C 110.833,381.5 111.5,380.833 112.5,380.5 Z"/></g>
<g><path style="opacity:0.004" fill="#212121" d="M 108.5,383.5 C 108.5,384.833 107.833,385.5 106.5,385.5C 106.833,384.5 107.5,383.833 108.5,383.5 Z"/></g>
<g><path style="opacity:0.004" fill="#222222" d="M 104.5,386.5 C 104.5,387.833 103.833,388.5 102.5,388.5C 102.833,387.5 103.5,386.833 104.5,386.5 Z"/></g>
<g><path style="opacity:0.004" fill="#2c2c2c" d="M 100.5,389.5 C 100.5,390.833 99.8333,391.5 98.5,391.5C 98.8333,390.5 99.5,389.833 100.5,389.5 Z"/></g>
<g><path style="opacity:0.004" fill="#1f1f1f" d="M 95.5,393.5 C 95.5,394.833 94.8333,395.5 93.5,395.5C 93.8333,394.5 94.5,393.833 95.5,393.5 Z"/></g>
<g><path style="opacity:0.004" fill="#191919" d="M 90.5,398.5 C 90.0269,399.906 89.0269,400.573 87.5,400.5C 87.9731,399.094 88.9731,398.427 90.5,398.5 Z"/></g>
<g><path style="opacity:0.004" fill="#191919" d="M 84.5,403.5 C 83.7377,405.262 82.4044,406.262 80.5,406.5C 81.2623,404.738 82.5956,403.738 84.5,403.5 Z"/></g>
<g><path style="opacity:0.004" fill="#1b1b1b" d="M 74.5,412.5 C 72.1002,415.903 69.1002,418.57 65.5,420.5C 67.8998,417.097 70.8998,414.43 74.5,412.5 Z"/></g>
<g><path style="opacity:0.004" fill="#191919" d="M 61.5,424.5 C 59.5698,428.1 56.9031,431.1 53.5,433.5C 55.4302,429.9 58.0969,426.9 61.5,424.5 Z"/></g>
<g><path style="opacity:0.004" fill="#1f1f1f" d="M 47.5,439.5 C 47.573,441.027 46.9063,442.027 45.5,442.5C 45.427,440.973 46.0937,439.973 47.5,439.5 Z"/></g>
<g><path style="opacity:0.004" fill="#222222" d="M 41.5,446.5 C 41.573,448.027 40.9063,449.027 39.5,449.5C 39.427,447.973 40.0937,446.973 41.5,446.5 Z"/></g>
<g><path style="opacity:0.004" fill="#1b1b1b" d="M 36.5,452.5 C 36.573,454.027 35.9063,455.027 34.5,455.5C 34.427,453.973 35.0937,452.973 36.5,452.5 Z"/></g>
<g><path style="opacity:0.004" fill="#202020" d="M 29.5,461.5 C 29.573,463.027 28.9063,464.027 27.5,464.5C 27.427,462.973 28.0937,461.973 29.5,461.5 Z"/></g>
</svg>
