<?xml version="1.0" encoding="UTF-8"?>
<!DOCTYPE svg PUBLIC "-//W3C//DTD SVG 1.1//EN" "http://www.w3.org/Graphics/SVG/1.1/DTD/svg11.dtd">
<svg xmlns="http://www.w3.org/2000/svg" version="1.1" width="512px" height="512px" style="shape-rendering:geometricPrecision; text-rendering:geometricPrecision; image-rendering:optimizeQuality; fill-rule:evenodd; clip-rule:evenodd" xmlns:xlink="http://www.w3.org/1999/xlink">
<g><path style="opacity:0.999" fill="#f7f986" d="M 376.5,52.5 C 376.343,53.8734 376.51,55.2068 377,56.5C 415.5,95 454,133.5 492.5,172C 493.793,172.49 495.127,172.657 496.5,172.5C 503.684,180.335 508.684,189.335 511.5,199.5C 511.5,209.167 511.5,218.833 511.5,228.5C 509.263,237.64 504.93,245.64 498.5,252.5C 496.738,253.262 495.738,254.596 495.5,256.5C 456.779,295.887 417.779,334.887 378.5,373.5C 376.251,374.08 374.585,375.413 373.5,377.5C 363.834,386.583 352.501,389.417 339.5,386C 327.654,379.835 321.154,370.002 320,356.5C 319.5,341.17 319.333,325.837 319.5,310.5C 294.598,312.057 269.932,315.391 245.5,320.5C 242.612,319.99 240.279,320.656 238.5,322.5C 216.936,328.243 195.936,335.577 175.5,344.5C 173.847,344.66 172.514,345.326 171.5,346.5C 160.9,352.136 150.233,357.802 139.5,363.5C 137.973,363.427 136.973,364.094 136.5,365.5C 128.49,370.515 120.49,375.515 112.5,380.5C 111.5,380.833 110.833,381.5 110.5,382.5C 110.158,383.338 109.492,383.672 108.5,383.5C 107.5,383.833 106.833,384.5 106.5,385.5C 106.158,386.338 105.492,386.672 104.5,386.5C 103.5,386.833 102.833,387.5 102.5,388.5C 100.704,390.9 98.3702,392.567 95.5,393.5C 94.5,393.833 93.8333,394.5 93.5,395.5C 92.6935,396.728 91.6935,397.728 90.5,398.5C 88.9731,398.427 87.9731,399.094 87.5,400.5C 86.6935,401.728 85.6935,402.728 84.5,403.5C 82.5956,403.738 81.2623,404.738 80.5,406.5C 78.5,408.5 76.5,410.5 74.5,412.5C 70.8998,414.43 67.8998,417.097 65.5,420.5C 64.5,422.167 63.1667,423.5 61.5,424.5C 58.0969,426.9 55.4302,429.9 53.5,433.5C 51.8606,435.806 49.8606,437.806 47.5,439.5C 46.0937,439.973 45.427,440.973 45.5,442.5C 44.1667,443.833 42.8333,445.167 41.5,446.5C 40.0937,446.973 39.427,447.973 39.5,449.5C 38.7281,450.694 37.7281,451.694 36.5,452.5C 35.0937,452.973 34.427,453.973 34.5,455.5C 33.2101,457.792 31.5435,459.792 29.5,461.5C 28.0937,461.973 27.427,462.973 27.5,464.5C 26.4613,466.531 24.7946,467.864 22.5,468.5C 16.773,468.74 11.1064,468.407 5.5,467.5C 3.29113,466.08 1.29113,464.413 -0.5,462.5C -0.5,447.833 -0.5,433.167 -0.5,418.5C 1.66065,401.697 4.99398,385.03 9.5,368.5C 11.1628,366.562 11.8294,364.228 11.5,361.5C 11.8993,357.884 12.8993,354.55 14.5,351.5C 16.3079,350.082 16.9746,348.082 16.5,345.5C 22.3696,326.438 30.3696,308.438 40.5,291.5C 42.9305,289.954 44.2639,287.621 44.5,284.5C 44.8333,283.833 45.1667,283.167 45.5,282.5C 46.9063,282.027 47.573,281.027 47.5,279.5C 47.9321,278.29 48.5987,277.29 49.5,276.5C 51.4077,275.514 52.4077,273.848 52.5,271.5C 55.7189,265.838 59.3855,260.505 63.5,255.5C 64.9063,255.027 65.573,254.027 65.5,252.5C 66.7899,250.208 68.4565,248.208 70.5,246.5C 71.9063,246.027 72.573,245.027 72.5,243.5C 73.1667,242.833 73.8333,242.167 74.5,241.5C 76.2624,240.738 77.2624,239.404 77.5,237.5C 78.2719,236.306 79.2719,235.306 80.5,234.5C 82.2624,233.738 83.2624,232.404 83.5,230.5C 85.1394,228.194 87.1394,226.194 89.5,224.5C 95.1667,219.5 100.5,214.167 105.5,208.5C 109.539,203.46 114.206,199.127 119.5,195.5C 121.027,195.573 122.027,194.906 122.5,193.5C 124.514,191.155 126.847,189.155 129.5,187.5C 131.027,187.573 132.027,186.906 132.5,185.5C 142.67,176.915 153.67,169.582 165.5,163.5C 167.027,163.573 168.027,162.906 168.5,161.5C 181.324,154.088 194.657,147.755 208.5,142.5C 211.813,141.955 215.146,141.455 218.5,141C 220.576,139.801 222.242,138.301 223.5,136.5C 252.318,126.203 281.984,119.87 312.5,117.5C 314.948,118.473 317.615,118.806 320.5,118.5C 320.5,102.5 320.5,86.5 320.5,70.5C 320.308,66.0981 321.308,62.0981 323.5,58.5C 326.472,55.9133 328.472,52.58 329.5,48.5C 341.664,37.5984 354.664,36.7651 368.5,46C 371.331,48.0007 373.997,50.1673 376.5,52.5 Z M 480.5,215.5 C 479.606,219.858 478.272,224.191 476.5,228.5C 475.094,228.973 474.427,229.973 474.5,231.5C 434.5,272.167 394.167,312.5 353.5,352.5C 352.833,332.167 352.167,311.833 351.5,291.5C 348.509,281.152 341.509,276.485 330.5,277.5C 299.335,278.073 268.668,282.073 238.5,289.5C 234.603,290.055 230.937,291.055 227.5,292.5C 220.267,293.725 213.267,295.725 206.5,298.5C 199.861,300.266 193.527,302.599 187.5,305.5C 146.895,320.622 109.895,341.622 76.5,368.5C 74.9731,368.427 73.9731,369.094 73.5,370.5C 70.177,372.824 67.177,375.491 64.5,378.5C 62.9731,378.427 61.9731,379.094 61.5,380.5C 59.6397,381.939 57.973,383.605 56.5,385.5C 54.2512,386.08 52.5846,387.413 51.5,389.5C 46.2286,394.269 41.062,399.269 36,404.5C 37.0229,394.064 38.8562,383.73 41.5,373.5C 42.6118,371.401 43.2785,369.067 43.5,366.5C 46.2042,360.059 48.5375,353.392 50.5,346.5C 51.871,344.064 52.871,341.397 53.5,338.5C 59.289,325.589 65.6223,312.922 72.5,300.5C 73.9063,300.027 74.573,299.027 74.5,297.5C 75.956,295.716 76.956,293.716 77.5,291.5C 78.8333,291.5 79.5,290.833 79.5,289.5C 84.5322,282.477 89.5322,275.477 94.5,268.5C 95.9063,268.027 96.573,267.027 96.5,265.5C 97.1667,264.833 97.8333,264.167 98.5,263.5C 99.9063,263.027 100.573,262.027 100.5,260.5C 101.728,259.694 102.728,258.694 103.5,257.5C 104.906,257.027 105.573,256.027 105.5,254.5C 107.509,252.457 109.509,250.457 111.5,248.5C 113.587,247.415 114.92,245.749 115.5,243.5C 117.833,241.833 119.833,239.833 121.5,237.5C 122.833,237.5 123.5,236.833 123.5,235.5C 126.089,234.581 128.089,232.914 129.5,230.5C 131.806,228.861 133.806,226.861 135.5,224.5C 137.027,224.573 138.027,223.906 138.5,222.5C 139.694,221.728 140.694,220.728 141.5,219.5C 143.027,219.573 144.027,218.906 144.5,217.5C 145.167,216.833 145.833,216.167 146.5,215.5C 147.833,215.5 148.5,214.833 148.5,213.5C 152.115,211.549 155.448,209.215 158.5,206.5C 159.833,206.5 160.5,205.833 160.5,204.5C 173.29,196.6 186.29,188.933 199.5,181.5C 201.38,181.771 202.713,181.104 203.5,179.5C 220.129,172.179 237.129,165.846 254.5,160.5C 258.397,159.945 262.063,158.945 265.5,157.5C 290.241,152.559 315.241,149.726 340.5,149C 346.74,147.092 350.573,142.925 352,136.5C 352.333,115.833 352.667,95.1667 353,74.5C 393.333,114.833 433.667,155.167 474,195.5C 478.265,201.464 480.432,208.13 480.5,215.5 Z"/></g>
<g><path style="opacity:0.545" fill="#8f8f58" d="M 329.5,48.5 C 328.472,52.58 326.472,55.9133 323.5,58.5C 325,54.827 327,51.4937 329.5,48.5 Z"/></g>
<g><path style="opacity:0.925" fill="#c7c874" d="M 376.5,52.5 C 416.833,92.1667 456.833,132.167 496.5,172.5C 495.127,172.657 493.793,172.49 492.5,172C 454,133.5 415.5,95 377,56.5C 376.51,55.2068 376.343,53.8734 376.5,52.5 Z"/></g>
<g><path style="opacity:0.039" fill="#32321b" d="M 320.5,70.5 C 320.5,86.5 320.5,102.5 320.5,118.5C 317.615,118.806 314.948,118.473 312.5,117.5C 314.833,117.5 317.167,117.5 319.5,117.5C 319.17,101.658 319.504,85.9911 320.5,70.5 Z"/></g>
<g><path style="opacity:0.95" fill="#c4c471" d="M 223.5,136.5 C 222.242,138.301 220.576,139.801 218.5,141C 215.146,141.455 211.813,141.955 208.5,142.5C 213.105,139.738 218.105,137.738 223.5,136.5 Z"/></g>
<g><path style="opacity:0.602" fill="#9d9d66" d="M 265.5,157.5 C 262.063,158.945 258.397,159.945 254.5,160.5C 254.62,159.414 255.287,158.747 256.5,158.5C 259.449,157.698 262.449,157.364 265.5,157.5 Z"/></g>
<g><path style="opacity:0.039" fill="#3e3e3e" d="M 168.5,161.5 C 168.027,162.906 167.027,163.573 165.5,163.5C 165.973,162.094 166.973,161.427 168.5,161.5 Z"/></g>
<g><path style="opacity:0.016" fill="#343434" d="M 203.5,179.5 C 202.713,181.104 201.38,181.771 199.5,181.5C 200.514,180.326 201.847,179.66 203.5,179.5 Z"/></g>
<g><path style="opacity:0.027" fill="#302f20" d="M 132.5,185.5 C 132.027,186.906 131.027,187.573 129.5,187.5C 129.973,186.094 130.973,185.427 132.5,185.5 Z"/></g>
<g><path style="opacity:0.027" fill="#302f20" d="M 122.5,193.5 C 122.027,194.906 121.027,195.573 119.5,195.5C 119.973,194.094 120.973,193.427 122.5,193.5 Z"/></g>
<g><path style="opacity:0.004" fill="#1c1c1c" d="M 160.5,204.5 C 160.5,205.833 159.833,206.5 158.5,206.5C 158.833,205.5 159.5,204.833 160.5,204.5 Z"/></g>
<g><path style="opacity:0.004" fill="#23221b" d="M 148.5,213.5 C 148.5,214.833 147.833,215.5 146.5,215.5C 146.833,214.5 147.5,213.833 148.5,213.5 Z"/></g>
<g><path style="opacity:0.039" fill="#313018" d="M 105.5,208.5 C 100.5,214.167 95.1667,219.5 89.5,224.5C 93.8333,218.167 99.1667,212.833 105.5,208.5 Z"/></g>
<g><path style="opacity:0.004" fill="#212014" d="M 144.5,217.5 C 144.027,218.906 143.027,219.573 141.5,219.5C 141.973,218.094 142.973,217.427 144.5,217.5 Z"/></g>
<g><path style="opacity:0.004" fill="#212014" d="M 138.5,222.5 C 138.027,223.906 137.027,224.573 135.5,224.5C 135.973,223.094 136.973,222.427 138.5,222.5 Z"/></g>
<g><path style="opacity:0.561" fill="#999958" d="M 480.5,215.5 C 480.665,218.518 480.498,221.518 480,224.5C 479.502,226.544 478.335,227.878 476.5,228.5C 478.272,224.191 479.606,219.858 480.5,215.5 Z"/></g>
<g><path style="opacity:0.027" fill="#434343" d="M 476.5,228.5 C 476.573,230.027 475.906,231.027 474.5,231.5C 474.427,229.973 475.094,228.973 476.5,228.5 Z"/></g>
<g><path style="opacity:0.047" fill="#272717" d="M 83.5,230.5 C 83.2624,232.404 82.2624,233.738 80.5,234.5C 80.7376,232.596 81.7376,231.262 83.5,230.5 Z"/></g>
<g><path style="opacity:0.004" fill="#171714" d="M 129.5,230.5 C 128.089,232.914 126.089,234.581 123.5,235.5C 124.911,233.086 126.911,231.419 129.5,230.5 Z"/></g>
<g><path style="opacity:0.004" fill="#1c1c1c" d="M 123.5,235.5 C 123.5,236.833 122.833,237.5 121.5,237.5C 121.833,236.5 122.5,235.833 123.5,235.5 Z"/></g>
<g><path style="opacity:0.031" fill="#44433a" d="M 77.5,237.5 C 77.2624,239.404 76.2624,240.738 74.5,241.5C 74.7376,239.596 75.7376,238.262 77.5,237.5 Z"/></g>
<g><path style="opacity:0.024" fill="#20201b" d="M 72.5,243.5 C 72.573,245.027 71.9063,246.027 70.5,246.5C 70.427,244.973 71.0937,243.973 72.5,243.5 Z"/></g>
<g><path style="opacity:0.004" fill="#1b1a18" d="M 115.5,243.5 C 114.92,245.749 113.587,247.415 111.5,248.5C 112.08,246.251 113.413,244.585 115.5,243.5 Z"/></g>
<g><path style="opacity:0.035" fill="#26251a" d="M 65.5,252.5 C 65.573,254.027 64.9063,255.027 63.5,255.5C 63.427,253.973 64.0937,252.973 65.5,252.5 Z"/></g>
<g><path style="opacity:0.004" fill="#181815" d="M 498.5,252.5 C 498.262,254.404 497.262,255.738 495.5,256.5C 495.738,254.596 496.738,253.262 498.5,252.5 Z"/></g>
<g><path style="opacity:0.004" fill="#1e1e17" d="M 105.5,254.5 C 105.573,256.027 104.906,257.027 103.5,257.5C 103.427,255.973 104.094,254.973 105.5,254.5 Z"/></g>
<g><path style="opacity:0.004" fill="#24231b" d="M 100.5,260.5 C 100.573,262.027 99.9063,263.027 98.5,263.5C 98.427,261.973 99.0937,260.973 100.5,260.5 Z"/></g>
<g><path style="opacity:0.004" fill="#212118" d="M 96.5,265.5 C 96.573,267.027 95.9063,268.027 94.5,268.5C 94.427,266.973 95.0937,265.973 96.5,265.5 Z"/></g>
<g><path style="opacity:0.667" fill="#89885b" d="M 52.5,271.5 C 52.4077,273.848 51.4077,275.514 49.5,276.5C 49.7497,274.326 50.7497,272.659 52.5,271.5 Z"/></g>
<g><path style="opacity:0.02" fill="#4a4a4a" d="M 47.5,279.5 C 47.573,281.027 46.9063,282.027 45.5,282.5C 45.427,280.973 46.0937,279.973 47.5,279.5 Z"/></g>
<g><path style="opacity:0.573" fill="#8b8b54" d="M 44.5,284.5 C 44.2639,287.621 42.9305,289.954 40.5,291.5C 41.4676,288.9 42.8009,286.566 44.5,284.5 Z"/></g>
<g><path style="opacity:0.004" fill="#232323" d="M 79.5,289.5 C 79.5,290.833 78.8333,291.5 77.5,291.5C 77.8333,290.5 78.5,289.833 79.5,289.5 Z"/></g>
<g><path style="opacity:0.369" fill="#95955b" d="M 238.5,289.5 C 235.373,292.055 231.706,293.055 227.5,292.5C 230.937,291.055 234.603,290.055 238.5,289.5 Z"/></g>
<g><path style="opacity:0.02" fill="#313204" d="M 351.5,291.5 C 352.167,311.833 352.833,332.167 353.5,352.5C 353.217,353.289 352.717,353.956 352,354.5C 351.5,333.503 351.333,312.503 351.5,291.5 Z"/></g>
<g><path style="opacity:0.004" fill="#1c1c1c" d="M 74.5,297.5 C 74.573,299.027 73.9063,300.027 72.5,300.5C 72.427,298.973 73.0937,297.973 74.5,297.5 Z"/></g>
<g><path style="opacity:0.306" fill="#c2c274" d="M 206.5,298.5 C 206.5,299.5 206.5,300.5 206.5,301.5C 201.644,301.23 197.311,302.564 193.5,305.5C 191.674,305.08 189.674,305.08 187.5,305.5C 193.527,302.599 199.861,300.266 206.5,298.5 Z"/></g>
<g><path style="opacity:0.661" fill="#939260" d="M 245.5,320.5 C 243.401,321.612 241.067,322.279 238.5,322.5C 240.279,320.656 242.612,319.99 245.5,320.5 Z"/></g>
<g><path style="opacity:0.948" fill="#a0a558" d="M 53.5,338.5 C 52.871,341.397 51.871,344.064 50.5,346.5C 48.5138,342.659 49.5138,339.992 53.5,338.5 Z"/></g>
<g><path style="opacity:0.016" fill="#343434" d="M 175.5,344.5 C 174.713,346.104 173.38,346.771 171.5,346.5C 172.514,345.326 173.847,344.66 175.5,344.5 Z"/></g>
<g><path style="opacity:0.58" fill="#838346" d="M 16.5,345.5 C 16.9746,348.082 16.3079,350.082 14.5,351.5C 14.595,349.214 15.2616,347.214 16.5,345.5 Z"/></g>
<g><path style="opacity:0.004" fill="#181818" d="M 139.5,363.5 C 139.027,364.906 138.027,365.573 136.5,365.5C 136.973,364.094 137.973,363.427 139.5,363.5 Z"/></g>
<g><path style="opacity:0.224" fill="#7c7b4c" d="M 11.5,361.5 C 11.8294,364.228 11.1628,366.562 9.5,368.5C 9.72148,365.933 10.3882,363.599 11.5,361.5 Z"/></g>
<g><path style="opacity:0.382" fill="#8d8d54" d="M 43.5,366.5 C 43.2785,369.067 42.6118,371.401 41.5,373.5C 40.9898,370.612 41.6565,368.279 43.5,366.5 Z"/></g>
<g><path style="opacity:0.031" fill="#2c2c1e" d="M 76.5,368.5 C 76.0269,369.906 75.0269,370.573 73.5,370.5C 73.9731,369.094 74.9731,368.427 76.5,368.5 Z"/></g>
<g><path style="opacity:0.004" fill="#191811" d="M 378.5,373.5 C 377.415,375.587 375.749,376.92 373.5,377.5C 374.585,375.413 376.251,374.08 378.5,373.5 Z"/></g>
<g><path style="opacity:0.035" fill="#393919" d="M 64.5,378.5 C 64.0269,379.906 63.0269,380.573 61.5,380.5C 61.9731,379.094 62.9731,378.427 64.5,378.5 Z"/></g>
<g><path style="opacity:0.004" fill="#27261c" d="M 112.5,380.5 C 112.5,381.833 111.833,382.5 110.5,382.5C 110.833,381.5 111.5,380.833 112.5,380.5 Z"/></g>
<g><path style="opacity:0.004" fill="#212121" d="M 108.5,383.5 C 108.5,384.833 107.833,385.5 106.5,385.5C 106.833,384.5 107.5,383.833 108.5,383.5 Z"/></g>
<g><path style="opacity:0.031" fill="#2b2b1a" d="M 56.5,385.5 C 55.4154,387.587 53.7488,388.92 51.5,389.5C 52.5846,387.413 54.2512,386.08 56.5,385.5 Z"/></g>
<g><path style="opacity:0.004" fill="#23221b" d="M 104.5,386.5 C 104.5,387.833 103.833,388.5 102.5,388.5C 102.833,387.5 103.5,386.833 104.5,386.5 Z"/></g>
<g><path style="opacity:0.004" fill="#201f18" d="M 95.5,393.5 C 95.5,394.833 94.8333,395.5 93.5,395.5C 93.8333,394.5 94.5,393.833 95.5,393.5 Z"/></g>
<g><path style="opacity:0.004" fill="#191916" d="M 90.5,398.5 C 90.0269,399.906 89.0269,400.573 87.5,400.5C 87.9731,399.094 88.9731,398.427 90.5,398.5 Z"/></g>
<g><path style="opacity:0.004" fill="#191812" d="M 84.5,403.5 C 83.7377,405.262 82.4044,406.262 80.5,406.5C 81.2623,404.738 82.5956,403.738 84.5,403.5 Z"/></g>
<g><path style="opacity:0.004" fill="#1b1a13" d="M 74.5,412.5 C 72.1002,415.903 69.1002,418.57 65.5,420.5C 67.8998,417.097 70.8998,414.43 74.5,412.5 Z"/></g>
<g><path style="opacity:0.004" fill="#1a1912" d="M 61.5,424.5 C 59.5698,428.1 56.9031,431.1 53.5,433.5C 55.4302,429.9 58.0969,426.9 61.5,424.5 Z"/></g>
<g><path style="opacity:0.004" fill="#1f1f18" d="M 47.5,439.5 C 47.573,441.027 46.9063,442.027 45.5,442.5C 45.427,440.973 46.0937,439.973 47.5,439.5 Z"/></g>
<g><path style="opacity:0.004" fill="#22221a" d="M 41.5,446.5 C 41.573,448.027 40.9063,449.027 39.5,449.5C 39.427,447.973 40.0937,446.973 41.5,446.5 Z"/></g>
<g><path style="opacity:0.004" fill="#1b1b15" d="M 36.5,452.5 C 36.573,454.027 35.9063,455.027 34.5,455.5C 34.427,453.973 35.0937,452.973 36.5,452.5 Z"/></g>
<g><path style="opacity:0.004" fill="#202018" d="M 29.5,461.5 C 29.573,463.027 28.9063,464.027 27.5,464.5C 27.427,462.973 28.0937,461.973 29.5,461.5 Z"/></g>
<g><path style="opacity:0.948" fill="#b3b36a" d="M 5.5,467.5 C 11.1064,468.407 16.773,468.74 22.5,468.5C 16.5797,472.604 10.913,472.271 5.5,467.5 Z"/></g>
</svg>
