<?xml version="1.0" encoding="UTF-8"?>
<svg version="1.1" xmlns="http://www.w3.org/2000/svg" width="512" height="512">
<path d="M0 0 C2.09996146 1.63371001 4.13072842 3.27350891 6.14445496 5.00537109 C6.98858579 5.72654397 6.98858579 5.72654397 7.84976977 6.462286 C13.75736968 11.56613759 19.3028601 17.01353569 24.8137207 22.5390625 C25.92539773 23.64637625 27.03748657 24.75327667 28.14994812 25.85980225 C31.12954002 28.82617363 34.10287352 31.79873922 37.0745852 34.77300262 C39.57026648 37.26976421 42.06894177 39.76351935 44.56754464 42.25735664 C50.46540892 48.14418671 56.35800586 54.03625223 62.24731445 59.93164062 C68.29681047 65.98718599 74.35545272 72.03346917 80.4185937 78.07534981 C85.65325864 83.29234212 90.88203701 88.51518424 96.10624951 93.74264336 C99.21388647 96.8520826 102.32364327 99.95931905 105.43917274 103.06085205 C108.36727752 105.97628855 111.28789896 108.89902828 114.20318794 111.82727814 C115.26635478 112.89278995 116.33201966 113.95581679 117.40051651 115.01598358 C131.43449988 128.94851459 142.09826836 142.94341202 142.43164062 163.21728516 C142.46715689 186.52483409 136.59532384 199.76069192 120.17195129 216.2346344 C119.03478908 217.36596664 117.89747009 218.49714131 116.76000977 219.62817383 C115.54130211 220.85095618 114.32323147 222.07437369 113.10574341 223.29837036 C109.8254786 226.59220487 106.53592483 229.87660774 103.24409604 233.15888047 C99.78581131 236.60951807 96.33491074 240.06752841 92.88279724 243.52433777 C87.08894727 249.3236292 81.28883801 255.1166038 75.48510742 260.90600586 C68.79021536 267.58455915 62.10621939 274.27387139 55.42774922 280.96884328 C49.67421848 286.73601646 43.91482662 292.49728739 38.15055317 298.25372332 C34.71610568 301.68351144 31.28367523 305.11525225 27.85653877 308.55234718 C24.63506211 311.78253201 21.40625403 315.00520955 18.17180252 318.22240067 C16.99096991 319.39928961 15.81263975 320.57869596 14.63710976 321.76088142 C4.31214766 332.1388679 -5.1894372 340.82071936 -20.4375 341.5 C-28.82468336 341.26511972 -34.97452133 338.45124577 -40.8125 332.4375 C-48.71778377 322.58860037 -50.16204283 311.51742208 -50.09765625 299.3515625 C-50.09553383 297.83276993 -50.09553383 297.83276993 -50.09336853 296.28329468 C-50.08779143 293.06383249 -50.07524312 289.84444101 -50.0625 286.625 C-50.05748204 284.43619892 -50.05291965 282.24739675 -50.04882812 280.05859375 C-50.0378295 274.70570523 -50.0211142 269.35285767 -50 264 C-50.66 264.33 -51.32 264.66 -52 265 C-53.58201922 265.16359392 -55.16961984 265.27457002 -56.7578125 265.359375 C-101.8736116 268.10290332 -145.37987094 278.31373429 -187 296 C-187.88381348 296.37237793 -188.76762695 296.74475586 -189.67822266 297.12841797 C-234.88880542 316.3146752 -274.63892236 345.68191062 -309.3125 380.1875 C-310.29923706 381.16722778 -310.29923706 381.16722778 -311.3059082 382.16674805 C-318.34584414 389.22980948 -324.73211485 396.80258815 -331.0625 404.5 C-331.64837891 405.20769531 -332.23425781 405.91539062 -332.83789062 406.64453125 C-336.25594773 410.79475819 -339.54193366 415.00731966 -342.69946289 419.35961914 C-345.59384814 423.01033709 -348.4184048 423.86867205 -352.875 424.875 C-357.23781422 425.26937869 -360.16745713 424.16936389 -364 422 C-366.875 419.375 -366.875 419.375 -369 417 C-369.33 416.67 -369.66 416.34 -370 416 C-370.13937101 413.06763392 -370.2127694 410.16071318 -370.23828125 407.2265625 C-370.2480751 406.32435974 -370.25786896 405.42215698 -370.26795959 404.49261475 C-370.44148979 384.2922747 -370.17425917 364.84587316 -366 345 C-365.78037598 343.92202148 -365.56075195 342.84404297 -365.33447266 341.73339844 C-358.33737276 307.91160629 -346.33798325 276.87851366 -331 246 C-330.34 246 -329.68 246 -329 246 C-328.34 243.69 -327.68 241.38 -327 239 C-326.34 239 -325.68 239 -325 239 C-324.67 237.35 -324.34 235.7 -324 234 C-323.34 234 -322.68 234 -322 234 C-321.67 232.35 -321.34 230.7 -321 229 C-320.34 229 -319.68 229 -319 229 C-319 228.01 -319 227.02 -319 226 C-318.34 226 -317.68 226 -317 226 C-317 225.01 -317 224.02 -317 223 C-316.34 223 -315.68 223 -315 223 C-315 222.01 -315 221.02 -315 220 C-314.34 220 -313.68 220 -313 220 C-313 219.01 -313 218.02 -313 217 C-312.34 217 -311.68 217 -311 217 C-310.87625 216.401875 -310.7525 215.80375 -310.625 215.1875 C-310 213 -310 213 -308 210 C-307.34 210 -306.68 210 -306 210 C-305.67 208.68 -305.34 207.36 -305 206 C-304.34 206 -303.68 206 -303 206 C-302.67 204.68 -302.34 203.36 -302 202 C-301.34 202 -300.68 202 -300 202 C-299.34 200.35 -298.68 198.7 -298 197 C-297.34 197 -296.68 197 -296 197 C-295.731875 196.195625 -295.46375 195.39125 -295.1875 194.5625 C-294.795625 193.716875 -294.40375 192.87125 -294 192 C-293.01 191.67 -292.02 191.34 -291 191 C-290.30341637 189.34561387 -289.63903117 187.67745682 -289 186 C-287.5 184.1875 -287.5 184.1875 -286 183 C-285.34 183 -284.68 183 -284 183 C-283.73058594 182.41347656 -283.46117187 181.82695312 -283.18359375 181.22265625 C-278.26583556 171.98765819 -267.91143114 162.2071906 -259 157 C-258.319375 156.13375 -257.63875 155.2675 -256.9375 154.375 C-254.78503807 151.73649829 -254.12430663 151.72900488 -251 151 C-250.67 150.34 -250.34 149.68 -250 149 C-249.67 148.34 -249.34 147.68 -249 147 C-247.67405895 146.63837971 -246.34061543 146.30271961 -245 146 C-244.67 145.01 -244.34 144.02 -244 143 C-242.66666667 142.66666667 -241.33333333 142.33333333 -240 142 C-239.67 141.01 -239.34 140.02 -239 139 C-237.2578125 137.39453125 -237.2578125 137.39453125 -235.125 135.8125 C-234.42632812 135.28269531 -233.72765625 134.75289062 -233.0078125 134.20703125 C-231 133 -231 133 -228 133 C-228 132.34 -228 131.68 -228 131 C-227.01 131 -226.02 131 -225 131 C-225 130.34 -225 129.68 -225 129 C-223.13671875 127.4921875 -223.13671875 127.4921875 -220.6875 125.875 C-219.88699219 125.33617187 -219.08648437 124.79734375 -218.26171875 124.2421875 C-216 123 -216 123 -213 123 C-213 122.34 -213 121.68 -213 121 C-212.19949219 120.56300781 -212.19949219 120.56300781 -211.3828125 120.1171875 C-207.39431226 117.92282232 -203.47627168 115.67738602 -199.625 113.25 C-192.54871934 108.96436523 -184.983073 105.5948404 -177.4765625 102.140625 C-175.78553053 101.36179008 -174.09816176 100.57496446 -172.4140625 99.78125 C-135.32429863 82.50140355 -91.110885 70.66076487 -50 71 C-50.00999275 70.15674164 -50.00999275 70.15674164 -50.02018738 69.29644775 C-50.08709156 63.39056173 -50.13202655 57.48478515 -50.16479492 51.57861328 C-50.1797854 49.38097757 -50.20018466 47.18337129 -50.22631836 44.98583984 C-50.58837401 13.73546752 -50.58837401 13.73546752 -39.75 0.1875 C-27.1592167 -9.82789581 -13.04130479 -8.15778141 0 0 Z M-17 28 C-17.00364563 28.75897583 -17.00729126 29.51795166 -17.01104736 30.29992676 C-17.04903363 37.47919618 -17.10600546 44.65795274 -17.18390274 51.83689117 C-17.22328476 55.52702013 -17.25551814 59.21691378 -17.27099609 62.90722656 C-17.28622464 66.47369583 -17.32077753 70.03951781 -17.36830902 73.60569763 C-17.3902009 75.61728038 -17.3924684 77.62904608 -17.39434814 79.64074707 C-17.60339743 92.79398322 -17.60339743 92.79398322 -22 98 C-26.66870894 102.11523472 -31.76053126 102.65805501 -37.7734375 102.90625 C-38.60598557 102.9561055 -39.43853363 103.005961 -40.29631042 103.05732727 C-42.07101048 103.16321384 -43.84614752 103.26198167 -45.62161255 103.35415649 C-50.26769149 103.60025351 -54.9090307 103.91412759 -59.55078125 104.23046875 C-60.46373459 104.29223801 -61.37668793 104.35400726 -62.31730652 104.41764832 C-124.38087571 108.78005065 -189.37575207 136.05335475 -234.76953125 178.91015625 C-236.73062241 180.74760594 -238.73203672 182.50578635 -240.765625 184.26171875 C-251.44617897 193.57700529 -261.33125044 203.79095753 -270 215 C-270.87556651 216.08758108 -271.75329085 217.17342743 -272.6328125 218.2578125 C-283.44703938 231.66555659 -292.52788348 246.01986706 -301 261 C-301.57016846 262.00039307 -301.57016846 262.00039307 -302.15185547 263.02099609 C-317.23088702 289.69223759 -334.68383609 326.80126714 -334 358 C-332.35481334 356.59473639 -330.71050139 355.18843743 -329.0703125 353.77734375 C-327.69523938 352.59685645 -326.3150429 351.42230977 -324.9296875 350.25390625 C-321.79733768 347.58009433 -318.86952817 344.98836796 -316.3125 341.75 C-313.99442354 338.99336854 -312.08085834 337.77149354 -309 336 C-307.31183067 334.35511706 -305.64646685 332.68662458 -304 331 C-301.25548126 328.65572358 -298.47267019 326.37609472 -295.6484375 324.12890625 C-293.86809562 322.69780548 -292.10253357 321.24814022 -290.3515625 319.78125 C-285.42858644 315.66231301 -280.72251173 311.92483933 -275 309 C-275 308.34 -275 307.68 -275 307 C-273.824375 306.5359375 -273.824375 306.5359375 -272.625 306.0625 C-270.07669872 305.07124962 -270.07669872 305.07124962 -268 304 C-268 303.34 -268 302.68 -268 302 C-267.01 302 -266.02 302 -265 302 C-265 301.34 -265 300.68 -265 300 C-264.484375 299.9175 -263.96875 299.835 -263.4375 299.75 C-259.95544268 298.67859775 -257.12799115 296.86476395 -254 295 C-254 294.34 -254 293.68 -254 293 C-253.14535156 292.82404297 -253.14535156 292.82404297 -252.2734375 292.64453125 C-249.80356201 291.94430882 -247.85665436 290.95210414 -245.625 289.6875 C-244.89539063 289.27886719 -244.16578125 288.87023437 -243.4140625 288.44921875 C-241.63010637 287.37826774 -239.88637188 286.2396608 -238.16796875 285.06640625 C-234.78710721 282.86113405 -231.30534845 281.02264208 -227.6875 279.25 C-226.99889893 278.90928467 -226.31029785 278.56856934 -225.60083008 278.2175293 C-218.50816999 274.72522866 -211.36737972 271.32971 -204.19018555 268.01464844 C-202.63038742 267.29203992 -201.07499934 266.55987945 -199.52270508 265.82128906 C-192.2756274 262.42659488 -184.88511945 259.70182948 -177.3125 257.125 C-176.36833221 256.80251282 -176.36833221 256.80251282 -175.40509033 256.47351074 C-134.51524481 242.53294354 -92.50361301 233.67605654 -49.26513672 232.08349609 C-47.75869221 232.02796645 -46.25247653 231.96582287 -44.74658203 231.89697266 C-28.57098116 231.19337509 -28.57098116 231.19337509 -23 236 C-19.04743751 240.96604005 -17.88485846 244.69194973 -17.79467773 250.94018555 C-17.77473251 252.16122482 -17.75478729 253.3822641 -17.73423767 254.64030457 C-17.70916893 256.61852959 -17.70916893 256.61852959 -17.68359375 258.63671875 C-17.6630174 260.00007244 -17.64202075 261.36341985 -17.62062073 262.72676086 C-17.5654703 266.31221422 -17.51603013 269.89772448 -17.46777344 273.48327637 C-17.41750701 277.1431992 -17.36184781 280.80303957 -17.30664062 284.46289062 C-17.19914506 291.64185721 -17.0976811 298.82089245 -17 306 C-13.09637348 303.85172977 -10.15165424 301.4047386 -7.00164795 298.26234436 C-6.52438932 297.78891128 -6.04713068 297.31547819 -5.55540967 296.82769865 C-3.96543549 295.24800219 -2.38265656 293.66129339 -0.79980469 292.07446289 C0.34174709 290.93726033 1.48371546 289.80047581 2.62606812 288.66407776 C5.72143927 285.58208146 8.81039025 282.49372624 11.89781284 279.40376973 C14.47577338 276.82473901 17.05670521 274.24869194 19.63759494 271.67259306 C25.72396891 265.59730784 31.80500636 259.51671698 37.8828125 253.43286133 C44.15608754 247.15353853 50.43850095 240.88346596 56.72542882 234.61781508 C62.12284108 229.23799977 67.51444884 223.85241564 72.90144038 218.46216577 C76.11907213 215.24271886 79.33890265 212.02555061 82.5643692 208.81395149 C85.59487999 205.79598429 88.6180932 202.77089463 91.63579178 199.74011803 C92.7454174 198.62811995 93.85761793 197.51868458 94.97253799 196.41199493 C96.49191323 194.90303162 98.00178544 193.385159 99.50958252 191.86463928 C100.35759052 191.01679902 101.20559853 190.16895876 102.07930374 189.29542637 C103.93589475 187.07661226 104.63430466 185.8274802 105 183 C105.66 183 106.32 183 107 183 C110.81362687 174.04626735 112.38271641 165.355434 109 156 C104.6706064 147.79162202 97.92383 141.5106589 91.41088867 135.05444336 C90.2385905 133.88135298 89.06694695 132.70760812 87.89590454 131.53326416 C84.73571206 128.36796956 81.56633327 125.21202592 78.39500594 122.05789256 C75.07385178 118.75183766 71.76086601 115.43761592 68.44685364 112.12440491 C62.88958322 106.57081724 57.32672281 101.02288171 51.76000977 95.47875977 C44.605555 88.35327976 37.46048284 81.21846686 30.31827831 74.08071041 C24.17910077 67.94550439 18.03566715 61.81456532 11.89153886 55.68431783 C9.91415769 53.7110406 7.93736727 51.73717303 5.96065331 49.76322746 C2.86460219 46.67205333 -0.23408322 43.58354397 -3.33488083 40.49713135 C-4.47541007 39.36113979 -5.61508623 38.22429106 -6.75387001 37.08654976 C-8.30107988 35.54107468 -9.85131039 33.99869761 -11.40242004 32.45713806 C-12.27125226 31.59128051 -13.14008448 30.72542295 -14.03524494 29.83332729 C-15.67398008 27.88629501 -15.67398008 27.88629501 -17 28 Z " fill="#C8C8C8" transform="translate(370,47)"/>
<path d="M0 0 C3.29978949 3.29978949 3.1364467 6.3605532 3.18945312 10.81665039 C3.20617065 12.01121353 3.22288818 13.20577667 3.2401123 14.4365387 C3.25368774 15.72720749 3.26726318 17.01787628 3.28125 18.34765625 C3.29929161 19.68379971 3.31789478 21.01993569 3.33703613 22.35606384 C3.40680115 27.31190032 3.466301 32.26785052 3.52606201 37.22381592 C3.57697449 41.41466023 3.63178659 45.60541763 3.69187927 49.79614067 C3.71847563 51.76484726 3.73921224 53.73363016 3.7598877 55.70240784 C3.77660522 56.89381882 3.79332275 58.0852298 3.81054688 59.31274414 C3.82307495 60.36514786 3.83560303 61.41755157 3.84851074 62.50184631 C3.83601451 64.99890781 3.83601451 64.99890781 5 67 C3.02 67.495 3.02 67.495 1 68 C0.67 45.56 0.34 23.12 0 0 Z " fill="#5D5D5D" transform="translate(350,287)"/>
<path d="M0 0 C0.66 0 1.32 0 2 0 C1.52060632 4.71403788 1.03165952 8.66579301 -1 13 C-1.66 13 -2.32 13 -3 13 C-2.68817931 11.58318366 -2.37551263 10.16655349 -2.0625 8.75 C-1.88847656 7.96109375 -1.71445312 7.1721875 -1.53515625 6.359375 C-1.052444 4.23121297 -0.53836822 2.11467158 0 0 Z " fill="#6B6B6B" transform="translate(510,225)"/>
<path d="M0 0 C0.66 0 1.32 0 2 0 C1.34 3.3 0.68 6.6 0 10 C-0.66 9.67 -1.32 9.34 -2 9 C-1.34 6.03 -0.68 3.06 0 0 Z " fill="#6C6C6C" transform="translate(41,371)"/>
<path d="M0 0 C0.66 0 1.32 0 2 0 C1.67 3.3 1.34 6.6 1 10 C0.34 9.34 -0.32 8.68 -1 8 C-0.96712417 5.27130593 -0.43602229 2.7033382 0 0 Z " fill="#5B5B5B" transform="translate(36,390)"/>
</svg>
