<?xml version="1.0" encoding="UTF-8"?>
<svg version="1.1" xmlns="http://www.w3.org/2000/svg" width="512" height="512">
<path d="M0 0 C1.26345513 -0.00467997 2.52691026 -0.00935994 3.82865191 -0.01418173 C7.30573158 -0.02661466 10.78256175 -0.02055693 14.25964189 -0.01122308 C18.02112848 -0.00440102 21.78257387 -0.01492937 25.54405212 -0.02316284 C32.90099675 -0.03646886 40.25784931 -0.03363645 47.61479747 -0.02492492 C53.59652323 -0.01813642 59.57822327 -0.01723669 65.55995178 -0.02049637 C66.83933221 -0.02118592 66.83933221 -0.02118592 68.1445587 -0.0218894 C69.87751179 -0.02284862 71.61046487 -0.02382126 73.34341794 -0.02480717 C89.574873 -0.03335189 105.80627714 -0.02354136 122.03772384 -0.00740607 C135.95042699 0.00599628 149.86305504 0.00366792 163.77575684 -0.01016235 C179.9510514 -0.0262344 196.1263014 -0.032528 212.30160284 -0.02332556 C214.02800845 -0.02236996 215.75441407 -0.02142685 217.4808197 -0.02049637 C218.33013708 -0.02003354 219.17945445 -0.01957072 220.05450872 -0.01909386 C226.02569435 -0.01650885 231.9968516 -0.02086442 237.96803284 -0.02793503 C245.24971831 -0.0363683 252.53130682 -0.03403159 259.81298125 -0.0180928 C263.52476308 -0.01023459 267.23638353 -0.00707637 270.94816399 -0.01704025 C274.97917228 -0.02769703 279.00977677 -0.01493123 283.04077148 0 C284.78490916 -0.01003825 284.78490916 -0.01003825 286.56428194 -0.02027929 C302.77101389 0.09588259 317.27684848 6.15707255 329.02038574 17.38095093 C335.71238053 25.25617541 340.5534079 33.60714444 345.07507324 42.86923218 C345.70745362 44.14269967 346.3408721 45.41565212 346.97525024 46.68812561 C348.62906574 50.01279061 350.26808015 53.34453615 351.90405273 56.67800903 C353.53602094 59.99590229 355.18348973 63.30607758 356.82897949 66.61727905 C361.52490937 76.08034893 366.20908357 85.54980193 370.7479248 95.08944702 C371.14236345 95.91806401 371.5368021 96.746681 371.94319344 97.6004076 C372.78521659 99.38127202 373.61847822 101.16633036 374.43926048 102.9570837 C376.88537677 108.21086336 379.50525058 113.29071973 382.43054152 118.28967059 C396.35637063 142.16015345 400.82413733 161.51829415 400.1115284 188.97440386 C400.0086624 193.71147356 400.01476761 198.44869948 400.00610352 203.18670654 C399.97699456 211.10256722 399.87848177 219.01483725 399.72839355 226.92929077 C399.53664217 237.05441404 399.45810726 247.1771622 399.41547394 257.30388832 C399.37822287 266.0939616 399.29696937 274.88354275 399.20497704 283.67319441 C399.17680936 286.46530329 399.15324459 289.25742783 399.129776 292.04957962 C399.08948802 296.43533593 399.02179557 300.81991209 398.93349838 305.20495605 C398.90475274 306.80270215 398.88395823 308.4006163 398.8721199 309.99857712 C398.7682025 322.69432182 396.33662223 333.40146714 388.02038574 343.38095093 C386.39705608 344.76672015 384.7331411 346.10736361 383.02038574 347.38095093 C382.14833496 348.31487671 382.14833496 348.31487671 381.25866699 349.26766968 C378.62751222 351.75188387 375.95548239 353.29264064 372.77038574 355.00595093 C371.69272949 355.59634155 370.61507324 356.18673218 369.50476074 356.79501343 C363.10019226 359.71009729 357.31353783 360.63077551 350.31723213 360.63542652 C349.58161991 360.638633 348.84600769 360.64183948 348.08810419 360.64514312 C345.63373889 360.65341612 343.17961935 360.64752838 340.72525024 360.64164734 C338.94355734 360.64466925 337.16186574 360.64855894 335.38017642 360.65323991 C330.49205508 360.66352345 325.60400705 360.66133716 320.71587968 360.65705931 C315.44106139 360.65459275 310.16626079 360.66360538 304.89144897 360.6710968 C294.56060815 360.68384769 284.22979331 360.68563701 273.89894594 360.68329654 C265.50200304 360.68151368 257.10506803 360.68326233 248.70812607 360.68752098 C246.91564871 360.68841376 246.91564871 360.68841376 245.08695968 360.68932458 C242.65936527 360.69053633 240.23177085 360.69175047 237.80417643 360.69296696 C215.03696141 360.70384397 192.2697612 360.70167922 169.50254534 360.69558211 C148.67464268 360.69041264 127.84678679 360.70166894 107.01889338 360.72068033 C85.6319727 360.74005233 64.24507415 360.74831586 42.85814464 360.74455708 C30.8513484 360.74264409 18.84459197 360.74514215 6.83780289 360.75927162 C-3.38350451 360.77117823 -13.6047476 360.77259835 -23.82605587 360.76048145 C-29.04042825 360.75458779 -34.25468296 360.7535069 -39.46904755 360.76548386 C-44.24465179 360.7763255 -49.02003986 360.77325968 -53.79563393 360.75922217 C-55.52099861 360.75657053 -57.24638014 360.75895645 -58.97172831 360.76695804 C-67.69147959 360.80458265 -75.77218008 360.73640607 -83.97961426 357.38095093 C-84.68547381 357.10130393 -85.39133337 356.82165693 -86.11858261 356.53353578 C-92.43072428 353.89616755 -97.16435056 349.11528582 -101.97961426 344.38095093 C-102.86713379 343.51276733 -102.86713379 343.51276733 -103.77258301 342.62704468 C-110.37374009 335.58467915 -114.02968335 326.22784922 -114.25463867 316.68605042 C-114.27172111 316.0013215 -114.28880355 315.31659259 -114.30640364 314.61111432 C-114.36202854 312.30946421 -114.41031207 310.00772684 -114.45812988 307.7059021 C-114.49550416 306.05597734 -114.53297189 304.4060547 -114.57052612 302.75613403 C-114.9052144 287.52789158 -115.09823012 272.29743259 -115.2534256 257.06641674 C-115.35996651 246.86003365 -115.50922279 236.65815169 -115.76965332 226.45443726 C-117.88780185 141.75914972 -117.88780185 141.75914972 -95.42221832 109.12662411 C-89.92890265 101.13604828 -86.05521279 92.48345412 -82.05604553 83.67943382 C-79.86925264 79.01001723 -77.36502633 74.51029524 -74.90930176 69.97860718 C-70.26286978 61.37681152 -65.98238647 52.5829122 -61.87658691 43.71224976 C-54.68174497 28.17957258 -54.68174497 28.17957258 -50.97961426 23.38095093 C-50.31961426 23.38095093 -49.65961426 23.38095093 -48.97961426 23.38095093 C-48.70117676 22.32907593 -48.70117676 22.32907593 -48.41711426 21.25595093 C-46.45893912 17.33960065 -43.57285194 14.84706453 -39.97961426 12.38095093 C-39.31961426 12.38095093 -38.65961426 12.38095093 -37.97961426 12.38095093 C-37.97961426 11.72095093 -37.97961426 11.06095093 -37.97961426 10.38095093 C-35.88180806 9.26314178 -33.77746864 8.16213824 -31.66711426 7.06845093 C-31.09154785 6.75972046 -30.51598145 6.45098999 -29.92297363 6.13290405 C-20.25105106 1.16624111 -10.76543626 -0.06195962 0 0 Z M-9.09289265 54.20705032 C-9.71551078 55.25443752 -10.33812891 56.30182472 -10.97961426 57.38095093 C-11.37333127 58.00504003 -11.76704828 58.62912912 -12.17269611 59.27213001 C-12.44093787 59.81100188 -12.70917963 60.34987375 -12.98554993 60.90507507 C-13.30374695 61.5345253 -13.62194397 62.16397552 -13.94978333 62.8125 C-14.44178474 63.81571793 -14.44178474 63.81571793 -14.94372559 64.83920288 C-15.30533783 65.56023697 -15.66695007 66.28127106 -16.03952026 67.02415466 C-17.22129493 69.3854103 -18.39159671 71.75214728 -19.56164551 74.11923218 C-20.38340573 75.76767998 -21.20581869 77.41580253 -22.02885437 79.06361389 C-23.74572705 82.5049758 -25.45741325 85.94884704 -27.16491699 89.39486694 C-29.35837557 93.82154436 -31.56056413 98.24380253 -33.76607227 102.66448689 C-35.8674353 106.87715674 -37.96481244 111.09180618 -40.06164551 115.30673218 C-40.46376566 116.11436823 -40.86588581 116.92200428 -41.28019142 117.75411415 C-42.40981845 120.02488359 -43.5366347 122.29702314 -44.66247559 124.56967163 C-45.00059769 125.24860474 -45.33871979 125.92753784 -45.68708801 126.62704468 C-47.2880416 129.37876549 -47.2880416 129.37876549 -47.97961426 132.38095093 C-46.22434166 132.38641937 -46.22434166 132.38641937 -44.43360901 132.39199829 C-33.38442252 132.42900297 -22.33551333 132.48683567 -11.28653812 132.56485367 C-5.60666339 132.60429608 0.07305706 132.63650058 5.75305176 132.65194702 C11.23863898 132.66713469 16.72380193 132.70161829 22.20919991 132.74925995 C24.29782986 132.76405188 26.3865204 132.77199068 28.47520256 132.77283478 C31.40990862 132.77521273 34.34345004 132.80235948 37.2779541 132.83505249 C38.56189812 132.82750694 38.56189812 132.82750694 39.8717804 132.81980896 C47.1391958 132.94437236 52.57735946 135.3464354 58.77038574 139.00595093 C64.34948437 144.89499948 66.48630213 152.6239648 68.89538574 160.19345093 C75.0395931 179.3742533 86.7075249 196.98497404 104.72741699 206.84579468 C123.26980698 215.49011172 145.92680617 217.96669184 165.62976074 211.73641968 C171.63645304 209.33512679 177.34861453 206.49212281 183.02038574 203.38095093 C183.02038574 202.72095093 183.02038574 202.06095093 183.02038574 201.38095093 C184.34038574 201.05095093 185.66038574 200.72095093 187.02038574 200.38095093 C187.02038574 199.72095093 187.02038574 199.06095093 187.02038574 198.38095093 C187.58241699 198.15407593 188.14444824 197.92720093 188.72351074 197.69345093 C191.66665435 196.01165458 193.52083306 193.90985983 195.77038574 191.38095093 C196.56960449 190.49407593 197.36882324 189.60720093 198.19226074 188.69345093 C200.22710565 186.61076395 200.22710565 186.61076395 200.02038574 184.38095093 C200.68038574 184.38095093 201.34038574 184.38095093 202.02038574 184.38095093 C202.02038574 183.39095093 202.02038574 182.40095093 202.02038574 181.38095093 C202.68038574 181.38095093 203.34038574 181.38095093 204.02038574 181.38095093 C213.72196349 163.67517406 213.72196349 163.67517406 218.02038574 144.38095093 C218.68038574 144.38095093 219.34038574 144.38095093 220.02038574 144.38095093 C220.70101074 143.20532593 220.70101074 143.20532593 221.39538574 142.00595093 C223.09689687 139.25735603 224.06557659 138.50174061 227.02038574 137.38095093 C227.02038574 136.72095093 227.02038574 136.06095093 227.02038574 135.38095093 C233.34120408 133.7240611 239.2410112 133.07856231 245.76281738 133.06210327 C246.69072083 133.05205765 247.61862427 133.04201202 248.574646 133.03166199 C251.60993895 133.00102784 254.64514453 132.98385022 257.68054199 132.96688843 C259.79760988 132.94816086 261.91467043 132.92858627 264.03172302 132.90820312 C269.58002378 132.85704386 275.1283487 132.81733166 280.67675781 132.78005981 C286.34800106 132.73991823 292.01914523 132.68887236 297.69030762 132.63876343 C308.80026389 132.54219616 319.91027632 132.4577303 331.02038574 132.38095093 C325.85673286 120.7590139 320.59493862 109.22030793 314.90319824 97.84579468 C314.27289365 96.58127548 313.64276081 95.31667065 313.01278687 94.05198669 C311.71655834 91.45220798 310.41739065 88.85392613 309.11608887 86.25668335 C307.45172548 82.93385233 305.79669879 79.60646079 304.14386177 76.27788448 C302.85607018 73.68759961 301.56277424 71.10009351 300.26784897 68.51336861 C299.65438471 67.28592898 299.04279466 66.05755068 298.43317032 64.82819939 C297.58793254 63.12539465 296.73427934 61.42677497 295.88024902 59.72836304 C295.15818771 58.28329628 295.15818771 58.28329628 294.42153931 56.80903625 C293.0751772 54.47590007 292.1129191 53.04711687 290.02038574 51.38095093 C287.69234185 50.92762632 287.69234185 50.92762632 285.04246712 50.99504757 C283.491505 50.98053756 283.491505 50.98053756 281.90921032 50.96573442 C280.76963875 50.97038023 279.63006718 50.97502603 278.45596313 50.97981262 C277.24819619 50.97301595 276.04042925 50.96621928 274.7960633 50.95921665 C271.43746938 50.94347432 268.07935605 50.94126799 264.72075915 50.94479978 C261.10101518 50.94541079 257.48134369 50.92886523 253.8616333 50.91462708 C246.76764794 50.88968363 239.67373735 50.88146148 232.57971181 50.87978994 C226.81465456 50.87836558 221.04962203 50.87220695 215.2845726 50.86268806 C198.94770441 50.83626173 182.61089539 50.82243097 166.27400567 50.82467949 C165.3928648 50.82479936 164.51172394 50.82491922 163.60388184 50.82504272 C162.72166792 50.82516537 161.839454 50.82528801 160.93050633 50.82541437 C146.63001655 50.82663396 132.32976367 50.79792217 118.02934243 50.75562762 C103.35373533 50.71256514 88.67824385 50.69181547 74.00257194 50.69440895 C65.76005738 50.69540588 57.51779115 50.68712093 49.2753334 50.6548748 C42.25781025 50.62759732 35.24064797 50.62100238 28.22309484 50.64140307 C24.6415306 50.65121857 21.06065921 50.65130076 17.47916031 50.62534332 C13.59870871 50.59750809 9.71927607 50.61602419 5.83877563 50.63923645 C4.70366551 50.62380576 3.56855538 50.60837507 2.39904797 50.59247679 C-4.09380916 50.55067364 -4.09380916 50.55067364 -9.09289265 54.20705032 Z " fill="#161616" transform="translate(113.9796142578125,75.61904907226563)"/>
<path d="M0 0 C0.66 0.33 1.32 0.66 2 1 C-1.465 3.97 -1.465 3.97 -5 7 C-3.75023244 3.34683329 -3.32901247 2.21934164 0 0 Z M-7 7 C-6.01 7.495 -6.01 7.495 -5 8 C-5.99 8.495 -5.99 8.495 -7 9 C-7 8.34 -7 7.68 -7 7 Z " fill="#101010" transform="translate(339,213)"/>
</svg>
