<?xml version="1.0" standalone="no"?>
<!DOCTYPE svg PUBLIC "-//W3C//DTD SVG 20010904//EN"
 "http://www.w3.org/TR/2001/REC-SVG-20010904/DTD/svg10.dtd">
<svg version="1.0" xmlns="http://www.w3.org/2000/svg"
 width="512.000000pt" height="512.000000pt" viewBox="0 0 512.000000 512.000000"
 preserveAspectRatio="xMidYMid meet">

<g transform="translate(0.000000,512.000000) scale(0.100000,-0.100000)"
fill="#000000" stroke="none">
<path d="M1720 3429 c-89 -40 -111 -72 -281 -412 l-159 -318 0 -408 c0 -442 2
-466 55 -534 14 -20 50 -47 78 -62 l51 -25 1096 0 1096 0 52 26 c63 31 107 89
122 158 8 34 10 184 8 451 l-3 400 -158 315 c-94 188 -170 327 -189 347 -18
18 -55 44 -82 58 l-50 25 -795 0 c-779 0 -797 -1 -841 -21z m1690 -419 c55
-110 100 -204 100 -210 0 -6 -88 -10 -250 -10 l-249 0 -34 -29 c-23 -21 -38
-48 -51 -90 -50 -167 -176 -275 -335 -288 -190 -16 -336 85 -401 277 -45 134
-35 130 -345 130 -135 0 -245 2 -245 5 0 8 191 389 202 403 8 9 172 12 759 12
l749 0 100 -200z"/>
</g>
</svg>
