<?xml version="1.0" standalone="no"?>
<!DOCTYPE svg PUBLIC "-//W3C//DTD SVG 20010904//EN"
 "http://www.w3.org/TR/2001/REC-SVG-20010904/DTD/svg10.dtd">
<svg version="1.0" xmlns="http://www.w3.org/2000/svg"
 width="512.000000pt" height="512.000000pt" viewBox="0 0 512.000000 512.000000"
 preserveAspectRatio="xMidYMid meet">

<g transform="translate(0.000000,512.000000) scale(0.100000,-0.100000)"
fill="#000000" stroke="none">
<path d="M1240 5109 c-331 -38 -615 -181 -850 -426 -193 -201 -315 -439 -368
-716 -16 -85 -17 -198 -17 -1407 0 -1468 -4 -1385 71 -1610 71 -214 187 -394
361 -560 199 -191 429 -310 708 -367 84 -17 172 -18 1410 -18 1474 0 1392 -4
1615 71 215 72 394 187 562 362 189 197 308 428 365 708 17 83 18 176 18 1409
0 1474 4 1392 -71 1615 -72 215 -187 394 -362 562 -192 184 -406 297 -684 361
-92 21 -105 21 -1388 23 -712 1 -1329 -2 -1370 -7z m1613 -1423 c111 -28 273
-102 368 -166 81 -56 207 -176 270 -259 73 -96 164 -287 194 -405 14 -55 29
-145 33 -200 23 -325 -66 -560 -246 -644 -50 -24 -69 -27 -162 -27 -91 0 -111
3 -150 24 -52 27 -125 94 -146 134 l-15 28 -47 -42 c-378 -334 -972 -71 -972
431 0 266 179 496 440 565 131 35 294 12 427 -60 l62 -34 6 29 c10 46 58 80
112 80 37 0 50 -5 77 -32 l33 -33 7 -268 c7 -293 17 -390 47 -483 27 -84 56
-109 124 -109 45 0 58 4 84 29 65 62 98 202 87 371 -26 415 -306 747 -716 851
-103 26 -305 26 -414 1 -355 -84 -620 -349 -702 -703 -26 -108 -26 -300 0
-409 70 -300 289 -555 565 -659 134 -50 188 -60 341 -60 161 0 212 10 368 71
86 33 95 35 133 24 73 -22 104 -117 57 -176 -28 -36 -145 -90 -267 -123 -88
-24 -111 -26 -291 -26 -179 0 -203 2 -294 27 -260 70 -504 240 -659 458 -66
93 -143 259 -174 376 -25 90 -27 113 -27 293 0 180 2 203 27 293 31 117 108
283 174 376 173 245 446 420 740 476 126 23 381 14 506 -19z"/>
<path d="M2459 2891 c-115 -37 -194 -117 -231 -233 -23 -75 -23 -121 0 -196
37 -118 116 -197 234 -234 75 -23 121 -23 196 0 118 37 197 116 234 234 23 75
23 121 0 196 -37 118 -116 197 -234 234 -74 22 -126 22 -199 -1z"/>
</g>
</svg>
