<?xml version="1.0" encoding="UTF-8"?>
<svg version="1.1" xmlns="http://www.w3.org/2000/svg" width="512" height="512">
<path d="M0 0 C1.94272545 -0.0076664 1.94272545 -0.0076664 3.92469788 -0.01548767 C7.46192675 -0.02882632 10.99904845 -0.02946215 14.53629756 -0.02692437 C17.49592934 -0.02585126 20.45553974 -0.03074666 23.41516691 -0.03552979 C30.40049228 -0.04660702 37.38576386 -0.04707232 44.37109375 -0.04101562 C51.56307635 -0.0349754 58.75486334 -0.0472921 65.94681257 -0.06858569 C72.13557519 -0.08623131 78.3242757 -0.09219843 84.51306254 -0.08894795 C88.20321481 -0.08713981 91.8932275 -0.08972425 95.58335686 -0.10366249 C99.70023068 -0.11863228 103.81670901 -0.10924491 107.93359375 -0.09765625 C109.14683319 -0.10529999 110.36007263 -0.11294373 111.6100769 -0.12081909 C120.04444399 -0.0683887 126.93566662 0.78276727 133.40649414 6.7121582 C134.05360352 7.28836914 134.70071289 7.86458008 135.36743164 8.45825195 C138.78316989 12.18669863 139.28377184 15.24598429 139.3056488 20.24456787 C139.31562393 21.46697174 139.32559906 22.68937561 139.33587646 23.94882202 C139.33677223 25.30059801 139.33743582 26.65237418 139.33789062 28.00415039 C139.34551365 29.43017002 139.3539414 30.85618554 139.3631134 32.28219604 C139.38505434 36.15428161 139.39385702 40.02628821 139.39893985 43.89842892 C139.40258464 46.31937278 139.40882541 48.740296 139.41594124 51.16123199 C139.44043667 59.61246142 139.45348733 68.06362948 139.45703125 76.51489258 C139.46066412 84.38343859 139.49054117 92.25159396 139.53243583 100.12002063 C139.56717246 106.88196734 139.58258029 113.64378483 139.58327729 120.40582013 C139.58406912 124.44153484 139.59276355 128.4768518 139.62127495 132.51247406 C139.64751306 136.31132799 139.64962952 140.1094561 139.63361931 143.90835953 C139.63180919 145.29826825 139.63845614 146.68821925 139.65443802 148.07803726 C139.7317621 155.24234891 139.62233607 160.89707454 135.49479771 166.92787552 C133.73732442 168.54540359 132.36187194 168.89050306 130.03149414 169.2746582 C130.03149414 169.9346582 130.03149414 170.5946582 130.03149414 171.2746582 C123.20607607 173.8450816 117.19325075 175.30458285 110.03149414 173.2746582 C103.36534313 170.19634006 99.17977889 165.8663794 96.03149414 159.2746582 C94.86489049 155.77484725 94.85613038 152.60050474 94.82617188 148.95751953 C94.81627228 148.21581009 94.80637268 147.47410065 94.7961731 146.70991516 C94.76459157 144.25887237 94.73981393 141.8078102 94.71508789 139.35668945 C94.69451547 137.65703325 94.67351892 135.95738214 94.65211487 134.25773621 C94.59692394 129.78451657 94.54750152 125.311251 94.49926758 120.83795166 C94.44903082 116.27319246 94.3933561 111.70849997 94.33813477 107.14379883 C94.23058962 98.18747561 94.12913654 89.23109447 94.03149414 80.2746582 C93.20065371 81.1101076 92.36981327 81.945557 91.51379585 82.80632305 C71.77199535 102.65651183 52.01720304 122.49370139 32.24643738 142.31504161 C29.81076189 144.75697031 27.37519578 147.19900807 24.93969727 149.64111328 C24.45485016 150.12727194 23.97000306 150.61343059 23.47046362 151.11432133 C15.62954204 158.97697434 7.79750521 166.84842019 -0.0312594 174.72317573 C-8.06995599 182.80870001 -16.1183577 190.88444473 -24.17524922 198.95184404 C-28.69808025 203.48118769 -33.21642149 208.01481296 -37.72426987 212.55907249 C-41.97002408 216.8388409 -46.22745016 221.10664407 -50.49399376 225.36568451 C-52.0551524 226.92821522 -53.61205251 228.49501458 -55.16425896 230.06643867 C-57.29066447 232.21786514 -59.43212197 234.35314422 -61.57785034 236.48527527 C-62.1829465 237.10493563 -62.78804266 237.724596 -63.41147506 238.36303395 C-68.71303738 243.57479198 -74.91011439 247.50595111 -82.28881836 248.90356445 C-83.67713867 248.87069336 -83.67713867 248.87069336 -85.09350586 248.8371582 C-86.48956055 248.8390918 -86.48956055 248.8390918 -87.91381836 248.84106445 C-96.79127869 247.19498805 -102.22279577 241.57995752 -108.32202148 235.37524414 C-109.22051819 234.47733154 -110.11901489 233.57941895 -111.04473877 232.65429688 C-113.49123845 230.208938 -115.92526585 227.75150461 -118.35713387 225.29160595 C-120.90701653 222.71660328 -123.46834251 220.15303333 -126.02844238 217.5881958 C-130.86699116 212.73724827 -135.6952586 207.87620139 -140.51985693 203.0113833 C-146.01621339 197.47021234 -151.52402433 191.94048686 -157.03279591 186.41166258 C-168.35743441 175.04529003 -179.6677029 163.66473016 -190.96850586 152.2746582 C-195.52085047 156.08438213 -199.85647688 160.02113653 -204.0358429 164.23519897 C-204.60394296 164.80385575 -205.17204303 165.37251252 -205.75735825 165.95840132 C-207.64043649 167.84449026 -209.51990958 169.73412961 -211.39941406 171.6237793 C-212.75655872 172.98448381 -214.11394114 174.3449512 -215.47154236 175.7052002 C-218.38392484 178.62411117 -221.29479169 181.5445222 -224.20452309 184.4660759 C-228.80212653 189.08201387 -233.40411182 193.69356628 -238.00688171 198.30435181 C-251.09070137 211.41229584 -264.16855215 224.52618572 -277.2421875 237.64428711 C-284.47062062 244.8972281 -291.70261128 252.14660273 -298.9384734 259.3921324 C-303.51905466 263.97927089 -308.09508488 268.57088766 -312.66784537 273.16582179 C-315.50438612 276.01404906 -318.34505702 278.85812822 -321.18694496 281.70101929 C-322.50855802 283.02478891 -323.82843795 284.35029134 -325.14649582 285.67760086 C-326.93848139 287.48168202 -328.73643546 289.27959021 -330.53608704 291.07601929 C-331.06243738 291.60887743 -331.58878772 292.14173558 -332.13108808 292.69074094 C-335.74029065 296.2746582 -335.74029065 296.2746582 -337.96850586 296.2746582 C-337.96850586 296.9346582 -337.96850586 297.5946582 -337.96850586 298.2746582 C-344.39727159 301.86280652 -350.7074195 302.21823997 -357.96850586 301.2746582 C-364.40602078 298.92329318 -369.91629604 293.37907785 -372.96850586 287.2746582 C-373.20072828 284.56735627 -373.33873605 281.92382759 -373.40600586 279.2121582 C-373.47464844 278.12257813 -373.47464844 278.12257813 -373.54467773 277.01098633 C-373.70837439 268.9613811 -369.09557208 263.38811672 -363.77219677 257.69803238 C-362.61276439 256.52113381 -361.44539844 255.35201201 -360.27128601 254.1897583 C-359.29919409 253.20958807 -359.29919409 253.20958807 -358.30746394 252.20961642 C-356.15683556 250.04480051 -353.99577427 247.89072823 -351.83447266 245.73657227 C-350.28109437 244.17748571 -348.728346 242.61777132 -347.17617798 241.05747986 C-342.97447411 236.83788258 -338.76331425 232.62784571 -334.54980063 228.4200449 C-331.02806456 224.90140541 -327.51093786 221.37817646 -323.99376804 217.85497355 C-315.22160569 209.06797982 -306.44025854 200.29022185 -297.65462819 191.51669702 C-290.03727456 183.90927912 -282.43142682 176.29047681 -274.8310081 168.66614273 C-267.0108259 160.82154082 -259.18304488 152.98458662 -251.34752017 145.15530753 C-246.95488109 140.76603568 -242.56517478 136.37393147 -238.18283653 131.97437286 C-234.06232557 127.83837701 -229.93219354 123.71223409 -225.79454422 119.5933857 C-224.28064021 118.08316283 -222.77011304 116.56954588 -221.26329613 115.05225182 C-219.20024347 112.97595648 -217.12514586 110.91247005 -215.04667664 108.85162354 C-214.1641479 107.95468729 -214.1641479 107.95468729 -213.26379031 107.03963113 C-207.09138249 100.97385951 -200.2612409 96.54572987 -191.42944336 96.1652832 C-174.5794594 96.91417138 -159.92443468 118.18741802 -148.85913086 129.28637695 C-147.03804133 131.10933528 -145.21672813 132.93207019 -143.39520264 134.7545929 C-139.12257665 139.03062236 -134.85218066 143.30886672 -130.58290458 147.58824044 C-125.71411733 152.46828779 -120.84241778 157.34542352 -115.97049761 162.22234285 C-105.96663941 172.236594 -95.96635875 182.25441175 -85.96850586 192.2746582 C-81.85908699 190.6474923 -79.10775311 187.687022 -76.05865479 184.60531616 C-75.4712891 184.01965932 -74.88392341 183.43400249 -74.27875876 182.83059847 C-72.31020428 180.86534039 -70.34888707 178.89301528 -68.38745117 176.9206543 C-66.97844165 175.51108069 -65.5689917 174.10194721 -64.15913391 172.69322205 C-60.3306211 168.86528387 -56.50831301 165.03120345 -52.68706989 161.19601011 C-48.69344935 157.18990073 -44.69417748 153.1894413 -40.69549561 149.18838501 C-33.12322329 141.6098925 -25.55606435 134.02631542 -17.9907186 126.44090903 C-9.37804424 117.80589246 -0.75970109 109.17654331 7.85912848 100.54767108 C25.58957578 82.79630956 43.31287416 65.03782469 61.03149414 47.2746582 C59.67085594 47.26585884 59.67085594 47.26585884 58.2827301 47.25688171 C49.70585057 47.19881491 41.12922757 47.12665851 32.552598 47.03894329 C28.14397089 46.99434499 23.73543396 46.95506607 19.32666016 46.92822266 C15.06653732 46.90208395 10.80676344 46.86160806 6.54685783 46.81147194 C4.92713726 46.79487432 3.30735642 46.78331602 1.68756294 46.7770443 C-16.38642497 46.70002602 -16.38642497 46.70002602 -24.71850586 41.5871582 C-30.61119689 35.53078131 -33.30640422 29.4066204 -33.26928711 20.9934082 C-32.78963035 16.65780942 -31.02587159 13.07711094 -28.96850586 9.2746582 C-28.30850586 9.2746582 -27.64850586 9.2746582 -26.96850586 9.2746582 C-26.63850586 8.2846582 -26.30850586 7.2946582 -25.96850586 6.2746582 C-17.80180909 -0.14203211 -9.97098326 -0.02032669 0 0 Z " fill="#08D765" transform="translate(372.968505859375,104.725341796875)"/>
<path d="M0 0 C0.99 0.495 0.99 0.495 2 1 C-53.11 56.11 -108.22 111.22 -165 168 C-165.33 167.01 -165.66 166.02 -166 165 C-160.84944066 156.43475636 -151.19875094 149.05069727 -144.14794922 142.00268555 C-142.63760845 140.48934934 -141.12747186 138.97580934 -139.61752319 137.46208191 C-135.53338523 133.36914377 -131.44604048 129.2794229 -127.35782003 125.19056296 C-124.80282699 122.63485772 -122.24854788 120.07844118 -119.69452286 117.52176857 C-110.78243587 108.60044486 -101.86778415 99.68169332 -92.95068359 90.76538086 C-84.63963024 82.45492945 -76.33418353 74.13890374 -68.03131855 65.82027215 C-60.89671897 58.67260764 -53.75828014 51.52879299 -46.61682522 44.3879779 C-42.35384233 40.12525008 -38.09243014 35.86098038 -33.83486557 31.59284019 C-29.83542201 27.5837321 -25.83122789 23.57943107 -21.82330704 19.57879829 C-20.35299811 18.10953691 -18.8843985 16.63856272 -17.41763306 15.16576385 C-15.41654423 13.15697696 -13.40940023 11.15444149 -11.40060425 9.15336609 C-10.82073726 8.56835553 -10.24087026 7.98334498 -9.64343154 7.38060683 C-6.65922618 4.42171824 -3.84774695 1.82086192 0 0 Z " fill="#047C3F" transform="translate(170,204)"/>
<path d="M0 0 C0 3 0 3 -1.3125 4.38671875 C-2.875 5.59114583 -4.4375 6.79557292 -6 8 C-6 7.01 -6 6.02 -6 5 C-5.34 5 -4.68 5 -4 5 C-3.67 4.01 -3.34 3.02 -3 2 C-2.01 1.34 -1.02 0.68 0 0 Z " fill="#04A64C" transform="translate(350,109)"/>
</svg>
