<?xml version="1.0" encoding="UTF-8"?>
<svg version="1.1" xmlns="http://www.w3.org/2000/svg" width="512" height="512">
<path d="M0 0 C0.82269882 -0.00701431 1.64539764 -0.01402863 2.49302673 -0.02125549 C5.13603233 -0.03868129 7.77881405 -0.04510851 10.421875 -0.046875 C11.77462021 -0.04788712 11.77462021 -0.04788712 13.1546936 -0.04891968 C26.08199288 -0.03351958 38.51598974 0.36463065 51.171875 3.203125 C52.85155276 3.54692259 54.5312407 3.89067046 56.2109375 4.234375 C105.50425309 14.76968505 151.44454451 41.84111585 189.24609375 74.6796875 C192.11021234 77.14994199 195.03352724 79.52510272 197.984375 81.890625 C202.00775386 85.16180694 205.68772983 88.60592604 209.296875 92.32421875 C211.08424759 94.11531503 212.93015663 95.75480859 214.859375 97.390625 C222.91556798 104.33232488 230.50809098 112.02590198 237.3828125 120.13671875 C239.20941079 122.24647966 241.10463655 124.282883 243.01245117 126.3190918 C248.59911879 132.30059059 253.76333906 138.51932154 258.7109375 145.0390625 C260.14256288 146.92047057 261.54931668 148.59513971 263.1953125 150.3046875 C267.206244 154.5792483 267.71194832 158.58293217 267.796875 164.328125 C267.80807373 165.00987793 267.81927246 165.69163086 267.83081055 166.39404297 C267.68666147 171.43005979 266.21334105 174.27314078 263.171875 178.203125 C262.511875 179.193125 261.851875 180.183125 261.171875 181.203125 C260.511875 181.203125 259.851875 181.203125 259.171875 181.203125 C258.511875 182.853125 257.851875 184.503125 257.171875 186.203125 C256.511875 186.203125 255.851875 186.203125 255.171875 186.203125 C254.8315625 187.2859375 254.8315625 187.2859375 254.484375 188.390625 C252.91269713 191.75850615 250.85229975 193.65345267 248.171875 196.203125 C247.615 196.96625 247.058125 197.729375 246.484375 198.515625 C246.05125 199.0725 245.618125 199.629375 245.171875 200.203125 C244.511875 200.203125 243.851875 200.203125 243.171875 200.203125 C242.89988281 200.79222656 242.62789063 201.38132812 242.34765625 201.98828125 C241.1963375 204.15704447 239.97203825 205.79818915 238.359375 207.640625 C237.87855469 208.19621094 237.39773438 208.75179687 236.90234375 209.32421875 C234.72636374 211.68685167 232.45208332 213.94214092 230.171875 216.203125 C228.75469127 217.61927441 227.33807913 219.03599595 225.921875 220.453125 C216.421875 229.953125 216.421875 229.953125 214.17578125 232.1953125 C212.99072106 233.38268275 211.80943053 234.57386972 210.63671875 235.7734375 C208.28887704 238.17153882 205.90836888 240.26109708 203.171875 242.203125 C200.64740365 244.04299395 198.58872369 245.78627631 196.359375 248.015625 C194.171875 250.203125 194.171875 250.203125 191.171875 251.203125 C190.841875 252.193125 190.511875 253.183125 190.171875 254.203125 C187.609375 255.390625 187.609375 255.390625 185.171875 256.203125 C185.171875 256.863125 185.171875 257.523125 185.171875 258.203125 C183.521875 258.863125 181.871875 259.523125 180.171875 260.203125 C180.171875 260.863125 180.171875 261.523125 180.171875 262.203125 C178.851875 262.533125 177.531875 262.863125 176.171875 263.203125 C176.171875 263.863125 176.171875 264.523125 176.171875 265.203125 C174.521875 265.863125 172.871875 266.523125 171.171875 267.203125 C171.171875 267.863125 171.171875 268.523125 171.171875 269.203125 C166.78725962 272.203125 166.78725962 272.203125 164.171875 272.203125 C164.171875 272.863125 164.171875 273.523125 164.171875 274.203125 C162.7824707 275.28466797 162.7824707 275.28466797 160.84765625 276.4453125 C160.14833984 276.87199219 159.44902344 277.29867188 158.72851562 277.73828125 C157.98794922 278.18042969 157.24738281 278.62257813 156.484375 279.078125 C150.97412893 282.34338169 150.97412893 282.34338169 145.83984375 286.1484375 C141.6125563 289.40400587 136.8771425 291.71016421 132.171875 294.203125 C130.4291817 295.15532489 128.68698292 296.10843045 126.9453125 297.0625 C95.17946111 314.19085806 58.92968907 328.19743898 22.34375 328.40625 C21.52105118 328.41326431 20.69835236 328.42027863 19.85072327 328.42750549 C17.20771767 328.44493129 14.56493595 328.45135851 11.921875 328.453125 C10.56912979 328.45413712 10.56912979 328.45413712 9.1890564 328.45516968 C-3.74410002 328.43976261 -16.16406624 328.02112514 -28.828125 325.203125 C-30.44906993 324.88206025 -32.07017001 324.56177804 -33.69140625 324.2421875 C-84.43573233 313.68810797 -129.64443784 285.16188597 -168.828125 252.203125 C-169.39160645 251.72987793 -169.95508789 251.25663086 -170.53564453 250.76904297 C-182.7722919 240.46776703 -182.7722919 240.46776703 -188.27734375 234.7578125 C-189.95209458 233.07884316 -191.71005226 231.55275209 -193.515625 230.015625 C-201.21011361 223.36902394 -208.42111961 216.05101754 -215.00390625 208.3046875 C-216.84465923 206.184077 -218.7512089 204.1340059 -220.67089844 202.08496094 C-226.256549 196.10393469 -231.42020967 189.88611065 -236.3671875 183.3671875 C-237.79881288 181.48577943 -239.20556668 179.81111029 -240.8515625 178.1015625 C-245.28034897 173.38168209 -245.62734972 168.40145729 -245.55297852 162.15283203 C-245.19079603 156.0696006 -243.30945914 151.38260761 -238.828125 147.203125 C-238.168125 147.203125 -237.508125 147.203125 -236.828125 147.203125 C-236.168125 145.553125 -235.508125 143.903125 -234.828125 142.203125 C-234.168125 142.203125 -233.508125 142.203125 -232.828125 142.203125 C-232.4259375 140.9965625 -232.4259375 140.9965625 -232.015625 139.765625 C-231.62375 138.92 -231.231875 138.074375 -230.828125 137.203125 C-229.838125 136.873125 -228.848125 136.543125 -227.828125 136.203125 C-226.77791397 134.35340804 -226.77791397 134.35340804 -225.828125 132.203125 C-224.328125 129.953125 -224.328125 129.953125 -222.828125 128.203125 C-222.168125 128.203125 -221.508125 128.203125 -220.828125 128.203125 C-220.60125 127.666875 -220.374375 127.130625 -220.140625 126.578125 C-217.26849722 121.3809414 -213.00734525 117.34817752 -208.828125 113.203125 C-207.33802274 111.71406078 -205.84849728 110.22441924 -204.359375 108.734375 C-194.296875 98.671875 -194.296875 98.671875 -191.92578125 96.3046875 C-190.69904215 95.07566397 -189.47589952 93.84299421 -188.26171875 92.6015625 C-185.92441054 90.21422017 -183.55250125 88.13655331 -180.828125 86.203125 C-178.30365365 84.36325605 -176.24497369 82.61997369 -174.015625 80.390625 C-171.828125 78.203125 -171.828125 78.203125 -168.828125 77.203125 C-168.333125 75.718125 -168.333125 75.718125 -167.828125 74.203125 C-165.265625 73.015625 -165.265625 73.015625 -162.828125 72.203125 C-162.828125 71.543125 -162.828125 70.883125 -162.828125 70.203125 C-161.178125 69.543125 -159.528125 68.883125 -157.828125 68.203125 C-157.828125 67.543125 -157.828125 66.883125 -157.828125 66.203125 C-157.18875 66.1 -156.549375 65.996875 -155.890625 65.890625 C-155.21 65.66375 -154.529375 65.436875 -153.828125 65.203125 C-153.333125 63.718125 -153.333125 63.718125 -152.828125 62.203125 C-150.765625 61.515625 -150.765625 61.515625 -148.828125 61.203125 C-148.828125 60.543125 -148.828125 59.883125 -148.828125 59.203125 C-144.44350962 56.203125 -144.44350962 56.203125 -141.828125 56.203125 C-141.828125 55.543125 -141.828125 54.883125 -141.828125 54.203125 C-140.4387207 53.08984375 -140.4387207 53.08984375 -138.50390625 51.890625 C-137.45493164 51.23707031 -137.45493164 51.23707031 -136.38476562 50.5703125 C-135.64419922 50.11914062 -134.90363281 49.66796875 -134.140625 49.203125 C-133.41939453 48.75195312 -132.69816406 48.30078125 -131.95507812 47.8359375 C-128.3394611 45.60383055 -124.86348191 43.60395896 -120.828125 42.203125 C-120.828125 41.543125 -120.828125 40.883125 -120.828125 40.203125 C-118.19765749 38.76625661 -115.56655016 37.33058135 -112.93457031 35.89648438 C-111.0108706 34.84785335 -109.08814694 33.79742693 -107.16699219 32.74414062 C-74.79278838 15.07204003 -37.44976067 0.21374121 0 0 Z M-114.828125 80.203125 C-115.4252832 80.57260254 -116.02244141 80.94208008 -116.63769531 81.32275391 C-118.06948465 82.22988933 -119.45449862 83.21011646 -120.828125 84.203125 C-120.828125 84.863125 -120.828125 85.523125 -120.828125 86.203125 C-122.148125 86.533125 -123.468125 86.863125 -124.828125 87.203125 C-124.828125 87.863125 -124.828125 88.523125 -124.828125 89.203125 C-126.148125 89.533125 -127.468125 89.863125 -128.828125 90.203125 C-128.828125 90.863125 -128.828125 91.523125 -128.828125 92.203125 C-130.148125 92.533125 -131.468125 92.863125 -132.828125 93.203125 C-132.828125 93.863125 -132.828125 94.523125 -132.828125 95.203125 C-134.478125 95.863125 -136.128125 96.523125 -137.828125 97.203125 C-137.828125 97.863125 -137.828125 98.523125 -137.828125 99.203125 C-138.941875 99.574375 -138.941875 99.574375 -140.078125 99.953125 C-143.14765777 101.34836717 -144.51534853 102.75818987 -146.828125 105.203125 C-148.77819601 106.93103602 -150.75199626 108.62894709 -152.73046875 110.32421875 C-154.2644397 111.69822252 -155.75084561 113.12584561 -157.20703125 114.58203125 C-160.49389048 117.86889048 -163.92343313 120.97730013 -167.3671875 124.09765625 C-170.61065348 127.05004195 -173.74328013 130.08328189 -176.828125 133.203125 C-177.59253906 133.9559375 -178.35695313 134.70875 -179.14453125 135.484375 C-182.95187199 139.2453655 -186.53877619 142.97396225 -189.828125 147.203125 C-192.27201524 149.7096791 -194.75821743 152.1384605 -197.328125 154.515625 C-200.38038026 157.7967994 -202.57837009 161.34503467 -204.828125 165.203125 C-204.11527344 165.9765625 -203.40242188 166.75 -202.66796875 167.546875 C-201.70047044 168.59891199 -200.73302543 169.650998 -199.765625 170.703125 C-199.06663086 171.46109375 -199.06663086 171.46109375 -198.35351562 172.234375 C-194.30934772 176.63619041 -194.30934772 176.63619041 -192.40258789 178.88256836 C-186.74619649 185.54119965 -180.53282652 191.648969 -174.34936523 197.81225586 C-172.39516876 199.7610937 -170.44637353 201.71521772 -168.49804688 203.66992188 C-162.44767919 209.72415425 -156.41196916 215.7228411 -149.828125 221.203125 C-149.1988208 221.7391333 -148.5695166 222.2751416 -147.92114258 222.82739258 C-99.01801889 264.36063463 -38.99007588 296.99939197 26.94970703 291.9921875 C55.05518655 289.27180378 81.56548255 279.82500504 106.16503906 266.28271484 C108.76682787 264.88306641 111.43234444 263.63915606 114.109375 262.390625 C119.97375353 259.49618924 125.42880087 255.98736899 130.921875 252.453125 C132.28300415 251.58337036 132.28300415 251.58337036 133.67163086 250.69604492 C134.51218018 250.1466626 135.35272949 249.59728027 136.21875 249.03125 C136.98026367 248.5352832 137.74177734 248.03931641 138.52636719 247.52832031 C139.06938477 247.09100586 139.61240234 246.65369141 140.171875 246.203125 C140.171875 245.543125 140.171875 244.883125 140.171875 244.203125 C141.161875 244.203125 142.151875 244.203125 143.171875 244.203125 C143.171875 243.543125 143.171875 242.883125 143.171875 242.203125 C144.491875 241.873125 145.811875 241.543125 147.171875 241.203125 C147.171875 240.543125 147.171875 239.883125 147.171875 239.203125 C148.491875 238.873125 149.811875 238.543125 151.171875 238.203125 C151.171875 237.543125 151.171875 236.883125 151.171875 236.203125 C152.491875 235.873125 153.811875 235.543125 155.171875 235.203125 C155.171875 234.543125 155.171875 233.883125 155.171875 233.203125 C156.821875 232.543125 158.471875 231.883125 160.171875 231.203125 C160.171875 230.543125 160.171875 229.883125 160.171875 229.203125 C160.914375 228.955625 161.656875 228.708125 162.421875 228.453125 C165.49140777 227.05788283 166.85909853 225.64806013 169.171875 223.203125 C171.12194601 221.47521398 173.09574626 219.77730291 175.07421875 218.08203125 C177.5350857 215.87779103 179.83758554 213.54089328 182.171875 211.203125 C184.15196299 209.32702266 186.15945608 207.48193724 188.171875 205.640625 C188.67976563 205.17205078 189.18765625 204.70347656 189.7109375 204.22070312 C192.02821827 202.09652909 194.36482194 200.05069408 196.83203125 198.1015625 C199.02312914 196.32381029 200.78707888 194.53630221 202.609375 192.390625 C203.20363281 191.69710937 203.79789062 191.00359375 204.41015625 190.2890625 C205.28220703 189.25652344 205.28220703 189.25652344 206.171875 188.203125 C210.44251162 183.15317513 214.80779536 178.38989867 219.671875 173.890625 C222.72413026 170.6094506 224.92212009 167.06121533 227.171875 163.203125 C226.45902344 162.4296875 225.74617188 161.65625 225.01171875 160.859375 C224.04403528 159.80750832 223.07660505 158.75540864 222.109375 157.703125 C221.60349854 157.15285645 221.09762207 156.60258789 220.57641602 156.03564453 C217.87378575 153.0875559 215.21039847 150.11682069 212.609375 147.078125 C208.38589799 142.2033166 203.76301526 137.72783397 199.171875 133.203125 C196.35848675 130.40371054 193.56541775 127.58604111 190.7890625 124.75 C184.41154591 118.2619103 178.04703908 111.99510436 170.88671875 106.359375 C168.43216681 104.40986037 166.06032456 102.38803726 163.69726562 100.3293457 C83.10777442 30.48264184 -14.02502848 17.52998699 -114.828125 80.203125 Z " fill="#B56CF7" transform="translate(244.828125,91.796875)"/>
<path d="M0 0 C20.9377393 18.41733432 32.58311306 43.26622235 35 71 C36.46510104 95.11312124 28.99238317 120.88842245 14 140 C13.01 140.33 12.02 140.66 11 141 C10.32691857 142.66408642 9.66131214 144.33120149 9 146 C7.01171875 148.38671875 7.01171875 148.38671875 4.6875 150.6875 C3.92824219 151.45449219 3.16898438 152.22148437 2.38671875 153.01171875 C-0.01772495 155.01476595 -2.04738098 156.02276149 -5 157 C-5 157.66 -5 158.32 -5 159 C-6.32 159.33 -7.64 159.66 -9 160 C-9 160.66 -9 161.32 -9 162 C-9.99 162 -10.98 162 -12 162 C-12 162.66 -12 163.32 -12 164 C-38.71073184 178.14510504 -67.32188674 184.88573065 -97 175.875 C-113.98659625 170.40010222 -128.05497094 161.17579983 -141 149 C-141.60457031 148.47148437 -142.20914063 147.94296875 -142.83203125 147.3984375 C-161.15611664 130.66215342 -169.73105292 103.88475404 -171.1875 79.9140625 C-171.61120228 60.15894356 -166.33544162 42.18944036 -157 25 C-156.32724413 23.66972869 -155.65758116 22.33783753 -155 21 C-154.34 21 -153.68 21 -153 21 C-153 20.01 -153 19.02 -153 18 C-152.34 18 -151.68 18 -151 18 C-150.77957031 17.30003906 -150.55914062 16.60007813 -150.33203125 15.87890625 C-148.68585774 12.32104737 -146.3517841 9.75038959 -143.6875 6.9375 C-143.21376953 6.42123047 -142.74003906 5.90496094 -142.25195312 5.37304688 C-139.37558084 2.28419292 -136.44231149 -0.52935647 -133 -3 C-132.34 -3 -131.68 -3 -131 -3 C-131 -3.66 -131 -4.32 -131 -5 C-129.68 -5.33 -128.36 -5.66 -127 -6 C-127 -6.66 -127 -7.32 -127 -8 C-126.01 -8 -125.02 -8 -124 -8 C-124 -8.66 -124 -9.32 -124 -10 C-82.72939447 -31.85552435 -36.27323004 -31.8174014 0 0 Z M-119.9375 35.1875 C-122.24153088 38.32936029 -124.17961513 41.56558967 -126 45 C-126.32871094 45.55945313 -126.65742188 46.11890625 -126.99609375 46.6953125 C-135.38188359 61.77015649 -136.31002631 79.86465655 -131.9050293 96.29907227 C-128.47084289 107.73441113 -122.41740905 116.67119526 -114 125 C-113.40960938 125.62390625 -112.81921875 126.2478125 -112.2109375 126.890625 C-100.58391593 138.26154477 -83.87142045 143.18975624 -68 143.375 C-53.57455893 143.20663303 -42.50585002 138.75861728 -30 132 C-30 131.34 -30 130.68 -30 130 C-29.1646875 129.9071875 -29.1646875 129.9071875 -28.3125 129.8125 C-24.05409565 128.31630388 -21.55539117 124.69820604 -18.8125 121.25 C-17 119 -17 119 -15 118 C-15 117.01 -15 116.02 -15 115 C-14.34 115 -13.68 115 -13 115 C-2.93022475 96.64246028 1.41830811 78.2701848 -4.0949707 57.70092773 C-7.52915711 46.26558887 -13.58259095 37.32880474 -22 29 C-22.59039062 28.37609375 -23.18078125 27.7521875 -23.7890625 27.109375 C-35.98264652 15.18437212 -53.51383877 10.45533174 -70.12524414 10.57983398 C-90.25821181 11.24519338 -106.66398608 20.09845986 -119.9375 35.1875 Z " fill="#B46BF6" transform="translate(324,179)"/>
</svg>
